<?xml version="1.0" encoding="UTF-8"?>
<svg width="22px" height="16px" viewBox="0 0 22 16" version="1.1" xmlns="http://www.w3.org/2000/svg" xmlns:xlink="http://www.w3.org/1999/xlink">
    <!-- Generator: Sketch 51.3 (57544) - http://www.bohemiancoding.com/sketch -->
    <title>Combined Shape</title>
    <desc>Created with Sketch.</desc>
    <defs></defs>
    <g id="Rol-LIGA" stroke="none" stroke-width="1" fill="none" fill-rule="evenodd">
        <g id="LALIAlegaciones2_LALIGA" transform="translate(-467.000000, -543.000000)" fill="#FFFFFF">
            <g id="Group-12-Copy" transform="translate(478.000000, 551.000000) scale(-1, 1) translate(-478.000000, -551.000000) translate(454.000000, 531.000000)">
                <path d="M22.7761137,16.5737104 C29.120134,16.5737104 34.2810898,21.6997301 34.2810898,28 L32.8467371,28 C32.8467371,22.4851425 28.3290789,17.9982842 22.7761137,17.9982842 L19.8672022,17.9982842 L18.4328495,17.9982842 L18.4328495,15.4391427 L15.0283978,18.820384 L18.4328495,22.2016254 L18.4328495,20.1471244 L19.8672022,20.1471244 L19.8672022,25.6407681 L14.0141989,19.8276685 L13,18.820384 L19.8672022,12 L19.8672022,16.5737104 L22.7761137,16.5737104 Z M33.7812525,21.2210704 C33.0919692,19.8923334 32.1566747,18.6656725 31.0216062,17.6221997 C30.6657822,17.2952565 30.2885987,16.9882793 29.8958354,16.6992716 L30.1928579,16.3039448 C30.6285916,16.5345521 31.0550275,16.7861236 31.4666375,17.0639005 C32.8147984,17.9716046 34.0199763,19.1258887 35,20.4698498 L33.7812525,21.2210704 Z" id="Combined-Shape"></path>
            </g>
        </g>
    </g>
</svg>