<?xml version="1.0" encoding="UTF-8"?>
<svg width="23px" height="39px" viewBox="0 0 23 39" version="1.1" xmlns="http://www.w3.org/2000/svg" xmlns:xlink="http://www.w3.org/1999/xlink">
    <!-- Generator: Sketch 51.3 (57544) - http://www.bohemiancoding.com/sketch -->
    <title>Menu/Escudo</title>
    <desc>Created with Sketch.</desc>
    <defs></defs>
    <g id="Symbols" stroke="none" stroke-width="1" fill="none" fill-rule="evenodd">
        <g id="Menu-Oscuro" transform="translate(-872.000000, -13.000000)">
            <g id="Menu/Escudo" transform="translate(872.000000, 13.000000)">
                <g id="real-sporting-de-gijon-2">
                    <path d="M11.4729806,38.8351864 L0.0254563107,13.3706102 L6.16801942,13.3706102 C7.72107767,12.5676949 10.2251748,12.2552542 11.4698544,12.2526102 C12.7203398,12.2552542 15.2242136,12.5679153 16.7772718,13.3706102 L22.9202816,13.3706102 L11.4729806,38.8351864 Z" id="Shape" fill="#CC2229" fill-rule="nonzero"></path>
                    <path d="M11.4727573,35.8859492 L9.82479612,32.2197288 L9.82479612,13.7848475 C10.5092136,13.688339 11.1199417,13.6414068 11.4754369,13.6400847 C11.8213301,13.6414068 12.4115146,13.6863559 13.0769515,13.7784576 L13.0769515,32.3168983 L11.4727573,35.8859492 Z M6.53601942,24.9027119 L3.28386408,17.667661 L3.28386408,14.5670508 L6.53601942,14.5670508 L6.53601942,24.9027119 Z M16.3659515,14.5670508 L19.6181068,14.5670508 L19.6181068,17.7648305 L16.3659515,24.9998814 L16.3659515,14.5670508 Z" id="Shape" fill="#FFFFFF" fill-rule="nonzero"></path>
                    <path d="M9.48694175,19.994 C8.9014466,20.4282881 8.61584466,20.9511525 8.61584466,21.3638475 C8.61584466,22.2302203 9.87637864,23.5879492 12.5271845,23.5879492 C12.6750097,23.5879492 12.819932,23.5811186 12.9615049,23.5685593 C12.5006117,22.5193051 11.3655728,21.7705932 10.6813786,21.1858136 C10.269835,20.8147627 9.83484466,20.4518644 9.48694175,19.994 Z M15.7954175,24.023339 C15.4272144,24.1987972 15.0441253,24.3420523 14.6505534,24.4514576 L14.6518932,24.5490678 C14.6518932,26.5244068 13.0421165,27.8054576 11.3251553,27.8054576 C10.2979709,27.8054576 9.07160194,27.3784407 8.30500971,26.506339 L8.96419417,25.4742712 C9.59278641,25.9903051 10.2825631,26.5601017 11.2947864,26.5601017 C12.2978544,26.5601017 13.080301,25.9678305 13.158233,24.7233559 C12.9476602,24.7409831 12.7364175,24.7504576 12.5271845,24.7504576 C9.87771845,24.7504576 7.06300971,23.5128136 7.06300971,21.3636271 C7.06300971,20.2524576 7.81486408,19.3849831 8.90702913,18.8063729 C8.83579612,18.5247797 8.79582524,18.2112373 8.79582524,17.8575932 C8.79582524,16.1847797 10.1907864,14.9213559 11.8615243,14.9213559 C12.9807087,14.9213559 13.9161165,15.3840678 14.5141165,16.1669322 L13.8084854,17.056661 C13.2877476,16.6117966 12.5977476,16.1669322 11.9539709,16.1669322 C10.8805631,16.1669322 10.2825631,16.8966949 10.2825631,17.8575932 C10.2825631,17.9964068 10.2986408,18.1292712 10.3310194,18.2594915 C11.0474478,18.0714894 11.7856305,17.9763112 12.5269612,17.9763559 C13.647932,17.9763559 14.7608641,18.2868136 15.7154757,18.705678 L15.255699,19.7320169 C14.6201845,19.3924746 13.641233,19.1448136 12.5267379,19.1448136 C11.939233,19.1448136 11.4200583,19.2109153 10.9678738,19.3237288 C11.2967961,19.6853051 11.7465243,20.0808136 12.321301,20.5624746 C13.3688058,21.449339 14.1059223,22.2822203 14.4435534,23.2660339 L14.5159029,23.245322 L14.5163495,21.6225254 L15.7951942,21.6225254 L15.7951942,24.023339 L15.7954175,24.023339 Z M11.4812427,11.6984576 C9.02403883,11.6984576 7.11191262,12.2222034 5.89157282,12.9136271 L5.19085437,11.7149831 C6.83501942,10.8098305 9.1758835,10.3123051 11.4812427,10.3109831 C13.7868252,10.3123051 16.127466,10.8098305 17.7716311,11.7149831 L17.0706893,12.9136271 C15.8503495,12.2222034 13.9384466,11.6984576 11.483699,11.6984576 L11.4812427,11.6984576 Z" id="Shape" fill="#D2B22C" fill-rule="nonzero"></path>
                    <path d="M4.01338835,9.06672881 C3.60340777,9.02861017 3.17600971,8.65183051 3.17600971,7.73367797 C3.17600971,6.59011864 4.11543689,5.6629322 5.27436893,5.6629322 C5.48025243,5.6629322 5.67899029,5.69223729 5.86656311,5.74688136 C6.14201189,4.98955325 6.8048214,4.43389423 7.60674757,4.28801695 C8.17233559,4.18809679 8.74166695,4.11003716 9.31343689,4.05401695 C9.34432017,3.63842898 9.69501496,3.31680125 10.1173204,3.31676271 L10.9511262,3.31676271 C10.6060365,3.13095329 10.3913938,2.77396031 10.391534,2.38605085 C10.391534,1.87508475 10.7575243,1.44872881 11.2637476,1.34715254 L11.2637476,0.924762712 L10.8595728,0.924762712 L10.8595728,0.525728814 L11.2637476,0.525728814 L11.2637476,0.111050847 L11.6873495,0.111050847 L11.6873495,0.525728814 L12.091301,0.525728814 L12.091301,0.924762712 L11.6875728,0.924762712 L11.6875728,1.34715254 C12.1935728,1.44872881 12.5597864,1.87508475 12.5597864,2.38605085 C12.5597327,2.77390783 12.3451443,3.13081051 12.0001942,3.31676271 L12.8335534,3.31676271 C13.255988,3.31667765 13.6068824,3.63830975 13.6378835,4.05401695 C14.2075243,4.10976271 14.777835,4.18776271 15.3441262,4.28801695 C16.1461811,4.43383565 16.8091519,4.98948732 17.0847573,5.74688136 C17.2770489,5.69099779 17.4764932,5.66272467 17.6769515,5.6629322 C18.8356602,5.6629322 19.7750874,6.59011864 19.7750874,7.73367797 C19.7750874,8.65183051 19.3476893,9.02861017 18.9377087,9.06672881 C19.0323883,9.09361017 19.1212621,9.12908475 19.2032136,9.16940678 C19.6543997,9.40847524 19.9352544,9.87352048 19.9336311,10.3788475 C19.9336311,11.3038305 18.5275049,11.3038305 18.5275049,10.3788475 C18.2497184,10.8226102 17.6119709,11.3545085 16.6294466,11.0105593 C16.187534,10.8558814 15.7773301,10.580678 15.4026311,10.1567458 C14.0588058,10.4777797 12.788,10.3378644 11.4754369,9.44989831 C10.1630971,10.3378644 8.89139806,10.4777797 7.54801942,10.1567458 C7.17332039,10.5804576 6.7626699,10.8558814 6.32142718,11.0105593 C5.33845631,11.3545085 4.70093204,10.8226102 4.42314563,10.3788475 C4.42314563,11.3038305 3.01701942,11.3038305 3.01701942,10.3788475 C3.01530243,9.87355446 3.29607839,9.40849752 3.74721359,9.16940678 C3.83263381,9.12736348 3.92171875,9.09299861 4.01338835,9.06672881 Z" id="Shape" fill="#D2B22C" fill-rule="nonzero"></path>
                    <path d="M11.488835,6.16155932 L11.4622621,6.16155932 C11.1552233,6.16508475 10.830767,6.2970678 10.6273398,6.56059322 C10.3390583,6.34289831 10.1400971,5.99410169 10.1400971,5.51420339 L10.1613107,5.37759322 C9.38821306,5.42683046 8.61854051,5.51900475 7.85595146,5.65367797 C7.43802301,5.73188179 7.13619814,6.09327041 7.13826214,6.513 C7.13826214,6.62669492 7.16014563,6.734 7.199,6.83205085 C7.24946602,6.95852542 7.26331068,7.07883051 7.24946602,7.18877966 C6.82229126,7.05238983 6.31584466,7.21125424 6.03984466,7.56225424 C6.00063218,7.52206263 5.96534363,7.47831574 5.9344466,7.43159322 C5.82248876,7.1923122 5.58665299,7.03280642 5.32009645,7.01608204 C5.0535399,6.99935765 4.79912899,7.1281042 4.6573582,7.35146569 C4.51558741,7.57482717 4.50925567,7.85688363 4.64086408,8.08622034 C4.88895146,8.51830508 4.69423301,8.87481356 4.37558252,9.01098305 L4.40394175,9.01076271 C4.88091262,9.01076271 5.3364466,9.25798305 5.58743689,9.659 C5.59569903,9.66252542 5.67832039,9.73237288 5.70266019,9.73259322 C5.81297087,9.73501695 5.92305825,9.70064407 6.03046602,9.64137288 C6.02116847,9.63490868 6.01276153,9.62727985 6.00545631,9.61867797 C5.28397087,9.29940678 5.58029126,8.34886441 6.20397087,8.2860678 C6.06597087,7.50232203 7.23629126,7.15462712 7.54824272,7.91237288 C8.0035534,7.81454237 8.53925243,8.20498305 8.40571845,8.74437288 C8.39321359,8.79505085 8.37490291,8.84705085 8.3498932,8.8999322 C9.03632039,8.9869661 9.6821068,8.88098305 10.3511165,8.51037288 C10.277827,8.43774928 10.205692,8.36400017 10.1347379,8.28915254 C9.61109709,7.73808475 10.1994951,7.00413559 10.7820874,7.12113559 C10.8196019,6.72122034 11.1355728,6.51652542 11.4589126,6.50815254 C11.8083786,6.51189831 12.1312718,6.71615254 12.1696796,7.12113559 C12.7518252,7.00413559 13.3402233,7.73786441 12.8168058,8.28915254 C12.7458776,8.3641665 12.6735909,8.43791848 12.5999806,8.51037288 C13.2694369,8.88098305 13.915,8.9869661 14.6014272,8.8999322 C14.5778512,8.84994739 14.5591583,8.79785865 14.5456019,8.74437288 C14.412068,8.20498305 14.9482136,7.81432203 15.4030777,7.91237288 C15.7148058,7.15462712 16.8855728,7.50232203 16.7473495,8.2860678 C17.3710291,8.34908475 17.6671262,9.29940678 16.9463107,9.61867797 C16.9385789,9.62694705 16.9301364,9.63454035 16.9210777,9.64137288 C17.0282621,9.70086441 17.1387961,9.73501695 17.2491068,9.73259322 C17.273,9.73215254 17.356068,9.66252542 17.3643301,9.659 C17.6155437,9.25798305 18.0708544,9.01076271 18.5476019,9.01076271 L18.5764078,9.01098305 C18.257534,8.87481356 18.0630388,8.51830508 18.3111262,8.08622034 C18.3727158,7.97868943 18.4048833,7.8571933 18.404466,7.73367797 C18.4045253,7.54338744 18.3279427,7.36087394 18.1915782,7.22631821 C18.0552136,7.09176249 17.8702466,7.01619577 17.6773981,7.01625424 C17.3942488,7.01610713 17.136769,7.17817536 17.0175437,7.43159322 C16.9849417,7.48072881 16.9489903,7.52413559 16.9119223,7.56225424 C16.6359223,7.21125424 16.1290291,7.05238983 15.7020777,7.18877966 C15.688233,7.07883051 15.7020777,6.95852542 15.752767,6.83205085 C15.7916214,6.734 15.8132816,6.62669492 15.8132816,6.513 C15.8153656,6.09333922 15.5136552,5.73197513 15.0958155,5.65367797 C14.3330745,5.51901787 13.563254,5.42684373 12.7900097,5.37759322 L12.8114466,5.51420339 C12.8114466,5.99410169 12.6120388,6.34289831 12.3237573,6.56059322 C12.1201068,6.2970678 11.7956505,6.16508475 11.488835,6.16155932 Z" id="Shape" fill="#CC2229" fill-rule="nonzero"></path>
                </g>
            </g>
        </g>
    </g>
</svg>