<?xml version="1.0" encoding="UTF-8"?>
<svg width="150px" height="29px" viewBox="0 0 150 29" version="1.1" xmlns="http://www.w3.org/2000/svg" xmlns:xlink="http://www.w3.org/1999/xlink">
    <!-- Generator: Sketch 51.3 (57544) - http://www.bohemiancoding.com/sketch -->
    <title>Group 8</title>
    <desc>Created with Sketch.</desc>
    <defs></defs>
    <g id="Symbols" stroke="none" stroke-width="1" fill="none" fill-rule="evenodd">
        <g id="Logo/Laliga123-blanco" transform="translate(0.000000, -6.000000)" fill="#FFFFFF">
            <g id="Group-8" transform="translate(0.000000, 6.000000)">
                <path d="M137.027639,21.8690845 L137.027639,19.1611436 L129.65399,19.1611436 L137.027548,21.869051 L123.778027,21.8690714 L132.542443,11.3719941 C133.331381,10.4279123 134.173367,9.32802136 134.173367,8.21956227 C134.173367,6.47639864 132.553942,4.94730773 130.707687,4.94730773 C128.925588,4.94730773 127.436694,6.328235 127.318053,8.09103955 L127.29963,8.36139864 L124.327199,8.36139864 L124.364438,8.03765318 C124.774848,4.46116227 127.205422,2.23910318 130.707687,2.23910318 C134.251633,2.23910318 137.027548,4.82273955 137.027548,8.12083045 C137.027548,9.54328045 136.485562,11.0092305 135.540483,12.1424714 L129.654029,19.1611305 L137.027548,19.1611305 L137.027548,21.869051 Z M119.698027,19.174655 L117.107522,19.174655 L117.107522,8.18167773 L114.341537,9.02874136 L113.815492,6.95998682 L117.691842,5.89608227 L119.698027,5.89608227 L119.698027,19.174655 Z M121.997038,19.1682091 L121.997038,5.88963636 L122.711368,5.88963636 L122.711368,19.1682091 L121.997038,19.1682091 Z M138.768031,19.1682091 L138.768031,5.88963636 L139.482622,5.88963636 L139.482622,19.1682091 L138.768031,19.1682091 Z M144.351298,19.4115191 C143.065714,19.4115191 142.033354,19.1946782 141.546376,19.0372873 L141.994286,16.9685327 C142.38392,17.1062827 143.357744,17.3033509 144.312361,17.3033509 C146.026385,17.3033509 147.214495,16.5742645 147.214495,15.2345964 C147.214495,13.7175009 145.636751,13.2051236 143.357744,13.2051236 L143.357744,11.3924918 C145.305653,11.35321 146.863798,10.5650691 146.863798,9.32373727 C146.863798,8.39771455 146.065322,7.94452364 144.974556,7.94452364 C143.922726,7.94452364 142.948772,8.45690091 142.422857,8.90996 L141.390497,7.21556909 C142.09176,6.60485545 143.513624,5.81658273 145.481002,5.81658273 C148.03257,5.81658273 149.571376,7.01850091 149.571376,8.81136 C149.571376,10.5058827 148.091106,11.5303736 146.747117,11.9047373 L146.747117,11.9441509 C148.285923,12.1215782 149.999948,13.2445373 149.999948,15.2148236 C149.999948,17.7761827 147.662666,19.4115191 144.351298,19.4115191 Z M107.079186,10.5236386 C109.943036,11.2784295 111.91956,12.8816023 111.91956,14.7372068 C111.91956,17.3187341 108.09456,19.4114795 103.376485,19.4114795 C98.6584103,19.4114795 94.8335409,17.3187341 94.8335409,14.7372068 C94.8335409,12.8816023 96.8100653,11.2789568 99.6737848,10.5241659 C99.6438632,11.2233295 99.8078441,11.9290841 100.166511,12.5558795 L102.841555,17.2301523 C103.045518,17.5867205 103.186503,17.9687295 103.264769,18.3604932 L103.376485,18.1650068 C104.03855,17.0080386 104.03855,15.5825568 103.376485,14.4257205 L101.229708,10.6745705 L101.22997,10.6744386 C100.574569,9.51944773 100.576529,8.09989773 101.236503,6.94688409 L101.348349,6.75152955 C101.426616,7.14316136 101.56747,7.52503864 101.771433,7.88160682 L103.022391,10.0674159 L104.981537,13.4908659 C105.185632,13.8473023 105.326485,14.2293114 105.404752,14.6209432 L105.516598,14.4257205 C106.178663,13.2686205 106.178663,11.8432705 105.516598,10.6861705 L103.376485,6.94675227 C102.714421,5.78965227 102.714421,4.36430227 103.376485,3.20746591 L103.488332,3.01211136 C103.566598,3.40374318 103.707452,3.78575227 103.911546,4.14218864 L106.586459,8.81659318 C106.889856,9.34637045 107.053837,9.93269773 107.079186,10.5236386 Z" id="Combined-Shape"></path>
                <path d="M40.3463023,20.2653714 L32.9965636,20.2653714 L32.9965636,7.34890318 L36.3220427,7.34890318 L36.3220427,17.3310986 L40.3463023,17.3310986 L40.3463023,20.2653714 Z M40.8947822,15.1393973 C40.8947822,12.2558745 43.0068031,9.70914727 45.8504007,9.70914727 C47.0962631,9.70914727 47.8786672,10.1313609 48.7931707,10.97447 L48.7931707,9.91280636 L51.8530139,9.91280636 L51.8530139,20.2652791 L48.7432578,20.2652791 L48.7432578,19.2533109 C48.7432578,19.2533109 47.6296254,20.5187655 45.6839373,20.5187655 C42.8404704,20.5187655 40.8947822,18.4598973 40.8947822,15.1393973 M46.4655575,12.6094109 C44.9848955,12.6094109 44.0370732,13.7223518 44.0370732,15.0879882 C44.0370732,16.52217 44.9355052,17.7020745 46.365993,17.7020745 C47.7464373,17.7020745 48.8933885,16.6740245 48.8933885,15.1727473 C48.8933885,13.6552564 47.8287544,12.6094109 46.4655575,12.6094109 M61.0332622,20.2653714 L53.6835235,20.2653714 L53.6835235,7.34890318 L57.0092639,7.34890318 L57.0092639,17.3310986 L61.0332622,17.3310986 L61.0332622,20.2653714 Z M62.1142814,7.28186045 C62.1142814,6.23588318 62.9445078,5.37590136 63.9766071,5.37590136 C65.0077918,5.37590136 65.855527,6.20226955 65.855527,7.24785136 C65.855527,8.31043773 65.0077918,9.16962864 63.942635,9.16962864 C62.9276524,9.16962864 62.1142814,8.34352409 62.1142814,7.28186045 Z M62.4124521,20.2654241 L65.5060061,20.2654241 L65.5060061,9.91295136 L62.4124521,9.91295136 L62.4124521,20.2654241 Z M66.8362369,14.8864382 C66.8362369,12.0870155 68.5983449,9.70967455 71.2931185,9.70967455 C72.5904617,9.70967455 73.470993,10.1312291 74.3513937,11.0750473 L74.3513937,9.91267455 L77.3135017,9.91267455 L77.3135017,19.0351518 C77.3135017,22.2379382 74.9337544,23.9071518 72.0736934,23.9071518 C69.5631533,23.9071518 67.36777,22.6257473 67.0371951,20.2982336 L70.5114983,20.2982336 C70.9426829,21.0072836 71.3742596,21.14042 72.141115,21.14042 C73.2212979,21.14042 74.2185105,20.6366109 74.2185105,19.5066655 C74.2185105,19.2359109 74.2358885,19.0000882 74.2021777,18.7309155 C73.6033537,19.2705791 72.4897213,19.9286155 71.2756098,19.9286155 C68.6327091,19.9286155 66.8362369,17.7020745 66.8362369,14.8864382 M72.0074477,12.3899336 C70.5611498,12.3899336 69.8459059,13.5875018 69.8459059,14.8694336 C69.8459059,16.2006655 70.6280488,17.2977882 71.9916376,17.2977882 C73.5380226,17.2977882 74.3682491,16.0492064 74.3682491,14.8864382 C74.3682491,13.5027427 73.6033537,12.3899336 72.0074477,12.3899336 M78.6420732,15.1393973 C78.6420732,12.2558745 80.7540941,9.70914727 83.5972997,9.70914727 C84.8457753,9.70914727 85.6275261,10.1313609 86.5413763,10.97447 L86.5413763,9.91280636 L89.6016115,9.91280636 L89.6016115,20.2652791 L86.4917247,20.2652791 L86.4917247,19.2533109 C86.4917247,19.2533109 85.377831,20.5187655 83.4321429,20.5187655 C80.5889373,20.5187655 78.6420732,18.4598973 78.6420732,15.1393973 M84.2142857,12.6094109 C82.7336237,12.6094109 81.7864547,13.7223518 81.7864547,15.0879882 C81.7864547,16.52217 82.6834495,17.7020745 84.1135453,17.7020745 C85.4942509,17.7020745 86.6413328,16.6740245 86.6413328,15.1727473 C86.6413328,13.6552564 85.5782666,12.6094109 84.2142857,12.6094109" id="Combined-Shape"></path>
                <g id="Group-6">
                    <path d="M3.97810976,6.33383727 C3.9514547,6.38524636 3.95328397,6.44917818 3.9872561,6.50045545 C4.00293554,6.52365545 4.02344948,6.54158273 4.0470993,6.55357818 L9.01735192,9.46834182 L9.02871951,9.47453727 C9.080723,9.50301 9.14631533,9.50076909 9.19779617,9.46412364 C9.21399826,9.45239182 9.22719512,9.43815545 9.23764808,9.42233727 C9.24313589,9.41469182 9.24744774,9.40691455 9.25110627,9.39821455 C9.70933798,8.57896455 10.3481446,7.84579182 11.1596864,7.26631909 C11.9742334,6.68473727 12.8755401,6.31999636 13.7973606,6.15706909 C13.8041551,6.15706909 13.8105575,6.15588273 13.8169599,6.15430091 C13.8365592,6.14995091 13.8556359,6.14138273 13.8736672,6.12899182 C13.9251481,6.09129182 13.9487979,6.02907364 13.9392596,5.97015091 L13.9374303,5.95894636 L12.885601,0.257678182 L12.8835105,0.247791818 C12.8793293,0.224855455 12.8697909,0.202314545 12.8547648,0.182805455 C12.8189634,0.134955455 12.7622561,0.112414545 12.7064634,0.11861 C12.7018902,0.119532727 12.6975784,0.120455455 12.6936585,0.121114545 C10.9369077,0.441828182 9.19962544,1.14903273 7.64644599,2.25854636 C6.09195993,3.36779636 4.86256098,4.76783727 3.97902439,6.33291455" id="Fill-28"></path>
                    <path d="M1.13990854,17.3481164 C1.16290505,17.4008436 1.21373258,17.4395982 1.27435976,17.4453982 C1.30232143,17.4479027 1.32949913,17.4423664 1.35314895,17.4322164 L6.71734756,15.3465891 L6.7292378,15.3413164 C6.78385453,15.3182482 6.82370645,15.2645982 6.826973,15.2017209 C6.82827962,15.1815527 6.82579704,15.1620436 6.82004791,15.1438527 C6.81756533,15.1351527 6.81416812,15.1268482 6.80959495,15.1185436 C6.46334059,14.2451164 6.29674652,13.2838982 6.35645906,12.2824755 C6.41708624,11.2777573 6.69957753,10.3403982 7.15114547,9.51323909 C7.15480401,9.50809818 7.15754791,9.50216636 7.16003049,9.49636636 C7.16930749,9.47778 7.17505662,9.45708455 7.17623258,9.43612545 C7.18002178,9.37113909 7.14631098,9.31393 7.09509146,9.28427091 L7.08503049,9.27873455 L2.01965592,6.53704818 L2.01090157,6.53269818 C1.98999564,6.52188909 1.96739111,6.51503455 1.94282666,6.51503455 C1.88311411,6.51266182 1.83045732,6.54350727 1.80040505,6.59083 C1.79766115,6.59544364 1.79583188,6.59887091 1.79361063,6.60348455 L1.79387195,6.60308909 C0.941955575,8.18556636 0.401276132,9.99516636 0.28603223,11.9119345 C0.17091899,13.8288345 0.483723868,15.6716527 1.13990854,17.3471936" id="Fill-30"></path>
                    <path d="M7.95800958,26.3999391 C8.01314895,26.4143073 8.07508275,26.3988845 8.11637195,26.3540664 C8.13531794,26.3337664 8.14825348,26.3091164 8.15491725,26.2839391 L9.8652831,20.7467845 L9.86868031,20.7345255 C9.88501307,20.6762618 9.86841899,20.6127255 9.82085801,20.5697527 C9.80596254,20.5564391 9.78962979,20.5465527 9.77185976,20.5394345 C9.76362805,20.5364027 9.75474303,20.5335027 9.74585801,20.5319209 C8.85226045,20.2634073 8.00152003,19.7982209 7.26079704,19.1288482 C6.5174608,18.4574982 5.96449913,17.6522209 5.60243467,16.78143 C5.60034408,16.7752345 5.59812282,16.7690391 5.5951176,16.7633709 C5.58584059,16.7443891 5.57329704,16.7271209 5.5576176,16.7135436 C5.51018728,16.6700436 5.44498693,16.6612118 5.39010889,16.6838845 L5.3793946,16.6881027 L0.103392857,18.9913618 L0.0947691638,18.99558 C0.0733405923,19.0052027 0.0540026132,19.0191755 0.0391071429,19.03763 C-0.000222125436,19.08403 -0.0093684669,19.1451936 0.00931620209,19.1980527 C0.0108841463,19.2022709 0.0129747387,19.2067527 0.0145426829,19.2111027 L0.0145426829,19.2104436 C0.714891115,20.8672664 1.78553571,22.4185027 3.20308798,23.6996436 C4.62142422,24.9809164 6.24725174,25.8784664 7.95670296,26.3995436" id="Fill-32"></path>
                    <path d="M19.1668641,26.6696259 C19.2128571,26.6356168 19.2391202,26.5772214 19.2306272,26.5160577 C19.22723,26.4882441 19.2161237,26.462935 19.2005749,26.4418441 L15.9967422,21.6259986 L15.9890331,21.6158486 C15.9544077,21.5673395 15.8946951,21.5400532 15.8325,21.5505986 C15.8129007,21.5536305 15.7948693,21.560485 15.7782753,21.5698441 C15.7703049,21.5744577 15.7625958,21.5803895 15.7561934,21.5861895 C14.9882927,22.1199214 14.0957404,22.4970532 13.1145993,22.6594532 C12.1301916,22.8226441 11.1614634,22.7531759 10.2621167,22.4917805 C10.2559756,22.4892759 10.2494425,22.4879577 10.2434321,22.4862441 C10.2231794,22.4817623 10.2024042,22.4805759 10.1817596,22.4840032 C10.1183885,22.4944168 10.0703049,22.5402895 10.0534495,22.5976305 L10.0504443,22.608835 L8.52169861,28.198585 L8.51960801,28.2084714 C8.51307491,28.2316714 8.51216028,28.2553986 8.51712544,28.2799168 C8.52810105,28.3388395 8.56978223,28.3840532 8.62243902,28.4031668 C8.62648955,28.4047486 8.63106272,28.405935 8.63589721,28.4063305 L8.63537456,28.4063305 C10.3537108,28.8943214 12.2227003,29.0256123 14.1007056,28.7141259 C15.9794948,28.4025077 17.6918206,27.6871305 19.1663415,26.6705486" id="Fill-34"></path>
                    <path d="M26.4650566,18.032055 C26.4668859,17.9748459 26.4378789,17.9180323 26.3857448,17.8862641 C26.360919,17.8722914 26.3347866,17.8651732 26.3081315,17.8642505 L20.577034,17.4133005 L20.5646211,17.4123777 C20.5053005,17.4098732 20.4470253,17.4401914 20.4160584,17.4964777 C20.4066507,17.5137459 20.4005096,17.5325959 20.398027,17.5511823 C20.3964591,17.560805 20.3961977,17.5696368 20.3964591,17.5788641 C20.3355706,18.5176732 20.0751611,19.457405 19.5932796,20.3353141 C19.1098301,21.2153323 18.4541681,21.938355 17.6935845,22.487905 C17.6877047,22.4915959 17.6822169,22.495155 17.6779051,22.4993732 C17.661703,22.5128186 17.6475915,22.5282414 17.6368772,22.5472232 C17.6065636,22.6041686 17.6120514,22.6702095 17.6462848,22.7187186 L17.6530793,22.7283414 L21.0514678,27.4052505 L21.0578702,27.4134232 C21.0719817,27.4322732 21.0897517,27.4476959 21.1118336,27.4591641 C21.1648824,27.4869777 21.2257709,27.4819686 21.2729399,27.4520459 C21.2769904,27.4495414 21.280257,27.4471686 21.2843075,27.4442686 L21.2836542,27.4442686 C22.7283841,26.3860323 23.9896646,24.9887595 24.9121385,23.3099232 C25.835527,21.6292414 26.3413197,19.8305823 26.4650566,18.0329777" id="Fill-36"></path>
                    <path d="M24.2983537,6.87443682 C24.2545819,6.83673682 24.1922561,6.82381864 24.1352875,6.84543682 C24.1090244,6.85519136 24.0872038,6.87166864 24.0700871,6.89104591 L20.1141638,11.1000005 L20.1059321,11.1094914 C20.0660801,11.1540459 20.052622,11.2189005 20.0767944,11.277955 C20.0847648,11.2972005 20.0948258,11.3131505 20.1080226,11.3271232 C20.1135105,11.3339777 20.1205662,11.3404368 20.127622,11.3453141 C20.8129443,11.9845005 21.3723084,12.7802868 21.7452178,13.7102641 C22.1182578,14.6436686 22.2626394,15.6124005 22.2068467,16.5552959 C22.2056707,16.5614914 22.2056707,16.5683459 22.2056707,16.5750686 C22.2056707,16.5955005 22.2095906,16.6161959 22.2169077,16.6358368 C22.2412108,16.6958141 22.2959582,16.7327232 22.3544948,16.7376005 L22.3658624,16.7376005 L28.1081969,17.0182414 L28.1176045,17.0182414 C28.1412544,17.0191641 28.1645122,17.0154732 28.1865941,17.0053232 C28.2417334,16.9814641 28.2766202,16.9301868 28.283676,16.8742959 C28.2839373,16.8699459 28.2839373,16.8650686 28.2839373,16.8603232 C28.3789286,15.062455 28.0970906,13.1944595 27.3841986,11.4139914 C26.6719599,9.63286409 25.6049739,8.103905 24.2988763,6.87509591" id="Fill-38"></path>
                    <path d="M14.2480923,1.68789227 C14.1920383,1.698965 14.1430401,1.74048773 14.1246167,1.79888318 C14.116385,1.82577409 14.1157317,1.85319227 14.1203049,1.87955591 L14.960723,7.61694227 L14.9630749,7.62933318 C14.9735279,7.68838773 15.0157317,7.73874227 15.0767509,7.75640591 C15.0960889,7.76233773 15.1150348,7.76418318 15.1341115,7.76233773 C15.1426045,7.761415 15.1524042,7.75983318 15.1607666,7.75759227 C16.0816725,7.60837409 17.0481794,7.65543318 18.0030575,7.93383318 C18.9617247,8.213815 19.8059321,8.69719227 20.5065418,9.323065 C20.511507,9.32767864 20.5164721,9.33229227 20.5219599,9.336115 C20.5375087,9.34876955 20.5561934,9.35891955 20.576446,9.365115 C20.6379878,9.38304227 20.7004443,9.36300591 20.7404268,9.31805591 L20.7480052,9.30948773 L24.5105488,4.92561045 L24.5170819,4.91756955 C24.532108,4.89937864 24.5433449,4.87841955 24.5492247,4.85456045 C24.5642509,4.796165 24.5460889,4.73750591 24.5066289,4.697565 C24.5032317,4.69426955 24.4995732,4.69136955 24.4963066,4.68860136 L24.4968293,4.68860136 C23.1532317,3.50302864 21.5215244,2.57371045 19.6935627,2.03997864 C17.8642944,1.50651045 16.0139895,1.40949227 14.2483537,1.68762864" id="Fill-40"></path>
                    <path d="M17.3500479,17.3909045 C17.423088,17.1960773 17.4453005,16.9692182 17.4696037,16.79245 C17.3748737,16.8839318 17.2713894,16.9717227 17.160196,17.0533182 C16.8326263,17.2933591 16.4794469,17.4491682 16.1403789,17.5219318 L15.2203876,16.5106227 L15.2077134,16.5194545 L15.874351,17.7100364 C15.7009625,18.0178318 15.4423824,18.3131045 15.1103702,18.5557818 C14.9994382,18.6369818 14.8848476,18.70935 14.769081,18.7717 C14.9422082,18.8026773 15.1621124,18.8511864 15.3677744,18.8424864 C14.9075828,19.0081818 14.412243,19.0996636 13.8953441,19.0996636 C13.3785758,19.0996636 12.8831054,19.0081818 12.4226524,18.8424864 C12.6285758,18.8511864 12.8495253,18.8026773 13.0225218,18.7717 C12.9067552,18.70935 12.7925566,18.6369818 12.6818859,18.5557818 C12.349743,18.3131045 12.0909016,18.0178318 11.9179051,17.7103 L12.5841507,16.5189273 L12.5722605,16.5097 L11.6513545,17.5219318 C11.3121559,17.4491682 10.9589765,17.2933591 10.6317988,17.0533182 C10.5204747,16.9717227 10.4169904,16.8839318 10.3233057,16.79245 C10.3468249,16.9698773 10.3695601,17.1983182 10.4424695,17.3935409 C9.86585801,16.6465273 9.52156359,15.7079818 9.52156359,14.6871818 C9.52156359,14.6386727 9.52365418,14.5904273 9.52522213,14.5428409 C9.5776176,14.7500591 9.69678136,14.9550364 9.78314895,15.1170409 C9.80588415,14.9862773 9.83868031,14.8545909 9.88114547,14.7222455 C10.0086716,14.3277136 10.2080618,13.9864364 10.4463894,13.7241182 L11.7618946,13.9932909 L11.7667291,13.9786591 L10.5370688,13.4115773 C10.5012674,13.0642364 10.5391594,12.6788 10.6639416,12.2917818 C10.7061455,12.1602273 10.7571037,12.0340773 10.8140723,11.9151773 C10.6457796,11.9966409 10.4216943,12.0949773 10.2567988,12.2377364 C10.8300131,11.3732727 11.6976089,10.7255182 12.7146821,10.4384182 C12.5244382,10.5511227 12.3592814,10.7397545 12.227574,10.8794818 C12.3574521,10.8611591 12.491642,10.8512727 12.6292291,10.8512727 C13.0379399,10.8512727 13.4171211,10.9362955 13.7367204,11.0815591 L13.8895949,12.4232045 L13.9048824,12.4232045 L14.057365,11.0809 C14.3760497,10.9360318 14.7556228,10.8512727 15.163027,10.8512727 C15.2999608,10.8512727 15.4350653,10.8611591 15.5649434,10.8794818 C15.4329747,10.7406773 15.2684713,10.5521773 15.07875,10.4393409 C16.0943859,10.7261773 16.9601524,11.3730091 17.5320601,12.2358909 C17.3679486,12.0940545 17.1451699,11.9966409 16.9775305,11.9151773 C17.0344991,12.0340773 17.0854573,12.1602273 17.1283145,12.2917818 C17.2523127,12.6794591 17.2903354,13.0654227 17.2542726,13.4131591 L16.026703,13.9793182 L16.0315375,13.9942136 L17.3467814,13.7253045 C17.5844556,13.9870955 17.7835845,14.3277136 17.9104573,14.7222455 C17.9533145,14.8545909 17.9858493,14.9865409 18.0087152,15.1170409 C18.0948214,14.9563545 18.2128092,14.7529591 18.265466,14.5467955 C18.2672953,14.5934591 18.2691246,14.6398591 18.2691246,14.6871818 C18.2691246,15.7064 17.9254834,16.6444182 17.3500479,17.3909045 Z M11.9742073,14.0551136 L12.7089199,16.3354364 L15.08527,16.3354364 L15.8195906,14.0551136 L13.896899,12.6458455 L11.9742073,14.0551136 Z" id="Fill-42"></path>
                </g>
            </g>
        </g>
    </g>
</svg>