<?xml version="1.0" encoding="UTF-8"?>
<svg width="230px" height="32px" viewBox="0 0 230 32" version="1.1" xmlns="http://www.w3.org/2000/svg" xmlns:xlink="http://www.w3.org/1999/xlink">
    <!-- Generator: Sketch 51.3 (57544) - http://www.bohemiancoding.com/sketch -->
    <title>Group</title>
    <desc>Created with Sketch.</desc>
    <defs></defs>
    <g id="Symbols" stroke="none" stroke-width="1" fill="none" fill-rule="evenodd">
        <g id="Logo/LaligaSantander-blanco" transform="translate(0.000000, -4.000000)" fill="#FFFFFF">
            <g id="Group" transform="translate(0.000000, 4.000000)">
                <path d="M229.958131,11.1409971 C229.958131,11.8384786 229.872879,12.6839107 229.744702,13.1277626 C229.189268,13.0641576 228.633834,13.0430218 227.971586,13.0430218 C227.394789,13.0430218 226.817992,13.085491 226.241395,13.1698367 L226.241395,22.2153675 L223.891482,22.2153675 L223.891482,11.6482564 C224.895536,11.3100836 226.5832,11.0564539 227.907497,11.0564539 C228.633834,11.0564539 229.445622,11.0775897 229.958131,11.1409971 M214.192949,15.7484046 L219.490536,15.7484046 C219.490536,14.0152688 218.55077,13.0009478 216.927194,13.0009478 C215.261091,13.0009478 214.385214,13.9518613 214.192949,15.7484046 M221.733634,17.6927008 L214.235674,17.6927008 C214.534754,19.5735897 215.645423,20.4824292 217.738982,20.4824292 C219.020753,20.4824292 220.323687,20.2074663 221.498643,19.6794663 C221.413192,20.292207 221.285214,21.0953675 221.135475,21.7926515 C220.067332,22.2789725 218.935101,22.4689971 217.674893,22.4689971 C213.744329,22.4689971 211.843435,20.3133428 211.843435,16.6995157 C211.843435,13.5502811 213.317272,11.0564539 217.055371,11.0564539 C220.409138,11.0564539 221.861812,13.2332441 221.861812,15.8963552 C221.861812,16.551565 221.818886,17.0797626 221.733634,17.6927008 M207.591829,19.763812 L207.591829,13.2545774 C206.972306,13.1277626 206.331421,13.0430218 205.712098,13.0430218 C203.383548,13.0430218 202.272879,14.4802564 202.272879,16.8897379 C202.272879,19.0453922 203.148756,20.5669725 205.242115,20.5669725 C206.181881,20.5669725 206.951143,20.2499354 207.591829,19.763812 M209.920379,7.42129344 L209.920379,22.2153675 L207.762732,22.2153675 L207.634555,20.8628737 C207.036395,21.8562564 206.117992,22.4689971 204.579867,22.4689971 C201.760371,22.4689971 199.88064,20.4399601 199.88064,16.8897379 C199.88064,13.1698367 201.888348,11.0564539 205.840075,11.0564539 C206.459798,11.0564539 207.036395,11.1198613 207.591829,11.2255404 L207.591829,7.73833048 C208.318166,7.48470085 209.151117,7.42129344 209.920379,7.42129344 M198.00011,15.1143305 L198.00011,22.2153675 L195.650197,22.2153675 L195.650197,15.5157132 C195.650197,13.8463799 195.094963,13.0430218 192.745049,13.0430218 C192.189615,13.0430218 191.527567,13.1064292 190.886681,13.2121083 L190.886681,22.2153675 L188.536968,22.2153675 L188.536968,11.6482564 C190.032167,11.2889478 191.677107,11.0564539 192.809338,11.0564539 C196.739702,11.0564539 198.00011,12.5568984 198.00011,15.1143305 M183.623313,19.8060836 L183.623313,13.1698367 C183.131968,13.085491 182.597897,13.0430218 181.935848,13.0430218 C179.500483,13.0430218 178.368253,14.5227255 178.368253,16.8897379 C178.368253,19.0453922 179.244329,20.5669725 181.337688,20.5669725 C182.256091,20.5669725 183.003791,20.2712688 183.623313,19.8060836 M185.973027,11.6482564 L185.973027,22.2153675 L183.815579,22.2153675 L183.687402,20.9476144 C183.089242,21.8773922 182.17064,22.4689971 180.67544,22.4689971 C177.855744,22.4689971 175.976013,20.4399601 175.976013,16.8897379 C175.976013,13.1698367 177.983921,11.0564539 181.935848,11.0564539 C183.473773,11.0564539 184.733982,11.2255404 185.973027,11.6482564 M173.369147,20.4824292 C174.052758,20.4824292 174.693643,20.3556144 175.206551,20.1655897 C175.142263,20.7994663 175.057011,21.5180836 174.928634,22.1308243 C174.287949,22.3844539 173.604338,22.4689971 172.942289,22.4689971 C170.656464,22.4689971 169.203791,21.4333428 169.203791,18.85517 L169.203791,7.75946628 C169.930128,7.52716999 170.827367,7.42129344 171.553704,7.42129344 L171.553704,11.4157626 L175.27044,11.4157626 C175.227714,12.1343799 175.163825,12.7895897 175.057011,13.4023305 L171.553704,13.4023305 L171.553704,18.5804046 C171.553704,19.9540342 172.237115,20.4824292 173.369147,20.4824292 M166.853478,15.1143305 L166.853478,22.2153675 L164.503765,22.2153675 L164.503765,15.5157132 C164.503765,13.8463799 163.948331,13.0430218 161.598617,13.0430218 C161.043183,13.0430218 160.381134,13.1064292 159.740249,13.2121083 L159.740249,22.2153675 L157.390336,22.2153675 L157.390336,11.6482564 C158.885536,11.2889478 160.530674,11.0564539 161.662706,11.0564539 C165.59307,11.0564539 166.853478,12.5568984 166.853478,15.1143305 M152.476881,19.8060836 L152.476881,13.1698367 C151.985536,13.085491 151.451464,13.0430218 150.789416,13.0430218 C148.354051,13.0430218 147.22202,14.5227255 147.22202,16.8897379 C147.22202,19.0453922 148.097697,20.5669725 150.191256,20.5669725 C151.109659,20.5669725 151.857358,20.2712688 152.476881,19.8060836 M154.826595,11.6482564 L154.826595,22.2153675 L152.669147,22.2153675 L152.54097,20.9476144 C151.94281,21.8773922 151.024207,22.4689971 149.529008,22.4689971 C146.709312,22.4689971 144.829381,20.4399601 144.829381,16.8897379 C144.829381,13.1698367 146.837489,11.0564539 150.789416,11.0564539 C152.327341,11.0564539 153.587549,11.2255404 154.826595,11.6482564 M133.486108,21.7505774 C133.528834,20.883812 133.657011,20.292207 133.892003,19.6158613 C135.088122,20.1655897 136.626048,20.4399601 137.801004,20.4399601 C139.787549,20.4399601 140.898417,19.8060836 140.898417,18.5592688 C140.898417,17.3333922 140.086629,16.7627255 138.078721,15.8963552 L136.989416,15.4313675 C134.981308,14.5647996 133.614086,13.4446021 133.614086,11.2044046 C133.614086,8.79531813 135.301751,7.25220702 138.762133,7.25220702 C140.150917,7.25220702 141.453851,7.44262678 142.671534,7.86514529 C142.607246,8.71057739 142.457706,9.36578727 142.244277,9.97872554 C141.090883,9.55600949 139.723661,9.36578727 138.74097,9.36578727 C136.882402,9.36578727 136.028088,10.0844046 136.028088,11.2044046 C136.028088,12.3034663 136.861039,12.9373428 138.356438,13.5716144 L139.510032,14.0575404 C142.222714,15.1988737 143.354945,16.4036144 143.354945,18.4535897 C143.354945,20.883812 141.496577,22.5535404 137.865093,22.5535404 C136.113539,22.5535404 134.682228,22.3001083 133.486108,21.7505774 M122.748982,11.3310218 C122.715041,10.5594663 122.49702,9.79423171 122.093322,9.10247863 L118.532315,3.00015764 C118.260787,2.53477492 118.073114,2.03620702 117.968895,1.52479961 L117.820154,1.77981196 C116.938886,3.29013295 116.938687,5.15087369 117.820154,6.66139221 L120.668799,11.5433675 C121.550266,13.0536885 121.550266,14.9146268 120.668799,16.4249478 L120.520058,16.6799601 C120.415839,16.1687502 120.228166,15.6699848 119.956838,15.2046021 L117.348773,10.7354663 L115.68347,7.88173789 C115.411942,7.4165527 115.224468,6.91778727 115.120049,6.40657739 L114.971308,6.66158974 C114.092836,8.16677492 114.09024,10.020207 114.962723,11.5277626 L114.962324,11.5279601 L117.820154,16.4251453 C118.701621,17.9352688 118.701621,19.796207 117.820154,21.3069231 L117.671412,21.5619354 C117.566994,21.050528 117.37952,20.5519601 117.107992,20.0863799 L113.546985,13.9842564 C113.069416,13.1656885 112.851195,12.2444046 112.891126,11.3316144 C109.079155,12.3170959 106.447931,14.4093428 106.447931,16.8318613 C106.447931,20.2019354 111.539476,22.9339848 117.820154,22.9339848 C124.100831,22.9339848 129.192376,20.2019354 129.192376,16.8318613 C129.192376,14.4091453 126.561351,12.3165033 122.748982,11.3310218" id="Fill-1"></path>
                <polygon id="Fill-5" points="45.6046058 22.3339058 37.2970537 22.3339058 37.2970537 8.01607863 41.0559166 8.01607863 41.0559166 19.0813626 45.6046058 19.0813626"></polygon>
                <path d="M46.2246275,16.651812 C46.2246275,13.4553675 48.6118758,10.6322564 51.8260859,10.6322564 C53.2342369,10.6322564 54.1186987,11.1004046 55.1523011,12.0349231 L55.1523011,10.8580342 L58.6110859,10.8580342 L58.6110859,22.3339848 L55.0959991,22.3339848 L55.0959991,21.212207 C55.0959991,21.212207 53.8371883,22.6146762 51.6380129,22.6146762 C48.4238029,22.6146762 46.2246275,20.3327996 46.2246275,16.651812 M52.5214765,13.8472688 C50.8477873,13.8472688 49.7764504,15.0810465 49.7764504,16.5949231 C49.7764504,18.1846515 50.7920841,19.4927008 52.4088723,19.4927008 C53.9691588,19.4927008 55.2657039,18.3527502 55.2657039,16.6887502 C55.2657039,15.0065774 54.062197,13.8472688 52.5214765,13.8472688" id="Fill-7"></path>
                <polygon id="Fill-9" points="68.9876796 22.3339058 60.6801275 22.3339058 60.6801275 8.01607863 64.4393897 8.01607863 64.4393897 19.0813626 68.9876796 19.0813626"></polygon>
                <path d="M70.2096744,7.94162924 C70.2096744,6.7823206 71.1480425,5.82883912 72.3146136,5.82883912 C73.4801866,5.82883912 74.4385199,6.74478974 74.4385199,7.90390085 C74.4385199,9.08177739 73.4801866,10.0342712 72.2762803,10.0342712 C71.1290754,10.0342712 70.2096744,9.11851813 70.2096744,7.94162924 Z M70.5466883,22.3339255 L74.043407,22.3339255 L74.043407,10.8581725 L70.5466883,10.8581725 L70.5466883,22.3339255 Z" id="Fill-11"></path>
                <path d="M75.5469722,16.3715157 C75.5469722,13.2683058 77.5389079,10.632849 80.584611,10.632849 C82.0512603,10.632849 83.0465294,11.100207 84.0415989,12.146528 L84.0415989,10.8580342 L87.389776,10.8580342 L87.389776,20.9700342 C87.389776,24.5206515 84.6998541,26.3709231 81.4670763,26.3709231 C78.6292117,26.3709231 76.1477274,24.9504786 75.774177,22.3703305 L79.7013472,22.3703305 C80.1886996,23.1563058 80.6764513,23.3040589 81.543144,23.3040589 C82.7642204,23.3040589 83.8912603,22.7456391 83.8912603,21.4930959 C83.8912603,21.192849 83.911026,20.9315157 83.8728923,20.6330465 C83.1960694,21.2313675 81.9372586,21.9606515 80.5650451,21.9606515 C77.5776406,21.9606515 75.5469722,19.4925033 75.5469722,16.3715157 M81.3922065,13.6039107 C79.7574496,13.6039107 78.9488558,14.9315157 78.9488558,16.3525527 C78.9488558,17.8281083 79.8329183,19.0443058 81.3742378,19.0443058 C83.1221978,19.0443058 84.0607656,17.660207 84.0607656,16.3715157 C84.0607656,14.8376885 83.1960694,13.6039107 81.3922065,13.6039107" id="Fill-13"></path>
                <path d="M88.8914444,16.651812 C88.8914444,13.4553675 91.2786926,10.6322564 94.4925034,10.6322564 C95.9036492,10.6322564 96.7873124,11.1004046 97.8203159,12.0349231 L97.8203159,10.8580342 L101.2793,10.8580342 L101.2793,22.3339848 L97.7642135,22.3339848 L97.7642135,21.212207 C97.7642135,21.212207 96.5052031,22.6146762 94.3058281,22.6146762 C91.0920173,22.6146762 88.8914444,20.3327996 88.8914444,16.651812 M95.1898906,13.8472688 C93.516401,13.8472688 92.4456631,15.0810465 92.4456631,16.5949231 C92.4456631,18.1846515 93.4594999,19.4927008 95.0760885,19.4927008 C96.6365746,19.4927008 97.9331197,18.3527502 97.9331197,16.6887502 C97.9331197,15.0065774 96.7316093,13.8472688 95.1898906,13.8472688" id="Fill-15"></path>
                <path d="M4.49661798,6.89080455 C4.46647041,6.94769344 4.4686666,7.01860702 4.50699993,7.07549591 C4.52476903,7.10117492 4.54792875,7.12112554 4.57448257,7.13436011 L10.1925121,10.3653725 L10.2054895,10.372286 C10.2643871,10.403891 10.3384583,10.4013231 10.3965572,10.3606317 C10.4149253,10.3475947 10.4298992,10.3317922 10.4414791,10.3144095 C10.447868,10.3059157 10.4526597,10.2972243 10.4568524,10.2877428 C10.9749513,9.37949591 11.6968958,8.56685394 12.6141006,7.92448357 C13.5348992,7.27974282 14.5537274,6.87539715 15.5955156,6.69485394 C15.603302,6.69485394 15.6104895,6.69347122 15.6178767,6.69169344 C15.6398385,6.6869527 15.661401,6.67727369 15.6817656,6.66364406 C15.7400642,6.62196505 15.766618,6.55302678 15.7560364,6.48744653 L15.7538402,6.47519961 L14.5651076,0.155199615 L14.5627117,0.144335417 C14.5579201,0.118853936 14.5471388,0.093965047 14.5301683,0.0722366519 C14.4896388,0.0192983803 14.4255503,-0.00578803943 14.3626597,0.00112554081 C14.357269,0.00211319514 14.3524774,0.00310084946 14.3478853,0.00389097291 C12.3623385,0.359446528 10.3987534,1.143249 8.64300687,2.37327369 C6.88606243,3.60290332 5.49627944,5.15490332 4.49761625,6.8898169" id="Fill-17"></path>
                <path d="M1.28851729,19.1001083 C1.31447215,19.1587749 1.37197215,19.2016391 1.44045305,19.2081576 C1.47199819,19.2109231 1.50274472,19.2046021 1.52949819,19.1933428 L7.59295305,16.8816391 L7.60632979,16.8755157 C7.6680225,16.8498367 7.71294437,16.7907749 7.71693743,16.720849 C7.718335,16.698528 7.71534021,16.6767996 7.70895132,16.656849 C7.70615618,16.64717 7.70236278,16.637886 7.6971718,16.6286021 C7.30585236,15.6605033 7.11738014,14.5950218 7.18506243,13.4848984 C7.25354333,12.3712194 7.57278812,11.3320095 8.08330028,10.4152688 C8.08729333,10.4093428 8.09048778,10.4028243 8.09328291,10.3963058 C8.10366486,10.3757626 8.1102534,10.352849 8.11165097,10.3295404 C8.11564403,10.2576391 8.07771,10.1942317 8.01981069,10.1614416 L8.00843048,10.1551206 L2.28298778,7.11610826 L2.27300514,7.11116999 C2.24944611,7.09931813 2.22389055,7.09181196 2.19613882,7.09181196 C2.12865618,7.088849 2.06896,7.12321937 2.03501903,7.17556505 C2.03202423,7.18070085 2.02982805,7.18445394 2.02743222,7.18958974 L2.02783153,7.18939221 C1.06470653,8.94346628 0.453569373,10.9493922 0.323395762,13.0742317 C0.193222151,15.1988737 0.54680722,17.2419354 1.28851729,19.0991206" id="Fill-19"></path>
                <path d="M8.99513448,29.1340638 C9.05742614,29.1502613 9.12750427,29.1330762 9.17422302,29.0834959 C9.19558587,29.0607799 9.21016052,29.0333231 9.21774732,29.0056688 L11.1511848,22.8675947 L11.1549782,22.853965 C11.1733463,22.78957 11.1545789,22.7188539 11.1008723,22.671249 C11.0839018,22.6566317 11.0655338,22.64557 11.0455685,22.6376688 C11.0361848,22.6343107 11.0260025,22.6311502 11.0160199,22.6293725 C10.0059765,22.3316934 9.04444871,21.8161379 8.20710496,21.0740144 C7.36696607,20.3301132 6.74185323,19.4370762 6.33256503,18.4719404 C6.3301692,18.4652243 6.32777337,18.4583107 6.32437927,18.4517922 C6.31399732,18.4308539 6.29982198,18.411891 6.28205288,18.3968786 C6.22834628,18.348286 6.15467441,18.3388046 6.09258239,18.363891 L6.08040357,18.3686317 L0.116974755,20.9217181 L0.107191769,20.9264589 C0.08283413,20.9371255 0.0610719772,20.9525329 0.0441014911,20.9730762 C-0.000221425591,21.0244342 -0.01060337,21.0921873 0.0105598244,21.1508539 C0.0123566994,21.1555947 0.0147525327,21.1605329 0.016349755,21.1652737 L0.016349755,21.1644836 C0.808172672,23.0013231 2.01826816,24.7206317 3.6204817,26.1408786 C5.22389316,27.5613231 7.06149732,28.5560885 8.99373691,29.1338663" id="Fill-21"></path>
                <path d="M21.6649001,29.4332441 C21.7168098,29.3955157 21.7467577,29.330528 21.7369748,29.2629725 C21.7331814,29.2319601 21.7206032,29.2039107 21.7030338,29.1807996 L18.081532,23.8421329 L18.072947,23.8310712 C18.033815,23.7771453 17.9663324,23.7471206 17.8960546,23.7585774 C17.8738932,23.7621329 17.8533289,23.7696391 17.8347612,23.7799107 C17.8257768,23.7850465 17.8169921,23.7913675 17.8098046,23.7980836 C16.9417143,24.3896885 15.9330685,24.8076638 14.8237977,24.987812 C13.7111327,25.1687502 12.6162369,25.0917132 11.599605,24.8019354 C11.5926171,24.79917 11.5854296,24.7977873 11.5784418,24.7956144 C11.5556814,24.7908737 11.5321223,24.789491 11.5087629,24.7934416 C11.4370876,24.8048984 11.382782,24.8556638 11.363815,24.9192688 L11.3602213,24.9317132 L9.63242614,31.1280589 L9.63003031,31.1389231 C9.62264316,31.1647996 9.62164489,31.1908737 9.62723517,31.2181329 C9.63961364,31.2835157 9.6867317,31.333491 9.74622823,31.3548243 C9.75082024,31.3564046 9.75601121,31.3577873 9.76140184,31.3581823 L9.76080288,31.3581823 C11.7032248,31.8990218 13.8157508,32.0447996 15.9384591,31.6995157 C18.0621657,31.3542317 19.9975998,30.5609478 21.6643011,29.4342317" id="Fill-23"></path>
                <path d="M29.9142334,19.8584095 C29.9164296,19.7950021 29.8834869,19.7317922 29.8245893,19.6966317 C29.7966379,19.6812243 29.7670893,19.6733231 29.7369418,19.6723354 L23.2588081,19.1723848 L23.2448324,19.1713971 C23.1777491,19.1686317 23.1118636,19.2024095 23.0769244,19.2646317 C23.0663428,19.2837922 23.059355,19.3047305 23.0565598,19.3252737 C23.0547629,19.3357428 23.0545633,19.3458169 23.0547629,19.3560885 C22.9858827,20.3966811 22.6915945,21.4384589 22.1469418,22.4114959 C21.6004921,23.3871008 20.859381,24.1884836 19.9994765,24.7976688 C19.9930876,24.8016194 19.9866987,24.8057675 19.981907,24.8103107 C19.963539,24.8255206 19.9475668,24.8423107 19.9355876,24.8634465 C19.9012473,24.9264589 19.9074366,24.9997428 19.9461692,25.0534712 L19.953756,25.0641379 L23.7952751,30.2487305 L23.8024626,30.2576194 C23.8184348,30.2785576 23.8384001,30.2957428 23.8633567,30.3081873 C23.9232525,30.3391996 23.9921327,30.3336688 24.04544,30.3004836 C24.050032,30.2977181 24.0538254,30.2949527 24.0582178,30.2917922 L24.0576189,30.2917922 C25.6907786,29.1188539 27.1162994,27.5698169 28.1588862,25.7088786 C29.2026709,23.845965 29.7742768,21.851891 29.9142334,19.8593971" id="Fill-25"></path>
                <path d="M27.4651727,7.49005394 C27.4156588,7.44817739 27.345381,7.43375764 27.2808932,7.45785641 C27.2511449,7.4687206 27.2265876,7.48689344 27.2072213,7.50842431 L22.7357977,12.1741033 L22.726414,12.18477 C22.6812925,12.2339552 22.6661189,12.3058564 22.6934713,12.3714367 C22.7024557,12.3925725 22.7138359,12.4105478 22.7288098,12.4257576 C22.7349991,12.4334613 22.7429852,12.4405725 22.7509713,12.4461033 C23.5256241,13.1546465 24.1579244,14.0368194 24.5791918,15.0675354 C25.0010581,16.1022021 25.1641744,17.1759799 25.1010841,18.2213132 C25.0996866,18.2282268 25.0996866,18.2357329 25.0996866,18.2432391 C25.0996866,18.2657576 25.1042786,18.2886712 25.1124643,18.3107947 C25.1400164,18.377165 25.2019088,18.4180539 25.2679939,18.4233873 L25.2807716,18.4233873 L31.7714834,18.7344984 L31.7822647,18.7344984 C31.8088185,18.735486 31.8351727,18.7315354 31.8601293,18.7200786 C31.9224209,18.6936095 31.9619522,18.6369181 31.9699383,18.5748934 C31.9703376,18.5699552 31.9703376,18.5646218 31.9703376,18.559486 C32.0777508,16.5665971 31.759105,14.4958811 30.9533064,12.5221527 C30.1481067,10.5476342 28.9420043,8.85281937 27.4657716,7.49064653" id="Fill-27"></path>
                <path d="M16.1050494,1.74074036 C16.0417595,1.75298727 15.986256,1.79901196 15.9654921,1.86380208 C15.9561084,1.89343171 15.9555095,1.924049 15.9607004,1.95308603 L16.9106484,8.3131848 L16.9132439,8.32681443 C16.9250234,8.39239468 16.97294,8.44829591 17.0418202,8.46765394 C17.0635824,8.47417245 17.0851449,8.47634529 17.1065077,8.47417245 C17.1162907,8.4731848 17.1272716,8.47140702 17.1366553,8.46903665 C18.1776449,8.30370332 19.2701449,8.35565394 20.3494678,8.66439468 C21.4329834,8.97471566 22.3873237,9.5106169 23.1793463,10.2043453 C23.1847369,10.2094811 23.1903272,10.2146169 23.1965164,10.218765 C23.2142855,10.2327897 23.2352491,10.244049 23.2582091,10.2509626 C23.3278879,10.2709132 23.3983654,10.2485922 23.4434869,10.1988144 L23.452072,10.1893329 L27.7052751,5.32987616 L27.7124626,5.32098727 C27.7294331,5.30064159 27.7422109,5.27733295 27.7487994,5.25106134 C27.7657699,5.18627122 27.7454053,5.12108603 27.7006831,5.07703665 C27.6968897,5.07328357 27.692697,5.07012307 27.6889036,5.06696258 L27.6895025,5.06696258 C26.1707439,3.75278974 24.3265511,2.72266628 22.2603445,2.13106134 C20.1925407,1.53965394 18.1011779,1.43219715 16.1054487,1.74034529" id="Fill-29"></path>
                <path d="M13.5347994,15.4499354 L14.3651553,17.9775404 L17.0512838,17.9775404 L17.88144,15.4499354 L15.7080199,13.8876638 L13.5347994,15.4499354 Z" id="Combined-Shape"></path>
            </g>
        </g>
    </g>
</svg>