<?xml version="1.0" standalone="no"?>
<!DOCTYPE svg PUBLIC "-//W3C//DTD SVG 1.1//EN" "http://www.w3.org/Graphics/SVG/1.1/DTD/svg11.dtd" >
<svg>
<metadata>
Created by FontForge 20090622 at Fri Jun 29 08:22:19 2018
 By deploy user
Copyright (c) 2016 by S-Core Co., Ltd.. All rights reserved.
</metadata>
<defs>
<font id="CoreSansC-85Heavy" horiz-adv-x="816" >
  <font-face 
    font-family="Core Sans C 85 Heavy"
    font-weight="800"
    font-stretch="normal"
    units-per-em="2000"
    panose-1="2 11 6 3 3 3 2 2 2 4"
    ascent="1600"
    descent="-400"
    x-height="1036"
    cap-height="1400"
    bbox="-865 -520 2516 1950"
    underline-thickness="48"
    underline-position="-366"
    unicode-range="U+0009-U+FB04"
  />
<missing-glyph horiz-adv-x="1000" 
d="M910 0h-820v1500h820v-1500zM385 279h230v941h-230v-941z" />
    <glyph glyph-name="ff" unicode="ff" horiz-adv-x="1551" 
d="M1510 1446v-265q-38 7 -98 7q-52 0 -79.5 -25t-27.5 -71v-56h205v-317h-205v-719h-369v719h-389v-719h-369v719h-137v317h137v62q0 169 119 265.5t328 96.5q108 0 195 -27l-37 -266q-66 21 -134 21q-49 0 -75.5 -25.5t-26.5 -70.5v-56h389v62q0 169 117.5 265.5
t319.5 96.5q72 0 137 -14z" />
    <glyph glyph-name="fi" unicode="fi" horiz-adv-x="1420" 
d="M178 1036v62q0 169 118.5 265.5t325.5 96.5q86 0 160 -14v-265q-50 7 -120 7q-115 0 -115 -96v-56h758v-1036h-369v719h-389v-719h-369v719h-137v317h137zM915 1301q0 82 59 137t146 55t146 -55t59 -137q0 -81 -59 -136t-146 -55t-146 55t-59 136z" />
    <glyph glyph-name="fl" unicode="fl" horiz-adv-x="1389" 
d="M752 1446v-265q-42 7 -98 7q-52 0 -79.5 -25t-27.5 -71v-56h205v-317h-205v-719h-369v719h-137v317h137v62q0 169 117.5 265.5t319.5 96.5q74 0 137 -14zM904 0v1460h370v-1460h-370z" />
    <glyph glyph-name="ffi" unicode="ffi" horiz-adv-x="2178" 
d="M178 1036v62q0 169 119 265.5t328 96.5q108 0 195 -27l-37 -266q-66 21 -134 21q-49 0 -75.5 -25.5t-26.5 -70.5v-56h389v62q0 169 118.5 265.5t325.5 96.5q86 0 160 -14v-265q-50 7 -120 7q-115 0 -115 -96v-56h758v-1036h-369v719h-389v-719h-369v719h-389v-719h-369
v719h-137v317h137zM1673 1301q0 82 59 137t146 55t146 -55t59 -137q0 -81 -59 -136t-146 -55t-146 55t-59 136z" />
    <glyph glyph-name="ffl" unicode="ffl" horiz-adv-x="2147" 
d="M1510 1446v-265q-38 7 -98 7q-52 0 -79.5 -25t-27.5 -71v-56h205v-317h-205v-719h-369v719h-389v-719h-369v719h-137v317h137v62q0 169 119 265.5t328 96.5q108 0 195 -27l-37 -266q-66 21 -134 21q-49 0 -75.5 -25.5t-26.5 -70.5v-56h389v62q0 169 117.5 265.5
t319.5 96.5q72 0 137 -14zM1662 0v1460h370v-1460h-370z" />
    <glyph glyph-name=".notdef" horiz-adv-x="1000" 
d="M910 0h-820v1500h820v-1500zM385 279h230v941h-230v-941z" />
    <glyph glyph-name=".null" horiz-adv-x="0" 
 />
    <glyph glyph-name=".null" horiz-adv-x="0" 
 />
    <glyph glyph-name="nonmarkingreturn" horiz-adv-x="666" 
 />
    <glyph glyph-name="CR" unicode="&#x9;" horiz-adv-x="0" 
 />
    <glyph glyph-name="space" unicode=" " horiz-adv-x="609" 
 />
    <glyph glyph-name="exclam" unicode="!" horiz-adv-x="634" 
d="M127 449v951h380v-951h-380zM94 176q0 85 64 143t159 58t159 -58t64 -143q0 -84 -64 -142t-159 -58t-159 58t-64 142z" />
    <glyph glyph-name="quotedbl" unicode="&#x22;" horiz-adv-x="997" 
d="M108 834v566h348v-566h-348zM541 834v566h348v-566h-348z" />
    <glyph glyph-name="numbersign" unicode="#" horiz-adv-x="1401" 
d="M1269 280h-209l-48 -280h-342l48 280h-177l-48 -280h-342l48 280h-141v280h189l46 272h-161v280h209l50 288h342l-50 -288h177l50 288h342l-50 -288h141v-280h-189l-46 -272h161v-280zM635 832l-46 -272h177l46 272h-177z" />
    <glyph glyph-name="dollar" unicode="$" horiz-adv-x="1206" 
d="M77 199l193 253q74 -75 165 -119t181 -44q64 0 107 32.5t43 81.5q0 55 -51.5 95.5t-188.5 70.5q-194 42 -306.5 150.5t-112.5 269.5q0 148 89.5 260t238.5 154v201h344v-204q169 -44 296 -154l-182 -261q-158 132 -284 132q-52 0 -86.5 -28t-34.5 -69q0 -50 46.5 -87
t166.5 -64q216 -49 331 -161t115 -281q0 -155 -95.5 -271.5t-262.5 -158.5v-201h-344v198q-220 46 -368 205z" />
    <glyph glyph-name="percent" unicode="%" horiz-adv-x="1851" 
d="M431 0l721 1400h268l-721 -1400h-268zM362 1050q0 -44 29 -73.5t74 -29.5t74 29.5t29 73.5t-29 73.5t-74 29.5t-74 -29.5t-29 -73.5zM81 1050q0 153 110.5 258.5t273.5 105.5t273.5 -105.5t110.5 -258.5t-110.5 -258.5t-273.5 -105.5t-273.5 105.5t-110.5 258.5z
M1283 350q0 -44 29 -73.5t74 -29.5t74 29.5t29 73.5t-29 73.5t-74 29.5t-74 -29.5t-29 -73.5zM1002 350q0 153 110.5 258.5t273.5 105.5t273.5 -105.5t110.5 -258.5t-110.5 -258.5t-273.5 -105.5t-273.5 105.5t-110.5 258.5z" />
    <glyph glyph-name="ampersand" unicode="&#x26;" horiz-adv-x="1502" 
d="M1066 1150l-314 -137q-30 73 -58 103t-67 30q-36 0 -59 -22.5t-23 -55.5q0 -87 161 -245l255 -251q30 77 47 186l334 -47q-27 -219 -130 -390l325 -321h-439l-98 95q-169 -119 -391 -119q-223 0 -370.5 111t-147.5 278q0 243 236 405q-75 86 -104 153t-29 142
q0 152 124.5 255.5t306.5 103.5q156 0 270.5 -72.5t170.5 -201.5zM609 257q96 0 173 55l-246 242q-89 -74 -89 -166q0 -56 45 -93.5t117 -37.5z" />
    <glyph glyph-name="quotesingle" unicode="'" horiz-adv-x="594" 
d="M108 834v566h378v-566h-378z" />
    <glyph glyph-name="parenleft" unicode="(" horiz-adv-x="885" 
d="M189 610q0 269 103.5 515.5t288.5 421.5l252 -167q-128 -156 -196 -354.5t-68 -415.5t68 -415.5t196 -354.5l-252 -167q-185 175 -288.5 421.5t-103.5 515.5z" />
    <glyph glyph-name="parenright" unicode=")" horiz-adv-x="885" 
d="M696 610q0 -269 -103.5 -515.5t-288.5 -421.5l-252 167q128 156 196 354.5t68 415.5t-68 415.5t-196 354.5l252 167q185 -175 288.5 -421.5t103.5 -515.5z" />
    <glyph glyph-name="asterisk" unicode="*" horiz-adv-x="1138" 
d="M312 663l-220 95l150 270l196 -137l-25 237h312l-25 -237l196 137l150 -270l-220 -95l220 -95l-150 -270l-196 137l25 -237h-312l25 237l-196 -137l-150 270z" />
    <glyph glyph-name="plus" unicode="+" horiz-adv-x="1178" 
d="M409 194v307h-295v325h295v307h360v-307h295v-325h-295v-307h-360z" />
    <glyph glyph-name="comma" unicode="," horiz-adv-x="609" 
d="M92 178q0 86 60 144t152 58t152.5 -58t60.5 -144q0 -48 -22 -95l-157 -333h-236l112 244q-57 23 -89.5 72t-32.5 112z" />
    <glyph glyph-name="hyphen" unicode="-" horiz-adv-x="860" 
d="M746 498h-632v331h632v-331z" />
    <glyph glyph-name="period" unicode="." horiz-adv-x="609" 
d="M92 178q0 86 60 144t152 58t152.5 -58t60.5 -144t-60.5 -144t-152.5 -58t-152 58t-60 144z" />
    <glyph glyph-name="slash" unicode="/" horiz-adv-x="1023" 
d="M1038 1500l-684 -1780h-369l684 1780h369z" />
    <glyph glyph-name="zero" unicode="0" horiz-adv-x="1218" 
d="M93 700q0 213 58.5 375t176.5 255.5t281 93.5t281 -93.5t176.5 -255.5t58.5 -375t-58.5 -375t-176.5 -255.5t-281 -93.5t-281 93.5t-176.5 255.5t-58.5 375zM457 700q0 -184 38.5 -286t113.5 -102t113.5 102t38.5 286t-38.5 285.5t-113.5 101.5t-113.5 -101.5
t-38.5 -285.5z" />
    <glyph glyph-name="one" unicode="1" horiz-adv-x="1218" 
d="M541 1400h329v-1400h-379v1054l-213 -117l-134 247z" />
    <glyph glyph-name="two" unicode="2" horiz-adv-x="1218" 
d="M928 633l-280 -307h431v-326h-906v301l462 508q45 49 65 87.5t20 81.5q0 48 -33 81t-82 33q-98 0 -140 -129l-329 104q32 155 161 256t316 101q206 0 343 -112.5t137 -286.5q0 -210 -165 -392z" />
    <glyph glyph-name="three" unicode="3" horiz-adv-x="1218" 
d="M711 462q0 68 -47.5 114.5t-117.5 46.5q-39 0 -69 -14l-144 180l276 293h-439v318h856v-311l-258 -253q152 -45 239 -156.5t87 -263.5q0 -184 -150.5 -312t-377.5 -128q-153 0 -279.5 63t-195.5 176l219 220q93 -135 236 -135q70 0 117.5 47t47.5 115z" />
    <glyph glyph-name="four" unicode="4" horiz-adv-x="1218" 
d="M64 235v299l571 866h343v-849h150v-316h-150v-235h-364v235h-550zM368 550h246v378z" />
    <glyph glyph-name="five" unicode="5" horiz-adv-x="1218" 
d="M586 -24q-158 0 -286.5 60t-207.5 169l232 226q97 -129 230 -129q70 0 121 47.5t51 117.5q0 71 -48.5 118.5t-119.5 47.5q-78 0 -123 -55l-274 37l95 785h798v-318h-453l-23 -182q32 2 52 2q200 0 338 -127t138 -320q0 -206 -146 -342.5t-374 -136.5z" />
    <glyph glyph-name="six" unicode="6" horiz-adv-x="1218" 
d="M1002 1400l-314 -482q71 -8 136 -30.5t122 -62t99.5 -92t67 -122.5t24.5 -151q0 -136 -71 -247.5t-191.5 -174t-264.5 -62.5q-222 0 -375.5 139t-153.5 345q0 138 72 250l450 690h399zM442 463q0 -74 48 -123.5t119 -49.5q70 0 118.5 49.5t48.5 123.5t-48.5 124
t-118.5 50q-71 0 -119 -49.5t-48 -124.5z" />
    <glyph glyph-name="seven" unicode="7" horiz-adv-x="1218" 
d="M150 1400h932v-287l-455 -1113h-395l449 1073h-531v327z" />
    <glyph glyph-name="eight" unicode="8" horiz-adv-x="1218" 
d="M446 438q0 -71 47.5 -117t115.5 -46t115.5 46t47.5 117t-47.5 117.5t-115.5 46.5t-115.5 -46.5t-47.5 -117.5zM1070 1021q0 -84 -40.5 -156t-110.5 -111q97 -43 152.5 -135.5t55.5 -197.5q0 -189 -149 -317t-369 -128t-369 128t-149 317q0 105 55.5 197.5t152.5 135.5
q-70 39 -110.5 111t-40.5 156q0 170 131.5 286.5t329.5 116.5t329.5 -116.5t131.5 -286.5zM486 1009q0 -51 35 -86.5t88 -35.5t88 35.5t35 86.5q0 52 -35 87t-88 35t-88 -35t-35 -87z" />
    <glyph glyph-name="nine" unicode="9" horiz-adv-x="1218" 
d="M216 0l314 482q-71 8 -136 30.5t-122 62t-99.5 92t-67 122.5t-24.5 151q0 136 71 247.5t191.5 174t264.5 62.5q222 0 375.5 -139t153.5 -345q0 -138 -72 -250l-450 -690h-399zM776 937q0 74 -48 123.5t-119 49.5q-70 0 -118.5 -49.5t-48.5 -123.5t48.5 -124t118.5 -50
q71 0 119 49.5t48 124.5z" />
    <glyph glyph-name="colon" unicode=":" horiz-adv-x="609" 
d="M92 178q0 86 60 144t152 58t152.5 -58t60.5 -144t-60.5 -144t-152.5 -58t-152 58t-60 144zM92 858q0 86 60 144t152 58t152.5 -58t60.5 -144t-60.5 -144t-152.5 -58t-152 58t-60 144z" />
    <glyph glyph-name="semicolon" unicode=";" horiz-adv-x="609" 
d="M92 858q0 86 60 144t152 58t152.5 -58t60.5 -144t-60.5 -144t-152.5 -58t-152 58t-60 144zM92 178q0 86 60 144t152 58t152.5 -58t60.5 -144q0 -48 -22 -95l-157 -333h-236l112 244q-57 23 -89.5 72t-32.5 112z" />
    <glyph glyph-name="less" unicode="&#x3c;" horiz-adv-x="1177" 
d="M109 555v216l926 509v-388l-464 -229l464 -229v-388z" />
    <glyph glyph-name="equal" unicode="=" horiz-adv-x="1178" 
d="M1064 743h-950v319h950v-319zM1064 265h-950v319h950v-319z" />
    <glyph glyph-name="greater" unicode="&#x3e;" horiz-adv-x="1177" 
d="M1068 771v-216l-926 -509v388l464 229l-464 229v388z" />
    <glyph glyph-name="question" unicode="?" horiz-adv-x="1120" 
d="M301 449v362q168 0 254.5 46.5t86.5 123.5q0 51 -44.5 83t-116.5 32q-130 0 -263 -107l-160 282q93 71 212 112t239 41q222 0 368 -126t146 -310q0 -141 -92 -254.5t-250 -157.5v-127h-380zM268 176q0 85 63.5 143t159.5 58q95 0 159 -58t64 -143q0 -84 -64 -142
t-159 -58t-159 58t-64 142z" />
    <glyph glyph-name="at" unicode="@" horiz-adv-x="1948" 
d="M964 363q48 0 84.5 24t55.5 64v174q-19 39 -55.5 63t-84.5 24q-68 0 -113.5 -48.5t-45.5 -125.5q0 -78 45.5 -126.5t113.5 -48.5zM1104 887v72h310v-551q9 -31 32.5 -47.5t53.5 -16.5q62 0 106.5 70t44.5 181q0 164 -91 308.5t-248.5 231.5t-341.5 87
q-139 0 -263.5 -52.5t-214.5 -142t-142.5 -214t-52.5 -263.5q0 -187 89.5 -340.5t250 -242.5t359.5 -89q258 0 473 147l93 -181q-254 -168 -566 -168q-198 0 -372 67.5t-297 184t-193.5 278.5t-70.5 344q0 242 120.5 443t328.5 316t458 115q194 0 365.5 -68t291 -182
t189 -267t69.5 -319q0 -216 -120 -353.5t-304 -137.5q-89 0 -167.5 39.5t-117.5 104.5q-41 -66 -119.5 -105t-168.5 -39q-170 0 -282.5 127t-112.5 314q0 185 110.5 313t272.5 128q64 0 124 -25t104 -67z" />
    <glyph glyph-name="A" unicode="A" horiz-adv-x="1396" 
d="M491 1400h414l471 -1400h-391l-78 269h-418l-78 -269h-391zM568 557h260l-130 450z" />
    <glyph glyph-name="B" unicode="B" horiz-adv-x="1264" 
d="M756 0h-616v1400h557q196 0 315 -105.5t119 -274.5q0 -98 -49 -176t-130 -111q110 -30 177 -116.5t67 -207.5q0 -178 -124 -293.5t-316 -115.5zM783 978q0 58 -33.5 91.5t-86.5 33.5h-158v-249h158q53 0 86.5 33.5t33.5 90.5zM824 432q0 60 -36.5 98t-93.5 38h-189v-271
h189q57 0 93.5 37.5t36.5 97.5z" />
    <glyph glyph-name="C" unicode="C" horiz-adv-x="1407" 
d="M832 -24q-212 0 -387 95.5t-274.5 261.5t-99.5 367t99.5 367t274.5 261.5t387 95.5q287 0 500 -173l-193 -277q-141 122 -307 122q-162 0 -271 -113.5t-109 -282.5t109 -282.5t271 -113.5q87 0 170.5 37t147.5 97l201 -275q-217 -187 -519 -187z" />
    <glyph glyph-name="D" unicode="D" horiz-adv-x="1450" 
d="M140 1400h537q206 0 366 -88t248 -247t88 -365t-88 -365t-248 -247t-366 -88h-537v1400zM520 328h127q162 0 256.5 98t94.5 274t-94.5 274t-256.5 98h-127v-744z" />
    <glyph glyph-name="E" unicode="E" horiz-adv-x="1158" 
d="M140 0v1400h912v-318h-532v-222h484v-312h-484v-230h550v-318h-930z" />
    <glyph glyph-name="F" unicode="F" horiz-adv-x="1090" 
d="M140 0v1400h892v-324h-512v-255h464v-324h-464v-497h-380z" />
    <glyph glyph-name="G" unicode="G" horiz-adv-x="1474" 
d="M832 1096q-164 0 -272 -114.5t-108 -289.5q0 -170 109.5 -286.5t270.5 -116.5q83 0 144 35v202h-241v279h621v-637q-104 -92 -239 -142t-285 -50q-212 0 -387 95.5t-274.5 261.5t-99.5 367t99.5 367t274.5 261.5t387 95.5q287 0 500 -173l-193 -277q-141 122 -307 122z
" />
    <glyph glyph-name="H" unicode="H" horiz-adv-x="1428" 
d="M140 0v1400h380v-533h388v533h380v-1400h-380v540h-388v-540h-380z" />
    <glyph glyph-name="I" unicode="I" horiz-adv-x="666" 
d="M143 1400h380v-1400h-380v1400z" />
    <glyph glyph-name="J" unicode="J" horiz-adv-x="943" 
d="M436 476v924h380v-954q0 -220 -124.5 -345t-344.5 -125q-193 0 -327 75l93 306q84 -53 170 -53q70 0 111.5 45.5t41.5 126.5z" />
    <glyph glyph-name="K" unicode="K" horiz-adv-x="1286" 
d="M520 1400v-525h69l262 525h403l-354 -685l426 -715h-405l-320 548h-81v-548h-380v1400h380z" />
    <glyph glyph-name="L" unicode="L" horiz-adv-x="1055" 
d="M140 0v1400h380v-1073h510v-327h-890z" />
    <glyph glyph-name="M" unicode="M" horiz-adv-x="1732" 
d="M1000 398h-268l-244 487v-885h-348v1400h430l296 -592l296 592h430v-1400h-348v885z" />
    <glyph glyph-name="N" unicode="N" horiz-adv-x="1428" 
d="M140 0v1400h408l392 -852v852h348v-1400h-408l-392 852v-852h-348z" />
    <glyph glyph-name="O" unicode="O" horiz-adv-x="1664" 
d="M452 700q0 -169 109 -282.5t271 -113.5t271 113.5t109 282.5t-109 282.5t-271 113.5t-271 -113.5t-109 -282.5zM71 700q0 201 99.5 367t274.5 261.5t387 95.5t387 -95.5t274.5 -261.5t99.5 -367t-99.5 -367t-274.5 -261.5t-387 -95.5t-387 95.5t-274.5 261.5t-99.5 367z
" />
    <glyph glyph-name="P" unicode="P" horiz-adv-x="1228" 
d="M681 448h-161v-448h-380v1400h541q217 0 358 -135t141 -341q0 -207 -141 -341.5t-358 -134.5zM808 924q0 81 -48 131.5t-128 50.5h-112v-364h112q80 0 128 50t48 132z" />
    <glyph glyph-name="Q" unicode="Q" horiz-adv-x="1664" 
d="M71 700q0 201 99.5 367t274.5 261.5t387 95.5t387 -95.5t274.5 -261.5t99.5 -367q0 -252 -155 -445l180 -203l-287 -243l-197 223q-143 -56 -302 -56q-212 0 -387 95.5t-274.5 261.5t-99.5 367zM452 700q0 -169 109 -282.5t271 -113.5t271 113.5t109 282.5t-109 282.5
t-271 113.5t-271 -113.5t-109 -282.5z" />
    <glyph glyph-name="R" unicode="R" horiz-adv-x="1264" 
d="M140 1400h541q218 0 358.5 -128.5t140.5 -332.5q0 -137 -66 -242t-183 -161l291 -536h-410l-242 478h-56v-478h-374v1400zM635 1106h-121v-355h121q79 0 126 49.5t47 127.5q0 80 -47.5 129t-125.5 49z" />
    <glyph glyph-name="S" unicode="S" horiz-adv-x="1206" 
d="M77 199l193 253q74 -75 165 -119t181 -44q64 0 107 32.5t43 81.5q0 55 -51.5 95.5t-188.5 70.5q-194 42 -306.5 150.5t-112.5 269.5q0 187 137.5 311t348.5 124q135 0 260.5 -47t221.5 -131l-182 -261q-158 132 -284 132q-52 0 -86.5 -28t-34.5 -69q0 -50 46.5 -87
t166.5 -64q216 -49 331 -161t115 -281q0 -195 -146.5 -323t-387.5 -128q-162 0 -299.5 58.5t-236.5 164.5z" />
    <glyph glyph-name="T" unicode="T" horiz-adv-x="1124" 
d="M372 0v1073h-327v327h1034v-327h-327v-1073h-380z" />
    <glyph glyph-name="U" unicode="U" horiz-adv-x="1350" 
d="M1223 1400v-949q0 -133 -73 -242t-198.5 -170t-276.5 -61t-276.5 61t-198.5 170t-73 242v949h380v-932q0 -71 47.5 -116.5t120.5 -45.5t120.5 45.5t47.5 116.5v932h380z" />
    <glyph glyph-name="V" unicode="V" horiz-adv-x="1396" 
d="M410 1400l288 -975l288 975h390l-471 -1400h-414l-471 1400h390z" />
    <glyph glyph-name="W" unicode="W" horiz-adv-x="1996" 
d="M807 1400h382l203 -904l194 904h390l-368 -1400h-390l-220 888l-220 -888h-390l-368 1400h390l194 -904z" />
    <glyph glyph-name="X" unicode="X" horiz-adv-x="1318" 
d="M1303 0h-413l-231 464l-231 -464h-413l400 719l-375 681h414l205 -425l205 425h414l-375 -681z" />
    <glyph glyph-name="Y" unicode="Y" horiz-adv-x="1328" 
d="M432 1400l232 -506l232 506h412l-454 -856v-544h-380v544l-454 856h412z" />
    <glyph glyph-name="Z" unicode="Z" horiz-adv-x="1232" 
d="M99 297l573 776h-543v327h994v-297l-574 -776h594v-327h-1044v297z" />
    <glyph glyph-name="bracketleft" unicode="[" horiz-adv-x="885" 
d="M181 -280v1780h671v-327h-291v-1126h291v-327h-671z" />
    <glyph glyph-name="backslash" unicode="\" horiz-adv-x="1023" 
d="M669 -280l-684 1780h369l684 -1780h-369z" />
    <glyph glyph-name="bracketright" unicode="]" horiz-adv-x="885" 
d="M704 1500v-1780h-671v327h291v1126h-291v327h671z" />
    <glyph glyph-name="asciicircum" unicode="^" horiz-adv-x="1258" 
d="M464 1400h330l400 -622h-390l-175 287l-175 -287h-390z" />
    <glyph glyph-name="underscore" unicode="_" horiz-adv-x="1000" 
d="M0 -429v320h1000v-320h-1000z" />
    <glyph glyph-name="grave" unicode="`" horiz-adv-x="870" 
d="M462 1460l238 -342h-342l-267 342h371z" />
    <glyph glyph-name="a" unicode="a" horiz-adv-x="1322" 
d="M641 297q68 0 122 34t80 90v194q-26 56 -80 90t-122 34q-96 0 -159 -63t-63 -158t63 -158t159 -63zM843 0v88q-56 -52 -134 -82t-162 -30q-137 0 -249.5 72t-177 196.5t-64.5 273.5t64.5 273.5t177 196.5t249.5 72q84 0 162 -30t134 -82v88h360v-1036h-360z" />
    <glyph glyph-name="b" unicode="b" horiz-adv-x="1322" 
d="M681 297q96 0 159 63t63 158t-63 158t-159 63q-68 0 -122 -34t-80 -90v-194q26 -56 80 -90t122 -34zM479 88v-88h-360v1460h360v-512q56 52 134 82t162 30q137 0 249.5 -72t177 -196.5t64.5 -273.5t-64.5 -273.5t-177 -196.5t-249.5 -72q-84 0 -162 30t-134 82z" />
    <glyph glyph-name="c" unicode="c" horiz-adv-x="1126" 
d="M641 -24q-163 0 -297.5 71.5t-211 196t-76.5 274.5t76.5 274.5t211 196t297.5 71.5q242 0 412 -152l-171 -260q-114 91 -235 91q-96 0 -159 -63t-63 -158t63 -158t159 -63q119 0 245 103l191 -243q-81 -86 -195 -133.5t-247 -47.5z" />
    <glyph glyph-name="d" unicode="d" horiz-adv-x="1322" 
d="M641 297q68 0 122 34t80 90v194q-26 56 -80 90t-122 34q-96 0 -159 -63t-63 -158t63 -158t159 -63zM843 0v88q-56 -52 -134 -82t-162 -30q-137 0 -249.5 72t-177 196.5t-64.5 273.5t64.5 273.5t177 196.5t249.5 72q84 0 162 -30t134 -82v512h360v-1460h-360z" />
    <glyph glyph-name="e" unicode="e" horiz-adv-x="1238" 
d="M424 421q16 -87 76 -133.5t154 -46.5q140 0 266 116l183 -193q-173 -188 -458 -188q-256 0 -422.5 155.5t-166.5 386.5q0 150 75 274.5t207 196t291 71.5q156 0 283 -70t198.5 -191t71.5 -266q0 -58 -17 -112h-741zM623 795q-77 0 -127.5 -42t-68.5 -121h385
q-31 163 -189 163z" />
    <glyph glyph-name="f" unicode="f" horiz-adv-x="793" 
d="M752 1446v-265q-42 7 -98 7q-52 0 -79.5 -25t-27.5 -71v-56h205v-317h-205v-719h-369v719h-137v317h137v62q0 169 117.5 265.5t319.5 96.5q74 0 137 -14z" />
    <glyph glyph-name="g" unicode="g" horiz-adv-x="1322" 
d="M641 297q68 0 122 34t80 90v194q-26 56 -80 90t-122 34q-96 0 -159 -63t-63 -158t63 -158t159 -63zM843 49v60q-56 -52 -134 -82t-162 -30q-209 0 -350 149.5t-141 371.5q0 149 64.5 273.5t177 196.5t249.5 72q84 0 162 -30t134 -82v88h360v-965q0 -233 -156.5 -384
t-404.5 -151q-149 0 -285.5 46t-229.5 130l174 250q129 -113 308 -113q106 0 170 54.5t64 145.5z" />
    <glyph glyph-name="h" unicode="h" horiz-adv-x="1238" 
d="M488 647v-647h-369v1460h369v-525q41 58 108.5 91.5t144.5 33.5q172 0 285 -113.5t113 -287.5v-659h-369v600q0 58 -38.5 98.5t-102.5 40.5q-43 0 -82 -26.5t-59 -65.5z" />
    <glyph glyph-name="i" unicode="i" horiz-adv-x="600" 
d="M115 0v1036h370v-1036h-370zM95 1301q0 82 59 137t146 55t146 -55t59 -137q0 -81 -59 -136t-146 -55t-146 55t-59 136z" />
    <glyph glyph-name="j" unicode="j" horiz-adv-x="600" 
d="M115 -54v1090h370v-1140q0 -165 -105.5 -262.5t-281.5 -97.5q-72 0 -132 14v303h56q93 0 93 93zM95 1301q0 82 59 137t146 55t146 -55t59 -137q0 -81 -59 -136t-146 -55t-146 55t-59 136z" />
    <glyph glyph-name="k" unicode="k" horiz-adv-x="1139" 
d="M732 0l-183 403h-61v-403h-369v1460h369v-741h67l151 317h394l-252 -478l279 -558h-395z" />
    <glyph glyph-name="l" unicode="l" horiz-adv-x="600" 
d="M115 0v1460h370v-1460h-370z" />
    <glyph glyph-name="m" unicode="m" horiz-adv-x="1873" 
d="M119 1036h369v-101q41 58 106.5 90.5t143.5 32.5q99 0 185 -45t139 -121q50 74 134.5 121t182.5 47q171 0 283 -113.5t112 -286.5v-660h-369v600q0 59 -37 99t-98 40q-43 0 -80.5 -26t-59.5 -68q1 -12 1 -37v-608h-369v600q0 60 -37.5 99.5t-97.5 39.5q-43 0 -80.5 -26
t-58.5 -67v-646h-369v1036z" />
    <glyph glyph-name="n" unicode="n" horiz-adv-x="1238" 
d="M488 647v-647h-369v1036h369v-101q41 58 108.5 91.5t144.5 33.5q172 0 285 -113.5t113 -287.5v-659h-369v600q0 58 -38.5 98.5t-102.5 40.5q-43 0 -82 -26.5t-59 -65.5z" />
    <glyph glyph-name="o" unicode="o" horiz-adv-x="1282" 
d="M56 518q0 150 76.5 274.5t211 196t297.5 71.5t297.5 -71.5t211 -196t76.5 -274.5t-76.5 -274.5t-211 -196t-297.5 -71.5t-297.5 71.5t-211 196t-76.5 274.5zM419 518q0 -95 63 -158t159 -63t159 63t63 158q0 94 -63 157.5t-159 63.5t-159 -63.5t-63 -157.5z" />
    <glyph glyph-name="p" unicode="p" horiz-adv-x="1322" 
d="M681 297q96 0 159 63t63 158t-63 158t-159 63q-68 0 -122 -34t-80 -90v-194q26 -56 80 -90t122 -34zM479 88v-552h-360v1500h360v-88q56 52 134 82t162 30q137 0 249.5 -72t177 -196.5t64.5 -273.5t-64.5 -273.5t-177 -196.5t-249.5 -72q-84 0 -162 30t-134 82z" />
    <glyph glyph-name="q" unicode="q" horiz-adv-x="1322" 
d="M641 297q68 0 122 34t80 90v194q-26 56 -80 90t-122 34q-96 0 -159 -63t-63 -158t63 -158t159 -63zM843 -464v552q-56 -52 -134 -82t-162 -30q-137 0 -249.5 72t-177 196.5t-64.5 273.5t64.5 273.5t177 196.5t249.5 72q84 0 162 -30t134 -82v88h360v-1500h-360z" />
    <glyph glyph-name="r" unicode="r" horiz-adv-x="855" 
d="M667 739q-56 0 -103.5 -32t-75.5 -87v-620h-369v1036h369v-117q33 62 93 101.5t130 39.5q52 0 94 -26l-21 -319q-66 24 -117 24z" />
    <glyph glyph-name="s" unicode="s" horiz-adv-x="958" 
d="M48 148l156 209q48 -53 115.5 -83t139.5 -30q47 0 73.5 16.5t26.5 45.5q0 31 -31.5 52t-108.5 37q-158 35 -245.5 124.5t-87.5 219.5q0 140 111 230.5t283 90.5q104 0 205 -38.5t183 -104.5l-152 -208q-100 83 -200 83q-37 0 -58 -15.5t-21 -41.5q0 -62 125 -88
q173 -36 260.5 -123.5t87.5 -218.5q0 -143 -118 -236t-302 -93q-134 0 -250.5 45.5t-191.5 126.5z" />
    <glyph glyph-name="t" unicode="t" horiz-adv-x="817" 
d="M549 719v-329q0 -97 107 -97q69 0 114 7v-297q-79 -27 -210 -27q-172 0 -276 100t-104 266v377h-139v317h139v268l369 32v-300h209v-317h-209z" />
    <glyph glyph-name="u" unicode="u" horiz-adv-x="1238" 
d="M750 389v647h369v-1036h-369v101q-41 -58 -108.5 -91.5t-144.5 -33.5q-172 0 -285 113.5t-113 287.5v659h369v-600q0 -58 38.5 -98.5t102.5 -40.5q43 0 82 26.5t59 65.5z" />
    <glyph glyph-name="v" unicode="v" horiz-adv-x="1110" 
d="M707 1036h386l-330 -1036h-416l-330 1036h386l152 -635z" />
    <glyph glyph-name="w" unicode="w" horiz-adv-x="1630" 
d="M637 1036h356l124 -603l125 603h371l-294 -1036h-378l-126 534l-126 -534h-378l-294 1036h371l125 -603z" />
    <glyph glyph-name="x" unicode="x" horiz-adv-x="1110" 
d="M1093 0h-390l-148 305l-148 -305h-390l294 528l-268 508h390l122 -286l122 286h390l-268 -508z" />
    <glyph glyph-name="y" unicode="y" horiz-adv-x="1110" 
d="M572 -464h-388l193 464l-360 1036h386l151 -567l153 567h386z" />
    <glyph glyph-name="z" unicode="z" horiz-adv-x="1037" 
d="M73 0v269l412 453h-386v314h840v-269l-412 -453h432v-314h-886z" />
    <glyph glyph-name="braceleft" unicode="{" horiz-adv-x="885" 
d="M105 447v326q81 0 129 45t48 121v222q0 145 103.5 242t261.5 97h205v-327h-77q-50 0 -81.5 -30t-31.5 -76v-227q0 -88 -46 -148t-131 -82q85 -22 131 -82t46 -148v-227q0 -46 31.5 -76t81.5 -30h77v-327h-205q-158 0 -261.5 97t-103.5 242v222q0 76 -48 121t-129 45z" />
    <glyph glyph-name="bar" unicode="|" horiz-adv-x="668" 
d="M154 -280v1780h360v-1780h-360z" />
    <glyph glyph-name="braceright" unicode="}" horiz-adv-x="885" 
d="M780 773v-326q-81 0 -129 -45t-48 -121v-222q0 -145 -103.5 -242t-261.5 -97h-205v327h77q50 0 81.5 30t31.5 76v227q0 88 46 148t131 82q-85 22 -131 82t-46 148v227q0 46 -31.5 76t-81.5 30h-77v327h205q158 0 261.5 -97t103.5 -242v-222q0 -76 48 -121t129 -45z" />
    <glyph glyph-name="asciitilde" unicode="~" horiz-adv-x="1178" 
d="M587 494q-86 68 -128 68q-58 0 -73 -106l-344 59q25 187 106 286.5t212 99.5q121 0 231 -85q86 -68 128 -68q58 0 73 106l344 -59q-25 -187 -106 -286.5t-212 -99.5q-121 0 -231 85z" />
    <glyph glyph-name="uni00A0" unicode="&#xa0;" horiz-adv-x="609" 
 />
    <glyph glyph-name="exclamdown" unicode="&#xa1;" horiz-adv-x="634" 
d="M507 587v-951h-380v951h380zM540 860q0 -85 -64 -143t-159 -58t-159 58t-64 143q0 84 64 142t159 58t159 -58t64 -142z" />
    <glyph glyph-name="cent" unicode="&#xa2;" horiz-adv-x="1126" 
d="M466 -184v184q-183 50 -296.5 191.5t-113.5 326.5q0 184 113.5 325.5t296.5 192.5v184h332v-179q145 -35 255 -133l-171 -260q-114 91 -235 91q-96 0 -159 -63.5t-63 -157.5q0 -95 63 -158t159 -63q119 0 245 103l191 -243q-115 -121 -285 -162v-179h-332z" />
    <glyph glyph-name="sterling" unicode="&#xa3;" horiz-adv-x="1177" 
d="M287 531h-168v240h109q-63 140 -63 251q0 168 134.5 285t329.5 117q151 0 268.5 -72.5t165.5 -185.5l-314 -169q-42 99 -120 99q-36 0 -59.5 -27.5t-23.5 -69.5q0 -30 11.5 -71.5t22.5 -70l35 -86.5h278v-240h-226q-13 -139 -116 -203h538v-328h-964v309q76 28 118 87
t44 135z" />
    <glyph glyph-name="currency" unicode="&#xa4;" horiz-adv-x="1284" 
d="M642 484q70 0 116 48t46 120t-46 120t-116 48t-116 -48t-46 -120t46 -120t116 -48zM642 198q-122 0 -228 50l-174 -175l-198 191l168 171q-59 99 -59 217t59 217l-168 171l198 191l174 -175q106 50 228 50t228 -50l174 175l198 -191l-168 -171q59 -99 59 -217t-59 -217
l168 -171l-198 -191l-174 175q-106 -50 -228 -50z" />
    <glyph glyph-name="yen" unicode="&#xa5;" horiz-adv-x="1328" 
d="M433 1400l231 -514l231 514h413l-354 -657h220v-170h-312l-8 -14v-56h320v-170h-320v-333h-380v333h-320v170h320v56l-8 14h-312v170h220l-354 657h413z" />
    <glyph glyph-name="brokenbar" unicode="&#xa6;" horiz-adv-x="668" 
d="M154 700v800h360v-800h-360zM154 -280v800h360v-800h-360z" />
    <glyph glyph-name="section" unicode="&#xa7;" horiz-adv-x="1033" 
d="M995 539q0 -90 -44 -162t-126 -118q90 -90 90 -224q0 -142 -118 -238.5t-292 -96.5q-150 0 -262.5 75t-140.5 196l292 70q10 -39 39.5 -60.5t71.5 -21.5q43 0 71.5 22.5t28.5 57.5q0 55 -61 83l-260 117q-118 53 -182.5 145.5t-64.5 199.5q0 89 44 161.5t125 118.5
q-89 91 -89 224q0 142 118.5 239t291.5 97q150 0 262.5 -75.5t140.5 -196.5l-291 -70q-10 39 -40 60.5t-72 21.5q-43 0 -71.5 -22.5t-28.5 -56.5q0 -55 61 -83l260 -117q118 -54 182.5 -146.5t64.5 -199.5zM594 666l-117 52q-57 -5 -93.5 -42.5t-36.5 -91.5q0 -86 91 -127
l116 -52q57 5 94 42t37 92q0 86 -91 127z" />
    <glyph glyph-name="dieresis" unicode="&#xa8;" horiz-adv-x="870" 
d="M48 1292q0 74 51 124t126 50t126 -50t51 -124t-51 -124t-126 -50t-126 50t-51 124zM468 1292q0 74 51 124t126 50t126 -50t51 -124t-51 -124t-126 -50t-126 50t-51 124z" />
    <glyph glyph-name="copyright" unicode="&#xa9;" horiz-adv-x="1608" 
d="M839 300q-180 0 -302.5 115t-122.5 283t122.5 283t302.5 115q161 0 290 -105l-124 -190q-84 76 -166 76q-71 0 -118.5 -51t-47.5 -128t47.5 -128.5t118.5 -51.5q85 0 171 84l129 -190q-129 -112 -300 -112zM80 700q0 149 56.5 283t153.5 231t231 153.5t283 56.5
t283 -56.5t231 -153.5t153.5 -231t56.5 -283t-56.5 -283t-153.5 -231t-231 -153.5t-283 -56.5t-283 56.5t-231 153.5t-153.5 231t-56.5 283zM212 700q0 -165 78.5 -303t214.5 -217.5t299 -79.5t299 79.5t214.5 217.5t78.5 303t-78.5 303t-214.5 217.5t-299 79.5t-299 -79.5
t-214.5 -217.5t-78.5 -303z" />
    <glyph glyph-name="ordfeminine" unicode="&#xaa;" horiz-adv-x="934" 
d="M459 898q41 0 72.5 20t46.5 52v132q-15 32 -46.5 52t-72.5 20q-57 0 -96 -39.5t-39 -98.5t39 -98.5t96 -39.5zM578 672v57q-68 -73 -183 -73q-147 0 -246 109.5t-99 270.5t99 270.5t246 109.5q115 0 183 -73v57h275v-728h-275z" />
    <glyph glyph-name="guillemotleft" unicode="&#xab;" horiz-adv-x="1303" 
d="M76 539v168l590 360v-283l-280 -161l280 -161v-283zM619 539v168l590 360v-283l-280 -161l280 -161v-283z" />
    <glyph glyph-name="logicalnot" unicode="&#xac;" horiz-adv-x="1178" 
d="M704 215v286h-590v325h950v-611h-360z" />
    <glyph glyph-name="uni00AD" unicode="&#xad;" horiz-adv-x="860" 
d="M746 498h-632v331h632v-331z" />
    <glyph glyph-name="registered" unicode="&#xae;" horiz-adv-x="1608" 
d="M80 700q0 149 56.5 283t153.5 231t231 153.5t283 56.5t283 -56.5t231 -153.5t153.5 -231t56.5 -283t-56.5 -283t-153.5 -231t-231 -153.5t-283 -56.5t-283 56.5t-231 153.5t-153.5 231t-56.5 283zM212 700q0 -165 78.5 -303t214.5 -217.5t299 -79.5t299 79.5t214.5 217.5
t78.5 303t-78.5 303t-214.5 217.5t-299 79.5t-299 -79.5t-214.5 -217.5t-78.5 -303zM539 1084h309q120 0 200 -73t80 -185q0 -68 -32 -123t-87 -88l145 -301h-249l-114 256h-24v-256h-228v770zM767 736h54q35 0 57.5 23.5t22.5 59.5t-22.5 59.5t-57.5 23.5h-54v-166z" />
    <glyph glyph-name="macron" unicode="&#xaf;" horiz-adv-x="870" 
d="M105 1155v266h660v-266h-660z" />
    <glyph glyph-name="degree" unicode="&#xb0;" horiz-adv-x="812" 
d="M96 1131q0 123 89.5 208t220.5 85t220.5 -85t89.5 -208t-89.5 -208t-220.5 -85t-220.5 85t-89.5 208zM322 1131q0 -36 24 -60.5t60 -24.5t60 24.5t24 60.5t-24 60.5t-60 24.5t-60 -24.5t-24 -60.5z" />
    <glyph glyph-name="plusminus" unicode="&#xb1;" horiz-adv-x="1178" 
d="M1064 0h-950v300h950v-300zM409 364v292h-295v300h295v292h360v-292h295v-300h-295v-292h-360z" />
    <glyph glyph-name="twosuperior" unicode="&#xb2;" 
d="M619 878l-171 -187h275v-239h-634v215l312 343q52 56 52 106q0 28 -17 46t-44 18q-55 0 -82 -89l-247 76q22 113 112.5 185t221.5 72q144 0 240 -78.5t96 -199.5q0 -143 -114 -268z" />
    <glyph glyph-name="threesuperior" unicode="&#xb3;" 
d="M457 763q0 41 -27.5 69t-67.5 28q-27 0 -50 -14l-109 135l174 184h-280v235h600v-221l-164 -162q100 -34 155 -109t55 -176q0 -127 -105 -215.5t-262 -88.5q-106 0 -195.5 45.5t-138.5 126.5l166 166q70 -100 154 -100q40 0 67.5 28t27.5 69z" />
    <glyph glyph-name="acute" unicode="&#xb4;" horiz-adv-x="870" 
d="M170 1118l238 342h371l-267 -342h-342z" />
    <glyph glyph-name="mu" unicode="&#xb5;" horiz-adv-x="1258" 
d="M119 -464v1500h369v-617q9 -58 41.5 -90t80.5 -32q51 0 95.5 36.5t64.5 93.5v609h369v-1036h-369v112q-30 -61 -77 -98.5t-97 -37.5q-74 0 -108 58v-498h-369z" />
    <glyph glyph-name="paragraph" unicode="&#xb6;" horiz-adv-x="1189" 
d="M537 536h-50q-188 0 -316 124.5t-128 307.5t128 307.5t316 124.5h568v-1662h-213v1444h-92v-1444h-213v798z" />
    <glyph glyph-name="periodcentered" unicode="&#xb7;" horiz-adv-x="609" 
d="M92 655q0 86 60 144t152 58t152.5 -58t60.5 -144t-60.5 -144t-152.5 -58t-152 58t-60 144z" />
    <glyph glyph-name="cedilla" unicode="&#xb8;" horiz-adv-x="870" 
d="M460 -300q0 25 -23.5 39.5t-61.5 14.5q-33 0 -65 -5l-61 67l97 184h246l-76 -112q84 -22 134.5 -73.5t50.5 -118.5q0 -92 -90 -154t-224 -62q-142 0 -231 66l91 139q54 -39 128 -39q38 0 61.5 14.5t23.5 39.5z" />
    <glyph glyph-name="onesuperior" unicode="&#xb9;" 
d="M365 1400h241v-948h-284v684l-135 -74l-100 187z" />
    <glyph glyph-name="ordmasculine" unicode="&#xba;" horiz-adv-x="934" 
d="M58 1036q0 159 118.5 269.5t290.5 110.5t290.5 -110.5t118.5 -269.5t-118.5 -269.5t-290.5 -110.5t-290.5 110.5t-118.5 269.5zM333 1036q0 -59 38 -98.5t96 -39.5t96 39.5t38 98.5t-38 98.5t-96 39.5t-96 -39.5t-38 -98.5z" />
    <glyph glyph-name="guillemotright" unicode="&#xbb;" horiz-adv-x="1303" 
d="M1229 707v-168l-590 -360v283l280 161l-280 161v283zM686 707v-168l-590 -360v283l280 161l-280 161v283z" />
    <glyph glyph-name="onequarter" unicode="&#xbc;" horiz-adv-x="1960" 
d="M365 1400h241v-948h-284v684l-135 -74l-100 187zM505 0l683 1400h267l-683 -1400h-267zM1174 153v205l391 590h249v-572h100v-223h-100v-153h-261v153h-379zM1403 375h150v226z" />
    <glyph glyph-name="onehalf" unicode="&#xbd;" horiz-adv-x="1960" 
d="M365 1400h241v-948h-284v684l-135 -74l-100 187zM505 0l683 1400h267l-683 -1400h-267zM1764 426l-171 -187h275v-239h-634v215l312 343q52 56 52 106q0 28 -17 46t-44 18q-55 0 -82 -89l-247 76q22 113 112.5 185t221.5 72q144 0 240 -78.5t96 -199.5q0 -143 -114 -268z
" />
    <glyph glyph-name="threequarters" unicode="&#xbe;" horiz-adv-x="1960" 
d="M457 763q0 41 -27.5 69t-67.5 28q-27 0 -50 -14l-109 135l174 184h-280v235h600v-221l-164 -162q100 -34 155 -109t55 -176q0 -127 -105 -215.5t-262 -88.5q-106 0 -195.5 45.5t-138.5 126.5l166 166q70 -100 154 -100q40 0 67.5 28t27.5 69zM505 0l683 1400h267
l-683 -1400h-267zM1174 153v205l391 590h249v-572h100v-223h-100v-153h-261v153h-379zM1403 375h150v226z" />
    <glyph glyph-name="questiondown" unicode="&#xbf;" horiz-adv-x="1120" 
d="M819 587v-362q-168 0 -254.5 -46.5t-86.5 -123.5q0 -51 44.5 -83t116.5 -32q130 0 263 107l160 -282q-93 -71 -212 -112t-239 -41q-222 0 -368 126t-146 310q0 141 92 254.5t250 157.5v127h380zM852 860q0 -85 -63.5 -143t-159.5 -58q-95 0 -159 58t-64 143q0 84 64 142
t159 58t159 -58t64 -142z" />
    <glyph glyph-name="Agrave" unicode="&#xc0;" horiz-adv-x="1396" 
d="M491 1400h414l471 -1400h-391l-78 269h-418l-78 -269h-391zM568 557h260l-130 450zM702 1850l238 -342h-342l-267 342h371z" />
    <glyph glyph-name="Aacute" unicode="&#xc1;" horiz-adv-x="1396" 
d="M491 1400h414l471 -1400h-391l-78 269h-418l-78 -269h-391zM568 557h260l-130 450zM451 1508l238 342h371l-267 -342h-342z" />
    <glyph glyph-name="Acircumflex" unicode="&#xc2;" horiz-adv-x="1396" 
d="M491 1400h414l471 -1400h-391l-78 269h-418l-78 -269h-391zM568 557h260l-130 450zM560 1850h276l292 -342h-335l-95 125l-95 -125h-335z" />
    <glyph glyph-name="Atilde" unicode="&#xc3;" horiz-adv-x="1396" 
d="M491 1400h414l471 -1400h-391l-78 269h-418l-78 -269h-391zM568 557h260l-130 450zM708 1549q-61 34 -85 34q-36 0 -50 -69l-275 52q21 121 80.5 183t153.5 62q80 0 156 -41q61 -34 85 -34q36 0 50 69l275 -52q-21 -121 -80.5 -183t-153.5 -62q-80 0 -156 41z" />
    <glyph glyph-name="Adieresis" unicode="&#xc4;" horiz-adv-x="1396" 
d="M491 1400h414l471 -1400h-391l-78 269h-418l-78 -269h-391zM568 557h260l-130 450zM311 1664q0 74 51 124t126 50t126 -50t51 -124t-51 -124t-126 -50t-126 50t-51 124zM731 1664q0 74 51 124t126 50t126 -50t51 -124t-51 -124t-126 -50t-126 50t-51 124z" />
    <glyph glyph-name="Aring" unicode="&#xc5;" horiz-adv-x="1396" 
d="M491 1400h414l471 -1400h-391l-78 269h-418l-78 -269h-391zM568 557h260l-130 450zM639 1686q0 -25 16.5 -41t42.5 -16t42.5 16t16.5 41q0 24 -16.5 40t-42.5 16t-42.5 -16t-16.5 -40zM452 1686q0 95 71 159.5t175 64.5t175 -64.5t71 -159.5t-71 -160t-175 -65t-175 65
t-71 160z" />
    <glyph glyph-name="AE" unicode="&#xc6;" horiz-adv-x="1895" 
d="M401 0h-394l740 1400h1042v-318h-527v-222h479v-312h-479v-230h545v-318h-917v269h-359zM890 1012l-220 -455h220v455z" />
    <glyph glyph-name="Ccedilla" unicode="&#xc7;" horiz-adv-x="1407" 
d="M828 -300q0 25 -23.5 39.5t-61.5 14.5q-33 0 -65 -5l-61 67l89 170q-182 27 -327 126t-226.5 253t-81.5 335q0 201 99.5 367t274.5 261.5t387 95.5q287 0 500 -173l-193 -277q-141 122 -307 122q-162 0 -271 -113.5t-109 -282.5t109 -282.5t271 -113.5q87 0 170.5 37
t147.5 97l201 -275q-170 -147 -402 -179l-65 -96q84 -22 134.5 -73.5t50.5 -118.5q0 -92 -90 -154t-224 -62q-142 0 -231 66l91 139q54 -39 128 -39q38 0 61.5 14.5t23.5 39.5z" />
    <glyph glyph-name="Egrave" unicode="&#xc8;" horiz-adv-x="1158" 
d="M140 0v1400h912v-318h-532v-222h484v-312h-484v-230h550v-318h-930zM563 1850l238 -342h-342l-267 342h371z" />
    <glyph glyph-name="Eacute" unicode="&#xc9;" horiz-adv-x="1158" 
d="M140 0v1400h912v-318h-532v-222h484v-312h-484v-230h550v-318h-930zM350 1508l238 342h371l-267 -342h-342z" />
    <glyph glyph-name="Ecircumflex" unicode="&#xca;" horiz-adv-x="1158" 
d="M140 0v1400h912v-318h-532v-222h484v-312h-484v-230h550v-318h-930zM453 1850h276l292 -342h-335l-95 125l-95 -125h-335z" />
    <glyph glyph-name="Edieresis" unicode="&#xcb;" horiz-adv-x="1158" 
d="M140 0v1400h912v-318h-532v-222h484v-312h-484v-230h550v-318h-930zM216 1664q0 74 51 124t126 50t126 -50t51 -124t-51 -124t-126 -50t-126 50t-51 124zM636 1664q0 74 51 124t126 50t126 -50t51 -124t-51 -124t-126 -50t-126 50t-51 124z" />
    <glyph glyph-name="Igrave" unicode="&#xcc;" horiz-adv-x="666" 
d="M143 1400h380v-1400h-380v1400zM336 1850l238 -342h-342l-267 342h371z" />
    <glyph glyph-name="Iacute" unicode="&#xcd;" horiz-adv-x="666" 
d="M143 1400h380v-1400h-380v1400zM92 1508l238 342h371l-267 -342h-342z" />
    <glyph glyph-name="Icircumflex" unicode="&#xce;" horiz-adv-x="666" 
d="M143 1400h380v-1400h-380v1400zM195 1850h276l292 -342h-335l-95 125l-95 -125h-335z" />
    <glyph glyph-name="Idieresis" unicode="&#xcf;" horiz-adv-x="666" 
d="M143 1400h380v-1400h-380v1400zM-54 1664q0 74 51 124t126 50t126 -50t51 -124t-51 -124t-126 -50t-126 50t-51 124zM366 1664q0 74 51 124t126 50t126 -50t51 -124t-51 -124t-126 -50t-126 50t-51 124z" />
    <glyph glyph-name="Eth" unicode="&#xd0;" horiz-adv-x="1492" 
d="M182 1400h537q206 0 366 -88t248 -247t88 -365t-88 -365t-248 -247t-366 -88h-537v591h-165v217h165v592zM562 328h127q162 0 256.5 98t94.5 274t-94.5 274t-256.5 98h-127v-264h200v-217h-200v-263z" />
    <glyph glyph-name="Ntilde" unicode="&#xd1;" horiz-adv-x="1428" 
d="M140 0v1400h408l392 -852v852h348v-1400h-408l-392 852v-852h-348zM724 1549q-61 34 -85 34q-36 0 -50 -69l-275 52q21 121 80.5 183t153.5 62q80 0 156 -41q61 -34 85 -34q36 0 50 69l275 -52q-21 -121 -80.5 -183t-153.5 -62q-80 0 -156 41z" />
    <glyph glyph-name="Ograve" unicode="&#xd2;" horiz-adv-x="1664" 
d="M452 700q0 -169 109 -282.5t271 -113.5t271 113.5t109 282.5t-109 282.5t-271 113.5t-271 -113.5t-109 -282.5zM71 700q0 201 99.5 367t274.5 261.5t387 95.5t387 -95.5t274.5 -261.5t99.5 -367t-99.5 -367t-274.5 -261.5t-387 -95.5t-387 95.5t-274.5 261.5t-99.5 367z
M805 1850l238 -342h-342l-267 342h371z" />
    <glyph glyph-name="Oacute" unicode="&#xd3;" horiz-adv-x="1664" 
d="M452 700q0 -169 109 -282.5t271 -113.5t271 113.5t109 282.5t-109 282.5t-271 113.5t-271 -113.5t-109 -282.5zM71 700q0 201 99.5 367t274.5 261.5t387 95.5t387 -95.5t274.5 -261.5t99.5 -367t-99.5 -367t-274.5 -261.5t-387 -95.5t-387 95.5t-274.5 261.5t-99.5 367z
M620 1508l238 342h371l-267 -342h-342z" />
    <glyph glyph-name="Ocircumflex" unicode="&#xd4;" horiz-adv-x="1664" 
d="M452 700q0 -169 109 -282.5t271 -113.5t271 113.5t109 282.5t-109 282.5t-271 113.5t-271 -113.5t-109 -282.5zM71 700q0 201 99.5 367t274.5 261.5t387 95.5t387 -95.5t274.5 -261.5t99.5 -367t-99.5 -367t-274.5 -261.5t-387 -95.5t-387 95.5t-274.5 261.5t-99.5 367z
M694 1850h276l292 -342h-335l-95 125l-95 -125h-335z" />
    <glyph glyph-name="Otilde" unicode="&#xd5;" horiz-adv-x="1664" 
d="M452 700q0 -169 109 -282.5t271 -113.5t271 113.5t109 282.5t-109 282.5t-271 113.5t-271 -113.5t-109 -282.5zM71 700q0 201 99.5 367t274.5 261.5t387 95.5t387 -95.5t274.5 -261.5t99.5 -367t-99.5 -367t-274.5 -261.5t-387 -95.5t-387 95.5t-274.5 261.5t-99.5 367z
M842 1549q-61 34 -85 34q-36 0 -50 -69l-275 52q21 121 80.5 183t153.5 62q80 0 156 -41q61 -34 85 -34q36 0 50 69l275 -52q-21 -121 -80.5 -183t-153.5 -62q-80 0 -156 41z" />
    <glyph glyph-name="Odieresis" unicode="&#xd6;" horiz-adv-x="1664" 
d="M452 700q0 -169 109 -282.5t271 -113.5t271 113.5t109 282.5t-109 282.5t-271 113.5t-271 -113.5t-109 -282.5zM71 700q0 201 99.5 367t274.5 261.5t387 95.5t387 -95.5t274.5 -261.5t99.5 -367t-99.5 -367t-274.5 -261.5t-387 -95.5t-387 95.5t-274.5 261.5t-99.5 367z
M445 1664q0 74 51 124t126 50t126 -50t51 -124t-51 -124t-126 -50t-126 50t-51 124zM865 1664q0 74 51 124t126 50t126 -50t51 -124t-51 -124t-126 -50t-126 50t-51 124z" />
    <glyph glyph-name="multiply" unicode="&#xd7;" horiz-adv-x="1178" 
d="M98 414l255 250l-255 250l234 232l257 -252l257 252l234 -232l-256 -250l256 -250l-234 -232l-257 251l-257 -251z" />
    <glyph glyph-name="Oslash" unicode="&#xd8;" horiz-adv-x="1664" 
d="M71 700q0 201 99.5 367t274.5 261.5t387 95.5q183 0 349 -78l88 114h266l-177 -231q111 -100 173 -236.5t62 -292.5q0 -201 -99.5 -367t-274.5 -261.5t-387 -95.5q-202 0 -371 87l-94 -123h-266l188 245q-104 99 -161 231.5t-57 283.5zM1215 700q0 136 -77 243l-466 -606
q73 -35 160 -35q162 0 272.5 114.5t110.5 283.5zM449 700q0 -126 64 -224l458 595q-68 27 -139 27q-162 0 -272.5 -114.5t-110.5 -283.5z" />
    <glyph glyph-name="Ugrave" unicode="&#xd9;" horiz-adv-x="1350" 
d="M1223 1400v-949q0 -133 -73 -242t-198.5 -170t-276.5 -61t-276.5 61t-198.5 170t-73 242v949h380v-932q0 -71 47.5 -116.5t120.5 -45.5t120.5 45.5t47.5 116.5v932h380zM645 1850l238 -342h-342l-267 342h371z" />
    <glyph glyph-name="Uacute" unicode="&#xda;" horiz-adv-x="1350" 
d="M1223 1400v-949q0 -133 -73 -242t-198.5 -170t-276.5 -61t-276.5 61t-198.5 170t-73 242v949h380v-932q0 -71 47.5 -116.5t120.5 -45.5t120.5 45.5t47.5 116.5v932h380zM467 1508l238 342h371l-267 -342h-342z" />
    <glyph glyph-name="Ucircumflex" unicode="&#xdb;" horiz-adv-x="1350" 
d="M1223 1400v-949q0 -133 -73 -242t-198.5 -170t-276.5 -61t-276.5 61t-198.5 170t-73 242v949h380v-932q0 -71 47.5 -116.5t120.5 -45.5t120.5 45.5t47.5 116.5v932h380zM537 1850h276l292 -342h-335l-95 125l-95 -125h-335z" />
    <glyph glyph-name="Udieresis" unicode="&#xdc;" horiz-adv-x="1350" 
d="M1223 1400v-949q0 -133 -73 -242t-198.5 -170t-276.5 -61t-276.5 61t-198.5 170t-73 242v949h380v-932q0 -71 47.5 -116.5t120.5 -45.5t120.5 45.5t47.5 116.5v932h380zM288 1664q0 74 51 124t126 50t126 -50t51 -124t-51 -124t-126 -50t-126 50t-51 124zM708 1664
q0 74 51 124t126 50t126 -50t51 -124t-51 -124t-126 -50t-126 50t-51 124z" />
    <glyph glyph-name="Yacute" unicode="&#xdd;" horiz-adv-x="1328" 
d="M432 1400l232 -506l232 506h412l-454 -856v-544h-380v544l-454 856h412zM456 1508l238 342h371l-267 -342h-342z" />
    <glyph glyph-name="Thorn" unicode="&#xde;" horiz-adv-x="1228" 
d="M681 224h-161v-224h-380v1400h380v-224h161q217 0 358 -135t141 -341q0 -207 -141 -341.5t-358 -134.5zM808 700q0 81 -48 131.5t-128 50.5h-112v-364h112q80 0 128 50t48 132z" />
    <glyph glyph-name="germandbls" unicode="&#xdf;" horiz-adv-x="1248" 
d="M127 0v1020q0 174 131.5 289t325.5 115q193 0 325.5 -106.5t132.5 -261.5q0 -98 -61.5 -183t-162.5 -124q159 -20 262 -126.5t103 -254.5q0 -166 -125 -279t-309 -113q-123 0 -225 54l65 289q61 -46 111 -46q49 0 80 37.5t31 95.5q0 87 -67 135.5t-194 52.5v292
q64 4 104 42t40 95q0 45 -30.5 74.5t-75.5 29.5q-46 0 -76 -33t-30 -87v-1007h-355z" />
    <glyph glyph-name="agrave" unicode="&#xe0;" horiz-adv-x="1322" 
d="M641 297q68 0 122 34t80 90v194q-26 56 -80 90t-122 34q-96 0 -159 -63t-63 -158t63 -158t159 -63zM843 0v88q-56 -52 -134 -82t-162 -30q-137 0 -249.5 72t-177 196.5t-64.5 273.5t64.5 273.5t177 196.5t249.5 72q84 0 162 -30t134 -82v88h360v-1036h-360zM661 1526
l238 -342h-342l-267 342h371z" />
    <glyph glyph-name="aacute" unicode="&#xe1;" horiz-adv-x="1322" 
d="M641 297q68 0 122 34t80 90v194q-26 56 -80 90t-122 34q-96 0 -159 -63t-63 -158t63 -158t159 -63zM843 0v88q-56 -52 -134 -82t-162 -30q-137 0 -249.5 72t-177 196.5t-64.5 273.5t64.5 273.5t177 196.5t249.5 72q84 0 162 -30t134 -82v88h360v-1036h-360zM420 1184
l238 342h371l-267 -342h-342z" />
    <glyph glyph-name="acircumflex" unicode="&#xe2;" horiz-adv-x="1322" 
d="M641 297q68 0 122 34t80 90v194q-26 56 -80 90t-122 34q-96 0 -159 -63t-63 -158t63 -158t159 -63zM843 0v88q-56 -52 -134 -82t-162 -30q-137 0 -249.5 72t-177 196.5t-64.5 273.5t64.5 273.5t177 196.5t249.5 72q84 0 162 -30t134 -82v88h360v-1036h-360zM530 1526h276
l292 -342h-335l-95 125l-95 -125h-335z" />
    <glyph glyph-name="atilde" unicode="&#xe3;" horiz-adv-x="1322" 
d="M641 297q68 0 122 34t80 90v194q-26 56 -80 90t-122 34q-96 0 -159 -63t-63 -158t63 -158t159 -63zM843 0v88q-56 -52 -134 -82t-162 -30q-137 0 -249.5 72t-177 196.5t-64.5 273.5t64.5 273.5t177 196.5t249.5 72q84 0 162 -30t134 -82v88h360v-1036h-360zM667 1218
q-61 34 -85 34q-36 0 -50 -69l-275 52q21 121 80.5 183t153.5 62q80 0 156 -41q61 -34 85 -34q36 0 50 69l275 -52q-21 -121 -80.5 -183t-153.5 -62q-80 0 -156 41z" />
    <glyph glyph-name="adieresis" unicode="&#xe4;" horiz-adv-x="1322" 
d="M641 297q68 0 122 34t80 90v194q-26 56 -80 90t-122 34q-96 0 -159 -63t-63 -158t63 -158t159 -63zM843 0v88q-56 -52 -134 -82t-162 -30q-137 0 -249.5 72t-177 196.5t-64.5 273.5t64.5 273.5t177 196.5t249.5 72q84 0 162 -30t134 -82v88h360v-1036h-360zM259 1340
q0 74 51 124t126 50t126 -50t51 -124t-51 -124t-126 -50t-126 50t-51 124zM679 1340q0 74 51 124t126 50t126 -50t51 -124t-51 -124t-126 -50t-126 50t-51 124z" />
    <glyph glyph-name="aring" unicode="&#xe5;" horiz-adv-x="1322" 
d="M641 297q68 0 122 34t80 90v194q-26 56 -80 90t-122 34q-96 0 -159 -63t-63 -158t63 -158t159 -63zM843 0v88q-56 -52 -134 -82t-162 -30q-137 0 -249.5 72t-177 196.5t-64.5 273.5t64.5 273.5t177 196.5t249.5 72q84 0 162 -30t134 -82v88h360v-1036h-360zM591 1362
q0 -25 16.5 -41t42.5 -16t42.5 16t16.5 41q0 24 -16.5 40t-42.5 16t-42.5 -16t-16.5 -40zM404 1362q0 95 71 159.5t175 64.5t175 -64.5t71 -159.5t-71 -160t-175 -65t-175 65t-71 160z" />
    <glyph glyph-name="ae" unicode="&#xe6;" horiz-adv-x="2051" 
d="M1978 421h-741q16 -87 76 -133.5t154 -46.5q140 0 266 116l183 -193q-173 -188 -458 -188q-141 0 -259.5 55t-195.5 150q-67 -95 -185 -150t-258 -55q-214 0 -359 102.5t-145 252.5q0 142 137.5 239t336.5 97q150 0 287 -74q-1 92 -71.5 147t-187.5 55q-179 0 -317 -111
l-109 229q79 70 195.5 108.5t239.5 38.5q139 0 255.5 -53.5t184.5 -148.5q79 94 191.5 148t243.5 54q156 0 283 -70t198.5 -191t71.5 -266q0 -58 -17 -112zM419 331q0 -46 51 -76.5t128 -30.5q137 0 217 88v54q-84 72 -217 72q-77 0 -128 -30.5t-51 -76.5zM1436 795
q-77 0 -127.5 -42t-68.5 -121h385q-31 163 -189 163z" />
    <glyph glyph-name="ccedilla" unicode="&#xe7;" horiz-adv-x="1126" 
d="M630 -300q0 25 -23.5 39.5t-61.5 14.5q-33 0 -65 -5l-61 67l91 173q-201 40 -327.5 186t-126.5 343q0 150 76.5 274.5t211 196t297.5 71.5q242 0 412 -152l-171 -260q-114 91 -235 91q-96 0 -159 -63t-63 -158t63 -158t159 -63q119 0 245 103l191 -243
q-131 -139 -332 -172l-65 -97q84 -22 134.5 -73.5t50.5 -118.5q0 -92 -90 -154t-224 -62q-142 0 -231 66l91 139q54 -39 128 -39q38 0 61.5 14.5t23.5 39.5z" />
    <glyph glyph-name="egrave" unicode="&#xe8;" horiz-adv-x="1238" 
d="M424 421q16 -87 76 -133.5t154 -46.5q140 0 266 116l183 -193q-173 -188 -458 -188q-256 0 -422.5 155.5t-166.5 386.5q0 150 75 274.5t207 196t291 71.5q156 0 283 -70t198.5 -191t71.5 -266q0 -58 -17 -112h-741zM623 795q-77 0 -127.5 -42t-68.5 -121h385
q-31 163 -189 163zM598 1526l238 -342h-342l-267 342h371z" />
    <glyph glyph-name="eacute" unicode="&#xe9;" horiz-adv-x="1238" 
d="M424 421q16 -87 76 -133.5t154 -46.5q140 0 266 116l183 -193q-173 -188 -458 -188q-256 0 -422.5 155.5t-166.5 386.5q0 150 75 274.5t207 196t291 71.5q156 0 283 -70t198.5 -191t71.5 -266q0 -58 -17 -112h-741zM623 795q-77 0 -127.5 -42t-68.5 -121h385
q-31 163 -189 163zM405 1184l238 342h371l-267 -342h-342z" />
    <glyph glyph-name="ecircumflex" unicode="&#xea;" horiz-adv-x="1238" 
d="M424 421q16 -87 76 -133.5t154 -46.5q140 0 266 116l183 -193q-173 -188 -458 -188q-256 0 -422.5 155.5t-166.5 386.5q0 150 75 274.5t207 196t291 71.5q156 0 283 -70t198.5 -191t71.5 -266q0 -58 -17 -112h-741zM623 795q-77 0 -127.5 -42t-68.5 -121h385
q-31 163 -189 163zM481 1526h276l292 -342h-335l-95 125l-95 -125h-335z" />
    <glyph glyph-name="edieresis" unicode="&#xeb;" horiz-adv-x="1238" 
d="M424 421q16 -87 76 -133.5t154 -46.5q140 0 266 116l183 -193q-173 -188 -458 -188q-256 0 -422.5 155.5t-166.5 386.5q0 150 75 274.5t207 196t291 71.5q156 0 283 -70t198.5 -191t71.5 -266q0 -58 -17 -112h-741zM623 795q-77 0 -127.5 -42t-68.5 -121h385
q-31 163 -189 163zM232 1340q0 74 51 124t126 50t126 -50t51 -124t-51 -124t-126 -50t-126 50t-51 124zM652 1340q0 74 51 124t126 50t126 -50t51 -124t-51 -124t-126 -50t-126 50t-51 124z" />
    <glyph glyph-name="igrave" unicode="&#xec;" horiz-adv-x="600" 
d="M115 0v1036h370v-1036h-370zM294 1526l238 -342h-342l-267 342h371z" />
    <glyph glyph-name="iacute" unicode="&#xed;" horiz-adv-x="600" 
d="M115 0v1036h370v-1036h-370zM68 1184l238 342h371l-267 -342h-342z" />
    <glyph glyph-name="icircumflex" unicode="&#xee;" horiz-adv-x="600" 
d="M115 0v1036h370v-1036h-370zM162 1526h276l292 -342h-335l-95 125l-95 -125h-335z" />
    <glyph glyph-name="idieresis" unicode="&#xef;" horiz-adv-x="600" 
d="M115 0v1036h370v-1036h-370zM-87 1340q0 74 51 124t126 50t126 -50t51 -124t-51 -124t-126 -50t-126 50t-51 124zM333 1340q0 74 51 124t126 50t126 -50t51 -124t-51 -124t-126 -50t-126 50t-51 124z" />
    <glyph glyph-name="eth" unicode="&#xf0;" horiz-adv-x="1260" 
d="M329 994l-85 141l158 78q-70 39 -166 79l285 168q87 -38 178 -97l175 87l85 -149l-110 -54q165 -147 254.5 -334.5t89.5 -394.5q0 -229 -160.5 -385.5t-407.5 -156.5q-158 0 -288.5 67.5t-205.5 185.5t-75 259q0 106 46.5 201.5t120.5 161t167.5 103.5t187.5 38
q80 0 130 -31q-51 71 -144 147zM416 499q0 -86 60.5 -144t150.5 -58q89 0 150 58.5t61 143.5q0 86 -61 144.5t-150 58.5q-90 0 -150.5 -58.5t-60.5 -144.5z" />
    <glyph glyph-name="ntilde" unicode="&#xf1;" horiz-adv-x="1238" 
d="M488 647v-647h-369v1036h369v-101q41 58 108.5 91.5t144.5 33.5q172 0 285 -113.5t113 -287.5v-659h-369v600q0 58 -38.5 98.5t-102.5 40.5q-43 0 -82 -26.5t-59 -65.5zM639 1218q-61 34 -85 34q-36 0 -50 -69l-275 52q21 121 80.5 183t153.5 62q80 0 156 -41
q61 -34 85 -34q36 0 50 69l275 -52q-21 -121 -80.5 -183t-153.5 -62q-80 0 -156 41z" />
    <glyph glyph-name="ograve" unicode="&#xf2;" horiz-adv-x="1282" 
d="M56 518q0 150 76.5 274.5t211 196t297.5 71.5t297.5 -71.5t211 -196t76.5 -274.5t-76.5 -274.5t-211 -196t-297.5 -71.5t-297.5 71.5t-211 196t-76.5 274.5zM419 518q0 -95 63 -158t159 -63t159 63t63 158q0 94 -63 157.5t-159 63.5t-159 -63.5t-63 -157.5zM614 1526
l238 -342h-342l-267 342h371z" />
    <glyph glyph-name="oacute" unicode="&#xf3;" horiz-adv-x="1282" 
d="M56 518q0 150 76.5 274.5t211 196t297.5 71.5t297.5 -71.5t211 -196t76.5 -274.5t-76.5 -274.5t-211 -196t-297.5 -71.5t-297.5 71.5t-211 196t-76.5 274.5zM419 518q0 -95 63 -158t159 -63t159 63t63 158q0 94 -63 157.5t-159 63.5t-159 -63.5t-63 -157.5zM431 1184
l238 342h371l-267 -342h-342z" />
    <glyph glyph-name="ocircumflex" unicode="&#xf4;" horiz-adv-x="1282" 
d="M56 518q0 150 76.5 274.5t211 196t297.5 71.5t297.5 -71.5t211 -196t76.5 -274.5t-76.5 -274.5t-211 -196t-297.5 -71.5t-297.5 71.5t-211 196t-76.5 274.5zM419 518q0 -95 63 -158t159 -63t159 63t63 158q0 94 -63 157.5t-159 63.5t-159 -63.5t-63 -157.5zM503 1526h276
l292 -342h-335l-95 125l-95 -125h-335z" />
    <glyph glyph-name="otilde" unicode="&#xf5;" horiz-adv-x="1282" 
d="M56 518q0 150 76.5 274.5t211 196t297.5 71.5t297.5 -71.5t211 -196t76.5 -274.5t-76.5 -274.5t-211 -196t-297.5 -71.5t-297.5 71.5t-211 196t-76.5 274.5zM419 518q0 -95 63 -158t159 -63t159 63t63 158q0 94 -63 157.5t-159 63.5t-159 -63.5t-63 -157.5zM651 1218
q-61 34 -85 34q-36 0 -50 -69l-275 52q21 121 80.5 183t153.5 62q80 0 156 -41q61 -34 85 -34q36 0 50 69l275 -52q-21 -121 -80.5 -183t-153.5 -62q-80 0 -156 41z" />
    <glyph glyph-name="odieresis" unicode="&#xf6;" horiz-adv-x="1282" 
d="M56 518q0 150 76.5 274.5t211 196t297.5 71.5t297.5 -71.5t211 -196t76.5 -274.5t-76.5 -274.5t-211 -196t-297.5 -71.5t-297.5 71.5t-211 196t-76.5 274.5zM419 518q0 -95 63 -158t159 -63t159 63t63 158q0 94 -63 157.5t-159 63.5t-159 -63.5t-63 -157.5zM254 1340
q0 74 51 124t126 50t126 -50t51 -124t-51 -124t-126 -50t-126 50t-51 124zM674 1340q0 74 51 124t126 50t126 -50t51 -124t-51 -124t-126 -50t-126 50t-51 124z" />
    <glyph glyph-name="divide" unicode="&#xf7;" horiz-adv-x="1178" 
d="M1064 507h-950v313h950v-313zM393 1079q0 81 56.5 137t139.5 56t139.5 -56t56.5 -137t-56.5 -137t-139.5 -56t-139.5 56t-56.5 137zM393 248q0 81 56.5 137t139.5 56t139.5 -56t56.5 -137t-56.5 -137t-139.5 -56t-139.5 56t-56.5 137z" />
    <glyph glyph-name="oslash" unicode="&#xf8;" horiz-adv-x="1282" 
d="M56 518q0 150 76.5 274.5t211 196t297.5 71.5q137 0 257 -53l69 89h243l-151 -194q79 -74 123 -173t44 -211q0 -229 -168 -385.5t-417 -156.5q-138 0 -258 53l-70 -89h-243l151 194q-165 157 -165 384zM901 518q0 74 -37 131l-295 -379q36 -11 72 -11q110 0 185 75
t75 184zM381 518q0 -72 35 -131l294 378q-33 11 -69 11q-110 0 -185 -74.5t-75 -183.5z" />
    <glyph glyph-name="ugrave" unicode="&#xf9;" horiz-adv-x="1238" 
d="M750 389v647h369v-1036h-369v101q-41 -58 -108.5 -91.5t-144.5 -33.5q-172 0 -285 113.5t-113 287.5v659h369v-600q0 -58 38.5 -98.5t102.5 -40.5q43 0 82 26.5t59 65.5zM577 1526l238 -342h-342l-267 342h371z" />
    <glyph glyph-name="uacute" unicode="&#xfa;" horiz-adv-x="1238" 
d="M750 389v647h369v-1036h-369v101q-41 -58 -108.5 -91.5t-144.5 -33.5q-172 0 -285 113.5t-113 287.5v659h369v-600q0 -58 38.5 -98.5t102.5 -40.5q43 0 82 26.5t59 65.5zM401 1184l238 342h371l-267 -342h-342z" />
    <glyph glyph-name="ucircumflex" unicode="&#xfb;" horiz-adv-x="1238" 
d="M750 389v647h369v-1036h-369v101q-41 -58 -108.5 -91.5t-144.5 -33.5q-172 0 -285 113.5t-113 287.5v659h369v-600q0 -58 38.5 -98.5t102.5 -40.5q43 0 82 26.5t59 65.5zM469 1526h276l292 -342h-335l-95 125l-95 -125h-335z" />
    <glyph glyph-name="udieresis" unicode="&#xfc;" horiz-adv-x="1238" 
d="M750 389v647h369v-1036h-369v101q-41 -58 -108.5 -91.5t-144.5 -33.5q-172 0 -285 113.5t-113 287.5v659h369v-600q0 -58 38.5 -98.5t102.5 -40.5q43 0 82 26.5t59 65.5zM220 1340q0 74 51 124t126 50t126 -50t51 -124t-51 -124t-126 -50t-126 50t-51 124zM640 1340
q0 74 51 124t126 50t126 -50t51 -124t-51 -124t-126 -50t-126 50t-51 124z" />
    <glyph glyph-name="yacute" unicode="&#xfd;" horiz-adv-x="1110" 
d="M572 -464h-388l193 464l-360 1036h386l151 -567l153 567h386zM345 1184l238 342h371l-267 -342h-342z" />
    <glyph glyph-name="thorn" unicode="&#xfe;" horiz-adv-x="1322" 
d="M681 297q96 0 159 63t63 158t-63 158t-159 63q-68 0 -122 -34t-80 -90v-194q26 -56 80 -90t122 -34zM479 88v-552h-360v1924h360v-512q56 52 134 82t162 30q137 0 249.5 -72t177 -196.5t64.5 -273.5t-64.5 -273.5t-177 -196.5t-249.5 -72q-84 0 -162 30t-134 82z" />
    <glyph glyph-name="ydieresis" unicode="&#xff;" horiz-adv-x="1110" 
d="M572 -464h-388l193 464l-360 1036h386l151 -567l153 567h386zM167 1340q0 74 51 124t126 50t126 -50t51 -124t-51 -124t-126 -50t-126 50t-51 124zM587 1340q0 74 51 124t126 50t126 -50t51 -124t-51 -124t-126 -50t-126 50t-51 124z" />
    <glyph glyph-name="Amacron" unicode="&#x100;" horiz-adv-x="1396" 
d="M491 1400h414l471 -1400h-391l-78 269h-418l-78 -269h-391zM568 557h260l-130 450zM368 1529v266h660v-266h-660z" />
    <glyph glyph-name="amacron" unicode="&#x101;" horiz-adv-x="1322" 
d="M641 297q68 0 122 34t80 90v194q-26 56 -80 90t-122 34q-96 0 -159 -63t-63 -158t63 -158t159 -63zM843 0v88q-56 -52 -134 -82t-162 -30q-137 0 -249.5 72t-177 196.5t-64.5 273.5t64.5 273.5t177 196.5t249.5 72q84 0 162 -30t134 -82v88h360v-1036h-360zM318 1205v266
h660v-266h-660z" />
    <glyph glyph-name="Abreve" unicode="&#x102;" horiz-adv-x="1396" 
d="M491 1400h414l471 -1400h-391l-78 269h-418l-78 -269h-391zM568 557h260l-130 450zM698 1488q-153 0 -266 89t-117 225h286q2 -41 29.5 -67.5t67.5 -26.5t67.5 26.5t29.5 67.5h286q-4 -136 -117 -225t-266 -89z" />
    <glyph glyph-name="abreve" unicode="&#x103;" horiz-adv-x="1322" 
d="M641 297q68 0 122 34t80 90v194q-26 56 -80 90t-122 34q-96 0 -159 -63t-63 -158t63 -158t159 -63zM843 0v88q-56 -52 -134 -82t-162 -30q-137 0 -249.5 72t-177 196.5t-64.5 273.5t64.5 273.5t177 196.5t249.5 72q84 0 162 -30t134 -82v88h360v-1036h-360zM648 1164
q-153 0 -266 89t-117 225h286q2 -41 29.5 -67.5t67.5 -26.5t67.5 26.5t29.5 67.5h286q-4 -136 -117 -225t-266 -89z" />
    <glyph glyph-name="Aogonek" unicode="&#x104;" horiz-adv-x="1396" 
d="M1145 0h-160l-78 269h-418l-78 -269h-391l471 1400h414l471 -1400q-158 -127 -158 -215q0 -31 21 -49.5t53 -18.5q45 0 85 24l62 -149q-78 -50 -187 -50q-121 0 -202 59t-81 149q0 67 49 132.5t127 117.5zM568 557h260l-130 450z" />
    <glyph glyph-name="aogonek" unicode="&#x105;" horiz-adv-x="1322" 
d="M843 0v88q-56 -52 -134 -82t-162 -30q-137 0 -249.5 72t-177 196.5t-64.5 273.5t64.5 273.5t177 196.5t249.5 72q84 0 162 -30t134 -82v88h360v-1036q-158 -127 -158 -215q0 -31 21 -49.5t53 -18.5q45 0 85 24l62 -149q-78 -50 -187 -50q-121 0 -202 59t-81 149
q0 67 49 132.5t127 117.5h-129zM641 297q68 0 122 34t80 90v194q-26 56 -80 90t-122 34q-96 0 -159 -63t-63 -158t63 -158t159 -63z" />
    <glyph glyph-name="Cacute" unicode="&#x106;" horiz-adv-x="1407" 
d="M832 -24q-212 0 -387 95.5t-274.5 261.5t-99.5 367t99.5 367t274.5 261.5t387 95.5q287 0 500 -173l-193 -277q-141 122 -307 122q-162 0 -271 -113.5t-109 -282.5t109 -282.5t271 -113.5q87 0 170.5 37t147.5 97l201 -275q-217 -187 -519 -187zM543 1508l238 342h371
l-267 -342h-342z" />
    <glyph glyph-name="cacute" unicode="&#x107;" horiz-adv-x="1126" 
d="M641 -24q-163 0 -297.5 71.5t-211 196t-76.5 274.5t76.5 274.5t211 196t297.5 71.5q242 0 412 -152l-171 -260q-114 91 -235 91q-96 0 -159 -63t-63 -158t63 -158t159 -63q119 0 245 103l191 -243q-81 -86 -195 -133.5t-247 -47.5zM361 1184l238 342h371l-267 -342h-342z
" />
    <glyph glyph-name="Ccircumflex" unicode="&#x108;" horiz-adv-x="1407" 
d="M832 -24q-212 0 -387 95.5t-274.5 261.5t-99.5 367t99.5 367t274.5 261.5t387 95.5q287 0 500 -173l-193 -277q-141 122 -307 122q-162 0 -271 -113.5t-109 -282.5t109 -282.5t271 -113.5q87 0 170.5 37t147.5 97l201 -275q-217 -187 -519 -187zM652 1850h276l292 -342
h-335l-95 125l-95 -125h-335z" />
    <glyph glyph-name="ccircumflex" unicode="&#x109;" horiz-adv-x="1126" 
d="M641 -24q-163 0 -297.5 71.5t-211 196t-76.5 274.5t76.5 274.5t211 196t297.5 71.5q242 0 412 -152l-171 -260q-114 91 -235 91q-96 0 -159 -63t-63 -158t63 -158t159 -63q119 0 245 103l191 -243q-81 -86 -195 -133.5t-247 -47.5zM462 1526h276l292 -342h-335l-95 125
l-95 -125h-335z" />
    <glyph glyph-name="Cdotaccent" unicode="&#x10a;" horiz-adv-x="1407" 
d="M832 -24q-212 0 -387 95.5t-274.5 261.5t-99.5 367t99.5 367t274.5 261.5t387 95.5q287 0 500 -173l-193 -277q-141 122 -307 122q-162 0 -271 -113.5t-109 -282.5t109 -282.5t271 -113.5q87 0 170.5 37t147.5 97l201 -275q-217 -187 -519 -187zM601 1663q0 76 53.5 129
t131.5 53t131.5 -53t53.5 -129t-53.5 -129t-131.5 -53t-131.5 53t-53.5 129z" />
    <glyph glyph-name="cdotaccent" unicode="&#x10b;" horiz-adv-x="1126" 
d="M641 -24q-163 0 -297.5 71.5t-211 196t-76.5 274.5t76.5 274.5t211 196t297.5 71.5q242 0 412 -152l-171 -260q-114 91 -235 91q-96 0 -159 -63t-63 -158t63 -158t159 -63q119 0 245 103l191 -243q-81 -86 -195 -133.5t-247 -47.5zM428 1339q0 76 53.5 129t131.5 53
t131.5 -53t53.5 -129t-53.5 -129t-131.5 -53t-131.5 53t-53.5 129z" />
    <glyph glyph-name="Ccaron" unicode="&#x10c;" horiz-adv-x="1407" 
d="M832 -24q-212 0 -387 95.5t-274.5 261.5t-99.5 367t99.5 367t274.5 261.5t387 95.5q287 0 500 -173l-193 -277q-141 122 -307 122q-162 0 -271 -113.5t-109 -282.5t109 -282.5t271 -113.5q87 0 170.5 37t147.5 97l201 -275q-217 -187 -519 -187zM928 1508h-276l-292 342
h335l95 -125l95 125h335z" />
    <glyph glyph-name="ccaron" unicode="&#x10d;" horiz-adv-x="1126" 
d="M641 -24q-163 0 -297.5 71.5t-211 196t-76.5 274.5t76.5 274.5t211 196t297.5 71.5q242 0 412 -152l-171 -260q-114 91 -235 91q-96 0 -159 -63t-63 -158t63 -158t159 -63q119 0 245 103l191 -243q-81 -86 -195 -133.5t-247 -47.5zM739 1164h-276l-292 342h335l95 -125
l95 125h335z" />
    <glyph glyph-name="Dcaron" unicode="&#x10e;" horiz-adv-x="1450" 
d="M140 1400h537q206 0 366 -88t248 -247t88 -365t-88 -365t-248 -247t-366 -88h-537v1400zM520 328h127q162 0 256.5 98t94.5 274t-94.5 274t-256.5 98h-127v-744zM798 1508h-276l-292 342h335l95 -125l95 125h335z" />
    <glyph glyph-name="dcaron" unicode="&#x10f;" horiz-adv-x="1715" 
d="M641 297q68 0 122 34t80 90v194q-26 56 -80 90t-122 34q-96 0 -159 -63t-63 -158t63 -158t159 -63zM843 0v88q-56 -52 -134 -82t-162 -30q-137 0 -249.5 72t-177 196.5t-64.5 273.5t64.5 273.5t177 196.5t249.5 72q84 0 162 -30t134 -82v512h360v-1460h-360zM1297 1290
q0 82 56.5 138t139.5 56t139.5 -56t56.5 -138q0 -46 -23 -94l-154 -315h-210l115 235q-55 24 -87.5 69.5t-32.5 104.5z" />
    <glyph glyph-name="Dcroat" unicode="&#x110;" horiz-adv-x="1492" 
d="M182 1400h537q206 0 366 -88t248 -247t88 -365t-88 -365t-248 -247t-366 -88h-537v591h-165v217h165v592zM562 328h127q162 0 256.5 98t94.5 274t-94.5 274t-256.5 98h-127v-264h200v-217h-200v-263z" />
    <glyph glyph-name="dcroat" unicode="&#x111;" horiz-adv-x="1354" 
d="M592 1137v197h251v126h360v-126h131v-197h-131v-1137h-360v88q-56 -52 -134 -82t-162 -30q-137 0 -249.5 72t-177 196.5t-64.5 273.5t64.5 273.5t177 196.5t249.5 72q84 0 162 -30t134 -82v189h-251zM641 297q68 0 122 34t80 90v194q-26 56 -80 90t-122 34
q-96 0 -159 -63t-63 -158t63 -158t159 -63z" />
    <glyph glyph-name="Emacron" unicode="&#x112;" horiz-adv-x="1158" 
d="M140 0v1400h912v-318h-532v-222h484v-312h-484v-230h550v-318h-930zM256 1529v266h660v-266h-660z" />
    <glyph glyph-name="emacron" unicode="&#x113;" horiz-adv-x="1238" 
d="M424 421q16 -87 76 -133.5t154 -46.5q140 0 266 116l183 -193q-173 -188 -458 -188q-256 0 -422.5 155.5t-166.5 386.5q0 150 75 274.5t207 196t291 71.5q156 0 283 -70t198.5 -191t71.5 -266q0 -58 -17 -112h-741zM623 795q-77 0 -127.5 -42t-68.5 -121h385
q-31 163 -189 163zM289 1205v266h660v-266h-660z" />
    <glyph glyph-name="Ebreve" unicode="&#x114;" horiz-adv-x="1158" 
d="M140 0v1400h912v-318h-532v-222h484v-312h-484v-230h550v-318h-930zM593 1488q-153 0 -266 89t-117 225h286q2 -41 29.5 -67.5t67.5 -26.5t67.5 26.5t29.5 67.5h286q-4 -136 -117 -225t-266 -89z" />
    <glyph glyph-name="ebreve" unicode="&#x115;" horiz-adv-x="1238" 
d="M424 421q16 -87 76 -133.5t154 -46.5q140 0 266 116l183 -193q-173 -188 -458 -188q-256 0 -422.5 155.5t-166.5 386.5q0 150 75 274.5t207 196t291 71.5q156 0 283 -70t198.5 -191t71.5 -266q0 -58 -17 -112h-741zM623 795q-77 0 -127.5 -42t-68.5 -121h385
q-31 163 -189 163zM619 1164q-153 0 -266 89t-117 225h286q2 -41 29.5 -67.5t67.5 -26.5t67.5 26.5t29.5 67.5h286q-4 -136 -117 -225t-266 -89z" />
    <glyph glyph-name="Edotaccent" unicode="&#x116;" horiz-adv-x="1158" 
d="M140 0v1400h912v-318h-532v-222h484v-312h-484v-230h550v-318h-930zM414 1663q0 76 53.5 129t131.5 53t131.5 -53t53.5 -129t-53.5 -129t-131.5 -53t-131.5 53t-53.5 129z" />
    <glyph glyph-name="edotaccent" unicode="&#x117;" horiz-adv-x="1238" 
d="M424 421q16 -87 76 -133.5t154 -46.5q140 0 266 116l183 -193q-173 -188 -458 -188q-256 0 -422.5 155.5t-166.5 386.5q0 150 75 274.5t207 196t291 71.5q156 0 283 -70t198.5 -191t71.5 -266q0 -58 -17 -112h-741zM623 795q-77 0 -127.5 -42t-68.5 -121h385
q-31 163 -189 163zM434 1339q0 76 53.5 129t131.5 53t131.5 -53t53.5 -129t-53.5 -129t-131.5 -53t-131.5 53t-53.5 129z" />
    <glyph glyph-name="Eogonek" unicode="&#x118;" horiz-adv-x="1158" 
d="M140 0v1400h912v-318h-532v-222h484v-312h-484v-230h550v-318h-170q-158 -127 -158 -215q0 -31 21 -49.5t53 -18.5q45 0 85 24l62 -149q-78 -50 -187 -50q-121 0 -202 59t-81 149q0 67 49 132.5t127 117.5h-529z" />
    <glyph glyph-name="eogonek" unicode="&#x119;" horiz-adv-x="1238" 
d="M424 421q16 -87 76 -133.5t154 -46.5q140 0 266 116l183 -193q-132 -144 -337 -178q-140 -117 -140 -201q0 -31 21 -49.5t53 -18.5q45 0 85 24l62 -149q-78 -50 -187 -50q-121 0 -202 59t-81 149q0 122 154 235q-213 34 -344 181.5t-131 351.5q0 150 75 274.5t207 196
t291 71.5q156 0 283 -70t198.5 -191t71.5 -266q0 -58 -17 -112h-741zM623 795q-77 0 -127.5 -42t-68.5 -121h385q-31 163 -189 163z" />
    <glyph glyph-name="Ecaron" unicode="&#x11a;" horiz-adv-x="1158" 
d="M140 0v1400h912v-318h-532v-222h484v-312h-484v-230h550v-318h-930zM729 1508h-276l-292 342h335l95 -125l95 125h335z" />
    <glyph glyph-name="ecaron" unicode="&#x11b;" horiz-adv-x="1238" 
d="M424 421q16 -87 76 -133.5t154 -46.5q140 0 266 116l183 -193q-173 -188 -458 -188q-256 0 -422.5 155.5t-166.5 386.5q0 150 75 274.5t207 196t291 71.5q156 0 283 -70t198.5 -191t71.5 -266q0 -58 -17 -112h-741zM623 795q-77 0 -127.5 -42t-68.5 -121h385
q-31 163 -189 163zM757 1164h-276l-292 342h335l95 -125l95 125h335z" />
    <glyph glyph-name="Gcircumflex" unicode="&#x11c;" horiz-adv-x="1474" 
d="M832 1096q-164 0 -272 -114.5t-108 -289.5q0 -170 109.5 -286.5t270.5 -116.5q83 0 144 35v202h-241v279h621v-637q-104 -92 -239 -142t-285 -50q-212 0 -387 95.5t-274.5 261.5t-99.5 367t99.5 367t274.5 261.5t387 95.5q287 0 500 -173l-193 -277q-141 122 -307 122z
M652 1850h276l292 -342h-335l-95 125l-95 -125h-335z" />
    <glyph glyph-name="gcircumflex" unicode="&#x11d;" horiz-adv-x="1322" 
d="M641 297q68 0 122 34t80 90v194q-26 56 -80 90t-122 34q-96 0 -159 -63t-63 -158t63 -158t159 -63zM843 49v60q-56 -52 -134 -82t-162 -30q-209 0 -350 149.5t-141 371.5q0 149 64.5 273.5t177 196.5t249.5 72q84 0 162 -30t134 -82v88h360v-965q0 -233 -156.5 -384
t-404.5 -151q-149 0 -285.5 46t-229.5 130l174 250q129 -113 308 -113q106 0 170 54.5t64 145.5zM530 1526h276l292 -342h-335l-95 125l-95 -125h-335z" />
    <glyph glyph-name="Gbreve" unicode="&#x11e;" horiz-adv-x="1474" 
d="M832 1096q-164 0 -272 -114.5t-108 -289.5q0 -170 109.5 -286.5t270.5 -116.5q83 0 144 35v202h-241v279h621v-637q-104 -92 -239 -142t-285 -50q-212 0 -387 95.5t-274.5 261.5t-99.5 367t99.5 367t274.5 261.5t387 95.5q287 0 500 -173l-193 -277q-141 122 -307 122z
M790 1488q-153 0 -266 89t-117 225h286q2 -41 29.5 -67.5t67.5 -26.5t67.5 26.5t29.5 67.5h286q-4 -136 -117 -225t-266 -89z" />
    <glyph glyph-name="gbreve" unicode="&#x11f;" horiz-adv-x="1322" 
d="M641 297q68 0 122 34t80 90v194q-26 56 -80 90t-122 34q-96 0 -159 -63t-63 -158t63 -158t159 -63zM843 49v60q-56 -52 -134 -82t-162 -30q-209 0 -350 149.5t-141 371.5q0 149 64.5 273.5t177 196.5t249.5 72q84 0 162 -30t134 -82v88h360v-965q0 -233 -156.5 -384
t-404.5 -151q-149 0 -285.5 46t-229.5 130l174 250q129 -113 308 -113q106 0 170 54.5t64 145.5zM648 1164q-153 0 -266 89t-117 225h286q2 -41 29.5 -67.5t67.5 -26.5t67.5 26.5t29.5 67.5h286q-4 -136 -117 -225t-266 -89z" />
    <glyph glyph-name="Gdotaccent" unicode="&#x120;" horiz-adv-x="1474" 
d="M832 1096q-164 0 -272 -114.5t-108 -289.5q0 -170 109.5 -286.5t270.5 -116.5q83 0 144 35v202h-241v279h621v-637q-104 -92 -239 -142t-285 -50q-212 0 -387 95.5t-274.5 261.5t-99.5 367t99.5 367t274.5 261.5t387 95.5q287 0 500 -173l-193 -277q-141 122 -307 122z
M601 1663q0 76 53.5 129t131.5 53t131.5 -53t53.5 -129t-53.5 -129t-131.5 -53t-131.5 53t-53.5 129z" />
    <glyph glyph-name="gdotaccent" unicode="&#x121;" horiz-adv-x="1322" 
d="M641 297q68 0 122 34t80 90v194q-26 56 -80 90t-122 34q-96 0 -159 -63t-63 -158t63 -158t159 -63zM843 49v60q-56 -52 -134 -82t-162 -30q-209 0 -350 149.5t-141 371.5q0 149 64.5 273.5t177 196.5t249.5 72q84 0 162 -30t134 -82v88h360v-965q0 -233 -156.5 -384
t-404.5 -151q-149 0 -285.5 46t-229.5 130l174 250q129 -113 308 -113q106 0 170 54.5t64 145.5zM462 1339q0 76 53.5 129t131.5 53t131.5 -53t53.5 -129t-53.5 -129t-131.5 -53t-131.5 53t-53.5 129z" />
    <glyph glyph-name="Gcommaaccent" unicode="&#x122;" horiz-adv-x="1474" 
d="M832 1096q-164 0 -272 -114.5t-108 -289.5q0 -170 109.5 -286.5t270.5 -116.5q83 0 144 35v202h-241v279h621v-637q-104 -92 -239 -142t-285 -50q-212 0 -387 95.5t-274.5 261.5t-99.5 367t99.5 367t274.5 261.5t387 95.5q287 0 500 -173l-193 -277q-141 122 -307 122z
M817 -470h-335l157 342h386z" />
    <glyph glyph-name="gcommaaccent" unicode="&#x123;" horiz-adv-x="1322" 
d="M641 297q68 0 122 34t80 90v194q-26 56 -80 90t-122 34q-96 0 -159 -63t-63 -158t63 -158t159 -63zM843 49v60q-56 -52 -134 -82t-162 -30q-209 0 -350 149.5t-141 371.5q0 149 64.5 273.5t177 196.5t249.5 72q84 0 162 -30t134 -82v88h360v-965q0 -233 -156.5 -384
t-404.5 -151q-149 0 -285.5 46t-229.5 130l174 250q129 -113 308 -113q106 0 170 54.5t64 145.5zM631 1514h335l-157 -342h-386z" />
    <glyph glyph-name="Hcircumflex" unicode="&#x124;" horiz-adv-x="1428" 
d="M140 0v1400h380v-533h388v533h380v-1400h-380v540h-388v-540h-380zM576 1850h276l292 -342h-335l-95 125l-95 -125h-335z" />
    <glyph glyph-name="hcircumflex" unicode="&#x125;" horiz-adv-x="1238" 
d="M488 647v-647h-369v1460h369v-525q41 58 108.5 91.5t144.5 33.5q172 0 285 -113.5t113 -287.5v-659h-369v600q0 58 -38.5 98.5t-102.5 40.5q-43 0 -82 -26.5t-59 -65.5zM164 1910h276l292 -342h-335l-95 125l-95 -125h-335z" />
    <glyph glyph-name="Hbar" unicode="&#x126;" horiz-adv-x="1444" 
d="M148 0v1017h-120v209h120v174h380v-174h388v174h380v-174h120v-209h-120v-1017h-380v548h-388v-548h-380zM528 860h388v157h-388v-157z" />
    <glyph glyph-name="hbar" unicode="&#x127;" horiz-adv-x="1265" 
d="M20 1137v197h126v126h369v-126h247v-197h-247v-202q41 58 108.5 91.5t144.5 33.5q172 0 285 -113.5t113 -287.5v-659h-369v600q0 58 -38.5 98.5t-102.5 40.5q-43 0 -82 -26.5t-59 -65.5v-647h-369v1137h-126z" />
    <glyph glyph-name="Itilde" unicode="&#x128;" horiz-adv-x="666" 
d="M143 1400h380v-1400h-380v1400zM343 1549q-61 34 -85 34q-36 0 -50 -69l-275 52q21 121 80.5 183t153.5 62q80 0 156 -41q61 -34 85 -34q36 0 50 69l275 -52q-21 -121 -80.5 -183t-153.5 -62q-80 0 -156 41z" />
    <glyph glyph-name="itilde" unicode="&#x129;" horiz-adv-x="600" 
d="M115 0v1036h370v-1036h-370zM310 1218q-61 34 -85 34q-36 0 -50 -69l-275 52q21 121 80.5 183t153.5 62q80 0 156 -41q61 -34 85 -34q36 0 50 69l275 -52q-21 -121 -80.5 -183t-153.5 -62q-80 0 -156 41z" />
    <glyph glyph-name="Imacron" unicode="&#x12a;" horiz-adv-x="666" 
d="M143 1400h380v-1400h-380v1400zM3 1529v266h660v-266h-660z" />
    <glyph glyph-name="imacron" unicode="&#x12b;" horiz-adv-x="600" 
d="M115 0v1036h370v-1036h-370zM-30 1205v266h660v-266h-660z" />
    <glyph glyph-name="Ibreve" unicode="&#x12c;" horiz-adv-x="666" 
d="M143 1400h380v-1400h-380v1400zM333 1488q-153 0 -266 89t-117 225h286q2 -41 29.5 -67.5t67.5 -26.5t67.5 26.5t29.5 67.5h286q-4 -136 -117 -225t-266 -89z" />
    <glyph glyph-name="ibreve" unicode="&#x12d;" horiz-adv-x="600" 
d="M115 0v1036h370v-1036h-370zM300 1164q-153 0 -266 89t-117 225h286q2 -41 29.5 -67.5t67.5 -26.5t67.5 26.5t29.5 67.5h286q-4 -136 -117 -225t-266 -89z" />
    <glyph glyph-name="Iogonek" unicode="&#x12e;" horiz-adv-x="666" 
d="M292 0h-149v1400h380v-1400q-158 -127 -158 -215q0 -31 21 -49.5t53 -18.5q45 0 85 24l62 -149q-78 -50 -187 -50q-121 0 -202 59t-81 149q0 67 49 132.5t127 117.5z" />
    <glyph glyph-name="iogonek" unicode="&#x12f;" horiz-adv-x="600" 
d="M115 0v1036h370v-1036q-158 -127 -158 -215q0 -31 21 -49.5t53 -18.5q45 0 85 24l62 -149q-78 -50 -187 -50q-121 0 -202 59t-81 149q0 67 49 132.5t127 117.5h-139zM95 1301q0 82 59 137t146 55t146 -55t59 -137q0 -81 -59 -136t-146 -55t-146 55t-59 136z" />
    <glyph glyph-name="Idotaccent" unicode="&#x130;" horiz-adv-x="666" 
d="M143 1400h380v-1400h-380v1400zM148 1663q0 76 53.5 129t131.5 53t131.5 -53t53.5 -129t-53.5 -129t-131.5 -53t-131.5 53t-53.5 129z" />
    <glyph glyph-name="dotlessi" unicode="&#x131;" horiz-adv-x="600" 
d="M115 0v1036h370v-1036h-370z" />
    <glyph glyph-name="IJ" unicode="&#x132;" horiz-adv-x="1569" 
d="M143 1400h380v-1400h-380v1400zM1062 476v924h380v-954q0 -220 -124.5 -345t-344.5 -125q-193 0 -327 75l93 306q84 -53 170 -53q70 0 111.5 45.5t41.5 126.5z" />
    <glyph glyph-name="ij" unicode="&#x133;" horiz-adv-x="1200" 
d="M115 0v1036h370v-1036h-370zM95 1301q0 82 59 137t146 55t146 -55t59 -137q0 -81 -59 -136t-146 -55t-146 55t-59 136zM715 -54v1090h370v-1140q0 -165 -105.5 -262.5t-281.5 -97.5q-72 0 -132 14v303h56q93 0 93 93zM695 1301q0 82 59 137t146 55t146 -55t59 -137
q0 -81 -59 -136t-146 -55t-146 55t-59 136z" />
    <glyph glyph-name="Jcircumflex" unicode="&#x134;" horiz-adv-x="943" 
d="M436 476v924h380v-954q0 -220 -124.5 -345t-344.5 -125q-193 0 -327 75l93 306q84 -53 170 -53q70 0 111.5 45.5t41.5 126.5zM490 1850h276l292 -342h-335l-95 125l-95 -125h-335z" />
    <glyph glyph-name="jcircumflex" unicode="&#x135;" horiz-adv-x="600" 
d="M115 -54v1090h370v-1140q0 -165 -105.5 -262.5t-281.5 -97.5q-72 0 -132 14v303h56q93 0 93 93zM162 1526h276l292 -342h-335l-95 125l-95 -125h-335z" />
    <glyph glyph-name="Kcommaaccent" unicode="&#x136;" horiz-adv-x="1286" 
d="M520 1400v-525h69l262 525h403l-354 -685l426 -715h-405l-320 548h-81v-548h-380v1400h380zM685 -470h-335l157 342h386z" />
    <glyph glyph-name="kcommaaccent" unicode="&#x137;" horiz-adv-x="1139" 
d="M732 0l-183 403h-61v-403h-369v1460h369v-741h67l151 317h394l-252 -478l279 -558h-395zM573 -470h-335l157 342h386z" />
    <glyph glyph-name="kgreenlandic" unicode="&#x138;" horiz-adv-x="1139" 
d="M732 0l-183 403h-61v-403h-369v1036h369v-317h67l151 317h394l-252 -478l279 -558h-395z" />
    <glyph glyph-name="Lacute" unicode="&#x139;" horiz-adv-x="1055" 
d="M140 0v1400h380v-1073h510v-327h-890zM141 1508l238 342h371l-267 -342h-342z" />
    <glyph glyph-name="lacute" unicode="&#x13a;" horiz-adv-x="600" 
d="M115 0v1460h370v-1460h-370zM65 1568l238 342h371l-267 -342h-342z" />
    <glyph glyph-name="Lcommaaccent" unicode="&#x13b;" horiz-adv-x="1055" 
d="M140 0v1400h380v-1073h510v-327h-890zM595 -470h-335l157 342h386z" />
    <glyph glyph-name="lcommaaccent" unicode="&#x13c;" horiz-adv-x="600" 
d="M115 0v1460h370v-1460h-370zM310 -470h-335l157 342h386z" />
    <glyph glyph-name="Lcaron" unicode="&#x13d;" horiz-adv-x="1070" 
d="M140 0v1400h380v-1073h510v-327h-890zM639 1230q0 82 56.5 138t139.5 56t139.5 -56t56.5 -138q0 -46 -23 -94l-154 -315h-210l115 235q-55 24 -87.5 69.5t-32.5 104.5z" />
    <glyph glyph-name="lcaron" unicode="&#x13e;" horiz-adv-x="996" 
d="M115 0v1460h370v-1460h-370zM578 1290q0 82 56.5 138t139.5 56t139.5 -56t56.5 -138q0 -46 -23 -94l-154 -315h-210l115 235q-55 24 -87.5 69.5t-32.5 104.5z" />
    <glyph glyph-name="Ldot" unicode="&#x13f;" horiz-adv-x="1058" 
d="M140 0v1400h380v-1073h510v-327h-890zM634 781q0 76 53.5 129t131.5 53t131.5 -53t53.5 -129t-53.5 -129t-131.5 -53t-131.5 53t-53.5 129z" />
    <glyph glyph-name="ldot" unicode="&#x140;" horiz-adv-x="960" 
d="M115 0v1460h370v-1460h-370zM566 751q0 76 53.5 129t131.5 53t131.5 -53t53.5 -129t-53.5 -129t-131.5 -53t-131.5 53t-53.5 129z" />
    <glyph glyph-name="Lslash" unicode="&#x141;" horiz-adv-x="1078" 
d="M163 0v480l-136 -69v241l136 69v679h380v-484l283 145v-241l-283 -145v-348h510v-327h-890z" />
    <glyph glyph-name="lslash" unicode="&#x142;" horiz-adv-x="679" 
d="M155 0v555l-135 -64v232l135 64v673h370v-495l134 64v-232l-134 -64v-733h-370z" />
    <glyph glyph-name="Nacute" unicode="&#x143;" horiz-adv-x="1428" 
d="M140 0v1400h408l392 -852v852h348v-1400h-408l-392 852v-852h-348zM503 1508l238 342h371l-267 -342h-342z" />
    <glyph glyph-name="nacute" unicode="&#x144;" horiz-adv-x="1238" 
d="M488 647v-647h-369v1036h369v-101q41 58 108.5 91.5t144.5 33.5q172 0 285 -113.5t113 -287.5v-659h-369v600q0 58 -38.5 98.5t-102.5 40.5q-43 0 -82 -26.5t-59 -65.5zM409 1184l238 342h371l-267 -342h-342z" />
    <glyph glyph-name="Ncommaaccent" unicode="&#x145;" horiz-adv-x="1428" 
d="M140 0v1400h408l392 -852v852h348v-1400h-408l-392 852v-852h-348zM739 -470h-335l157 342h386z" />
    <glyph glyph-name="ncommaaccent" unicode="&#x146;" horiz-adv-x="1238" 
d="M488 647v-647h-369v1036h369v-101q41 58 108.5 91.5t144.5 33.5q172 0 285 -113.5t113 -287.5v-659h-369v600q0 58 -38.5 98.5t-102.5 40.5q-43 0 -82 -26.5t-59 -65.5zM645 -470h-335l157 342h386z" />
    <glyph glyph-name="Ncaron" unicode="&#x147;" horiz-adv-x="1428" 
d="M140 0v1400h408l392 -852v852h348v-1400h-408l-392 852v-852h-348zM852 1508h-276l-292 342h335l95 -125l95 125h335z" />
    <glyph glyph-name="ncaron" unicode="&#x148;" horiz-adv-x="1238" 
d="M488 647v-647h-369v1036h369v-101q41 58 108.5 91.5t144.5 33.5q172 0 285 -113.5t113 -287.5v-659h-369v600q0 58 -38.5 98.5t-102.5 40.5q-43 0 -82 -26.5t-59 -65.5zM760 1164h-276l-292 342h335l95 -125l95 125h335z" />
    <glyph glyph-name="napostrophe" unicode="&#x149;" horiz-adv-x="1528" 
d="M778 647v-647h-369v1036h369v-101q41 58 108.5 91.5t144.5 33.5q172 0 285 -113.5t113 -287.5v-659h-369v600q0 58 -38.5 98.5t-102.5 40.5q-43 0 -82 -26.5t-59 -65.5zM29 1290q0 82 56.5 138t139.5 56t139.5 -56t56.5 -138q0 -46 -23 -94l-154 -315h-210l115 235
q-55 24 -87.5 69.5t-32.5 104.5z" />
    <glyph glyph-name="Eng" unicode="&#x14a;" horiz-adv-x="1428" 
d="M940 -96v111l-452 842v-857h-348v1400h359l441 -820v820h348v-1502q0 -169 -116.5 -265.5t-318.5 -96.5q-64 0 -122 14v265q41 -7 102 -7q53 0 80 25t27 71z" />
    <glyph glyph-name="eng" unicode="&#x14b;" horiz-adv-x="1238" 
d="M1139 659v-761q0 -169 -117.5 -265.5t-319.5 -96.5q-76 0 -137 14v265q41 -7 97 -7q53 0 80.5 25t27.5 71v696q0 58 -38.5 98.5t-102.5 40.5q-43 0 -82 -26.5t-59 -65.5v-647h-369v1036h369v-101q41 58 108.5 91.5t144.5 33.5q172 0 285 -113.5t113 -287.5z" />
    <glyph glyph-name="Omacron" unicode="&#x14c;" horiz-adv-x="1664" 
d="M452 700q0 -169 109 -282.5t271 -113.5t271 113.5t109 282.5t-109 282.5t-271 113.5t-271 -113.5t-109 -282.5zM71 700q0 201 99.5 367t274.5 261.5t387 95.5t387 -95.5t274.5 -261.5t99.5 -367t-99.5 -367t-274.5 -261.5t-387 -95.5t-387 95.5t-274.5 261.5t-99.5 367z
M502 1529v266h660v-266h-660z" />
    <glyph glyph-name="omacron" unicode="&#x14d;" horiz-adv-x="1282" 
d="M56 518q0 150 76.5 274.5t211 196t297.5 71.5t297.5 -71.5t211 -196t76.5 -274.5t-76.5 -274.5t-211 -196t-297.5 -71.5t-297.5 71.5t-211 196t-76.5 274.5zM419 518q0 -95 63 -158t159 -63t159 63t63 158q0 94 -63 157.5t-159 63.5t-159 -63.5t-63 -157.5zM311 1205v266
h660v-266h-660z" />
    <glyph glyph-name="Obreve" unicode="&#x14e;" horiz-adv-x="1664" 
d="M452 700q0 -169 109 -282.5t271 -113.5t271 113.5t109 282.5t-109 282.5t-271 113.5t-271 -113.5t-109 -282.5zM71 700q0 201 99.5 367t274.5 261.5t387 95.5t387 -95.5t274.5 -261.5t99.5 -367t-99.5 -367t-274.5 -261.5t-387 -95.5t-387 95.5t-274.5 261.5t-99.5 367z
M832 1488q-153 0 -266 89t-117 225h286q2 -41 29.5 -67.5t67.5 -26.5t67.5 26.5t29.5 67.5h286q-4 -136 -117 -225t-266 -89z" />
    <glyph glyph-name="obreve" unicode="&#x14f;" horiz-adv-x="1282" 
d="M56 518q0 150 76.5 274.5t211 196t297.5 71.5t297.5 -71.5t211 -196t76.5 -274.5t-76.5 -274.5t-211 -196t-297.5 -71.5t-297.5 71.5t-211 196t-76.5 274.5zM419 518q0 -95 63 -158t159 -63t159 63t63 158q0 94 -63 157.5t-159 63.5t-159 -63.5t-63 -157.5zM641 1164
q-153 0 -266 89t-117 225h286q2 -41 29.5 -67.5t67.5 -26.5t67.5 26.5t29.5 67.5h286q-4 -136 -117 -225t-266 -89z" />
    <glyph glyph-name="Ohungarumlaut" unicode="&#x150;" horiz-adv-x="1664" 
d="M452 700q0 -169 109 -282.5t271 -113.5t271 113.5t109 282.5t-109 282.5t-271 113.5t-271 -113.5t-109 -282.5zM71 700q0 201 99.5 367t274.5 261.5t387 95.5t387 -95.5t274.5 -261.5t99.5 -367t-99.5 -367t-274.5 -261.5t-387 -95.5t-387 95.5t-274.5 261.5t-99.5 367z
M441 1508l239 342h318l-260 -342h-297zM829 1508l239 342h318l-260 -342h-297z" />
    <glyph glyph-name="ohungarumlaut" unicode="&#x151;" horiz-adv-x="1282" 
d="M56 518q0 150 76.5 274.5t211 196t297.5 71.5t297.5 -71.5t211 -196t76.5 -274.5t-76.5 -274.5t-211 -196t-297.5 -71.5t-297.5 71.5t-211 196t-76.5 274.5zM419 518q0 -95 63 -158t159 -63t159 63t63 158q0 94 -63 157.5t-159 63.5t-159 -63.5t-63 -157.5zM239 1184
l239 342h318l-260 -342h-297zM627 1184l239 342h318l-260 -342h-297z" />
    <glyph glyph-name="OE" unicode="&#x152;" horiz-adv-x="1842" 
d="M1754 0h-922q-209 0 -384 92.5t-276 253.5t-101 354t101 354t276 253.5t384 92.5h904v-318h-527v-222h479v-312h-479v-230h545v-318zM837 325v750q-163 -1 -275.5 -107t-112.5 -268t112.5 -268t275.5 -107z" />
    <glyph glyph-name="oe" unicode="&#x153;" horiz-adv-x="2163" 
d="M56 518q0 150 76.5 274.5t211 196t297.5 71.5q141 0 264 -66t198 -173q72 106 192.5 172.5t258.5 66.5q156 0 283 -70t198.5 -191t71.5 -266q0 -58 -17 -112h-741q16 -87 76 -133.5t154 -46.5q140 0 266 116l183 -193q-173 -188 -458 -188q-150 0 -271 64t-197 174
q-75 -107 -198 -172.5t-263 -65.5q-163 0 -297.5 71.5t-211 196t-76.5 274.5zM419 518q0 -95 63 -158t159 -63t159.5 63t63.5 158q0 94 -63.5 157.5t-159.5 63.5t-159 -63.5t-63 -157.5zM1548 795q-78 0 -128.5 -42t-67.5 -121h385q-33 163 -189 163z" />
    <glyph glyph-name="Racute" unicode="&#x154;" horiz-adv-x="1264" 
d="M140 1400h541q218 0 358.5 -128.5t140.5 -332.5q0 -137 -66 -242t-183 -161l291 -536h-410l-242 478h-56v-478h-374v1400zM635 1106h-121v-355h121q79 0 126 49.5t47 127.5q0 80 -47.5 129t-125.5 49zM382 1508l238 342h371l-267 -342h-342z" />
    <glyph glyph-name="racute" unicode="&#x155;" horiz-adv-x="855" 
d="M667 739q-56 0 -103.5 -32t-75.5 -87v-620h-369v1036h369v-117q33 62 93 101.5t130 39.5q52 0 94 -26l-21 -319q-66 24 -117 24zM178 1184l238 342h371l-267 -342h-342z" />
    <glyph glyph-name="Rcommaaccent" unicode="&#x156;" horiz-adv-x="1264" 
d="M140 1400h541q218 0 358.5 -128.5t140.5 -332.5q0 -137 -66 -242t-183 -161l291 -536h-410l-242 478h-56v-478h-374v1400zM635 1106h-121v-355h121q79 0 126 49.5t47 127.5q0 80 -47.5 129t-125.5 49zM634 -470h-335l157 342h386z" />
    <glyph glyph-name="rcommaaccent" unicode="&#x157;" horiz-adv-x="855" 
d="M667 739q-56 0 -103.5 -32t-75.5 -87v-620h-369v1036h369v-117q33 62 93 101.5t130 39.5q52 0 94 -26l-21 -319q-66 24 -117 24zM314 -470h-335l157 342h386z" />
    <glyph glyph-name="Rcaron" unicode="&#x158;" horiz-adv-x="1264" 
d="M140 1400h541q218 0 358.5 -128.5t140.5 -332.5q0 -137 -66 -242t-183 -161l291 -536h-410l-242 478h-56v-478h-374v1400zM635 1106h-121v-355h121q79 0 126 49.5t47 127.5q0 80 -47.5 129t-125.5 49zM748 1508h-276l-292 342h335l95 -125l95 125h335z" />
    <glyph glyph-name="rcaron" unicode="&#x159;" horiz-adv-x="855" 
d="M667 739q-56 0 -103.5 -32t-75.5 -87v-620h-369v1036h369v-117q33 62 93 101.5t130 39.5q52 0 94 -26l-21 -319q-66 24 -117 24zM556 1164h-276l-292 342h335l95 -125l95 125h335z" />
    <glyph glyph-name="Sacute" unicode="&#x15a;" horiz-adv-x="1206" 
d="M77 199l193 253q74 -75 165 -119t181 -44q64 0 107 32.5t43 81.5q0 55 -51.5 95.5t-188.5 70.5q-194 42 -306.5 150.5t-112.5 269.5q0 187 137.5 311t348.5 124q135 0 260.5 -47t221.5 -131l-182 -261q-158 132 -284 132q-52 0 -86.5 -28t-34.5 -69q0 -50 46.5 -87
t166.5 -64q216 -49 331 -161t115 -281q0 -195 -146.5 -323t-387.5 -128q-162 0 -299.5 58.5t-236.5 164.5zM350 1508l238 342h371l-267 -342h-342z" />
    <glyph glyph-name="sacute" unicode="&#x15b;" horiz-adv-x="958" 
d="M48 148l156 209q48 -53 115.5 -83t139.5 -30q47 0 73.5 16.5t26.5 45.5q0 31 -31.5 52t-108.5 37q-158 35 -245.5 124.5t-87.5 219.5q0 140 111 230.5t283 90.5q104 0 205 -38.5t183 -104.5l-152 -208q-100 83 -200 83q-37 0 -58 -15.5t-21 -41.5q0 -62 125 -88
q173 -36 260.5 -123.5t87.5 -218.5q0 -143 -118 -236t-302 -93q-134 0 -250.5 45.5t-191.5 126.5zM228 1184l238 342h371l-267 -342h-342z" />
    <glyph glyph-name="Scircumflex" unicode="&#x15c;" horiz-adv-x="1206" 
d="M77 199l193 253q74 -75 165 -119t181 -44q64 0 107 32.5t43 81.5q0 55 -51.5 95.5t-188.5 70.5q-194 42 -306.5 150.5t-112.5 269.5q0 187 137.5 311t348.5 124q135 0 260.5 -47t221.5 -131l-182 -261q-158 132 -284 132q-52 0 -86.5 -28t-34.5 -69q0 -50 46.5 -87
t166.5 -64q216 -49 331 -161t115 -281q0 -195 -146.5 -323t-387.5 -128q-162 0 -299.5 58.5t-236.5 164.5zM468 1850h276l292 -342h-335l-95 125l-95 -125h-335z" />
    <glyph glyph-name="scircumflex" unicode="&#x15d;" horiz-adv-x="958" 
d="M48 148l156 209q48 -53 115.5 -83t139.5 -30q47 0 73.5 16.5t26.5 45.5q0 31 -31.5 52t-108.5 37q-158 35 -245.5 124.5t-87.5 219.5q0 140 111 230.5t283 90.5q104 0 205 -38.5t183 -104.5l-152 -208q-100 83 -200 83q-37 0 -58 -15.5t-21 -41.5q0 -62 125 -88
q173 -36 260.5 -123.5t87.5 -218.5q0 -143 -118 -236t-302 -93q-134 0 -250.5 45.5t-191.5 126.5zM331 1526h276l292 -342h-335l-95 125l-95 -125h-335z" />
    <glyph glyph-name="Scedilla" unicode="&#x15e;" horiz-adv-x="1206" 
d="M639 -300q0 25 -23.5 39.5t-61.5 14.5q-33 0 -65 -5l-61 67l87 166q-263 30 -438 217l193 253q74 -75 165 -119t181 -44q64 0 107 32.5t43 81.5q0 55 -51.5 95.5t-188.5 70.5q-194 42 -306.5 150.5t-112.5 269.5q0 187 137.5 311t348.5 124q135 0 260.5 -47t221.5 -131
l-182 -261q-158 132 -284 132q-52 0 -86.5 -28t-34.5 -69q0 -50 46.5 -87t166.5 -64q216 -49 331 -161t115 -281q0 -160 -102.5 -278.5t-279.5 -156.5l-70 -104q84 -22 134.5 -73.5t50.5 -118.5q0 -92 -90 -154t-224 -62q-142 0 -231 66l91 139q54 -39 128 -39
q38 0 61.5 14.5t23.5 39.5z" />
    <glyph glyph-name="scedilla" unicode="&#x15f;" horiz-adv-x="958" 
d="M497 -300q0 25 -23.5 39.5t-61.5 14.5q-33 0 -65 -5l-61 67l89 169q-207 33 -327 163l156 209q48 -53 115.5 -83t139.5 -30q47 0 73.5 16.5t26.5 45.5q0 31 -31.5 52t-108.5 37q-158 35 -245.5 124.5t-87.5 219.5q0 140 111 230.5t283 90.5q104 0 205 -38.5t183 -104.5
l-152 -208q-100 83 -200 83q-37 0 -58 -15.5t-21 -41.5q0 -62 125 -88q173 -36 260.5 -123.5t87.5 -218.5q0 -114 -78.5 -199t-209.5 -115l-69 -103q84 -22 134.5 -73.5t50.5 -118.5q0 -92 -90 -154t-224 -62q-142 0 -231 66l91 139q54 -39 128 -39q38 0 61.5 14.5
t23.5 39.5z" />
    <glyph glyph-name="Scaron" unicode="&#x160;" horiz-adv-x="1206" 
d="M77 199l193 253q74 -75 165 -119t181 -44q64 0 107 32.5t43 81.5q0 55 -51.5 95.5t-188.5 70.5q-194 42 -306.5 150.5t-112.5 269.5q0 187 137.5 311t348.5 124q135 0 260.5 -47t221.5 -131l-182 -261q-158 132 -284 132q-52 0 -86.5 -28t-34.5 -69q0 -50 46.5 -87
t166.5 -64q216 -49 331 -161t115 -281q0 -195 -146.5 -323t-387.5 -128q-162 0 -299.5 58.5t-236.5 164.5zM729 1508h-276l-292 342h335l95 -125l95 125h335z" />
    <glyph glyph-name="scaron" unicode="&#x161;" horiz-adv-x="958" 
d="M48 148l156 209q48 -53 115.5 -83t139.5 -30q47 0 73.5 16.5t26.5 45.5q0 31 -31.5 52t-108.5 37q-158 35 -245.5 124.5t-87.5 219.5q0 140 111 230.5t283 90.5q104 0 205 -38.5t183 -104.5l-152 -208q-100 83 -200 83q-37 0 -58 -15.5t-21 -41.5q0 -62 125 -88
q173 -36 260.5 -123.5t87.5 -218.5q0 -143 -118 -236t-302 -93q-134 0 -250.5 45.5t-191.5 126.5zM607 1164h-276l-292 342h335l95 -125l95 125h335z" />
    <glyph glyph-name="Tcommaaccent" unicode="&#x162;" horiz-adv-x="1124" 
d="M372 0v1073h-327v327h1034v-327h-327v-1073h-31l-76 -112q84 -22 134.5 -73.5t50.5 -118.5q0 -92 -90 -154t-224 -62q-142 0 -231 66l91 139q54 -39 128 -39q38 0 61.5 14.5t23.5 39.5t-23.5 39.5t-61.5 14.5q-33 0 -65 -5l-61 67l97 184h-103z" />
    <glyph glyph-name="tcommaaccent" unicode="&#x163;" horiz-adv-x="817" 
d="M450 -300q0 25 -23.5 39.5t-61.5 14.5q-33 0 -65 -5l-61 67l111 211q-81 45 -125.5 126.5t-44.5 188.5v377h-139v317h139v268l369 32v-300h209v-317h-209v-329q0 -97 107 -97q69 0 114 7v-297q-78 -25 -205 -27l-59 -88q84 -22 134.5 -73.5t50.5 -118.5q0 -92 -90 -154
t-224 -62q-142 0 -231 66l91 139q54 -39 128 -39q38 0 61.5 14.5t23.5 39.5z" />
    <glyph glyph-name="Tcaron" unicode="&#x164;" horiz-adv-x="1124" 
d="M372 0v1073h-327v327h1034v-327h-327v-1073h-380zM700 1508h-276l-292 342h335l95 -125l95 125h335z" />
    <glyph glyph-name="tcaron" unicode="&#x165;" horiz-adv-x="1217" 
d="M549 719v-329q0 -97 107 -97q69 0 114 7v-297q-79 -27 -210 -27q-172 0 -276 100t-104 266v377h-139v317h139v268l369 32v-300h209v-317h-209zM799 1290q0 82 56.5 138t139.5 56t139.5 -56t56.5 -138q0 -46 -23 -94l-154 -315h-210l115 235q-55 24 -87.5 69.5
t-32.5 104.5z" />
    <glyph glyph-name="Tbar" unicode="&#x166;" horiz-adv-x="1124" 
d="M372 0v561h-203v225h203v287h-327v327h1034v-327h-327v-287h203v-225h-203v-561h-380z" />
    <glyph glyph-name="tbar" unicode="&#x167;" horiz-adv-x="817" 
d="M69 415v197h111v137h-139v287h139v268l369 32v-300h209v-287h-209v-137h165v-197h-165v-55q0 -46 27.5 -71.5t79.5 -25.5q66 0 114 7v-267q-88 -26 -218 -26q-169 0 -270.5 94.5t-101.5 255.5v88h-111z" />
    <glyph glyph-name="Utilde" unicode="&#x168;" horiz-adv-x="1350" 
d="M1223 1400v-949q0 -133 -73 -242t-198.5 -170t-276.5 -61t-276.5 61t-198.5 170t-73 242v949h380v-932q0 -71 47.5 -116.5t120.5 -45.5t120.5 45.5t47.5 116.5v932h380zM685 1549q-61 34 -85 34q-36 0 -50 -69l-275 52q21 121 80.5 183t153.5 62q80 0 156 -41
q61 -34 85 -34q36 0 50 69l275 -52q-21 -121 -80.5 -183t-153.5 -62q-80 0 -156 41z" />
    <glyph glyph-name="utilde" unicode="&#x169;" horiz-adv-x="1238" 
d="M750 389v647h369v-1036h-369v101q-41 -58 -108.5 -91.5t-144.5 -33.5q-172 0 -285 113.5t-113 287.5v659h369v-600q0 -58 38.5 -98.5t102.5 -40.5q43 0 82 26.5t59 65.5zM618 1218q-61 34 -85 34q-36 0 -50 -69l-275 52q21 121 80.5 183t153.5 62q80 0 156 -41
q61 -34 85 -34q36 0 50 69l275 -52q-21 -121 -80.5 -183t-153.5 -62q-80 0 -156 41z" />
    <glyph glyph-name="Umacron" unicode="&#x16a;" horiz-adv-x="1350" 
d="M1223 1400v-949q0 -133 -73 -242t-198.5 -170t-276.5 -61t-276.5 61t-198.5 170t-73 242v949h380v-932q0 -71 47.5 -116.5t120.5 -45.5t120.5 45.5t47.5 116.5v932h380zM345 1529v266h660v-266h-660z" />
    <glyph glyph-name="umacron" unicode="&#x16b;" horiz-adv-x="1238" 
d="M750 389v647h369v-1036h-369v101q-41 -58 -108.5 -91.5t-144.5 -33.5q-172 0 -285 113.5t-113 287.5v659h369v-600q0 -58 38.5 -98.5t102.5 -40.5q43 0 82 26.5t59 65.5zM279 1205v266h660v-266h-660z" />
    <glyph glyph-name="Ubreve" unicode="&#x16c;" horiz-adv-x="1350" 
d="M1223 1400v-949q0 -133 -73 -242t-198.5 -170t-276.5 -61t-276.5 61t-198.5 170t-73 242v949h380v-932q0 -71 47.5 -116.5t120.5 -45.5t120.5 45.5t47.5 116.5v932h380zM675 1488q-153 0 -266 89t-117 225h286q2 -41 29.5 -67.5t67.5 -26.5t67.5 26.5t29.5 67.5h286
q-4 -136 -117 -225t-266 -89z" />
    <glyph glyph-name="ubreve" unicode="&#x16d;" horiz-adv-x="1238" 
d="M750 389v647h369v-1036h-369v101q-41 -58 -108.5 -91.5t-144.5 -33.5q-172 0 -285 113.5t-113 287.5v659h369v-600q0 -58 38.5 -98.5t102.5 -40.5q43 0 82 26.5t59 65.5zM608 1164q-153 0 -266 89t-117 225h286q2 -41 29.5 -67.5t67.5 -26.5t67.5 26.5t29.5 67.5h286
q-4 -136 -117 -225t-266 -89z" />
    <glyph glyph-name="Uring" unicode="&#x16e;" horiz-adv-x="1350" 
d="M1223 1400v-949q0 -133 -73 -242t-198.5 -170t-276.5 -61t-276.5 61t-198.5 170t-73 242v949h380v-932q0 -71 47.5 -116.5t120.5 -45.5t120.5 45.5t47.5 116.5v932h380zM616 1686q0 -25 16.5 -41t42.5 -16t42.5 16t16.5 41q0 24 -16.5 40t-42.5 16t-42.5 -16t-16.5 -40z
M429 1686q0 95 71 159.5t175 64.5t175 -64.5t71 -159.5t-71 -160t-175 -65t-175 65t-71 160z" />
    <glyph glyph-name="uring" unicode="&#x16f;" horiz-adv-x="1238" 
d="M750 389v647h369v-1036h-369v101q-41 -58 -108.5 -91.5t-144.5 -33.5q-172 0 -285 113.5t-113 287.5v659h369v-600q0 -58 38.5 -98.5t102.5 -40.5q43 0 82 26.5t59 65.5zM549 1362q0 -25 16.5 -41t42.5 -16t42.5 16t16.5 41q0 24 -16.5 40t-42.5 16t-42.5 -16t-16.5 -40z
M362 1362q0 95 71 159.5t175 64.5t175 -64.5t71 -159.5t-71 -160t-175 -65t-175 65t-71 160z" />
    <glyph glyph-name="Uhungarumlaut" unicode="&#x170;" horiz-adv-x="1350" 
d="M1223 1400v-949q0 -133 -73 -242t-198.5 -170t-276.5 -61t-276.5 61t-198.5 170t-73 242v949h380v-932q0 -71 47.5 -116.5t120.5 -45.5t120.5 45.5t47.5 116.5v932h380zM298 1527l239 342h318l-260 -342h-297zM686 1527l239 342h318l-260 -342h-297z" />
    <glyph glyph-name="uhungarumlaut" unicode="&#x171;" horiz-adv-x="1238" 
d="M750 389v647h369v-1036h-369v101q-41 -58 -108.5 -91.5t-144.5 -33.5q-172 0 -285 113.5t-113 287.5v659h369v-600q0 -58 38.5 -98.5t102.5 -40.5q43 0 82 26.5t59 65.5zM235 1193l239 342h318l-260 -342h-297zM623 1193l239 342h318l-260 -342h-297z" />
    <glyph glyph-name="Uogonek" unicode="&#x172;" horiz-adv-x="1351" 
d="M1223 1400v-949q0 -161 -104.5 -283.5t-272.5 -167.5q-158 -126 -158 -215q0 -31 21 -49.5t53 -18.5q45 0 85 24l62 -149q-78 -50 -187 -50q-121 0 -202 59t-81 149q0 121 152 234q-201 25 -332.5 155t-131.5 312v949h380v-932q0 -71 47.5 -116.5t120.5 -45.5t120.5 45.5
t47.5 116.5v932h380z" />
    <glyph glyph-name="uogonek" unicode="&#x173;" horiz-adv-x="1238" 
d="M888 0h-138v101q-41 -58 -108.5 -91.5t-144.5 -33.5q-172 0 -285 113.5t-113 287.5v659h369v-600q0 -58 38.5 -98.5t102.5 -40.5q43 0 82 26.5t59 65.5v647h369v-1036q-158 -127 -158 -215q0 -31 21 -49.5t53 -18.5q45 0 85 24l62 -149q-78 -50 -187 -50q-121 0 -202 59
t-81 149q0 67 49 132.5t127 117.5z" />
    <glyph glyph-name="Wcircumflex" unicode="&#x174;" horiz-adv-x="1996" 
d="M807 1400h382l203 -904l194 904h390l-368 -1400h-390l-220 888l-220 -888h-390l-368 1400h390l194 -904zM860 1850h276l292 -342h-335l-95 125l-95 -125h-335z" />
    <glyph glyph-name="wcircumflex" unicode="&#x175;" horiz-adv-x="1630" 
d="M637 1036h356l124 -603l125 603h371l-294 -1036h-378l-126 534l-126 -534h-378l-294 1036h371l125 -603zM677 1526h276l292 -342h-335l-95 125l-95 -125h-335z" />
    <glyph glyph-name="Ycircumflex" unicode="&#x176;" horiz-adv-x="1328" 
d="M432 1400l232 -506l232 506h412l-454 -856v-544h-380v544l-454 856h412zM526 1850h276l292 -342h-335l-95 125l-95 -125h-335z" />
    <glyph glyph-name="ycircumflex" unicode="&#x177;" horiz-adv-x="1110" 
d="M572 -464h-388l193 464l-360 1036h386l151 -567l153 567h386zM417 1526h276l292 -342h-335l-95 125l-95 -125h-335z" />
    <glyph glyph-name="Ydieresis" unicode="&#x178;" horiz-adv-x="1328" 
d="M432 1400l232 -506l232 506h412l-454 -856v-544h-380v544l-454 856h412zM277 1664q0 74 51 124t126 50t126 -50t51 -124t-51 -124t-126 -50t-126 50t-51 124zM697 1664q0 74 51 124t126 50t126 -50t51 -124t-51 -124t-126 -50t-126 50t-51 124z" />
    <glyph glyph-name="Zacute" unicode="&#x179;" horiz-adv-x="1232" 
d="M99 297l573 776h-543v327h994v-297l-574 -776h594v-327h-1044v297zM374 1508l238 342h371l-267 -342h-342z" />
    <glyph glyph-name="zacute" unicode="&#x17a;" horiz-adv-x="1037" 
d="M73 0v269l412 453h-386v314h840v-269l-412 -453h432v-314h-886zM269 1184l238 342h371l-267 -342h-342z" />
    <glyph glyph-name="Zdotaccent" unicode="&#x17b;" horiz-adv-x="1232" 
d="M99 297l573 776h-543v327h994v-297l-574 -776h594v-327h-1044v297zM441 1663q0 76 53.5 129t131.5 53t131.5 -53t53.5 -129t-53.5 -129t-131.5 -53t-131.5 53t-53.5 129z" />
    <glyph glyph-name="zdotaccent" unicode="&#x17c;" horiz-adv-x="1037" 
d="M73 0v269l412 453h-386v314h840v-269l-412 -453h432v-314h-886zM334 1339q0 76 53.5 129t131.5 53t131.5 -53t53.5 -129t-53.5 -129t-131.5 -53t-131.5 53t-53.5 129z" />
    <glyph glyph-name="Zcaron" unicode="&#x17d;" horiz-adv-x="1232" 
d="M99 297l573 776h-543v327h994v-297l-574 -776h594v-327h-1044v297zM753 1508h-276l-292 342h335l95 -125l95 125h335z" />
    <glyph glyph-name="zcaron" unicode="&#x17e;" horiz-adv-x="1037" 
d="M73 0v269l412 453h-386v314h840v-269l-412 -453h432v-314h-886zM649 1164h-276l-292 342h335l95 -125l95 125h335z" />
    <glyph glyph-name="longs" unicode="&#x17f;" horiz-adv-x="788" 
d="M752 1446v-265q-42 7 -98 7q-52 0 -79.5 -25t-27.5 -71v-1092h-369v719h-137v317h137v62q0 169 117.5 265.5t319.5 96.5q74 0 137 -14z" />
    <glyph glyph-name="uni0191" unicode="&#x191;" horiz-adv-x="1090" 
d="M520 497v-585q0 -168 -120 -272t-314 -104q-101 0 -161 14v316q41 -7 103 -7q54 0 83 27t29 76v1438h892v-324h-512v-255h464v-324h-464z" />
    <glyph glyph-name="florin" unicode="&#x192;" horiz-adv-x="793" 
d="M547 719v-821q0 -169 -117.5 -265.5t-319.5 -96.5q-74 0 -137 14v265q42 -7 98 -7q53 0 80 25t27 71v815h-137v317h137v62q0 169 117.5 265.5t319.5 96.5q74 0 137 -14v-265q-42 7 -98 7q-52 0 -79.5 -25t-27.5 -71v-56h205v-317h-205z" />
    <glyph glyph-name="Aringacute" unicode="&#x1fa;" horiz-adv-x="1396" 
d="M892 1325h33l451 -1325h-391l-78 269h-418l-78 -269h-391l451 1325h33q-42 56 -42 126q0 92 68 154.5t168 62.5t168 -62.5t68 -154.5q0 -70 -42 -126zM568 557h260l-130 450zM639 1451q0 -25 17 -42t42 -17t42 17t17 42t-17 42t-42 17t-42 -17t-17 -42zM822 1693h-291
l176 257h315z" />
    <glyph glyph-name="aringacute" unicode="&#x1fb;" horiz-adv-x="1322" 
d="M573 1322q0 -26 17 -43t42 -17t42 17t17 43t-17 43t-42 17t-42 -17t-17 -43zM401 1322q0 90 66.5 151.5t164.5 61.5t164.5 -61.5t66.5 -151.5t-66.5 -151.5t-164.5 -61.5t-164.5 61.5t-66.5 151.5zM641 297q68 0 122 34t80 90v194q-26 56 -80 90t-122 34q-96 0 -159 -63
t-63 -158t63 -158t159 -63zM843 0v88q-56 -52 -134 -82t-162 -30q-137 0 -249.5 72t-177 196.5t-64.5 273.5t64.5 273.5t177 196.5t249.5 72q84 0 162 -30t134 -82v88h360v-1036h-360zM754 1568h-291l180 262h314z" />
    <glyph glyph-name="AEacute" unicode="&#x1fc;" horiz-adv-x="1895" 
d="M401 0h-394l740 1400h1042v-318h-527v-222h479v-312h-479v-230h545v-318h-917v269h-359zM890 1012l-220 -455h220v455zM712 1508l238 342h371l-267 -342h-342z" />
    <glyph glyph-name="aeacute" unicode="&#x1fd;" horiz-adv-x="2051" 
d="M1978 421h-741q16 -87 76 -133.5t154 -46.5q140 0 266 116l183 -193q-173 -188 -458 -188q-141 0 -259.5 55t-195.5 150q-67 -95 -185 -150t-258 -55q-214 0 -359 102.5t-145 252.5q0 142 137.5 239t336.5 97q150 0 287 -74q-1 92 -71.5 147t-187.5 55q-179 0 -317 -111
l-109 229q79 70 195.5 108.5t239.5 38.5q139 0 255.5 -53.5t184.5 -148.5q79 94 191.5 148t243.5 54q156 0 283 -70t198.5 -191t71.5 -266q0 -58 -17 -112zM419 331q0 -46 51 -76.5t128 -30.5q137 0 217 88v54q-84 72 -217 72q-77 0 -128 -30.5t-51 -76.5zM1436 795
q-77 0 -127.5 -42t-68.5 -121h385q-31 163 -189 163zM781 1184l238 342h371l-267 -342h-342z" />
    <glyph glyph-name="Oslashacute" unicode="&#x1fe;" horiz-adv-x="1664" 
d="M71 700q0 201 99.5 367t274.5 261.5t387 95.5q183 0 349 -78l88 114h266l-177 -231q111 -100 173 -236.5t62 -292.5q0 -201 -99.5 -367t-274.5 -261.5t-387 -95.5q-202 0 -371 87l-94 -123h-266l188 245q-104 99 -161 231.5t-57 283.5zM1215 700q0 136 -77 243l-466 -606
q73 -35 160 -35q162 0 272.5 114.5t110.5 283.5zM449 700q0 -126 64 -224l458 595q-68 27 -139 27q-162 0 -272.5 -114.5t-110.5 -283.5zM620 1508l238 342h371l-267 -342h-342z" />
    <glyph glyph-name="oslashacute" unicode="&#x1ff;" horiz-adv-x="1282" 
d="M56 518q0 150 76.5 274.5t211 196t297.5 71.5q137 0 257 -53l69 89h243l-151 -194q79 -74 123 -173t44 -211q0 -229 -168 -385.5t-417 -156.5q-138 0 -258 53l-70 -89h-243l151 194q-165 157 -165 384zM901 518q0 74 -37 131l-295 -379q36 -11 72 -11q110 0 185 75
t75 184zM381 518q0 -72 35 -131l294 378q-33 11 -69 11q-110 0 -185 -74.5t-75 -183.5zM431 1184l238 342h371l-267 -342h-342z" />
    <glyph glyph-name="Scommaaccent" unicode="&#x218;" horiz-adv-x="1206" 
d="M77 199l193 253q74 -75 165 -119t181 -44q64 0 107 32.5t43 81.5q0 55 -51.5 95.5t-188.5 70.5q-194 42 -306.5 150.5t-112.5 269.5q0 187 137.5 311t348.5 124q135 0 260.5 -47t221.5 -131l-182 -261q-158 132 -284 132q-52 0 -86.5 -28t-34.5 -69q0 -50 46.5 -87
t166.5 -64q216 -49 331 -161t115 -281q0 -195 -146.5 -323t-387.5 -128q-162 0 -299.5 58.5t-236.5 164.5zM634 -470h-335l157 342h386z" />
    <glyph glyph-name="scommaaccent" unicode="&#x219;" horiz-adv-x="958" 
d="M48 148l156 209q48 -53 115.5 -83t139.5 -30q47 0 73.5 16.5t26.5 45.5q0 31 -31.5 52t-108.5 37q-158 35 -245.5 124.5t-87.5 219.5q0 140 111 230.5t283 90.5q104 0 205 -38.5t183 -104.5l-152 -208q-100 83 -200 83q-37 0 -58 -15.5t-21 -41.5q0 -62 125 -88
q173 -36 260.5 -123.5t87.5 -218.5q0 -143 -118 -236t-302 -93q-134 0 -250.5 45.5t-191.5 126.5zM502 -470h-335l157 342h386z" />
    <glyph glyph-name="uni021A" unicode="&#x21a;" horiz-adv-x="1124" 
d="M372 0v1073h-327v327h1034v-327h-327v-1073h-380zM571 -470h-335l157 342h386z" />
    <glyph glyph-name="uni021B" unicode="&#x21b;" horiz-adv-x="817" 
d="M549 719v-329q0 -97 107 -97q69 0 114 7v-297q-79 -27 -210 -27q-172 0 -276 100t-104 266v377h-139v317h139v268l369 32v-300h209v-317h-209zM446 -470h-335l157 342h386z" />
    <glyph glyph-name="dotlessj" unicode="&#x237;" horiz-adv-x="600" 
d="M115 -54v1090h370v-1140q0 -165 -105.5 -262.5t-281.5 -97.5q-72 0 -132 14v303h56q93 0 93 93z" />
    <glyph glyph-name="apostrophe" unicode="&#x2bc;" horiz-adv-x="870" 
d="M239 1290q0 82 56.5 138t139.5 56t139.5 -56t56.5 -138q0 -46 -23 -94l-154 -315h-210l115 235q-55 24 -87.5 69.5t-32.5 104.5z" />
    <glyph glyph-name="circumflex" unicode="&#x2c6;" horiz-adv-x="870" 
d="M297 1460h276l292 -342h-335l-95 125l-95 -125h-335z" />
    <glyph glyph-name="caron" unicode="&#x2c7;" horiz-adv-x="870" 
d="M573 1118h-276l-292 342h335l95 -125l95 125h335z" />
    <glyph glyph-name="uni02C9" unicode="&#x2c9;" horiz-adv-x="870" 
d="M105 1155v266h660v-266h-660z" />
    <glyph glyph-name="breve" unicode="&#x2d8;" horiz-adv-x="870" 
d="M435 1126q-153 0 -266 89t-117 225h286q2 -41 29.5 -67.5t67.5 -26.5t67.5 26.5t29.5 67.5h286q-4 -136 -117 -225t-266 -89z" />
    <glyph glyph-name="dotaccent" unicode="&#x2d9;" horiz-adv-x="870" 
d="M250 1291q0 76 53.5 129t131.5 53t131.5 -53t53.5 -129t-53.5 -129t-131.5 -53t-131.5 53t-53.5 129z" />
    <glyph glyph-name="ring" unicode="&#x2da;" horiz-adv-x="870" 
d="M376 1286q0 -25 16.5 -41t42.5 -16t42.5 16t16.5 41q0 24 -16.5 40t-42.5 16t-42.5 -16t-16.5 -40zM189 1286q0 95 71 159.5t175 64.5t175 -64.5t71 -159.5t-71 -160t-175 -65t-175 65t-71 160z" />
    <glyph glyph-name="ogonek" unicode="&#x2db;" horiz-adv-x="870" 
d="M387 0h231q-158 -127 -158 -215q0 -31 21 -49.5t53 -18.5q45 0 85 24l62 -149q-78 -50 -187 -50q-121 0 -202 59t-81 149q0 67 49 132.5t127 117.5z" />
    <glyph glyph-name="tilde" unicode="&#x2dc;" horiz-adv-x="870" 
d="M445 1172q-61 34 -85 34q-36 0 -50 -69l-275 52q21 121 80.5 183t153.5 62q80 0 156 -41q61 -34 85 -34q36 0 50 69l275 -52q-21 -121 -80.5 -183t-153.5 -62q-80 0 -156 41z" />
    <glyph glyph-name="hungarumlaut" unicode="&#x2dd;" horiz-adv-x="870" 
d="M-1 1118l239 342h318l-260 -342h-297zM387 1118l239 342h318l-260 -342h-297z" />
    <glyph glyph-name="gravecomb" unicode="&#x300;" horiz-adv-x="0" 
d="M-408 1460l238 -342h-342l-267 342h371z" />
    <glyph glyph-name="acutecomb" unicode="&#x301;" horiz-adv-x="0" 
d="M-700 1118l238 342h371l-267 -342h-342z" />
    <glyph glyph-name="uni0302" unicode="&#x302;" horiz-adv-x="0" 
d="M-573 1460h276l292 -342h-335l-95 125l-95 -125h-335z" />
    <glyph glyph-name="tildecomb" unicode="&#x303;" horiz-adv-x="0" 
d="M-425 1172q-61 34 -85 34q-36 0 -50 -69l-275 52q21 121 80.5 183t153.5 62q80 0 156 -41q61 -34 85 -34q36 0 50 69l275 -52q-21 -121 -80.5 -183t-153.5 -62q-80 0 -156 41z" />
    <glyph glyph-name="uni0304" unicode="&#x304;" horiz-adv-x="0" 
d="M-765 1155v266h660v-266h-660z" />
    <glyph glyph-name="uni0306" unicode="&#x306;" horiz-adv-x="0" 
d="M-435 1126q-153 0 -266 89t-117 225h286q2 -41 29.5 -67.5t67.5 -26.5t67.5 26.5t29.5 67.5h286q-4 -136 -117 -225t-266 -89z" />
    <glyph glyph-name="uni0307" unicode="&#x307;" horiz-adv-x="0" 
d="M-620 1291q0 76 53.5 129t131.5 53t131.5 -53t53.5 -129t-53.5 -129t-131.5 -53t-131.5 53t-53.5 129z" />
    <glyph glyph-name="uni0308" unicode="&#x308;" horiz-adv-x="0" 
d="M-822 1292q0 74 51 124t126 50t126 -50t51 -124t-51 -124t-126 -50t-126 50t-51 124zM-402 1292q0 74 51 124t126 50t126 -50t51 -124t-51 -124t-126 -50t-126 50t-51 124z" />
    <glyph glyph-name="uni030A" unicode="&#x30a;" horiz-adv-x="0" 
d="M-494 1286q0 -25 16.5 -41t42.5 -16t42.5 16t16.5 41q0 24 -16.5 40t-42.5 16t-42.5 -16t-16.5 -40zM-681 1286q0 95 71 159.5t175 64.5t175 -64.5t71 -159.5t-71 -160t-175 -65t-175 65t-71 160z" />
    <glyph glyph-name="uni030C" unicode="&#x30c;" horiz-adv-x="0" 
d="M-297 1118h-276l-292 342h335l95 -125l95 125h335z" />
    <glyph glyph-name="uni0327" unicode="&#x327;" horiz-adv-x="0" 
d="M-407 -300q0 25 -23.5 39.5t-61.5 14.5q-33 0 -65 -5l-61 67l97 184h246l-76 -112q84 -22 134.5 -73.5t50.5 -118.5q0 -92 -90 -154t-224 -62q-142 0 -231 66l91 139q54 -39 128 -39q38 0 61.5 14.5t23.5 39.5z" />
    <glyph glyph-name="tonos" unicode="&#x384;" horiz-adv-x="870" 
d="M520 1088h-347l146 372h394z" />
    <glyph glyph-name="dieresistonos" unicode="&#x385;" horiz-adv-x="870" 
d="M84 1143q0 63 46 106.5t113 43.5t113 -43.5t46 -106.5t-46 -106.5t-113 -43.5t-113 43.5t-46 106.5zM468 1143q0 63 46 106.5t113 43.5t113 -43.5t46 -106.5t-46 -106.5t-113 -43.5t-113 43.5t-46 106.5zM555 1314h-290l179 262h315z" />
    <glyph glyph-name="Alphatonos" unicode="&#x386;" horiz-adv-x="1562" 
d="M657 1400h414l471 -1400h-391l-78 269h-418l-78 -269h-391zM734 557h260l-130 450zM368 1028h-347l146 372h394z" />
    <glyph glyph-name="anoteleia" unicode="&#x387;" horiz-adv-x="609" 
d="M92 655q0 86 60 144t152 58t152.5 -58t60.5 -144t-60.5 -144t-152.5 -58t-152 58t-60 144z" />
    <glyph glyph-name="Epsilontonos" unicode="&#x388;" horiz-adv-x="1621" 
d="M603 0v1400h912v-318h-532v-222h484v-312h-484v-230h550v-318h-930zM368 1028h-347l146 372h394z" />
    <glyph glyph-name="Etatonos" unicode="&#x389;" horiz-adv-x="1891" 
d="M603 0v1400h380v-533h388v533h380v-1400h-380v540h-388v-540h-380zM368 1028h-347l146 372h394z" />
    <glyph glyph-name="Iotatonos" unicode="&#x38a;" horiz-adv-x="1126" 
d="M603 1400h380v-1400h-380v1400zM368 1028h-347l146 372h394z" />
    <glyph glyph-name="Omicrontonos" unicode="&#x38c;" horiz-adv-x="1978" 
d="M766 700q0 -169 109 -282.5t271 -113.5t271 113.5t109 282.5t-109 282.5t-271 113.5t-271 -113.5t-109 -282.5zM385 700q0 201 99.5 367t274.5 261.5t387 95.5t387 -95.5t274.5 -261.5t99.5 -367t-99.5 -367t-274.5 -261.5t-387 -95.5t-387 95.5t-274.5 261.5t-99.5 367z
M368 1028h-347l146 372h394z" />
    <glyph glyph-name="Upsilontonos" unicode="&#x38e;" horiz-adv-x="1893" 
d="M997 1400l232 -506l232 506h412l-454 -856v-544h-380v544l-454 856h412zM368 1028h-347l146 372h394z" />
    <glyph glyph-name="Omegatonos" unicode="&#x38f;" horiz-adv-x="1961" 
d="M368 1028h-347l146 372h394zM1501 728q0 155 -102 261.5t-252 106.5t-252 -106.5t-102 -261.5q0 -139 74.5 -250t208.5 -173v-305h-640v328h227q-125 80 -188 193t-63 250q0 180 97 330t266 236.5t372 86.5t372 -86.5t266 -236.5t97 -330q0 -137 -63 -250t-188 -193h227
v-328h-640v305q134 62 208.5 173t74.5 250z" />
    <glyph glyph-name="iotadieresistonos" unicode="&#x390;" horiz-adv-x="660" 
d="M115 333v703h369v-620q0 -96 95 -96h40v-315q-50 -5 -116 -5q-199 0 -293.5 83t-94.5 250zM-51 1277q0 63 46 106.5t113 43.5t113 -43.5t46 -106.5t-46 -106.5t-113 -43.5t-113 43.5t-46 106.5zM333 1277q0 63 46 106.5t113 43.5t113 -43.5t46 -106.5t-46 -106.5
t-113 -43.5t-113 43.5t-46 106.5zM420 1448h-290l179 262h315z" />
    <glyph glyph-name="Alpha" unicode="&#x391;" horiz-adv-x="1396" 
d="M491 1400h414l471 -1400h-391l-78 269h-418l-78 -269h-391zM568 557h260l-130 450z" />
    <glyph glyph-name="Beta" unicode="&#x392;" horiz-adv-x="1264" 
d="M756 0h-616v1400h557q196 0 315 -105.5t119 -274.5q0 -98 -49 -176t-130 -111q110 -30 177 -116.5t67 -207.5q0 -178 -124 -293.5t-316 -115.5zM783 978q0 58 -33.5 91.5t-86.5 33.5h-158v-249h158q53 0 86.5 33.5t33.5 90.5zM824 432q0 60 -36.5 98t-93.5 38h-189v-271
h189q57 0 93.5 37.5t36.5 97.5z" />
    <glyph glyph-name="Gamma" unicode="&#x393;" horiz-adv-x="1056" 
d="M140 0v1400h891v-327h-511v-1073h-380z" />
    <glyph glyph-name="uni0394" unicode="&#x394;" horiz-adv-x="1396" 
d="M905 1400l471 -1400h-1356l471 1400h414zM698 1007l-207 -698h414z" />
    <glyph glyph-name="Epsilon" unicode="&#x395;" horiz-adv-x="1158" 
d="M140 0v1400h912v-318h-532v-222h484v-312h-484v-230h550v-318h-930z" />
    <glyph glyph-name="Zeta" unicode="&#x396;" horiz-adv-x="1232" 
d="M99 297l573 776h-543v327h994v-297l-574 -776h594v-327h-1044v297z" />
    <glyph glyph-name="Eta" unicode="&#x397;" horiz-adv-x="1428" 
d="M140 0v1400h380v-533h388v533h380v-1400h-380v540h-388v-540h-380z" />
    <glyph glyph-name="Theta" unicode="&#x398;" horiz-adv-x="1664" 
d="M559 557v286h546v-286h-546zM71 700q0 201 99.5 367t274.5 261.5t387 95.5t387 -95.5t274.5 -261.5t99.5 -367t-99.5 -367t-274.5 -261.5t-387 -95.5t-387 95.5t-274.5 261.5t-99.5 367zM437 700q0 -174 114 -292.5t281 -118.5t281 118.5t114 292.5t-114 292.5
t-281 118.5t-281 -118.5t-114 -292.5z" />
    <glyph glyph-name="Iota" unicode="&#x399;" horiz-adv-x="666" 
d="M143 1400h380v-1400h-380v1400z" />
    <glyph glyph-name="Kappa" unicode="&#x39a;" horiz-adv-x="1286" 
d="M520 1400v-525h69l262 525h403l-354 -685l426 -715h-405l-320 548h-81v-548h-380v1400h380z" />
    <glyph glyph-name="Lambda" unicode="&#x39b;" horiz-adv-x="1396" 
d="M1376 0h-391l-287 994l-287 -994h-391l471 1400h414z" />
    <glyph glyph-name="Mu" unicode="&#x39c;" horiz-adv-x="1732" 
d="M1000 398h-268l-244 487v-885h-348v1400h430l296 -592l296 592h430v-1400h-348v885z" />
    <glyph glyph-name="Nu" unicode="&#x39d;" horiz-adv-x="1428" 
d="M140 0v1400h408l392 -852v852h348v-1400h-408l-392 852v-852h-348z" />
    <glyph glyph-name="Xi" unicode="&#x39e;" horiz-adv-x="1164" 
d="M110 1082v318h944v-318h-944zM88 0v318h988v-318h-988zM989 548h-814v312h814v-312z" />
    <glyph glyph-name="Omicron" unicode="&#x39f;" horiz-adv-x="1664" 
d="M452 700q0 -169 109 -282.5t271 -113.5t271 113.5t109 282.5t-109 282.5t-271 113.5t-271 -113.5t-109 -282.5zM71 700q0 201 99.5 367t274.5 261.5t387 95.5t387 -95.5t274.5 -261.5t99.5 -367t-99.5 -367t-274.5 -261.5t-387 -95.5t-387 95.5t-274.5 261.5t-99.5 367z
" />
    <glyph glyph-name="Pi" unicode="&#x3a0;" horiz-adv-x="1376" 
d="M1236 1400v-1400h-380v1073h-336v-1073h-380v1400h1096z" />
    <glyph glyph-name="Rho" unicode="&#x3a1;" horiz-adv-x="1228" 
d="M681 448h-161v-448h-380v1400h541q217 0 358 -135t141 -341q0 -207 -141 -341.5t-358 -134.5zM808 924q0 81 -48 131.5t-128 50.5h-112v-364h112q80 0 128 50t48 132z" />
    <glyph glyph-name="Sigma" unicode="&#x3a3;" horiz-adv-x="1188" 
d="M99 365l314 337l-314 333v365h990v-324h-575l276 -268v-214l-278 -270h577v-324h-990v365z" />
    <glyph glyph-name="Tau" unicode="&#x3a4;" horiz-adv-x="1124" 
d="M372 0v1073h-327v327h1034v-327h-327v-1073h-380z" />
    <glyph glyph-name="Upsilon" unicode="&#x3a5;" horiz-adv-x="1328" 
d="M432 1400l232 -506l232 506h412l-454 -856v-544h-380v544l-454 856h412z" />
    <glyph glyph-name="Phi" unicode="&#x3a6;" horiz-adv-x="1568" 
d="M399 698q0 -82 60 -137.5t150 -55.5v386q-90 0 -150 -55.5t-60 -137.5zM959 1400v-196q237 0 399 -146t162 -360t-162 -360t-399 -146v-192h-350v192q-237 0 -399 146t-162 360t162 360t399 146v196h350zM1169 698q0 82 -60 137.5t-150 55.5v-386q90 0 150 55.5t60 137.5
z" />
    <glyph glyph-name="Chi" unicode="&#x3a7;" horiz-adv-x="1318" 
d="M1303 0h-413l-231 464l-231 -464h-413l400 719l-375 681h414l205 -425l205 425h414l-375 -681z" />
    <glyph glyph-name="Psi" unicode="&#x3a8;" horiz-adv-x="1416" 
d="M871 1400v-745q54 32 85.5 87t31.5 121v537h326v-547q0 -191 -123 -336t-320 -192v-325h-326v325q-197 47 -320 192t-123 336v547h326v-537q0 -66 31.5 -121t85.5 -87v745h326z" />
    <glyph glyph-name="uni03A9" unicode="&#x3a9;" horiz-adv-x="1628" 
d="M1168 728q0 155 -102 261.5t-252 106.5t-252 -106.5t-102 -261.5q0 -139 74.5 -250t208.5 -173v-305h-640v328h227q-125 80 -188 193t-63 250q0 180 97 330t266 236.5t372 86.5t372 -86.5t266 -236.5t97 -330q0 -137 -63 -250t-188 -193h227v-328h-640v305
q134 62 208.5 173t74.5 250z" />
    <glyph glyph-name="Iotadieresis" unicode="&#x3aa;" horiz-adv-x="666" 
d="M143 1400h380v-1400h-380v1400zM-54 1664q0 74 51 124t126 50t126 -50t51 -124t-51 -124t-126 -50t-126 50t-51 124zM366 1664q0 74 51 124t126 50t126 -50t51 -124t-51 -124t-126 -50t-126 50t-51 124z" />
    <glyph glyph-name="Upsilondieresis" unicode="&#x3ab;" horiz-adv-x="1328" 
d="M432 1400l232 -506l232 506h412l-454 -856v-544h-380v544l-454 856h412zM277 1664q0 74 51 124t126 50t126 -50t51 -124t-51 -124t-126 -50t-126 50t-51 124zM697 1664q0 74 51 124t126 50t126 -50t51 -124t-51 -124t-126 -50t-126 50t-51 124z" />
    <glyph glyph-name="alphatonos" unicode="&#x3ac;" horiz-adv-x="1389" 
d="M1348 320v-315q-48 -5 -106 -5q-251 0 -322 144q-67 -80 -161 -124t-203 -44q-141 0 -256 72t-179.5 196t-64.5 274q0 149 64.5 273.5t177 196.5t249.5 72q84 0 162 -30t134 -82v88h360v-615q0 -49 26 -75t74 -26h45zM641 297q68 0 122 34t80 90v194q-26 56 -80 90
t-122 34q-96 0 -159 -63t-63 -158t63 -158t159 -63zM420 1184l238 342h371l-267 -342h-342z" />
    <glyph glyph-name="epsilontonos" unicode="&#x3ad;" horiz-adv-x="978" 
d="M403 318q0 -38 29 -62.5t70 -24.5q49 0 99.5 24.5t80.5 67.5l254 -161q-57 -88 -170 -137t-257 -49q-198 0 -329.5 91t-131.5 227q0 86 57.5 156t144.5 98q-72 26 -116 88.5t-44 131.5q0 124 117.5 208t295.5 84q137 0 240 -50t149 -136l-273 -142q-34 75 -108 75
q-34 0 -57.5 -18t-23.5 -46q0 -29 23 -49t58 -20h161v-263h-155q-50 0 -82 -26t-32 -67zM238 1184l238 342h371l-267 -342h-342z" />
    <glyph glyph-name="etatonos" unicode="&#x3ae;" horiz-adv-x="1238" 
d="M488 647v-647h-369v1036h369v-101q41 58 108.5 91.5t144.5 33.5q172 0 285 -113.5t113 -287.5v-1123h-369v1064q0 58 -38.5 98.5t-102.5 40.5q-43 0 -82 -26.5t-59 -65.5zM409 1184l238 342h371l-267 -342h-342z" />
    <glyph glyph-name="iotatonos" unicode="&#x3af;" horiz-adv-x="660" 
d="M115 333v703h369v-620q0 -96 95 -96h40v-315q-50 -5 -116 -5q-199 0 -293.5 83t-94.5 250zM68 1184l238 342h371l-267 -342h-342z" />
    <glyph glyph-name="upsilondieresistonos" unicode="&#x3b0;" horiz-adv-x="1181" 
d="M590 -24q-206 0 -348.5 125.5t-142.5 306.5v628h369v-609q0 -56 34.5 -93t87.5 -37t88 37t35 93v609h369v-628q0 -119 -65 -218.5t-178 -156.5t-249 -57zM240 1277q0 63 46 106.5t113 43.5t113 -43.5t46 -106.5t-46 -106.5t-113 -43.5t-113 43.5t-46 106.5zM624 1277
q0 63 46 106.5t113 43.5t113 -43.5t46 -106.5t-46 -106.5t-113 -43.5t-113 43.5t-46 106.5zM711 1448h-290l179 262h315z" />
    <glyph glyph-name="alpha" unicode="&#x3b1;" horiz-adv-x="1389" 
d="M1348 320v-315q-48 -5 -106 -5q-251 0 -322 144q-67 -80 -161 -124t-203 -44q-141 0 -256 72t-179.5 196t-64.5 274q0 149 64.5 273.5t177 196.5t249.5 72q84 0 162 -30t134 -82v88h360v-615q0 -49 26 -75t74 -26h45zM641 297q68 0 122 34t80 90v194q-26 56 -80 90
t-122 34q-96 0 -159 -63t-63 -158t63 -158t159 -63z" />
    <glyph glyph-name="beta" unicode="&#x3b2;" horiz-adv-x="1227" 
d="M1049 1038q0 -84 -50 -158.5t-136 -110.5q132 -24 219 -128t87 -249q0 -176 -119.5 -296t-293.5 -120q-92 0 -164 34.5t-109 97.5v-572h-354v1500q0 165 132.5 276.5t327.5 111.5q194 0 327 -111.5t133 -274.5zM701 1015q0 50 -30.5 81.5t-78.5 31.5q-52 0 -80.5 -36
t-28.5 -95v-520q0 -90 43 -147t123 -57q65 0 106.5 42.5t41.5 108.5q0 80 -60.5 124.5t-170.5 46.5v292q64 2 99.5 38t35.5 90z" />
    <glyph glyph-name="gamma" unicode="&#x3b3;" horiz-adv-x="1110" 
d="M370 -464v467l-353 1033h386l152 -582l152 582h386l-354 -1033v-467h-369z" />
    <glyph glyph-name="delta" unicode="&#x3b4;" horiz-adv-x="1152" 
d="M575 -24q-141 0 -260 60.5t-189.5 168.5t-70.5 239q0 160 105.5 284t273.5 165l-239 243v264h771v-317h-321l321 -327q130 -133 130 -312q0 -131 -70.5 -239t-189.5 -168.5t-261 -60.5zM418 444q0 -67 45.5 -112t112.5 -45t112.5 45t45.5 112t-45.5 112t-112.5 45
t-112.5 -45t-45.5 -112z" />
    <glyph glyph-name="epsilon" unicode="&#x3b5;" horiz-adv-x="978" 
d="M403 318q0 -38 29 -62.5t70 -24.5q49 0 99.5 24.5t80.5 67.5l254 -161q-57 -88 -170 -137t-257 -49q-198 0 -329.5 91t-131.5 227q0 86 57.5 156t144.5 98q-72 26 -116 88.5t-44 131.5q0 124 117.5 208t295.5 84q137 0 240 -50t149 -136l-273 -142q-34 75 -108 75
q-34 0 -57.5 -18t-23.5 -46q0 -29 23 -49t58 -20h161v-263h-155q-50 0 -82 -26t-32 -67z" />
    <glyph glyph-name="zeta" unicode="&#x3b6;" horiz-adv-x="964" 
d="M48 364q0 178 180 389l278 330h-356v317h772v-293l-401 -498q-97 -120 -97 -229q0 -118 111 -180l225 -128q79 -45 120.5 -119t41.5 -162q0 -130 -96 -255h-364q37 48 60.5 106t23.5 108q0 93 -82 138l-168 93q-117 65 -182.5 163.5t-65.5 219.5z" />
    <glyph glyph-name="eta" unicode="&#x3b7;" horiz-adv-x="1238" 
d="M488 647v-647h-369v1036h369v-101q41 58 108.5 91.5t144.5 33.5q172 0 285 -113.5t113 -287.5v-1123h-369v1064q0 58 -38.5 98.5t-102.5 40.5q-43 0 -82 -26.5t-59 -65.5z" />
    <glyph glyph-name="theta" unicode="&#x3b8;" horiz-adv-x="1300" 
d="M50 700q0 198 77.5 364t216 263t306.5 97t306.5 -97t216 -263t77.5 -364t-77.5 -364t-216 -263t-306.5 -97t-306.5 97t-216 263t-77.5 364zM650 1119q-82 0 -142 -76.5t-81 -199.5h446q-21 123 -81 199.5t-142 76.5zM650 280q82 0 142 77t81 200h-446q21 -123 81 -200
t142 -77z" />
    <glyph glyph-name="iota" unicode="&#x3b9;" horiz-adv-x="660" 
d="M115 333v703h369v-620q0 -96 95 -96h40v-315q-50 -5 -116 -5q-199 0 -293.5 83t-94.5 250z" />
    <glyph glyph-name="kappa" unicode="&#x3ba;" horiz-adv-x="1139" 
d="M732 0l-183 403h-61v-403h-369v1036h369v-317h67l151 317h394l-252 -478l279 -558h-395z" />
    <glyph glyph-name="lambda" unicode="&#x3bb;" horiz-adv-x="1110" 
d="M403 0h-386l356 1017l-186 443h387l519 -1460h-386l-153 542z" />
    <glyph glyph-name="uni03BC" unicode="&#x3bc;" horiz-adv-x="1258" 
d="M119 -464v1500h369v-617q9 -58 41.5 -90t80.5 -32q51 0 95.5 36.5t64.5 93.5v609h369v-1036h-369v112q-30 -61 -77 -98.5t-97 -37.5q-74 0 -108 58v-498h-369z" />
    <glyph glyph-name="nu" unicode="&#x3bd;" horiz-adv-x="1110" 
d="M707 1036h386l-330 -1036h-416l-330 1036h386l152 -635z" />
    <glyph glyph-name="xi" unicode="&#x3be;" horiz-adv-x="973" 
d="M433 372q0 -63 35 -112.5t103 -76.5l120 -46q112 -42 176 -127t64 -196q0 -72 -26.5 -146t-68.5 -132h-365q84 106 84 211q0 89 -94 129q-11 5 -97 38q-141 53 -224 173.5t-83 263.5q0 135 75.5 248t195.5 161q-95 44 -152 126.5t-57 179.5q0 151 123.5 254.5
t304.5 103.5q114 0 207.5 -41.5t154.5 -117.5l-210 -214q-60 77 -130 77q-45 0 -73.5 -32.5t-28.5 -84.5q0 -57 34.5 -93t90.5 -36h211v-300h-161q-87 0 -148 -59.5t-61 -150.5z" />
    <glyph glyph-name="omicron" unicode="&#x3bf;" horiz-adv-x="1282" 
d="M56 518q0 150 76.5 274.5t211 196t297.5 71.5t297.5 -71.5t211 -196t76.5 -274.5t-76.5 -274.5t-211 -196t-297.5 -71.5t-297.5 71.5t-211 196t-76.5 274.5zM419 518q0 -95 63 -158t159 -63t159 63t63 158q0 94 -63 157.5t-159 63.5t-159 -63.5t-63 -157.5z" />
    <glyph glyph-name="pi" unicode="&#x3c0;" horiz-adv-x="1176" 
d="M503 715v-715h-363v715h-108v321h1112v-321h-108v-715h-363v715h-170z" />
    <glyph glyph-name="rho" unicode="&#x3c1;" horiz-adv-x="1302" 
d="M99 -464v982q0 149 75 273.5t206.5 196.5t291.5 72q120 0 226.5 -42.5t182.5 -115t120.5 -172.5t44.5 -212q0 -149 -76 -274.5t-201 -196.5t-268 -71q-152 0 -242 83v-523h-360zM459 518v-115q34 -49 89 -77.5t119 -28.5q92 0 154 63.5t62 157.5t-60.5 157.5t-151.5 63.5
t-151.5 -63.5t-60.5 -157.5z" />
    <glyph glyph-name="sigma1" unicode="&#x3c2;" horiz-adv-x="1092" 
d="M425 518q0 -192 179 -275l169 -79q116 -54 177.5 -145.5t61.5 -204.5q0 -73 -24 -146.5t-64 -131.5h-363q84 108 84 211q0 101 -97 146l-163 75q-159 73 -244 215.5t-85 334.5q0 150 76.5 274.5t211 196t297.5 71.5q242 0 412 -152l-171 -260q-114 91 -235 91
q-96 0 -159 -63.5t-63 -157.5z" />
    <glyph glyph-name="sigma" unicode="&#x3c3;" horiz-adv-x="1336" 
d="M56 506q0 146 75.5 267.5t207.5 192t290 70.5h667v-321h-204q51 -43 80.5 -108t29.5 -136q0 -93 -43.5 -182.5t-117.5 -158.5t-182.5 -111.5t-229.5 -42.5q-158 0 -289.5 70t-207.5 192t-76 268zM417 506q0 -88 61.5 -148.5t150.5 -60.5q90 0 151 60t61 149t-61 149
t-151 60q-89 0 -150.5 -60.5t-61.5 -148.5z" />
    <glyph glyph-name="tau" unicode="&#x3c4;" horiz-adv-x="999" 
d="M304 363v352h-272v321h935v-321h-294v-285q0 -111 105 -111h45v-315q-50 -5 -116 -5q-210 0 -306.5 89t-96.5 275z" />
    <glyph glyph-name="upsilon" unicode="&#x3c5;" horiz-adv-x="1181" 
d="M590 -24q-206 0 -348.5 125.5t-142.5 306.5v628h369v-609q0 -56 34.5 -93t87.5 -37t88 37t35 93v609h369v-628q0 -119 -65 -218.5t-178 -156.5t-249 -57z" />
    <glyph glyph-name="phi" unicode="&#x3c6;" horiz-adv-x="1417" 
d="M266 943l207 -219q-47 -38 -74.5 -92.5t-27.5 -113.5q0 -83 51.5 -144.5t135.5 -81.5v768h226q160 0 293 -72t208.5 -196.5t75.5 -273.5q0 -208 -141 -359.5t-356 -177.5v-445h-306v445q-217 25 -359.5 176.5t-142.5 360.5q0 129 56.5 239t153.5 186zM1047 518
q0 80 -51 141.5t-132 82.5v-450q82 22 132.5 83.5t50.5 142.5z" />
    <glyph glyph-name="chi" unicode="&#x3c7;" horiz-adv-x="1116" 
d="M1082 1036l-293 -731l313 -769h-388l-156 451l-156 -451h-388l313 769l-293 731h388l136 -403l136 403h388z" />
    <glyph glyph-name="psi" unicode="&#x3c8;" horiz-adv-x="1395" 
d="M851 1036v-712q60 27 95 78.5t35 115.5v518h315v-550q0 -181 -124.5 -316.5t-320.5 -176.5v-457h-307v457q-196 41 -320.5 176.5t-124.5 316.5v550h315v-518q0 -64 35 -115.5t95 -78.5v712h307z" />
    <glyph glyph-name="omega" unicode="&#x3c9;" horiz-adv-x="1632" 
d="M816 168q-46 -85 -132.5 -138.5t-189.5 -53.5q-121 0 -221.5 70t-158.5 192t-58 270q0 141 51 278.5t127 249.5h363q-77 -118 -125.5 -259t-48.5 -269q0 -92 29.5 -151.5t75.5 -59.5q49 0 77.5 66.5t28.5 169.5v285h364v-285q0 -103 28.5 -169.5t77.5 -66.5
q46 0 75.5 59.5t29.5 151.5q0 128 -48.5 269t-125.5 259h363q76 -112 127 -249.5t51 -278.5q0 -148 -58 -270t-158.5 -192t-221.5 -70q-103 0 -189.5 53.5t-132.5 138.5z" />
    <glyph glyph-name="iotadieresis" unicode="&#x3ca;" horiz-adv-x="660" 
d="M115 333v703h369v-620q0 -96 95 -96h40v-315q-50 -5 -116 -5q-199 0 -293.5 83t-94.5 250zM-87 1340q0 74 51 124t126 50t126 -50t51 -124t-51 -124t-126 -50t-126 50t-51 124zM333 1340q0 74 51 124t126 50t126 -50t51 -124t-51 -124t-126 -50t-126 50t-51 124z" />
    <glyph glyph-name="upsilondieresis" unicode="&#x3cb;" horiz-adv-x="1181" 
d="M590 -24q-206 0 -348.5 125.5t-142.5 306.5v628h369v-609q0 -56 34.5 -93t87.5 -37t88 37t35 93v609h369v-628q0 -119 -65 -218.5t-178 -156.5t-249 -57zM203 1340q0 74 51 124t126 50t126 -50t51 -124t-51 -124t-126 -50t-126 50t-51 124zM623 1340q0 74 51 124t126 50
t126 -50t51 -124t-51 -124t-126 -50t-126 50t-51 124z" />
    <glyph glyph-name="omicrontonos" unicode="&#x3cc;" horiz-adv-x="1282" 
d="M56 518q0 150 76.5 274.5t211 196t297.5 71.5t297.5 -71.5t211 -196t76.5 -274.5t-76.5 -274.5t-211 -196t-297.5 -71.5t-297.5 71.5t-211 196t-76.5 274.5zM419 518q0 -95 63 -158t159 -63t159 63t63 158q0 94 -63 157.5t-159 63.5t-159 -63.5t-63 -157.5zM431 1184
l238 342h371l-267 -342h-342z" />
    <glyph glyph-name="upsilontonos" unicode="&#x3cd;" horiz-adv-x="1181" 
d="M590 -24q-206 0 -348.5 125.5t-142.5 306.5v628h369v-609q0 -56 34.5 -93t87.5 -37t88 37t35 93v609h369v-628q0 -119 -65 -218.5t-178 -156.5t-249 -57zM376 1184l238 342h371l-267 -342h-342z" />
    <glyph glyph-name="omegatonos" unicode="&#x3ce;" horiz-adv-x="1632" 
d="M816 168q-46 -85 -132.5 -138.5t-189.5 -53.5q-121 0 -221.5 70t-158.5 192t-58 270q0 141 51 278.5t127 249.5h363q-77 -118 -125.5 -259t-48.5 -269q0 -92 29.5 -151.5t75.5 -59.5q49 0 77.5 66.5t28.5 169.5v285h364v-285q0 -103 28.5 -169.5t77.5 -66.5
q46 0 75.5 59.5t29.5 151.5q0 128 -48.5 269t-125.5 259h363q76 -112 127 -249.5t51 -278.5q0 -148 -58 -270t-158.5 -192t-221.5 -70q-103 0 -189.5 53.5t-132.5 138.5zM610 1184l238 342h371l-267 -342h-342z" />
    <glyph glyph-name="uni0400" unicode="&#x400;" horiz-adv-x="1158" 
d="M140 0v1400h912v-318h-532v-222h484v-312h-484v-230h550v-318h-930zM563 1850l238 -342h-342l-267 342h371z" />
    <glyph glyph-name="afii10023" unicode="&#x401;" horiz-adv-x="1158" 
d="M140 0v1400h912v-318h-532v-222h484v-312h-484v-230h550v-318h-930zM216 1664q0 74 51 124t126 50t126 -50t51 -124t-51 -124t-126 -50t-126 50t-51 124zM636 1664q0 74 51 124t126 50t126 -50t51 -124t-51 -124t-126 -50t-126 50t-51 124z" />
    <glyph glyph-name="afii10051" unicode="&#x402;" horiz-adv-x="1467" 
d="M994 -4q-75 0 -122 4v313h40q52 0 85.5 31t33.5 78v49q0 48 -34.5 79.5t-86.5 31.5t-94 -25.5t-65 -68.5v-488h-380v1082h-326v318h1033v-318h-327v-272q90 90 242 90q176 0 297 -114.5t121 -281.5v-115q0 -166 -120.5 -279.5t-296.5 -113.5z" />
    <glyph glyph-name="afii10052" unicode="&#x403;" horiz-adv-x="1056" 
d="M140 0v1400h891v-327h-511v-1073h-380zM363 1546l238 342h371l-267 -342h-342z" />
    <glyph glyph-name="afii10053" unicode="&#x404;" horiz-adv-x="1403" 
d="M832 -24q-212 0 -387 95.5t-274.5 261.5t-99.5 367t99.5 367t274.5 261.5t387 95.5q293 0 504 -176l-187 -261q-61 55 -144.5 89.5t-172.5 34.5q-128 0 -228.5 -74t-141.5 -193h576v-288h-576q41 -120 141.5 -193.5t228.5 -73.5q89 0 173.5 36.5t149.5 95.5l192 -261
q-215 -184 -515 -184z" />
    <glyph glyph-name="afii10054" unicode="&#x405;" horiz-adv-x="1206" 
d="M77 199l193 253q74 -75 165 -119t181 -44q64 0 107 32.5t43 81.5q0 55 -51.5 95.5t-188.5 70.5q-194 42 -306.5 150.5t-112.5 269.5q0 187 137.5 311t348.5 124q135 0 260.5 -47t221.5 -131l-182 -261q-158 132 -284 132q-52 0 -86.5 -28t-34.5 -69q0 -50 46.5 -87
t166.5 -64q216 -49 331 -161t115 -281q0 -195 -146.5 -323t-387.5 -128q-162 0 -299.5 58.5t-236.5 164.5z" />
    <glyph glyph-name="afii10055" unicode="&#x406;" horiz-adv-x="666" 
d="M143 1400h380v-1400h-380v1400z" />
    <glyph glyph-name="afii10056" unicode="&#x407;" horiz-adv-x="666" 
d="M143 1400h380v-1400h-380v1400zM-54 1664q0 74 51 124t126 50t126 -50t51 -124t-51 -124t-126 -50t-126 50t-51 124zM366 1664q0 74 51 124t126 50t126 -50t51 -124t-51 -124t-126 -50t-126 50t-51 124z" />
    <glyph glyph-name="afii10057" unicode="&#x408;" horiz-adv-x="943" 
d="M436 476v924h380v-954q0 -220 -124.5 -345t-344.5 -125q-193 0 -327 75l93 306q84 -53 170 -53q70 0 111.5 45.5t41.5 126.5z" />
    <glyph glyph-name="afii10058" unicode="&#x409;" horiz-adv-x="2057" 
d="M1296 304h171q74 0 117.5 40t43.5 109t-43.5 109t-117.5 40h-171v-298zM1502 0h-586v1073h-317v-687q0 -390 -472 -390q-66 0 -102 4v323h56q138 0 138 156v921h1077v-493h206q219 0 363 -129.5t144 -324.5t-144 -324t-363 -129z" />
    <glyph glyph-name="afii10059" unicode="&#x40a;" horiz-adv-x="2044" 
d="M1283 1400v-493h206q219 0 363 -129.5t144 -324.5t-144 -324t-363 -129h-586v540h-383v-540h-380v1400h380v-533h383v533h380zM1615 453q0 69 -43.5 109t-117.5 40h-171v-298h171q74 0 117.5 40t43.5 109z" />
    <glyph glyph-name="afii10060" unicode="&#x40b;" horiz-adv-x="1510" 
d="M1411 504v-504h-380v471q0 48 -34 79.5t-87 31.5q-52 0 -94 -25.5t-65 -68.5v-488h-380v1082h-326v318h1033v-318h-327v-272q90 90 242 90q176 0 297 -114.5t121 -281.5z" />
    <glyph glyph-name="afii10061" unicode="&#x40c;" horiz-adv-x="1286" 
d="M520 1400v-525h69l262 525h403l-354 -685l426 -715h-405l-320 548h-81v-548h-380v1400h380zM411 1508l238 342h371l-267 -342h-342z" />
    <glyph glyph-name="uni040D" unicode="&#x40d;" horiz-adv-x="1428" 
d="M1288 1400v-1400h-348v852l-392 -852h-408v1400h348v-852l392 852h408zM713 1850l238 -342h-342l-267 342h371z" />
    <glyph glyph-name="afii10062" unicode="&#x40e;" horiz-adv-x="1327" 
d="M1307 1400l-532 -1159q-110 -241 -367 -241h-226v327h132q78 0 111 68l31 64l-436 941h411l234 -580l231 580h411zM665 1488q-153 0 -266 89t-117 225h286q2 -41 29.5 -67.5t67.5 -26.5t67.5 26.5t29.5 67.5h286q-4 -136 -117 -225t-266 -89z" />
    <glyph glyph-name="afii10145" unicode="&#x40f;" horiz-adv-x="1376" 
d="M856 327v1073h380v-1400h-358v-280h-380v280h-358v1400h380v-1073h336z" />
    <glyph glyph-name="afii10017" unicode="&#x410;" horiz-adv-x="1396" 
d="M491 1400h414l471 -1400h-391l-78 269h-418l-78 -269h-391zM568 557h260l-130 450z" />
    <glyph glyph-name="afii10018" unicode="&#x411;" horiz-adv-x="1283" 
d="M520 304h171q74 0 117.5 40t43.5 109t-43.5 109t-117.5 40h-171v-298zM726 0h-586v1400h954v-305h-574v-188h206q219 0 363 -129.5t144 -324.5t-144 -324t-363 -129z" />
    <glyph glyph-name="afii10019" unicode="&#x412;" horiz-adv-x="1264" 
d="M756 0h-616v1400h557q196 0 315 -105.5t119 -274.5q0 -98 -49 -176t-130 -111q110 -30 177 -116.5t67 -207.5q0 -178 -124 -293.5t-316 -115.5zM783 978q0 58 -33.5 91.5t-86.5 33.5h-158v-249h158q53 0 86.5 33.5t33.5 90.5zM824 432q0 60 -36.5 98t-93.5 38h-189v-271
h189q57 0 93.5 37.5t36.5 97.5z" />
    <glyph glyph-name="afii10020" unicode="&#x413;" horiz-adv-x="1056" 
d="M140 0v1400h891v-327h-511v-1073h-380z" />
    <glyph glyph-name="afii10021" unicode="&#x414;" horiz-adv-x="1386" 
d="M1341 297v-577h-365v280h-566v-280h-365v577h98q152 347 152 830v273h915v-1103h131zM528 297h317v806h-189q0 -479 -128 -806z" />
    <glyph glyph-name="afii10022" unicode="&#x415;" horiz-adv-x="1158" 
d="M140 0v1400h912v-318h-532v-222h484v-312h-484v-230h550v-318h-930z" />
    <glyph glyph-name="afii10024" unicode="&#x416;" horiz-adv-x="1876" 
d="M748 875v525h380v-525h49l245 525h400l-336 -685l408 -715h-401l-304 548h-61v-548h-380v548h-61l-304 -548h-401l408 715l-336 685h400l245 -525h49z" />
    <glyph glyph-name="afii10025" unicode="&#x417;" horiz-adv-x="1083" 
d="M315 1045l-204 196q62 87 166 135t231 48q190 0 318 -107t128 -264q0 -92 -53.5 -171t-146.5 -125q118 -44 195 -141.5t77 -216.5q0 -180 -151 -301.5t-375 -121.5q-143 0 -267 56.5t-195 159.5l207 205q90 -125 240 -125q72 0 117.5 46.5t45.5 117.5q0 78 -52.5 122.5
t-142.5 44.5h-155v302h162q66 0 106.5 31t40.5 83q0 48 -35.5 78.5t-91.5 30.5q-95 0 -165 -83z" />
    <glyph glyph-name="afii10026" unicode="&#x418;" horiz-adv-x="1428" 
d="M1288 1400v-1400h-348v852l-392 -852h-408v1400h348v-852l392 852h408z" />
    <glyph glyph-name="afii10027" unicode="&#x419;" horiz-adv-x="1428" 
d="M1288 1400v-1400h-348v852l-392 -852h-408v1400h348v-852l392 852h408zM714 1488q-153 0 -266 89t-117 225h286q2 -41 29.5 -67.5t67.5 -26.5t67.5 26.5t29.5 67.5h286q-4 -136 -117 -225t-266 -89z" />
    <glyph glyph-name="afii10028" unicode="&#x41a;" horiz-adv-x="1286" 
d="M520 1400v-525h69l262 525h403l-354 -685l426 -715h-405l-320 548h-81v-548h-380v1400h380z" />
    <glyph glyph-name="afii10029" unicode="&#x41b;" horiz-adv-x="1468" 
d="M1328 1400v-1400h-380v1073h-349v-687q0 -390 -472 -390q-66 0 -102 4v323h56q138 0 138 156v921h1109z" />
    <glyph glyph-name="afii10030" unicode="&#x41c;" horiz-adv-x="1732" 
d="M1000 398h-268l-244 487v-885h-348v1400h430l296 -592l296 592h430v-1400h-348v885z" />
    <glyph glyph-name="afii10031" unicode="&#x41d;" horiz-adv-x="1428" 
d="M140 0v1400h380v-533h388v533h380v-1400h-380v540h-388v-540h-380z" />
    <glyph glyph-name="afii10032" unicode="&#x41e;" horiz-adv-x="1664" 
d="M452 700q0 -169 109 -282.5t271 -113.5t271 113.5t109 282.5t-109 282.5t-271 113.5t-271 -113.5t-109 -282.5zM71 700q0 201 99.5 367t274.5 261.5t387 95.5t387 -95.5t274.5 -261.5t99.5 -367t-99.5 -367t-274.5 -261.5t-387 -95.5t-387 95.5t-274.5 261.5t-99.5 367z
" />
    <glyph glyph-name="afii10033" unicode="&#x41f;" horiz-adv-x="1376" 
d="M1236 1400v-1400h-380v1073h-336v-1073h-380v1400h1096z" />
    <glyph glyph-name="afii10034" unicode="&#x420;" horiz-adv-x="1228" 
d="M681 448h-161v-448h-380v1400h541q217 0 358 -135t141 -341q0 -207 -141 -341.5t-358 -134.5zM808 924q0 81 -48 131.5t-128 50.5h-112v-364h112q80 0 128 50t48 132z" />
    <glyph glyph-name="afii10035" unicode="&#x421;" horiz-adv-x="1407" 
d="M832 -24q-212 0 -387 95.5t-274.5 261.5t-99.5 367t99.5 367t274.5 261.5t387 95.5q287 0 500 -173l-193 -277q-141 122 -307 122q-162 0 -271 -113.5t-109 -282.5t109 -282.5t271 -113.5q87 0 170.5 37t147.5 97l201 -275q-217 -187 -519 -187z" />
    <glyph glyph-name="afii10036" unicode="&#x422;" horiz-adv-x="1124" 
d="M372 0v1073h-327v327h1034v-327h-327v-1073h-380z" />
    <glyph glyph-name="afii10037" unicode="&#x423;" horiz-adv-x="1327" 
d="M1307 1400l-532 -1159q-110 -241 -367 -241h-226v327h132q78 0 111 68l31 64l-436 941h411l234 -580l231 580h411z" />
    <glyph glyph-name="afii10038" unicode="&#x424;" horiz-adv-x="1568" 
d="M399 698q0 -82 60 -137.5t150 -55.5v386q-90 0 -150 -55.5t-60 -137.5zM959 1400v-196q237 0 399 -146t162 -360t-162 -360t-399 -146v-192h-350v192q-237 0 -399 146t-162 360t162 360t399 146v196h350zM1169 698q0 82 -60 137.5t-150 55.5v-386q90 0 150 55.5t60 137.5
z" />
    <glyph glyph-name="afii10039" unicode="&#x425;" horiz-adv-x="1318" 
d="M1303 0h-413l-231 464l-231 -464h-413l400 719l-375 681h414l205 -425l205 425h414l-375 -681z" />
    <glyph glyph-name="afii10040" unicode="&#x426;" horiz-adv-x="1409" 
d="M1023 0h-883v1400h380v-1073h336v1073h380v-1073h128v-607h-341v280z" />
    <glyph glyph-name="afii10041" unicode="&#x427;" horiz-adv-x="1318" 
d="M99 885v515h380v-481q0 -57 40 -94t101 -37q57 0 104.5 31t73.5 80v501h380v-1400h-380v565q-47 -43 -118.5 -69t-143.5 -26q-185 0 -311 120t-126 295z" />
    <glyph glyph-name="afii10042" unicode="&#x428;" horiz-adv-x="1988" 
d="M1468 327v1073h380v-1400h-1708v1400h380v-1073h284v1073h380v-1073h284z" />
    <glyph glyph-name="afii10043" unicode="&#x429;" horiz-adv-x="2021" 
d="M1635 0h-1495v1400h380v-1073h284v1073h380v-1073h284v1073h380v-1073h128v-607h-341v280z" />
    <glyph glyph-name="afii10044" unicode="&#x42a;" horiz-adv-x="1485" 
d="M725 304h170q74 0 117.5 40t43.5 109t-43.5 109t-117.5 40h-170v-298zM930 0h-585v1095h-300v305h680v-493h205q219 0 363 -129.5t144 -324.5t-144 -324t-363 -129z" />
    <glyph glyph-name="afii10045" unicode="&#x42b;" horiz-adv-x="1831" 
d="M1311 1400h380v-1400h-380v1400zM520 304h171q74 0 117.5 40t43.5 109t-43.5 109t-117.5 40h-171v-298zM726 0h-586v1400h380v-493h206q219 0 363 -129.5t144 -324.5t-144 -324t-363 -129z" />
    <glyph glyph-name="afii10046" unicode="&#x42c;" horiz-adv-x="1281" 
d="M520 304h171q74 0 117.5 40t43.5 109t-43.5 109t-117.5 40h-171v-298zM726 0h-586v1400h380v-493h206q219 0 363 -129.5t144 -324.5t-144 -324t-363 -129z" />
    <glyph glyph-name="afii10047" unicode="&#x42d;" horiz-adv-x="1403" 
d="M571 -24q-300 0 -515 184l192 261q65 -59 149.5 -95.5t173.5 -36.5q128 0 228.5 73.5t141.5 193.5h-576v288h576q-41 119 -141.5 193t-228.5 74q-89 0 -172.5 -34.5t-144.5 -89.5l-187 261q211 176 504 176q212 0 387 -95.5t274.5 -261.5t99.5 -367t-99.5 -367
t-274.5 -261.5t-387 -95.5z" />
    <glyph glyph-name="afii10048" unicode="&#x42e;" horiz-adv-x="2203" 
d="M520 540v-540h-380v1400h380v-533h126q57 244 260 400.5t473 156.5q156 0 295.5 -56.5t240 -153t159 -230.5t58.5 -284q0 -200 -99.5 -366.5t-272.5 -262t-381 -95.5q-272 0 -476 158.5t-260 405.5h-123zM1006 700q0 -169 108 -282.5t265 -113.5t264.5 113.5t107.5 282.5
q0 168 -107.5 282t-264.5 114t-265 -114t-108 -282z" />
    <glyph glyph-name="afii10049" unicode="&#x42f;" horiz-adv-x="1264" 
d="M583 1400h541v-1400h-374v478h-56l-242 -478h-410l291 536q-117 56 -183 161t-66 242q0 204 140.5 332.5t358.5 128.5zM750 1106h-121q-78 0 -125.5 -49t-47.5 -129q0 -78 47 -127.5t126 -49.5h121v355z" />
    <glyph glyph-name="afii10065" unicode="&#x430;" horiz-adv-x="1322" 
d="M641 297q68 0 122 34t80 90v194q-26 56 -80 90t-122 34q-96 0 -159 -63t-63 -158t63 -158t159 -63zM843 0v88q-56 -52 -134 -82t-162 -30q-137 0 -249.5 72t-177 196.5t-64.5 273.5t64.5 273.5t177 196.5t249.5 72q84 0 162 -30t134 -82v88h360v-1036h-360z" />
    <glyph glyph-name="afii10066" unicode="&#x431;" horiz-adv-x="1246" 
d="M488 889q89 67 217 67q209 0 348.5 -139.5t139.5 -343.5q0 -210 -160 -353.5t-397 -143.5q-116 0 -217.5 39.5t-179.5 114.5t-122.5 193.5t-44.5 265.5q0 151 18.5 267.5t60 209.5t105 159t158 114t213.5 76.5t277 44.5l54 -321q-172 -19 -266.5 -47.5t-141.5 -75.5
t-62 -127zM438 521q1 -112 55.5 -168t142.5 -56q86 0 140 47.5t54 121.5q0 73 -52.5 121t-131.5 48q-66 0 -119.5 -30.5t-88.5 -83.5z" />
    <glyph glyph-name="afii10067" unicode="&#x432;" horiz-adv-x="1056" 
d="M612 0h-493v1036h461q153 0 257 -83.5t104 -207.5q0 -64 -36.5 -116t-98.5 -77q81 -21 132 -89t51 -150q0 -133 -109 -223t-268 -90zM552 423h-115v-175h115q46 0 75 24.5t29 62.5q0 39 -29 63.5t-75 24.5zM437 641h102q39 0 63.5 20.5t24.5 52.5t-24.5 52.5t-63.5 20.5
h-102v-146z" />
    <glyph glyph-name="afii10068" unicode="&#x433;" horiz-adv-x="864" 
d="M823 715h-335v-715h-369v1036h704v-321z" />
    <glyph glyph-name="afii10069" unicode="&#x434;" horiz-adv-x="1164" 
d="M1123 252v-464h-323v212h-437v-212h-322v464h96q129 275 129 784h751v-784h106zM481 252h215v531h-116q0 -137 -26 -278.5t-73 -252.5z" />
    <glyph glyph-name="afii10070" unicode="&#x435;" horiz-adv-x="1238" 
d="M424 421q16 -87 76 -133.5t154 -46.5q140 0 266 116l183 -193q-173 -188 -458 -188q-256 0 -422.5 155.5t-166.5 386.5q0 150 75 274.5t207 196t291 71.5q156 0 283 -70t198.5 -191t71.5 -266q0 -58 -17 -112h-741zM623 795q-77 0 -127.5 -42t-68.5 -121h385
q-31 163 -189 163z" />
    <glyph glyph-name="afii10072" unicode="&#x436;" horiz-adv-x="1671" 
d="M1264 0l-180 390h-64v-390h-369v390h-64l-180 -390h-395l281 545l-254 491h394l151 -330h67v330h369v-330h67l151 330h394l-254 -491l281 -545h-395z" />
    <glyph glyph-name="afii10073" unicode="&#x437;" horiz-adv-x="978" 
d="M575 318q0 41 -32 67t-82 26h-155v263h161q35 0 58 20t23 49q0 28 -23.5 46t-57.5 18q-74 0 -108 -75l-273 142q46 86 149 136t240 50q178 0 295.5 -84t117.5 -208q0 -69 -44 -131.5t-116 -88.5q87 -28 144.5 -98t57.5 -156q0 -136 -131.5 -227t-329.5 -91
q-144 0 -257 49t-170 137l254 161q30 -43 80.5 -67.5t99.5 -24.5q41 0 70 24.5t29 62.5z" />
    <glyph glyph-name="afii10074" unicode="&#x438;" horiz-adv-x="1258" 
d="M1139 1036v-1036h-358v508l-346 -508h-316v1036h358v-508l346 508h316z" />
    <glyph glyph-name="afii10075" unicode="&#x439;" horiz-adv-x="1258" 
d="M1139 1036v-1036h-358v508l-346 -508h-316v1036h358v-508l346 508h316zM629 1164q-153 0 -266 89t-117 225h286q2 -41 29.5 -67.5t67.5 -26.5t67.5 26.5t29.5 67.5h286q-4 -136 -117 -225t-266 -89z" />
    <glyph glyph-name="afii10076" unicode="&#x43a;" horiz-adv-x="1139" 
d="M732 0l-183 403h-61v-403h-369v1036h369v-317h67l151 317h394l-252 -478l279 -558h-395z" />
    <glyph glyph-name="afii10077" unicode="&#x43b;" horiz-adv-x="1270" 
d="M1151 1036v-1036h-369v722h-198v-388q0 -153 -118 -247.5t-299 -94.5q-77 0 -126 8v314h53q55 0 88 31t33 84v607h936z" />
    <glyph glyph-name="afii10078" unicode="&#x43c;" horiz-adv-x="1396" 
d="M494 1036l204 -458l204 458h375v-1036h-340v572l-139 -302h-200l-139 302v-572h-340v1036h375z" />
    <glyph glyph-name="afii10079" unicode="&#x43d;" horiz-adv-x="1258" 
d="M1139 1036v-1036h-369v379h-282v-379h-369v1036h369v-344h282v344h369z" />
    <glyph glyph-name="afii10080" unicode="&#x43e;" horiz-adv-x="1282" 
d="M56 518q0 150 76.5 274.5t211 196t297.5 71.5t297.5 -71.5t211 -196t76.5 -274.5t-76.5 -274.5t-211 -196t-297.5 -71.5t-297.5 71.5t-211 196t-76.5 274.5zM419 518q0 -95 63 -158t159 -63t159 63t63 158q0 94 -63 157.5t-159 63.5t-159 -63.5t-63 -157.5z" />
    <glyph glyph-name="afii10081" unicode="&#x43f;" horiz-adv-x="1258" 
d="M1139 1036v-1036h-369v722h-282v-722h-369v1036h1020z" />
    <glyph glyph-name="afii10082" unicode="&#x440;" horiz-adv-x="1322" 
d="M681 297q96 0 159 63t63 158t-63 158t-159 63q-68 0 -122 -34t-80 -90v-194q26 -56 80 -90t122 -34zM479 88v-552h-360v1500h360v-88q56 52 134 82t162 30q137 0 249.5 -72t177 -196.5t64.5 -273.5t-64.5 -273.5t-177 -196.5t-249.5 -72q-84 0 -162 30t-134 82z" />
    <glyph glyph-name="afii10083" unicode="&#x441;" horiz-adv-x="1126" 
d="M641 -24q-163 0 -297.5 71.5t-211 196t-76.5 274.5t76.5 274.5t211 196t297.5 71.5q242 0 412 -152l-171 -260q-114 91 -235 91q-96 0 -159 -63t-63 -158t63 -158t159 -63q119 0 245 103l191 -243q-81 -86 -195 -133.5t-247 -47.5z" />
    <glyph glyph-name="afii10084" unicode="&#x442;" horiz-adv-x="1002" 
d="M317 715h-276v321h920v-321h-275v-715h-369v715z" />
    <glyph glyph-name="afii10085" unicode="&#x443;" horiz-adv-x="1110" 
d="M572 -464h-388l193 464l-360 1036h386l151 -567l153 567h386z" />
    <glyph glyph-name="afii10086" unicode="&#x444;" horiz-adv-x="2046" 
d="M641 297q68 0 122 34t80 90v194q-26 56 -80 90t-122 34q-96 0 -159 -63t-63 -158t63 -158t159 -63zM1203 88v-552h-360v552q-56 -52 -134 -82t-162 -30q-137 0 -249.5 72t-177 196.5t-64.5 273.5t64.5 273.5t177 196.5t249.5 72q84 0 162 -30t134 -82v512h360v-512
q56 52 134 82t162 30q137 0 249.5 -72t177 -196.5t64.5 -273.5t-64.5 -273.5t-177 -196.5t-249.5 -72q-84 0 -162 30t-134 82zM1405 297q96 0 159 63t63 158t-63 158t-159 63q-68 0 -122 -34t-80 -90v-194q26 -56 80 -90t122 -34z" />
    <glyph glyph-name="afii10087" unicode="&#x445;" horiz-adv-x="1110" 
d="M1093 0h-390l-148 305l-148 -305h-390l294 528l-268 508h390l122 -286l122 286h390l-268 -508z" />
    <glyph glyph-name="afii10088" unicode="&#x446;" horiz-adv-x="1307" 
d="M1139 1036v-723h127v-593h-333v280h-814v1036h369v-723h282v723h369z" />
    <glyph glyph-name="afii10089" unicode="&#x447;" horiz-adv-x="1135" 
d="M647 0v341q-31 -33 -81.5 -50.5t-106.5 -17.5q-169 0 -283.5 111.5t-114.5 272.5v379h369v-359q0 -38 27.5 -64.5t70.5 -26.5q44 0 75 25t44 66v359h369v-1036h-369z" />
    <glyph glyph-name="afii10090" unicode="&#x448;" horiz-adv-x="1607" 
d="M1488 1036v-1036h-1369v1036h349v-723h162v723h347v-723h162v723h349z" />
    <glyph glyph-name="afii10091" unicode="&#x449;" horiz-adv-x="1656" 
d="M1282 0h-1163v1036h349v-723h162v723h347v-723h162v723h349v-723h127v-593h-333v280z" />
    <glyph glyph-name="afii10092" unicode="&#x44a;" horiz-adv-x="1247" 
d="M620 248h105q52 0 86 32.5t34 82.5t-34 82.5t-86 32.5h-105v-230zM790 0h-518v747h-231v289h579v-309h170q170 0 286.5 -105.5t116.5 -258.5t-116.5 -258t-286.5 -105z" />
    <glyph glyph-name="afii10093" unicode="&#x44b;" horiz-adv-x="1598" 
d="M1110 0v1036h369v-1036h-369zM692 363q0 50 -34 82.5t-86 32.5h-105v-230h105q52 0 86 32.5t34 82.5zM1040 363q0 -153 -116.5 -258t-286.5 -105h-518v1036h348v-309h170q170 0 286.5 -105.5t116.5 -258.5z" />
    <glyph glyph-name="afii10094" unicode="&#x44c;" horiz-adv-x="1094" 
d="M692 363q0 50 -34 82.5t-86 32.5h-105v-230h105q52 0 86 32.5t34 82.5zM1040 363q0 -153 -116.5 -258t-286.5 -105h-518v1036h348v-309h170q170 0 286.5 -105.5t116.5 -258.5z" />
    <glyph glyph-name="afii10095" unicode="&#x44d;" horiz-adv-x="1126" 
d="M485 -24q-133 0 -247 47.5t-195 133.5l183 217q131 -115 253 -115q75 0 135 39.5t90 104.5h-370v225h372q-29 67 -90 107.5t-137 40.5q-117 0 -243 -103l-163 235q170 152 412 152q163 0 297.5 -71.5t211 -196t76.5 -274.5t-76.5 -274.5t-211 -196t-297.5 -71.5z" />
    <glyph glyph-name="afii10096" unicode="&#x44e;" horiz-adv-x="1781" 
d="M1140 1060q249 0 417 -156.5t168 -385.5t-168 -385.5t-417 -156.5q-202 0 -354.5 106t-204.5 277h-101v-359h-361v1036h361v-356h102q54 169 206 274.5t352 105.5zM1140 297q96 0 159.5 63t63.5 158q0 94 -63.5 157.5t-159.5 63.5t-159 -63.5t-63 -157.5q0 -95 63 -158
t159 -63z" />
    <glyph glyph-name="afii10097" unicode="&#x44f;" horiz-adv-x="1135" 
d="M84 696q0 144 110.5 242t273.5 98h548v-1036h-333v339h-33l-230 -339h-377l280 379q-108 37 -173.5 122.5t-65.5 194.5zM683 787h-147q-43 0 -73.5 -26.5t-30.5 -64.5q0 -40 29.5 -66t74.5 -26h147v183z" />
    <glyph glyph-name="uni0450" unicode="&#x450;" horiz-adv-x="1238" 
d="M424 421q16 -87 76 -133.5t154 -46.5q140 0 266 116l183 -193q-173 -188 -458 -188q-256 0 -422.5 155.5t-166.5 386.5q0 150 75 274.5t207 196t291 71.5q156 0 283 -70t198.5 -191t71.5 -266q0 -58 -17 -112h-741zM623 795q-77 0 -127.5 -42t-68.5 -121h385
q-31 163 -189 163zM598 1526l238 -342h-342l-267 342h371z" />
    <glyph glyph-name="afii10071" unicode="&#x451;" horiz-adv-x="1238" 
d="M424 421q16 -87 76 -133.5t154 -46.5q140 0 266 116l183 -193q-173 -188 -458 -188q-256 0 -422.5 155.5t-166.5 386.5q0 150 75 274.5t207 196t291 71.5q156 0 283 -70t198.5 -191t71.5 -266q0 -58 -17 -112h-741zM623 795q-77 0 -127.5 -42t-68.5 -121h385
q-31 163 -189 163zM232 1340q0 74 51 124t126 50t126 -50t51 -124t-51 -124t-126 -50t-126 50t-51 124zM652 1340q0 74 51 124t126 50t126 -50t51 -124t-51 -124t-126 -50t-126 50t-51 124z" />
    <glyph glyph-name="afii10099" unicode="&#x452;" horiz-adv-x="1265" 
d="M20 1137v197h126v126h369v-126h247v-197h-247v-202q41 58 108.5 91.5t144.5 33.5q172 0 285 -113.5t113 -287.5v-761q0 -169 -117.5 -265.5t-319.5 -96.5q-76 0 -137 14v265q41 -7 97 -7q53 0 80.5 25t27.5 71v696q0 58 -38.5 98.5t-102.5 40.5q-43 0 -82 -26.5
t-59 -65.5v-647h-369v1137h-126z" />
    <glyph glyph-name="afii10100" unicode="&#x453;" horiz-adv-x="864" 
d="M823 715h-335v-715h-369v1036h704v-321zM192 1184l238 342h371l-267 -342h-342z" />
    <glyph glyph-name="afii10101" unicode="&#x454;" horiz-adv-x="1126" 
d="M641 -24q-163 0 -297.5 71.5t-211 196t-76.5 274.5t76.5 274.5t211 196t297.5 71.5q242 0 412 -152l-163 -235q-126 103 -243 103q-76 0 -137 -40.5t-90 -107.5h372v-225h-370q30 -65 90 -104.5t135 -39.5q122 0 253 115l183 -217q-81 -86 -195 -133.5t-247 -47.5z" />
    <glyph glyph-name="afii10102" unicode="&#x455;" horiz-adv-x="958" 
d="M48 148l156 209q48 -53 115.5 -83t139.5 -30q47 0 73.5 16.5t26.5 45.5q0 31 -31.5 52t-108.5 37q-158 35 -245.5 124.5t-87.5 219.5q0 140 111 230.5t283 90.5q104 0 205 -38.5t183 -104.5l-152 -208q-100 83 -200 83q-37 0 -58 -15.5t-21 -41.5q0 -62 125 -88
q173 -36 260.5 -123.5t87.5 -218.5q0 -143 -118 -236t-302 -93q-134 0 -250.5 45.5t-191.5 126.5z" />
    <glyph glyph-name="afii10103" unicode="&#x456;" horiz-adv-x="600" 
d="M115 0v1036h370v-1036h-370zM95 1301q0 82 59 137t146 55t146 -55t59 -137q0 -81 -59 -136t-146 -55t-146 55t-59 136z" />
    <glyph glyph-name="afii10104" unicode="&#x457;" horiz-adv-x="600" 
d="M115 0v1036h370v-1036h-370zM-87 1340q0 74 51 124t126 50t126 -50t51 -124t-51 -124t-126 -50t-126 50t-51 124zM333 1340q0 74 51 124t126 50t126 -50t51 -124t-51 -124t-126 -50t-126 50t-51 124z" />
    <glyph glyph-name="afii10105" unicode="&#x458;" horiz-adv-x="600" 
d="M115 -54v1090h370v-1140q0 -165 -105.5 -262.5t-281.5 -97.5q-72 0 -132 14v303h56q93 0 93 93zM95 1301q0 82 59 137t146 55t146 -55t59 -137q0 -81 -59 -136t-146 -55t-146 55t-59 136z" />
    <glyph glyph-name="afii10106" unicode="&#x459;" horiz-adv-x="1745" 
d="M1118 248h105q52 0 86 32.5t34 82.5t-34 82.5t-86 32.5h-105v-230zM1288 0h-518v730h-186v-396q0 -153 -118 -247.5t-299 -94.5q-77 0 -126 8v314h53q55 0 88 31t33 84v607h903v-309h170q170 0 286.5 -105.5t116.5 -258.5t-116.5 -258t-286.5 -105z" />
    <glyph glyph-name="afii10107" unicode="&#x45a;" horiz-adv-x="1733" 
d="M1106 248h105q52 0 86 32.5t34 82.5t-34 82.5t-86 32.5h-105v-230zM1276 0h-518v379h-270v-379h-369v1036h369v-344h270v344h348v-309h170q170 0 286.5 -105.5t116.5 -258.5t-116.5 -258t-286.5 -105z" />
    <glyph glyph-name="afii10108" unicode="&#x45b;" horiz-adv-x="1265" 
d="M20 1137v197h126v126h369v-126h247v-197h-247v-202q41 58 108.5 91.5t144.5 33.5q172 0 285 -113.5t113 -287.5v-659h-369v600q0 58 -38.5 98.5t-102.5 40.5q-43 0 -82 -26.5t-59 -65.5v-647h-369v1137h-126z" />
    <glyph glyph-name="afii10109" unicode="&#x45c;" horiz-adv-x="1139" 
d="M732 0l-183 403h-61v-403h-369v1036h369v-317h67l151 317h394l-252 -478l279 -558h-395zM315 1184l238 342h371l-267 -342h-342z" />
    <glyph glyph-name="uni045D" unicode="&#x45d;" horiz-adv-x="1258" 
d="M1139 1036v-1036h-358v508l-346 -508h-316v1036h358v-508l346 508h316zM614 1526l238 -342h-342l-267 342h371z" />
    <glyph glyph-name="afii10110" unicode="&#x45e;" horiz-adv-x="1110" 
d="M572 -464h-388l193 464l-360 1036h386l151 -567l153 567h386zM554 1164q-153 0 -266 89t-117 225h286q2 -41 29.5 -67.5t67.5 -26.5t67.5 26.5t29.5 67.5h286q-4 -136 -117 -225t-266 -89z" />
    <glyph glyph-name="afii10193" unicode="&#x45f;" horiz-adv-x="1258" 
d="M814 0v-280h-369v280h-326v1036h369v-723h282v723h369v-1036h-325z" />
    <glyph glyph-name="afii10050" unicode="&#x490;" horiz-adv-x="1061" 
d="M695 1400v280h341v-607h-516v-1073h-380v1400h555z" />
    <glyph glyph-name="afii10098" unicode="&#x491;" horiz-adv-x="869" 
d="M495 1036v280h333v-601h-340v-715h-369v1036h376z" />
    <glyph glyph-name="Wgrave" unicode="&#x1e80;" horiz-adv-x="1996" 
d="M807 1400h382l203 -904l194 904h390l-368 -1400h-390l-220 888l-220 -888h-390l-368 1400h390l194 -904zM971 1850l238 -342h-342l-267 342h371z" />
    <glyph glyph-name="wgrave" unicode="&#x1e81;" horiz-adv-x="1630" 
d="M637 1036h356l124 -603l125 603h371l-294 -1036h-378l-126 534l-126 -534h-378l-294 1036h371l125 -603zM785 1526l238 -342h-342l-267 342h371z" />
    <glyph glyph-name="Wacute" unicode="&#x1e82;" horiz-adv-x="1996" 
d="M807 1400h382l203 -904l194 904h390l-368 -1400h-390l-220 888l-220 -888h-390l-368 1400h390l194 -904zM788 1508l238 342h371l-267 -342h-342z" />
    <glyph glyph-name="wacute" unicode="&#x1e83;" horiz-adv-x="1630" 
d="M637 1036h356l124 -603l125 603h371l-294 -1036h-378l-126 534l-126 -534h-378l-294 1036h371l125 -603zM606 1184l238 342h371l-267 -342h-342z" />
    <glyph glyph-name="Wdieresis" unicode="&#x1e84;" horiz-adv-x="1996" 
d="M807 1400h382l203 -904l194 904h390l-368 -1400h-390l-220 888l-220 -888h-390l-368 1400h390l194 -904zM611 1664q0 74 51 124t126 50t126 -50t51 -124t-51 -124t-126 -50t-126 50t-51 124zM1031 1664q0 74 51 124t126 50t126 -50t51 -124t-51 -124t-126 -50t-126 50
t-51 124z" />
    <glyph glyph-name="wdieresis" unicode="&#x1e85;" horiz-adv-x="1630" 
d="M637 1036h356l124 -603l125 603h371l-294 -1036h-378l-126 534l-126 -534h-378l-294 1036h371l125 -603zM428 1340q0 74 51 124t126 50t126 -50t51 -124t-51 -124t-126 -50t-126 50t-51 124zM848 1340q0 74 51 124t126 50t126 -50t51 -124t-51 -124t-126 -50t-126 50
t-51 124z" />
    <glyph glyph-name="Ygrave" unicode="&#x1ef2;" horiz-adv-x="1328" 
d="M432 1400l232 -506l232 506h412l-454 -856v-544h-380v544l-454 856h412zM637 1850l238 -342h-342l-267 342h371z" />
    <glyph glyph-name="ygrave" unicode="&#x1ef3;" horiz-adv-x="1110" 
d="M572 -464h-388l193 464l-360 1036h386l151 -567l153 567h386zM523 1526l238 -342h-342l-267 342h371z" />
    <glyph glyph-name="thinspace" unicode="&#x2009;" horiz-adv-x="400" 
 />
    <glyph glyph-name="uni2010" unicode="&#x2010;" horiz-adv-x="860" 
d="M746 498h-632v331h632v-331z" />
    <glyph glyph-name="figuredash" unicode="&#x2012;" horiz-adv-x="1200" 
d="M1100 499h-1000v330h1000v-330z" />
    <glyph glyph-name="endash" unicode="&#x2013;" horiz-adv-x="1000" 
d="M1000 499h-1000v330h1000v-330z" />
    <glyph glyph-name="emdash" unicode="&#x2014;" horiz-adv-x="2000" 
d="M2000 499h-2000v330h2000v-330z" />
    <glyph glyph-name="afii00208" unicode="&#x2015;" horiz-adv-x="2000" 
d="M1800 499h-1600v330h1600v-330z" />
    <glyph glyph-name="uni2016" unicode="&#x2016;" horiz-adv-x="1065" 
d="M140 -280v1780h342v-1780h-342zM583 -280v1780h342v-1780h-342z" />
    <glyph glyph-name="underscoredbl" unicode="&#x2017;" horiz-adv-x="1200" 
d="M100 -499v247h1000v-247h-1000zM100 -192v247h1000v-247h-1000z" />
    <glyph glyph-name="quoteleft" unicode="&#x2018;" horiz-adv-x="609" 
d="M517 1130q0 -86 -60 -144t-152 -58t-152.5 58t-60.5 144q0 48 22 95l157 333h236l-112 -244q57 -23 89.5 -72t32.5 -112z" />
    <glyph glyph-name="quoteright" unicode="&#x2019;" horiz-adv-x="609" 
d="M92 1356q0 86 60 144t152 58t152.5 -58t60.5 -144q0 -48 -22 -95l-157 -333h-236l112 244q-57 23 -89.5 72t-32.5 112z" />
    <glyph glyph-name="quotesinglbase" unicode="&#x201a;" horiz-adv-x="609" 
d="M92 178q0 86 60 144t152 58t152.5 -58t60.5 -144q0 -48 -22 -95l-157 -333h-236l112 244q-57 23 -89.5 72t-32.5 112z" />
    <glyph glyph-name="quotereversed" unicode="&#x201b;" horiz-adv-x="609" 
d="M517 1356q0 -63 -32.5 -112t-89.5 -72l112 -244h-236l-157 333q-22 47 -22 95q0 86 60.5 144t152.5 58t152 -58t60 -144z" />
    <glyph glyph-name="quotedblleft" unicode="&#x201c;" horiz-adv-x="1071" 
d="M979 1130q0 -86 -60 -144t-152 -58t-152.5 58t-60.5 144q0 48 22 95l157 333h236l-112 -244q57 -23 89.5 -72t32.5 -112zM517 1130q0 -86 -60 -144t-152 -58t-152.5 58t-60.5 144q0 48 22 95l157 333h236l-112 -244q57 -23 89.5 -72t32.5 -112z" />
    <glyph glyph-name="quotedblright" unicode="&#x201d;" horiz-adv-x="1071" 
d="M554 1356q0 86 60 144t152 58t152.5 -58t60.5 -144q0 -48 -22 -95l-157 -333h-236l112 244q-57 23 -89.5 72t-32.5 112zM92 1356q0 86 60 144t152 58t152.5 -58t60.5 -144q0 -48 -22 -95l-157 -333h-236l112 244q-57 23 -89.5 72t-32.5 112z" />
    <glyph glyph-name="quotedblbase" unicode="&#x201e;" horiz-adv-x="1071" 
d="M92 178q0 86 60 144t152 58t152.5 -58t60.5 -144q0 -48 -22 -95l-157 -333h-236l112 244q-57 23 -89.5 72t-32.5 112zM554 178q0 86 60 144t152 58t152.5 -58t60.5 -144q0 -48 -22 -95l-157 -333h-236l112 244q-57 23 -89.5 72t-32.5 112z" />
    <glyph glyph-name="uni201F" unicode="&#x201f;" horiz-adv-x="1071" 
d="M517 1356q0 -63 -32.5 -112t-89.5 -72l112 -244h-236l-157 333q-22 47 -22 95q0 86 60.5 144t152.5 58t152 -58t60 -144zM979 1356q0 -63 -32.5 -112t-89.5 -72l112 -244h-236l-157 333q-22 47 -22 95q0 86 60.5 144t152.5 58t152 -58t60 -144z" />
    <glyph glyph-name="dagger" unicode="&#x2020;" horiz-adv-x="1137" 
d="M383 -262v1134h-281v314h281v310h371v-310h281v-314h-281v-1134h-371z" />
    <glyph glyph-name="daggerdbl" unicode="&#x2021;" horiz-adv-x="1137" 
d="M102 48v314h281v510h-281v314h281v310h371v-310h281v-314h-281v-510h281v-314h-281v-310h-371v310h-281z" />
    <glyph glyph-name="bullet" unicode="&#x2022;" horiz-adv-x="800" 
d="M91 664q0 128 89.5 217.5t219.5 89.5q129 0 219 -89.5t90 -217.5q0 -129 -90 -218t-219 -89q-130 0 -219.5 89t-89.5 218z" />
    <glyph glyph-name="onedotenleader" unicode="&#x2024;" horiz-adv-x="609" 
d="M92 178q0 86 60 144t152 58t152.5 -58t60.5 -144t-60.5 -144t-152.5 -58t-152 58t-60 144z" />
    <glyph glyph-name="twodotenleader" unicode="&#x2025;" horiz-adv-x="1218" 
d="M92 178q0 86 60 144t152 58t152.5 -58t60.5 -144t-60.5 -144t-152.5 -58t-152 58t-60 144zM701 178q0 86 60 144t152 58t152.5 -58t60.5 -144t-60.5 -144t-152.5 -58t-152 58t-60 144z" />
    <glyph glyph-name="ellipsis" unicode="&#x2026;" horiz-adv-x="1827" 
d="M92 178q0 86 60 144t152 58t152.5 -58t60.5 -144t-60.5 -144t-152.5 -58t-152 58t-60 144zM1310 178q0 86 60 144t152 58t152.5 -58t60.5 -144t-60.5 -144t-152.5 -58t-152 58t-60 144zM701 178q0 86 60 144t152 58t152.5 -58t60.5 -144t-60.5 -144t-152.5 -58t-152 58
t-60 144z" />
    <glyph glyph-name="perthousand" unicode="&#x2030;" horiz-adv-x="2597" 
d="M404 0l721 1400h267l-721 -1400h-267zM358 1050q0 -44 27.5 -73.5t69.5 -29.5t69.5 29.5t27.5 73.5t-27.5 73.5t-69.5 29.5t-69.5 -29.5t-27.5 -73.5zM81 1050q0 153 108 258.5t266 105.5t266 -105.5t108 -258.5t-108 -258.5t-266 -105.5t-266 105.5t-108 258.5z
M1244 350q0 -44 27.5 -73.5t69.5 -29.5t69.5 29.5t27.5 73.5t-27.5 73.5t-69.5 29.5t-69.5 -29.5t-27.5 -73.5zM967 350q0 153 108 258.5t266 105.5t266 -105.5t108 -258.5t-108 -258.5t-266 -105.5t-266 105.5t-108 258.5zM2045 350q0 -44 27.5 -73.5t69.5 -29.5t69.5 29.5
t27.5 73.5t-27.5 73.5t-69.5 29.5t-69.5 -29.5t-27.5 -73.5zM1768 350q0 153 108 258.5t266 105.5t266 -105.5t108 -258.5t-108 -258.5t-266 -105.5t-266 105.5t-108 258.5z" />
    <glyph glyph-name="minute" unicode="&#x2032;" horiz-adv-x="660" 
d="M56 1028l175 372h393l-226 -372h-342z" />
    <glyph glyph-name="second" unicode="&#x2033;" horiz-adv-x="1130" 
d="M56 1028l175 372h393l-226 -372h-342zM526 1028l175 372h393l-226 -372h-342z" />
    <glyph glyph-name="guilsinglleft" unicode="&#x2039;" horiz-adv-x="760" 
d="M76 539v168l590 360v-283l-280 -161l280 -161v-283z" />
    <glyph glyph-name="guilsinglright" unicode="&#x203a;" horiz-adv-x="760" 
d="M684 707v-168l-590 -360v283l280 161l-280 161v283z" />
    <glyph glyph-name="exclamdbl" unicode="&#x203c;" horiz-adv-x="1168" 
d="M127 449v951h380v-951h-380zM94 176q0 85 64 143t159 58t159 -58t64 -143q0 -84 -64 -142t-159 -58t-159 58t-64 142zM661 449v951h380v-951h-380zM628 176q0 85 64 143t159 58t159 -58t64 -143q0 -84 -64 -142t-159 -58t-159 58t-64 142z" />
    <glyph glyph-name="uni203E" unicode="&#x203e;" horiz-adv-x="870" 
d="M105 1155v266h660v-266h-660z" />
    <glyph glyph-name="fraction" unicode="&#x2044;" horiz-adv-x="330" 
d="M-310 0l683 1400h267l-683 -1400h-267z" />
    <glyph glyph-name="zerosuperior" unicode="&#x2070;" 
d="M47 926q0 223 95 360.5t266 137.5t266 -137.5t95 -360.5t-95 -360.5t-266 -137.5t-266 137.5t-95 360.5zM320 926q0 -118 23 -185t65 -67t65 67t23 185t-23 185t-65 67t-65 -67t-23 -185z" />
    <glyph glyph-name="uni2071" unicode="&#x2071;" 
d="M276 452v670h264v-670h-264zM260 1297q0 57 42.5 96.5t105.5 39.5t105.5 -39.5t42.5 -96.5t-42.5 -96t-105.5 -39t-105.5 39t-42.5 96z" />
    <glyph glyph-name="foursuperior" unicode="&#x2074;" 
d="M29 605v205l391 590h249v-572h100v-223h-100v-153h-261v153h-379zM258 827h150v226z" />
    <glyph glyph-name="fivesuperior" unicode="&#x2075;" 
d="M391 428q-109 0 -199 43.5t-148 122.5l174 167q73 -94 152 -94q39 0 69.5 30t30.5 70q0 43 -28 71t-69 28q-45 0 -74 -38l-207 27l65 545h562v-235h-303l-13 -96q146 0 248.5 -86.5t102.5 -223.5q0 -143 -102 -237t-261 -94z" />
    <glyph glyph-name="sixsuperior" unicode="&#x2076;" 
d="M693 1400l-209 -322q124 -20 207.5 -105t83.5 -211q0 -143 -106.5 -238.5t-260.5 -95.5t-261 95.5t-107 238.5q0 96 49 171l306 467h298zM310 764q0 -45 27.5 -74t69.5 -29t70 29t28 74q0 44 -28 73.5t-70 29.5q-41 0 -69 -29.5t-28 -73.5z" />
    <glyph glyph-name="sevensuperior" unicode="&#x2077;" 
d="M83 1400h652v-206l-303 -742h-298l297 707h-348v241z" />
    <glyph glyph-name="eightsuperior" unicode="&#x2078;" 
d="M313 749q0 -43 27.5 -71.5t67.5 -28.5t67.5 28.5t27.5 71.5t-27.5 71.5t-67.5 28.5t-67.5 -28.5t-27.5 -71.5zM731 1142q0 -54 -24.5 -101.5t-67.5 -77.5q61 -33 95.5 -96t34.5 -129q0 -132 -103.5 -221t-257.5 -89t-257.5 89t-103.5 221q0 66 34.5 129t95.5 96
q-43 30 -67.5 77.5t-24.5 101.5q0 118 92.5 200t230.5 82t230.5 -82t92.5 -200zM338 1135q0 -30 20 -51.5t50 -21.5t50 21.5t20 51.5t-20 50.5t-50 20.5t-50 -20.5t-20 -50.5z" />
    <glyph glyph-name="ninesuperior" unicode="&#x2079;" 
d="M123 452l209 322q-124 20 -207.5 105t-83.5 211q0 143 106.5 238.5t260.5 95.5t261 -95.5t107 -238.5q0 -96 -49 -171l-306 -467h-298zM506 1088q0 45 -27.5 74t-69.5 29t-70 -29t-28 -74q0 -44 28 -73.5t70 -29.5q41 0 69 29.5t28 73.5z" />
    <glyph glyph-name="uni207A" unicode="&#x207a;" 
d="M274 602v203h-202v241h202v203h269v-203h201v-241h-201v-203h-269z" />
    <glyph glyph-name="uni207B" unicode="&#x207b;" 
d="M744 805h-672v241h672v-241z" />
    <glyph glyph-name="uni207C" unicode="&#x207c;" 
d="M744 645h-672v233h672v-233zM744 973h-672v233h672v-233z" />
    <glyph glyph-name="uni207D" unicode="&#x207d;" 
d="M262 926q0 164 64 321t176 278l192 -126q-161 -212 -161 -473q0 -262 161 -474l-192 -126q-112 121 -176 278t-64 322z" />
    <glyph glyph-name="uni207E" unicode="&#x207e;" 
d="M554 926q0 -165 -64 -322t-176 -278l-192 126q161 212 161 474q0 261 -161 473l192 126q112 -121 176 -278t64 -321z" />
    <glyph glyph-name="uni207F" unicode="&#x207f;" 
d="M341 865v-413h-260v670h260v-49q55 63 138 63q112 0 186 -74.5t74 -187.5v-422h-261v385q0 32 -19.5 53t-49.5 21q-44 0 -68 -46z" />
    <glyph glyph-name="zeroinferior" unicode="&#x2080;" 
d="M47 212q0 223 95 360.5t266 137.5t266 -137.5t95 -360.5t-95 -360.5t-266 -137.5t-266 137.5t-95 360.5zM320 212q0 -118 23 -185t65 -67t65 67t23 185t-23 185t-65 67t-65 -67t-23 -185z" />
    <glyph glyph-name="oneinferior" unicode="&#x2081;" 
d="M365 686h241v-948h-284v684l-135 -74l-100 187z" />
    <glyph glyph-name="twoinferior" unicode="&#x2082;" 
d="M619 164l-171 -187h275v-239h-634v215l312 343q52 56 52 106q0 28 -17 46t-44 18q-55 0 -82 -89l-247 76q22 113 112.5 185t221.5 72q144 0 240 -78.5t96 -199.5q0 -143 -114 -268z" />
    <glyph glyph-name="threeinferior" unicode="&#x2083;" 
d="M457 49q0 41 -27.5 69t-67.5 28q-27 0 -50 -14l-109 135l174 184h-280v235h600v-221l-164 -162q100 -34 155 -109t55 -176q0 -127 -105 -215.5t-262 -88.5q-106 0 -195.5 45.5t-138.5 126.5l166 166q70 -100 154 -100q40 0 67.5 28t27.5 69z" />
    <glyph glyph-name="fourinferior" unicode="&#x2084;" 
d="M29 -109v205l391 590h249v-572h100v-223h-100v-153h-261v153h-379zM258 113h150v226z" />
    <glyph glyph-name="fiveinferior" unicode="&#x2085;" 
d="M391 -286q-109 0 -199 43.5t-148 122.5l174 167q73 -94 152 -94q39 0 69.5 30t30.5 70q0 43 -28 71t-69 28q-45 0 -74 -38l-207 27l65 545h562v-235h-303l-13 -96q146 0 248.5 -86.5t102.5 -223.5q0 -143 -102 -237t-261 -94z" />
    <glyph glyph-name="sixinferior" unicode="&#x2086;" 
d="M693 686l-209 -322q124 -20 207.5 -105t83.5 -211q0 -143 -106.5 -238.5t-260.5 -95.5t-261 95.5t-107 238.5q0 96 49 171l306 467h298zM310 50q0 -45 27.5 -74t69.5 -29t70 29t28 74q0 44 -28 73.5t-70 29.5q-41 0 -69 -29.5t-28 -73.5z" />
    <glyph glyph-name="seveninferior" unicode="&#x2087;" 
d="M83 686h652v-206l-303 -742h-298l297 707h-348v241z" />
    <glyph glyph-name="eightinferior" unicode="&#x2088;" 
d="M313 35q0 -43 27.5 -71.5t67.5 -28.5t67.5 28.5t27.5 71.5t-27.5 71.5t-67.5 28.5t-67.5 -28.5t-27.5 -71.5zM731 428q0 -54 -24.5 -101.5t-67.5 -77.5q61 -33 95.5 -96t34.5 -129q0 -132 -103.5 -221t-257.5 -89t-257.5 89t-103.5 221q0 66 34.5 129t95.5 96
q-43 30 -67.5 77.5t-24.5 101.5q0 118 92.5 200t230.5 82t230.5 -82t92.5 -200zM338 421q0 -30 20 -51.5t50 -21.5t50 21.5t20 51.5t-20 50.5t-50 20.5t-50 -20.5t-20 -50.5z" />
    <glyph glyph-name="nineinferior" unicode="&#x2089;" 
d="M123 -262l209 322q-124 20 -207.5 105t-83.5 211q0 143 106.5 238.5t260.5 95.5t261 -95.5t107 -238.5q0 -96 -49 -171l-306 -467h-298zM506 374q0 45 -27.5 74t-69.5 29t-70 -29t-28 -74q0 -44 28 -73.5t70 -29.5q41 0 69 29.5t28 73.5z" />
    <glyph glyph-name="uni208A" unicode="&#x208a;" 
d="M274 -112v203h-202v241h202v203h269v-203h201v-241h-201v-203h-269z" />
    <glyph glyph-name="uni208B" unicode="&#x208b;" 
d="M744 91h-672v241h672v-241z" />
    <glyph glyph-name="uni208C" unicode="&#x208c;" 
d="M744 -69h-672v233h672v-233zM744 259h-672v233h672v-233z" />
    <glyph glyph-name="uni208D" unicode="&#x208d;" 
d="M262 212q0 164 64 321t176 278l192 -126q-161 -212 -161 -473q0 -262 161 -474l-192 -126q-112 121 -176 278t-64 322z" />
    <glyph glyph-name="uni208E" unicode="&#x208e;" 
d="M554 212q0 -165 -64 -322t-176 -278l-192 126q161 212 161 474q0 261 -161 473l192 126q112 -121 176 -278t64 -321z" />
    <glyph glyph-name="uni2090" unicode="&#x2090;" 
d="M504 3v122q-14 29 -42.5 47t-64.5 18q-51 0 -85 -36t-34 -90t34 -90t85 -36q36 0 64.5 18t42.5 47zM504 -272v50q-30 -29 -75 -46.5t-93 -17.5q-132 0 -221.5 100.5t-89.5 249.5q0 148 89.5 249t221.5 101q48 0 93 -17.5t75 -46.5v50h253v-672h-253z" />
    <glyph glyph-name="uni2091" unicode="&#x2091;" 
d="M306 -6q24 -94 124 -94q87 0 165 73l129 -131q-116 -128 -300 -128q-164 0 -270 100.5t-106 249.5q0 148 106 249t261 101q151 0 252 -98.5t101 -242.5q0 -38 -12 -79h-450zM411 226q-82 0 -103 -81h201q-18 81 -98 81z" />
    <glyph glyph-name="uni2092" unicode="&#x2092;" 
d="M35 64q0 149 107 249.5t266 100.5t266 -100.5t107 -249.5t-107 -249.5t-266 -100.5t-266 100.5t-107 249.5zM288 64q0 -53 34.5 -89.5t85.5 -36.5t85.5 36.5t34.5 89.5t-34.5 89.5t-85.5 36.5t-85.5 -36.5t-34.5 -89.5z" />
    <glyph glyph-name="uni2093" unicode="&#x2093;" 
d="M67 400h280l61 -156l61 156h280l-178 -329l194 -343h-280l-77 174l-77 -174h-280l194 343z" />
    <glyph glyph-name="uni2094" unicode="&#x2094;" 
d="M510 134q-24 94 -124 94q-87 0 -165 -73l-129 131q116 128 300 128q164 0 270 -100.5t106 -249.5q0 -148 -106 -249t-261 -101q-151 0 -252 98.5t-101 242.5q0 38 12 79h450zM405 -98q82 0 103 81h-201q18 -81 98 -81z" />
    <glyph glyph-name="uni20A0" unicode="&#x20a0;" horiz-adv-x="1597" 
d="M591 422q-149 0 -272 66t-193 180.5t-70 253.5q0 212 154 357t381 145q206 0 375 -141l-158 -233q-115 94 -210 94q-88 0 -147 -63t-59 -159q0 -95 59 -158t147 -63q116 0 200 79v190h670v-251h-356v-111h326v-240h-326v-117h368v-251h-682v477q-96 -55 -207 -55z" />
    <glyph glyph-name="colonmonetary" unicode="&#x20a1;" horiz-adv-x="1407" 
d="M990 1604h175l-42 -233q110 -41 209 -120l-178 -254q-52 40 -87 59l-135 -761q136 30 233 121l186 -253q-199 -171 -474 -185l-32 -182h-174l33 190q-31 4 -83 16l-36 -206h-175l48 269q-178 93 -282.5 261t-104.5 374q0 271 175.5 469.5t449.5 242.5l34 192h175
l-32 -182q40 -1 84 -8zM429 700q0 -156 94 -269l111 633q-94 -53 -149.5 -149.5t-55.5 -214.5zM818 1117l-142 -805q39 -16 81 -24l146 824q-35 6 -71 6q-10 0 -14 -1z" />
    <glyph glyph-name="uni20A2" unicode="&#x20a2;" horiz-adv-x="1407" 
d="M832 -24q-212 0 -387 95.5t-274.5 261.5t-99.5 367t99.5 367t274.5 261.5t387 95.5q287 0 500 -173l-178 -254q-63 55 -147 88t-175 33q-169 0 -286 -121t-117 -297q0 -122 60 -221.5t160 -150.5v517h298v-76q64 90 157 90q51 0 92 -23l-25 -235q-48 22 -85 22
q-90 0 -139 -93v-231q128 32 218 117l186 -253q-217 -187 -519 -187z" />
    <glyph glyph-name="franc" unicode="&#x20a3;" horiz-adv-x="1135" 
d="M857 417h-282v-417h-380v417h-168v169h168v76h-168v170h168v568h892v-324h-512v-244h282v-170h-282v-76h282v-169z" />
    <glyph glyph-name="lira" unicode="&#x20a4;" horiz-adv-x="1177" 
d="M266 439h-197v160h208q-5 25 -16 69h-192v160h129q-38 101 -38 194q0 168 134.5 285t329.5 117q151 0 268.5 -72.5t165.5 -185.5l-314 -169q-42 99 -120 99q-39 0 -64.5 -27.5t-25.5 -69.5q0 -70 43 -171h299v-160h-238q12 -45 15 -69h223v-160h-241q-27 -82 -97 -126
h546v-313h-964v294q110 42 146 145z" />
    <glyph glyph-name="uni20A6" unicode="&#x20a6;" horiz-adv-x="1482" 
d="M167 0v479h-140v182h140v77h-140v183h140v479h413l387 -842v842h348v-479h140v-183h-140v-77h140v-182h-140v-479h-413l-387 842v-842h-348z" />
    <glyph glyph-name="peseta" unicode="&#x20a7;" horiz-adv-x="2411" 
d="M1523 268h451q66 0 66 56q0 29 -24.5 49t-78.5 34q-135 36 -212 124t-77 214q0 138 97 226.5t246 88.5q92 0 179 -39t154 -106l-134 -217q-92 92 -163 92q-24 0 -40 -13t-16 -36q0 -59 91 -82q150 -38 225.5 -123.5t75.5 -212.5q0 -141 -101.5 -232t-262.5 -91h-537
q-177 0 -262.5 85.5t-85.5 241.5v407h-123q-46 -132 -151 -209t-245 -77h-109v-448h-346v1400h455q160 0 273.5 -100.5t145.5 -263.5h100v267l336 34v-301h170v-302h-170v-381q0 -44 17.5 -64.5t55.5 -20.5zM686 924q0 81 -35.5 131.5t-94.5 50.5h-70v-364h70
q59 0 94.5 50.5t35.5 131.5z" />
    <glyph glyph-name="uni20A8" unicode="&#x20a8;" horiz-adv-x="1942" 
d="M140 1400h505q205 0 336.5 -128.5t131.5 -332.5q0 -136 -61 -240.5t-170 -159.5l268 -539h-396l-225 469h-24v-469h-365v1400zM1124 148l138 198q96 -102 230 -102q47 0 74.5 17t27.5 45q0 30 -31 50.5t-104 38.5q-141 34 -219 124t-78 220q0 139 98.5 230t250.5 91
q91 0 182 -38.5t166 -104.5l-136 -200q-88 75 -180 75q-38 0 -60 -15.5t-22 -41.5q0 -60 123 -88q151 -35 230.5 -124t79.5 -218q0 -143 -105 -236t-269 -93q-118 0 -222.5 45.5t-173.5 126.5zM604 1106h-99v-355h99q66 0 106 50.5t40 126.5q0 80 -40 129t-106 49z" />
    <glyph glyph-name="uni20A9" unicode="&#x20a9;" horiz-adv-x="2035" 
d="M2008 468h-258l-123 -468h-390l-219 878l-220 -878h-390l-123 468h-258v182h210l-19 75h-191v182h142l-129 493h391l193 -894l203 894h381l203 -894l193 894h391l-129 -493h142v-182h-191l-19 -75h210v-182z" />
    <glyph glyph-name="afii57636" unicode="&#x20aa;" horiz-adv-x="1780" 
d="M140 0v1400h581q144 0 264 -62t189 -169.5t69 -236.5v-408h-311v355q0 98 -64.5 162.5t-161.5 64.5h-255v-1106h-311zM1640 1400v-1400h-581q-144 0 -264 62t-189 169.5t-69 236.5v408h311v-355q0 -98 64.5 -162.5t161.5 -64.5h255v1106h311z" />
    <glyph glyph-name="dong" unicode="&#x20ab;" horiz-adv-x="1354" 
d="M592 1137v197h251v126h360v-126h131v-197h-131v-1137h-360v88q-56 -52 -134 -82t-162 -30q-137 0 -249.5 72t-177 196.5t-64.5 273.5t64.5 273.5t177 196.5t249.5 72q84 0 162 -30t134 -82v189h-251zM345 -400v266h757v-266h-757zM641 297q68 0 122 34t80 90v194
q-26 56 -80 90t-122 34q-96 0 -159 -63t-63 -158t63 -158t159 -63z" />
    <glyph glyph-name="Euro" unicode="&#x20ac;" horiz-adv-x="1476" 
d="M901 -24q-259 0 -457 139t-270 364h-154v174h121q-1 15 -1 47q0 31 1 47h-121v174h154q72 224 270 363.5t457 139.5q287 0 500 -173l-178 -254q-63 55 -147 88t-175 33q-108 0 -199 -53t-144 -144h459v-174h-517q-2 -16 -2 -47q0 -32 2 -47h517v-174h-459
q53 -91 143.5 -144.5t199.5 -53.5q90 0 180 38t153 97l186 -253q-217 -187 -519 -187z" />
    <glyph glyph-name="afii61248" unicode="&#x2105;" horiz-adv-x="2126" 
d="M825 0h-269l684 1400h269zM531 576q-193 0 -326 123t-133 301q0 177 133 300.5t326 123.5q91 0 179.5 -30t150.5 -83l-156 -223q-86 74 -174 74q-70 0 -117 -47t-47 -115t47 -115t117 -47q95 0 173 70l167 -203q-64 -60 -154.5 -94.5t-185.5 -34.5zM1595 238q70 0 117 47
t47 115t-47 115t-117 47t-117 -47t-47 -115t47 -115t117 -47zM1595 824q192 0 325.5 -123.5t133.5 -300.5t-133.5 -300.5t-325.5 -123.5t-325.5 123.5t-133.5 300.5t133.5 300.5t325.5 123.5z" />
    <glyph glyph-name="uni2109" unicode="&#x2109;" horiz-adv-x="1680" 
d="M730 0v1400h892v-324h-512v-255h464v-324h-464v-497h-380zM40 1131q0 123 89.5 208t220.5 85t220.5 -85t89.5 -208t-89.5 -208t-220.5 -85t-220.5 85t-89.5 208zM266 1131q0 -36 24 -60.5t60 -24.5t60 24.5t24 60.5t-24 60.5t-60 24.5t-60 -24.5t-24 -60.5z" />
    <glyph glyph-name="afii61289" unicode="&#x2113;" horiz-adv-x="1151" 
d="M141 211l-94 274l213 83v493q0 154 120 258.5t295 104.5t295.5 -105t120.5 -258v-42q0 -350 -498 -617v-53q0 -37 23.5 -62t60.5 -25q97 0 149 118l258 -150q-44 -117 -155.5 -185.5t-251.5 -68.5q-151 0 -264 79t-142 202q-56 -21 -130 -46zM593 1050v-302
q89 65 126.5 132.5t37.5 147.5v19q0 39 -23 64.5t-59 25.5q-37 0 -59.5 -24t-22.5 -63z" />
    <glyph glyph-name="afii61352" unicode="&#x2116;" horiz-adv-x="2223" 
d="M140 0v1400h316l377 -772v772h332v-1400h-316l-377 772v-772h-332zM2102 309h-810v271h810v-271zM1578 1034q0 -51 34 -84.5t85 -33.5t85 33.5t34 84.5t-34 85t-85 34t-85 -34t-34 -85zM1272 1034q0 164 123 277t302 113t302 -113t123 -277t-123 -276.5t-302 -112.5
t-302 112.5t-123 276.5z" />
    <glyph glyph-name="uni2117" unicode="&#x2117;" horiz-adv-x="1608" 
d="M869 549h-94v-235h-240v770h334q126 0 211.5 -77t85.5 -191q0 -113 -85.5 -190t-211.5 -77zM925 816q0 38 -26.5 58t-68.5 20h-55v-155h55q42 0 68.5 19.5t26.5 57.5zM80 700q0 149 56.5 283t153.5 231t231 153.5t283 56.5t283 -56.5t231 -153.5t153.5 -231t56.5 -283
t-56.5 -283t-153.5 -231t-231 -153.5t-283 -56.5t-283 56.5t-231 153.5t-153.5 231t-56.5 283zM212 700q0 -165 78.5 -303t214.5 -217.5t299 -79.5t299 79.5t214.5 217.5t78.5 303t-78.5 303t-214.5 217.5t-299 79.5t-299 -79.5t-214.5 -217.5t-78.5 -303z" />
    <glyph glyph-name="uni2120" unicode="&#x2120;" horiz-adv-x="1604" 
d="M49 792l132 146q48 -52 97.5 -83t83.5 -31q31 0 51 15.5t20 40.5q0 53 -103 75q-128 26 -191.5 85.5t-63.5 147.5q0 99 77.5 161.5t201.5 62.5q167 0 287 -122l-122 -148q-103 93 -161 93q-22 0 -36.5 -11t-14.5 -28q0 -25 23 -42t73 -29q263 -61 263 -245
q0 -104 -81.5 -168t-220.5 -64q-86 0 -169.5 38t-145.5 106zM1276 660v375l-99 -173h-140l-99 173v-375h-227v740h210l186 -304l186 304h210v-740h-227z" />
    <glyph glyph-name="uni2121" unicode="&#x2121;" horiz-adv-x="2302" 
d="M1150 421q10 -87 51 -133.5t105 -46.5q97 0 206 132l178 -206q-140 -191 -390 -191q-144 0 -258.5 71.5t-177.5 195.5t-63 275q0 150 63.5 274.5t175 196t246.5 71.5q133 0 241.5 -70t169 -191t60.5 -266q0 -55 -15 -112h-592zM343 0v1073h-298v327h955v-327h-298v-1073
h-359zM1812 0v1460h350v-1460h-350zM1282 795q-51 0 -85 -42t-45 -121h254q-10 79 -41.5 121t-82.5 42z" />
    <glyph glyph-name="trademark" unicode="&#x2122;" horiz-adv-x="1577" 
d="M214 660v535h-172v205h589v-205h-172v-535h-245zM1249 660v375l-99 -173h-140l-99 173v-375h-227v740h210l186 -304l186 304h210v-740h-227z" />
    <glyph glyph-name="Omega" unicode="&#x2126;" horiz-adv-x="1628" 
d="M1168 728q0 155 -102 261.5t-252 106.5t-252 -106.5t-102 -261.5q0 -139 74.5 -250t208.5 -173v-305h-640v328h227q-125 80 -188 193t-63 250q0 180 97 330t266 236.5t372 86.5t372 -86.5t266 -236.5t97 -330q0 -137 -63 -250t-188 -193h227v-328h-640v305
q134 62 208.5 173t74.5 250z" />
    <glyph glyph-name="estimated" unicode="&#x212e;" horiz-adv-x="1608" 
d="M1528 606h-1108v-269q72 -82 170.5 -127.5t213.5 -45.5q131 0 244 61.5t188 174.5l165 -113q-101 -147 -258 -229t-339 -82q-149 0 -283 56.5t-231 153.5t-153.5 231t-56.5 283t56.5 283t153.5 231t231 153.5t283 56.5t283 -56.5t231 -153.5t153.5 -231t56.5 -283v-94z
M804 1235q-115 0 -213.5 -45.5t-170.5 -127.5v-269h768v269q-154 173 -384 173z" />
    <glyph glyph-name="onethird" unicode="&#x2153;" horiz-adv-x="1960" 
d="M365 1400h241v-948h-284v684l-135 -74l-100 187zM505 0l683 1400h267l-683 -1400h-267zM1602 311q0 41 -27.5 69t-67.5 28q-27 0 -50 -14l-109 135l174 184h-280v235h600v-221l-164 -162q100 -34 155 -109t55 -176q0 -127 -105 -215.5t-262 -88.5q-106 0 -195.5 45.5
t-138.5 126.5l166 166q70 -100 154 -100q40 0 67.5 28t27.5 69z" />
    <glyph glyph-name="twothirds" unicode="&#x2154;" horiz-adv-x="1960" 
d="M619 878l-171 -187h275v-239h-634v215l312 343q52 56 52 106q0 28 -17 46t-44 18q-55 0 -82 -89l-247 76q22 113 112.5 185t221.5 72q144 0 240 -78.5t96 -199.5q0 -143 -114 -268zM505 0l683 1400h267l-683 -1400h-267zM1602 311q0 41 -27.5 69t-67.5 28q-27 0 -50 -14
l-109 135l174 184h-280v235h600v-221l-164 -162q100 -34 155 -109t55 -176q0 -127 -105 -215.5t-262 -88.5q-106 0 -195.5 45.5t-138.5 126.5l166 166q70 -100 154 -100q40 0 67.5 28t27.5 69z" />
    <glyph glyph-name="onefifth" unicode="&#x2155;" horiz-adv-x="1960" 
d="M365 1400h241v-948h-284v684l-135 -74l-100 187zM505 0l683 1400h267l-683 -1400h-267zM1536 -26q-109 0 -199 43.5t-148 122.5l174 167q73 -94 152 -94q39 0 69.5 30t30.5 70q0 43 -28 71t-69 28q-45 0 -74 -38l-207 27l65 545h562v-235h-303l-13 -96q146 0 248.5 -86.5
t102.5 -223.5q0 -143 -102 -237t-261 -94z" />
    <glyph glyph-name="twofifths" unicode="&#x2156;" horiz-adv-x="1960" 
d="M619 878l-171 -187h275v-239h-634v215l312 343q52 56 52 106q0 28 -17 46t-44 18q-55 0 -82 -89l-247 76q22 113 112.5 185t221.5 72q144 0 240 -78.5t96 -199.5q0 -143 -114 -268zM505 0l683 1400h267l-683 -1400h-267zM1536 -26q-109 0 -199 43.5t-148 122.5l174 167
q73 -94 152 -94q39 0 69.5 30t30.5 70q0 43 -28 71t-69 28q-45 0 -74 -38l-207 27l65 545h562v-235h-303l-13 -96q146 0 248.5 -86.5t102.5 -223.5q0 -143 -102 -237t-261 -94z" />
    <glyph glyph-name="threefifths" unicode="&#x2157;" horiz-adv-x="1960" 
d="M457 763q0 41 -27.5 69t-67.5 28q-27 0 -50 -14l-109 135l174 184h-280v235h600v-221l-164 -162q100 -34 155 -109t55 -176q0 -127 -105 -215.5t-262 -88.5q-106 0 -195.5 45.5t-138.5 126.5l166 166q70 -100 154 -100q40 0 67.5 28t27.5 69zM505 0l683 1400h267
l-683 -1400h-267zM1536 -26q-109 0 -199 43.5t-148 122.5l174 167q73 -94 152 -94q39 0 69.5 30t30.5 70q0 43 -28 71t-69 28q-45 0 -74 -38l-207 27l65 545h562v-235h-303l-13 -96q146 0 248.5 -86.5t102.5 -223.5q0 -143 -102 -237t-261 -94z" />
    <glyph glyph-name="fourfifths" unicode="&#x2158;" horiz-adv-x="1960" 
d="M29 605v205l391 590h249v-572h100v-223h-100v-153h-261v153h-379zM258 827h150v226zM505 0l683 1400h267l-683 -1400h-267zM1536 -26q-109 0 -199 43.5t-148 122.5l174 167q73 -94 152 -94q39 0 69.5 30t30.5 70q0 43 -28 71t-69 28q-45 0 -74 -38l-207 27l65 545h562
v-235h-303l-13 -96q146 0 248.5 -86.5t102.5 -223.5q0 -143 -102 -237t-261 -94z" />
    <glyph glyph-name="onesixth" unicode="&#x2159;" horiz-adv-x="1960" 
d="M365 1400h241v-948h-284v684l-135 -74l-100 187zM505 0l683 1400h267l-683 -1400h-267zM1838 948l-209 -322q124 -20 207.5 -105t83.5 -211q0 -143 -106.5 -238.5t-260.5 -95.5t-261 95.5t-107 238.5q0 96 49 171l306 467h298zM1455 312q0 -45 27.5 -74t69.5 -29t70 29
t28 74q0 44 -28 73.5t-70 29.5q-41 0 -69 -29.5t-28 -73.5z" />
    <glyph glyph-name="fivesixths" unicode="&#x215a;" horiz-adv-x="1960" 
d="M391 428q-109 0 -199 43.5t-148 122.5l174 167q73 -94 152 -94q39 0 69.5 30t30.5 70q0 43 -28 71t-69 28q-45 0 -74 -38l-207 27l65 545h562v-235h-303l-13 -96q146 0 248.5 -86.5t102.5 -223.5q0 -143 -102 -237t-261 -94zM505 0l683 1400h267l-683 -1400h-267z
M1838 948l-209 -322q124 -20 207.5 -105t83.5 -211q0 -143 -106.5 -238.5t-260.5 -95.5t-261 95.5t-107 238.5q0 96 49 171l306 467h298zM1455 312q0 -45 27.5 -74t69.5 -29t70 29t28 74q0 44 -28 73.5t-70 29.5q-41 0 -69 -29.5t-28 -73.5z" />
    <glyph glyph-name="oneeighth" unicode="&#x215b;" horiz-adv-x="1960" 
d="M365 1400h241v-948h-284v684l-135 -74l-100 187zM505 0l683 1400h267l-683 -1400h-267zM1458 295q0 -43 27.5 -71.5t67.5 -28.5t67.5 28.5t27.5 71.5t-27.5 71.5t-67.5 28.5t-67.5 -28.5t-27.5 -71.5zM1876 688q0 -54 -24.5 -101.5t-67.5 -77.5q61 -33 95.5 -96
t34.5 -129q0 -132 -103.5 -221t-257.5 -89t-257.5 89t-103.5 221q0 66 34.5 129t95.5 96q-43 30 -67.5 77.5t-24.5 101.5q0 118 92.5 200t230.5 82t230.5 -82t92.5 -200zM1483 681q0 -30 20 -51.5t50 -21.5t50 21.5t20 51.5t-20 50.5t-50 20.5t-50 -20.5t-20 -50.5z" />
    <glyph glyph-name="threeeighths" unicode="&#x215c;" horiz-adv-x="1960" 
d="M457 763q0 41 -27.5 69t-67.5 28q-27 0 -50 -14l-109 135l174 184h-280v235h600v-221l-164 -162q100 -34 155 -109t55 -176q0 -127 -105 -215.5t-262 -88.5q-106 0 -195.5 45.5t-138.5 126.5l166 166q70 -100 154 -100q40 0 67.5 28t27.5 69zM505 0l683 1400h267
l-683 -1400h-267zM1458 295q0 -43 27.5 -71.5t67.5 -28.5t67.5 28.5t27.5 71.5t-27.5 71.5t-67.5 28.5t-67.5 -28.5t-27.5 -71.5zM1876 688q0 -54 -24.5 -101.5t-67.5 -77.5q61 -33 95.5 -96t34.5 -129q0 -132 -103.5 -221t-257.5 -89t-257.5 89t-103.5 221q0 66 34.5 129
t95.5 96q-43 30 -67.5 77.5t-24.5 101.5q0 118 92.5 200t230.5 82t230.5 -82t92.5 -200zM1483 681q0 -30 20 -51.5t50 -21.5t50 21.5t20 51.5t-20 50.5t-50 20.5t-50 -20.5t-20 -50.5z" />
    <glyph glyph-name="fiveeighths" unicode="&#x215d;" horiz-adv-x="1960" 
d="M391 428q-109 0 -199 43.5t-148 122.5l174 167q73 -94 152 -94q39 0 69.5 30t30.5 70q0 43 -28 71t-69 28q-45 0 -74 -38l-207 27l65 545h562v-235h-303l-13 -96q146 0 248.5 -86.5t102.5 -223.5q0 -143 -102 -237t-261 -94zM505 0l683 1400h267l-683 -1400h-267z
M1458 295q0 -43 27.5 -71.5t67.5 -28.5t67.5 28.5t27.5 71.5t-27.5 71.5t-67.5 28.5t-67.5 -28.5t-27.5 -71.5zM1876 688q0 -54 -24.5 -101.5t-67.5 -77.5q61 -33 95.5 -96t34.5 -129q0 -132 -103.5 -221t-257.5 -89t-257.5 89t-103.5 221q0 66 34.5 129t95.5 96
q-43 30 -67.5 77.5t-24.5 101.5q0 118 92.5 200t230.5 82t230.5 -82t92.5 -200zM1483 681q0 -30 20 -51.5t50 -21.5t50 21.5t20 51.5t-20 50.5t-50 20.5t-50 -20.5t-20 -50.5z" />
    <glyph glyph-name="seveneighths" unicode="&#x215e;" horiz-adv-x="1960" 
d="M83 1400h652v-206l-303 -742h-298l297 707h-348v241zM505 0l683 1400h267l-683 -1400h-267zM1458 295q0 -43 27.5 -71.5t67.5 -28.5t67.5 28.5t27.5 71.5t-27.5 71.5t-67.5 28.5t-67.5 -28.5t-27.5 -71.5zM1876 688q0 -54 -24.5 -101.5t-67.5 -77.5q61 -33 95.5 -96
t34.5 -129q0 -132 -103.5 -221t-257.5 -89t-257.5 89t-103.5 221q0 66 34.5 129t95.5 96q-43 30 -67.5 77.5t-24.5 101.5q0 118 92.5 200t230.5 82t230.5 -82t92.5 -200zM1483 681q0 -30 20 -51.5t50 -21.5t50 21.5t20 51.5t-20 50.5t-50 20.5t-50 -20.5t-20 -50.5z" />
    <glyph glyph-name="uni215F" unicode="&#x215f;" horiz-adv-x="1960" 
d="M365 1400h241v-948h-284v684l-135 -74l-100 187zM505 0l683 1400h267l-683 -1400h-267z" />
    <glyph glyph-name="arrowleft" unicode="&#x2190;" horiz-adv-x="1720" 
d="M1648 848v-368h-1056v-232l-520 416l520 416v-232h1056z" />
    <glyph glyph-name="arrowup" unicode="&#x2191;" horiz-adv-x="1720" 
d="M1044 -76h-368v1054h-232l416 522l416 -522h-232v-1054z" />
    <glyph glyph-name="arrowright" unicode="&#x2192;" horiz-adv-x="1720" 
d="M72 480v368h1056v232l520 -416l-520 -416v232h-1056z" />
    <glyph glyph-name="arrowdown" unicode="&#x2193;" horiz-adv-x="1720" 
d="M676 1500h368v-1054h232l-416 -522l-416 522h232v1054z" />
    <glyph glyph-name="arrowboth" unicode="&#x2194;" horiz-adv-x="1720" 
d="M592 1080v-232h536v232l520 -416l-520 -416v232h-536v-232l-520 416z" />
    <glyph glyph-name="arrowupdn" unicode="&#x2195;" horiz-adv-x="1720" 
d="M444 446h232v532h-232l416 522l416 -522h-232v-532h232l-416 -522z" />
    <glyph glyph-name="arrowupdnbse" unicode="&#x21a8;" horiz-adv-x="1720" 
d="M444 446h232v532h-232l416 522l416 -522h-232v-532h232l-394 -494h360v-188h-764v188h360z" />
    <glyph glyph-name="partialdiff" unicode="&#x2202;" horiz-adv-x="1250" 
d="M558 935q73 0 139.5 -30t109.5 -82q-16 151 -73.5 215.5t-158.5 64.5q-147 0 -269 -114l-130 282q157 153 401 153q186 0 322.5 -92t207 -255.5t70.5 -380.5q0 -170 -44.5 -307.5t-123.5 -227t-184.5 -137.5t-229.5 -48q-150 0 -274.5 63.5t-196.5 173.5t-72 242
q0 131 70.5 242.5t187 174.5t248.5 63zM595 297q171 0 206 226q-85 91 -206 91q-77 0 -128 -45.5t-51 -113.5t51.5 -113t127.5 -45z" />
    <glyph glyph-name="Delta" unicode="&#x2206;" horiz-adv-x="1396" 
d="M905 1400l471 -1400h-1356l471 1400h414zM698 1007l-207 -698h414z" />
    <glyph glyph-name="product" unicode="&#x220f;" horiz-adv-x="1376" 
d="M1236 1480v-1702h-380v1375h-336v-1375h-380v1702h1096z" />
    <glyph glyph-name="summation" unicode="&#x2211;" horiz-adv-x="1331" 
d="M99 161l458 479l-458 456v384h1132v-324h-715l389 -392v-248l-387 -414h713v-324h-1132v383z" />
    <glyph glyph-name="minus" unicode="&#x2212;" horiz-adv-x="1178" 
d="M1064 501h-950v325h950v-325z" />
    <glyph glyph-name="uni2215" unicode="&#x2215;" horiz-adv-x="330" 
d="M-310 0l683 1400h267l-683 -1400h-267z" />
    <glyph glyph-name="uni2219" unicode="&#x2219;" horiz-adv-x="609" 
d="M92 655q0 86 60 144t152 58t152.5 -58t60.5 -144t-60.5 -144t-152.5 -58t-152 58t-60 144z" />
    <glyph glyph-name="radical" unicode="&#x221a;" horiz-adv-x="1150" 
d="M734 0h-436l-288 750h375l108 -335l274 1125h373z" />
    <glyph glyph-name="infinity" unicode="&#x221e;" horiz-adv-x="1554" 
d="M612 664q-43 51 -82 70.5t-88 19.5q-42 0 -68.5 -25t-26.5 -65t26.5 -65t68.5 -25q49 0 88 19.5t82 70.5zM942 664q43 -51 82 -70.5t88 -19.5q42 0 68.5 25t26.5 65t-26.5 65t-68.5 25q-49 0 -88 -19.5t-82 -70.5zM777 506q-170 -172 -360 -172q-148 0 -248.5 94.5
t-100.5 235.5t100.5 235.5t248.5 94.5q190 0 360 -172q170 172 360 172q148 0 248.5 -94.5t100.5 -235.5t-100.5 -235.5t-248.5 -94.5q-190 0 -360 172z" />
    <glyph glyph-name="orthogonal" unicode="&#x221f;" horiz-adv-x="1240" 
d="M1215 327v-327h-1075v1150h380v-823h695z" />
    <glyph glyph-name="intersection" unicode="&#x2229;" horiz-adv-x="1306" 
d="M653 907q-66 0 -110 -50t-44 -126v-731h-380v743q0 206 155 348.5t379 142.5t379 -142.5t155 -348.5v-743h-380v731q0 76 -44 126t-110 50z" />
    <glyph glyph-name="integral" unicode="&#x222b;" horiz-adv-x="861" 
d="M615 1172v-1274q0 -169 -117.5 -265.5t-319.5 -96.5q-74 0 -137 14v265q42 -7 98 -7q53 0 80 25t27 71v1274q0 169 117.5 265.5t319.5 96.5q74 0 137 -14v-265q-42 7 -98 7q-52 0 -79.5 -25t-27.5 -71z" />
    <glyph glyph-name="approxequal" unicode="&#x2248;" horiz-adv-x="1178" 
d="M587 237q-86 68 -128 68q-58 0 -73 -106l-344 59q25 187 106 286.5t212 99.5q121 0 231 -85q86 -68 128 -68q58 0 73 106l344 -59q-25 -187 -106 -286.5t-212 -99.5q-121 0 -231 85zM587 751q-86 68 -128 68q-58 0 -73 -106l-344 59q25 187 106 286.5t212 99.5
q121 0 231 -85q86 -68 128 -68q58 0 73 106l344 -59q-25 -187 -106 -286.5t-212 -99.5q-121 0 -231 85z" />
    <glyph glyph-name="notequal" unicode="&#x2260;" horiz-adv-x="1178" 
d="M1064 275h-547l-111 -216h-246l111 216h-157v309h316l82 159h-398v309h557l100 193h246l-100 -193h147v-309h-306l-82 -159h388v-309z" />
    <glyph glyph-name="equivalence" unicode="&#x2261;" horiz-adv-x="1178" 
d="M1064 515h-950v297h950v-297zM1064 887h-950v297h950v-297zM1064 143h-950v297h950v-297z" />
    <glyph glyph-name="lessequal" unicode="&#x2264;" horiz-adv-x="1178" 
d="M1064 0h-950v301h950v-301zM114 694v250l947 354v-323l-493 -156l493 -156v-323z" />
    <glyph glyph-name="greaterequal" unicode="&#x2265;" horiz-adv-x="1178" 
d="M1064 0h-950v301h950v-301zM1064 944v-250l-947 -354v323l493 156l-493 156v323z" />
    <glyph glyph-name="house" unicode="&#x2302;" horiz-adv-x="1308" 
d="M461 294h386v296l-193 210l-193 -210v-296zM1196 0h-1084v696l542 576l542 -576v-696z" />
    <glyph glyph-name="revlogicalnot" unicode="&#x2310;" horiz-adv-x="1178" 
d="M474 501v-286h-360v611h950v-325h-590z" />
    <glyph glyph-name="uni2318" unicode="&#x2318;" horiz-adv-x="1648" 
d="M743 565h161v161h-161v-161zM419 913h103v104q0 46 -29 75.5t-74 29.5q-44 0 -73 -29.5t-29 -75.5t29 -75t73 -29zM1126 913h103q44 0 73 29t29 75t-29 75.5t-73 29.5q-45 0 -74 -29.5t-29 -75.5v-104zM522 379h-103q-44 0 -73 -29t-29 -75t29 -75.5t73 -29.5
q45 0 74 29.5t29 75.5v104zM522 573v146h-103q-141 0 -236 85.5t-95 212.5t95 213t236 86q142 0 237 -85.5t95 -213.5v-104h146v104q0 128 95 213.5t237 85.5q141 0 236 -86t95 -213t-95 -212.5t-236 -85.5h-103v-146h103q141 0 236 -85.5t95 -212.5t-95 -213t-236 -86
q-142 0 -237 85.5t-95 213.5v104h-146v-104q0 -128 -95 -213.5t-237 -85.5q-141 0 -236 86t-95 213t95 212.5t236 85.5h103zM1229 379h-103v-104q0 -46 29 -75.5t74 -29.5q44 0 73 29.5t29 75.5t-29 75t-73 29z" />
    <glyph glyph-name="lozenge" unicode="&#x25ca;" horiz-adv-x="1174" 
d="M1105 604l-518 -918l-518 918l518 918zM783 604l-196 381l-196 -381l196 -382z" />
    <glyph glyph-name="H18533" unicode="&#x25cf;" horiz-adv-x="2000" 
d="M324 652q0 137 53.5 262t144.5 216t216 144.5t262 53.5t262 -53.5t216 -144.5t144.5 -216t53.5 -262t-53.5 -262t-144.5 -216t-216 -144.5t-262 -53.5t-262 53.5t-216 144.5t-144.5 216t-53.5 262z" />
    <glyph glyph-name="commaaccent" horiz-adv-x="870" 
d="M488 -458h-335l157 342h386z" />
    <glyph glyph-name="zero.tnum" horiz-adv-x="1148" 
d="M58 700q0 213 58.5 375t176.5 255.5t281 93.5t281 -93.5t176.5 -255.5t58.5 -375t-58.5 -375t-176.5 -255.5t-281 -93.5t-281 93.5t-176.5 255.5t-58.5 375zM422 700q0 -184 38.5 -286t113.5 -102t113.5 102t38.5 286t-38.5 285.5t-113.5 101.5t-113.5 -101.5
t-38.5 -285.5z" />
    <glyph glyph-name="one.tnum" horiz-adv-x="1010" 
d="M439 1400h329v-1400h-379v1054l-213 -117l-134 247z" />
    <glyph glyph-name="two.tnum" horiz-adv-x="1070" 
d="M845 633l-280 -307h431v-326h-906v301l462 508q45 49 65 87.5t20 81.5q0 48 -33 81t-82 33q-98 0 -140 -129l-329 104q32 155 161 256t316 101q206 0 343 -112.5t137 -286.5q0 -210 -165 -392z" />
    <glyph glyph-name="three.tnum" horiz-adv-x="1119" 
d="M667 462q0 68 -47.5 114.5t-117.5 46.5q-39 0 -69 -14l-144 180l276 293h-439v318h856v-311l-258 -253q152 -45 239 -156.5t87 -263.5q0 -184 -150.5 -312t-377.5 -128q-153 0 -279.5 63t-195.5 176l219 220q93 -135 236 -135q70 0 117.5 47t47.5 115z" />
    <glyph glyph-name="four.tnum" horiz-adv-x="1185" 
d="M52 235v299l571 866h343v-849h150v-316h-150v-235h-364v235h-550zM356 550h246v378z" />
    <glyph glyph-name="five.tnum" horiz-adv-x="1138" 
d="M549 -24q-158 0 -286.5 60t-207.5 169l232 226q97 -129 230 -129q70 0 121 47.5t51 117.5q0 71 -48.5 118.5t-119.5 47.5q-78 0 -123 -55l-274 37l95 785h798v-318h-453l-23 -182q32 2 52 2q200 0 338 -127t138 -320q0 -206 -146 -342.5t-374 -136.5z" />
    <glyph glyph-name="six.tnum" horiz-adv-x="1194" 
d="M990 1400l-314 -482q71 -8 136 -30.5t122 -62t99.5 -92t67 -122.5t24.5 -151q0 -136 -71 -247.5t-191.5 -174t-264.5 -62.5q-222 0 -375.5 139t-153.5 345q0 138 72 250l450 690h399zM430 463q0 -74 48 -123.5t119 -49.5q70 0 118.5 49.5t48.5 123.5t-48.5 124t-118.5 50
q-71 0 -119 -49.5t-48 -124.5z" />
    <glyph glyph-name="seven.tnum" horiz-adv-x="1012" 
d="M45 1400h932v-287l-455 -1113h-395l449 1073h-531v327z" />
    <glyph glyph-name="eight.tnum" horiz-adv-x="1174" 
d="M424 438q0 -71 47.5 -117t115.5 -46t115.5 46t47.5 117t-47.5 117.5t-115.5 46.5t-115.5 -46.5t-47.5 -117.5zM1048 1021q0 -84 -40.5 -156t-110.5 -111q97 -43 152.5 -135.5t55.5 -197.5q0 -189 -149 -317t-369 -128t-369 128t-149 317q0 105 55.5 197.5t152.5 135.5
q-70 39 -110.5 111t-40.5 156q0 170 131.5 286.5t329.5 116.5t329.5 -116.5t131.5 -286.5zM464 1009q0 -51 35 -86.5t88 -35.5t88 35.5t35 86.5q0 52 -35 87t-88 35t-88 -35t-35 -87z" />
    <glyph glyph-name="nine.tnum" horiz-adv-x="1194" 
d="M204 0l314 482q-71 8 -136 30.5t-122 62t-99.5 92t-67 122.5t-24.5 151q0 136 71 247.5t191.5 174t264.5 62.5q222 0 375.5 -139t153.5 -345q0 -138 -72 -250l-450 -690h-399zM764 937q0 74 -48 123.5t-119 49.5q-70 0 -118.5 -49.5t-48.5 -123.5t48.5 -124t118.5 -50
q71 0 119 49.5t48 124.5z" />
    <glyph glyph-name="parenleft.case" horiz-adv-x="885" 
d="M189 700q0 269 103.5 515.5t288.5 421.5l252 -167q-128 -156 -196 -354.5t-68 -415.5t68 -415.5t196 -354.5l-252 -167q-185 175 -288.5 421.5t-103.5 515.5z" />
    <glyph glyph-name="parenright.case" horiz-adv-x="885" 
d="M696 700q0 -269 -103.5 -515.5t-288.5 -421.5l-252 167q128 156 196 354.5t68 415.5t-68 415.5t-196 354.5l252 167q185 -175 288.5 -421.5t103.5 -515.5z" />
    <glyph glyph-name="hyphen.case" horiz-adv-x="860" 
d="M746 546h-632v331h632v-331z" />
    <glyph glyph-name="at.case" horiz-adv-x="1948" 
d="M964 539q48 0 84.5 24t55.5 64v174q-19 39 -55.5 63t-84.5 24q-68 0 -113.5 -48.5t-45.5 -125.5q0 -78 45.5 -126.5t113.5 -48.5zM1104 1063v72h310v-551q9 -31 32.5 -47.5t53.5 -16.5q62 0 106.5 70t44.5 181q0 164 -91 308.5t-248.5 231.5t-341.5 87
q-139 0 -263.5 -52.5t-214.5 -142t-142.5 -214t-52.5 -263.5q0 -187 89.5 -340.5t250 -242.5t359.5 -89q258 0 473 147l93 -181q-254 -168 -566 -168q-198 0 -372 67.5t-297 184t-193.5 278.5t-70.5 344q0 242 120.5 443t328.5 316t458 115q194 0 365.5 -68t291 -182
t189 -267t69.5 -319q0 -216 -120 -353.5t-304 -137.5q-89 0 -167.5 39.5t-117.5 104.5q-41 -66 -119.5 -105t-168.5 -39q-170 0 -282.5 127t-112.5 314q0 185 110.5 313t272.5 128q64 0 124 -25t104 -67z" />
    <glyph glyph-name="bracketleft.case" horiz-adv-x="885" 
d="M181 -190v1780h671v-327h-291v-1126h291v-327h-671z" />
    <glyph glyph-name="bracketright.case" horiz-adv-x="885" 
d="M704 1590v-1780h-671v327h291v1126h-291v327h671z" />
    <glyph glyph-name="braceleft.case" horiz-adv-x="885" 
d="M105 537v326q81 0 129 45t48 121v222q0 145 103.5 242t261.5 97h205v-327h-77q-50 0 -81.5 -30t-31.5 -76v-227q0 -88 -46 -148t-131 -82q85 -22 131 -82t46 -148v-227q0 -46 31.5 -76t81.5 -30h77v-327h-205q-158 0 -261.5 97t-103.5 242v222q0 76 -48 121t-129 45z" />
    <glyph glyph-name="braceright.case" horiz-adv-x="885" 
d="M780 863v-326q-81 0 -129 -45t-48 -121v-222q0 -145 -103.5 -242t-261.5 -97h-205v327h77q50 0 81.5 30t31.5 76v227q0 88 46 148t131 82q-85 22 -131 82t-46 148v227q0 46 -31.5 76t-81.5 30h-77v327h205q158 0 261.5 -97t103.5 -242v-222q0 -76 48 -121t129 -45z" />
    <glyph glyph-name="exclamdown.case" horiz-adv-x="634" 
d="M127 0v951h380v-951h-380zM94 1224q0 84 64 142t159 58t159 -58t64 -142q0 -85 -64 -143t-159 -58t-159 58t-64 143z" />
    <glyph glyph-name="guillemotleft.case" horiz-adv-x="1303" 
d="M76 587v168l590 360v-283l-280 -161l280 -161v-283zM619 587v168l590 360v-283l-280 -161l280 -161v-283z" />
    <glyph glyph-name="periodcentered.case" horiz-adv-x="609" 
d="M92 708q0 86 60 144t152 58t152.5 -58t60.5 -144t-60.5 -144t-152.5 -58t-152 58t-60 144z" />
    <glyph glyph-name="guillemotright.case" horiz-adv-x="1303" 
d="M1227 755v-168l-590 -360v283l280 161l-280 161v283zM684 755v-168l-590 -360v283l280 161l-280 161v283z" />
    <glyph glyph-name="questiondown.case" horiz-adv-x="1120" 
d="M819 951v-362q-168 0 -254.5 -46.5t-86.5 -123.5q0 -51 44.5 -83t116.5 -32q130 0 263 107l160 -282q-93 -71 -212 -112t-239 -41q-222 0 -368 126t-146 310q0 141 92 254.5t250 157.5v127h380zM852 1224q0 -85 -63.5 -143t-159.5 -58q-95 0 -159 58t-64 143q0 84 64 142
t159 58t159 -58t64 -142z" />
    <glyph glyph-name="endash.case" horiz-adv-x="1000" 
d="M1000 547h-1000v330h1000v-330z" />
    <glyph glyph-name="emdash.case" horiz-adv-x="2000" 
d="M2000 547h-2000v330h2000v-330z" />
    <glyph glyph-name="bullet.case" horiz-adv-x="800" 
d="M91 712q0 128 89.5 217.5t219.5 89.5q129 0 219 -89.5t90 -217.5q0 -129 -90 -218t-219 -89q-130 0 -219.5 89t-89.5 218z" />
    <glyph glyph-name="guilsinglleft.case" horiz-adv-x="760" 
d="M76 587v168l590 360v-283l-280 -161l280 -161v-283z" />
    <glyph glyph-name="guilsinglright.case" horiz-adv-x="760" 
d="M684 755v-168l-590 -360v283l280 161l-280 161v283z" />
    <glyph glyph-name="zero.numerator" 
d="M47 926q0 223 95 360.5t266 137.5t266 -137.5t95 -360.5t-95 -360.5t-266 -137.5t-266 137.5t-95 360.5zM320 926q0 -118 23 -185t65 -67t65 67t23 185t-23 185t-65 67t-65 -67t-23 -185z" />
    <glyph glyph-name="one.numerator" 
d="M365 1400h241v-948h-284v684l-135 -74l-100 187z" />
    <glyph glyph-name="two.numerator" 
d="M619 878l-171 -187h275v-239h-634v215l312 343q52 56 52 106q0 28 -17 46t-44 18q-55 0 -82 -89l-247 76q22 113 112.5 185t221.5 72q144 0 240 -78.5t96 -199.5q0 -143 -114 -268z" />
    <glyph glyph-name="three.numerator" 
d="M457 763q0 41 -27.5 69t-67.5 28q-27 0 -50 -14l-109 135l174 184h-280v235h600v-221l-164 -162q100 -34 155 -109t55 -176q0 -127 -105 -215.5t-262 -88.5q-106 0 -195.5 45.5t-138.5 126.5l166 166q70 -100 154 -100q40 0 67.5 28t27.5 69z" />
    <glyph glyph-name="four.numerator" 
d="M29 605v205l391 590h249v-572h100v-223h-100v-153h-261v153h-379zM258 827h150v226z" />
    <glyph glyph-name="five.numerator" 
d="M391 428q-109 0 -199 43.5t-148 122.5l174 167q73 -94 152 -94q39 0 69.5 30t30.5 70q0 43 -28 71t-69 28q-45 0 -74 -38l-207 27l65 545h562v-235h-303l-13 -96q146 0 248.5 -86.5t102.5 -223.5q0 -143 -102 -237t-261 -94z" />
    <glyph glyph-name="six.numerator" 
d="M693 1400l-209 -322q124 -20 207.5 -105t83.5 -211q0 -143 -106.5 -238.5t-260.5 -95.5t-261 95.5t-107 238.5q0 96 49 171l306 467h298zM310 764q0 -45 27.5 -74t69.5 -29t70 29t28 74q0 44 -28 73.5t-70 29.5q-41 0 -69 -29.5t-28 -73.5z" />
    <glyph glyph-name="seven.numerator" 
d="M83 1400h652v-206l-303 -742h-298l297 707h-348v241z" />
    <glyph glyph-name="eight.numerator" 
d="M313 749q0 -43 27.5 -71.5t67.5 -28.5t67.5 28.5t27.5 71.5t-27.5 71.5t-67.5 28.5t-67.5 -28.5t-27.5 -71.5zM731 1142q0 -54 -24.5 -101.5t-67.5 -77.5q61 -33 95.5 -96t34.5 -129q0 -132 -103.5 -221t-257.5 -89t-257.5 89t-103.5 221q0 66 34.5 129t95.5 96
q-43 30 -67.5 77.5t-24.5 101.5q0 118 92.5 200t230.5 82t230.5 -82t92.5 -200zM338 1135q0 -30 20 -51.5t50 -21.5t50 21.5t20 51.5t-20 50.5t-50 20.5t-50 -20.5t-20 -50.5z" />
    <glyph glyph-name="nine.numerator" 
d="M123 452l209 322q-124 20 -207.5 105t-83.5 211q0 143 106.5 238.5t260.5 95.5t261 -95.5t107 -238.5q0 -96 -49 -171l-306 -467h-298zM506 1088q0 45 -27.5 74t-69.5 29t-70 -29t-28 -74q0 -44 28 -73.5t70 -29.5q41 0 69 29.5t28 73.5z" />
    <glyph glyph-name="zero.denominator" 
d="M47 474q0 223 95 360.5t266 137.5t266 -137.5t95 -360.5t-95 -360.5t-266 -137.5t-266 137.5t-95 360.5zM320 474q0 -118 23 -185t65 -67t65 67t23 185t-23 185t-65 67t-65 -67t-23 -185z" />
    <glyph glyph-name="one.denominator" 
d="M365 948h241v-948h-284v684l-135 -74l-100 187z" />
    <glyph glyph-name="two.denominator" 
d="M619 426l-171 -187h275v-239h-634v215l312 343q52 56 52 106q0 28 -17 46t-44 18q-55 0 -82 -89l-247 76q22 113 112.5 185t221.5 72q144 0 240 -78.5t96 -199.5q0 -143 -114 -268z" />
    <glyph glyph-name="three.denominator" 
d="M457 311q0 41 -27.5 69t-67.5 28q-27 0 -50 -14l-109 135l174 184h-280v235h600v-221l-164 -162q100 -34 155 -109t55 -176q0 -127 -105 -215.5t-262 -88.5q-106 0 -195.5 45.5t-138.5 126.5l166 166q70 -100 154 -100q40 0 67.5 28t27.5 69z" />
    <glyph glyph-name="four.denominator" 
d="M29 153v205l391 590h249v-572h100v-223h-100v-153h-261v153h-379zM258 375h150v226z" />
    <glyph glyph-name="five.denominator" 
d="M391 -24q-109 0 -199 43.5t-148 122.5l174 167q73 -94 152 -94q39 0 69.5 30t30.5 70q0 43 -28 71t-69 28q-45 0 -74 -38l-207 27l65 545h562v-235h-303l-13 -96q146 0 248.5 -86.5t102.5 -223.5q0 -143 -102 -237t-261 -94z" />
    <glyph glyph-name="six.denominator" 
d="M693 948l-209 -322q124 -20 207.5 -105t83.5 -211q0 -143 -106.5 -238.5t-260.5 -95.5t-261 95.5t-107 238.5q0 96 49 171l306 467h298zM310 312q0 -45 27.5 -74t69.5 -29t70 29t28 74q0 44 -28 73.5t-70 29.5q-41 0 -69 -29.5t-28 -73.5z" />
    <glyph glyph-name="seven.denominator" 
d="M83 948h652v-206l-303 -742h-298l297 707h-348v241z" />
    <glyph glyph-name="eight.denominator" 
d="M313 297q0 -43 27.5 -71.5t67.5 -28.5t67.5 28.5t27.5 71.5t-27.5 71.5t-67.5 28.5t-67.5 -28.5t-27.5 -71.5zM731 690q0 -54 -24.5 -101.5t-67.5 -77.5q61 -33 95.5 -96t34.5 -129q0 -132 -103.5 -221t-257.5 -89t-257.5 89t-103.5 221q0 66 34.5 129t95.5 96
q-43 30 -67.5 77.5t-24.5 101.5q0 118 92.5 200t230.5 82t230.5 -82t92.5 -200zM338 683q0 -30 20 -51.5t50 -21.5t50 21.5t20 51.5t-20 50.5t-50 20.5t-50 -20.5t-20 -50.5z" />
    <glyph glyph-name="nine.denominator" 
d="M123 0l209 322q-124 20 -207.5 105t-83.5 211q0 143 106.5 238.5t260.5 95.5t261 -95.5t107 -238.5q0 -96 -49 -171l-306 -467h-298zM506 636q0 45 -27.5 74t-69.5 29t-70 -29t-28 -74q0 -44 28 -73.5t70 -29.5q41 0 69 29.5t28 73.5z" />
    <glyph glyph-name="dollar_osf" horiz-adv-x="1066" 
d="M74 173l183 239q62 -67 141 -106t152 -39q43 0 70.5 17t27.5 44q0 36 -42 65.5t-151 55.5q-164 40 -257 137t-93 238q0 125 73 218t196 130v178h321v-181q138 -39 252 -135l-172 -247q-135 120 -244 120q-32 0 -53 -14.5t-21 -37.5q0 -59 172 -104q177 -47 274 -148
t97 -245q0 -130 -78 -226.5t-215 -133.5v-179h-320v175q-184 42 -313 179z" />
    <glyph glyph-name="zero_osf" horiz-adv-x="1008" 
d="M42 537q0 252 122 406.5t340 154.5t340 -154.5t122 -406.5t-122 -406.5t-340 -154.5t-340 154.5t-122 406.5zM394 537q0 -128 29 -198t81 -70q53 0 81.5 70t28.5 198q0 127 -28.5 197.5t-81.5 70.5q-52 0 -81 -70.5t-29 -197.5z" />
    <glyph glyph-name="one_osf" horiz-adv-x="887" 
d="M406 1074h311v-1074h-371v740l-184 -91l-126 243z" />
    <glyph glyph-name="two_osf" horiz-adv-x="936" 
d="M742 472l-196 -185h332v-287h-816v256l401 379q67 64 67 109q0 27 -22 44t-55 17q-72 0 -110 -103l-317 89q33 135 149.5 221t283.5 86q185 0 308 -90.5t123 -229.5q0 -166 -148 -306z" />
    <glyph glyph-name="three_osf" horiz-adv-x="1006" 
d="M587 219q0 57 -39.5 95.5t-98.5 38.5q-34 0 -64 -16l-142 176l238 253h-381v308h792v-295l-223 -219q133 -44 208.5 -145.5t75.5 -237.5q0 -169 -138.5 -288t-346.5 -119q-140 0 -258 60.5t-184 167.5l212 212q87 -126 211 -126q58 0 98 39t40 96z" />
    <glyph glyph-name="four_osf" horiz-adv-x="1063" 
d="M33 5v282l519 787h324v-765h135v-304h-135v-211h-348v211h-495zM336 309h192v296z" />
    <glyph glyph-name="five_osf" horiz-adv-x="1021" 
d="M491 -230q-144 0 -263 58t-196 161l224 218q91 -121 206 -121q63 0 103.5 39t40.5 98t-40 98t-100 39q-67 0 -108 -50l-261 35l88 729h737v-308h-408l-19 -141h22q190 0 321 -115t131 -298q0 -191 -134 -316.5t-344 -125.5z" />
    <glyph glyph-name="six_osf" horiz-adv-x="1074" 
d="M912 1282l-285 -437q167 -21 281 -134t114 -288q0 -126 -65 -228.5t-176 -160.5t-244 -58q-134 0 -245 58t-175.5 160.5t-64.5 228.5q0 129 65 229l411 630h384zM397 426q0 -63 40 -104t100 -41q59 0 99.5 41.5t40.5 103.5t-40.5 103.5t-99.5 41.5t-99.5 -41.5
t-40.5 -103.5z" />
    <glyph glyph-name="seven_osf" horiz-adv-x="904" 
d="M25 1074h859v-271l-413 -1009h-377l404 964h-473v316z" />
    <glyph glyph-name="eight_osf" horiz-adv-x="1058" 
d="M392 404q0 -60 40 -98.5t97 -38.5t97 38.5t40 98.5q0 58 -40.5 97t-96.5 39t-96.5 -39t-40.5 -97zM956 930q0 -73 -33.5 -137.5t-90.5 -103.5q82 -42 128 -125t46 -176q0 -175 -137.5 -293.5t-339.5 -118.5t-339.5 118.5t-137.5 293.5q0 93 46 176t128 125
q-57 39 -90.5 103.5t-33.5 137.5q0 158 122.5 267t304.5 109t304.5 -109t122.5 -267zM428 919q0 -41 29 -71t72 -30t72 30t29 71q0 42 -28.5 71.5t-72.5 29.5t-72.5 -29.5t-28.5 -71.5z" />
    <glyph glyph-name="nine_osf" horiz-adv-x="1074" 
d="M163 -206l284 434q-167 21 -281 134.5t-114 288.5q0 190 141 318.5t344 128.5q204 0 344.5 -128.5t140.5 -318.5q0 -131 -65 -230l-410 -627h-384zM677 648q0 62 -40.5 103.5t-99.5 41.5t-99.5 -41.5t-40.5 -103.5t40.5 -103.5t99.5 -41.5q60 0 100 41t40 104z" />
    <glyph glyph-name="cent_osf" horiz-adv-x="1155" 
d="M771 1350v-162q187 -25 340 -150l-181 -261q-81 70 -159 96v-576q89 29 168 105l187 -259q-152 -134 -355 -161v-163h-195v164q-233 34 -383 201.5t-150 400.5q0 232 150 400t383 202v163h195zM395 585q0 -101 49.5 -177t131.5 -108v570q-82 -32 -131.5 -108t-49.5 -177z
" />
    <glyph glyph-name="sterling_osf" horiz-adv-x="1041" 
d="M792 436h-194q-9 -85 -61 -140h415v-296h-832v276q59 21 94 63.5t40 96.5h-139v217h85q-47 109 -47 195q0 145 116 245.5t285 100.5q132 0 235 -66t147 -170l-277 -143q-34 80 -96 80q-30 0 -47.5 -18t-17.5 -48q0 -56 47 -155l9 -21h238v-217z" />
    <glyph glyph-name="yen_osf" horiz-adv-x="1158" 
d="M16 1170h385l178 -387l178 387h385l-299 -538h176v-153h-261l-3 -5v-49h264v-152h-264v-273h-352v273h-264v152h264v49l-3 5h-261v153h176z" />
    <glyph glyph-name="florin_osf" horiz-adv-x="743" 
d="M178 98v424h-113v298h113v52q0 147 101 230.5t279 83.5q67 0 134 -16v-255q-57 10 -102 10q-67 0 -67 -59v-46h169v-298h-169v-430q0 -147 -101 -230.5t-279 -83.5q-67 0 -134 16v255q57 -10 102 -10q67 0 67 59z" />
    <glyph glyph-name="Euro_osf" horiz-adv-x="1227" 
d="M751 -24q-212 0 -376 112.5t-227 295.5h-128v168h96q-1 11 -1 33v23h-95v167h124q62 188 226.5 303.5t380.5 115.5q242 0 431 -156l-167 -241q-56 49 -126 79.5t-138 30.5q-76 0 -140.5 -35t-105.5 -97h359v-167h-415v-23q0 -22 1 -33h414v-168h-352q42 -57 104 -89
t135 -32q69 0 143.5 34t129.5 87l173 -241q-189 -167 -446 -167z" />
    <glyph glyph-name="zero.tnum_osf" horiz-adv-x="1096" 
d="M86 537q0 252 122 406.5t340 154.5t340 -154.5t122 -406.5t-122 -406.5t-340 -154.5t-340 154.5t-122 406.5zM438 537q0 -128 29 -198t81 -70q53 0 81.5 70t28.5 198q0 127 -28.5 197.5t-81.5 70.5q-52 0 -81 -70.5t-29 -197.5z" />
    <glyph glyph-name="one.tnum_osf" horiz-adv-x="1096" 
d="M484 1074h311v-1074h-371v740l-184 -91l-126 243z" />
    <glyph glyph-name="two.tnum_osf" horiz-adv-x="1096" 
d="M833 472l-196 -185h332v-287h-816v256l401 379q67 64 67 109q0 27 -22 44t-55 17q-72 0 -110 -103l-317 89q33 135 149.5 221t283.5 86q185 0 308 -90.5t123 -229.5q0 -166 -148 -306z" />
    <glyph glyph-name="three.tnum_osf" horiz-adv-x="1096" 
d="M615 219q0 57 -39.5 95.5t-98.5 38.5q-34 0 -64 -16l-142 176l238 253h-381v308h792v-295l-223 -219q133 -44 208.5 -145.5t75.5 -237.5q0 -169 -138.5 -288t-346.5 -119q-140 0 -258 60.5t-184 167.5l212 212q87 -126 211 -126q58 0 98 39t40 96z" />
    <glyph glyph-name="four.tnum_osf" horiz-adv-x="1096" 
d="M41 5v282l519 787h324v-765h135v-304h-135v-211h-348v211h-495zM344 309h192v296z" />
    <glyph glyph-name="five.tnum_osf" horiz-adv-x="1096" 
d="M524 -230q-144 0 -263 58t-196 161l224 218q91 -121 206 -121q63 0 103.5 39t40.5 98t-40 98t-100 39q-67 0 -108 -50l-261 35l88 729h737v-308h-408l-19 -141h22q190 0 321 -115t131 -298q0 -191 -134 -316.5t-344 -125.5z" />
    <glyph glyph-name="six.tnum_osf" horiz-adv-x="1096" 
d="M923 1282l-285 -437q167 -21 281 -134t114 -288q0 -126 -65 -228.5t-176 -160.5t-244 -58q-134 0 -245 58t-175.5 160.5t-64.5 228.5q0 129 65 229l411 630h384zM408 426q0 -63 40 -104t100 -41q59 0 99.5 41.5t40.5 103.5t-40.5 103.5t-99.5 41.5t-99.5 -41.5
t-40.5 -103.5z" />
    <glyph glyph-name="seven.tnum_osf" horiz-adv-x="1096" 
d="M121 1074h859v-271l-413 -1009h-377l404 964h-473v316z" />
    <glyph glyph-name="eight.tnum_osf" horiz-adv-x="1096" 
d="M411 404q0 -60 40 -98.5t97 -38.5t97 38.5t40 98.5q0 58 -40.5 97t-96.5 39t-96.5 -39t-40.5 -97zM975 930q0 -73 -33.5 -137.5t-90.5 -103.5q82 -42 128 -125t46 -176q0 -175 -137.5 -293.5t-339.5 -118.5t-339.5 118.5t-137.5 293.5q0 93 46 176t128 125
q-57 39 -90.5 103.5t-33.5 137.5q0 158 122.5 267t304.5 109t304.5 -109t122.5 -267zM447 919q0 -41 29 -71t72 -30t72 30t29 71q0 42 -28.5 71.5t-72.5 29.5t-72.5 -29.5t-28.5 -71.5z" />
    <glyph glyph-name="nine.tnum_osf" horiz-adv-x="1096" 
d="M174 -206l284 434q-167 21 -281 134.5t-114 288.5q0 190 141 318.5t344 128.5q204 0 344.5 -128.5t140.5 -318.5q0 -131 -65 -230l-410 -627h-384zM688 648q0 62 -40.5 103.5t-99.5 41.5t-99.5 -41.5t-40.5 -103.5t40.5 -103.5t99.5 -41.5q60 0 100 41t40 104z" />
    </font>
</defs>
</svg>
