<?xml version="1.0" standalone="no"?>
<!DOCTYPE svg PUBLIC "-//W3C//DTD SVG 1.1//EN" "http://www.w3.org/Graphics/SVG/1.1/DTD/svg11.dtd" >
<svg>
<metadata>
Created by FontForge 20090622 at Thu Jun 21 13:22:58 2018
 By deploy user
Copyright (c) 2016 by S-Core Co., Ltd.. All rights reserved.
</metadata>
<defs>
<font id="CoreSansC-65Bold" horiz-adv-x="806" >
  <font-face 
    font-family="Core Sans C 65 Bold"
    font-weight="600"
    font-stretch="normal"
    units-per-em="2000"
    panose-1="2 11 6 3 3 3 2 2 2 4"
    ascent="1600"
    descent="-400"
    x-height="1036"
    cap-height="1400"
    bbox="-815 -520 2511 1950"
    underline-thickness="48"
    underline-position="-366"
    unicode-range="U+0009-U+FB04"
  />
<missing-glyph horiz-adv-x="1000" 
d="M890 0h-780v1500h780v-1500zM335 214h330v1071h-330v-1071z" />
    <glyph glyph-name="ff" unicode="ff" horiz-adv-x="1473" 
d="M1430 1450v-219q-45 5 -93 5q-84 0 -121 -35t-37 -109v-56h251v-239h-251v-797h-275v797h-431v-797h-275v797h-155v239h155v59q0 184 103.5 274.5t313.5 90.5q83 0 154 -15l-27 -221q-65 12 -112 12q-83 0 -120 -35t-37 -109v-56h431v59q0 365 407 365q55 0 119 -10z" />
    <glyph glyph-name="fi" unicode="fi" horiz-adv-x="1318" 
d="M198 1036v59q0 365 409 365q61 0 127 -10v-219q-50 5 -100 5q-86 0 -123.5 -35t-37.5 -109v-56h706v-1036h-275v797h-431v-797h-275v797h-155v239h155zM879 1312q0 67 47 113t116 46t116 -46t47 -113t-47 -113t-116 -46t-116 46t-47 113z" />
    <glyph glyph-name="fl" unicode="fl" horiz-adv-x="1307" 
d="M724 1450v-219q-45 5 -93 5q-84 0 -121 -35t-37 -109v-56h251v-239h-251v-797h-275v797h-155v239h155v59q0 365 407 365q55 0 119 -10zM894 0v1460h275v-1460h-275z" />
    <glyph glyph-name="ffi" unicode="ffi" horiz-adv-x="2024" 
d="M198 1036v59q0 184 103.5 274.5t313.5 90.5q83 0 154 -15l-27 -221q-65 12 -112 12q-83 0 -120 -35t-37 -109v-56h431v59q0 365 409 365q61 0 127 -10v-219q-50 5 -100 5q-86 0 -123.5 -35t-37.5 -109v-56h706v-1036h-275v797h-431v-797h-275v797h-431v-797h-275v797
h-155v239h155zM1585 1312q0 67 47 113t116 46t116 -46t47 -113t-47 -113t-116 -46t-116 46t-47 113z" />
    <glyph glyph-name="ffl" unicode="ffl" horiz-adv-x="2013" 
d="M1430 1450v-219q-45 5 -93 5q-84 0 -121 -35t-37 -109v-56h251v-239h-251v-797h-275v797h-431v-797h-275v797h-155v239h155v59q0 184 103.5 274.5t313.5 90.5q83 0 154 -15l-27 -221q-65 12 -112 12q-83 0 -120 -35t-37 -109v-56h431v59q0 365 407 365q55 0 119 -10z
M1600 0v1460h275v-1460h-275z" />
    <glyph glyph-name=".notdef" horiz-adv-x="1000" 
d="M890 0h-780v1500h780v-1500zM335 214h330v1071h-330v-1071z" />
    <glyph glyph-name=".null" horiz-adv-x="0" 
 />
    <glyph glyph-name=".null" horiz-adv-x="0" 
 />
    <glyph glyph-name="nonmarkingreturn" horiz-adv-x="666" 
 />
    <glyph glyph-name="CR" unicode="&#x9;" horiz-adv-x="0" 
 />
    <glyph glyph-name="space" unicode=" " horiz-adv-x="603" 
 />
    <glyph glyph-name="exclam" unicode="!" horiz-adv-x="626" 
d="M171 419v981h284v-981h-284zM140 142q0 71 50 118.5t123 47.5t123 -47.5t50 -118.5t-50 -118.5t-123 -47.5t-123 47.5t-50 118.5z" />
    <glyph glyph-name="quotedbl" unicode="&#x22;" horiz-adv-x="987" 
d="M170 834v566h272v-566h-272zM545 834v566h272v-566h-272z" />
    <glyph glyph-name="numbersign" unicode="#" horiz-adv-x="1387" 
d="M66 540h215l54 312h-195v220h232l57 328h262l-57 -328h246l57 328h262l-57 -328h179v-220h-216l-54 -312h196v-220h-233l-55 -320h-262l55 320h-246l-55 -320h-262l55 320h-178v220zM597 852l-54 -312h246l54 312h-246z" />
    <glyph glyph-name="dollar" unicode="$" horiz-adv-x="1194" 
d="M91 201l162 190q126 -135 272 -166v388q-198 47 -301 151t-103 256q0 163 111.5 273t292.5 128v183h176v-189q203 -31 348 -169l-153 -198q-104 90 -195 120v-340q217 -55 318.5 -161.5t101.5 -268.5q0 -167 -112.5 -280t-307.5 -136v-186h-176v185q-129 14 -242 71.5
t-192 148.5zM836 390q0 113 -135 172v-331q63 19 99 60.5t36 98.5zM406 1041q0 -103 119 -158v292q-54 -15 -86.5 -50.5t-32.5 -83.5z" />
    <glyph glyph-name="percent" unicode="%" horiz-adv-x="1837" 
d="M434 0l722 1400h247l-721 -1400h-248zM326 1055q0 -59 38.5 -101.5t98.5 -42.5t98.5 42.5t38.5 101.5t-38.5 101.5t-98.5 42.5t-98.5 -42.5t-38.5 -101.5zM84 1055q0 151 108.5 255t270.5 104t270.5 -104t108.5 -255t-108.5 -255t-270.5 -104t-270.5 104t-108.5 255z
M1237 345q0 -59 38.5 -101.5t98.5 -42.5t98.5 42.5t38.5 101.5t-38.5 101.5t-98.5 42.5t-98.5 -42.5t-38.5 -101.5zM995 345q0 151 108.5 255t270.5 104t270.5 -104t108.5 -255t-108.5 -255t-270.5 -104t-270.5 104t-108.5 255z" />
    <glyph glyph-name="ampersand" unicode="&#x26;" horiz-adv-x="1487" 
d="M1026 1170l-242 -98q-44 134 -163 134q-59 0 -100 -38.5t-41 -90.5t40.5 -114.5t142.5 -157.5l326 -307q44 97 60 240l258 -37q-20 -221 -123 -391l328 -310h-358l-133 124q-180 -148 -417 -148q-215 0 -356.5 114t-141.5 285q0 123 59.5 219t183.5 177
q-76 85 -105.5 154.5t-29.5 149.5q0 149 118.5 249t287.5 100q149 0 255.5 -68t150.5 -186zM604 203q133 0 240 91l-330 312q-137 -94 -137 -213q0 -81 63 -135.5t164 -54.5z" />
    <glyph glyph-name="quotesingle" unicode="'" horiz-adv-x="622" 
d="M172 834v566h278v-566h-278z" />
    <glyph glyph-name="parenleft" unicode="(" horiz-adv-x="855" 
d="M216 609q0 267 99 511t277 422l192 -137q-138 -162 -211 -368.5t-73 -427.5t73 -427.5t211 -368.5l-192 -137q-178 178 -277 422t-99 511z" />
    <glyph glyph-name="parenright" unicode=")" horiz-adv-x="855" 
d="M639 609q0 -267 -99 -511t-277 -422l-192 137q138 162 211 368.5t73 427.5t-73 427.5t-211 368.5l192 137q178 -178 277 -422t99 -511z" />
    <glyph glyph-name="asterisk" unicode="*" horiz-adv-x="1126" 
d="M117 788l114 201l227 -143l-11 267h232l-11 -267l227 143l114 -201l-239 -125l239 -125l-114 -201l-227 143l11 -267h-232l11 267l-227 -143l-114 201l239 125z" />
    <glyph glyph-name="plus" unicode="+" horiz-adv-x="1166" 
d="M447 205v339h-329v239h329v339h272v-339h329v-239h-329v-339h-272z" />
    <glyph glyph-name="comma" unicode="," horiz-adv-x="603" 
d="M132 142q0 71 48 118.5t121 47.5t121.5 -47.5t48.5 -118.5q0 -38 -18 -77l-147 -315h-176l108 237q-48 18 -77 59.5t-29 95.5z" />
    <glyph glyph-name="hyphen" unicode="-" horiz-adv-x="828" 
d="M710 537h-592v254h592v-254z" />
    <glyph glyph-name="period" unicode="." horiz-adv-x="603" 
d="M132 142q0 71 48 118.5t121 47.5t121.5 -47.5t48.5 -118.5t-48.5 -118.5t-121.5 -47.5t-121 47.5t-48 118.5z" />
    <glyph glyph-name="slash" unicode="/" horiz-adv-x="957" 
d="M962 1500l-684 -1780h-283l684 1780h283z" />
    <glyph glyph-name="zero" unicode="0" horiz-adv-x="1206" 
d="M111 700q0 156 31 287t91.5 229t155 153t214.5 55t214.5 -55t155 -153t91.5 -229t31 -287q0 -210 -53.5 -371t-166.5 -257t-272 -96t-272 96t-166.5 257t-53.5 371zM387 700q0 -222 53 -346.5t163 -124.5t163 124.5t53 346.5q0 145 -22 248.5t-71 162.5t-123 59t-123 -59
t-71 -162.5t-22 -248.5z" />
    <glyph glyph-name="one" unicode="1" horiz-adv-x="1206" 
d="M560 1400h251v-1400h-281v1130l-227 -122l-110 196z" />
    <glyph glyph-name="two" unicode="2" horiz-adv-x="1206" 
d="M868 595l-324 -353h505v-242h-866v227l467 509q73 79 103.5 138.5t30.5 123.5q0 79 -52 130.5t-132 51.5q-73 0 -123.5 -41.5t-85.5 -127.5l-238 90q43 146 160.5 234.5t289.5 88.5q200 0 330 -112.5t130 -296.5q0 -116 -46.5 -212.5t-148.5 -207.5z" />
    <glyph glyph-name="three" unicode="3" horiz-adv-x="1206" 
d="M539 217q102 0 170 68t68 165q0 96 -68 164t-170 68q-34 0 -67 -11l-108 136l300 351h-489v242h816v-240l-275 -308q159 -32 251 -150.5t92 -281.5q0 -85 -36.5 -165t-101 -142t-161.5 -99.5t-209 -37.5q-145 0 -263.5 62t-192.5 175l179 162q109 -158 265 -158z" />
    <glyph glyph-name="four" unicode="4" horiz-adv-x="1206" 
d="M73 254v240l605 906h269v-899h150v-247h-150v-254h-276v254h-598zM344 499h327v490z" />
    <glyph glyph-name="five" unicode="5" horiz-adv-x="1206" 
d="M570 -24q-147 0 -267 59.5t-195 172.5l188 165q106 -155 258 -155q103 0 171.5 66.5t68.5 165.5t-68.5 166t-170.5 67q-54 0 -101 -22t-73 -58l-201 26l88 771h755v-242h-503l-34 -286q58 30 140 30q121 0 223 -55t164 -159.5t62 -237.5q0 -209 -138 -341.5t-367 -132.5z
" />
    <glyph glyph-name="six" unicode="6" horiz-adv-x="1206" 
d="M918 1400l-323 -498q7 1 20 1q94 0 181.5 -29.5t158 -85t113 -143.5t42.5 -196q0 -134 -71 -243.5t-186 -169.5t-248 -60q-136 0 -252.5 60t-187.5 169.5t-71 243.5q0 138 70 247l457 704h297zM835 450q0 101 -68 169t-165 68t-165 -68t-68 -169q0 -100 68 -168t165 -68
t165 68t68 168z" />
    <glyph glyph-name="seven" unicode="7" horiz-adv-x="1206" 
d="M162 1400h892v-225l-485 -1175h-305l483 1155h-585v245z" />
    <glyph glyph-name="eight" unicode="8" horiz-adv-x="1206" 
d="M378 427q0 -91 65 -154.5t160 -63.5t160 63.5t65 154.5q0 92 -65 155.5t-160 63.5t-160 -63.5t-65 -155.5zM1034 1040q0 -86 -46 -161.5t-119 -112.5q108 -42 170 -136.5t62 -210.5q0 -124 -65.5 -225.5t-179.5 -159.5t-253 -58t-253 58t-179.5 159.5t-65.5 225.5
q0 116 62 210.5t170 136.5q-73 37 -119 112.5t-46 161.5q0 162 122.5 273t308.5 111t308.5 -111t122.5 -273zM434 1032q0 -66 49 -114.5t120 -48.5t120 48.5t49 114.5q0 67 -49 114t-120 47t-120 -47t-49 -114z" />
    <glyph glyph-name="nine" unicode="9" horiz-adv-x="1206" 
d="M288 0l323 498q-7 -1 -20 -1q-94 0 -181.5 29.5t-158 85t-113 143.5t-42.5 196q0 134 71 243.5t186 169.5t248 60q136 0 252.5 -60t187.5 -169.5t71 -243.5q0 -138 -70 -247l-457 -704h-297zM371 950q0 -101 68 -169t165 -68t165 68t68 169q0 100 -68 168t-165 68
t-165 -68t-68 -168z" />
    <glyph glyph-name="colon" unicode=":" horiz-adv-x="603" 
d="M132 142q0 71 48 118.5t121 47.5t121.5 -47.5t48.5 -118.5t-48.5 -118.5t-121.5 -47.5t-121 47.5t-48 118.5zM132 894q0 71 48 118.5t121 47.5t121.5 -47.5t48.5 -118.5t-48.5 -118.5t-121.5 -47.5t-121 47.5t-48 118.5z" />
    <glyph glyph-name="semicolon" unicode=";" horiz-adv-x="603" 
d="M132 894q0 71 48 118.5t121 47.5t121.5 -47.5t48.5 -118.5t-48.5 -118.5t-121.5 -47.5t-121 47.5t-48 118.5zM132 142q0 71 48 118.5t121 47.5t121.5 -47.5t48.5 -118.5q0 -38 -18 -77l-147 -315h-176l108 237q-48 18 -77 59.5t-29 95.5z" />
    <glyph glyph-name="less" unicode="&#x3c;" horiz-adv-x="1166" 
d="M120 572v182l895 491v-301l-548 -281l548 -281v-301z" />
    <glyph glyph-name="equal" unicode="=" horiz-adv-x="1166" 
d="M1048 773h-930v237h930v-237zM1048 317h-930v237h930v-237z" />
    <glyph glyph-name="greater" unicode="&#x3e;" horiz-adv-x="1166" 
d="M1046 754v-182l-895 -491v301l548 281l-548 281v301z" />
    <glyph glyph-name="question" unicode="?" horiz-adv-x="1109" 
d="M343 419v362q174 0 270.5 63t96.5 163q0 74 -65 121.5t-170 47.5q-133 0 -269 -113l-136 206q189 155 433 155q108 0 202 -34t157 -91t99 -132.5t36 -158.5q0 -143 -100 -254t-270 -149v-186h-284zM312 142q0 71 50 118.5t123 47.5t123 -47.5t50 -118.5t-50 -118.5
t-123 -47.5t-123 47.5t-50 118.5z" />
    <glyph glyph-name="at" unicode="@" horiz-adv-x="1942" 
d="M964 310q64 0 114.5 33.5t77.5 89.5v210q-27 55 -78 88.5t-114 33.5q-92 0 -154 -65t-62 -162t62 -162.5t154 -65.5zM1447 107q-76 0 -148 36t-111 93q-49 -61 -120 -95t-151 -34q-172 0 -287 126t-115 305q0 178 114.5 304.5t283.5 126.5q139 0 243 -104v84h230v-593
q12 -23 37.5 -37.5t53.5 -14.5q79 0 134 75.5t55 210.5q0 133 -56.5 254t-150.5 208t-223 138.5t-269 51.5q-141 0 -268.5 -54t-220 -146t-147.5 -220.5t-55 -271.5q0 -192 93 -350.5t257.5 -250t366.5 -91.5q261 0 475 149l82 -167q-263 -164 -557 -164q-195 0 -366 67
t-293.5 182.5t-193 278t-70.5 346.5q0 183 71 346t191.5 278.5t286 182.5t348.5 67q191 0 359.5 -65t288 -176.5t188.5 -266t69 -328.5q0 -218 -118.5 -349.5t-306.5 -131.5z" />
    <glyph glyph-name="A" unicode="A" horiz-adv-x="1382" 
d="M534 1400h314l501 -1400h-301l-104 315h-506l-104 -315h-301zM871 547l-180 550l-180 -550h360z" />
    <glyph glyph-name="B" unicode="B" horiz-adv-x="1252" 
d="M749 0h-596v1400h527q194 0 304 -102t110 -277q0 -100 -45.5 -172t-123.5 -106q106 -29 175 -118.5t69 -216.5q0 -181 -115 -294.5t-305 -113.5zM818 999q0 80 -43.5 123t-116.5 43h-226v-331h226q72 0 116 43t44 122zM885 421q0 85 -47 136t-123 51h-283v-373h283
q76 0 123 51t47 135z" />
    <glyph glyph-name="C" unicode="C" horiz-adv-x="1390" 
d="M828 -24q-209 0 -381.5 95.5t-271 261.5t-98.5 367t98.5 367t271 261.5t381.5 95.5q271 0 480 -162l-143 -211q-84 60 -163.5 92.5t-173.5 32.5q-196 0 -330 -137t-134 -339t134 -339t330 -137q94 0 184 37t163 98l150 -209q-210 -174 -497 -174z" />
    <glyph glyph-name="D" unicode="D" horiz-adv-x="1439" 
d="M153 1400h507q320 0 511 -190t191 -510t-191 -510t-511 -190h-507v1400zM650 1152h-213v-904h213q195 0 310 114.5t115 337.5t-115 337.5t-310 114.5z" />
    <glyph glyph-name="E" unicode="E" horiz-adv-x="1146" 
d="M153 0v1400h872v-242h-588v-334h540v-240h-540v-342h606v-242h-890z" />
    <glyph glyph-name="F" unicode="F" horiz-adv-x="1078" 
d="M153 0v1400h852v-244h-568v-345h520v-244h-520v-567h-284z" />
    <glyph glyph-name="G" unicode="G" horiz-adv-x="1458" 
d="M828 1176q-196 0 -330 -137.5t-134 -341.5q0 -202 134.5 -340t329.5 -138q126 0 220 58v269h-307v229h591v-618q-99 -86 -229.5 -133.5t-274.5 -47.5q-209 0 -381.5 95.5t-271 261.5t-98.5 367t98.5 367t271 261.5t381.5 95.5q271 0 480 -162l-143 -211
q-84 60 -163.5 92.5t-173.5 32.5z" />
    <glyph glyph-name="H" unicode="H" horiz-adv-x="1414" 
d="M153 0v1400h284v-574h540v574h284v-1400h-284v581h-540v-581h-284z" />
    <glyph glyph-name="I" unicode="I" horiz-adv-x="606" 
d="M161 1400h284v-1400h-284v1400z" />
    <glyph glyph-name="J" unicode="J" horiz-adv-x="930" 
d="M504 456v944h284v-954q0 -236 -117.5 -353t-341.5 -117q-79 0 -159 18.5t-137 51.5l82 234q92 -56 190 -56q199 0 199 232z" />
    <glyph glyph-name="K" unicode="K" horiz-adv-x="1239" 
d="M437 1400v-571h80l352 571h313l-429 -690l506 -710h-319l-415 584h-88v-584h-284v1400h284z" />
    <glyph glyph-name="L" unicode="L" horiz-adv-x="1038" 
d="M153 0v1400h284v-1155h566v-245h-850z" />
    <glyph glyph-name="M" unicode="M" horiz-adv-x="1718" 
d="M953 418h-188l-344 553v-971h-268v1400h290l416 -672l416 672h290v-1400h-268v971z" />
    <glyph glyph-name="N" unicode="N" horiz-adv-x="1414" 
d="M153 0v1400h288l552 -942v942h268v-1400h-288l-552 942v-942h-268z" />
    <glyph glyph-name="O" unicode="O" horiz-adv-x="1656" 
d="M364 700q0 -202 134 -339t330 -137t330 137t134 339t-134 339t-330 137t-330 -137t-134 -339zM77 700q0 201 98.5 367t271 261.5t381.5 95.5t381.5 -95.5t271 -261.5t98.5 -367t-98.5 -367t-271 -261.5t-381.5 -95.5t-381.5 95.5t-271 261.5t-98.5 367z" />
    <glyph glyph-name="P" unicode="P" horiz-adv-x="1200" 
d="M648 488h-211v-488h-284v1400h495q222 0 355.5 -126t133.5 -330q0 -205 -133.5 -330.5t-355.5 -125.5zM853 944q0 102 -59.5 162t-168.5 60h-188v-444h188q109 0 168.5 59.5t59.5 162.5z" />
    <glyph glyph-name="Q" unicode="Q" horiz-adv-x="1656" 
d="M77 700q0 201 98.5 367t271 261.5t381.5 95.5t381.5 -95.5t271 -261.5t98.5 -367q0 -277 -182 -480l191 -210l-189 -167l-202 222q-169 -89 -369 -89q-209 0 -381.5 95.5t-271 261.5t-98.5 367zM364 700q0 -202 134 -339t330 -137q99 0 189 39l-188 208l189 167l192 -212
q82 120 82 274q0 202 -134 339t-330 137t-330 -137t-134 -339z" />
    <glyph glyph-name="R" unicode="R" horiz-adv-x="1227" 
d="M153 1400h495q223 0 356 -123.5t133 -327.5q0 -157 -81 -267.5t-225 -153.5l339 -528h-310l-314 498h-111v-498h-282v1400zM626 1166h-191v-441h191q108 0 167.5 60t59.5 160q0 102 -59.5 161.5t-167.5 59.5z" />
    <glyph glyph-name="S" unicode="S" horiz-adv-x="1194" 
d="M91 201l163 191q73 -78 163.5 -125.5t183.5 -47.5q102 0 167.5 47t65.5 124q0 76 -62.5 129.5t-221.5 87.5q-210 44 -319.5 150t-109.5 263q0 178 130.5 291t335.5 113q278 0 462 -178l-154 -199q-155 136 -296 136q-83 0 -137 -39.5t-54 -102.5q0 -73 61.5 -122.5
t205.5 -82.5q231 -53 338.5 -161.5t107.5 -276.5q0 -187 -139 -304.5t-375 -117.5q-153 0 -288.5 59.5t-227.5 165.5z" />
    <glyph glyph-name="T" unicode="T" horiz-adv-x="1114" 
d="M415 0v1155h-360v245h1004v-245h-360v-1155h-284z" />
    <glyph glyph-name="U" unicode="U" horiz-adv-x="1340" 
d="M1198 1400v-920q0 -147 -71 -262.5t-191 -177.5t-266 -62t-266 62t-191 177.5t-71 262.5v920h284v-932q0 -108 70 -175t174 -67t174 67t70 175v932h284z" />
    <glyph glyph-name="V" unicode="V" horiz-adv-x="1382" 
d="M331 1400l360 -1060l360 1060h298l-501 -1400h-314l-501 1400h298z" />
    <glyph glyph-name="W" unicode="W" horiz-adv-x="1970" 
d="M845 1400h280l269 -1004l247 1004h296l-388 -1400h-285l-279 1013l-279 -1013h-285l-388 1400h296l247 -1004z" />
    <glyph glyph-name="X" unicode="X" horiz-adv-x="1286" 
d="M1261 0h-309l-309 516l-309 -516h-309l444 714l-424 686h309l289 -487l289 487h309l-424 -686z" />
    <glyph glyph-name="Y" unicode="Y" horiz-adv-x="1302" 
d="M339 1400l312 -566l312 566h306l-476 -836v-564h-284v564l-476 836h306z" />
    <glyph glyph-name="Z" unicode="Z" horiz-adv-x="1220" 
d="M113 235l645 920h-615v245h954v-235l-645 -920h665v-245h-1004v235z" />
    <glyph glyph-name="bracketleft" unicode="[" horiz-adv-x="855" 
d="M212 -280v1780h605v-245h-321v-1290h321v-245h-605z" />
    <glyph glyph-name="backslash" unicode="\" horiz-adv-x="957" 
d="M679 -280l-684 1780h283l684 -1780h-283z" />
    <glyph glyph-name="bracketright" unicode="]" horiz-adv-x="855" 
d="M643 1500v-1780h-605v245h321v1290h-321v245h605z" />
    <glyph glyph-name="asciicircum" unicode="^" horiz-adv-x="1246" 
d="M488 1400h270l400 -622h-298l-237 377l-237 -377h-298z" />
    <glyph glyph-name="underscore" unicode="_" horiz-adv-x="1000" 
d="M0 -383v224h1000v-224h-1000z" />
    <glyph glyph-name="grave" unicode="`" horiz-adv-x="850" 
d="M380 1460l261 -342h-262l-275 342h276z" />
    <glyph glyph-name="a" unicode="a" horiz-adv-x="1315" 
d="M640 219q89 0 161.5 45t108.5 120v268q-36 75 -108.5 120t-161.5 45q-127 0 -213 -86t-86 -213t86 -213t213 -86zM582 1060q197 0 328 -128v104h272v-1036h-272v104q-131 -128 -328 -128q-146 0 -265 73.5t-185.5 197.5t-66.5 271t66.5 271t185.5 197.5t265 73.5z" />
    <glyph glyph-name="b" unicode="b" horiz-adv-x="1315" 
d="M675 219q127 0 213 86t86 213t-86 213t-213 86q-89 0 -161.5 -45t-108.5 -120v-268q36 -75 108.5 -120t161.5 -45zM733 1060q146 0 265 -73.5t185.5 -197.5t66.5 -271t-66.5 -271t-185.5 -197.5t-265 -73.5q-197 0 -328 128v-104h-272v1460h272v-528q131 128 328 128z
" />
    <glyph glyph-name="c" unicode="c" horiz-adv-x="1111" 
d="M640 -24q-245 0 -410 157t-165 385t165 385t410 157q226 0 391 -139l-136 -205q-124 101 -253 101q-127 0 -213 -86.5t-86 -212.5q0 -127 86 -213t213 -86q136 0 259 109l153 -192q-165 -160 -414 -160z" />
    <glyph glyph-name="d" unicode="d" horiz-adv-x="1315" 
d="M640 219q89 0 161.5 45t108.5 120v268q-36 75 -108.5 120t-161.5 45q-127 0 -213 -86t-86 -213t86 -213t213 -86zM582 1060q197 0 328 -128v528h272v-1460h-272v104q-131 -128 -328 -128q-146 0 -265 73.5t-185.5 197.5t-66.5 271t66.5 271t185.5 197.5t265 73.5z" />
    <glyph glyph-name="e" unicode="e" horiz-adv-x="1236" 
d="M343 436q18 -108 100.5 -174.5t199.5 -66.5q163 0 294 129l165 -160q-173 -188 -458 -188q-126 0 -235 42t-184 115t-117.5 172.5t-42.5 212.5q0 112 43 212t117.5 172.5t179.5 115t223 42.5q155 0 280 -70.5t194 -190t69 -263.5q0 -52 -12 -100h-816zM626 841
q-97 0 -172.5 -57t-103.5 -152h538q-23 94 -93 151.5t-169 57.5z" />
    <glyph glyph-name="f" unicode="f" horiz-adv-x="767" 
d="M724 1450v-219q-45 5 -93 5q-84 0 -121 -35t-37 -109v-56h251v-239h-251v-797h-275v797h-155v239h155v59q0 365 407 365q55 0 119 -10z" />
    <glyph glyph-name="g" unicode="g" horiz-adv-x="1315" 
d="M910 384v268q-36 75 -108.5 120t-161.5 45q-127 0 -213 -86t-86 -213t86 -213t213 -86q89 0 161.5 45t108.5 120zM910 932v104h272v-975q0 -238 -145 -381.5t-406 -143.5q-147 0 -275.5 52.5t-217.5 146.5l158 181q145 -145 323 -145q133 0 212 72.5t79 199.5v68
q-130 -128 -328 -128q-146 0 -265 72t-185.5 194.5t-66.5 268.5q0 147 66.5 271t185.5 197.5t265 73.5q197 0 328 -128z" />
    <glyph glyph-name="h" unicode="h" horiz-adv-x="1226" 
d="M408 674v-674h-275v1460h275v-538q53 63 130.5 100.5t160.5 37.5q183 0 298.5 -117t115.5 -305v-638h-275v611q0 88 -56.5 147t-149.5 59q-63 0 -125 -42t-99 -101z" />
    <glyph glyph-name="i" unicode="i" horiz-adv-x="552" 
d="M138 0v1036h275v-1036h-275zM113 1312q0 67 47 113t116 46t116 -46t47 -113t-47 -113t-116 -46t-116 46t-47 113z" />
    <glyph glyph-name="j" unicode="j" horiz-adv-x="552" 
d="M138 -90v1126h275v-1140q0 -184 -88 -272t-266 -88q-57 0 -97 7v232h53q64 0 93.5 31t29.5 104zM113 1312q0 67 47 113t116 46t116 -46t47 -113t-47 -113t-116 -46t-116 46t-47 113z" />
    <glyph glyph-name="k" unicode="k" horiz-adv-x="1073" 
d="M764 0l-271 453h-85v-453h-275v1460h275v-771h89l217 347h310l-304 -466l349 -570h-305z" />
    <glyph glyph-name="l" unicode="l" horiz-adv-x="552" 
d="M138 0v1460h275v-1460h-275z" />
    <glyph glyph-name="m" unicode="m" horiz-adv-x="1883" 
d="M133 1036h275v-114q50 62 123 99t156 37q109 0 196.5 -47t140.5 -131q56 81 148 130.5t194 49.5q179 0 291.5 -117.5t112.5 -301.5v-641h-275v613q0 87 -51.5 145.5t-136.5 58.5q-63 0 -121 -41.5t-99 -107.5q2 -44 2 -68v-600h-275v613q0 89 -52 146.5t-136 57.5
q-63 0 -120.5 -41t-97.5 -105v-671h-275v1036z" />
    <glyph glyph-name="n" unicode="n" horiz-adv-x="1226" 
d="M408 674v-674h-275v1036h275v-114q53 63 130.5 100.5t160.5 37.5q183 0 298.5 -117t115.5 -305v-638h-275v611q0 88 -56.5 147t-149.5 59q-63 0 -125 -42t-99 -101z" />
    <glyph glyph-name="o" unicode="o" horiz-adv-x="1280" 
d="M65 518q0 228 165 385t410 157q162 0 294 -72t206.5 -196t74.5 -274t-74.5 -274t-206.5 -196t-294 -72q-245 0 -410 157t-165 385zM341 518q0 -127 86 -213t213 -86t213.5 86t86.5 213q0 126 -86.5 212.5t-213.5 86.5t-213 -86.5t-86 -212.5z" />
    <glyph glyph-name="p" unicode="p" horiz-adv-x="1315" 
d="M675 219q127 0 213 86t86 213t-86 213t-213 86q-89 0 -161.5 -45t-108.5 -120v-268q36 -75 108.5 -120t161.5 -45zM733 1060q146 0 265 -73.5t185.5 -197.5t66.5 -271t-66.5 -271t-185.5 -197.5t-265 -73.5q-197 0 -328 128v-568h-272v1500h272v-104q131 128 328 128z
" />
    <glyph glyph-name="q" unicode="q" horiz-adv-x="1315" 
d="M640 219q89 0 161.5 45t108.5 120v268q-36 75 -108.5 120t-161.5 45q-127 0 -213 -86t-86 -213t86 -213t213 -86zM582 1060q197 0 328 -128v104h272v-1500h-272v568q-131 -128 -328 -128q-146 0 -265 73.5t-185.5 197.5t-66.5 271t66.5 271t185.5 197.5t265 73.5z" />
    <glyph glyph-name="r" unicode="r" horiz-adv-x="825" 
d="M650 817q-74 0 -137 -45t-105 -123v-649h-275v1036h275v-127q113 151 277 151q53 0 94 -22l-19 -241q-58 20 -110 20z" />
    <glyph glyph-name="s" unicode="s" horiz-adv-x="947" 
d="M62 148l138 171q50 -57 118.5 -90t144.5 -33q71 0 111.5 27.5t40.5 75.5t-40 77.5t-138 49.5q-337 69 -337 332q0 132 103.5 217t270.5 85q104 0 200 -38.5t168 -102.5l-132 -172q-113 93 -212 93q-57 0 -93 -23.5t-36 -62.5q0 -90 165 -124q179 -36 264.5 -119
t85.5 -215q0 -140 -109 -230t-291 -90q-129 0 -240 45.5t-182 126.5z" />
    <glyph glyph-name="t" unicode="t" horiz-adv-x="787" 
d="M479 797v-438q0 -75 36.5 -109.5t121.5 -34.5q53 0 98 5v-230q-65 -14 -143 -14q-388 0 -388 366v455h-161v239h161v276l275 24v-300h244v-239h-244z" />
    <glyph glyph-name="u" unicode="u" horiz-adv-x="1226" 
d="M818 362v674h275v-1036h-275v114q-53 -63 -130.5 -100.5t-160.5 -37.5q-183 0 -298.5 117t-115.5 305v638h275v-611q0 -88 56.5 -147t149.5 -59q63 0 125 42t99 101z" />
    <glyph glyph-name="v" unicode="v" horiz-adv-x="1074" 
d="M769 1036h286l-370 -1036h-296l-370 1036h286l232 -705z" />
    <glyph glyph-name="w" unicode="w" horiz-adv-x="1594" 
d="M659 1036h276l178 -693l181 693h281l-314 -1036h-284l-180 674l-180 -674h-284l-314 1036h281l181 -693z" />
    <glyph glyph-name="x" unicode="x" horiz-adv-x="1074" 
d="M1055 0h-298l-220 352l-220 -352h-298l340 528l-314 508h298l194 -333l194 333h298l-314 -508z" />
    <glyph glyph-name="y" unicode="y" horiz-adv-x="1074" 
d="M504 -464h-287l182 464l-380 1036h286l230 -688l234 688h286z" />
    <glyph glyph-name="z" unicode="z" horiz-adv-x="1027" 
d="M88 0v223l492 575h-466v238h800v-223l-492 -575h512v-238h-846z" />
    <glyph glyph-name="braceleft" unicode="{" horiz-adv-x="855" 
d="M131 488v244q88 0 137.5 45.5t49.5 128.5v265q0 140 102 234.5t257 94.5h140v-245h-87q-56 0 -92 -35.5t-36 -90.5v-280q0 -192 -182 -239q182 -47 182 -239v-280q0 -55 36 -90.5t92 -35.5h87v-245h-140q-155 0 -257 94.5t-102 234.5v265q0 83 -49.5 128.5t-137.5 45.5z
" />
    <glyph glyph-name="bar" unicode="|" horiz-adv-x="660" 
d="M198 -280v1780h264v-1780h-264z" />
    <glyph glyph-name="braceright" unicode="}" horiz-adv-x="855" 
d="M724 732v-244q-88 0 -137.5 -45.5t-49.5 -128.5v-265q0 -140 -102 -234.5t-257 -94.5h-140v245h87q56 0 92 35.5t36 90.5v280q0 192 182 239q-182 47 -182 239v280q0 55 -36 90.5t-92 35.5h-87v245h140q155 0 257 -94.5t102 -234.5v-265q0 -83 49.5 -128.5t137.5 -45.5z
" />
    <glyph glyph-name="asciitilde" unicode="~" horiz-adv-x="1166" 
d="M560 530l-53.5 46.5t-46 30t-49.5 15.5q-70 0 -95 -144l-259 57q26 162 104 249t203 87q138 0 242 -91l53.5 -46.5t46 -30t49.5 -15.5q70 0 95 144l259 -57q-26 -162 -104 -249t-203 -87q-138 0 -242 91z" />
    <glyph glyph-name="uni00A0" unicode="&#xa0;" horiz-adv-x="603" 
 />
    <glyph glyph-name="exclamdown" unicode="&#xa1;" horiz-adv-x="626" 
d="M171 -364v981h284v-981h-284zM140 894q0 71 50 118.5t123 47.5t123 -47.5t50 -118.5t-50 -118.5t-123 -47.5t-123 47.5t-50 118.5z" />
    <glyph glyph-name="cent" unicode="&#xa2;" horiz-adv-x="1111" 
d="M541 -184v168q-209 32 -342.5 181t-133.5 353q0 203 133.5 352.5t342.5 181.5v168h177v-165q177 -20 313 -134l-136 -205q-88 71 -177 92v-580q98 24 183 100l153 -192q-138 -133 -336 -155v-165h-177zM343 518q0 -99 54.5 -176t143.5 -107v565q-89 -31 -143.5 -107.5
t-54.5 -174.5z" />
    <glyph glyph-name="sterling" unicode="&#xa3;" horiz-adv-x="1165" 
d="M301 541h-168v200h121q-75 155 -75 281q0 169 128 285.5t316 116.5q147 0 257.5 -72t156.5 -182l-238 -127q-53 133 -176 133q-68 0 -112.5 -46t-44.5 -116q0 -28 8.5 -65t18 -63l28.5 -74.5t27 -70.5h324v-200h-285q0 -189 -126 -293h602v-248h-924v239q162 92 162 302z
" />
    <glyph glyph-name="currency" unicode="&#xa4;" horiz-adv-x="1272" 
d="M165 652q0 125 70 232l-174 176l164 161l183 -183q104 53 228 53t228 -53l183 183l164 -161l-174 -176q70 -107 70 -232t-70 -232l174 -176l-164 -161l-183 183q-104 -53 -228 -53t-228 53l-183 -183l-164 161l174 176q-70 107 -70 232zM424 652q0 -89 61 -151t151 -62
t151 62t61 151t-61 151t-151 62t-151 -62t-61 -151z" />
    <glyph glyph-name="yen" unicode="&#xa5;" horiz-adv-x="1302" 
d="M162 498h347v66l-14 24h-333v150h248l-377 662h306l312 -566l312 566h306l-377 -662h248v-150h-334l-13 -24v-66h347v-150h-347v-348h-284v348h-347v150z" />
    <glyph glyph-name="brokenbar" unicode="&#xa6;" horiz-adv-x="660" 
d="M198 700v800h264v-800h-264zM198 -280v800h264v-800h-264z" />
    <glyph glyph-name="section" unicode="&#xa7;" horiz-adv-x="1022" 
d="M970 531q0 -89 -47.5 -161t-133.5 -115q101 -93 101 -228q0 -139 -111.5 -233t-278.5 -94q-143 0 -249.5 72t-134.5 193l238 54q11 -49 50 -77t96 -28q61 0 100.5 32.5t39.5 82.5q0 35 -20.5 62.5t-53.5 42.5l-260 115q-123 55 -188.5 145t-65.5 198q0 89 47.5 161
t133.5 115q-101 91 -101 228q0 140 112 234t278 94q143 0 249.5 -72.5t134.5 -193.5l-237 -54q-12 49 -51 77t-96 28q-60 0 -100 -32.5t-40 -81.5q0 -72 74 -105l260 -115q123 -55 188.5 -145.5t65.5 -198.5zM595 688l-136 60q-68 -5 -112.5 -49t-44.5 -107q0 -102 125 -157
l135 -60q69 5 113.5 49t44.5 107q0 102 -125 157z" />
    <glyph glyph-name="dieresis" unicode="&#xa8;" horiz-adv-x="850" 
d="M85 1292q0 62 42.5 104t104.5 42t104.5 -42t42.5 -104t-42.5 -104t-104.5 -42t-104.5 42t-42.5 104zM471 1292q0 62 42.5 104t104.5 42t104.5 -42t42.5 -104t-42.5 -104t-104.5 -42t-104.5 42t-42.5 104z" />
    <glyph glyph-name="copyright" unicode="&#xa9;" horiz-adv-x="1608" 
d="M841 300q-175 0 -295 115t-120 283t120 283t295 115q148 0 268 -93l-84 -163q-93 71 -184 71q-88 0 -147 -61.5t-59 -151.5q0 -91 59 -152.5t147 -61.5q98 0 190 78l88 -162q-117 -100 -278 -100zM80 700q0 149 56.5 283t153.5 231t231 153.5t283 56.5t283 -56.5
t231 -153.5t153.5 -231t56.5 -283t-56.5 -283t-153.5 -231t-231 -153.5t-283 -56.5t-283 56.5t-231 153.5t-153.5 231t-56.5 283zM212 700q0 -165 78.5 -303t214.5 -217.5t299 -79.5t299 79.5t214.5 217.5t78.5 303t-78.5 303t-214.5 217.5t-299 79.5t-299 -79.5
t-214.5 -217.5t-78.5 -303z" />
    <glyph glyph-name="ordfeminine" unicode="&#xaa;" horiz-adv-x="924" 
d="M458 858q53 0 93.5 25.5t62.5 64.5v176q-22 39 -62.5 64.5t-93.5 25.5q-76 0 -127 -51t-51 -127t51 -127t127 -51zM614 672v67q-69 -83 -196 -83q-154 0 -258 109.5t-104 270.5t104 270.5t258 109.5q127 0 196 -83v67h223v-728h-223z" />
    <glyph glyph-name="guillemotleft" unicode="&#xab;" horiz-adv-x="1290" 
d="M94 555v136l576 354v-235l-318 -187l318 -187v-235zM601 555v136l576 354v-235l-318 -187l318 -187v-235z" />
    <glyph glyph-name="logicalnot" unicode="&#xac;" horiz-adv-x="1166" 
d="M776 225v319h-658v239h930v-558h-272z" />
    <glyph glyph-name="uni00AD" unicode="&#xad;" horiz-adv-x="828" 
d="M710 537h-592v254h592v-254z" />
    <glyph glyph-name="registered" unicode="&#xae;" horiz-adv-x="1608" 
d="M80 700q0 149 56.5 283t153.5 231t231 153.5t283 56.5t283 -56.5t231 -153.5t153.5 -231t56.5 -283t-56.5 -283t-153.5 -231t-231 -153.5t-283 -56.5t-283 56.5t-231 153.5t-153.5 231t-56.5 283zM212 700q0 -165 78.5 -303t214.5 -217.5t299 -79.5t299 79.5t214.5 217.5
t78.5 303t-78.5 303t-214.5 217.5t-299 79.5t-299 -79.5t-214.5 -217.5t-78.5 -303zM545 1084h299q118 0 196 -72t78 -182q0 -77 -40.5 -137t-109.5 -90l170 -289h-209l-150 262h-44v-262h-190v770zM824 916h-89v-188h89q46 0 75 26.5t29 67.5t-29 67.5t-75 26.5z" />
    <glyph glyph-name="macron" unicode="&#xaf;" horiz-adv-x="850" 
d="M115 1185v206h620v-206h-620z" />
    <glyph glyph-name="degree" unicode="&#xb0;" horiz-adv-x="804" 
d="M112 1147q0 117 83.5 197t206.5 80t206.5 -80t83.5 -197t-83.5 -197t-206.5 -80t-206.5 80t-83.5 197zM298 1147q0 -45 29.5 -74.5t74.5 -29.5t74.5 29.5t29.5 74.5t-29.5 74.5t-74.5 29.5t-74.5 -29.5t-29.5 -74.5z" />
    <glyph glyph-name="plusminus" unicode="&#xb1;" horiz-adv-x="1166" 
d="M1048 0h-930v237h930v-237zM447 325v323h-329v237h329v323h272v-323h329v-237h-329v-323h-272z" />
    <glyph glyph-name="twosuperior" unicode="&#xb2;" 
d="M583 851l-195 -210h319v-189h-616v169l315 342q45 49 64 86.5t19 78.5q0 47 -28 76t-73 29q-42 0 -71 -27.5t-51 -90.5l-197 70q29 113 113.5 176t207.5 63q142 0 234.5 -78.5t92.5 -207.5q0 -78 -32 -144t-102 -143z" />
    <glyph glyph-name="threesuperior" unicode="&#xb3;" 
d="M499 757q0 58 -39 98.5t-97 40.5q-28 0 -53 -11l-87 107l188 219h-310v189h582v-175l-172 -194q101 -29 159.5 -109.5t58.5 -185.5q0 -123 -100.5 -215.5t-256.5 -92.5q-103 0 -188.5 46t-136.5 128l146 132q82 -118 170 -118q58 0 97 40.5t39 100.5z" />
    <glyph glyph-name="acute" unicode="&#xb4;" horiz-adv-x="850" 
d="M209 1118l261 342h276l-275 -342h-262z" />
    <glyph glyph-name="mu" unicode="&#xb5;" horiz-adv-x="1246" 
d="M133 -464v1500h275v-670q18 -67 73 -107t126 -40q66 0 130.5 45.5t100.5 109.5v662h275v-1036h-275v117q-46 -64 -113.5 -102.5t-138.5 -38.5q-109 0 -178 84v-524h-275z" />
    <glyph glyph-name="paragraph" unicode="&#xb6;" horiz-adv-x="1177" 
d="M561 536h-50q-188 0 -316 124.5t-128 307.5t128 307.5t316 124.5h508v-1662h-183v1484h-92v-1484h-183v798z" />
    <glyph glyph-name="periodcentered" unicode="&#xb7;" horiz-adv-x="603" 
d="M132 651q0 71 48 118.5t121 47.5t121.5 -47.5t48.5 -118.5t-48.5 -118.5t-121.5 -47.5t-121 47.5t-48 118.5z" />
    <glyph glyph-name="cedilla" unicode="&#xb8;" horiz-adv-x="850" 
d="M462 -300q0 32 -26.5 53t-68.5 21q-31 0 -59 -5l-47 52l95 179h198l-70 -107q79 -21 127 -75t48 -122q0 -93 -80 -154.5t-200 -61.5q-121 0 -201 62l81 118q47 -34 108 -34q42 0 68.5 21t26.5 53z" />
    <glyph glyph-name="onesuperior" unicode="&#xb9;" 
d="M375 1400h195v-948h-230v725l-141 -77l-85 161z" />
    <glyph glyph-name="ordmasculine" unicode="&#xba;" horiz-adv-x="924" 
d="M59 1036q0 159 117 269.5t286 110.5t286 -110.5t117 -269.5t-117 -269.5t-286 -110.5t-286 110.5t-117 269.5zM285 1036q0 -77 50.5 -127.5t126.5 -50.5t126.5 50.5t50.5 127.5t-50.5 127.5t-126.5 50.5t-126.5 -50.5t-50.5 -127.5z" />
    <glyph glyph-name="guillemotright" unicode="&#xbb;" horiz-adv-x="1290" 
d="M1196 691v-136l-576 -354v235l318 187l-318 187v235zM689 691v-136l-576 -354v235l318 187l-318 187v235z" />
    <glyph glyph-name="onequarter" unicode="&#xbc;" horiz-adv-x="1940" 
d="M375 1400h195v-948h-230v725l-141 -77l-85 161zM518 0l682 1400h223l-682 -1400h-223zM1168 167v172l411 609h211v-592h98v-189h-98v-167h-222v167h-400zM1391 354h177v269z" />
    <glyph glyph-name="onehalf" unicode="&#xbd;" horiz-adv-x="1940" 
d="M375 1400h195v-948h-230v725l-141 -77l-85 161zM518 0l682 1400h223l-682 -1400h-223zM1718 399l-195 -210h319v-189h-616v169l315 342q45 49 64 86.5t19 78.5q0 47 -28 76t-73 29q-42 0 -71 -27.5t-51 -90.5l-197 70q29 113 113.5 176t207.5 63q142 0 234.5 -78.5
t92.5 -207.5q0 -78 -32 -144t-102 -143z" />
    <glyph glyph-name="threequarters" unicode="&#xbe;" horiz-adv-x="1940" 
d="M499 757q0 58 -39 98.5t-97 40.5q-28 0 -53 -11l-87 107l188 219h-310v189h582v-175l-172 -194q101 -29 159.5 -109.5t58.5 -185.5q0 -123 -100.5 -215.5t-256.5 -92.5q-103 0 -188.5 46t-136.5 128l146 132q82 -118 170 -118q58 0 97 40.5t39 100.5zM518 0l682 1400h223
l-682 -1400h-223zM1168 167v172l411 609h211v-592h98v-189h-98v-167h-222v167h-400zM1391 354h177v269z" />
    <glyph glyph-name="questiondown" unicode="&#xbf;" horiz-adv-x="1109" 
d="M766 617v-362q-174 0 -270.5 -63t-96.5 -163q0 -74 65 -121.5t170 -47.5q133 0 269 113l136 -206q-189 -155 -433 -155q-108 0 -202 34t-157 91t-99 132.5t-36 158.5q0 143 100 254t270 149v186h284zM797 894q0 -71 -50 -118.5t-123 -47.5t-123 47.5t-50 118.5t50 118.5
t123 47.5t123 -47.5t50 -118.5z" />
    <glyph glyph-name="Agrave" unicode="&#xc0;" horiz-adv-x="1382" 
d="M534 1400h314l501 -1400h-301l-104 315h-506l-104 -315h-301zM871 547l-180 550l-180 -550h360zM624 1850l261 -342h-262l-275 342h276z" />
    <glyph glyph-name="Aacute" unicode="&#xc1;" horiz-adv-x="1382" 
d="M534 1400h314l501 -1400h-301l-104 315h-506l-104 -315h-301zM871 547l-180 550l-180 -550h360zM494 1508l261 342h276l-275 -342h-262z" />
    <glyph glyph-name="Acircumflex" unicode="&#xc2;" horiz-adv-x="1382" 
d="M534 1400h314l501 -1400h-301l-104 315h-506l-104 -315h-301zM871 547l-180 550l-180 -550h360zM593 1850h196l292 -342h-260l-130 155l-130 -155h-260z" />
    <glyph glyph-name="Atilde" unicode="&#xc3;" horiz-adv-x="1382" 
d="M534 1400h314l501 -1400h-301l-104 315h-506l-104 -315h-301zM871 547l-180 550l-180 -550h360zM703 1560q-70 38 -97 38q-43 0 -60 -75l-220 44q44 227 207 227q67 0 146 -45q70 -38 97 -38q43 0 60 75l220 -44q-44 -227 -207 -227q-67 0 -146 45z" />
    <glyph glyph-name="Adieresis" unicode="&#xc4;" horiz-adv-x="1382" 
d="M534 1400h314l501 -1400h-301l-104 315h-506l-104 -315h-301zM871 547l-180 550l-180 -550h360zM351 1664q0 62 42.5 104t104.5 42t104.5 -42t42.5 -104t-42.5 -104t-104.5 -42t-104.5 42t-42.5 104zM737 1664q0 62 42.5 104t104.5 42t104.5 -42t42.5 -104t-42.5 -104
t-104.5 -42t-104.5 42t-42.5 104z" />
    <glyph glyph-name="Aring" unicode="&#xc5;" horiz-adv-x="1382" 
d="M534 1400h314l501 -1400h-301l-104 315h-506l-104 -315h-301zM871 547l-180 550l-180 -550h360zM624 1685q0 -28 19 -47t48 -19t48 19t19 47t-19 47t-48 19t-48 -19t-19 -47zM465 1685q0 88 64.5 147.5t161.5 59.5t161.5 -59.5t64.5 -147.5t-64.5 -147.5t-161.5 -59.5
t-161.5 59.5t-64.5 147.5z" />
    <glyph glyph-name="AE" unicode="&#xc6;" horiz-adv-x="1865" 
d="M312 0h-310l775 1400h967v-242h-573v-334h525v-240h-525v-342h591v-242h-872v315h-411zM890 1092l-291 -545h291v545z" />
    <glyph glyph-name="Ccedilla" unicode="&#xc7;" horiz-adv-x="1390" 
d="M847 -300q0 32 -26.5 53t-68.5 21q-31 0 -59 -5l-47 52l85 161q-187 21 -336 120t-233.5 255.5t-84.5 342.5q0 201 98.5 367t271 261.5t381.5 95.5q271 0 480 -162l-143 -211q-84 60 -163.5 92.5t-173.5 32.5q-196 0 -330 -137t-134 -339t134 -339t330 -137q94 0 184 37
t163 98l150 -209q-171 -141 -398 -168l-58 -89q79 -21 127 -75t48 -122q0 -93 -80 -154.5t-200 -61.5q-121 0 -201 62l81 118q47 -34 108 -34q42 0 68.5 21t26.5 53z" />
    <glyph glyph-name="Egrave" unicode="&#xc8;" horiz-adv-x="1146" 
d="M153 0v1400h872v-242h-588v-334h540v-240h-540v-342h606v-242h-890zM496 1850l261 -342h-262l-275 342h276z" />
    <glyph glyph-name="Eacute" unicode="&#xc9;" horiz-adv-x="1146" 
d="M153 0v1400h872v-242h-588v-334h540v-240h-540v-342h606v-242h-890zM413 1508l261 342h276l-275 -342h-262z" />
    <glyph glyph-name="Ecircumflex" unicode="&#xca;" horiz-adv-x="1146" 
d="M153 0v1400h872v-242h-588v-334h540v-240h-540v-342h606v-242h-890zM491 1850h196l292 -342h-260l-130 155l-130 -155h-260z" />
    <glyph glyph-name="Edieresis" unicode="&#xcb;" horiz-adv-x="1146" 
d="M153 0v1400h872v-242h-588v-334h540v-240h-540v-342h606v-242h-890zM253 1664q0 62 42.5 104t104.5 42t104.5 -42t42.5 -104t-42.5 -104t-104.5 -42t-104.5 42t-42.5 104zM639 1664q0 62 42.5 104t104.5 42t104.5 -42t42.5 -104t-42.5 -104t-104.5 -42t-104.5 42
t-42.5 104z" />
    <glyph glyph-name="Igrave" unicode="&#xcc;" horiz-adv-x="606" 
d="M161 1400h284v-1400h-284v1400zM234 1850l261 -342h-262l-275 342h276z" />
    <glyph glyph-name="Iacute" unicode="&#xcd;" horiz-adv-x="606" 
d="M161 1400h284v-1400h-284v1400zM111 1508l261 342h276l-275 -342h-262z" />
    <glyph glyph-name="Icircumflex" unicode="&#xce;" horiz-adv-x="606" 
d="M161 1400h284v-1400h-284v1400zM205 1850h196l292 -342h-260l-130 155l-130 -155h-260z" />
    <glyph glyph-name="Idieresis" unicode="&#xcf;" horiz-adv-x="606" 
d="M161 1400h284v-1400h-284v1400zM-37 1664q0 62 42.5 104t104.5 42t104.5 -42t42.5 -104t-42.5 -104t-104.5 -42t-104.5 42t-42.5 104zM349 1664q0 62 42.5 104t104.5 42t104.5 -42t42.5 -104t-42.5 -104t-104.5 -42t-104.5 42t-42.5 104z" />
    <glyph glyph-name="Eth" unicode="&#xd0;" horiz-adv-x="1473" 
d="M187 1400h507q320 0 511 -190t191 -510t-191 -510t-511 -190h-507v606h-175v187h175v607zM727 606h-256v-358h213q195 0 310 114.5t115 337.5t-115 337.5t-310 114.5h-213v-359h256v-187z" />
    <glyph glyph-name="Ntilde" unicode="&#xd1;" horiz-adv-x="1414" 
d="M153 0v1400h288l552 -942v942h268v-1400h-288l-552 942v-942h-268zM719 1560q-70 38 -97 38q-43 0 -60 -75l-220 44q44 227 207 227q67 0 146 -45q70 -38 97 -38q43 0 60 75l220 -44q-44 -227 -207 -227q-67 0 -146 45z" />
    <glyph glyph-name="Ograve" unicode="&#xd2;" horiz-adv-x="1656" 
d="M364 700q0 -202 134 -339t330 -137t330 137t134 339t-134 339t-330 137t-330 -137t-134 -339zM77 700q0 201 98.5 367t271 261.5t381.5 95.5t381.5 -95.5t271 -261.5t98.5 -367t-98.5 -367t-271 -261.5t-381.5 -95.5t-381.5 95.5t-271 261.5t-98.5 367zM749 1850
l261 -342h-262l-275 342h276z" />
    <glyph glyph-name="Oacute" unicode="&#xd3;" horiz-adv-x="1656" 
d="M364 700q0 -202 134 -339t330 -137t330 137t134 339t-134 339t-330 137t-330 -137t-134 -339zM77 700q0 201 98.5 367t271 261.5t381.5 95.5t381.5 -95.5t271 -261.5t98.5 -367t-98.5 -367t-271 -261.5t-381.5 -95.5t-381.5 95.5t-271 261.5t-98.5 367zM645 1508l261 342
h276l-275 -342h-262z" />
    <glyph glyph-name="Ocircumflex" unicode="&#xd4;" horiz-adv-x="1656" 
d="M364 700q0 -202 134 -339t330 -137t330 137t134 339t-134 339t-330 137t-330 -137t-134 -339zM77 700q0 201 98.5 367t271 261.5t381.5 95.5t381.5 -95.5t271 -261.5t98.5 -367t-98.5 -367t-271 -261.5t-381.5 -95.5t-381.5 95.5t-271 261.5t-98.5 367zM730 1850h196
l292 -342h-260l-130 155l-130 -155h-260z" />
    <glyph glyph-name="Otilde" unicode="&#xd5;" horiz-adv-x="1656" 
d="M364 700q0 -202 134 -339t330 -137t330 137t134 339t-134 339t-330 137t-330 -137t-134 -339zM77 700q0 201 98.5 367t271 261.5t381.5 95.5t381.5 -95.5t271 -261.5t98.5 -367t-98.5 -367t-271 -261.5t-381.5 -95.5t-381.5 95.5t-271 261.5t-98.5 367zM840 1560
q-70 38 -97 38q-43 0 -60 -75l-220 44q44 227 207 227q67 0 146 -45q70 -38 97 -38q43 0 60 75l220 -44q-44 -227 -207 -227q-67 0 -146 45z" />
    <glyph glyph-name="Odieresis" unicode="&#xd6;" horiz-adv-x="1656" 
d="M364 700q0 -202 134 -339t330 -137t330 137t134 339t-134 339t-330 137t-330 -137t-134 -339zM77 700q0 201 98.5 367t271 261.5t381.5 95.5t381.5 -95.5t271 -261.5t98.5 -367t-98.5 -367t-271 -261.5t-381.5 -95.5t-381.5 95.5t-271 261.5t-98.5 367zM488 1664
q0 62 42.5 104t104.5 42t104.5 -42t42.5 -104t-42.5 -104t-104.5 -42t-104.5 42t-42.5 104zM874 1664q0 62 42.5 104t104.5 42t104.5 -42t42.5 -104t-42.5 -104t-104.5 -42t-104.5 42t-42.5 104z" />
    <glyph glyph-name="multiply" unicode="&#xd7;" horiz-adv-x="1166" 
d="M860 1117l180 -180l-277 -278l277 -277l-180 -180l-277 277l-277 -277l-180 180l277 277l-277 278l180 180l277 -278z" />
    <glyph glyph-name="Oslash" unicode="&#xd8;" horiz-adv-x="1656" 
d="M77 700q0 201 98.5 367t271 261.5t381.5 95.5q198 0 369 -90l98 126h226l-178 -227q111 -100 173.5 -238t62.5 -295q0 -201 -98.5 -367t-271 -261.5t-381.5 -95.5q-212 0 -389 100l-106 -136h-226l189 242q-104 99 -161.5 232.5t-57.5 285.5zM1292 700q0 184 -116 318
l-575 -736q105 -58 227 -58q196 0 330 137t134 339zM364 700q0 -174 101 -302l570 729q-98 49 -207 49q-196 0 -330 -137t-134 -339z" />
    <glyph glyph-name="Ugrave" unicode="&#xd9;" horiz-adv-x="1340" 
d="M1198 1400v-920q0 -147 -71 -262.5t-191 -177.5t-266 -62t-266 62t-191 177.5t-71 262.5v920h284v-932q0 -108 70 -175t174 -67t174 67t70 175v932h284zM583 1850l261 -342h-262l-275 342h276z" />
    <glyph glyph-name="Uacute" unicode="&#xda;" horiz-adv-x="1340" 
d="M1198 1400v-920q0 -147 -71 -262.5t-191 -177.5t-266 -62t-266 62t-191 177.5t-71 262.5v920h284v-932q0 -108 70 -175t174 -67t174 67t70 175v932h284zM499 1508l261 342h276l-275 -342h-262z" />
    <glyph glyph-name="Ucircumflex" unicode="&#xdb;" horiz-adv-x="1340" 
d="M1198 1400v-920q0 -147 -71 -262.5t-191 -177.5t-266 -62t-266 62t-191 177.5t-71 262.5v920h284v-932q0 -108 70 -175t174 -67t174 67t70 175v932h284zM572 1850h196l292 -342h-260l-130 155l-130 -155h-260z" />
    <glyph glyph-name="Udieresis" unicode="&#xdc;" horiz-adv-x="1340" 
d="M1198 1400v-920q0 -147 -71 -262.5t-191 -177.5t-266 -62t-266 62t-191 177.5t-71 262.5v920h284v-932q0 -108 70 -175t174 -67t174 67t70 175v932h284zM330 1664q0 62 42.5 104t104.5 42t104.5 -42t42.5 -104t-42.5 -104t-104.5 -42t-104.5 42t-42.5 104zM716 1664
q0 62 42.5 104t104.5 42t104.5 -42t42.5 -104t-42.5 -104t-104.5 -42t-104.5 42t-42.5 104z" />
    <glyph glyph-name="Yacute" unicode="&#xdd;" horiz-adv-x="1302" 
d="M339 1400l312 -566l312 566h306l-476 -836v-564h-284v564l-476 836h306zM481 1508l261 342h276l-275 -342h-262z" />
    <glyph glyph-name="Thorn" unicode="&#xde;" horiz-adv-x="1200" 
d="M648 244h-211v-244h-284v1400h284v-244h211q222 0 355.5 -126t133.5 -330q0 -205 -133.5 -330.5t-355.5 -125.5zM853 700q0 102 -59.5 162t-168.5 60h-188v-444h188q109 0 168.5 59.5t59.5 162.5z" />
    <glyph glyph-name="germandbls" unicode="&#xdf;" horiz-adv-x="1233" 
d="M142 0v1022q0 178 122.5 290t308.5 112q183 0 308.5 -106t125.5 -260q0 -97 -58 -179t-159 -122q160 -24 264 -129.5t104 -251.5q0 -170 -130.5 -285t-323.5 -115q-127 0 -224 50l59 233q71 -48 149 -48q80 0 133 50.5t53 126.5q0 109 -92.5 173.5t-251.5 69.5v228
q89 8 145 57t56 125q0 63 -45.5 105.5t-111.5 42.5q-68 0 -112 -45.5t-44 -118.5v-1025h-276z" />
    <glyph glyph-name="agrave" unicode="&#xe0;" horiz-adv-x="1315" 
d="M640 219q89 0 161.5 45t108.5 120v268q-36 75 -108.5 120t-161.5 45q-127 0 -213 -86t-86 -213t86 -213t213 -86zM582 1060q197 0 328 -128v104h272v-1036h-272v104q-131 -128 -328 -128q-146 0 -265 73.5t-185.5 197.5t-66.5 271t66.5 271t185.5 197.5t265 73.5z
M569 1526l261 -342h-262l-275 342h276z" />
    <glyph glyph-name="aacute" unicode="&#xe1;" horiz-adv-x="1315" 
d="M640 219q89 0 161.5 45t108.5 120v268q-36 75 -108.5 120t-161.5 45q-127 0 -213 -86t-86 -213t86 -213t213 -86zM582 1060q197 0 328 -128v104h272v-1036h-272v104q-131 -128 -328 -128q-146 0 -265 73.5t-185.5 197.5t-66.5 271t66.5 271t185.5 197.5t265 73.5z
M436 1184l261 342h276l-275 -342h-262z" />
    <glyph glyph-name="acircumflex" unicode="&#xe2;" horiz-adv-x="1315" 
d="M640 219q89 0 161.5 45t108.5 120v268q-36 75 -108.5 120t-161.5 45q-127 0 -213 -86t-86 -213t86 -213t213 -86zM582 1060q197 0 328 -128v104h272v-1036h-272v104q-131 -128 -328 -128q-146 0 -265 73.5t-185.5 197.5t-66.5 271t66.5 271t185.5 197.5t265 73.5z
M551 1526h196l292 -342h-260l-130 155l-130 -155h-260z" />
    <glyph glyph-name="atilde" unicode="&#xe3;" horiz-adv-x="1315" 
d="M640 219q89 0 161.5 45t108.5 120v268q-36 75 -108.5 120t-161.5 45q-127 0 -213 -86t-86 -213t86 -213t213 -86zM582 1060q197 0 328 -128v104h272v-1036h-272v104q-131 -128 -328 -128q-146 0 -265 73.5t-185.5 197.5t-66.5 271t66.5 271t185.5 197.5t265 73.5z
M644 1234q-70 38 -97 38q-43 0 -60 -75l-220 44q44 227 207 227q67 0 146 -45q70 -38 97 -38q43 0 60 75l220 -44q-44 -227 -207 -227q-67 0 -146 45z" />
    <glyph glyph-name="adieresis" unicode="&#xe4;" horiz-adv-x="1315" 
d="M640 219q89 0 161.5 45t108.5 120v268q-36 75 -108.5 120t-161.5 45q-127 0 -213 -86t-86 -213t86 -213t213 -86zM582 1060q197 0 328 -128v104h272v-1036h-272v104q-131 -128 -328 -128q-146 0 -265 73.5t-185.5 197.5t-66.5 271t66.5 271t185.5 197.5t265 73.5z
M288 1340q0 62 42.5 104t104.5 42t104.5 -42t42.5 -104t-42.5 -104t-104.5 -42t-104.5 42t-42.5 104zM674 1340q0 62 42.5 104t104.5 42t104.5 -42t42.5 -104t-42.5 -104t-104.5 -42t-104.5 42t-42.5 104z" />
    <glyph glyph-name="aring" unicode="&#xe5;" horiz-adv-x="1315" 
d="M640 219q89 0 161.5 45t108.5 120v268q-36 75 -108.5 120t-161.5 45q-127 0 -213 -86t-86 -213t86 -213t213 -86zM582 1060q197 0 328 -128v104h272v-1036h-272v104q-131 -128 -328 -128q-146 0 -265 73.5t-185.5 197.5t-66.5 271t66.5 271t185.5 197.5t265 73.5z
M563 1361q0 -28 19 -47t48 -19t48 19t19 47t-19 47t-48 19t-48 -19t-19 -47zM404 1361q0 88 64.5 147.5t161.5 59.5t161.5 -59.5t64.5 -147.5t-64.5 -147.5t-161.5 -59.5t-161.5 59.5t-64.5 147.5z" />
    <glyph glyph-name="ae" unicode="&#xe6;" horiz-adv-x="2039" 
d="M1962 436h-816q18 -108 100.5 -174.5t199.5 -66.5q163 0 294 129l165 -160q-173 -188 -458 -188q-139 0 -256.5 53.5t-191.5 145.5q-68 -92 -182.5 -145.5t-250.5 -53.5q-214 0 -357.5 101t-143.5 249q0 93 63 169t171 119t237 43q84 0 168 -22t147 -58v33
q0 99 -81.5 165t-207.5 66q-89 0 -174.5 -32.5t-152.5 -87.5l-94 191q85 70 197 109t231 39q136 0 250 -53.5t182 -146.5q73 93 186 146.5t244 53.5q155 0 280 -70.5t194 -190t69 -263.5q0 -52 -12 -100zM338 326q0 -58 70.5 -97.5t178.5 -39.5q182 0 262 111v84
q-99 79 -262 79q-108 0 -178.5 -39.5t-70.5 -97.5zM1429 841q-97 0 -172.5 -57t-103.5 -152h538q-23 94 -93 151.5t-169 57.5z" />
    <glyph glyph-name="ccedilla" unicode="&#xe7;" horiz-adv-x="1114" 
d="M651 -300q0 32 -26.5 53t-68.5 21q-31 0 -59 -5l-47 52l86 164q-207 33 -339 182t-132 351q0 228 165 385t410 157q226 0 391 -139l-136 -205q-124 101 -253 101q-127 0 -213 -86.5t-86 -212.5q0 -127 86 -213t213 -86q136 0 259 109l153 -192q-130 -127 -323 -154
l-58 -89q79 -21 127 -75t48 -122q0 -93 -80 -154.5t-200 -61.5q-121 0 -201 62l81 118q47 -34 108 -34q42 0 68.5 21t26.5 53z" />
    <glyph glyph-name="egrave" unicode="&#xe8;" horiz-adv-x="1236" 
d="M343 436q18 -108 100.5 -174.5t199.5 -66.5q163 0 294 129l165 -160q-173 -188 -458 -188q-126 0 -235 42t-184 115t-117.5 172.5t-42.5 212.5q0 112 43 212t117.5 172.5t179.5 115t223 42.5q155 0 280 -70.5t194 -190t69 -263.5q0 -52 -12 -100h-816zM626 841
q-97 0 -172.5 -57t-103.5 -152h538q-23 94 -93 151.5t-169 57.5zM553 1526l261 -342h-262l-275 342h276z" />
    <glyph glyph-name="eacute" unicode="&#xe9;" horiz-adv-x="1236" 
d="M343 436q18 -108 100.5 -174.5t199.5 -66.5q163 0 294 129l165 -160q-173 -188 -458 -188q-126 0 -235 42t-184 115t-117.5 172.5t-42.5 212.5q0 112 43 212t117.5 172.5t179.5 115t223 42.5q155 0 280 -70.5t194 -190t69 -263.5q0 -52 -12 -100h-816zM626 841
q-97 0 -172.5 -57t-103.5 -152h538q-23 94 -93 151.5t-169 57.5zM426 1184l261 342h276l-275 -342h-262z" />
    <glyph glyph-name="ecircumflex" unicode="&#xea;" horiz-adv-x="1236" 
d="M343 436q18 -108 100.5 -174.5t199.5 -66.5q163 0 294 129l165 -160q-173 -188 -458 -188q-126 0 -235 42t-184 115t-117.5 172.5t-42.5 212.5q0 112 43 212t117.5 172.5t179.5 115t223 42.5q155 0 280 -70.5t194 -190t69 -263.5q0 -52 -12 -100h-816zM626 841
q-97 0 -172.5 -57t-103.5 -152h538q-23 94 -93 151.5t-169 57.5zM520 1526h196l292 -342h-260l-130 155l-130 -155h-260z" />
    <glyph glyph-name="edieresis" unicode="&#xeb;" horiz-adv-x="1236" 
d="M343 436q18 -108 100.5 -174.5t199.5 -66.5q163 0 294 129l165 -160q-173 -188 -458 -188q-126 0 -235 42t-184 115t-117.5 172.5t-42.5 212.5q0 112 43 212t117.5 172.5t179.5 115t223 42.5q155 0 280 -70.5t194 -190t69 -263.5q0 -52 -12 -100h-816zM626 841
q-97 0 -172.5 -57t-103.5 -152h538q-23 94 -93 151.5t-169 57.5zM278 1340q0 62 42.5 104t104.5 42t104.5 -42t42.5 -104t-42.5 -104t-104.5 -42t-104.5 42t-42.5 104zM664 1340q0 62 42.5 104t104.5 42t104.5 -42t42.5 -104t-42.5 -104t-104.5 -42t-104.5 42t-42.5 104z
" />
    <glyph glyph-name="igrave" unicode="&#xec;" horiz-adv-x="552" 
d="M138 0v1036h275v-1036h-275zM196 1526l261 -342h-262l-275 342h276z" />
    <glyph glyph-name="iacute" unicode="&#xed;" horiz-adv-x="552" 
d="M138 0v1036h275v-1036h-275zM95 1184l261 342h276l-275 -342h-262z" />
    <glyph glyph-name="icircumflex" unicode="&#xee;" horiz-adv-x="552" 
d="M138 0v1036h275v-1036h-275zM177 1526h196l292 -342h-260l-130 155l-130 -155h-260z" />
    <glyph glyph-name="idieresis" unicode="&#xef;" horiz-adv-x="552" 
d="M138 0v1036h275v-1036h-275zM-64 1340q0 62 42.5 104t104.5 42t104.5 -42t42.5 -104t-42.5 -104t-104.5 -42t-104.5 42t-42.5 104zM322 1340q0 62 42.5 104t104.5 42t104.5 -42t42.5 -104t-42.5 -104t-104.5 -42t-104.5 42t-42.5 104z" />
    <glyph glyph-name="eth" unicode="&#xf0;" horiz-adv-x="1248" 
d="M323 1014l-70 136l192 91q-78 47 -180 91l220 128q101 -45 194 -107l204 97l70 -139l-137 -65q167 -150 261.5 -345t94.5 -403q0 -145 -72 -264.5t-199 -188.5t-282 -69q-153 0 -280.5 67.5t-200.5 185t-73 259.5q0 105 44 199.5t115.5 160.5t165.5 105t192 39
q111 0 191 -53q-74 112 -181 201zM340 494q0 -116 81 -195.5t200 -79.5t200 79.5t81 195.5q0 117 -81 196.5t-200 79.5t-200 -79.5t-81 -196.5z" />
    <glyph glyph-name="ntilde" unicode="&#xf1;" horiz-adv-x="1226" 
d="M408 674v-674h-275v1036h275v-114q53 63 130.5 100.5t160.5 37.5q183 0 298.5 -117t115.5 -305v-638h-275v611q0 88 -56.5 147t-149.5 59q-63 0 -125 -42t-99 -101zM635 1234q-70 38 -97 38q-43 0 -60 -75l-220 44q44 227 207 227q67 0 146 -45q70 -38 97 -38q43 0 60 75
l220 -44q-44 -227 -207 -227q-67 0 -146 45z" />
    <glyph glyph-name="ograve" unicode="&#xf2;" horiz-adv-x="1280" 
d="M65 518q0 228 165 385t410 157q162 0 294 -72t206.5 -196t74.5 -274t-74.5 -274t-206.5 -196t-294 -72q-245 0 -410 157t-165 385zM341 518q0 -127 86 -213t213 -86t213.5 86t86.5 213q0 126 -86.5 212.5t-213.5 86.5t-213 -86.5t-86 -212.5zM560 1526l261 -342h-262
l-275 342h276z" />
    <glyph glyph-name="oacute" unicode="&#xf3;" horiz-adv-x="1280" 
d="M65 518q0 228 165 385t410 157q162 0 294 -72t206.5 -196t74.5 -274t-74.5 -274t-206.5 -196t-294 -72q-245 0 -410 157t-165 385zM341 518q0 -127 86 -213t213 -86t213.5 86t86.5 213q0 126 -86.5 212.5t-213.5 86.5t-213 -86.5t-86 -212.5zM463 1184l261 342h276
l-275 -342h-262z" />
    <glyph glyph-name="ocircumflex" unicode="&#xf4;" horiz-adv-x="1280" 
d="M65 518q0 228 165 385t410 157q162 0 294 -72t206.5 -196t74.5 -274t-74.5 -274t-206.5 -196t-294 -72q-245 0 -410 157t-165 385zM341 518q0 -127 86 -213t213 -86t213.5 86t86.5 213q0 126 -86.5 212.5t-213.5 86.5t-213 -86.5t-86 -212.5zM542 1526h196l292 -342h-260
l-130 155l-130 -155h-260z" />
    <glyph glyph-name="otilde" unicode="&#xf5;" horiz-adv-x="1280" 
d="M65 518q0 228 165 385t410 157q162 0 294 -72t206.5 -196t74.5 -274t-74.5 -274t-206.5 -196t-294 -72q-245 0 -410 157t-165 385zM341 518q0 -127 86 -213t213 -86t213.5 86t86.5 213q0 126 -86.5 212.5t-213.5 86.5t-213 -86.5t-86 -212.5zM652 1234q-70 38 -97 38
q-43 0 -60 -75l-220 44q44 227 207 227q67 0 146 -45q70 -38 97 -38q43 0 60 75l220 -44q-44 -227 -207 -227q-67 0 -146 45z" />
    <glyph glyph-name="odieresis" unicode="&#xf6;" horiz-adv-x="1280" 
d="M65 518q0 228 165 385t410 157q162 0 294 -72t206.5 -196t74.5 -274t-74.5 -274t-206.5 -196t-294 -72q-245 0 -410 157t-165 385zM341 518q0 -127 86 -213t213 -86t213.5 86t86.5 213q0 126 -86.5 212.5t-213.5 86.5t-213 -86.5t-86 -212.5zM300 1340q0 62 42.5 104
t104.5 42t104.5 -42t42.5 -104t-42.5 -104t-104.5 -42t-104.5 42t-42.5 104zM686 1340q0 62 42.5 104t104.5 42t104.5 -42t42.5 -104t-42.5 -104t-104.5 -42t-104.5 42t-42.5 104z" />
    <glyph glyph-name="divide" unicode="&#xf7;" horiz-adv-x="1166" 
d="M1048 545h-930v237h930v-237zM419 1054q0 69 47 116t117 47t117 -47t47 -116t-47 -116t-117 -47t-117 47t-47 116zM419 273q0 69 47 116t117 47t117 -47t47 -116t-47 -116t-117 -47t-117 47t-47 116z" />
    <glyph glyph-name="oslash" unicode="&#xf8;" horiz-adv-x="1280" 
d="M65 518q0 228 165 385t410 157q146 0 270 -61l76 97h213l-150 -192q79 -74 122.5 -173.5t43.5 -212.5q0 -150 -74.5 -274t-206.5 -196t-294 -72q-147 0 -271 61l-77 -97h-213l151 192q-165 157 -165 386zM952 518q0 105 -61 185l-371 -473q58 -24 120 -24q132 0 222 90.5
t90 221.5zM328 518q0 -104 59 -185l371 472q-58 24 -118 24q-131 0 -221.5 -90t-90.5 -221z" />
    <glyph glyph-name="ugrave" unicode="&#xf9;" horiz-adv-x="1226" 
d="M818 362v674h275v-1036h-275v114q-53 -63 -130.5 -100.5t-160.5 -37.5q-183 0 -298.5 117t-115.5 305v638h275v-611q0 -88 56.5 -147t149.5 -59q63 0 125 42t99 101zM507 1526l261 -342h-262l-275 342h276z" />
    <glyph glyph-name="uacute" unicode="&#xfa;" horiz-adv-x="1226" 
d="M818 362v674h275v-1036h-275v114q-53 -63 -130.5 -100.5t-160.5 -37.5q-183 0 -298.5 117t-115.5 305v638h275v-611q0 -88 56.5 -147t149.5 -59q63 0 125 42t99 101zM430 1184l261 342h276l-275 -342h-262z" />
    <glyph glyph-name="ucircumflex" unicode="&#xfb;" horiz-adv-x="1226" 
d="M818 362v674h275v-1036h-275v114q-53 -63 -130.5 -100.5t-160.5 -37.5q-183 0 -298.5 117t-115.5 305v638h275v-611q0 -88 56.5 -147t149.5 -59q63 0 125 42t99 101zM505 1526h196l292 -342h-260l-130 155l-130 -155h-260z" />
    <glyph glyph-name="udieresis" unicode="&#xfc;" horiz-adv-x="1226" 
d="M818 362v674h275v-1036h-275v114q-53 -63 -130.5 -100.5t-160.5 -37.5q-183 0 -298.5 117t-115.5 305v638h275v-611q0 -88 56.5 -147t149.5 -59q63 0 125 42t99 101zM263 1340q0 62 42.5 104t104.5 42t104.5 -42t42.5 -104t-42.5 -104t-104.5 -42t-104.5 42t-42.5 104z
M649 1340q0 62 42.5 104t104.5 42t104.5 -42t42.5 -104t-42.5 -104t-104.5 -42t-104.5 42t-42.5 104z" />
    <glyph glyph-name="yacute" unicode="&#xfd;" horiz-adv-x="1074" 
d="M504 -464h-287l182 464l-380 1036h286l230 -688l234 688h286zM358 1184l261 342h276l-275 -342h-262z" />
    <glyph glyph-name="thorn" unicode="&#xfe;" horiz-adv-x="1315" 
d="M675 219q127 0 213 86t86 213t-86 213t-213 86q-89 0 -161.5 -45t-108.5 -120v-268q36 -75 108.5 -120t161.5 -45zM733 1060q146 0 265 -73.5t185.5 -197.5t66.5 -271t-66.5 -271t-185.5 -197.5t-265 -73.5q-197 0 -328 128v-568h-272v1924h272v-528q131 128 328 128z
" />
    <glyph glyph-name="ydieresis" unicode="&#xff;" horiz-adv-x="1074" 
d="M504 -464h-287l182 464l-380 1036h286l230 -688l234 688h286zM196 1340q0 62 42.5 104t104.5 42t104.5 -42t42.5 -104t-42.5 -104t-104.5 -42t-104.5 42t-42.5 104zM582 1340q0 62 42.5 104t104.5 42t104.5 -42t42.5 -104t-42.5 -104t-104.5 -42t-104.5 42t-42.5 104z
" />
    <glyph glyph-name="Amacron" unicode="&#x100;" horiz-adv-x="1382" 
d="M534 1400h314l501 -1400h-301l-104 315h-506l-104 -315h-301zM871 547l-180 550l-180 -550h360zM381 1556v206h620v-206h-620z" />
    <glyph glyph-name="amacron" unicode="&#x101;" horiz-adv-x="1315" 
d="M640 219q89 0 161.5 45t108.5 120v268q-36 75 -108.5 120t-161.5 45q-127 0 -213 -86t-86 -213t86 -213t213 -86zM582 1060q197 0 328 -128v104h272v-1036h-272v104q-131 -128 -328 -128q-146 0 -265 73.5t-185.5 197.5t-66.5 271t66.5 271t185.5 197.5t265 73.5z
M326 1232v206h620v-206h-620z" />
    <glyph glyph-name="Abreve" unicode="&#x102;" horiz-adv-x="1382" 
d="M534 1400h314l501 -1400h-301l-104 315h-506l-104 -315h-301zM871 547l-180 550l-180 -550h360zM691 1488q-141 0 -244 89t-109 225h229q1 -55 36.5 -92t87.5 -37t87.5 37t36.5 92h229q-6 -136 -109 -225t-244 -89z" />
    <glyph glyph-name="abreve" unicode="&#x103;" horiz-adv-x="1315" 
d="M640 219q89 0 161.5 45t108.5 120v268q-36 75 -108.5 120t-161.5 45q-127 0 -213 -86t-86 -213t86 -213t213 -86zM582 1060q197 0 328 -128v104h272v-1036h-272v104q-131 -128 -328 -128q-146 0 -265 73.5t-185.5 197.5t-66.5 271t66.5 271t185.5 197.5t265 73.5z
M636 1164q-141 0 -244 89t-109 225h229q1 -55 36.5 -92t87.5 -37t87.5 37t36.5 92h229q-6 -136 -109 -225t-244 -89z" />
    <glyph glyph-name="Aogonek" unicode="&#x104;" horiz-adv-x="1382" 
d="M1163 0h-115l-104 315h-506l-104 -315h-301l501 1400h314l501 -1400q-158 -130 -158 -220q0 -38 25.5 -61.5t63.5 -23.5q44 0 77 22l54 -128q-70 -47 -171 -47q-105 0 -176.5 59.5t-71.5 148.5q0 68 46.5 132.5t124.5 117.5zM871 547l-180 550l-180 -550h360z" />
    <glyph glyph-name="aogonek" unicode="&#x105;" horiz-adv-x="1315" 
d="M582 1060q197 0 328 -128v104h272v-1036q-158 -130 -158 -220q0 -38 25.5 -61.5t63.5 -23.5q44 0 77 22l54 -128q-70 -47 -171 -47q-105 0 -176.5 59.5t-71.5 148.5q0 68 46.5 132.5t124.5 117.5h-86v104q-131 -128 -328 -128q-146 0 -265 73.5t-185.5 197.5t-66.5 271
t66.5 271t185.5 197.5t265 73.5zM640 219q89 0 161.5 45t108.5 120v268q-36 75 -108.5 120t-161.5 45q-127 0 -213 -86t-86 -213t86 -213t213 -86z" />
    <glyph glyph-name="Cacute" unicode="&#x106;" horiz-adv-x="1390" 
d="M828 -24q-209 0 -381.5 95.5t-271 261.5t-98.5 367t98.5 367t271 261.5t381.5 95.5q271 0 480 -162l-143 -211q-84 60 -163.5 92.5t-173.5 32.5q-196 0 -330 -137t-134 -339t134 -339t330 -137q94 0 184 37t163 98l150 -209q-210 -174 -497 -174zM586 1508l261 342h276
l-275 -342h-262z" />
    <glyph glyph-name="cacute" unicode="&#x107;" horiz-adv-x="1111" 
d="M640 -24q-245 0 -410 157t-165 385t165 385t410 157q226 0 391 -139l-136 -205q-124 101 -253 101q-127 0 -213 -86.5t-86 -212.5q0 -127 86 -213t213 -86q136 0 259 109l153 -192q-165 -160 -414 -160zM402 1184l261 342h276l-275 -342h-262z" />
    <glyph glyph-name="Ccircumflex" unicode="&#x108;" horiz-adv-x="1390" 
d="M828 -24q-209 0 -381.5 95.5t-271 261.5t-98.5 367t98.5 367t271 261.5t381.5 95.5q271 0 480 -162l-143 -211q-84 60 -163.5 92.5t-173.5 32.5q-196 0 -330 -137t-134 -339t134 -339t330 -137q94 0 184 37t163 98l150 -209q-210 -174 -497 -174zM677 1850h196l292 -342
h-260l-130 155l-130 -155h-260z" />
    <glyph glyph-name="ccircumflex" unicode="&#x109;" horiz-adv-x="1111" 
d="M640 -24q-245 0 -410 157t-165 385t165 385t410 157q226 0 391 -139l-136 -205q-124 101 -253 101q-127 0 -213 -86.5t-86 -212.5q0 -127 86 -213t213 -86q136 0 259 109l153 -192q-165 -160 -414 -160zM487 1526h196l292 -342h-260l-130 155l-130 -155h-260z" />
    <glyph glyph-name="Cdotaccent" unicode="&#x10a;" horiz-adv-x="1390" 
d="M828 -24q-209 0 -381.5 95.5t-271 261.5t-98.5 367t98.5 367t271 261.5t381.5 95.5q271 0 480 -162l-143 -211q-84 60 -163.5 92.5t-173.5 32.5q-196 0 -330 -137t-134 -339t134 -339t330 -137q94 0 184 37t163 98l150 -209q-210 -174 -497 -174zM624 1663
q0 62 43.5 105.5t106.5 43.5t106.5 -43.5t43.5 -105.5t-43.5 -105.5t-106.5 -43.5t-106.5 43.5t-43.5 105.5z" />
    <glyph glyph-name="cdotaccent" unicode="&#x10b;" horiz-adv-x="1111" 
d="M640 -24q-245 0 -410 157t-165 385t165 385t410 157q226 0 391 -139l-136 -205q-124 101 -253 101q-127 0 -213 -86.5t-86 -212.5q0 -127 86 -213t213 -86q136 0 259 109l153 -192q-165 -160 -414 -160zM455 1339q0 62 43.5 105.5t106.5 43.5t106.5 -43.5t43.5 -105.5
t-43.5 -105.5t-106.5 -43.5t-106.5 43.5t-43.5 105.5z" />
    <glyph glyph-name="Ccaron" unicode="&#x10c;" horiz-adv-x="1390" 
d="M828 -24q-209 0 -381.5 95.5t-271 261.5t-98.5 367t98.5 367t271 261.5t381.5 95.5q271 0 480 -162l-143 -211q-84 60 -163.5 92.5t-173.5 32.5q-196 0 -330 -137t-134 -339t134 -339t330 -137q94 0 184 37t163 98l150 -209q-210 -174 -497 -174zM873 1508h-196l-292 342
h260l130 -155l130 155h260z" />
    <glyph glyph-name="ccaron" unicode="&#x10d;" horiz-adv-x="1111" 
d="M640 -24q-245 0 -410 157t-165 385t165 385t410 157q226 0 391 -139l-136 -205q-124 101 -253 101q-127 0 -213 -86.5t-86 -212.5q0 -127 86 -213t213 -86q136 0 259 109l153 -192q-165 -160 -414 -160zM685 1164h-196l-292 342h260l130 -155l130 155h260z" />
    <glyph glyph-name="Dcaron" unicode="&#x10e;" horiz-adv-x="1439" 
d="M153 1400h507q320 0 511 -190t191 -510t-191 -510t-511 -190h-507v1400zM650 1152h-213v-904h213q195 0 310 114.5t115 337.5t-115 337.5t-310 114.5zM763 1508h-196l-292 342h260l130 -155l130 155h260z" />
    <glyph glyph-name="dcaron" unicode="&#x10f;" horiz-adv-x="1654" 
d="M640 219q89 0 161.5 45t108.5 120v268q-36 75 -108.5 120t-161.5 45q-127 0 -213 -86t-86 -213t86 -213t213 -86zM582 1060q197 0 328 -128v528h272v-1460h-272v104q-131 -128 -328 -128q-146 0 -265 73.5t-185.5 197.5t-66.5 271t66.5 271t185.5 197.5t265 73.5z
M1299 1324q0 68 46.5 114t113.5 46t113.5 -46t46.5 -114q0 -36 -18 -75l-141 -301h-168l107 229q-45 19 -72.5 58t-27.5 89z" />
    <glyph glyph-name="Dcroat" unicode="&#x110;" horiz-adv-x="1473" 
d="M187 1400h507q320 0 511 -190t191 -510t-191 -510t-511 -190h-507v606h-175v187h175v607zM727 606h-256v-358h213q195 0 310 114.5t115 337.5t-115 337.5t-310 114.5h-213v-359h256v-187z" />
    <glyph glyph-name="dcroat" unicode="&#x111;" horiz-adv-x="1339" 
d="M612 1152v167h298v141h272v-141h137v-167h-137v-1152h-272v104q-131 -128 -328 -128q-146 0 -265 73.5t-185.5 197.5t-66.5 271t66.5 271t185.5 197.5t265 73.5q197 0 328 -128v220h-298zM640 219q89 0 161.5 45t108.5 120v268q-36 75 -108.5 120t-161.5 45
q-127 0 -213 -86t-86 -213t86 -213t213 -86z" />
    <glyph glyph-name="Emacron" unicode="&#x112;" horiz-adv-x="1146" 
d="M153 0v1400h872v-242h-588v-334h540v-240h-540v-342h606v-242h-890zM277 1556v206h620v-206h-620z" />
    <glyph glyph-name="emacron" unicode="&#x113;" horiz-adv-x="1236" 
d="M343 436q18 -108 100.5 -174.5t199.5 -66.5q163 0 294 129l165 -160q-173 -188 -458 -188q-126 0 -235 42t-184 115t-117.5 172.5t-42.5 212.5q0 112 43 212t117.5 172.5t179.5 115t223 42.5q155 0 280 -70.5t194 -190t69 -263.5q0 -52 -12 -100h-816zM626 841
q-97 0 -172.5 -57t-103.5 -152h538q-23 94 -93 151.5t-169 57.5zM308 1232v206h620v-206h-620z" />
    <glyph glyph-name="Ebreve" unicode="&#x114;" horiz-adv-x="1146" 
d="M153 0v1400h872v-242h-588v-334h540v-240h-540v-342h606v-242h-890zM588 1488q-141 0 -244 89t-109 225h229q1 -55 36.5 -92t87.5 -37t87.5 37t36.5 92h229q-6 -136 -109 -225t-244 -89z" />
    <glyph glyph-name="ebreve" unicode="&#x115;" horiz-adv-x="1236" 
d="M343 436q18 -108 100.5 -174.5t199.5 -66.5q163 0 294 129l165 -160q-173 -188 -458 -188q-126 0 -235 42t-184 115t-117.5 172.5t-42.5 212.5q0 112 43 212t117.5 172.5t179.5 115t223 42.5q155 0 280 -70.5t194 -190t69 -263.5q0 -52 -12 -100h-816zM626 841
q-97 0 -172.5 -57t-103.5 -152h538q-23 94 -93 151.5t-169 57.5zM618 1164q-141 0 -244 89t-109 225h229q1 -55 36.5 -92t87.5 -37t87.5 37t36.5 92h229q-6 -136 -109 -225t-244 -89z" />
    <glyph glyph-name="Edotaccent" unicode="&#x116;" horiz-adv-x="1146" 
d="M153 0v1400h872v-242h-588v-334h540v-240h-540v-342h606v-242h-890zM447 1663q0 62 43.5 105.5t106.5 43.5t106.5 -43.5t43.5 -105.5t-43.5 -105.5t-106.5 -43.5t-106.5 43.5t-43.5 105.5z" />
    <glyph glyph-name="edotaccent" unicode="&#x117;" horiz-adv-x="1236" 
d="M343 436q18 -108 100.5 -174.5t199.5 -66.5q163 0 294 129l165 -160q-173 -188 -458 -188q-126 0 -235 42t-184 115t-117.5 172.5t-42.5 212.5q0 112 43 212t117.5 172.5t179.5 115t223 42.5q155 0 280 -70.5t194 -190t69 -263.5q0 -52 -12 -100h-816zM626 841
q-97 0 -172.5 -57t-103.5 -152h538q-23 94 -93 151.5t-169 57.5zM468 1339q0 62 43.5 105.5t106.5 43.5t106.5 -43.5t43.5 -105.5t-43.5 -105.5t-106.5 -43.5t-106.5 43.5t-43.5 105.5z" />
    <glyph glyph-name="Eogonek" unicode="&#x118;" horiz-adv-x="1146" 
d="M153 0v1400h872v-242h-588v-334h540v-240h-540v-342h606v-242h-174q-158 -130 -158 -220q0 -38 25.5 -61.5t63.5 -23.5q44 0 77 22l54 -128q-70 -47 -171 -47q-105 0 -176.5 59.5t-71.5 148.5q0 68 46.5 132.5t124.5 117.5h-530z" />
    <glyph glyph-name="eogonek" unicode="&#x119;" horiz-adv-x="1236" 
d="M343 436q18 -108 100.5 -174.5t199.5 -66.5q163 0 294 129l165 -160q-141 -153 -359 -181q-137 -118 -137 -203q0 -38 25.5 -61.5t63.5 -23.5q44 0 77 22l54 -128q-70 -47 -171 -47q-105 0 -176.5 59.5t-71.5 148.5q0 123 145 232q-218 28 -352.5 177.5t-134.5 358.5
q0 112 43 212t117.5 172.5t179.5 115t223 42.5q155 0 280 -70.5t194 -190t69 -263.5q0 -52 -12 -100h-816zM626 841q-97 0 -172.5 -57t-103.5 -152h538q-23 94 -93 151.5t-169 57.5z" />
    <glyph glyph-name="Ecaron" unicode="&#x11a;" horiz-adv-x="1146" 
d="M153 0v1400h872v-242h-588v-334h540v-240h-540v-342h606v-242h-890zM687 1508h-196l-292 342h260l130 -155l130 155h260z" />
    <glyph glyph-name="ecaron" unicode="&#x11b;" horiz-adv-x="1236" 
d="M343 436q18 -108 100.5 -174.5t199.5 -66.5q163 0 294 129l165 -160q-173 -188 -458 -188q-126 0 -235 42t-184 115t-117.5 172.5t-42.5 212.5q0 112 43 212t117.5 172.5t179.5 115t223 42.5q155 0 280 -70.5t194 -190t69 -263.5q0 -52 -12 -100h-816zM626 841
q-97 0 -172.5 -57t-103.5 -152h538q-23 94 -93 151.5t-169 57.5zM716 1164h-196l-292 342h260l130 -155l130 155h260z" />
    <glyph glyph-name="Gcircumflex" unicode="&#x11c;" horiz-adv-x="1458" 
d="M828 1176q-196 0 -330 -137.5t-134 -341.5q0 -202 134.5 -340t329.5 -138q126 0 220 58v269h-307v229h591v-618q-99 -86 -229.5 -133.5t-274.5 -47.5q-209 0 -381.5 95.5t-271 261.5t-98.5 367t98.5 367t271 261.5t381.5 95.5q271 0 480 -162l-143 -211
q-84 60 -163.5 92.5t-173.5 32.5zM677 1850h196l292 -342h-260l-130 155l-130 -155h-260z" />
    <glyph glyph-name="gcircumflex" unicode="&#x11d;" horiz-adv-x="1315" 
d="M910 384v268q-36 75 -108.5 120t-161.5 45q-127 0 -213 -86t-86 -213t86 -213t213 -86q89 0 161.5 45t108.5 120zM910 932v104h272v-975q0 -238 -145 -381.5t-406 -143.5q-147 0 -275.5 52.5t-217.5 146.5l158 181q145 -145 323 -145q133 0 212 72.5t79 199.5v68
q-130 -128 -328 -128q-146 0 -265 72t-185.5 194.5t-66.5 268.5q0 147 66.5 271t185.5 197.5t265 73.5q197 0 328 -128zM551 1526h196l292 -342h-260l-130 155l-130 -155h-260z" />
    <glyph glyph-name="Gbreve" unicode="&#x11e;" horiz-adv-x="1458" 
d="M828 1176q-196 0 -330 -137.5t-134 -341.5q0 -202 134.5 -340t329.5 -138q126 0 220 58v269h-307v229h591v-618q-99 -86 -229.5 -133.5t-274.5 -47.5q-209 0 -381.5 95.5t-271 261.5t-98.5 367t98.5 367t271 261.5t381.5 95.5q271 0 480 -162l-143 -211
q-84 60 -163.5 92.5t-173.5 32.5zM775 1488q-141 0 -244 89t-109 225h229q1 -55 36.5 -92t87.5 -37t87.5 37t36.5 92h229q-6 -136 -109 -225t-244 -89z" />
    <glyph glyph-name="gbreve" unicode="&#x11f;" horiz-adv-x="1315" 
d="M910 384v268q-36 75 -108.5 120t-161.5 45q-127 0 -213 -86t-86 -213t86 -213t213 -86q89 0 161.5 45t108.5 120zM910 932v104h272v-975q0 -238 -145 -381.5t-406 -143.5q-147 0 -275.5 52.5t-217.5 146.5l158 181q145 -145 323 -145q133 0 212 72.5t79 199.5v68
q-130 -128 -328 -128q-146 0 -265 72t-185.5 194.5t-66.5 268.5q0 147 66.5 271t185.5 197.5t265 73.5q197 0 328 -128zM636 1164q-141 0 -244 89t-109 225h229q1 -55 36.5 -92t87.5 -37t87.5 37t36.5 92h229q-6 -136 -109 -225t-244 -89z" />
    <glyph glyph-name="Gdotaccent" unicode="&#x120;" horiz-adv-x="1458" 
d="M828 1176q-196 0 -330 -137.5t-134 -341.5q0 -202 134.5 -340t329.5 -138q126 0 220 58v269h-307v229h591v-618q-99 -86 -229.5 -133.5t-274.5 -47.5q-209 0 -381.5 95.5t-271 261.5t-98.5 367t98.5 367t271 261.5t381.5 95.5q271 0 480 -162l-143 -211
q-84 60 -163.5 92.5t-173.5 32.5zM624 1663q0 62 43.5 105.5t106.5 43.5t106.5 -43.5t43.5 -105.5t-43.5 -105.5t-106.5 -43.5t-106.5 43.5t-43.5 105.5z" />
    <glyph glyph-name="gdotaccent" unicode="&#x121;" horiz-adv-x="1315" 
d="M910 384v268q-36 75 -108.5 120t-161.5 45q-127 0 -213 -86t-86 -213t86 -213t213 -86q89 0 161.5 45t108.5 120zM910 932v104h272v-975q0 -238 -145 -381.5t-406 -143.5q-147 0 -275.5 52.5t-217.5 146.5l158 181q145 -145 323 -145q133 0 212 72.5t79 199.5v68
q-130 -128 -328 -128q-146 0 -265 72t-185.5 194.5t-66.5 268.5q0 147 66.5 271t185.5 197.5t265 73.5q197 0 328 -128zM479 1339q0 62 43.5 105.5t106.5 43.5t106.5 -43.5t43.5 -105.5t-43.5 -105.5t-106.5 -43.5t-106.5 43.5t-43.5 105.5z" />
    <glyph glyph-name="Gcommaaccent" unicode="&#x122;" horiz-adv-x="1458" 
d="M828 1176q-196 0 -330 -137.5t-134 -341.5q0 -202 134.5 -340t329.5 -138q126 0 220 58v269h-307v229h591v-618q-99 -86 -229.5 -133.5t-274.5 -47.5q-209 0 -381.5 95.5t-271 261.5t-98.5 367t98.5 367t271 261.5t381.5 95.5q271 0 480 -162l-143 -211
q-84 60 -163.5 92.5t-173.5 32.5zM785 -470h-248l155 342h281z" />
    <glyph glyph-name="gcommaaccent" unicode="&#x123;" horiz-adv-x="1315" 
d="M910 384v268q-36 75 -108.5 120t-161.5 45q-127 0 -213 -86t-86 -213t86 -213t213 -86q89 0 161.5 45t108.5 120zM910 932v104h272v-975q0 -238 -145 -381.5t-406 -143.5q-147 0 -275.5 52.5t-217.5 146.5l158 181q145 -145 323 -145q133 0 212 72.5t79 199.5v68
q-130 -128 -328 -128q-146 0 -265 72t-185.5 194.5t-66.5 268.5q0 147 66.5 271t185.5 197.5t265 73.5q197 0 328 -128zM663 1514h248l-155 -342h-281z" />
    <glyph glyph-name="Hcircumflex" unicode="&#x124;" horiz-adv-x="1414" 
d="M153 0v1400h284v-574h540v574h284v-1400h-284v581h-540v-581h-284zM609 1850h196l292 -342h-260l-130 155l-130 -155h-260z" />
    <glyph glyph-name="hcircumflex" unicode="&#x125;" horiz-adv-x="1226" 
d="M408 674v-674h-275v1460h275v-538q53 63 130.5 100.5t160.5 37.5q183 0 298.5 -117t115.5 -305v-638h-275v611q0 88 -56.5 147t-149.5 59q-63 0 -125 -42t-99 -101zM172 1910h196l292 -342h-260l-130 155l-130 -155h-260z" />
    <glyph glyph-name="Hbar" unicode="&#x126;" horiz-adv-x="1432" 
d="M162 0v1027h-120v184h120v189h284v-189h540v189h284v-189h120v-184h-120v-1027h-284v584h-540v-584h-284zM446 824h540v203h-540v-203z" />
    <glyph glyph-name="hbar" unicode="&#x127;" horiz-adv-x="1248" 
d="M20 1152v167h135v141h275v-141h297v-167h-297v-230q53 63 130.5 100.5t160.5 37.5q183 0 298.5 -117t115.5 -305v-638h-275v611q0 88 -56.5 147t-149.5 59q-63 0 -125 -42t-99 -101v-674h-275v1152h-135z" />
    <glyph glyph-name="Itilde" unicode="&#x128;" horiz-adv-x="606" 
d="M161 1400h284v-1400h-284v1400zM315 1560q-70 38 -97 38q-43 0 -60 -75l-220 44q44 227 207 227q67 0 146 -45q70 -38 97 -38q43 0 60 75l220 -44q-44 -227 -207 -227q-67 0 -146 45z" />
    <glyph glyph-name="itilde" unicode="&#x129;" horiz-adv-x="552" 
d="M138 0v1036h275v-1036h-275zM288 1234q-70 38 -97 38q-43 0 -60 -75l-220 44q44 227 207 227q67 0 146 -45q70 -38 97 -38q43 0 60 75l220 -44q-44 -227 -207 -227q-67 0 -146 45z" />
    <glyph glyph-name="Imacron" unicode="&#x12a;" horiz-adv-x="606" 
d="M161 1400h284v-1400h-284v1400zM-7 1556v206h620v-206h-620z" />
    <glyph glyph-name="imacron" unicode="&#x12b;" horiz-adv-x="552" 
d="M138 0v1036h275v-1036h-275zM-34 1232v206h620v-206h-620z" />
    <glyph glyph-name="Ibreve" unicode="&#x12c;" horiz-adv-x="606" 
d="M161 1400h284v-1400h-284v1400zM303 1488q-141 0 -244 89t-109 225h229q1 -55 36.5 -92t87.5 -37t87.5 37t36.5 92h229q-6 -136 -109 -225t-244 -89z" />
    <glyph glyph-name="ibreve" unicode="&#x12d;" horiz-adv-x="552" 
d="M138 0v1036h275v-1036h-275zM276 1164q-141 0 -244 89t-109 225h229q1 -55 36.5 -92t87.5 -37t87.5 37t36.5 92h229q-6 -136 -109 -225t-244 -89z" />
    <glyph glyph-name="Iogonek" unicode="&#x12e;" horiz-adv-x="606" 
d="M259 0h-98v1400h284v-1400q-158 -130 -158 -220q0 -38 25.5 -61.5t63.5 -23.5q44 0 77 22l54 -128q-71 -47 -171 -47q-105 0 -176.5 59.5t-71.5 148.5q0 68 46.5 132.5t124.5 117.5z" />
    <glyph glyph-name="iogonek" unicode="&#x12f;" horiz-adv-x="552" 
d="M138 0v1036h275v-1036q-158 -130 -158 -220q0 -38 25.5 -61.5t63.5 -23.5q44 0 77 22l54 -128q-70 -47 -171 -47q-105 0 -176.5 59.5t-71.5 148.5q0 68 46.5 132.5t124.5 117.5h-89zM113 1312q0 67 47 113t116 46t116 -46t47 -113t-47 -113t-116 -46t-116 46t-47 113z
" />
    <glyph glyph-name="Idotaccent" unicode="&#x130;" horiz-adv-x="606" 
d="M161 1400h284v-1400h-284v1400zM153 1663q0 62 43.5 105.5t106.5 43.5t106.5 -43.5t43.5 -105.5t-43.5 -105.5t-106.5 -43.5t-106.5 43.5t-43.5 105.5z" />
    <glyph glyph-name="dotlessi" unicode="&#x131;" horiz-adv-x="552" 
d="M138 0v1036h275v-1036h-275z" />
    <glyph glyph-name="IJ" unicode="&#x132;" horiz-adv-x="1496" 
d="M161 1400h284v-1400h-284v1400zM1070 456v944h284v-954q0 -236 -117.5 -353t-341.5 -117q-79 0 -159 18.5t-137 51.5l82 234q92 -56 190 -56q199 0 199 232z" />
    <glyph glyph-name="ij" unicode="&#x133;" horiz-adv-x="1104" 
d="M138 0v1036h275v-1036h-275zM113 1312q0 67 47 113t116 46t116 -46t47 -113t-47 -113t-116 -46t-116 46t-47 113zM690 -90v1126h275v-1140q0 -184 -88 -272t-266 -88q-57 0 -97 7v232h53q64 0 93.5 31t29.5 104zM665 1312q0 67 47 113t116 46t116 -46t47 -113t-47 -113
t-116 -46t-116 46t-47 113z" />
    <glyph glyph-name="Jcircumflex" unicode="&#x134;" horiz-adv-x="930" 
d="M504 456v944h284v-954q0 -236 -117.5 -353t-341.5 -117q-79 0 -159 18.5t-137 51.5l82 234q92 -56 190 -56q199 0 199 232zM548 1850h196l292 -342h-260l-130 155l-130 -155h-260z" />
    <glyph glyph-name="jcircumflex" unicode="&#x135;" horiz-adv-x="552" 
d="M138 -90v1126h275v-1140q0 -184 -88 -272t-266 -88q-57 0 -97 7v232h53q64 0 93.5 31t29.5 104zM178 1526h196l292 -342h-260l-130 155l-130 -155h-260z" />
    <glyph glyph-name="Kcommaaccent" unicode="&#x136;" horiz-adv-x="1239" 
d="M437 1400v-571h80l352 571h313l-429 -690l506 -710h-319l-415 584h-88v-584h-284v1400h284zM633 -470h-248l155 342h281z" />
    <glyph glyph-name="kcommaaccent" unicode="&#x137;" horiz-adv-x="1073" 
d="M764 0l-271 453h-85v-453h-275v1460h275v-771h89l217 347h310l-304 -466l349 -570h-305zM518 -470h-248l155 342h281z" />
    <glyph glyph-name="kgreenlandic" unicode="&#x138;" horiz-adv-x="1073" 
d="M764 0l-271 453h-85v-453h-275v1036h275v-347h89l217 347h310l-304 -466l349 -570h-305z" />
    <glyph glyph-name="Lacute" unicode="&#x139;" horiz-adv-x="1038" 
d="M153 0v1400h284v-1155h566v-245h-850zM154 1508l261 342h276l-275 -342h-262z" />
    <glyph glyph-name="lacute" unicode="&#x13a;" horiz-adv-x="552" 
d="M138 0v1460h275v-1460h-275zM88 1568l261 342h276l-275 -342h-262z" />
    <glyph glyph-name="Lcommaaccent" unicode="&#x13b;" horiz-adv-x="1038" 
d="M153 0v1400h284v-1155h566v-245h-850zM563 -470h-248l155 342h281z" />
    <glyph glyph-name="lcommaaccent" unicode="&#x13c;" horiz-adv-x="552" 
d="M138 0v1460h275v-1460h-275zM252 -470h-248l155 342h281z" />
    <glyph glyph-name="Lcaron" unicode="&#x13d;" horiz-adv-x="1038" 
d="M153 0v1400h284v-1155h566v-245h-850zM630 1264q0 68 46 114t114 46t114 -46t46 -114q0 -36 -18 -75l-141 -301h-168l107 229q-45 19 -72.5 58t-27.5 89z" />
    <glyph glyph-name="lcaron" unicode="&#x13e;" horiz-adv-x="885" 
d="M138 0v1460h275v-1460h-275zM530 1324q0 68 46 114t114 46t114 -46t46 -114q0 -36 -18 -75l-141 -301h-168l107 229q-45 19 -72.5 58t-27.5 89z" />
    <glyph glyph-name="Ldot" unicode="&#x13f;" horiz-adv-x="1038" 
d="M153 0v1400h284v-1155h566v-245h-850zM612 761q0 62 43.5 105.5t106.5 43.5t106.5 -43.5t43.5 -105.5t-43.5 -105.5t-106.5 -43.5t-106.5 43.5t-43.5 105.5z" />
    <glyph glyph-name="ldot" unicode="&#x140;" horiz-adv-x="869" 
d="M138 0v1460h275v-1460h-275zM531 751q0 62 43.5 105.5t106.5 43.5t106.5 -43.5t43.5 -105.5t-43.5 -105.5t-106.5 -43.5t-106.5 43.5t-43.5 105.5z" />
    <glyph glyph-name="Lslash" unicode="&#x141;" horiz-adv-x="1066" 
d="M181 0v512l-139 -71v206l139 71v682h284v-536l326 167v-206l-326 -167v-413h566v-245h-850z" />
    <glyph glyph-name="lslash" unicode="&#x142;" horiz-adv-x="619" 
d="M172 0v596l-152 -75v192l152 75v672h275v-536l152 75v-192l-152 -75v-732h-275z" />
    <glyph glyph-name="Nacute" unicode="&#x143;" horiz-adv-x="1414" 
d="M153 0v1400h288l552 -942v942h268v-1400h-288l-552 942v-942h-268zM524 1508l261 342h276l-275 -342h-262z" />
    <glyph glyph-name="nacute" unicode="&#x144;" horiz-adv-x="1226" 
d="M408 674v-674h-275v1036h275v-114q53 63 130.5 100.5t160.5 37.5q183 0 298.5 -117t115.5 -305v-638h-275v611q0 88 -56.5 147t-149.5 59q-63 0 -125 -42t-99 -101zM438 1184l261 342h276l-275 -342h-262z" />
    <glyph glyph-name="Ncommaaccent" unicode="&#x145;" horiz-adv-x="1415" 
d="M153 0v1400h288l552 -942v942h268v-1400h-288l-552 942v-942h-268zM701 -470h-248l155 342h281z" />
    <glyph glyph-name="ncommaaccent" unicode="&#x146;" horiz-adv-x="1226" 
d="M408 674v-674h-275v1036h275v-114q53 63 130.5 100.5t160.5 37.5q183 0 298.5 -117t115.5 -305v-638h-275v611q0 88 -56.5 147t-149.5 59q-63 0 -125 -42t-99 -101zM609 -470h-248l155 342h281z" />
    <glyph glyph-name="Ncaron" unicode="&#x147;" horiz-adv-x="1415" 
d="M153 0v1400h288l552 -942v942h268v-1400h-288l-552 942v-942h-268zM805 1508h-196l-292 342h260l130 -155l130 155h260z" />
    <glyph glyph-name="ncaron" unicode="&#x148;" horiz-adv-x="1226" 
d="M408 674v-674h-275v1036h275v-114q53 63 130.5 100.5t160.5 37.5q183 0 298.5 -117t115.5 -305v-638h-275v611q0 88 -56.5 147t-149.5 59q-63 0 -125 -42t-99 -101zM705 1164h-196l-292 342h260l130 -155l130 155h260z" />
    <glyph glyph-name="napostrophe" unicode="&#x149;" horiz-adv-x="1456" 
d="M638 674v-674h-275v1036h275v-114q53 63 130.5 100.5t160.5 37.5q183 0 298.5 -117t115.5 -305v-638h-275v611q0 88 -56.5 147t-149.5 59q-63 0 -125 -42t-99 -101zM50 1324q0 68 46 114t114 46t114 -46t46 -114q0 -36 -18 -75l-141 -301h-168l107 229q-45 19 -72.5 58
t-27.5 89z" />
    <glyph glyph-name="Eng" unicode="&#x14a;" horiz-adv-x="1414" 
d="M993 -96v101l-572 942v-947h-268v1400h272l568 -935v935h268v-1500q0 -364 -406 -364q-66 0 -114 10v219q45 -5 94 -5q84 0 121 34.5t37 109.5z" />
    <glyph glyph-name="eng" unicode="&#x14b;" horiz-adv-x="1226" 
d="M1113 638v-737q0 -365 -407 -365q-57 0 -119 10v219q43 -5 92 -5q75 0 117 35.5t42 108.5v707q0 88 -56.5 147t-149.5 59q-63 0 -125 -42t-99 -101v-674h-275v1036h275v-114q53 63 130.5 100.5t160.5 37.5q183 0 298.5 -117t115.5 -305z" />
    <glyph glyph-name="Omacron" unicode="&#x14c;" horiz-adv-x="1656" 
d="M364 700q0 -202 134 -339t330 -137t330 137t134 339t-134 339t-330 137t-330 -137t-134 -339zM77 700q0 201 98.5 367t271 261.5t381.5 95.5t381.5 -95.5t271 -261.5t98.5 -367t-98.5 -367t-271 -261.5t-381.5 -95.5t-381.5 95.5t-271 261.5t-98.5 367zM518 1556v206h620
v-206h-620z" />
    <glyph glyph-name="omacron" unicode="&#x14d;" horiz-adv-x="1280" 
d="M65 518q0 228 165 385t410 157q162 0 294 -72t206.5 -196t74.5 -274t-74.5 -274t-206.5 -196t-294 -72q-245 0 -410 157t-165 385zM341 518q0 -127 86 -213t213 -86t213.5 86t86.5 213q0 126 -86.5 212.5t-213.5 86.5t-213 -86.5t-86 -212.5zM330 1232v206h620v-206h-620
z" />
    <glyph glyph-name="Obreve" unicode="&#x14e;" horiz-adv-x="1656" 
d="M364 700q0 -202 134 -339t330 -137t330 137t134 339t-134 339t-330 137t-330 -137t-134 -339zM77 700q0 201 98.5 367t271 261.5t381.5 95.5t381.5 -95.5t271 -261.5t98.5 -367t-98.5 -367t-271 -261.5t-381.5 -95.5t-381.5 95.5t-271 261.5t-98.5 367zM828 1488
q-141 0 -244 89t-109 225h229q1 -55 36.5 -92t87.5 -37t87.5 37t36.5 92h229q-6 -136 -109 -225t-244 -89z" />
    <glyph glyph-name="obreve" unicode="&#x14f;" horiz-adv-x="1280" 
d="M65 518q0 228 165 385t410 157q162 0 294 -72t206.5 -196t74.5 -274t-74.5 -274t-206.5 -196t-294 -72q-245 0 -410 157t-165 385zM341 518q0 -127 86 -213t213 -86t213.5 86t86.5 213q0 126 -86.5 212.5t-213.5 86.5t-213 -86.5t-86 -212.5zM640 1164q-141 0 -244 89
t-109 225h229q1 -55 36.5 -92t87.5 -37t87.5 37t36.5 92h229q-6 -136 -109 -225t-244 -89z" />
    <glyph glyph-name="Ohungarumlaut" unicode="&#x150;" horiz-adv-x="1656" 
d="M364 700q0 -202 134 -339t330 -137t330 137t134 339t-134 339t-330 137t-330 -137t-134 -339zM77 700q0 201 98.5 367t271 261.5t381.5 95.5t381.5 -95.5t271 -261.5t98.5 -367t-98.5 -367t-271 -261.5t-381.5 -95.5t-381.5 95.5t-271 261.5t-98.5 367zM494 1508l261 342
h258l-272 -342h-247zM843 1508l261 342h258l-272 -342h-247z" />
    <glyph glyph-name="ohungarumlaut" unicode="&#x151;" horiz-adv-x="1280" 
d="M65 518q0 228 165 385t410 157q162 0 294 -72t206.5 -196t74.5 -274t-74.5 -274t-206.5 -196t-294 -72q-245 0 -410 157t-165 385zM341 518q0 -127 86 -213t213 -86t213.5 86t86.5 213q0 126 -86.5 212.5t-213.5 86.5t-213 -86.5t-86 -212.5zM288 1184l261 342h258
l-272 -342h-247zM637 1184l261 342h258l-272 -342h-247z" />
    <glyph glyph-name="OE" unicode="&#x152;" horiz-adv-x="1818" 
d="M828 247h15v906h-15q-197 0 -331 -130t-134 -323q0 -194 134 -323.5t331 -129.5zM1715 0h-887q-155 0 -294 54.5t-239 147t-159 222.5t-59 276t59 276t159 222.5t239 147t294 54.5h869v-242h-573v-334h525v-240h-525v-342h591v-242z" />
    <glyph glyph-name="oe" unicode="&#x153;" horiz-adv-x="2151" 
d="M65 518q0 228 165 385t410 157q140 0 261 -63.5t196 -168.5q70 104 189.5 168t256.5 64q155 0 280 -70.5t194 -190t69 -263.5q0 -52 -12 -100h-817q19 -108 102 -174.5t199 -66.5q163 0 294 129l165 -160q-173 -188 -458 -188q-147 0 -269.5 63t-194.5 167
q-75 -105 -195 -167.5t-260 -62.5q-245 0 -410 157t-165 385zM341 518q0 -127 86 -213t213 -86t213.5 86t86.5 213q0 126 -86.5 212.5t-213.5 86.5t-213 -86.5t-86 -212.5zM1541 841q-98 0 -173.5 -57.5t-102.5 -151.5h538q-24 94 -93.5 151.5t-168.5 57.5z" />
    <glyph glyph-name="Racute" unicode="&#x154;" horiz-adv-x="1227" 
d="M153 1400h495q223 0 356 -123.5t133 -327.5q0 -157 -81 -267.5t-225 -153.5l339 -528h-310l-314 498h-111v-498h-282v1400zM626 1166h-191v-441h191q108 0 167.5 60t59.5 160q0 102 -59.5 161.5t-167.5 59.5zM413 1508l261 342h276l-275 -342h-262z" />
    <glyph glyph-name="racute" unicode="&#x155;" horiz-adv-x="825" 
d="M650 817q-74 0 -137 -45t-105 -123v-649h-275v1036h275v-127q113 151 277 151q53 0 94 -22l-19 -241q-58 20 -110 20zM214 1184l261 342h276l-275 -342h-262z" />
    <glyph glyph-name="Rcommaaccent" unicode="&#x156;" horiz-adv-x="1227" 
d="M153 1400h495q223 0 356 -123.5t133 -327.5q0 -157 -81 -267.5t-225 -153.5l339 -528h-310l-314 498h-111v-498h-282v1400zM626 1166h-191v-441h191q108 0 167.5 60t59.5 160q0 102 -59.5 161.5t-167.5 59.5zM589 -470h-248l155 342h281z" />
    <glyph glyph-name="rcommaaccent" unicode="&#x157;" horiz-adv-x="825" 
d="M650 817q-74 0 -137 -45t-105 -123v-649h-275v1036h275v-127q113 151 277 151q53 0 94 -22l-19 -241q-58 20 -110 20zM247 -470h-248l155 342h281z" />
    <glyph glyph-name="Rcaron" unicode="&#x158;" horiz-adv-x="1227" 
d="M153 1400h495q223 0 356 -123.5t133 -327.5q0 -157 -81 -267.5t-225 -153.5l339 -528h-310l-314 498h-111v-498h-282v1400zM626 1166h-191v-441h191q108 0 167.5 60t59.5 160q0 102 -59.5 161.5t-167.5 59.5zM693 1508h-196l-292 342h260l130 -155l130 155h260z" />
    <glyph glyph-name="rcaron" unicode="&#x159;" horiz-adv-x="825" 
d="M650 817q-74 0 -137 -45t-105 -123v-649h-275v1036h275v-127q113 151 277 151q53 0 94 -22l-19 -241q-58 20 -110 20zM508 1164h-196l-292 342h260l130 -155l130 155h260z" />
    <glyph glyph-name="Sacute" unicode="&#x15a;" horiz-adv-x="1194" 
d="M91 201l163 191q73 -78 163.5 -125.5t183.5 -47.5q102 0 167.5 47t65.5 124q0 76 -62.5 129.5t-221.5 87.5q-210 44 -319.5 150t-109.5 263q0 178 130.5 291t335.5 113q278 0 462 -178l-154 -199q-155 136 -296 136q-83 0 -137 -39.5t-54 -102.5q0 -73 61.5 -122.5
t205.5 -82.5q231 -53 338.5 -161.5t107.5 -276.5q0 -187 -139 -304.5t-375 -117.5q-153 0 -288.5 59.5t-227.5 165.5zM409 1508l261 342h276l-275 -342h-262z" />
    <glyph glyph-name="sacute" unicode="&#x15b;" horiz-adv-x="947" 
d="M62 148l138 171q50 -57 118.5 -90t144.5 -33q71 0 111.5 27.5t40.5 75.5t-40 77.5t-138 49.5q-337 69 -337 332q0 132 103.5 217t270.5 85q104 0 200 -38.5t168 -102.5l-132 -172q-113 93 -212 93q-57 0 -93 -23.5t-36 -62.5q0 -90 165 -124q179 -36 264.5 -119
t85.5 -215q0 -140 -109 -230t-291 -90q-129 0 -240 45.5t-182 126.5zM277 1184l261 342h276l-275 -342h-262z" />
    <glyph glyph-name="Scircumflex" unicode="&#x15c;" horiz-adv-x="1194" 
d="M91 201l163 191q73 -78 163.5 -125.5t183.5 -47.5q102 0 167.5 47t65.5 124q0 76 -62.5 129.5t-221.5 87.5q-210 44 -319.5 150t-109.5 263q0 178 130.5 291t335.5 113q278 0 462 -178l-154 -199q-155 136 -296 136q-83 0 -137 -39.5t-54 -102.5q0 -73 61.5 -122.5
t205.5 -82.5q231 -53 338.5 -161.5t107.5 -276.5q0 -187 -139 -304.5t-375 -117.5q-153 0 -288.5 59.5t-227.5 165.5zM490 1850h196l292 -342h-260l-130 155l-130 -155h-260z" />
    <glyph glyph-name="scircumflex" unicode="&#x15d;" horiz-adv-x="947" 
d="M62 148l138 171q50 -57 118.5 -90t144.5 -33q71 0 111.5 27.5t40.5 75.5t-40 77.5t-138 49.5q-337 69 -337 332q0 132 103.5 217t270.5 85q104 0 200 -38.5t168 -102.5l-132 -172q-113 93 -212 93q-57 0 -93 -23.5t-36 -62.5q0 -90 165 -124q179 -36 264.5 -119
t85.5 -215q0 -140 -109 -230t-291 -90q-129 0 -240 45.5t-182 126.5zM365 1526h196l292 -342h-260l-130 155l-130 -155h-260z" />
    <glyph glyph-name="Scedilla" unicode="&#x15e;" horiz-adv-x="1194" 
d="M649 -300q0 32 -26.5 53t-68.5 21q-31 0 -59 -5l-47 52l84 159q-132 14 -246.5 71t-194.5 150l163 191q73 -78 163.5 -125.5t183.5 -47.5q102 0 167.5 47t65.5 124q0 76 -62.5 129.5t-221.5 87.5q-210 44 -319.5 150t-109.5 263q0 178 130.5 291t335.5 113
q278 0 462 -178l-154 -199q-155 136 -296 136q-83 0 -137 -39.5t-54 -102.5q0 -73 61.5 -122.5t205.5 -82.5q231 -53 338.5 -161.5t107.5 -276.5q0 -160 -104 -271t-286 -141l-60 -93q79 -21 127 -75t48 -122q0 -93 -80 -154.5t-200 -61.5q-121 0 -201 62l81 118
q47 -34 108 -34q42 0 68.5 21t26.5 53z" />
    <glyph glyph-name="scedilla" unicode="&#x15f;" horiz-adv-x="947" 
d="M511 -300q0 32 -26.5 53t-68.5 21q-31 0 -59 -5l-47 52l85 161q-102 14 -188.5 57t-144.5 109l138 171q50 -57 118.5 -90t144.5 -33q71 0 111.5 27.5t40.5 75.5t-40 77.5t-138 49.5q-337 69 -337 332q0 132 103.5 217t270.5 85q104 0 200 -38.5t168 -102.5l-132 -172
q-113 93 -212 93q-57 0 -93 -23.5t-36 -62.5q0 -90 165 -124q179 -36 264.5 -119t85.5 -215q0 -116 -77.5 -200.5t-212.5 -109.5l-61 -93q79 -21 127 -75t48 -122q0 -93 -80 -154.5t-200 -61.5q-121 0 -201 62l81 118q47 -34 108 -34q42 0 68.5 21t26.5 53z" />
    <glyph glyph-name="Scaron" unicode="&#x160;" horiz-adv-x="1194" 
d="M91 201l163 191q73 -78 163.5 -125.5t183.5 -47.5q102 0 167.5 47t65.5 124q0 76 -62.5 129.5t-221.5 87.5q-210 44 -319.5 150t-109.5 263q0 178 130.5 291t335.5 113q278 0 462 -178l-154 -199q-155 136 -296 136q-83 0 -137 -39.5t-54 -102.5q0 -73 61.5 -122.5
t205.5 -82.5q231 -53 338.5 -161.5t107.5 -276.5q0 -187 -139 -304.5t-375 -117.5q-153 0 -288.5 59.5t-227.5 165.5zM681 1508h-196l-292 342h260l130 -155l130 155h260z" />
    <glyph glyph-name="scaron" unicode="&#x161;" horiz-adv-x="947" 
d="M62 148l138 171q50 -57 118.5 -90t144.5 -33q71 0 111.5 27.5t40.5 75.5t-40 77.5t-138 49.5q-337 69 -337 332q0 132 103.5 217t270.5 85q104 0 200 -38.5t168 -102.5l-132 -172q-113 93 -212 93q-57 0 -93 -23.5t-36 -62.5q0 -90 165 -124q179 -36 264.5 -119
t85.5 -215q0 -140 -109 -230t-291 -90q-129 0 -240 45.5t-182 126.5zM561 1164h-196l-292 342h260l130 -155l130 155h260z" />
    <glyph glyph-name="Tcommaaccent" unicode="&#x162;" horiz-adv-x="1114" 
d="M415 0v1155h-360v245h1004v-245h-360v-1155l-70 -107q79 -21 127 -75t48 -122q0 -93 -80 -154.5t-200 -61.5q-121 0 -201 62l81 118q47 -34 108 -34q42 0 68.5 21t26.5 53t-26.5 53t-68.5 21q-31 0 -59 -5l-47 52l95 179h-86z" />
    <glyph glyph-name="tcommaaccent" unicode="&#x163;" horiz-adv-x="787" 
d="M452 -300q0 32 -26.5 53t-68.5 21q-31 0 -59 -5l-47 52l109 204q-156 86 -156 317v455h-161v239h161v276l275 24v-300h244v-239h-244v-438q0 -75 36.5 -109.5t121.5 -34.5q53 0 98 5v-230q-65 -14 -143 -14q-32 0 -62 3l-56 -86q79 -21 127 -75t48 -122q0 -93 -80 -154.5
t-200 -61.5q-121 0 -201 62l81 118q47 -34 108 -34q42 0 68.5 21t26.5 53z" />
    <glyph glyph-name="Tcaron" unicode="&#x164;" horiz-adv-x="1114" 
d="M415 0v1155h-360v245h1004v-245h-360v-1155h-284zM655 1508h-196l-292 342h260l130 -155l130 155h260z" />
    <glyph glyph-name="tcaron" unicode="&#x165;" horiz-adv-x="1139" 
d="M479 797v-438q0 -75 36.5 -109.5t121.5 -34.5q53 0 98 5v-230q-65 -14 -143 -14q-388 0 -388 366v455h-161v239h161v276l275 24v-300h244v-239h-244zM783 1324q0 68 46.5 114t113.5 46t113.5 -46t46.5 -114q0 -36 -18 -75l-141 -301h-168l107 229q-45 19 -72.5 58
t-27.5 89z" />
    <glyph glyph-name="Tbar" unicode="&#x166;" horiz-adv-x="1114" 
d="M415 0v596h-236v190h236v369h-360v245h1004v-245h-360v-369h236v-190h-236v-596h-284z" />
    <glyph glyph-name="tbar" unicode="&#x167;" horiz-adv-x="787" 
d="M67 445v167h137v195h-161v229h161v276l275 24v-300h244v-229h-244v-195h203v-167h-203v-96q0 -75 37 -109.5t121 -34.5q50 0 98 5v-220q-67 -14 -151 -14q-188 0 -284 90.5t-96 270.5v108h-137z" />
    <glyph glyph-name="Utilde" unicode="&#x168;" horiz-adv-x="1340" 
d="M1198 1400v-920q0 -147 -71 -262.5t-191 -177.5t-266 -62t-266 62t-191 177.5t-71 262.5v920h284v-932q0 -108 70 -175t174 -67t174 67t70 175v932h284zM682 1560q-70 38 -97 38q-43 0 -60 -75l-220 44q44 227 207 227q67 0 146 -45q70 -38 97 -38q43 0 60 75l220 -44
q-44 -227 -207 -227q-67 0 -146 45z" />
    <glyph glyph-name="utilde" unicode="&#x169;" horiz-adv-x="1226" 
d="M818 362v674h275v-1036h-275v114q-53 -63 -130.5 -100.5t-160.5 -37.5q-183 0 -298.5 117t-115.5 305v638h275v-611q0 -88 56.5 -147t149.5 -59q63 0 125 42t99 101zM615 1234q-70 38 -97 38q-43 0 -60 -75l-220 44q44 227 207 227q67 0 146 -45q70 -38 97 -38
q43 0 60 75l220 -44q-44 -227 -207 -227q-67 0 -146 45z" />
    <glyph glyph-name="Umacron" unicode="&#x16a;" horiz-adv-x="1340" 
d="M1198 1400v-920q0 -147 -71 -262.5t-191 -177.5t-266 -62t-266 62t-191 177.5t-71 262.5v920h284v-932q0 -108 70 -175t174 -67t174 67t70 175v932h284zM360 1556v206h620v-206h-620z" />
    <glyph glyph-name="umacron" unicode="&#x16b;" horiz-adv-x="1226" 
d="M818 362v674h275v-1036h-275v114q-53 -63 -130.5 -100.5t-160.5 -37.5q-183 0 -298.5 117t-115.5 305v638h275v-611q0 -88 56.5 -147t149.5 -59q63 0 125 42t99 101zM293 1232v206h620v-206h-620z" />
    <glyph glyph-name="Ubreve" unicode="&#x16c;" horiz-adv-x="1340" 
d="M1198 1400v-920q0 -147 -71 -262.5t-191 -177.5t-266 -62t-266 62t-191 177.5t-71 262.5v920h284v-932q0 -108 70 -175t174 -67t174 67t70 175v932h284zM670 1488q-141 0 -244 89t-109 225h229q1 -55 36.5 -92t87.5 -37t87.5 37t36.5 92h229q-6 -136 -109 -225t-244 -89z
" />
    <glyph glyph-name="ubreve" unicode="&#x16d;" horiz-adv-x="1226" 
d="M818 362v674h275v-1036h-275v114q-53 -63 -130.5 -100.5t-160.5 -37.5q-183 0 -298.5 117t-115.5 305v638h275v-611q0 -88 56.5 -147t149.5 -59q63 0 125 42t99 101zM603 1164q-141 0 -244 89t-109 225h229q1 -55 36.5 -92t87.5 -37t87.5 37t36.5 92h229
q-6 -136 -109 -225t-244 -89z" />
    <glyph glyph-name="Uring" unicode="&#x16e;" horiz-adv-x="1340" 
d="M1198 1400v-920q0 -147 -71 -262.5t-191 -177.5t-266 -62t-266 62t-191 177.5t-71 262.5v920h284v-932q0 -108 70 -175t174 -67t174 67t70 175v932h284zM603 1685q0 -28 19 -47t48 -19t48 19t19 47t-19 47t-48 19t-48 -19t-19 -47zM444 1685q0 88 64.5 147.5t161.5 59.5
t161.5 -59.5t64.5 -147.5t-64.5 -147.5t-161.5 -59.5t-161.5 59.5t-64.5 147.5z" />
    <glyph glyph-name="uring" unicode="&#x16f;" horiz-adv-x="1226" 
d="M818 362v674h275v-1036h-275v114q-53 -63 -130.5 -100.5t-160.5 -37.5q-183 0 -298.5 117t-115.5 305v638h275v-611q0 -88 56.5 -147t149.5 -59q63 0 125 42t99 101zM532 1361q0 -28 19 -47t48 -19t48 19t19 47t-19 47t-48 19t-48 -19t-19 -47zM373 1361q0 88 64.5 147.5
t161.5 59.5t161.5 -59.5t64.5 -147.5t-64.5 -147.5t-161.5 -59.5t-161.5 59.5t-64.5 147.5z" />
    <glyph glyph-name="Uhungarumlaut" unicode="&#x170;" horiz-adv-x="1340" 
d="M1198 1400v-920q0 -147 -71 -262.5t-191 -177.5t-266 -62t-266 62t-191 177.5t-71 262.5v920h284v-932q0 -108 70 -175t174 -67t174 67t70 175v932h284zM352 1527l261 342h258l-272 -342h-247zM701 1527l261 342h258l-272 -342h-247z" />
    <glyph glyph-name="uhungarumlaut" unicode="&#x171;" horiz-adv-x="1226" 
d="M818 362v674h275v-1036h-275v114q-53 -63 -130.5 -100.5t-160.5 -37.5q-183 0 -298.5 117t-115.5 305v638h275v-611q0 -88 56.5 -147t149.5 -59q63 0 125 42t99 101zM276 1193l261 342h258l-272 -342h-247zM625 1193l261 342h258l-272 -342h-247z" />
    <glyph glyph-name="Uogonek" unicode="&#x172;" horiz-adv-x="1340" 
d="M1198 1400v-920q0 -184 -107.5 -314t-279.5 -171q-151 -126 -151 -215q0 -38 25.5 -61.5t63.5 -23.5q44 0 77 22l54 -128q-70 -47 -171 -47q-105 0 -176.5 59.5t-71.5 148.5q0 122 144 232q-200 21 -331.5 157t-131.5 341v920h284v-932q0 -108 70 -175t174 -67t174 67
t70 175v932h284z" />
    <glyph glyph-name="uogonek" unicode="&#x173;" horiz-adv-x="1226" 
d="M907 0h-89v114q-53 -63 -130.5 -100.5t-160.5 -37.5q-183 0 -298.5 117t-115.5 305v638h275v-611q0 -88 56.5 -147t149.5 -59q63 0 125 42t99 101v674h275v-1036q-158 -130 -158 -220q0 -38 25.5 -61.5t63.5 -23.5q44 0 77 22l54 -128q-71 -47 -171 -47
q-105 0 -176.5 59.5t-71.5 148.5q0 68 46.5 132.5t124.5 117.5z" />
    <glyph glyph-name="Wcircumflex" unicode="&#x174;" horiz-adv-x="1970" 
d="M845 1400h280l269 -1004l247 1004h296l-388 -1400h-285l-279 1013l-279 -1013h-285l-388 1400h296l247 -1004zM887 1850h196l292 -342h-260l-130 155l-130 -155h-260z" />
    <glyph glyph-name="wcircumflex" unicode="&#x175;" horiz-adv-x="1594" 
d="M659 1036h276l178 -693l181 693h281l-314 -1036h-284l-180 674l-180 -674h-284l-314 1036h281l181 -693zM699 1526h196l292 -342h-260l-130 155l-130 -155h-260z" />
    <glyph glyph-name="Ycircumflex" unicode="&#x176;" horiz-adv-x="1302" 
d="M339 1400l312 -566l312 566h306l-476 -836v-564h-284v564l-476 836h306zM553 1850h196l292 -342h-260l-130 155l-130 -155h-260z" />
    <glyph glyph-name="ycircumflex" unicode="&#x177;" horiz-adv-x="1074" 
d="M504 -464h-287l182 464l-380 1036h286l230 -688l234 688h286zM437 1526h196l292 -342h-260l-130 155l-130 -155h-260z" />
    <glyph glyph-name="Ydieresis" unicode="&#x178;" horiz-adv-x="1302" 
d="M339 1400l312 -566l312 566h306l-476 -836v-564h-284v564l-476 836h306zM311 1664q0 62 42.5 104t104.5 42t104.5 -42t42.5 -104t-42.5 -104t-104.5 -42t-104.5 42t-42.5 104zM697 1664q0 62 42.5 104t104.5 42t104.5 -42t42.5 -104t-42.5 -104t-104.5 -42t-104.5 42
t-42.5 104z" />
    <glyph glyph-name="Zacute" unicode="&#x179;" horiz-adv-x="1220" 
d="M113 235l645 920h-615v245h954v-235l-645 -920h665v-245h-1004v235zM405 1508l261 342h276l-275 -342h-262z" />
    <glyph glyph-name="zacute" unicode="&#x17a;" horiz-adv-x="1027" 
d="M88 0v223l492 575h-466v238h800v-223l-492 -575h512v-238h-846zM306 1184l261 342h276l-275 -342h-262z" />
    <glyph glyph-name="Zdotaccent" unicode="&#x17b;" horiz-adv-x="1220" 
d="M113 235l645 920h-615v245h954v-235l-645 -920h665v-245h-1004v235zM464 1663q0 62 43.5 105.5t106.5 43.5t106.5 -43.5t43.5 -105.5t-43.5 -105.5t-106.5 -43.5t-106.5 43.5t-43.5 105.5z" />
    <glyph glyph-name="zdotaccent" unicode="&#x17c;" horiz-adv-x="1027" 
d="M88 0v223l492 575h-466v238h800v-223l-492 -575h512v-238h-846zM364 1339q0 62 43.5 105.5t106.5 43.5t106.5 -43.5t43.5 -105.5t-43.5 -105.5t-106.5 -43.5t-106.5 43.5t-43.5 105.5z" />
    <glyph glyph-name="Zcaron" unicode="&#x17d;" horiz-adv-x="1220" 
d="M113 235l645 920h-615v245h954v-235l-645 -920h665v-245h-1004v235zM708 1508h-196l-292 342h260l130 -155l130 155h260z" />
    <glyph glyph-name="zcaron" unicode="&#x17e;" horiz-adv-x="1027" 
d="M88 0v223l492 575h-466v238h800v-223l-492 -575h512v-238h-846zM601 1164h-196l-292 342h260l130 -155l130 155h260z" />
    <glyph glyph-name="longs" unicode="&#x17f;" horiz-adv-x="764" 
d="M724 1450v-219q-45 5 -93 5q-84 0 -121 -35t-37 -109v-1092h-275v797h-155v239h155v59q0 365 407 365q55 0 119 -10z" />
    <glyph glyph-name="uni0191" unicode="&#x191;" horiz-adv-x="1078" 
d="M437 567v-662q0 -180 -103 -274.5t-298 -94.5q-71 0 -124 10v236q45 -5 89 -5q80 0 116 35.5t36 110.5v1477h852v-244h-568v-345h520v-244h-520z" />
    <glyph glyph-name="florin" unicode="&#x192;" horiz-adv-x="767" 
d="M198 -96v893h-155v239h155v59q0 365 407 365q55 0 119 -10v-219q-45 5 -93 5q-84 0 -121 -35t-37 -109v-56h251v-239h-251v-896q0 -365 -407 -365q-55 0 -119 10v219q45 -5 93 -5q84 0 121 35t37 109z" />
    <glyph glyph-name="Aringacute" unicode="&#x1fa;" horiz-adv-x="1382" 
d="M465 1461q0 88 64.5 147.5t161.5 59.5t161.5 -59.5t64.5 -147.5q0 -75 -49 -130l481 -1331h-301l-104 315h-506l-104 -315h-301l481 1331q-49 55 -49 130zM871 547l-180 550l-180 -550h360zM623 1461q0 -29 19 -47.5t49 -18.5t49 18.5t19 47.5t-19 47.5t-49 18.5
t-49 -18.5t-19 -47.5zM793 1703h-242l184 247h257z" />
    <glyph glyph-name="aringacute" unicode="&#x1fb;" horiz-adv-x="1315" 
d="M564 1327q0 -29 19.5 -48t48.5 -19t48.5 19t19.5 48t-19.5 48t-48.5 19t-48.5 -19t-19.5 -48zM411 1327q0 86 63.5 144.5t157.5 58.5t157.5 -58.5t63.5 -144.5t-63.5 -144.5t-157.5 -58.5t-157.5 58.5t-63.5 144.5zM640 219q89 0 161.5 45t108.5 120v268
q-36 75 -108.5 120t-161.5 45q-127 0 -213 -86t-86 -213t86 -213t213 -86zM582 1060q197 0 328 -128v104h272v-1036h-272v104q-131 -128 -328 -128q-146 0 -265 73.5t-185.5 197.5t-66.5 271t66.5 271t185.5 197.5t265 73.5zM730 1568h-242l197 262h256z" />
    <glyph glyph-name="AEacute" unicode="&#x1fc;" horiz-adv-x="1865" 
d="M312 0h-310l775 1400h967v-242h-573v-334h525v-240h-525v-342h591v-242h-872v315h-411zM890 1092l-291 -545h291v545zM743 1508l261 342h276l-275 -342h-262z" />
    <glyph glyph-name="aeacute" unicode="&#x1fd;" horiz-adv-x="2039" 
d="M1962 436h-816q18 -108 100.5 -174.5t199.5 -66.5q163 0 294 129l165 -160q-173 -188 -458 -188q-139 0 -256.5 53.5t-191.5 145.5q-68 -92 -182.5 -145.5t-250.5 -53.5q-214 0 -357.5 101t-143.5 249q0 93 63 169t171 119t237 43q84 0 168 -22t147 -58v33
q0 99 -81.5 165t-207.5 66q-89 0 -174.5 -32.5t-152.5 -87.5l-94 191q85 70 197 109t231 39q136 0 250 -53.5t182 -146.5q73 93 186 146.5t244 53.5q155 0 280 -70.5t194 -190t69 -263.5q0 -52 -12 -100zM338 326q0 -58 70.5 -97.5t178.5 -39.5q182 0 262 111v84
q-99 79 -262 79q-108 0 -178.5 -39.5t-70.5 -97.5zM1429 841q-97 0 -172.5 -57t-103.5 -152h538q-23 94 -93 151.5t-169 57.5zM818 1184l261 342h276l-275 -342h-262z" />
    <glyph glyph-name="Oslashacute" unicode="&#x1fe;" horiz-adv-x="1656" 
d="M77 700q0 201 98.5 367t271 261.5t381.5 95.5q198 0 369 -90l98 126h226l-178 -227q111 -100 173.5 -238t62.5 -295q0 -201 -98.5 -367t-271 -261.5t-381.5 -95.5q-212 0 -389 100l-106 -136h-226l189 242q-104 99 -161.5 232.5t-57.5 285.5zM1292 700q0 184 -116 318
l-575 -736q105 -58 227 -58q196 0 330 137t134 339zM364 700q0 -174 101 -302l570 729q-98 49 -207 49q-196 0 -330 -137t-134 -339zM645 1508l261 342h276l-275 -342h-262z" />
    <glyph glyph-name="oslashacute" unicode="&#x1ff;" horiz-adv-x="1280" 
d="M65 518q0 228 165 385t410 157q146 0 270 -61l76 97h213l-150 -192q79 -74 122.5 -173.5t43.5 -212.5q0 -150 -74.5 -274t-206.5 -196t-294 -72q-147 0 -271 61l-77 -97h-213l151 192q-165 157 -165 386zM952 518q0 105 -61 185l-371 -473q58 -24 120 -24q132 0 222 90.5
t90 221.5zM328 518q0 -104 59 -185l371 472q-58 24 -118 24q-131 0 -221.5 -90t-90.5 -221zM463 1184l261 342h276l-275 -342h-262z" />
    <glyph glyph-name="Scommaaccent" unicode="&#x218;" horiz-adv-x="1194" 
d="M91 201l163 191q73 -78 163.5 -125.5t183.5 -47.5q102 0 167.5 47t65.5 124q0 76 -62.5 129.5t-221.5 87.5q-210 44 -319.5 150t-109.5 263q0 178 130.5 291t335.5 113q278 0 462 -178l-154 -199q-155 136 -296 136q-83 0 -137 -39.5t-54 -102.5q0 -73 61.5 -122.5
t205.5 -82.5q231 -53 338.5 -161.5t107.5 -276.5q0 -187 -139 -304.5t-375 -117.5q-153 0 -288.5 59.5t-227.5 165.5zM604 -470h-248l155 342h281z" />
    <glyph glyph-name="scommaaccent" unicode="&#x219;" horiz-adv-x="947" 
d="M62 148l138 171q50 -57 118.5 -90t144.5 -33q71 0 111.5 27.5t40.5 75.5t-40 77.5t-138 49.5q-337 69 -337 332q0 132 103.5 217t270.5 85q104 0 200 -38.5t168 -102.5l-132 -172q-113 93 -212 93q-57 0 -93 -23.5t-36 -62.5q0 -90 165 -124q179 -36 264.5 -119
t85.5 -215q0 -140 -109 -230t-291 -90q-129 0 -240 45.5t-182 126.5zM468 -470h-248l155 342h281z" />
    <glyph glyph-name="uni021A" unicode="&#x21a;" horiz-adv-x="1114" 
d="M415 0v1155h-360v245h1004v-245h-360v-1155h-284zM543 -470h-248l155 342h281z" />
    <glyph glyph-name="uni021B" unicode="&#x21b;" horiz-adv-x="787" 
d="M479 797v-438q0 -75 36.5 -109.5t121.5 -34.5q53 0 98 5v-230q-65 -14 -143 -14q-388 0 -388 366v455h-161v239h161v276l275 24v-300h244v-239h-244zM396 -470h-248l155 342h281z" />
    <glyph glyph-name="dotlessj" unicode="&#x237;" horiz-adv-x="552" 
d="M138 -90v1126h275v-1140q0 -184 -88 -272t-266 -88q-57 0 -97 7v232h53q64 0 93.5 31t29.5 104z" />
    <glyph glyph-name="apostrophe" unicode="&#x2bc;" horiz-adv-x="850" 
d="M269 1324q0 68 46.5 114t113.5 46t113.5 -46t46.5 -114q0 -36 -18 -75l-141 -301h-168l107 229q-45 19 -72.5 58t-27.5 89z" />
    <glyph glyph-name="circumflex" unicode="&#x2c6;" horiz-adv-x="850" 
d="M327 1460h196l292 -342h-260l-130 155l-130 -155h-260z" />
    <glyph glyph-name="caron" unicode="&#x2c7;" horiz-adv-x="850" 
d="M523 1118h-196l-292 342h260l130 -155l130 155h260z" />
    <glyph glyph-name="uni02C9" unicode="&#x2c9;" horiz-adv-x="850" 
d="M115 1185v206h620v-206h-620z" />
    <glyph glyph-name="breve" unicode="&#x2d8;" horiz-adv-x="850" 
d="M425 1126q-141 0 -244 89t-109 225h229q1 -55 36.5 -92t87.5 -37t87.5 37t36.5 92h229q-6 -136 -109 -225t-244 -89z" />
    <glyph glyph-name="dotaccent" unicode="&#x2d9;" horiz-adv-x="850" 
d="M275 1291q0 62 43.5 105.5t106.5 43.5t106.5 -43.5t43.5 -105.5t-43.5 -105.5t-106.5 -43.5t-106.5 43.5t-43.5 105.5z" />
    <glyph glyph-name="ring" unicode="&#x2da;" horiz-adv-x="850" 
d="M358 1285q0 -28 19 -47t48 -19t48 19t19 47t-19 47t-48 19t-48 -19t-19 -47zM199 1285q0 88 64.5 147.5t161.5 59.5t161.5 -59.5t64.5 -147.5t-64.5 -147.5t-161.5 -59.5t-161.5 59.5t-64.5 147.5z" />
    <glyph glyph-name="ogonek" unicode="&#x2db;" horiz-adv-x="850" 
d="M397 0h186q-158 -130 -158 -220q0 -38 25.5 -61.5t63.5 -23.5q44 0 77 22l54 -128q-71 -47 -171 -47q-105 0 -176.5 59.5t-71.5 148.5q0 68 46.5 132.5t124.5 117.5z" />
    <glyph glyph-name="tilde" unicode="&#x2dc;" horiz-adv-x="850" 
d="M437 1188q-70 38 -97 38q-43 0 -60 -75l-220 44q44 227 207 227q67 0 146 -45q70 -38 97 -38q43 0 60 75l220 -44q-44 -227 -207 -227q-67 0 -146 45z" />
    <glyph glyph-name="hungarumlaut" unicode="&#x2dd;" horiz-adv-x="850" 
d="M39 1118l261 342h258l-272 -342h-247zM388 1118l261 342h258l-272 -342h-247z" />
    <glyph glyph-name="gravecomb" unicode="&#x300;" horiz-adv-x="0" 
d="M-470 1460l261 -342h-262l-275 342h276z" />
    <glyph glyph-name="acutecomb" unicode="&#x301;" horiz-adv-x="0" 
d="M-641 1118l261 342h276l-275 -342h-262z" />
    <glyph glyph-name="uni0302" unicode="&#x302;" horiz-adv-x="0" 
d="M-523 1460h196l292 -342h-260l-130 155l-130 -155h-260z" />
    <glyph glyph-name="tildecomb" unicode="&#x303;" horiz-adv-x="0" 
d="M-413 1188q-70 38 -97 38q-43 0 -60 -75l-220 44q44 227 207 227q67 0 146 -45q70 -38 97 -38q43 0 60 75l220 -44q-44 -227 -207 -227q-67 0 -146 45z" />
    <glyph glyph-name="uni0304" unicode="&#x304;" horiz-adv-x="0" 
d="M-735 1186v206h620v-206h-620z" />
    <glyph glyph-name="uni0306" unicode="&#x306;" horiz-adv-x="0" 
d="M-425 1126q-141 0 -244 89t-109 225h229q1 -55 36.5 -92t87.5 -37t87.5 37t36.5 92h229q-6 -136 -109 -225t-244 -89z" />
    <glyph glyph-name="uni0307" unicode="&#x307;" horiz-adv-x="0" 
d="M-575 1291q0 62 43.5 105.5t106.5 43.5t106.5 -43.5t43.5 -105.5t-43.5 -105.5t-106.5 -43.5t-106.5 43.5t-43.5 105.5z" />
    <glyph glyph-name="uni0308" unicode="&#x308;" horiz-adv-x="0" 
d="M-765 1292q0 62 42.5 104t104.5 42t104.5 -42t42.5 -104t-42.5 -104t-104.5 -42t-104.5 42t-42.5 104zM-379 1292q0 62 42.5 104t104.5 42t104.5 -42t42.5 -104t-42.5 -104t-104.5 -42t-104.5 42t-42.5 104z" />
    <glyph glyph-name="uni030A" unicode="&#x30a;" horiz-adv-x="0" 
d="M-492 1285q0 -28 19 -47t48 -19t48 19t19 47t-19 47t-48 19t-48 -19t-19 -47zM-651 1285q0 88 64.5 147.5t161.5 59.5t161.5 -59.5t64.5 -147.5t-64.5 -147.5t-161.5 -59.5t-161.5 59.5t-64.5 147.5z" />
    <glyph glyph-name="uni030C" unicode="&#x30c;" horiz-adv-x="0" 
d="M-327 1118h-196l-292 342h260l130 -155l130 155h260z" />
    <glyph glyph-name="uni0327" unicode="&#x327;" horiz-adv-x="0" 
d="M-379 -300q0 32 -26.5 53t-68.5 21q-31 0 -59 -5l-47 52l95 179h198l-70 -107q79 -21 127 -75t48 -122q0 -93 -80 -154.5t-200 -61.5q-121 0 -201 62l81 118q47 -34 108 -34q42 0 68.5 21t26.5 53z" />
    <glyph glyph-name="tonos" unicode="&#x384;" horiz-adv-x="850" 
d="M472 1088h-253l152 372h284z" />
    <glyph glyph-name="dieresistonos" unicode="&#x385;" horiz-adv-x="850" 
d="M92 1141q0 60 42 101t105 41t105 -41t42 -101t-42 -101t-105 -41t-105 41t-42 101zM464 1141q0 60 42 101t105 41t105 -41t42 -101t-42 -101t-105 -41t-105 41t-42 101zM523 1314h-242l196 262h256z" />
    <glyph glyph-name="Alphatonos" unicode="&#x386;" horiz-adv-x="1450" 
d="M602 1400h314l501 -1400h-301l-104 315h-506l-104 -315h-301zM939 547l-180 550l-180 -550h360zM276 1028h-253l152 372h284z" />
    <glyph glyph-name="anoteleia" unicode="&#x387;" horiz-adv-x="603" 
d="M132 651q0 71 48 118.5t121 47.5t121.5 -47.5t48.5 -118.5t-48.5 -118.5t-121.5 -47.5t-121 47.5t-48 118.5z" />
    <glyph glyph-name="Epsilontonos" unicode="&#x388;" horiz-adv-x="1517" 
d="M524 0v1400h872v-242h-588v-334h540v-240h-540v-342h606v-242h-890zM276 1028h-253l152 372h284z" />
    <glyph glyph-name="Etatonos" unicode="&#x389;" horiz-adv-x="1785" 
d="M524 0v1400h284v-574h540v574h284v-1400h-284v581h-540v-581h-284zM276 1028h-253l152 372h284z" />
    <glyph glyph-name="Iotatonos" unicode="&#x38a;" horiz-adv-x="970" 
d="M525 1400h284v-1400h-284v1400zM276 1028h-253l152 372h284z" />
    <glyph glyph-name="Omicrontonos" unicode="&#x38c;" horiz-adv-x="1895" 
d="M603 700q0 -202 134 -339t330 -137t330 137t134 339t-134 339t-330 137t-330 -137t-134 -339zM316 700q0 201 98.5 367t271 261.5t381.5 95.5t381.5 -95.5t271 -261.5t98.5 -367t-98.5 -367t-271 -261.5t-381.5 -95.5t-381.5 95.5t-271 261.5t-98.5 367zM276 1028h-253
l152 372h284z" />
    <glyph glyph-name="Upsilontonos" unicode="&#x38e;" horiz-adv-x="1761" 
d="M798 1400l312 -566l312 566h306l-476 -836v-564h-284v564l-476 836h306zM276 1028h-253l152 372h284z" />
    <glyph glyph-name="Omegatonos" unicode="&#x38f;" horiz-adv-x="1863" 
d="M276 1028h-253l152 372h284zM1490 733q0 186 -125.5 314.5t-307.5 128.5t-307.5 -128.5t-125.5 -314.5q0 -158 89 -290.5t243 -207.5v-235h-600v248h277q-144 94 -220 224.5t-76 288.5q0 182 95 334.5t260.5 240.5t364.5 88t364.5 -88t260.5 -240.5t95 -334.5
q0 -158 -76 -288.5t-220 -224.5h277v-248h-600v235q154 75 243 207.5t89 290.5z" />
    <glyph glyph-name="iotadieresistonos" unicode="&#x390;" horiz-adv-x="588" 
d="M138 267v769h275v-700q0 -96 96 -96h36v-236q-48 -4 -92 -4q-315 0 -315 267zM-56 1275q0 60 42 101t105 41t105 -41t42 -101t-42 -101t-105 -41t-105 41t-42 101zM316 1275q0 60 42 101t105 41t105 -41t42 -101t-42 -101t-105 -41t-105 41t-42 101zM375 1448h-242
l196 262h256z" />
    <glyph glyph-name="Alpha" unicode="&#x391;" horiz-adv-x="1382" 
d="M534 1400h314l501 -1400h-301l-104 315h-506l-104 -315h-301zM871 547l-180 550l-180 -550h360z" />
    <glyph glyph-name="Beta" unicode="&#x392;" horiz-adv-x="1252" 
d="M749 0h-596v1400h527q194 0 304 -102t110 -277q0 -100 -45.5 -172t-123.5 -106q106 -29 175 -118.5t69 -216.5q0 -181 -115 -294.5t-305 -113.5zM818 999q0 80 -43.5 123t-116.5 43h-226v-331h226q72 0 116 43t44 122zM885 421q0 85 -47 136t-123 51h-283v-373h283
q76 0 123 51t47 135z" />
    <glyph glyph-name="Gamma" unicode="&#x393;" horiz-adv-x="1040" 
d="M153 0v1400h852v-245h-568v-1155h-284z" />
    <glyph glyph-name="uni0394" unicode="&#x394;" horiz-adv-x="1382" 
d="M848 1400l501 -1400h-1316l501 1400h314zM691 1097l-286 -858h572z" />
    <glyph glyph-name="Epsilon" unicode="&#x395;" horiz-adv-x="1146" 
d="M153 0v1400h872v-242h-588v-334h540v-240h-540v-342h606v-242h-890z" />
    <glyph glyph-name="Zeta" unicode="&#x396;" horiz-adv-x="1220" 
d="M113 235l645 920h-615v245h954v-235l-645 -920h665v-245h-1004v235z" />
    <glyph glyph-name="Eta" unicode="&#x397;" horiz-adv-x="1414" 
d="M153 0v1400h284v-574h540v574h284v-1400h-284v581h-540v-581h-284z" />
    <glyph glyph-name="Theta" unicode="&#x398;" horiz-adv-x="1656" 
d="M545 582v236h566v-236h-566zM77 700q0 201 98.5 367t271 261.5t381.5 95.5t381.5 -95.5t271 -261.5t98.5 -367t-98.5 -367t-271 -261.5t-381.5 -95.5t-381.5 95.5t-271 261.5t-98.5 367zM359 700q0 -203 136 -342t333 -139t333 139t136 342t-136 342t-333 139t-333 -139
t-136 -342z" />
    <glyph glyph-name="Iota" unicode="&#x399;" horiz-adv-x="606" 
d="M161 1400h284v-1400h-284v1400z" />
    <glyph glyph-name="Kappa" unicode="&#x39a;" horiz-adv-x="1239" 
d="M437 1400v-571h80l352 571h313l-429 -690l506 -710h-319l-415 584h-88v-584h-284v1400h284z" />
    <glyph glyph-name="Lambda" unicode="&#x39b;" horiz-adv-x="1382" 
d="M1349 0h-301l-357 1079l-357 -1079h-301l501 1400h314z" />
    <glyph glyph-name="Mu" unicode="&#x39c;" horiz-adv-x="1718" 
d="M953 418h-188l-344 553v-971h-268v1400h290l416 -672l416 672h290v-1400h-268v971z" />
    <glyph glyph-name="Nu" unicode="&#x39d;" horiz-adv-x="1414" 
d="M153 0v1400h288l552 -942v942h268v-1400h-288l-552 942v-942h-268z" />
    <glyph glyph-name="Xi" unicode="&#x39e;" horiz-adv-x="1169" 
d="M122 1158v242h925v-242h-925zM103 0v242h963v-242h-963zM986 584h-803v240h803v-240z" />
    <glyph glyph-name="Omicron" unicode="&#x39f;" horiz-adv-x="1656" 
d="M364 700q0 -202 134 -339t330 -137t330 137t134 339t-134 339t-330 137t-330 -137t-134 -339zM77 700q0 201 98.5 367t271 261.5t381.5 95.5t381.5 -95.5t271 -261.5t98.5 -367t-98.5 -367t-271 -261.5t-381.5 -95.5t-381.5 95.5t-271 261.5t-98.5 367z" />
    <glyph glyph-name="Pi" unicode="&#x3a0;" horiz-adv-x="1362" 
d="M1209 1400v-1400h-284v1155h-488v-1155h-284v1400h1056z" />
    <glyph glyph-name="Rho" unicode="&#x3a1;" horiz-adv-x="1200" 
d="M648 488h-211v-488h-284v1400h495q222 0 355.5 -126t133.5 -330q0 -205 -133.5 -330.5t-355.5 -125.5zM853 944q0 102 -59.5 162t-168.5 60h-188v-444h188q109 0 168.5 59.5t59.5 162.5z" />
    <glyph glyph-name="Sigma" unicode="&#x3a3;" horiz-adv-x="1176" 
d="M113 255l359 447l-359 443v255h950v-244h-620l323 -388v-134l-325 -390h622v-244h-950v255z" />
    <glyph glyph-name="Tau" unicode="&#x3a4;" horiz-adv-x="1114" 
d="M415 0v1155h-360v245h1004v-245h-360v-1155h-284z" />
    <glyph glyph-name="Upsilon" unicode="&#x3a5;" horiz-adv-x="1302" 
d="M339 1400l312 -566l312 566h306l-476 -836v-564h-284v564l-476 836h306z" />
    <glyph glyph-name="Phi" unicode="&#x3a6;" horiz-adv-x="1546" 
d="M636 0v192q-158 0 -289.5 66.5t-208 182.5t-76.5 257t76.5 257t208 182.5t289.5 66.5v196h274v-196q158 0 289.5 -66.5t208 -182.5t76.5 -257t-76.5 -257t-208 -182.5t-289.5 -66.5v-192h-274zM1207 698q0 111 -86 188t-211 77v-531q125 0 211 77.5t86 188.5zM339 698
q0 -111 86 -188.5t211 -77.5v531q-125 0 -211 -77t-86 -188z" />
    <glyph glyph-name="Chi" unicode="&#x3a7;" horiz-adv-x="1286" 
d="M1261 0h-309l-309 516l-309 -516h-309l444 714l-424 686h309l289 -487l289 487h309l-424 -686z" />
    <glyph glyph-name="Psi" unicode="&#x3a8;" horiz-adv-x="1402" 
d="M834 1400v-825q82 35 132 112t50 174v539h266v-552q0 -195 -125 -341.5t-323 -187.5v-319h-266v319q-198 41 -323 187.5t-125 341.5v552h266v-539q0 -97 50 -174t132 -112v825h266z" />
    <glyph glyph-name="uni03A9" unicode="&#x3a9;" horiz-adv-x="1612" 
d="M1239 733q0 186 -125.5 314.5t-307.5 128.5t-307.5 -128.5t-125.5 -314.5q0 -158 89 -290.5t243 -207.5v-235h-600v248h277q-144 94 -220 224.5t-76 288.5q0 182 95 334.5t260.5 240.5t364.5 88t364.5 -88t260.5 -240.5t95 -334.5q0 -158 -76 -288.5t-220 -224.5h277
v-248h-600v235q154 75 243 207.5t89 290.5z" />
    <glyph glyph-name="Iotadieresis" unicode="&#x3aa;" horiz-adv-x="606" 
d="M161 1400h284v-1400h-284v1400zM-37 1664q0 62 42.5 104t104.5 42t104.5 -42t42.5 -104t-42.5 -104t-104.5 -42t-104.5 42t-42.5 104zM349 1664q0 62 42.5 104t104.5 42t104.5 -42t42.5 -104t-42.5 -104t-104.5 -42t-104.5 42t-42.5 104z" />
    <glyph glyph-name="Upsilondieresis" unicode="&#x3ab;" horiz-adv-x="1302" 
d="M339 1400l312 -566l312 566h306l-476 -836v-564h-284v564l-476 836h306zM311 1664q0 62 42.5 104t104.5 42t104.5 -42t42.5 -104t-42.5 -104t-104.5 -42t-104.5 42t-42.5 104zM697 1664q0 62 42.5 104t104.5 42t104.5 -42t42.5 -104t-42.5 -104t-104.5 -42t-104.5 42
t-42.5 104z" />
    <glyph glyph-name="alphatonos" unicode="&#x3ac;" horiz-adv-x="1387" 
d="M1255 0q-135 0 -206.5 30t-100.5 107q-137 -161 -363 -161q-147 0 -267 73.5t-186.5 197.5t-66.5 271t66.5 271t185.5 197.5t265 73.5q197 0 328 -128v104h272v-685q0 -53 30 -82t82 -29h50v-236q-44 -4 -89 -4zM640 219q89 0 161.5 45t108.5 120v268q-36 75 -108.5 120
t-161.5 45q-127 0 -213 -86t-86 -213t86 -213t213 -86zM436 1184l261 342h276l-275 -342h-262z" />
    <glyph glyph-name="epsilontonos" unicode="&#x3ad;" horiz-adv-x="962" 
d="M333 318q0 -54 46.5 -90t115.5 -36t127.5 28.5t96.5 80.5l189 -139q-58 -87 -165 -136.5t-244 -49.5q-186 0 -311.5 93t-125.5 230q0 89 58 160t144 98q-73 26 -116.5 86t-43.5 130q0 122 111.5 204.5t277.5 82.5q133 0 228.5 -49.5t142.5 -136.5l-213 -122
q-20 42 -60.5 66t-94.5 24q-53 0 -89.5 -25t-36.5 -64q0 -40 35.5 -67t89.5 -27h157v-213h-151q-70 0 -119 -37t-49 -91zM269 1184l261 342h276l-275 -342h-262z" />
    <glyph glyph-name="etatonos" unicode="&#x3ae;" horiz-adv-x="1226" 
d="M408 674v-674h-275v1036h275v-114q53 63 130.5 100.5t160.5 37.5q183 0 298.5 -117t115.5 -305v-1102h-275v1075q0 88 -56.5 147t-149.5 59q-63 0 -125 -42t-99 -101zM438 1184l261 342h276l-275 -342h-262z" />
    <glyph glyph-name="iotatonos" unicode="&#x3af;" horiz-adv-x="588" 
d="M138 267v769h275v-700q0 -96 96 -96h36v-236q-48 -4 -92 -4q-315 0 -315 267zM96 1184l261 342h276l-275 -342h-262z" />
    <glyph glyph-name="upsilondieresistonos" unicode="&#x3b0;" horiz-adv-x="1160" 
d="M580 -24q-197 0 -332 125t-135 307v628h275v-614q0 -87 55 -145t137 -58t137 58t55 145v614h275v-628q0 -182 -135 -307t-332 -125zM247 1275q0 60 42 101t105 41t105 -41t42 -101t-42 -101t-105 -41t-105 41t-42 101zM619 1275q0 60 42 101t105 41t105 -41t42 -101
t-42 -101t-105 -41t-105 41t-42 101zM678 1448h-242l196 262h256z" />
    <glyph glyph-name="alpha" unicode="&#x3b1;" horiz-adv-x="1387" 
d="M1255 0q-135 0 -206.5 30t-100.5 107q-137 -161 -363 -161q-147 0 -267 73.5t-186.5 197.5t-66.5 271t66.5 271t185.5 197.5t265 73.5q197 0 328 -128v104h272v-685q0 -53 30 -82t82 -29h50v-236q-44 -4 -89 -4zM640 219q89 0 161.5 45t108.5 120v268q-36 75 -108.5 120
t-161.5 45q-127 0 -213 -86t-86 -213t86 -213t213 -86z" />
    <glyph glyph-name="beta" unicode="&#x3b2;" horiz-adv-x="1215" 
d="M1022 1043q0 -87 -56 -161.5t-150 -110.5q137 -23 231.5 -127t94.5 -252q0 -177 -122 -296.5t-301 -119.5q-101 0 -183.5 42t-117.5 115v-597h-276v1500q0 167 126 277.5t314 110.5t314 -109.5t126 -271.5zM746 1029q0 70 -47 116.5t-117 46.5q-75 0 -119.5 -52
t-44.5 -135v-535q0 -119 62.5 -189t167.5 -70q90 0 150 57.5t60 144.5q0 106 -83.5 162t-225.5 56v230q97 1 147 48.5t50 119.5z" />
    <glyph glyph-name="gamma" unicode="&#x3b3;" horiz-adv-x="1075" 
d="M400 -464v462l-381 1038h286l233 -693l232 693h286l-381 -1038v-462h-275z" />
    <glyph glyph-name="delta" unicode="&#x3b4;" horiz-adv-x="1141" 
d="M340 444q0 -98 67 -164.5t163 -66.5q97 0 164 66.5t67 164.5t-67 164.5t-164 66.5q-96 0 -163 -66.5t-67 -164.5zM483 903l-278 281v216h741v-242h-397l403 -408q58 -58 91 -139.5t33 -166.5q0 -133 -71 -241.5t-187 -167.5t-251 -59q-132 0 -246.5 59t-185 167.5
t-70.5 241.5q0 177 120.5 304t297.5 155z" />
    <glyph glyph-name="epsilon" unicode="&#x3b5;" horiz-adv-x="962" 
d="M333 318q0 -54 46.5 -90t115.5 -36t127.5 28.5t96.5 80.5l189 -139q-58 -87 -165 -136.5t-244 -49.5q-186 0 -311.5 93t-125.5 230q0 89 58 160t144 98q-73 26 -116.5 86t-43.5 130q0 122 111.5 204.5t277.5 82.5q133 0 228.5 -49.5t142.5 -136.5l-213 -122
q-20 42 -60.5 66t-94.5 24q-53 0 -89.5 -25t-36.5 -64q0 -40 35.5 -67t89.5 -27h157v-213h-151q-70 0 -119 -37t-49 -91z" />
    <glyph glyph-name="zeta" unicode="&#x3b6;" horiz-adv-x="950" 
d="M62 366q0 97 48 189t132 193l338 410h-416v242h732v-226l-437 -543q-121 -151 -121 -259q0 -127 149 -200l237 -116q172 -85 172 -270q0 -125 -90 -250h-270q84 110 84 214q0 45 -25 81.5t-66 56.5l-203 95q-126 59 -195 158.5t-69 224.5z" />
    <glyph glyph-name="eta" unicode="&#x3b7;" horiz-adv-x="1226" 
d="M408 674v-674h-275v1036h275v-114q53 63 130.5 100.5t160.5 37.5q183 0 298.5 -117t115.5 -305v-1102h-275v1075q0 88 -56.5 147t-149.5 59q-63 0 -125 -42t-99 -101z" />
    <glyph glyph-name="theta" unicode="&#x3b8;" horiz-adv-x="1286" 
d="M63 700q0 147 42.5 279.5t117 231t184 156t236.5 57.5t236.5 -57.5t184 -156t117 -231t42.5 -279.5t-42.5 -279.5t-117 -231t-184 -156t-236.5 -57.5t-236.5 57.5t-184 156t-117 231t-42.5 279.5zM643 1186q-116 0 -196 -105.5t-100 -267.5h592q-20 162 -100 267.5
t-196 105.5zM643 213q116 0 196 106t100 268h-592q20 -162 100 -268t196 -106z" />
    <glyph glyph-name="iota" unicode="&#x3b9;" horiz-adv-x="588" 
d="M138 267v769h275v-700q0 -96 96 -96h36v-236q-48 -4 -92 -4q-315 0 -315 267z" />
    <glyph glyph-name="kappa" unicode="&#x3ba;" horiz-adv-x="1073" 
d="M764 0l-271 453h-85v-453h-275v1036h275v-347h89l217 347h310l-304 -466l349 -570h-305z" />
    <glyph glyph-name="lambda" unicode="&#x3bb;" horiz-adv-x="1074" 
d="M399 1019l-174 441h286l544 -1460h-286l-235 666l-229 -666h-286z" />
    <glyph glyph-name="uni03BC" unicode="&#x3bc;" horiz-adv-x="1246" 
d="M133 -464v1500h275v-670q18 -67 73 -107t126 -40q66 0 130.5 45.5t100.5 109.5v662h275v-1036h-275v117q-46 -64 -113.5 -102.5t-138.5 -38.5q-109 0 -178 84v-524h-275z" />
    <glyph glyph-name="nu" unicode="&#x3bd;" horiz-adv-x="1074" 
d="M769 1036h286l-370 -1036h-296l-370 1036h286l232 -705z" />
    <glyph glyph-name="xi" unicode="&#x3be;" horiz-adv-x="960" 
d="M348 374q0 -161 178 -229l164 -63q102 -39 159 -113.5t57 -174.5q0 -131 -90 -258h-270q84 108 84 213q0 98 -97 135l-148 55q-145 54 -229 169.5t-84 252.5q0 132 78 239t203 154q-101 43 -160 129t-59 188q0 149 117.5 251t290.5 102q216 0 342 -145l-170 -178
q-77 97 -165 97q-63 0 -105 -46t-42 -117t44 -119.5t111 -48.5h221v-225h-176q-107 0 -180.5 -76.5t-73.5 -191.5z" />
    <glyph glyph-name="omicron" unicode="&#x3bf;" horiz-adv-x="1280" 
d="M65 518q0 228 165 385t410 157q162 0 294 -72t206.5 -196t74.5 -274t-74.5 -274t-206.5 -196t-294 -72q-245 0 -410 157t-165 385zM341 518q0 -127 86 -213t213 -86t213.5 86t86.5 213q0 126 -86.5 212.5t-213.5 86.5t-213 -86.5t-86 -212.5z" />
    <glyph glyph-name="pi" unicode="&#x3c0;" horiz-adv-x="1162" 
d="M448 793v-793h-273v793h-130v243h1072v-243h-131v-793h-273v793h-265z" />
    <glyph glyph-name="rho" unicode="&#x3c1;" horiz-adv-x="1295" 
d="M113 -464v982q0 150 71 273.5t199.5 196t288.5 72.5q119 0 223.5 -42.5t177.5 -115t115 -172.5t42 -212q0 -147 -70.5 -271.5t-193.5 -197.5t-271 -73q-191 0 -310 118v-558h-272zM385 518v-140q39 -73 111.5 -116t160.5 -43q125 0 211 86t86 213t-80.5 213t-203.5 86
t-204 -86t-81 -213z" />
    <glyph glyph-name="sigma1" unicode="&#x3c2;" horiz-adv-x="1084" 
d="M343 518q0 -105 53.5 -187.5t156.5 -129.5l250 -113q98 -44 148 -120t50 -174q0 -132 -88 -258h-269q84 110 84 213q0 46 -26 83t-70 57l-233 104q-156 70 -245 207.5t-89 317.5q0 228 165 385t410 157q226 0 391 -139l-136 -205q-124 101 -253 101q-127 0 -213 -86.5
t-86 -212.5z" />
    <glyph glyph-name="sigma" unicode="&#x3c3;" horiz-adv-x="1332" 
d="M65 506q0 146 74.5 267.5t204 192t284.5 70.5h657v-243h-229q63 -60 99 -141t36 -171q0 -100 -43.5 -192.5t-118 -161.5t-179.5 -110t-222 -41q-155 0 -284.5 70t-204 192t-74.5 268zM340 506q0 -121 83 -204t205 -83t205 82.5t83 204.5t-83 204.5t-205 82.5t-205 -83
t-83 -204z" />
    <glyph glyph-name="tau" unicode="&#x3c4;" horiz-adv-x="989" 
d="M346 358v435h-304v243h905v-243h-326v-415q0 -76 31 -108.5t96 -32.5h49v-236q-44 -4 -92 -4q-189 0 -274 85t-85 276z" />
    <glyph glyph-name="upsilon" unicode="&#x3c5;" horiz-adv-x="1160" 
d="M580 -24q-197 0 -332 125t-135 307v628h275v-614q0 -87 55 -145t137 -58t137 58t55 145v614h275v-628q0 -182 -135 -307t-332 -125z" />
    <glyph glyph-name="phi" unicode="&#x3c6;" horiz-adv-x="1405" 
d="M266 945l177 -169q-118 -110 -118 -258q0 -113 71 -196.5t182 -101.5v840h190q120 0 227 -42.5t182 -115t119 -172.5t44 -212q0 -212 -144 -364.5t-364 -173.5v-444h-254v444q-222 19 -367.5 172t-145.5 366q0 130 54.5 240.5t146.5 186.5zM1081 518q0 111 -70.5 193.5
t-178.5 102.5v-594q108 20 178.5 103t70.5 195z" />
    <glyph glyph-name="chi" unicode="&#x3c7;" horiz-adv-x="1060" 
d="M1034 1036l-342 -730l362 -770h-292l-232 510l-232 -510h-292l362 770l-342 730h292l212 -471l212 471h292z" />
    <glyph glyph-name="psi" unicode="&#x3c8;" horiz-adv-x="1383" 
d="M820 1036v-796q87 30 139 100.5t52 162.5v533h259v-550q0 -186 -126 -323.5t-324 -174.5v-452h-257v452q-198 37 -324 174.5t-126 323.5v550h259v-533q0 -92 52 -162.5t139 -100.5v796h257z" />
    <glyph glyph-name="omega" unicode="&#x3c9;" horiz-adv-x="1611" 
d="M942 818v-285q0 -134 45.5 -224t118.5 -90q70 0 116.5 82.5t46.5 206.5q0 239 -174 528h273q178 -284 178 -528q0 -225 -121 -378.5t-297 -153.5q-106 0 -191.5 59.5t-131.5 152.5q-44 -93 -130 -152.5t-192 -59.5q-176 0 -297 153.5t-121 378.5q0 244 178 528h273
q-174 -289 -174 -528q0 -124 46.5 -206.5t116.5 -82.5q73 0 118.5 90t45.5 224v285h273z" />
    <glyph glyph-name="iotadieresis" unicode="&#x3ca;" horiz-adv-x="588" 
d="M138 267v769h275v-700q0 -96 96 -96h36v-236q-48 -4 -92 -4q-315 0 -315 267zM-64 1340q0 62 42.5 104t104.5 42t104.5 -42t42.5 -104t-42.5 -104t-104.5 -42t-104.5 42t-42.5 104zM322 1340q0 62 42.5 104t104.5 42t104.5 -42t42.5 -104t-42.5 -104t-104.5 -42
t-104.5 42t-42.5 104z" />
    <glyph glyph-name="upsilondieresis" unicode="&#x3cb;" horiz-adv-x="1160" 
d="M580 -24q-197 0 -332 125t-135 307v628h275v-614q0 -87 55 -145t137 -58t137 58t55 145v614h275v-628q0 -182 -135 -307t-332 -125zM240 1340q0 62 42.5 104t104.5 42t104.5 -42t42.5 -104t-42.5 -104t-104.5 -42t-104.5 42t-42.5 104zM626 1340q0 62 42.5 104t104.5 42
t104.5 -42t42.5 -104t-42.5 -104t-104.5 -42t-104.5 42t-42.5 104z" />
    <glyph glyph-name="omicrontonos" unicode="&#x3cc;" horiz-adv-x="1280" 
d="M65 518q0 228 165 385t410 157q162 0 294 -72t206.5 -196t74.5 -274t-74.5 -274t-206.5 -196t-294 -72q-245 0 -410 157t-165 385zM341 518q0 -127 86 -213t213 -86t213.5 86t86.5 213q0 126 -86.5 212.5t-213.5 86.5t-213 -86.5t-86 -212.5zM463 1184l261 342h276
l-275 -342h-262z" />
    <glyph glyph-name="upsilontonos" unicode="&#x3cd;" horiz-adv-x="1160" 
d="M580 -24q-197 0 -332 125t-135 307v628h275v-614q0 -87 55 -145t137 -58t137 58t55 145v614h275v-628q0 -182 -135 -307t-332 -125zM393 1184l261 342h276l-275 -342h-262z" />
    <glyph glyph-name="omegatonos" unicode="&#x3ce;" horiz-adv-x="1611" 
d="M942 818v-285q0 -134 45.5 -224t118.5 -90q70 0 116.5 82.5t46.5 206.5q0 239 -174 528h273q178 -284 178 -528q0 -225 -121 -378.5t-297 -153.5q-106 0 -191.5 59.5t-131.5 152.5q-44 -93 -130 -152.5t-192 -59.5q-176 0 -297 153.5t-121 378.5q0 244 178 528h273
q-174 -289 -174 -528q0 -124 46.5 -206.5t116.5 -82.5q73 0 118.5 90t45.5 224v285h273zM637 1184l261 342h276l-275 -342h-262z" />
    <glyph glyph-name="uni0400" unicode="&#x400;" horiz-adv-x="1146" 
d="M153 0v1400h872v-242h-588v-334h540v-240h-540v-342h606v-242h-890zM496 1850l261 -342h-262l-275 342h276z" />
    <glyph glyph-name="afii10023" unicode="&#x401;" horiz-adv-x="1146" 
d="M153 0v1400h872v-242h-588v-334h540v-240h-540v-342h606v-242h-890zM253 1664q0 62 42.5 104t104.5 42t104.5 -42t42.5 -104t-42.5 -104t-104.5 -42t-104.5 42t-42.5 104zM639 1664q0 62 42.5 104t104.5 42t104.5 -42t42.5 -104t-42.5 -104t-104.5 -42t-104.5 42
t-42.5 104z" />
    <glyph glyph-name="afii10051" unicode="&#x402;" horiz-adv-x="1446" 
d="M971 -4q-62 0 -94 4v235h48q73 0 122.5 49.5t49.5 122.5v74q0 75 -51.5 126t-127.5 51q-75 0 -131.5 -34.5t-88.5 -95.5v-528h-284v1158h-359v242h1003v-242h-360v-368q102 110 270 110q174 0 293.5 -115.5t119.5 -284.5v-109q0 -166 -118.5 -280.5t-291.5 -114.5z" />
    <glyph glyph-name="afii10052" unicode="&#x403;" horiz-adv-x="1040" 
d="M153 0v1400h852v-245h-568v-1155h-284zM394 1546l261 342h276l-275 -342h-262z" />
    <glyph glyph-name="afii10053" unicode="&#x404;" horiz-adv-x="1388" 
d="M828 -24q-209 0 -381.5 95.5t-271 261.5t-98.5 367t98.5 367t271 261.5t381.5 95.5q285 0 492 -171l-145 -204q-72 60 -162.5 96t-184.5 36q-166 0 -292 -102.5t-163 -262.5h650v-232h-650q37 -161 163 -263t292 -102q176 0 352 133l143 -205q-213 -171 -495 -171z" />
    <glyph glyph-name="afii10054" unicode="&#x405;" horiz-adv-x="1194" 
d="M91 201l163 191q73 -78 163.5 -125.5t183.5 -47.5q102 0 167.5 47t65.5 124q0 76 -62.5 129.5t-221.5 87.5q-210 44 -319.5 150t-109.5 263q0 178 130.5 291t335.5 113q278 0 462 -178l-154 -199q-155 136 -296 136q-83 0 -137 -39.5t-54 -102.5q0 -73 61.5 -122.5
t205.5 -82.5q231 -53 338.5 -161.5t107.5 -276.5q0 -187 -139 -304.5t-375 -117.5q-153 0 -288.5 59.5t-227.5 165.5z" />
    <glyph glyph-name="afii10055" unicode="&#x406;" horiz-adv-x="606" 
d="M161 1400h284v-1400h-284v1400z" />
    <glyph glyph-name="afii10056" unicode="&#x407;" horiz-adv-x="606" 
d="M161 1400h284v-1400h-284v1400zM-37 1664q0 62 42.5 104t104.5 42t104.5 -42t42.5 -104t-42.5 -104t-104.5 -42t-104.5 42t-42.5 104zM349 1664q0 62 42.5 104t104.5 42t104.5 -42t42.5 -104t-42.5 -104t-104.5 -42t-104.5 42t-42.5 104z" />
    <glyph glyph-name="afii10057" unicode="&#x408;" horiz-adv-x="930" 
d="M504 456v944h284v-954q0 -236 -117.5 -353t-341.5 -117q-79 0 -159 18.5t-137 51.5l82 234q92 -56 190 -56q199 0 199 232z" />
    <glyph glyph-name="afii10058" unicode="&#x409;" horiz-adv-x="2022" 
d="M1241 1400v-503h226q223 0 357.5 -124t134.5 -325t-134.5 -324.5t-357.5 -123.5h-510v1155h-444v-789q0 -195 -96.5 -282.5t-294.5 -87.5q-37 0 -87 4v241h56q71 0 104.5 35.5t33.5 120.5v1003h1012zM1672 448q0 100 -60 155.5t-170 55.5h-201v-422h201q110 0 170 55
t60 156z" />
    <glyph glyph-name="afii10059" unicode="&#x40a;" horiz-adv-x="2027" 
d="M1246 1400v-503h226q223 0 357.5 -124t134.5 -325t-134.5 -324.5t-357.5 -123.5h-510v581h-525v-581h-284v1400h284v-574h525v574h284zM1677 448q0 100 -60 155.5t-170 55.5h-201v-422h201q110 0 170 55t60 156z" />
    <glyph glyph-name="afii10060" unicode="&#x40b;" horiz-adv-x="1494" 
d="M1381 500v-500h-284v481q0 75 -51 126t-128 51q-75 0 -131.5 -34.5t-88.5 -95.5v-528h-284v1158h-359v242h1003v-242h-360v-368q102 110 270 110q174 0 293.5 -115.5t119.5 -284.5z" />
    <glyph glyph-name="afii10061" unicode="&#x40c;" horiz-adv-x="1239" 
d="M437 1400v-571h80l352 571h313l-429 -690l506 -710h-319l-415 584h-88v-584h-284v1400h284zM417 1508l261 342h276l-275 -342h-262z" />
    <glyph glyph-name="uni040D" unicode="&#x40d;" horiz-adv-x="1414" 
d="M1261 1400v-1400h-268v942l-552 -942h-288v1400h268v-942l552 942h288zM633 1850l261 -342h-262l-275 342h276z" />
    <glyph glyph-name="afii10062" unicode="&#x40e;" horiz-adv-x="1303" 
d="M1270 1400l-564 -1185q-102 -215 -325 -215h-186v245h132q87 0 128 84l49 100l-471 971h301l321 -695l314 695h301zM655 1488q-141 0 -244 89t-109 225h229q1 -55 36.5 -92t87.5 -37t87.5 37t36.5 92h229q-6 -136 -109 -225t-244 -89z" />
    <glyph glyph-name="afii10145" unicode="&#x40f;" horiz-adv-x="1362" 
d="M925 245v1155h284v-1400h-386v-280h-284v280h-386v1400h284v-1155h488z" />
    <glyph glyph-name="afii10017" unicode="&#x410;" horiz-adv-x="1382" 
d="M534 1400h314l501 -1400h-301l-104 315h-506l-104 -315h-301zM871 547l-180 550l-180 -550h360z" />
    <glyph glyph-name="afii10018" unicode="&#x411;" horiz-adv-x="1225" 
d="M437 897h226q223 0 357.5 -124t134.5 -325t-134.5 -324.5t-357.5 -123.5h-510v1400h882v-238h-598v-265zM868 448q0 100 -60 155.5t-170 55.5h-201v-422h201q110 0 170 55t60 156z" />
    <glyph glyph-name="afii10019" unicode="&#x412;" horiz-adv-x="1252" 
d="M749 0h-596v1400h527q194 0 304 -102t110 -277q0 -100 -45.5 -172t-123.5 -106q106 -29 175 -118.5t69 -216.5q0 -181 -115 -294.5t-305 -113.5zM818 999q0 80 -43.5 123t-116.5 43h-226v-331h226q72 0 116 43t44 122zM885 421q0 85 -47 136t-123 51h-283v-373h283
q76 0 123 51t47 135z" />
    <glyph glyph-name="afii10020" unicode="&#x413;" horiz-adv-x="1040" 
d="M153 0v1400h852v-245h-568v-1155h-284z" />
    <glyph glyph-name="afii10021" unicode="&#x414;" horiz-adv-x="1348" 
d="M1293 235v-515h-279v280h-680v-280h-279v515h103q167 382 167 967v198h845v-1165h123zM452 235h439v930h-291q0 -245 -37.5 -491.5t-110.5 -438.5z" />
    <glyph glyph-name="afii10022" unicode="&#x415;" horiz-adv-x="1146" 
d="M153 0v1400h872v-242h-588v-334h540v-240h-540v-342h606v-242h-890z" />
    <glyph glyph-name="afii10024" unicode="&#x416;" horiz-adv-x="1818" 
d="M62 1400h312l334 -571h59v571h284v-571h59l334 571h312l-409 -690l486 -710h-318l-396 584h-68v-584h-284v584h-68l-396 -584h-318l486 710z" />
    <glyph glyph-name="afii10025" unicode="&#x417;" horiz-adv-x="1073" 
d="M277 1095l-162 160q138 169 387 169q187 0 306.5 -107t119.5 -266q0 -92 -53 -168.5t-141 -115.5q118 -45 192 -140.5t74 -215.5q0 -121 -65.5 -221t-180.5 -157t-254 -57t-258 59.5t-190 164.5l168 167q110 -159 275 -159q96 0 160.5 63t64.5 155q0 99 -71 159.5
t-192 60.5h-145v229h148q91 0 147 45.5t56 116.5q0 67 -52.5 111t-130.5 44q-118 0 -203 -97z" />
    <glyph glyph-name="afii10026" unicode="&#x418;" horiz-adv-x="1414" 
d="M1261 1400v-1400h-268v942l-552 -942h-288v1400h268v-942l552 942h288z" />
    <glyph glyph-name="afii10027" unicode="&#x419;" horiz-adv-x="1414" 
d="M1261 1400v-1400h-268v942l-552 -942h-288v1400h268v-942l552 942h288zM707 1488q-141 0 -244 89t-109 225h229q1 -55 36.5 -92t87.5 -37t87.5 37t36.5 92h229q-6 -136 -109 -225t-244 -89z" />
    <glyph glyph-name="afii10028" unicode="&#x41a;" horiz-adv-x="1239" 
d="M437 1400v-571h80l352 571h313l-429 -690l506 -710h-319l-415 584h-88v-584h-284v1400h284z" />
    <glyph glyph-name="afii10029" unicode="&#x41b;" horiz-adv-x="1429" 
d="M513 1155v-789q0 -195 -96.5 -282.5t-294.5 -87.5q-37 0 -87 4v241h56q71 0 104.5 35.5t33.5 120.5v1003h1047v-1400h-284v1155h-479z" />
    <glyph glyph-name="afii10030" unicode="&#x41c;" horiz-adv-x="1718" 
d="M953 418h-188l-344 553v-971h-268v1400h290l416 -672l416 672h290v-1400h-268v971z" />
    <glyph glyph-name="afii10031" unicode="&#x41d;" horiz-adv-x="1414" 
d="M153 0v1400h284v-574h540v574h284v-1400h-284v581h-540v-581h-284z" />
    <glyph glyph-name="afii10032" unicode="&#x41e;" horiz-adv-x="1656" 
d="M364 700q0 -202 134 -339t330 -137t330 137t134 339t-134 339t-330 137t-330 -137t-134 -339zM77 700q0 201 98.5 367t271 261.5t381.5 95.5t381.5 -95.5t271 -261.5t98.5 -367t-98.5 -367t-271 -261.5t-381.5 -95.5t-381.5 95.5t-271 261.5t-98.5 367z" />
    <glyph glyph-name="afii10033" unicode="&#x41f;" horiz-adv-x="1362" 
d="M1209 1400v-1400h-284v1155h-488v-1155h-284v1400h1056z" />
    <glyph glyph-name="afii10034" unicode="&#x420;" horiz-adv-x="1200" 
d="M648 488h-211v-488h-284v1400h495q222 0 355.5 -126t133.5 -330q0 -205 -133.5 -330.5t-355.5 -125.5zM853 944q0 102 -59.5 162t-168.5 60h-188v-444h188q109 0 168.5 59.5t59.5 162.5z" />
    <glyph glyph-name="afii10035" unicode="&#x421;" horiz-adv-x="1390" 
d="M828 -24q-209 0 -381.5 95.5t-271 261.5t-98.5 367t98.5 367t271 261.5t381.5 95.5q271 0 480 -162l-143 -211q-84 60 -163.5 92.5t-173.5 32.5q-196 0 -330 -137t-134 -339t134 -339t330 -137q94 0 184 37t163 98l150 -209q-210 -174 -497 -174z" />
    <glyph glyph-name="afii10036" unicode="&#x422;" horiz-adv-x="1114" 
d="M415 0v1155h-360v245h1004v-245h-360v-1155h-284z" />
    <glyph glyph-name="afii10037" unicode="&#x423;" horiz-adv-x="1303" 
d="M1270 1400l-564 -1185q-102 -215 -325 -215h-186v245h132q87 0 128 84l49 100l-471 971h301l321 -695l314 695h301z" />
    <glyph glyph-name="afii10038" unicode="&#x424;" horiz-adv-x="1546" 
d="M636 0v192q-158 0 -289.5 66.5t-208 182.5t-76.5 257t76.5 257t208 182.5t289.5 66.5v196h274v-196q158 0 289.5 -66.5t208 -182.5t76.5 -257t-76.5 -257t-208 -182.5t-289.5 -66.5v-192h-274zM1207 698q0 111 -86 188t-211 77v-531q125 0 211 77.5t86 188.5zM339 698
q0 -111 86 -188.5t211 -77.5v531q-125 0 -211 -77t-86 -188z" />
    <glyph glyph-name="afii10039" unicode="&#x425;" horiz-adv-x="1286" 
d="M1261 0h-309l-309 516l-309 -516h-309l444 714l-424 686h309l289 -487l289 487h309l-424 -686z" />
    <glyph glyph-name="afii10040" unicode="&#x426;" horiz-adv-x="1387" 
d="M1061 0h-908v1400h284v-1155h488v1155h284v-1155h123v-525h-271v280z" />
    <glyph glyph-name="afii10041" unicode="&#x427;" horiz-adv-x="1272" 
d="M113 909v491h284v-471q0 -85 56.5 -141t142.5 -56q77 0 141.5 39.5t97.5 102.5v526h284v-1400h-284v608q-50 -53 -129.5 -85.5t-160.5 -32.5q-182 0 -307 121t-125 298z" />
    <glyph glyph-name="afii10042" unicode="&#x428;" horiz-adv-x="1962" 
d="M1525 245v1155h284v-1400h-1656v1400h284v-1155h402v1155h284v-1155h402z" />
    <glyph glyph-name="afii10043" unicode="&#x429;" horiz-adv-x="1987" 
d="M1661 0h-1508v1400h284v-1155h402v1155h284v-1155h402v1155h284v-1155h123v-525h-271v280z" />
    <glyph glyph-name="afii10044" unicode="&#x42a;" horiz-adv-x="1446" 
d="M665 897h226q223 0 357.5 -124t134.5 -325t-134.5 -324.5t-357.5 -123.5h-510v1162h-326v238h610v-503zM1096 448q0 100 -60 155.5t-170 55.5h-201v-422h201q110 0 170 55.5t60 155.5z" />
    <glyph glyph-name="afii10045" unicode="&#x42b;" horiz-adv-x="1720" 
d="M153 1400h284v-503h226q223 0 357.5 -124t134.5 -325t-134.5 -324.5t-357.5 -123.5h-510v1400zM868 448q0 100 -60 155.5t-170 55.5h-201v-422h201q110 0 170 55.5t60 155.5zM1283 1400h284v-1400h-284v1400z" />
    <glyph glyph-name="afii10046" unicode="&#x42c;" horiz-adv-x="1218" 
d="M153 1400h284v-503h226q223 0 357.5 -124t134.5 -325t-134.5 -324.5t-357.5 -123.5h-510v1400zM868 448q0 100 -60 155.5t-170 55.5h-201v-422h201q110 0 170 55.5t60 155.5z" />
    <glyph glyph-name="afii10047" unicode="&#x42d;" horiz-adv-x="1388" 
d="M560 -24q-282 0 -495 171l143 205q176 -133 352 -133q166 0 292 102t163 263h-650v232h650q-37 160 -163 262.5t-292 102.5q-94 0 -184.5 -36t-162.5 -96l-145 204q207 171 492 171q209 0 381.5 -95.5t271 -261.5t98.5 -367t-98.5 -367t-271 -261.5t-381.5 -95.5z" />
    <glyph glyph-name="afii10048" unicode="&#x42e;" horiz-adv-x="2162" 
d="M437 581v-581h-284v1400h284v-574h163q45 260 250.5 429t486.5 169q208 0 379.5 -95.5t270 -261.5t98.5 -367t-98.5 -367t-270 -261.5t-379.5 -95.5q-187 0 -346.5 78t-262 216t-130.5 311h-161zM875 700q0 -202 134 -339t328 -137q127 0 232.5 62t167 171.5t61.5 242.5
q0 201 -134 338.5t-327 137.5q-194 0 -328 -137.5t-134 -338.5z" />
    <glyph glyph-name="afii10049" unicode="&#x42f;" horiz-adv-x="1227" 
d="M579 1400h495v-1400h-282v498h-111l-314 -498h-310l339 528q-144 43 -225 153.5t-81 267.5q0 204 133 327.5t356 123.5zM792 1166h-191q-108 0 -167.5 -59.5t-59.5 -161.5q0 -100 59.5 -160t167.5 -60h191v441z" />
    <glyph glyph-name="afii10065" unicode="&#x430;" horiz-adv-x="1315" 
d="M640 219q89 0 161.5 45t108.5 120v268q-36 75 -108.5 120t-161.5 45q-127 0 -213 -86t-86 -213t86 -213t213 -86zM582 1060q197 0 328 -128v104h272v-1036h-272v104q-131 -128 -328 -128q-146 0 -265 73.5t-185.5 197.5t-66.5 271t66.5 271t185.5 197.5t265 73.5z" />
    <glyph glyph-name="afii10066" unicode="&#x431;" horiz-adv-x="1234" 
d="M388 844q56 52 133 82t160 30q136 0 248 -64.5t176 -176.5t64 -247q0 -212 -153 -352t-388 -140q-115 0 -213 38.5t-172.5 112.5t-116.5 190t-42 262q0 234 42 391t140 261.5t247.5 157t376.5 71.5l40 -243q-154 -15 -251 -39.5t-159 -70t-90.5 -106.5t-41.5 -157z
M360 556q1 -165 75 -251t193 -86q116 0 191 70.5t75 176.5q0 105 -73.5 176t-182.5 71q-85 0 -156.5 -42.5t-121.5 -114.5z" />
    <glyph glyph-name="afii10067" unicode="&#x432;" horiz-adv-x="1045" 
d="M601 0h-468v1036h436q147 0 246.5 -80.5t99.5 -200.5q0 -68 -38.5 -124.5t-101.5 -82.5q81 -20 134.5 -90t53.5 -155q0 -128 -104.5 -215.5t-257.5 -87.5zM573 433h-182v-220h182q55 0 91 31t36 78q0 48 -36 79.5t-91 31.5zM391 631h154q50 0 81.5 27t31.5 69t-32 68.5
t-81 26.5h-154v-191z" />
    <glyph glyph-name="afii10068" unicode="&#x433;" horiz-adv-x="840" 
d="M797 793h-389v-793h-275v1036h664v-243z" />
    <glyph glyph-name="afii10069" unicode="&#x434;" horiz-adv-x="1128" 
d="M1085 217v-429h-260v212h-523v-212h-259v429h104q139 294 139 819h678v-819h121zM423 217h285v601h-174q0 -147 -29.5 -310t-81.5 -291z" />
    <glyph glyph-name="afii10070" unicode="&#x435;" horiz-adv-x="1236" 
d="M343 436q18 -108 100.5 -174.5t199.5 -66.5q163 0 294 129l165 -160q-173 -188 -458 -188q-126 0 -235 42t-184 115t-117.5 172.5t-42.5 212.5q0 112 43 212t117.5 172.5t179.5 115t223 42.5q155 0 280 -70.5t194 -190t69 -263.5q0 -52 -12 -100h-816zM626 841
q-97 0 -172.5 -57t-103.5 -152h538q-23 94 -93 151.5t-169 57.5z" />
    <glyph glyph-name="afii10072" unicode="&#x436;" horiz-adv-x="1605" 
d="M1296 0l-267 435h-89v-435h-275v435h-90l-266 -435h-305l349 552l-304 484h310l217 -365h89v365h275v-365h89l217 365h310l-304 -484l349 -552h-305z" />
    <glyph glyph-name="afii10073" unicode="&#x437;" horiz-adv-x="962" 
d="M629 318q0 54 -49 91t-119 37h-151v213h157q54 0 89.5 27t35.5 67q0 39 -36.5 64t-89.5 25q-54 0 -94.5 -24t-60.5 -66l-213 122q47 87 142.5 136.5t228.5 49.5q166 0 277.5 -82.5t111.5 -204.5q0 -70 -43.5 -130t-116.5 -86q86 -27 144 -98t58 -160q0 -137 -125.5 -230
t-311.5 -93q-137 0 -244 49.5t-165 136.5l189 139q38 -52 96.5 -80.5t127.5 -28.5t115.5 36t46.5 90z" />
    <glyph glyph-name="afii10074" unicode="&#x438;" horiz-adv-x="1246" 
d="M1113 1036v-1036h-266v648l-465 -648h-249v1036h266v-648l465 648h249z" />
    <glyph glyph-name="afii10075" unicode="&#x439;" horiz-adv-x="1246" 
d="M1113 1036v-1036h-266v648l-465 -648h-249v1036h266v-648l465 648h249zM623 1164q-141 0 -244 89t-109 225h229q1 -55 36.5 -92t87.5 -37t87.5 37t36.5 92h229q-6 -136 -109 -225t-244 -89z" />
    <glyph glyph-name="afii10076" unicode="&#x43a;" horiz-adv-x="1073" 
d="M764 0l-271 453h-85v-453h-275v1036h275v-347h89l217 347h310l-304 -466l349 -570h-305z" />
    <glyph glyph-name="afii10077" unicode="&#x43b;" horiz-adv-x="1246" 
d="M1113 1036v-1036h-275v795h-346v-481q0 -140 -97 -231t-246 -91q-63 0 -106 8v239h51q54 0 88.5 33t34.5 87v677h896z" />
    <glyph glyph-name="afii10078" unicode="&#x43c;" horiz-adv-x="1374" 
d="M398 1036l289 -493l289 493h265v-1036h-260v647l-214 -352h-160l-214 352v-647h-260v1036h265z" />
    <glyph glyph-name="afii10079" unicode="&#x43d;" horiz-adv-x="1246" 
d="M1113 1036v-1036h-275v415h-430v-415h-275v1036h275v-380h430v380h275z" />
    <glyph glyph-name="afii10080" unicode="&#x43e;" horiz-adv-x="1280" 
d="M65 518q0 228 165 385t410 157q162 0 294 -72t206.5 -196t74.5 -274t-74.5 -274t-206.5 -196t-294 -72q-245 0 -410 157t-165 385zM341 518q0 -127 86 -213t213 -86t213.5 86t86.5 213q0 126 -86.5 212.5t-213.5 86.5t-213 -86.5t-86 -212.5z" />
    <glyph glyph-name="afii10081" unicode="&#x43f;" horiz-adv-x="1246" 
d="M1113 1036v-1036h-275v795h-430v-795h-275v1036h980z" />
    <glyph glyph-name="afii10082" unicode="&#x440;" horiz-adv-x="1315" 
d="M675 219q127 0 213 86t86 213t-86 213t-213 86q-89 0 -161.5 -45t-108.5 -120v-268q36 -75 108.5 -120t161.5 -45zM733 1060q146 0 265 -73.5t185.5 -197.5t66.5 -271t-66.5 -271t-185.5 -197.5t-265 -73.5q-197 0 -328 128v-568h-272v1500h272v-104q131 128 328 128z
" />
    <glyph glyph-name="afii10083" unicode="&#x441;" horiz-adv-x="1111" 
d="M640 -24q-245 0 -410 157t-165 385t165 385t410 157q226 0 391 -139l-136 -205q-124 101 -253 101q-127 0 -213 -86.5t-86 -212.5q0 -127 86 -213t213 -86q136 0 259 109l153 -192q-165 -160 -414 -160z" />
    <glyph glyph-name="afii10084" unicode="&#x442;" horiz-adv-x="966" 
d="M345 793h-302v243h880v-243h-303v-793h-275v793z" />
    <glyph glyph-name="afii10085" unicode="&#x443;" horiz-adv-x="1074" 
d="M504 -464h-287l182 464l-380 1036h286l230 -688l234 688h286z" />
    <glyph glyph-name="afii10086" unicode="&#x444;" horiz-adv-x="2092" 
d="M640 219q89 0 161.5 45t108.5 120v268q-36 75 -108.5 120t-161.5 45q-127 0 -213 -86t-86 -213t86 -213t213 -86zM1182 104v-568h-272v568q-131 -128 -328 -128q-146 0 -265 73.5t-185.5 197.5t-66.5 271t66.5 271t185.5 197.5t265 73.5q197 0 328 -128v528h272v-528
q131 128 328 128q146 0 265 -73.5t185.5 -197.5t66.5 -271t-66.5 -271t-185.5 -197.5t-265 -73.5q-197 0 -328 128zM1452 219q127 0 213 86t86 213t-86 213t-213 86q-89 0 -161.5 -45t-108.5 -120v-268q36 -75 108.5 -120t161.5 -45z" />
    <glyph glyph-name="afii10087" unicode="&#x445;" horiz-adv-x="1074" 
d="M1055 0h-298l-220 352l-220 -352h-298l340 528l-314 508h298l194 -333l194 333h298l-314 -508z" />
    <glyph glyph-name="afii10088" unicode="&#x446;" horiz-adv-x="1278" 
d="M1113 1036v-796h122v-520h-263v280h-839v1036h275v-796h430v796h275z" />
    <glyph glyph-name="afii10089" unicode="&#x447;" horiz-adv-x="1118" 
d="M710 0v391q-89 -108 -239 -108q-164 0 -277.5 113t-113.5 276v364h275v-349q0 -69 46.5 -116.5t118.5 -47.5q66 0 114 35.5t76 93.5v384h275v-1036h-275z" />
    <glyph glyph-name="afii10090" unicode="&#x448;" horiz-adv-x="1595" 
d="M1462 1036v-1036h-1329v1036h268v-796h263v796h267v-796h263v796h268z" />
    <glyph glyph-name="afii10091" unicode="&#x449;" horiz-adv-x="1627" 
d="M1321 0h-1188v1036h268v-796h263v796h267v-796h263v796h268v-796h122v-520h-263v280z" />
    <glyph glyph-name="afii10092" unicode="&#x44a;" horiz-adv-x="1218" 
d="M892 358q0 63 -44 104t-110 41h-161v-290h161q65 0 109.5 41.5t44.5 103.5zM1160 358q0 -150 -111.5 -254t-275.5 -104h-464v809h-266v227h534v-319h196q164 0 275.5 -104t111.5 -255z" />
    <glyph glyph-name="afii10093" unicode="&#x44b;" horiz-adv-x="1498" 
d="M716 358q0 63 -44.5 104t-110.5 41h-160v-290h160q66 0 110.5 41.5t44.5 103.5zM984 358q0 -151 -112 -254.5t-276 -103.5h-463v1036h268v-319h195q164 0 276 -104t112 -255zM1090 0v1036h275v-1036h-275z" />
    <glyph glyph-name="afii10094" unicode="&#x44c;" horiz-adv-x="1042" 
d="M716 358q0 63 -44.5 104t-110.5 41h-160v-290h160q66 0 110.5 41.5t44.5 103.5zM984 358q0 -151 -112 -254.5t-276 -103.5h-463v1036h268v-319h195q164 0 276 -104t112 -255z" />
    <glyph glyph-name="afii10095" unicode="&#x44d;" horiz-adv-x="1111" 
d="M471 -24q-249 0 -414 160l150 183q125 -113 262 -113q102 0 181.5 58t109.5 151h-429v201h431q-30 95 -110 154t-183 59q-127 0 -256 -105l-133 197q165 139 391 139q245 0 410 -157t165 -385t-165 -385t-410 -157z" />
    <glyph glyph-name="afii10096" unicode="&#x44e;" horiz-adv-x="1733" 
d="M1093 1060q162 0 294 -72t206.5 -196t74.5 -274t-74.5 -274t-206.5 -196t-294 -72q-211 0 -365 118.5t-195 303.5h-128v-398h-272v1036h272v-395h129q42 183 196 301t363 118zM1093 219q127 0 213.5 86t86.5 213q0 126 -86.5 212.5t-213.5 86.5t-213 -86.5t-86 -212.5
q0 -127 86 -213t213 -86z" />
    <glyph glyph-name="afii10097" unicode="&#x44f;" horiz-adv-x="1113" 
d="M88 696q0 144 112 242t277 98h503v-1036h-263v350h-103l-265 -350h-292l290 374q-117 34 -188 121t-71 201zM717 822h-213q-63 0 -106 -36t-43 -90q0 -55 42.5 -91t106.5 -36h213v253z" />
    <glyph glyph-name="uni0450" unicode="&#x450;" horiz-adv-x="1236" 
d="M343 436q18 -108 100.5 -174.5t199.5 -66.5q163 0 294 129l165 -160q-173 -188 -458 -188q-126 0 -235 42t-184 115t-117.5 172.5t-42.5 212.5q0 112 43 212t117.5 172.5t179.5 115t223 42.5q155 0 280 -70.5t194 -190t69 -263.5q0 -52 -12 -100h-816zM626 841
q-97 0 -172.5 -57t-103.5 -152h538q-23 94 -93 151.5t-169 57.5zM553 1526l261 -342h-262l-275 342h276z" />
    <glyph glyph-name="afii10071" unicode="&#x451;" horiz-adv-x="1236" 
d="M343 436q18 -108 100.5 -174.5t199.5 -66.5q163 0 294 129l165 -160q-173 -188 -458 -188q-126 0 -235 42t-184 115t-117.5 172.5t-42.5 212.5q0 112 43 212t117.5 172.5t179.5 115t223 42.5q155 0 280 -70.5t194 -190t69 -263.5q0 -52 -12 -100h-816zM626 841
q-97 0 -172.5 -57t-103.5 -152h538q-23 94 -93 151.5t-169 57.5zM278 1340q0 62 42.5 104t104.5 42t104.5 -42t42.5 -104t-42.5 -104t-104.5 -42t-104.5 42t-42.5 104zM664 1340q0 62 42.5 104t104.5 42t104.5 -42t42.5 -104t-42.5 -104t-104.5 -42t-104.5 42t-42.5 104z
" />
    <glyph glyph-name="afii10099" unicode="&#x452;" horiz-adv-x="1248" 
d="M20 1152v167h135v141h275v-141h297v-167h-297v-230q53 63 130.5 100.5t160.5 37.5q183 0 298.5 -117t115.5 -305v-738q0 -364 -407 -364q-67 0 -119 10v219q45 -5 93 -5q87 0 122.5 40.5t35.5 128.5v682q0 88 -56.5 147t-149.5 59q-63 0 -125 -42t-99 -101v-674h-275
v1152h-135z" />
    <glyph glyph-name="afii10100" unicode="&#x453;" horiz-adv-x="840" 
d="M797 793h-389v-793h-275v1036h664v-243zM212 1184l261 342h276l-275 -342h-262z" />
    <glyph glyph-name="afii10101" unicode="&#x454;" horiz-adv-x="1111" 
d="M640 -24q-245 0 -410 157t-165 385t165 385t410 157q226 0 391 -139l-133 -197q-129 105 -256 105q-103 0 -183 -59t-110 -154h431v-201h-429q30 -93 109.5 -151t181.5 -58q137 0 262 113l150 -183q-165 -160 -414 -160z" />
    <glyph glyph-name="afii10102" unicode="&#x455;" horiz-adv-x="947" 
d="M62 148l138 171q50 -57 118.5 -90t144.5 -33q71 0 111.5 27.5t40.5 75.5t-40 77.5t-138 49.5q-337 69 -337 332q0 132 103.5 217t270.5 85q104 0 200 -38.5t168 -102.5l-132 -172q-113 93 -212 93q-57 0 -93 -23.5t-36 -62.5q0 -90 165 -124q179 -36 264.5 -119
t85.5 -215q0 -140 -109 -230t-291 -90q-129 0 -240 45.5t-182 126.5z" />
    <glyph glyph-name="afii10103" unicode="&#x456;" horiz-adv-x="552" 
d="M138 0v1036h275v-1036h-275zM113 1312q0 67 47 113t116 46t116 -46t47 -113t-47 -113t-116 -46t-116 46t-47 113z" />
    <glyph glyph-name="afii10104" unicode="&#x457;" horiz-adv-x="552" 
d="M138 0v1036h275v-1036h-275zM-64 1340q0 62 42.5 104t104.5 42t104.5 -42t42.5 -104t-42.5 -104t-104.5 -42t-104.5 42t-42.5 104zM322 1340q0 62 42.5 104t104.5 42t104.5 -42t42.5 -104t-42.5 -104t-104.5 -42t-104.5 42t-42.5 104z" />
    <glyph glyph-name="afii10105" unicode="&#x458;" horiz-adv-x="552" 
d="M138 -90v1126h275v-1140q0 -184 -88 -272t-266 -88q-57 0 -97 7v232h53q64 0 93.5 31t29.5 104zM113 1312q0 67 47 113t116 46t116 -46t47 -113t-47 -113t-116 -46t-116 46t-47 113z" />
    <glyph glyph-name="afii10106" unicode="&#x459;" horiz-adv-x="1716" 
d="M1271 0h-464v798h-315v-484q0 -140 -97 -231t-246 -91q-63 0 -106 8v239h51q54 0 88.5 33t34.5 87v677h858v-319h196q164 0 275.5 -104t111.5 -255q0 -150 -111.5 -254t-275.5 -104zM1390 358q0 63 -44 104t-110 41h-161v-290h161q65 0 109.5 41.5t44.5 103.5z" />
    <glyph glyph-name="afii10107" unicode="&#x45a;" horiz-adv-x="1716" 
d="M1658 358q0 -150 -111.5 -254t-275.5 -104h-464v415h-399v-415h-275v1036h275v-380h399v380h268v-319h196q164 0 275.5 -104t111.5 -255zM1390 358q0 63 -44 104t-110 41h-161v-290h161q65 0 109.5 41.5t44.5 103.5z" />
    <glyph glyph-name="afii10108" unicode="&#x45b;" horiz-adv-x="1248" 
d="M20 1152v167h135v141h275v-141h297v-167h-297v-230q53 63 130.5 100.5t160.5 37.5q183 0 298.5 -117t115.5 -305v-638h-275v611q0 88 -56.5 147t-149.5 59q-63 0 -125 -42t-99 -101v-674h-275v1152h-135z" />
    <glyph glyph-name="afii10109" unicode="&#x45c;" horiz-adv-x="1073" 
d="M764 0l-271 453h-85v-453h-275v1036h275v-347h89l217 347h310l-304 -466l349 -570h-305zM321 1184l261 342h276l-275 -342h-262z" />
    <glyph glyph-name="uni045D" unicode="&#x45d;" horiz-adv-x="1246" 
d="M1113 1036v-1036h-266v648l-465 -648h-249v1036h266v-648l465 648h249zM552 1526l261 -342h-262l-275 342h276z" />
    <glyph glyph-name="afii10110" unicode="&#x45e;" horiz-adv-x="1074" 
d="M504 -464h-287l182 464l-380 1036h286l230 -688l234 688h286zM535 1164q-141 0 -244 89t-109 225h229q1 -55 36.5 -92t87.5 -37t87.5 37t36.5 92h229q-6 -136 -109 -225t-244 -89z" />
    <glyph glyph-name="afii10193" unicode="&#x45f;" horiz-adv-x="1247" 
d="M761 0v-280h-275v280h-353v1036h275v-796h431v796h275v-1036h-353z" />
    <glyph glyph-name="afii10050" unicode="&#x490;" horiz-adv-x="1040" 
d="M734 1400v280h271v-525h-568v-1155h-284v1400h581z" />
    <glyph glyph-name="afii10098" unicode="&#x491;" horiz-adv-x="840" 
d="M534 1036v280h263v-523h-389v-793h-275v1036h401z" />
    <glyph glyph-name="Wgrave" unicode="&#x1e80;" horiz-adv-x="1970" 
d="M845 1400h280l269 -1004l247 1004h296l-388 -1400h-285l-279 1013l-279 -1013h-285l-388 1400h296l247 -1004zM904 1850l261 -342h-262l-275 342h276z" />
    <glyph glyph-name="wgrave" unicode="&#x1e81;" horiz-adv-x="1594" 
d="M659 1036h276l178 -693l181 693h281l-314 -1036h-284l-180 674l-180 -674h-284l-314 1036h281l181 -693zM703 1526l261 -342h-262l-275 342h276z" />
    <glyph glyph-name="Wacute" unicode="&#x1e82;" horiz-adv-x="1970" 
d="M845 1400h280l269 -1004l247 1004h296l-388 -1400h-285l-279 1013l-279 -1013h-285l-388 1400h296l247 -1004zM810 1508l261 342h276l-275 -342h-262z" />
    <glyph glyph-name="wacute" unicode="&#x1e83;" horiz-adv-x="1594" 
d="M659 1036h276l178 -693l181 693h281l-314 -1036h-284l-180 674l-180 -674h-284l-314 1036h281l181 -693zM623 1184l261 342h276l-275 -342h-262z" />
    <glyph glyph-name="Wdieresis" unicode="&#x1e84;" horiz-adv-x="1970" 
d="M845 1400h280l269 -1004l247 1004h296l-388 -1400h-285l-279 1013l-279 -1013h-285l-388 1400h296l247 -1004zM645 1664q0 62 42.5 104t104.5 42t104.5 -42t42.5 -104t-42.5 -104t-104.5 -42t-104.5 42t-42.5 104zM1031 1664q0 62 42.5 104t104.5 42t104.5 -42t42.5 -104
t-42.5 -104t-104.5 -42t-104.5 42t-42.5 104z" />
    <glyph glyph-name="wdieresis" unicode="&#x1e85;" horiz-adv-x="1594" 
d="M659 1036h276l178 -693l181 693h281l-314 -1036h-284l-180 674l-180 -674h-284l-314 1036h281l181 -693zM457 1340q0 62 42.5 104t104.5 42t104.5 -42t42.5 -104t-42.5 -104t-104.5 -42t-104.5 42t-42.5 104zM843 1340q0 62 42.5 104t104.5 42t104.5 -42t42.5 -104
t-42.5 -104t-104.5 -42t-104.5 42t-42.5 104z" />
    <glyph glyph-name="Ygrave" unicode="&#x1ef2;" horiz-adv-x="1302" 
d="M339 1400l312 -566l312 566h306l-476 -836v-564h-284v564l-476 836h306zM567 1850l261 -342h-262l-275 342h276z" />
    <glyph glyph-name="ygrave" unicode="&#x1ef3;" horiz-adv-x="1074" 
d="M504 -464h-287l182 464l-380 1036h286l230 -688l234 688h286zM441 1526l261 -342h-262l-275 342h276z" />
    <glyph glyph-name="thinspace" unicode="&#x2009;" horiz-adv-x="400" 
 />
    <glyph glyph-name="uni2010" unicode="&#x2010;" horiz-adv-x="828" 
d="M710 537h-592v254h592v-254z" />
    <glyph glyph-name="figuredash" unicode="&#x2012;" horiz-adv-x="1200" 
d="M1100 537h-1000v254h1000v-254z" />
    <glyph glyph-name="endash" unicode="&#x2013;" horiz-adv-x="1000" 
d="M1000 537h-1000v254h1000v-254z" />
    <glyph glyph-name="emdash" unicode="&#x2014;" horiz-adv-x="2000" 
d="M2000 537h-2000v254h2000v-254z" />
    <glyph glyph-name="afii00208" unicode="&#x2015;" horiz-adv-x="2000" 
d="M1800 537h-1600v254h1600v-254z" />
    <glyph glyph-name="uni2016" unicode="&#x2016;" horiz-adv-x="955" 
d="M162 -280v1780h249v-1780h-249zM544 -280v1780h249v-1780h-249z" />
    <glyph glyph-name="underscoredbl" unicode="&#x2017;" horiz-adv-x="1200" 
d="M100 -482v206h1000v-206h-1000zM100 -192v206h1000v-206h-1000z" />
    <glyph glyph-name="quoteleft" unicode="&#x2018;" horiz-adv-x="603" 
d="M471 1166q0 -71 -48 -118.5t-121 -47.5t-121.5 47.5t-48.5 118.5q0 38 18 77l147 315h176l-108 -237q48 -18 77 -59.5t29 -95.5z" />
    <glyph glyph-name="quoteright" unicode="&#x2019;" horiz-adv-x="603" 
d="M132 1392q0 71 48 118.5t121 47.5t121.5 -47.5t48.5 -118.5q0 -38 -18 -77l-147 -315h-176l108 237q-48 18 -77 59.5t-29 95.5z" />
    <glyph glyph-name="quotesinglbase" unicode="&#x201a;" horiz-adv-x="603" 
d="M132 142q0 71 48 118.5t121 47.5t121.5 -47.5t48.5 -118.5q0 -38 -18 -77l-147 -315h-176l108 237q-48 18 -77 59.5t-29 95.5z" />
    <glyph glyph-name="quotereversed" unicode="&#x201b;" horiz-adv-x="603" 
d="M471 1392q0 -54 -29 -95.5t-77 -59.5l108 -237h-176l-147 315q-18 39 -18 77q0 71 48.5 118.5t121.5 47.5t121 -47.5t48 -118.5z" />
    <glyph glyph-name="quotedblleft" unicode="&#x201c;" horiz-adv-x="994" 
d="M862 1166q0 -71 -48 -118.5t-121 -47.5t-121.5 47.5t-48.5 118.5q0 38 18 77l147 315h176l-108 -237q48 -18 77 -59.5t29 -95.5zM471 1166q0 -71 -48 -118.5t-121 -47.5t-121.5 47.5t-48.5 118.5q0 38 18 77l147 315h176l-108 -237q48 -18 77 -59.5t29 -95.5z" />
    <glyph glyph-name="quotedblright" unicode="&#x201d;" horiz-adv-x="994" 
d="M523 1392q0 71 48 118.5t121 47.5t121.5 -47.5t48.5 -118.5q0 -38 -18 -77l-147 -315h-176l108 237q-48 18 -77 59.5t-29 95.5zM132 1392q0 71 48 118.5t121 47.5t121.5 -47.5t48.5 -118.5q0 -38 -18 -77l-147 -315h-176l108 237q-48 18 -77 59.5t-29 95.5z" />
    <glyph glyph-name="quotedblbase" unicode="&#x201e;" horiz-adv-x="994" 
d="M132 142q0 71 48 118.5t121 47.5t121.5 -47.5t48.5 -118.5q0 -38 -18 -77l-147 -315h-176l108 237q-48 18 -77 59.5t-29 95.5zM523 142q0 71 48 118.5t121 47.5t121.5 -47.5t48.5 -118.5q0 -38 -18 -77l-147 -315h-176l108 237q-48 18 -77 59.5t-29 95.5z" />
    <glyph glyph-name="uni201F" unicode="&#x201f;" horiz-adv-x="994" 
d="M471 1392q0 -54 -29 -95.5t-77 -59.5l108 -237h-176l-147 315q-18 39 -18 77q0 71 48.5 118.5t121.5 47.5t121 -47.5t48 -118.5zM862 1392q0 -54 -29 -95.5t-77 -59.5l108 -237h-176l-147 315q-18 39 -18 77q0 71 48.5 118.5t121.5 47.5t121 -47.5t48 -118.5z" />
    <glyph glyph-name="dagger" unicode="&#x2020;" horiz-adv-x="1125" 
d="M422 -262v1187h-306v241h306v330h281v-330h306v-241h-306v-1187h-281z" />
    <glyph glyph-name="daggerdbl" unicode="&#x2021;" horiz-adv-x="1125" 
d="M116 68v240h306v617h-306v241h306v330h281v-330h306v-241h-306v-617h306v-240h-306v-330h-281v330h-306z" />
    <glyph glyph-name="bullet" unicode="&#x2022;" horiz-adv-x="800" 
d="M121 664q0 115 81.5 196t197.5 81q115 0 197 -81t82 -196t-82 -196t-197 -81q-116 0 -197.5 81t-81.5 196z" />
    <glyph glyph-name="onedotenleader" unicode="&#x2024;" horiz-adv-x="603" 
d="M132 142q0 71 48 118.5t121 47.5t121.5 -47.5t48.5 -118.5t-48.5 -118.5t-121.5 -47.5t-121 47.5t-48 118.5z" />
    <glyph glyph-name="twodotenleader" unicode="&#x2025;" horiz-adv-x="1206" 
d="M132 142q0 71 48 118.5t121 47.5t121.5 -47.5t48.5 -118.5t-48.5 -118.5t-121.5 -47.5t-121 47.5t-48 118.5zM735 142q0 71 48 118.5t121 47.5t121.5 -47.5t48.5 -118.5t-48.5 -118.5t-121.5 -47.5t-121 47.5t-48 118.5z" />
    <glyph glyph-name="ellipsis" unicode="&#x2026;" horiz-adv-x="1809" 
d="M132 142q0 71 48 118.5t121 47.5t121.5 -47.5t48.5 -118.5t-48.5 -118.5t-121.5 -47.5t-121 47.5t-48 118.5zM1338 142q0 71 48 118.5t121 47.5t121.5 -47.5t48.5 -118.5t-48.5 -118.5t-121.5 -47.5t-121 47.5t-48 118.5zM735 142q0 71 48 118.5t121 47.5t121.5 -47.5
t48.5 -118.5t-48.5 -118.5t-121.5 -47.5t-121 47.5t-48 118.5z" />
    <glyph glyph-name="perthousand" unicode="&#x2030;" horiz-adv-x="2595" 
d="M413 0l720 1400h247l-720 -1400h-247zM324 1055q0 -60 36.5 -101.5t92.5 -41.5t92.5 41.5t36.5 101.5q0 61 -36.5 102.5t-92.5 41.5t-92.5 -41.5t-36.5 -102.5zM84 1055q0 152 106.5 255.5t262.5 103.5t262.5 -103.5t106.5 -255.5q0 -151 -106.5 -254.5t-262.5 -103.5
t-262.5 103.5t-106.5 254.5zM1211 344q0 -60 36.5 -101.5t92.5 -41.5t92.5 41.5t36.5 101.5q0 61 -36.5 102.5t-92.5 41.5t-92.5 -41.5t-36.5 -102.5zM971 344q0 152 106.5 255.5t262.5 103.5t262.5 -103.5t106.5 -255.5q0 -151 -106.5 -254.5t-262.5 -103.5t-262.5 103.5
t-106.5 254.5zM2013 344q0 -60 36.5 -101.5t92.5 -41.5t92.5 41.5t36.5 101.5q0 61 -36.5 102.5t-92.5 41.5t-92.5 -41.5t-36.5 -102.5zM1773 344q0 152 106.5 255.5t262.5 103.5t262.5 -103.5t106.5 -255.5q0 -151 -106.5 -254.5t-262.5 -103.5t-262.5 103.5t-106.5 254.5z
" />
    <glyph glyph-name="minute" unicode="&#x2032;" horiz-adv-x="593" 
d="M75 1028l179 372h284l-212 -372h-251z" />
    <glyph glyph-name="second" unicode="&#x2033;" horiz-adv-x="975" 
d="M75 1028l179 372h284l-212 -372h-251zM457 1028l179 372h284l-212 -372h-251z" />
    <glyph glyph-name="guilsinglleft" unicode="&#x2039;" horiz-adv-x="783" 
d="M94 555v136l576 354v-235l-318 -187l318 -187v-235z" />
    <glyph glyph-name="guilsinglright" unicode="&#x203a;" horiz-adv-x="783" 
d="M689 691v-136l-576 -354v235l318 187l-318 187v235z" />
    <glyph glyph-name="exclamdbl" unicode="&#x203c;" horiz-adv-x="1096" 
d="M171 419v981h284v-981h-284zM140 142q0 71 50 118.5t123 47.5t123 -47.5t50 -118.5t-50 -118.5t-123 -47.5t-123 47.5t-50 118.5zM641 419v981h284v-981h-284zM610 142q0 71 50 118.5t123 47.5t123 -47.5t50 -118.5t-50 -118.5t-123 -47.5t-123 47.5t-50 118.5z" />
    <glyph glyph-name="uni203E" unicode="&#x203e;" horiz-adv-x="850" 
d="M115 1185v206h620v-206h-620z" />
    <glyph glyph-name="fraction" unicode="&#x2044;" horiz-adv-x="331" 
d="M-287 0l682 1400h223l-682 -1400h-223z" />
    <glyph glyph-name="zerosuperior" unicode="&#x2070;" 
d="M53 926q0 220 91 359t259 139t259 -139t91 -359t-91 -359t-259 -139t-259 139t-91 359zM278 926q0 -141 31 -221.5t94 -80.5t94 80.5t31 221.5t-31 221.5t-94 80.5t-94 -80.5t-31 -221.5z" />
    <glyph glyph-name="uni2071" unicode="&#x2071;" 
d="M293 452v670h218v-670h-218zM274 1288q0 51 37 86.5t91 35.5t91 -35.5t37 -86.5q0 -50 -37 -84.5t-91 -34.5t-91 34.5t-37 84.5z" />
    <glyph glyph-name="foursuperior" unicode="&#x2074;" 
d="M33 619v172l411 609h211v-592h98v-189h-98v-167h-222v167h-400zM256 806h177v269z" />
    <glyph glyph-name="fivesuperior" unicode="&#x2075;" 
d="M379 428q-105 0 -190.5 44.5t-139.5 127.5l154 131q76 -114 166 -114q58 0 98 40.5t40 99.5t-39 99t-98 40q-30 0 -58 -15.5t-45 -39.5l-168 21l61 538h542v-189h-335l-19 -148q33 7 63 7q135 0 230 -86.5t95 -226.5q0 -145 -97.5 -237t-259.5 -92z" />
    <glyph glyph-name="sixsuperior" unicode="&#x2076;" 
d="M644 1400l-210 -324q132 -5 229 -93t97 -227q0 -141 -105.5 -234.5t-249.5 -93.5q-148 0 -254 93t-106 235q0 96 49 171l309 473h241zM537 757q0 59 -39.5 99.5t-95.5 40.5t-95 -40.5t-39 -99.5q0 -60 39 -100.5t95 -40.5q57 0 96 40.5t39 100.5z" />
    <glyph glyph-name="sevensuperior" unicode="&#x2077;" 
d="M88 1400h634v-166l-323 -782h-250l319 757h-380v191z" />
    <glyph glyph-name="eightsuperior" unicode="&#x2078;" 
d="M275 743q0 -56 37 -94t91 -38t91 38t37 94q0 55 -37 93t-91 38t-91 -38t-37 -93zM709 1152q0 -54 -26 -102t-70 -79q65 -35 103 -98t38 -135q0 -132 -101 -221t-250 -89t-250 89t-101 221q0 72 38 135t103 98q-44 31 -70 79t-26 102q0 114 87 193t219 79t219 -79t87 -193
zM311 1149q0 -40 26.5 -68t65.5 -28t65.5 28t26.5 68q0 39 -26 65.5t-66 26.5t-66 -26.5t-26 -65.5z" />
    <glyph glyph-name="ninesuperior" unicode="&#x2079;" 
d="M162 452l210 324q-132 5 -229 93t-97 227q0 141 105.5 234.5t249.5 93.5q148 0 254 -93t106 -235q0 -96 -49 -171l-309 -473h-241zM269 1095q0 -59 39.5 -99.5t95.5 -40.5t95 40.5t39 99.5q0 60 -39 100.5t-95 40.5q-57 0 -96 -40.5t-39 -100.5z" />
    <glyph glyph-name="uni207A" unicode="&#x207a;" 
d="M515 828v-221h-223v221h-220v195h220v221h223v-221h219v-195h-219z" />
    <glyph glyph-name="uni207B" unicode="&#x207b;" 
d="M734 828h-662v195h662v-195z" />
    <glyph glyph-name="uni207C" unicode="&#x207c;" 
d="M734 668h-662v193h662v-193zM734 990h-662v193h662v-193z" />
    <glyph glyph-name="uni207D" unicode="&#x207d;" 
d="M274 925q0 166 63 320.5t177 274.5l157 -106q-171 -211 -171 -489t171 -489l-157 -106q-114 120 -177 274.5t-63 320.5z" />
    <glyph glyph-name="uni207E" unicode="&#x207e;" 
d="M532 925q0 -166 -63 -320.5t-177 -274.5l-157 106q171 211 171 489t-171 489l157 106q114 -120 177 -274.5t63 -320.5z" />
    <glyph glyph-name="uni207F" unicode="&#x207f;" 
d="M311 879v-427h-218v670h218v-43q57 57 139 57q118 0 192.5 -77t74.5 -200v-407h-218v392q0 46 -25.5 74.5t-65.5 28.5q-65 0 -97 -68z" />
    <glyph glyph-name="zeroinferior" unicode="&#x2080;" 
d="M53 212q0 220 91 359t259 139t259 -139t91 -359t-91 -359t-259 -139t-259 139t-91 359zM278 212q0 -141 31 -221.5t94 -80.5t94 80.5t31 221.5t-31 221.5t-94 80.5t-94 -80.5t-31 -221.5z" />
    <glyph glyph-name="oneinferior" unicode="&#x2081;" 
d="M375 686h195v-948h-230v725l-141 -77l-85 161z" />
    <glyph glyph-name="twoinferior" unicode="&#x2082;" 
d="M583 137l-195 -210h319v-189h-616v169l315 342q45 49 64 86.5t19 78.5q0 47 -28 76t-73 29q-42 0 -71 -27.5t-51 -90.5l-197 70q29 113 113.5 176t207.5 63q142 0 234.5 -78.5t92.5 -207.5q0 -78 -32 -144t-102 -143z" />
    <glyph glyph-name="threeinferior" unicode="&#x2083;" 
d="M499 43q0 58 -39 98.5t-97 40.5q-28 0 -53 -11l-87 107l188 219h-310v189h582v-175l-172 -194q101 -29 159.5 -109.5t58.5 -185.5q0 -123 -100.5 -215.5t-256.5 -92.5q-103 0 -188.5 46t-136.5 128l146 132q82 -118 170 -118q58 0 97 40.5t39 100.5z" />
    <glyph glyph-name="fourinferior" unicode="&#x2084;" 
d="M33 -95v172l411 609h211v-592h98v-189h-98v-167h-222v167h-400zM256 92h177v269z" />
    <glyph glyph-name="fiveinferior" unicode="&#x2085;" 
d="M379 -286q-105 0 -190.5 44.5t-139.5 127.5l154 131q76 -114 166 -114q58 0 98 40.5t40 99.5t-39 99t-98 40q-30 0 -58 -15.5t-45 -39.5l-168 21l61 538h542v-189h-335l-19 -148q33 7 63 7q135 0 230 -86.5t95 -226.5q0 -145 -97.5 -237t-259.5 -92z" />
    <glyph glyph-name="sixinferior" unicode="&#x2086;" 
d="M644 686l-210 -324q132 -5 229 -93t97 -227q0 -141 -105.5 -234.5t-249.5 -93.5q-148 0 -254 93t-106 235q0 96 49 171l309 473h241zM537 43q0 59 -39.5 99.5t-95.5 40.5t-95 -40.5t-39 -99.5q0 -60 39 -100.5t95 -40.5q57 0 96 40.5t39 100.5z" />
    <glyph glyph-name="seveninferior" unicode="&#x2087;" 
d="M88 686h634v-166l-323 -782h-250l319 757h-380v191z" />
    <glyph glyph-name="eightinferior" unicode="&#x2088;" 
d="M275 29q0 -56 37 -94t91 -38t91 38t37 94q0 55 -37 93t-91 38t-91 -38t-37 -93zM709 438q0 -54 -26 -102t-70 -79q65 -35 103 -98t38 -135q0 -132 -101 -221t-250 -89t-250 89t-101 221q0 72 38 135t103 98q-44 31 -70 79t-26 102q0 114 87 193t219 79t219 -79t87 -193z
M311 435q0 -40 26.5 -68t65.5 -28t65.5 28t26.5 68q0 39 -26 65.5t-66 26.5t-66 -26.5t-26 -65.5z" />
    <glyph glyph-name="nineinferior" unicode="&#x2089;" 
d="M162 -262l210 324q-132 5 -229 93t-97 227q0 141 105.5 234.5t249.5 93.5q148 0 254 -93t106 -235q0 -96 -49 -171l-309 -473h-241zM269 381q0 -59 39.5 -99.5t95.5 -40.5t95 40.5t39 99.5q0 60 -39 100.5t-95 40.5q-57 0 -96 -40.5t-39 -100.5z" />
    <glyph glyph-name="uni208A" unicode="&#x208a;" 
d="M515 114v-221h-223v221h-220v195h220v221h223v-221h219v-195h-219z" />
    <glyph glyph-name="uni208B" unicode="&#x208b;" 
d="M734 114h-662v195h662v-195z" />
    <glyph glyph-name="uni208C" unicode="&#x208c;" 
d="M734 -46h-662v193h662v-193zM734 276h-662v193h662v-193z" />
    <glyph glyph-name="uni208D" unicode="&#x208d;" 
d="M274 211q0 166 63 320.5t177 274.5l157 -106q-171 -211 -171 -489t171 -489l-157 -106q-114 120 -177 274.5t-63 320.5z" />
    <glyph glyph-name="uni208E" unicode="&#x208e;" 
d="M532 211q0 -166 -63 -320.5t-177 -274.5l-157 106q171 211 171 489t-171 489l157 106q114 -120 177 -274.5t63 -320.5z" />
    <glyph glyph-name="uni2090" unicode="&#x2090;" 
d="M518 -18v164q-17 37 -50 58.5t-75 21.5q-61 0 -101.5 -46t-40.5 -116t40.5 -116t101.5 -46q42 0 75 21.5t50 58.5zM518 -272v50q-64 -64 -160 -64q-138 0 -230.5 100.5t-92.5 249.5q0 148 92.5 249t230.5 101q96 0 160 -64v50h217v-672h-217z" />
    <glyph glyph-name="uni2091" unicode="&#x2091;" 
d="M272 -2q15 -52 54.5 -83t92.5 -31q45 0 91 24t82 63l125 -125q-117 -132 -299 -132q-161 0 -262.5 101t-101.5 249t102.5 249t253.5 101q148 0 245.5 -98t97.5 -241q0 -40 -8 -77h-473zM408 243q-45 0 -79.5 -24.5t-51.5 -67.5h255q-14 43 -46.5 67.5t-77.5 24.5z" />
    <glyph glyph-name="uni2092" unicode="&#x2092;" 
d="M43 64q0 148 103 249t257 101t257 -101t103 -249t-103 -249t-257 -101t-257 101t-103 249zM259 64q0 -68 41.5 -115t102.5 -47t102.5 47t41.5 115t-41.5 115t-102.5 47t-102.5 -47t-41.5 -115z" />
    <glyph glyph-name="uni2093" unicode="&#x2093;" 
d="M310 400l91 -168l92 168h240l-200 -327l215 -345h-237l-109 190l-107 -190h-240l216 346l-200 326h239z" />
    <glyph glyph-name="uni2094" unicode="&#x2094;" 
d="M534 130q-15 52 -54.5 83t-92.5 31q-45 0 -91 -24t-82 -63l-125 125q117 132 299 132q161 0 262.5 -101t101.5 -249t-102.5 -249t-253.5 -101q-148 0 -245.5 98t-97.5 241q0 40 8 77h473zM398 -115q45 0 79.5 24.5t51.5 67.5h-255q14 -43 46.5 -67.5t77.5 -24.5z" />
    <glyph glyph-name="uni20A0" unicode="&#x20a0;" horiz-adv-x="1581" 
d="M589 422q-222 0 -373 144.5t-151 355.5q0 212 151 357t373 145q190 0 357 -131l-125 -189q-65 47 -119 71.5t-111 24.5q-111 0 -188 -80t-77 -198q0 -117 77 -197t188 -80q116 0 215 72v253h638v-212h-386v-166h354v-208h-354v-172h398v-212h-650v471q-103 -49 -217 -49z
" />
    <glyph glyph-name="colonmonetary" unicode="&#x20a1;" horiz-adv-x="1390" 
d="M975 1604h160l-40 -225q112 -41 213 -117l-138 -203q-69 48 -119 71l-160 -908q155 19 289 130l145 -202q-201 -167 -478 -173l-32 -181h-159l33 192q-65 11 -97 22l-37 -214h-160l49 277q-169 94 -268 260t-99 367q0 268 169 465t434 245l35 194h160l-32 -181
q41 0 99 -7zM356 700q0 -207 139 -344l138 784q-125 -56 -201 -174t-76 -266zM800 1182l-163 -926q48 -22 94 -30l169 952q-38 5 -72 5q-20 0 -28 -1z" />
    <glyph glyph-name="uni20A2" unicode="&#x20a2;" horiz-adv-x="1390" 
d="M1180 352l145 -202q-210 -174 -497 -174q-209 0 -381.5 95.5t-271 261.5t-98.5 367t98.5 367t271 261.5t381.5 95.5q271 0 480 -162l-138 -203q-173 124 -342 124q-198 0 -335 -139.5t-137 -343.5q0 -158 85 -280.5t223 -172.5v588h238v-79q68 93 162 93q52 0 97 -24
l-20 -196q-51 24 -90 24q-43 0 -83 -27.5t-66 -75.5v-326q153 23 278 128z" />
    <glyph glyph-name="franc" unicode="&#x20a3;" horiz-adv-x="1113" 
d="M812 447h-310v-447h-284v447h-176v144h176v86h-176v145h176v578h852v-244h-568v-334h310v-145h-310v-86h310v-144z" />
    <glyph glyph-name="lira" unicode="&#x20a4;" horiz-adv-x="1165" 
d="M294 449h-216v140h218q-6 44 -18 84h-200v140h143q-42 109 -42 209q0 169 128 285.5t316 116.5q147 0 257.5 -72t156.5 -182l-238 -127q-53 133 -176 133q-69 0 -114 -46t-45 -116q0 -73 53 -201h323v-140h-274q12 -49 16 -84h258v-140h-262q-17 -123 -115 -206h600v-243
h-924v234q129 75 155 215z" />
    <glyph glyph-name="uni20A6" unicode="&#x20a6;" horiz-adv-x="1472" 
d="M182 0v520h-140v137h140v86h-140v138h140v519h281l294 -519h276v519h257v-519h140v-138h-140v-86h140v-137h-140v-520h-281l-295 520h-275v-520h-257zM835 743l48 -86h150v86h-198zM439 743v-86h198l-49 86h-149zM961 520l72 -127v127h-72zM439 1007v-126h71z" />
    <glyph glyph-name="peseta" unicode="&#x20a7;" horiz-adv-x="2402" 
d="M1529 220h429q57 0 89.5 25.5t32.5 71.5q0 45 -34.5 73.5t-112.5 47.5q-149 37 -227 119.5t-78 206.5q0 129 94 212.5t246 83.5q95 0 181.5 -39t150.5 -104l-122 -180q-110 102 -187 102q-46 0 -75 -21t-29 -58q0 -87 135 -118q317 -73 317 -328q0 -136 -99 -225
t-263 -89h-492q-173 0 -260 86t-87 264v452h-140q-36 -146 -147 -230t-274 -84h-153v-488h-271v1400h424q176 0 291 -98.5t142 -265.5h128v275l263 26v-301h205v-234h-205v-442q0 -140 128 -140zM746 944q0 102 -49.5 162t-138.5 60h-134v-444h134q90 0 139 59.5t49 162.5z
" />
    <glyph glyph-name="uni20A8" unicode="&#x20a8;" horiz-adv-x="1949" 
d="M153 1400h471q212 0 339.5 -123.5t127.5 -327.5q0 -156 -76.5 -266t-213.5 -154l319 -529h-303l-294 495h-91v-495h-279v1400zM1114 148l130 171q48 -56 112.5 -89.5t133.5 -33.5q65 0 104 28.5t39 74.5t-39 76.5t-128 50.5q-155 35 -235.5 119.5t-80.5 212.5
q0 132 97 217t254 85q97 0 186.5 -38.5t159.5 -103.5l-125 -172q-111 94 -199 94q-54 0 -87.5 -23.5t-33.5 -62.5q0 -90 154 -124q330 -72 330 -334q0 -140 -102.5 -230t-273.5 -90q-121 0 -225.5 45.5t-170.5 126.5zM604 1166h-172v-441h172q98 0 152 60t54 160
q0 102 -54 161.5t-152 59.5z" />
    <glyph glyph-name="uni20A9" unicode="&#x20a9;" horiz-adv-x="2012" 
d="M862 1400h288l135 -519h254l126 519h294l-142 -519h159v-138h-197l-25 -90h223v-138h-260l-141 -515h-293l-137 515h-280l-137 -515h-293l-141 515h-260v138h222l-24 90h-198v138h160l-142 519h294l126 -519h254zM926 743l-24 -90h207l-24 90h-159zM506 743l22 -90h140
l23 90h-185zM1321 743l23 -90h139l22 90h-184zM1006 1043l-43 -162h86zM562 515l34 -139l36 139h-70zM1380 515l36 -139l34 139h-70z" />
    <glyph glyph-name="afii57636" unicode="&#x20aa;" horiz-adv-x="1758" 
d="M153 0v1400h548q141 0 257.5 -62t183 -169t66.5 -237v-408h-261v390q0 109 -70.5 180.5t-180.5 71.5h-282v-1166h-261zM1605 1400v-1400h-547q-216 0 -362 135t-146 333v408h261v-391q0 -109 71 -180t181 -71h281v1166h261z" />
    <glyph glyph-name="dong" unicode="&#x20ab;" horiz-adv-x="1339" 
d="M612 1152v167h298v141h272v-141h137v-167h-137v-1152h-272v104q-131 -128 -328 -128q-146 0 -265 73.5t-185.5 197.5t-66.5 271t66.5 271t185.5 197.5t265 73.5q197 0 328 -128v220h-298zM640 219q89 0 161.5 45t108.5 120v268q-36 75 -108.5 120t-161.5 45
q-127 0 -213 -86t-86 -213t86 -213t213 -86zM355 -360v206h732v-206h-732z" />
    <glyph glyph-name="Euro" unicode="&#x20ac;" horiz-adv-x="1453" 
d="M992 494h-529q56 -127 171 -202.5t257 -75.5q95 0 187 37.5t165 98.5l145 -202q-210 -174 -497 -174q-260 0 -457 143.5t-265 374.5h-149v149h122q-2 30 -2 57q0 25 2 57h-122v149h149q68 230 265 374t457 144q271 0 480 -162l-138 -203q-173 124 -342 124
q-142 0 -257 -75.5t-171 -201.5h529v-149h-570q-3 -29 -3 -57q0 -30 3 -57h570v-149z" />
    <glyph glyph-name="afii61248" unicode="&#x2105;" horiz-adv-x="2107" 
d="M524 576q-192 0 -322.5 123t-130.5 301t130.5 301t322.5 123q181 0 318 -113l-126 -186q-105 87 -192 87q-88 0 -148 -61.5t-60 -150.5t60 -150.5t148 -61.5q97 0 193 88l139 -171q-140 -129 -332 -129zM1582 187q88 0 148.5 61.5t60.5 150.5t-60.5 150.5t-148.5 61.5
t-148.5 -61.5t-60.5 -150.5t60.5 -150.5t148.5 -61.5zM1582 823q193 0 323.5 -123t130.5 -301t-130.5 -300.5t-323.5 -122.5t-323.5 122.5t-130.5 300.5t130.5 301t323.5 123zM797 0h-234l683 1400h234z" />
    <glyph glyph-name="uni2109" unicode="&#x2109;" horiz-adv-x="1636" 
d="M711 0v1400h852v-244h-568v-345h520v-244h-520v-567h-284zM40 1147q0 117 83.5 197t206.5 80t206.5 -80t83.5 -197t-83.5 -197t-206.5 -80t-206.5 80t-83.5 197zM226 1147q0 -45 29.5 -74.5t74.5 -29.5t74.5 29.5t29.5 74.5t-29.5 74.5t-74.5 29.5t-74.5 -29.5
t-29.5 -74.5z" />
    <glyph glyph-name="afii61289" unicode="&#x2113;" horiz-adv-x="1139" 
d="M136 241l-74 219q97 36 218 86v522q0 151 112.5 253.5t277.5 102.5t278 -102.5t113 -253.5v-51q0 -338 -513 -603v-70q0 -58 34 -94t87 -36q57 0 105.5 34t76.5 97l213 -126q-51 -111 -155.5 -177t-236.5 -66q-157 0 -267 90t-122 229q-52 -21 -147 -54zM548 1052v-369
q125 78 184.5 161.5t59.5 184.5v22q0 61 -34.5 101t-87.5 40t-87.5 -39t-34.5 -101z" />
    <glyph glyph-name="afii61352" unicode="&#x2116;" horiz-adv-x="2220" 
d="M153 0v1400h256l467 -892v892h262v-1400h-256l-467 892v-892h-262zM2080 319h-790v221h790v-221zM1521 1039q0 -70 47 -117t117 -47t117 47t47 117t-47 117t-117 47t-117 -47t-47 -117zM1270 1039q0 161 120 273t295 112t295 -112t120 -273t-120 -273t-295 -112t-295 112
t-120 273z" />
    <glyph glyph-name="uni2117" unicode="&#x2117;" horiz-adv-x="1608" 
d="M864 564h-119v-250h-195v770h314q123 0 205 -74t82 -186t-82 -186t-205 -74zM955 824q0 39 -29 64.5t-74 25.5h-107v-180h107q45 0 74 25.5t29 64.5zM80 700q0 149 56.5 283t153.5 231t231 153.5t283 56.5t283 -56.5t231 -153.5t153.5 -231t56.5 -283t-56.5 -283
t-153.5 -231t-231 -153.5t-283 -56.5t-283 56.5t-231 153.5t-153.5 231t-56.5 283zM212 700q0 -165 78.5 -303t214.5 -217.5t299 -79.5t299 79.5t214.5 217.5t78.5 303t-78.5 303t-214.5 217.5t-299 79.5t-299 -79.5t-214.5 -217.5t-78.5 -303z" />
    <glyph glyph-name="uni2120" unicode="&#x2120;" horiz-adv-x="1588" 
d="M63 784l116 127q46 -49 94 -79t85 -30q40 0 66.5 20t26.5 52q0 67 -121 92q-123 25 -184 83.5t-61 144.5q0 97 73.5 157.5t191.5 60.5q161 0 269 -113l-108 -131q-98 89 -157 89q-31 0 -51.5 -15.5t-20.5 -39.5q0 -61 113 -87q134 -31 193.5 -90t59.5 -151
q0 -101 -77.5 -163.5t-210.5 -62.5q-83 0 -162 36t-135 100zM1151 870h-122l-132 210v-420h-191v740h176l208 -324l208 324h176v-740h-191v420z" />
    <glyph glyph-name="uni2121" unicode="&#x2121;" horiz-adv-x="2227" 
d="M1064 436q13 -108 73.5 -174.5t144.5 -66.5q115 0 226 142l166 -162q-141 -199 -390 -199q-142 0 -254 72t-172.5 195.5t-60.5 274.5q0 150 61 274t170 196t242 72q131 0 236 -70.5t163 -190t58 -263.5q0 -54 -11 -100h-652zM394 0v1155h-339v245h950v-245h-339v-1155
h-272zM1812 0v1460h262v-1460h-262zM1268 841q-71 0 -125 -57.5t-73 -151.5h386q-16 94 -66.5 151.5t-121.5 57.5z" />
    <glyph glyph-name="trademark" unicode="&#x2122;" horiz-adv-x="1563" 
d="M236 660v577h-182v163h565v-163h-182v-577h-201zM1126 870h-122l-132 210v-420h-191v740h176l208 -324l208 324h176v-740h-191v420z" />
    <glyph glyph-name="Omega" unicode="&#x2126;" horiz-adv-x="1612" 
d="M1239 733q0 186 -125.5 314.5t-307.5 128.5t-307.5 -128.5t-125.5 -314.5q0 -158 89 -290.5t243 -207.5v-235h-600v248h277q-144 94 -220 224.5t-76 288.5q0 182 95 334.5t260.5 240.5t364.5 88t364.5 -88t260.5 -240.5t95 -334.5q0 -158 -76 -288.5t-220 -224.5h277
v-248h-600v235q154 75 243 207.5t89 290.5z" />
    <glyph glyph-name="estimated" unicode="&#x212e;" horiz-adv-x="1608" 
d="M1528 628h-1128v-337q78 -80 182 -125t222 -45q142 0 264.5 65t201.5 181l126 -87q-102 -144 -258 -224t-334 -80q-149 0 -283 56.5t-231 153.5t-153.5 231t-56.5 283t56.5 283t153.5 231t231 153.5t283 56.5t283 -56.5t231 -153.5t153.5 -231t56.5 -283v-72zM804 1278
q-118 0 -222 -45t-182 -125v-337h808v337q-167 170 -404 170z" />
    <glyph glyph-name="onethird" unicode="&#x2153;" horiz-adv-x="1940" 
d="M518 0l682 1400h223l-682 -1400h-223zM375 1400h195v-948h-230v725l-141 -77l-85 161zM1634 305q0 58 -39 98.5t-97 40.5q-28 0 -53 -11l-87 107l188 219h-310v189h582v-175l-172 -194q101 -29 159.5 -109.5t58.5 -185.5q0 -123 -100.5 -215.5t-256.5 -92.5
q-103 0 -188.5 46t-136.5 128l146 132q82 -118 170 -118q58 0 97 40.5t39 100.5z" />
    <glyph glyph-name="twothirds" unicode="&#x2154;" horiz-adv-x="1940" 
d="M583 851l-195 -210h319v-189h-616v169l315 342q45 49 64 86.5t19 78.5q0 47 -28 76t-73 29q-42 0 -71 -27.5t-51 -90.5l-197 70q29 113 113.5 176t207.5 63q142 0 234.5 -78.5t92.5 -207.5q0 -78 -32 -144t-102 -143zM518 0l682 1400h223l-682 -1400h-223zM1634 305
q0 58 -39 98.5t-97 40.5q-28 0 -53 -11l-87 107l188 219h-310v189h582v-175l-172 -194q101 -29 159.5 -109.5t58.5 -185.5q0 -123 -100.5 -215.5t-256.5 -92.5q-103 0 -188.5 46t-136.5 128l146 132q82 -118 170 -118q58 0 97 40.5t39 100.5z" />
    <glyph glyph-name="onefifth" unicode="&#x2155;" horiz-adv-x="1940" 
d="M375 1400h195v-948h-230v725l-141 -77l-85 161zM518 0l682 1400h223l-682 -1400h-223zM1514 -26q-105 0 -190.5 44.5t-139.5 127.5l154 131q76 -114 166 -114q58 0 98 40.5t40 99.5t-39 99t-98 40q-30 0 -58 -15.5t-45 -39.5l-168 21l61 538h542v-189h-335l-19 -148
q33 7 63 7q135 0 230 -86.5t95 -226.5q0 -145 -97.5 -237t-259.5 -92z" />
    <glyph glyph-name="twofifths" unicode="&#x2156;" horiz-adv-x="1940" 
d="M583 851l-195 -210h319v-189h-616v169l315 342q45 49 64 86.5t19 78.5q0 47 -28 76t-73 29q-42 0 -71 -27.5t-51 -90.5l-197 70q29 113 113.5 176t207.5 63q142 0 234.5 -78.5t92.5 -207.5q0 -78 -32 -144t-102 -143zM518 0l682 1400h223l-682 -1400h-223zM1514 -26
q-105 0 -190.5 44.5t-139.5 127.5l154 131q76 -114 166 -114q58 0 98 40.5t40 99.5t-39 99t-98 40q-30 0 -58 -15.5t-45 -39.5l-168 21l61 538h542v-189h-335l-19 -148q33 7 63 7q135 0 230 -86.5t95 -226.5q0 -145 -97.5 -237t-259.5 -92z" />
    <glyph glyph-name="threefifths" unicode="&#x2157;" horiz-adv-x="1940" 
d="M499 757q0 58 -39 98.5t-97 40.5q-28 0 -53 -11l-87 107l188 219h-310v189h582v-175l-172 -194q101 -29 159.5 -109.5t58.5 -185.5q0 -123 -100.5 -215.5t-256.5 -92.5q-103 0 -188.5 46t-136.5 128l146 132q82 -118 170 -118q58 0 97 40.5t39 100.5zM518 0l682 1400h223
l-682 -1400h-223zM1514 -26q-105 0 -190.5 44.5t-139.5 127.5l154 131q76 -114 166 -114q58 0 98 40.5t40 99.5t-39 99t-98 40q-30 0 -58 -15.5t-45 -39.5l-168 21l61 538h542v-189h-335l-19 -148q33 7 63 7q135 0 230 -86.5t95 -226.5q0 -145 -97.5 -237t-259.5 -92z" />
    <glyph glyph-name="fourfifths" unicode="&#x2158;" horiz-adv-x="1940" 
d="M33 619v172l411 609h211v-592h98v-189h-98v-167h-222v167h-400zM256 806h177v269zM518 0l682 1400h223l-682 -1400h-223zM1514 -26q-105 0 -190.5 44.5t-139.5 127.5l154 131q76 -114 166 -114q58 0 98 40.5t40 99.5t-39 99t-98 40q-30 0 -58 -15.5t-45 -39.5l-168 21
l61 538h542v-189h-335l-19 -148q33 7 63 7q135 0 230 -86.5t95 -226.5q0 -145 -97.5 -237t-259.5 -92z" />
    <glyph glyph-name="onesixth" unicode="&#x2159;" horiz-adv-x="1940" 
d="M375 1400h195v-948h-230v725l-141 -77l-85 161zM518 0l682 1400h223l-682 -1400h-223zM1779 948l-210 -324q132 -5 229 -93t97 -227q0 -141 -105.5 -234.5t-249.5 -93.5q-148 0 -254 93t-106 235q0 96 49 171l309 473h241zM1672 305q0 59 -39.5 99.5t-95.5 40.5
t-95 -40.5t-39 -99.5q0 -60 39 -100.5t95 -40.5q57 0 96 40.5t39 100.5z" />
    <glyph glyph-name="fivesixths" unicode="&#x215a;" horiz-adv-x="1940" 
d="M379 428q-105 0 -190.5 44.5t-139.5 127.5l154 131q76 -114 166 -114q58 0 98 40.5t40 99.5t-39 99t-98 40q-30 0 -58 -15.5t-45 -39.5l-168 21l61 538h542v-189h-335l-19 -148q33 7 63 7q135 0 230 -86.5t95 -226.5q0 -145 -97.5 -237t-259.5 -92zM518 0l682 1400h223
l-682 -1400h-223zM1779 948l-210 -324q132 -5 229 -93t97 -227q0 -141 -105.5 -234.5t-249.5 -93.5q-148 0 -254 93t-106 235q0 96 49 171l309 473h241zM1672 305q0 59 -39.5 99.5t-95.5 40.5t-95 -40.5t-39 -99.5q0 -60 39 -100.5t95 -40.5q57 0 96 40.5t39 100.5z" />
    <glyph glyph-name="oneeighth" unicode="&#x215b;" horiz-adv-x="1940" 
d="M375 1400h195v-948h-230v725l-141 -77l-85 161zM518 0l682 1400h223l-682 -1400h-223zM1410 289q0 -56 37 -94t91 -38t91 38t37 94q0 55 -37 93t-91 38t-91 -38t-37 -93zM1844 698q0 -54 -26 -102t-70 -79q65 -35 103 -98t38 -135q0 -132 -101 -221t-250 -89t-250 89
t-101 221q0 72 38 135t103 98q-44 31 -70 79t-26 102q0 114 87 193t219 79t219 -79t87 -193zM1446 695q0 -40 26.5 -68t65.5 -28t65.5 28t26.5 68q0 39 -26 65.5t-66 26.5t-66 -26.5t-26 -65.5z" />
    <glyph glyph-name="threeeighths" unicode="&#x215c;" horiz-adv-x="1940" 
d="M499 757q0 58 -39 98.5t-97 40.5q-28 0 -53 -11l-87 107l188 219h-310v189h582v-175l-172 -194q101 -29 159.5 -109.5t58.5 -185.5q0 -123 -100.5 -215.5t-256.5 -92.5q-103 0 -188.5 46t-136.5 128l146 132q82 -118 170 -118q58 0 97 40.5t39 100.5zM518 0l682 1400h223
l-682 -1400h-223zM1410 289q0 -56 37 -94t91 -38t91 38t37 94q0 55 -37 93t-91 38t-91 -38t-37 -93zM1844 698q0 -54 -26 -102t-70 -79q65 -35 103 -98t38 -135q0 -132 -101 -221t-250 -89t-250 89t-101 221q0 72 38 135t103 98q-44 31 -70 79t-26 102q0 114 87 193t219 79
t219 -79t87 -193zM1446 695q0 -40 26.5 -68t65.5 -28t65.5 28t26.5 68q0 39 -26 65.5t-66 26.5t-66 -26.5t-26 -65.5z" />
    <glyph glyph-name="fiveeighths" unicode="&#x215d;" horiz-adv-x="1940" 
d="M379 428q-105 0 -190.5 44.5t-139.5 127.5l154 131q76 -114 166 -114q58 0 98 40.5t40 99.5t-39 99t-98 40q-30 0 -58 -15.5t-45 -39.5l-168 21l61 538h542v-189h-335l-19 -148q33 7 63 7q135 0 230 -86.5t95 -226.5q0 -145 -97.5 -237t-259.5 -92zM518 0l682 1400h223
l-682 -1400h-223zM1410 289q0 -56 37 -94t91 -38t91 38t37 94q0 55 -37 93t-91 38t-91 -38t-37 -93zM1844 698q0 -54 -26 -102t-70 -79q65 -35 103 -98t38 -135q0 -132 -101 -221t-250 -89t-250 89t-101 221q0 72 38 135t103 98q-44 31 -70 79t-26 102q0 114 87 193t219 79
t219 -79t87 -193zM1446 695q0 -40 26.5 -68t65.5 -28t65.5 28t26.5 68q0 39 -26 65.5t-66 26.5t-66 -26.5t-26 -65.5z" />
    <glyph glyph-name="seveneighths" unicode="&#x215e;" horiz-adv-x="1940" 
d="M88 1400h634v-166l-323 -782h-250l319 757h-380v191zM518 0l682 1400h223l-682 -1400h-223zM1410 289q0 -56 37 -94t91 -38t91 38t37 94q0 55 -37 93t-91 38t-91 -38t-37 -93zM1844 698q0 -54 -26 -102t-70 -79q65 -35 103 -98t38 -135q0 -132 -101 -221t-250 -89
t-250 89t-101 221q0 72 38 135t103 98q-44 31 -70 79t-26 102q0 114 87 193t219 79t219 -79t87 -193zM1446 695q0 -40 26.5 -68t65.5 -28t65.5 28t26.5 68q0 39 -26 65.5t-66 26.5t-66 -26.5t-26 -65.5z" />
    <glyph glyph-name="uni215F" unicode="&#x215f;" horiz-adv-x="1940" 
d="M375 1400h195v-948h-230v725l-141 -77l-85 161zM518 0l682 1400h223l-682 -1400h-223z" />
    <glyph glyph-name="arrowleft" unicode="&#x2190;" horiz-adv-x="1720" 
d="M1648 788v-248h-1106v-232l-470 356l470 356v-232h1106z" />
    <glyph glyph-name="arrowup" unicode="&#x2191;" horiz-adv-x="1720" 
d="M984 -76h-248v1104h-232l356 472l356 -472h-232v-1104z" />
    <glyph glyph-name="arrowright" unicode="&#x2192;" horiz-adv-x="1720" 
d="M72 540v248h1104v232l472 -356l-472 -356v232h-1104z" />
    <glyph glyph-name="arrowdown" unicode="&#x2193;" horiz-adv-x="1720" 
d="M736 1500h248v-1106h232l-356 -470l-356 470h232v1106z" />
    <glyph glyph-name="arrowboth" unicode="&#x2194;" horiz-adv-x="1720" 
d="M542 1020v-232h636v232l470 -356l-470 -356v232h-636v-232l-470 356z" />
    <glyph glyph-name="arrowupdn" unicode="&#x2195;" horiz-adv-x="1720" 
d="M504 394h232v636h-232l356 470l356 -470h-232v-636h232l-356 -470z" />
    <glyph glyph-name="arrowupdnbse" unicode="&#x21a8;" horiz-adv-x="1720" 
d="M504 394h232v636h-232l356 470l356 -470h-232v-636h232l-336 -442h310v-148h-660v148h308z" />
    <glyph glyph-name="partialdiff" unicode="&#x2202;" horiz-adv-x="1238" 
d="M567 925q89 0 169.5 -36t134.5 -94q-15 190 -92 288t-210 98q-153 0 -277 -121l-110 214q153 150 389 150q183 0 316 -92.5t199.5 -255.5t66.5 -380q0 -171 -44 -309t-120.5 -227t-178.5 -136.5t-221 -47.5q-145 0 -265.5 63t-190 172t-69.5 239t70 240t185.5 172.5
t247.5 62.5zM589 219q108 0 182 79t95 251q-54 63 -126 98t-151 35q-105 0 -176 -66.5t-71 -165.5q0 -98 71 -164.5t176 -66.5z" />
    <glyph glyph-name="Delta" unicode="&#x2206;" horiz-adv-x="1382" 
d="M848 1400l501 -1400h-1316l501 1400h314zM691 1097l-286 -858h572z" />
    <glyph glyph-name="product" unicode="&#x220f;" horiz-adv-x="1362" 
d="M1209 1480v-1702h-284v1457h-488v-1457h-284v1702h1056z" />
    <glyph glyph-name="summation" unicode="&#x2211;" horiz-adv-x="1318" 
d="M113 36l492 604l-492 581v259h1092v-244h-763l437 -520v-152l-435 -542h761v-244h-1092v258z" />
    <glyph glyph-name="minus" unicode="&#x2212;" horiz-adv-x="1166" 
d="M1048 544h-930v239h930v-239z" />
    <glyph glyph-name="uni2215" unicode="&#x2215;" horiz-adv-x="331" 
d="M-287 0l682 1400h223l-682 -1400h-223z" />
    <glyph glyph-name="uni2219" unicode="&#x2219;" horiz-adv-x="603" 
d="M132 651q0 71 48 118.5t121 47.5t121.5 -47.5t48.5 -118.5t-48.5 -118.5t-121.5 -47.5t-121 47.5t-48 118.5z" />
    <glyph glyph-name="radical" unicode="&#x221a;" horiz-adv-x="1135" 
d="M664 0h-313l-321 750h294l164 -420l330 1210h287z" />
    <glyph glyph-name="infinity" unicode="&#x221e;" horiz-adv-x="1538" 
d="M299 664q0 -52 35.5 -84t89.5 -32q56 0 103 24t107 92q-60 68 -107 92t-103 24q-54 0 -89.5 -32t-35.5 -84zM769 530q-169 -176 -360 -176q-140 0 -236.5 88t-96.5 222t96.5 222t236.5 88q191 0 360 -176q169 176 360 176q140 0 236.5 -88t96.5 -222t-96.5 -222
t-236.5 -88q-191 0 -360 176zM1239 664q0 52 -35.5 84t-89.5 32q-56 0 -103 -24t-107 -92q60 -68 107 -92t103 -24q54 0 89.5 32t35.5 84z" />
    <glyph glyph-name="orthogonal" unicode="&#x221f;" horiz-adv-x="1233" 
d="M1198 245v-245h-1045v1150h284v-905h761z" />
    <glyph glyph-name="intersection" unicode="&#x2229;" horiz-adv-x="1294" 
d="M647 989q-98 0 -164 -76.5t-66 -191.5v-721h-284v738q0 208 149 352t365 144t365 -144t149 -352v-738h-284v721q0 115 -66 191.5t-164 76.5z" />
    <glyph glyph-name="integral" unicode="&#x222b;" horiz-adv-x="863" 
d="M569 1172v-1271q0 -365 -407 -365q-55 0 -119 10v219q45 -5 93 -5q84 0 121 35t37 109v1271q0 365 407 365q55 0 119 -10v-219q-45 5 -93 5q-84 0 -121 -35t-37 -109z" />
    <glyph glyph-name="approxequal" unicode="&#x2248;" horiz-adv-x="1166" 
d="M560 298l-53.5 46.5t-46 30t-49.5 15.5q-70 0 -95 -144l-259 57q26 162 104 249t203 87q138 0 242 -91l53.5 -46.5t46 -30t49.5 -15.5q70 0 95 144l259 -57q-26 -162 -104 -249t-203 -87q-138 0 -242 91zM560 762l-53.5 46.5t-46 30t-49.5 15.5q-70 0 -95 -144l-259 57
q26 162 104 249t203 87q138 0 242 -91l53.5 -46.5t46 -30t49.5 -15.5q70 0 95 144l259 -57q-26 -162 -104 -249t-203 -87q-138 0 -242 91z" />
    <glyph glyph-name="notequal" unicode="&#x2260;" horiz-adv-x="1166" 
d="M1048 317h-539l-129 -248h-200l129 248h-191v235h313l116 223h-429v235h551l117 225h200l-117 -225h179v-235h-301l-116 -223h417v-235z" />
    <glyph glyph-name="equivalence" unicode="&#x2261;" horiz-adv-x="1166" 
d="M1048 546h-930v235h930v-235zM1048 200h-930v235h930v-235zM1048 892h-930v235h930v-235z" />
    <glyph glyph-name="lessequal" unicode="&#x2264;" horiz-adv-x="1166" 
d="M118 687v204l922 367v-256l-579 -213l579 -213v-256zM1048 0h-930v235h930v-235z" />
    <glyph glyph-name="greaterequal" unicode="&#x2265;" horiz-adv-x="1166" 
d="M1048 891v-204l-922 -367v256l579 213l-579 213v256zM1048 0h-930v235h930v-235z" />
    <glyph glyph-name="house" unicode="&#x2302;" horiz-adv-x="1294" 
d="M403 234h488v376l-244 275l-244 -275v-376zM1164 0h-1034v696l517 576l517 -576v-696z" />
    <glyph glyph-name="revlogicalnot" unicode="&#x2310;" horiz-adv-x="1166" 
d="M390 544v-319h-272v558h930v-239h-658z" />
    <glyph glyph-name="uni2318" unicode="&#x2318;" horiz-adv-x="1624" 
d="M706 540h211v211h-211v-211zM402 923h108v109q0 48 -30.5 79t-77.5 31t-77 -31t-30 -79t30 -78.5t77 -30.5zM1114 923h108q47 0 77 30.5t30 78.5t-30 79t-77 31t-77.5 -31t-30.5 -79v-109zM510 369h-108q-47 0 -77 -30.5t-30 -78.5t30 -79t77 -31t77.5 31t30.5 79v109z
M510 543v206h-108q-130 0 -218 81.5t-88 201.5q0 121 88 202.5t218 81.5q131 0 219 -81.5t88 -202.5v-109h206v109q0 121 88 202.5t219 81.5q130 0 218 -81.5t88 -202.5q0 -120 -88 -201.5t-218 -81.5h-108v-206h108q130 0 218 -81.5t88 -201.5q0 -121 -88 -202.5
t-218 -81.5q-131 0 -219 81.5t-88 202.5v109h-206v-109q0 -121 -88 -202.5t-219 -81.5q-130 0 -218 81.5t-88 202.5q0 120 88 201.5t218 81.5h108zM1222 369h-108v-109q0 -48 30.5 -79t77.5 -31t77 31t30 79t-30 78.5t-77 30.5z" />
    <glyph glyph-name="lozenge" unicode="&#x25ca;" horiz-adv-x="1162" 
d="M1079 604l-498 -918l-498 918l498 918zM809 604l-228 436l-228 -436l228 -437z" />
    <glyph glyph-name="H18533" unicode="&#x25cf;" horiz-adv-x="2000" 
d="M324 652q0 137 53.5 262t144.5 216t216 144.5t262 53.5t262 -53.5t216 -144.5t144.5 -216t53.5 -262t-53.5 -262t-144.5 -216t-216 -144.5t-262 -53.5t-262 53.5t-216 144.5t-144.5 216t-53.5 262z" />
    <glyph glyph-name="commaaccent" horiz-adv-x="850" 
d="M442 -458h-248l155 342h281z" />
    <glyph glyph-name="zero.tnum" horiz-adv-x="1130" 
d="M73 700q0 156 31 287t91.5 229t155 153t214.5 55t214.5 -55t155 -153t91.5 -229t31 -287q0 -210 -53.5 -371t-166.5 -257t-272 -96t-272 96t-166.5 257t-53.5 371zM349 700q0 -222 53 -346.5t163 -124.5t163 124.5t53 346.5q0 145 -22 248.5t-71 162.5t-123 59t-123 -59
t-71 -162.5t-22 -248.5z" />
    <glyph glyph-name="one.tnum" horiz-adv-x="966" 
d="M434 1400h251v-1400h-281v1130l-227 -122l-110 196z" />
    <glyph glyph-name="two.tnum" horiz-adv-x="1051" 
d="M781 595l-324 -353h505v-242h-866v227l467 509q73 79 103.5 138.5t30.5 123.5q0 79 -52 130.5t-132 51.5q-73 0 -123.5 -41.5t-85.5 -127.5l-238 90q43 146 160.5 234.5t289.5 88.5q200 0 330 -112.5t130 -296.5q0 -116 -46.5 -212.5t-148.5 -207.5z" />
    <glyph glyph-name="three.tnum" horiz-adv-x="1105" 
d="M502 217q102 0 170 68t68 165q0 96 -68 164t-170 68q-34 0 -67 -11l-108 136l300 351h-489v242h816v-240l-275 -308q159 -32 251 -150.5t92 -281.5q0 -85 -36.5 -165t-101 -142t-161.5 -99.5t-209 -37.5q-145 0 -263.5 62t-192.5 175l179 162q109 -158 265 -158z" />
    <glyph glyph-name="four.tnum" horiz-adv-x="1171" 
d="M64 254v240l605 906h269v-899h150v-247h-150v-254h-276v254h-598zM335 499h327v490z" />
    <glyph glyph-name="five.tnum" horiz-adv-x="1118" 
d="M530 -24q-147 0 -267 59.5t-195 172.5l188 165q106 -155 258 -155q103 0 171.5 66.5t68.5 165.5t-68.5 166t-170.5 67q-54 0 -101 -22t-73 -58l-201 26l88 771h755v-242h-503l-34 -286q58 30 140 30q121 0 223 -55t164 -159.5t62 -237.5q0 -209 -138 -341.5t-367 -132.5z
" />
    <glyph glyph-name="six.tnum" horiz-adv-x="1182" 
d="M906 1400l-323 -498q7 1 20 1q94 0 181.5 -29.5t158 -85t113 -143.5t42.5 -196q0 -134 -71 -243.5t-186 -169.5t-248 -60q-136 0 -252.5 60t-187.5 169.5t-71 243.5q0 138 70 247l457 704h297zM823 450q0 101 -68 169t-165 68t-165 -68t-68 -169q0 -100 68 -168t165 -68
t165 68t68 168z" />
    <glyph glyph-name="seven.tnum" horiz-adv-x="992" 
d="M55 1400h892v-225l-485 -1175h-305l483 1155h-585v245z" />
    <glyph glyph-name="eight.tnum" horiz-adv-x="1162" 
d="M356 427q0 -91 65 -154.5t160 -63.5t160 63.5t65 154.5q0 92 -65 155.5t-160 63.5t-160 -63.5t-65 -155.5zM1012 1040q0 -86 -46 -161.5t-119 -112.5q108 -42 170 -136.5t62 -210.5q0 -124 -65.5 -225.5t-179.5 -159.5t-253 -58t-253 58t-179.5 159.5t-65.5 225.5
q0 116 62 210.5t170 136.5q-73 37 -119 112.5t-46 161.5q0 162 122.5 273t308.5 111t308.5 -111t122.5 -273zM412 1032q0 -66 49 -114.5t120 -48.5t120 48.5t49 114.5q0 67 -49 114t-120 47t-120 -47t-49 -114z" />
    <glyph glyph-name="nine.tnum" horiz-adv-x="1182" 
d="M276 0l323 498q-7 -1 -20 -1q-94 0 -181.5 29.5t-158 85t-113 143.5t-42.5 196q0 134 71 243.5t186 169.5t248 60q136 0 252.5 -60t187.5 -169.5t71 -243.5q0 -138 -70 -247l-457 -704h-297zM359 950q0 -101 68 -169t165 -68t165 68t68 169q0 100 -68 168t-165 68
t-165 -68t-68 -168z" />
    <glyph glyph-name="parenleft.case" horiz-adv-x="855" 
d="M216 699q0 267 99 511t277 422l192 -137q-138 -162 -211 -368.5t-73 -427.5t73 -427.5t211 -368.5l-192 -137q-178 178 -277 422t-99 511z" />
    <glyph glyph-name="parenright.case" horiz-adv-x="855" 
d="M639 699q0 -267 -99 -511t-277 -422l-192 137q138 162 211 368.5t73 427.5t-73 427.5t-211 368.5l192 137q178 -178 277 -422t99 -511z" />
    <glyph glyph-name="hyphen.case" horiz-adv-x="828" 
d="M710 585h-592v254h592v-254z" />
    <glyph glyph-name="at.case" horiz-adv-x="1942" 
d="M964 486q64 0 114.5 33.5t77.5 89.5v210q-27 55 -78 88.5t-114 33.5q-92 0 -154 -65t-62 -162t62 -162.5t154 -65.5zM1447 283q-76 0 -148 36t-111 93q-49 -61 -120 -95t-151 -34q-172 0 -287 126t-115 305q0 178 114.5 304.5t283.5 126.5q139 0 243 -104v84h230v-593
q12 -23 37.5 -37.5t53.5 -14.5q79 0 134 75.5t55 210.5q0 133 -56.5 254t-150.5 208t-223 138.5t-269 51.5q-141 0 -268.5 -54t-220 -146t-147.5 -220.5t-55 -271.5q0 -192 93 -350.5t257.5 -250t366.5 -91.5q261 0 475 149l82 -167q-263 -164 -557 -164q-195 0 -366 67
t-293.5 182.5t-193 278t-70.5 346.5q0 183 71 346t191.5 278.5t286 182.5t348.5 67q191 0 359.5 -65t288 -176.5t188.5 -266t69 -328.5q0 -218 -118.5 -349.5t-306.5 -131.5z" />
    <glyph glyph-name="bracketleft.case" horiz-adv-x="855" 
d="M212 -190v1780h605v-245h-321v-1290h321v-245h-605z" />
    <glyph glyph-name="bracketright.case" horiz-adv-x="855" 
d="M643 1590v-1780h-605v245h321v1290h-321v245h605z" />
    <glyph glyph-name="braceleft.case" horiz-adv-x="855" 
d="M131 578v244q88 0 137.5 45.5t49.5 128.5v265q0 140 102 234.5t257 94.5h140v-245h-87q-56 0 -92 -35.5t-36 -90.5v-280q0 -192 -182 -239q182 -47 182 -239v-280q0 -55 36 -90.5t92 -35.5h87v-245h-140q-155 0 -257 94.5t-102 234.5v265q0 83 -49.5 128.5t-137.5 45.5z
" />
    <glyph glyph-name="braceright.case" horiz-adv-x="855" 
d="M724 822v-244q-88 0 -137.5 -45.5t-49.5 -128.5v-265q0 -140 -102 -234.5t-257 -94.5h-140v245h87q56 0 92 35.5t36 90.5v280q0 192 182 239q-182 47 -182 239v280q0 55 -36 90.5t-92 35.5h-87v245h140q155 0 257 -94.5t102 -234.5v-265q0 -83 49.5 -128.5t137.5 -45.5z
" />
    <glyph glyph-name="exclamdown.case" horiz-adv-x="626" 
d="M171 0v981h284v-981h-284zM140 1258q0 71 50 118.5t123 47.5t123 -47.5t50 -118.5t-50 -118.5t-123 -47.5t-123 47.5t-50 118.5z" />
    <glyph glyph-name="guillemotleft.case" horiz-adv-x="1290" 
d="M94 603v136l576 354v-235l-318 -187l318 -187v-235zM601 603v136l576 354v-235l-318 -187l318 -187v-235z" />
    <glyph glyph-name="periodcentered.case" horiz-adv-x="603" 
d="M132 701q0 71 48 118.5t121 47.5t121.5 -47.5t48.5 -118.5t-48.5 -118.5t-121.5 -47.5t-121 47.5t-48 118.5z" />
    <glyph glyph-name="guillemotright.case" horiz-adv-x="1290" 
d="M1196 739v-136l-576 -354v235l318 187l-318 187v235zM689 739v-136l-576 -354v235l318 187l-318 187v235z" />
    <glyph glyph-name="questiondown.case" horiz-adv-x="1109" 
d="M766 981v-362q-174 0 -270.5 -63t-96.5 -163q0 -74 65 -121.5t170 -47.5q133 0 269 113l136 -206q-189 -155 -433 -155q-108 0 -202 34t-157 91t-99 132.5t-36 158.5q0 143 100 254t270 149v186h284zM797 1258q0 -71 -50 -118.5t-123 -47.5t-123 47.5t-50 118.5t50 118.5
t123 47.5t123 -47.5t50 -118.5z" />
    <glyph glyph-name="endash.case" horiz-adv-x="1000" 
d="M1000 585h-1000v254h1000v-254z" />
    <glyph glyph-name="emdash.case" horiz-adv-x="2000" 
d="M2000 585h-2000v254h2000v-254z" />
    <glyph glyph-name="bullet.case" horiz-adv-x="800" 
d="M121 712q0 115 81.5 196t197.5 81q115 0 197 -81t82 -196t-82 -196t-197 -81q-116 0 -197.5 81t-81.5 196z" />
    <glyph glyph-name="guilsinglleft.case" horiz-adv-x="783" 
d="M94 603v136l576 354v-235l-318 -187l318 -187v-235z" />
    <glyph glyph-name="guilsinglright.case" horiz-adv-x="783" 
d="M689 739v-136l-576 -354v235l318 187l-318 187v235z" />
    <glyph glyph-name="zero.numerator" 
d="M53 926q0 220 91 359t259 139t259 -139t91 -359t-91 -359t-259 -139t-259 139t-91 359zM278 926q0 -141 31 -221.5t94 -80.5t94 80.5t31 221.5t-31 221.5t-94 80.5t-94 -80.5t-31 -221.5z" />
    <glyph glyph-name="one.numerator" 
d="M375 1400h195v-948h-230v725l-141 -77l-85 161z" />
    <glyph glyph-name="two.numerator" 
d="M583 851l-195 -210h319v-189h-616v169l315 342q45 49 64 86.5t19 78.5q0 47 -28 76t-73 29q-42 0 -71 -27.5t-51 -90.5l-197 70q29 113 113.5 176t207.5 63q142 0 234.5 -78.5t92.5 -207.5q0 -78 -32 -144t-102 -143z" />
    <glyph glyph-name="three.numerator" 
d="M499 757q0 58 -39 98.5t-97 40.5q-28 0 -53 -11l-87 107l188 219h-310v189h582v-175l-172 -194q101 -29 159.5 -109.5t58.5 -185.5q0 -123 -100.5 -215.5t-256.5 -92.5q-103 0 -188.5 46t-136.5 128l146 132q82 -118 170 -118q58 0 97 40.5t39 100.5z" />
    <glyph glyph-name="four.numerator" 
d="M33 619v172l411 609h211v-592h98v-189h-98v-167h-222v167h-400zM256 806h177v269z" />
    <glyph glyph-name="five.numerator" 
d="M379 428q-105 0 -190.5 44.5t-139.5 127.5l154 131q76 -114 166 -114q58 0 98 40.5t40 99.5t-39 99t-98 40q-30 0 -58 -15.5t-45 -39.5l-168 21l61 538h542v-189h-335l-19 -148q33 7 63 7q135 0 230 -86.5t95 -226.5q0 -145 -97.5 -237t-259.5 -92z" />
    <glyph glyph-name="six.numerator" 
d="M644 1400l-210 -324q132 -5 229 -93t97 -227q0 -141 -105.5 -234.5t-249.5 -93.5q-148 0 -254 93t-106 235q0 96 49 171l309 473h241zM537 757q0 59 -39.5 99.5t-95.5 40.5t-95 -40.5t-39 -99.5q0 -60 39 -100.5t95 -40.5q57 0 96 40.5t39 100.5z" />
    <glyph glyph-name="seven.numerator" 
d="M88 1400h634v-166l-323 -782h-250l319 757h-380v191z" />
    <glyph glyph-name="eight.numerator" 
d="M275 743q0 -56 37 -94t91 -38t91 38t37 94q0 55 -37 93t-91 38t-91 -38t-37 -93zM709 1152q0 -54 -26 -102t-70 -79q65 -35 103 -98t38 -135q0 -132 -101 -221t-250 -89t-250 89t-101 221q0 72 38 135t103 98q-44 31 -70 79t-26 102q0 114 87 193t219 79t219 -79t87 -193
zM311 1149q0 -40 26.5 -68t65.5 -28t65.5 28t26.5 68q0 39 -26 65.5t-66 26.5t-66 -26.5t-26 -65.5z" />
    <glyph glyph-name="nine.numerator" 
d="M162 452l210 324q-132 5 -229 93t-97 227q0 141 105.5 234.5t249.5 93.5q148 0 254 -93t106 -235q0 -96 -49 -171l-309 -473h-241zM269 1095q0 -59 39.5 -99.5t95.5 -40.5t95 40.5t39 99.5q0 60 -39 100.5t-95 40.5q-57 0 -96 -40.5t-39 -100.5z" />
    <glyph glyph-name="zero.denominator" 
d="M53 474q0 220 91 359t259 139t259 -139t91 -359t-91 -359t-259 -139t-259 139t-91 359zM278 474q0 -141 31 -221.5t94 -80.5t94 80.5t31 221.5t-31 221.5t-94 80.5t-94 -80.5t-31 -221.5z" />
    <glyph glyph-name="one.denominator" 
d="M375 948h195v-948h-230v725l-141 -77l-85 161z" />
    <glyph glyph-name="two.denominator" 
d="M583 399l-195 -210h319v-189h-616v169l315 342q45 49 64 86.5t19 78.5q0 47 -28 76t-73 29q-42 0 -71 -27.5t-51 -90.5l-197 70q29 113 113.5 176t207.5 63q142 0 234.5 -78.5t92.5 -207.5q0 -78 -32 -144t-102 -143z" />
    <glyph glyph-name="three.denominator" 
d="M499 305q0 58 -39 98.5t-97 40.5q-28 0 -53 -11l-87 107l188 219h-310v189h582v-175l-172 -194q101 -29 159.5 -109.5t58.5 -185.5q0 -123 -100.5 -215.5t-256.5 -92.5q-103 0 -188.5 46t-136.5 128l146 132q82 -118 170 -118q58 0 97 40.5t39 100.5z" />
    <glyph glyph-name="four.denominator" 
d="M33 167v172l411 609h211v-592h98v-189h-98v-167h-222v167h-400zM256 354h177v269z" />
    <glyph glyph-name="five.denominator" 
d="M379 -24q-105 0 -190.5 44.5t-139.5 127.5l154 131q76 -114 166 -114q58 0 98 40.5t40 99.5t-39 99t-98 40q-30 0 -58 -15.5t-45 -39.5l-168 21l61 538h542v-189h-335l-19 -148q33 7 63 7q135 0 230 -86.5t95 -226.5q0 -145 -97.5 -237t-259.5 -92z" />
    <glyph glyph-name="six.denominator" 
d="M644 948l-210 -324q132 -5 229 -93t97 -227q0 -141 -105.5 -234.5t-249.5 -93.5q-148 0 -254 93t-106 235q0 96 49 171l309 473h241zM537 305q0 59 -39.5 99.5t-95.5 40.5t-95 -40.5t-39 -99.5q0 -60 39 -100.5t95 -40.5q57 0 96 40.5t39 100.5z" />
    <glyph glyph-name="seven.denominator" 
d="M88 948h634v-166l-323 -782h-250l319 757h-380v191z" />
    <glyph glyph-name="eight.denominator" 
d="M275 291q0 -56 37 -94t91 -38t91 38t37 94q0 55 -37 93t-91 38t-91 -38t-37 -93zM709 700q0 -54 -26 -102t-70 -79q65 -35 103 -98t38 -135q0 -132 -101 -221t-250 -89t-250 89t-101 221q0 72 38 135t103 98q-44 31 -70 79t-26 102q0 114 87 193t219 79t219 -79t87 -193z
M311 697q0 -40 26.5 -68t65.5 -28t65.5 28t26.5 68q0 39 -26 65.5t-66 26.5t-66 -26.5t-26 -65.5z" />
    <glyph glyph-name="nine.denominator" 
d="M162 0l210 324q-132 5 -229 93t-97 227q0 141 105.5 234.5t249.5 93.5q148 0 254 -93t106 -235q0 -96 -49 -171l-309 -473h-241zM269 643q0 -59 39.5 -99.5t95.5 -40.5t95 40.5t39 99.5q0 60 -39 100.5t-95 40.5q-57 0 -96 -40.5t-39 -100.5z" />
    <glyph glyph-name="dollar_osf" horiz-adv-x="1054" 
d="M72 175l158 181q103 -110 231 -140v275q-175 40 -265.5 131.5t-90.5 224.5q0 141 98 234.5t258 109.5v157h163v-163q175 -29 311 -151l-148 -189q-89 73 -163 100v-235q188 -48 277 -140.5t89 -231.5q0 -143 -97.5 -239.5t-268.5 -116.5v-162h-163v161q-113 13 -214 63
t-175 131zM720 328q0 72 -96 116v-222q44 15 70 42.5t26 63.5zM376 866q0 -64 85 -105v193q-40 -11 -62.5 -34.5t-22.5 -53.5z" />
    <glyph glyph-name="zero_osf" horiz-adv-x="1002" 
d="M55 537q0 254 118 407.5t328 153.5t328 -153.5t118 -407.5t-118 -407.5t-328 -153.5t-328 153.5t-118 407.5zM326 537q0 -157 46 -242.5t129 -85.5t129 85.5t46 242.5q0 156 -46 242t-129 86t-129 -86t-46 -242z" />
    <glyph glyph-name="one_osf" horiz-adv-x="862" 
d="M394 1074h239v-1074h-278v806l-205 -99l-100 201z" />
    <glyph glyph-name="two_osf" horiz-adv-x="930" 
d="M696 440l-232 -209h396v-231h-787v208l414 375q60 55 85.5 94t25.5 79q0 50 -40 79.5t-105 29.5q-123 0 -178 -131l-235 83q48 134 153.5 207.5t261.5 73.5q181 0 299 -91t118 -238q0 -92 -43 -170t-133 -159z" />
    <glyph glyph-name="three_osf" horiz-adv-x="994" 
d="M653 208q0 83 -58 140.5t-145 57.5q-32 0 -63 -13l-109 136l261 305h-427v240h756v-231l-239 -267q140 -35 220 -142.5t80 -252.5q0 -78 -33.5 -152t-93 -131.5t-148.5 -92.5t-192 -35q-133 0 -244 59.5t-182 168.5l178 158q101 -147 236 -147q86 0 144.5 58t58.5 141z
" />
    <glyph glyph-name="four_osf" horiz-adv-x="1053" 
d="M45 25v224l550 825h259v-813h135v-236h-135v-231h-270v231h-539zM320 261h264v403z" />
    <glyph glyph-name="five_osf" horiz-adv-x="1005" 
d="M475 -230q-135 0 -247 57.5t-184 165.5l187 162q98 -145 230 -145q89 0 147 56.5t58 140.5q0 85 -58 141t-146 56q-47 0 -88 -20t-64 -52l-197 25l82 717h699v-238h-453l-28 -232q49 20 112 20q173 0 294.5 -116t121.5 -301q0 -192 -127.5 -314.5t-338.5 -122.5z" />
    <glyph glyph-name="six_osf" horiz-adv-x="1063" 
d="M837 1282l-290 -445q120 0 221.5 -49t166 -147t64.5 -227q0 -124 -65 -225.5t-171.5 -157t-229.5 -55.5q-125 0 -232 55.5t-172 157t-65 225.5q0 128 65 228l416 640h292zM731 415q0 85 -58.5 143t-141.5 58q-82 0 -140 -58t-58 -143q0 -86 58 -144t140 -58
q83 0 141.5 58t58.5 144z" />
    <glyph glyph-name="seven_osf" horiz-adv-x="891" 
d="M37 1074h824v-214l-440 -1066h-297l434 1039h-521v241z" />
    <glyph glyph-name="eight_osf" horiz-adv-x="1046" 
d="M331 394q0 -78 55.5 -132.5t136.5 -54.5t136.5 54.5t55.5 132.5t-55.5 132t-136.5 54t-136.5 -54t-55.5 -132zM922 948q0 -73 -37.5 -140.5t-96.5 -106.5q90 -43 142 -128.5t52 -186.5q0 -174 -132 -292t-327 -118t-327 118t-132 292q0 101 52 186.5t142 128.5
q-59 39 -96.5 106.5t-37.5 140.5q0 150 113.5 254t285.5 104t285.5 -104t113.5 -254zM381 941q0 -55 41 -96.5t101 -41.5t101 41.5t41 96.5t-41 95t-101 40t-101 -40t-41 -95z" />
    <glyph glyph-name="nine_osf" horiz-adv-x="1063" 
d="M227 -206l289 443q-120 0 -221.5 49t-166 147t-64.5 227q0 124 65 225.5t171.5 157t229.5 55.5q125 0 232 -55.5t172 -157t65 -225.5q0 -128 -65 -228l-415 -638h-292zM332 659q0 -85 58.5 -143t141.5 -58q82 0 140 58t58 143q0 86 -58 144t-140 58q-83 0 -141.5 -58
t-58.5 -144z" />
    <glyph glyph-name="cent_osf" horiz-adv-x="1142" 
d="M747 1348v-158q186 -19 346 -141l-137 -202q-116 83 -209 103v-730q113 25 217 112l142 -201q-154 -131 -359 -152v-160h-168v165q-231 32 -380.5 200t-149.5 401q0 231 149.5 399.5t380.5 201.5v162h168zM320 585q0 -130 72 -228t187 -131v717q-115 -33 -187 -130.5
t-72 -227.5z" />
    <glyph glyph-name="sterling_osf" horiz-adv-x="1030" 
d="M777 442h-245q0 -120 -81 -208h489v-234h-818v220q66 35 103.5 92t37.5 123v7h-146v193h95q-56 118 -56 214q0 146 113.5 245.5t280.5 99.5q130 0 230 -66t144 -167l-223 -112q-45 110 -148 110q-55 0 -91.5 -33t-36.5 -83q0 -56 52 -168q8 -16 16 -40h284v-193z" />
    <glyph glyph-name="yen_osf" horiz-adv-x="1145" 
d="M13 1170h298l262 -446l261 446h298l-330 -540h204v-145h-293l-5 -9v-50h298v-145h-298v-281h-271v281h-298v145h298v50l-6 9h-292v145h204z" />
    <glyph glyph-name="florin_osf" horiz-adv-x="735" 
d="M481 582v-483q0 -316 -366 -316q-64 0 -119 10v219q47 -6 97 -6q119 0 119 97v479h-133v235h133v47q0 316 366 316q64 0 119 -10v-219q-47 6 -97 6q-119 0 -119 -97v-43h216v-235h-216z" />
    <glyph glyph-name="Euro_osf" horiz-adv-x="1207" 
d="M741 -24q-212 0 -374 114.5t-224 300.5h-123v150h94q-1 14 -1 44v25h-93v149h117q57 194 222 314.5t382 120.5q226 0 414 -145l-132 -196q-151 110 -282 110q-106 0 -192.5 -55.5t-132.5 -148.5h417v-149h-455q-1 -9 -1 -25q0 -30 2 -44h454v-150h-407
q48 -85 131.5 -134.5t183.5 -49.5q74 0 151 33t139 86l138 -195q-183 -155 -428 -155z" />
    <glyph glyph-name="zero.tnum_osf" horiz-adv-x="1084" 
d="M96 537q0 254 118 407.5t328 153.5t328 -153.5t118 -407.5t-118 -407.5t-328 -153.5t-328 153.5t-118 407.5zM367 537q0 -157 46 -242.5t129 -85.5t129 85.5t46 242.5q0 156 -46 242t-129 86t-129 -86t-46 -242z" />
    <glyph glyph-name="one.tnum_osf" horiz-adv-x="1084" 
d="M502 1074h239v-1074h-278v806l-205 -99l-100 201z" />
    <glyph glyph-name="two.tnum_osf" horiz-adv-x="1084" 
d="M783 440l-232 -209h396v-231h-787v208l414 375q60 55 85.5 94t25.5 79q0 50 -40 79.5t-105 29.5q-123 0 -178 -131l-235 83q48 134 153.5 207.5t261.5 73.5q181 0 299 -91t118 -238q0 -92 -43 -170t-133 -159z" />
    <glyph glyph-name="three.tnum_osf" horiz-adv-x="1084" 
d="M683 208q0 83 -58 140.5t-145 57.5q-32 0 -63 -13l-109 136l261 305h-427v240h756v-231l-239 -267q140 -35 220 -142.5t80 -252.5q0 -78 -33.5 -152t-93 -131.5t-148.5 -92.5t-192 -35q-133 0 -244 59.5t-182 168.5l178 158q101 -147 236 -147q86 0 144.5 58t58.5 141z
" />
    <glyph glyph-name="four.tnum_osf" horiz-adv-x="1084" 
d="M53 25v224l550 825h259v-813h135v-236h-135v-231h-270v231h-539zM328 261h264v403z" />
    <glyph glyph-name="five.tnum_osf" horiz-adv-x="1084" 
d="M511 -230q-135 0 -247 57.5t-184 165.5l187 162q98 -145 230 -145q89 0 147 56.5t58 140.5q0 85 -58 141t-146 56q-47 0 -88 -20t-64 -52l-197 25l82 717h699v-238h-453l-28 -232q49 20 112 20q173 0 294.5 -116t121.5 -301q0 -192 -127.5 -314.5t-338.5 -122.5z" />
    <glyph glyph-name="six.tnum_osf" horiz-adv-x="1084" 
d="M846 1282l-290 -445q120 0 221.5 -49t166 -147t64.5 -227q0 -124 -65 -225.5t-171.5 -157t-229.5 -55.5q-125 0 -232 55.5t-172 157t-65 225.5q0 128 65 228l416 640h292zM740 415q0 85 -58.5 143t-141.5 58q-82 0 -140 -58t-58 -143q0 -86 58 -144t140 -58
q83 0 141.5 58t58.5 144z" />
    <glyph glyph-name="seven.tnum_osf" horiz-adv-x="1084" 
d="M133 1074h824v-214l-440 -1066h-297l434 1039h-521v241z" />
    <glyph glyph-name="eight.tnum_osf" horiz-adv-x="1084" 
d="M350 394q0 -78 55.5 -132.5t136.5 -54.5t136.5 54.5t55.5 132.5t-55.5 132t-136.5 54t-136.5 -54t-55.5 -132zM941 948q0 -73 -37.5 -140.5t-96.5 -106.5q90 -43 142 -128.5t52 -186.5q0 -174 -132 -292t-327 -118t-327 118t-132 292q0 101 52 186.5t142 128.5
q-59 39 -96.5 106.5t-37.5 140.5q0 150 113.5 254t285.5 104t285.5 -104t113.5 -254zM400 941q0 -55 41 -96.5t101 -41.5t101 41.5t41 96.5t-41 95t-101 40t-101 -40t-41 -95z" />
    <glyph glyph-name="nine.tnum_osf" horiz-adv-x="1084" 
d="M239 -206l289 443q-120 0 -221.5 49t-166 147t-64.5 227q0 124 65 225.5t171.5 157t229.5 55.5q125 0 232 -55.5t172 -157t65 -225.5q0 -128 -65 -228l-415 -638h-292zM344 659q0 -85 58.5 -143t141.5 -58q82 0 140 58t58 143q0 86 -58 144t-140 58q-83 0 -141.5 -58
t-58.5 -144z" />
    </font>
</defs>
</svg>
