<?xml version="1.0" standalone="no"?>
<!DOCTYPE svg PUBLIC "-//W3C//DTD SVG 1.1//EN" "http://www.w3.org/Graphics/SVG/1.1/DTD/svg11.dtd" >
<svg>
<metadata>
Created by FontForge 20090622 at Thu Jun 21 13:28:46 2018
 By deploy user
Copyright (c) 2016 by S-Core Co., Ltd.. All rights reserved.
</metadata>
<defs>
<font id="CoreSansC-95BlackIt" horiz-adv-x="820" >
  <font-face 
    font-family="Core Sans C 95 Black"
    font-weight="900"
    font-style="italic"
    font-stretch="normal"
    units-per-em="2000"
    panose-1="2 11 6 3 3 3 2 2 2 4"
    ascent="1600"
    descent="-400"
    x-height="1036"
    cap-height="1400"
    bbox="-923 -520 2493 1950"
    underline-thickness="48"
    underline-position="-366"
    unicode-range="U+0009-U+FB04"
  />
<missing-glyph horiz-adv-x="1000" 
d="M940 0h-840v1500h840v-1500zM430 312h180v876h-180v-876z" />
    <glyph glyph-name="ff" unicode="ff" horiz-adv-x="1590" 
d="M1730 1444l-56 -288q-36 8 -98 8q-37 0 -63.5 -20t-32.5 -52l-11 -56h182l-69 -356h-182l-223 -1144h-416l223 1144h-368l-223 -1144h-416l223 1144h-128l69 356h128l12 64q32 162 178 261t354 99q121 0 208 -34l-91 -281q-72 19 -128 19q-44 0 -72 -20t-34 -52l-11 -56
h368l12 64q21 107 93.5 189t184 126.5t244.5 44.5q82 0 143 -16z" />
    <glyph glyph-name="fi" unicode="fi" horiz-adv-x="1472" 
d="M685 1036h784l-201 -1036h-416l132 680h-368l-223 -1144h-416l223 1144h-128l69 356h128l12 64q32 162 178 261t354 99q103 0 173 -16l-56 -288q-49 8 -128 8q-44 0 -72 -20t-34 -52zM1085 1296q18 89 94.5 148.5t172.5 59.5q84 0 136.5 -47t52.5 -121q0 -21 -4 -40
q-17 -89 -93.5 -148.5t-172.5 -59.5q-84 0 -137 47.5t-53 121.5q0 19 4 39z" />
    <glyph glyph-name="fl" unicode="fl" horiz-adv-x="1430" 
d="M946 1444l-56 -288q-36 8 -98 8q-37 0 -63.5 -20t-32.5 -52l-11 -56h182l-69 -356h-182l-223 -1144h-416l223 1144h-128l69 356h128l12 64q21 107 93.5 189t184 126.5t244.5 44.5q82 0 143 -16zM810 0l283 1460h416l-283 -1460h-416z" />
    <glyph glyph-name="ffi" unicode="ffi" horiz-adv-x="2256" 
d="M269 1036l12 64q32 162 178 261t354 99q121 0 208 -34l-91 -281q-72 19 -128 19q-44 0 -72 -20t-34 -52l-11 -56h368l12 64q32 162 178 261t354 99q103 0 173 -16l-56 -288q-49 8 -128 8q-44 0 -72 -20t-34 -52l-11 -56h784l-201 -1036h-416l132 680h-368l-223 -1144
h-416l223 1144h-368l-223 -1144h-416l223 1144h-128l69 356h128zM1869 1296q18 89 94.5 148.5t172.5 59.5q84 0 136.5 -47t52.5 -121q0 -21 -4 -40q-17 -89 -93.5 -148.5t-172.5 -59.5q-84 0 -137 47.5t-53 121.5q0 19 4 39z" />
    <glyph glyph-name="ffl" unicode="ffl" horiz-adv-x="2214" 
d="M1594 0l283 1460h416l-283 -1460h-416zM1730 1444l-56 -288q-36 8 -98 8q-37 0 -63.5 -20t-32.5 -52l-11 -56h182l-69 -356h-182l-223 -1144h-416l223 1144h-368l-223 -1144h-416l223 1144h-128l69 356h128l12 64q32 162 178 261t354 99q121 0 208 -34l-91 -281
q-72 19 -128 19q-44 0 -72 -20t-34 -52l-11 -56h368l12 64q21 107 93.5 189t184 126.5t244.5 44.5q82 0 143 -16z" />
    <glyph glyph-name=".notdef" horiz-adv-x="1000" 
d="M940 0h-840v1500h840v-1500zM430 312h180v876h-180v-876z" />
    <glyph glyph-name=".null" horiz-adv-x="0" 
 />
    <glyph glyph-name=".null" horiz-adv-x="0" 
 />
    <glyph glyph-name="nonmarkingreturn" horiz-adv-x="666" 
 />
    <glyph glyph-name="CR" unicode="&#x9;" horiz-adv-x="0" 
 />
    <glyph glyph-name="space" unicode=" " horiz-adv-x="612" 
 />
    <glyph glyph-name="exclam" unicode="!" horiz-adv-x="636" 
d="M94 464l182 936h428l-182 -936h-428zM7 194q18 92 101.5 155t189.5 63q94 0 151.5 -50t57.5 -128q0 -21 -4 -40q-18 -92 -101 -155t-189 -63q-94 0 -152 50.5t-58 128.5q0 22 4 39z" />
    <glyph glyph-name="quotedbl" unicode="&#x22;" horiz-adv-x="1002" 
d="M138 834l110 566h388l-110 -566h-388zM600 834l110 566h388l-110 -566h-388z" />
    <glyph glyph-name="numbersign" unicode="#" horiz-adv-x="1408" 
d="M1450 1400l-98 -268h122l-61 -310h-175l-93 -252h145l-60 -310h-198l-94 -260h-382l94 260h-142l-94 -260h-382l94 260h-122l60 310h175l93 252h-145l61 310h198l98 268h382l-98 -268h142l98 268h382zM714 822l-93 -252h142l93 252h-142z" />
    <glyph glyph-name="dollar" unicode="$" horiz-adv-x="1212" 
d="M8 198l263 284q60 -74 143 -116t172 -42q46 0 81.5 25t43.5 61q2 10 2 18q0 38 -42.5 67.5t-150.5 54.5q-155 36 -247 125.5t-92 222.5q0 34 8 76q27 143 129.5 254t248.5 161l42 215h408l-41 -210q150 -45 254 -148l-253 -292q-132 130 -253 130q-37 0 -65.5 -21.5
t-34.5 -52.5q-2 -10 -2 -17q0 -68 164 -108q175 -42 271 -133.5t96 -228.5q0 -36 -8 -81q-29 -150 -141 -267t-277 -168l-41 -211h-408l39 203q-196 51 -309 199z" />
    <glyph glyph-name="percent" unicode="%" horiz-adv-x="1858" 
d="M330 0l994 1400h276l-992 -1400h-278zM1274 352q-2 -10 -2 -17q0 -29 19.5 -47t52.5 -18q38 0 66.5 22.5t35.5 59.5q2 10 2 17q0 29 -19.5 47t-52.5 18q-38 0 -66.5 -22.5t-35.5 -59.5zM974 352q30 154 161.5 260t295.5 106q144 0 233 -83.5t89 -212.5q0 -36 -7 -70
q-30 -154 -161.5 -260t-295.5 -106q-144 0 -233 83.5t-89 212.5q0 36 7 70zM483 1049q-2 -12 -2 -18q0 -29 19.5 -47t52.5 -18q38 0 66.5 23t35.5 59q2 12 2 18q0 29 -19.5 46.5t-52.5 17.5q-37 0 -65.5 -23t-36.5 -58zM183 1048q30 154 161.5 260t295.5 106
q144 0 233 -83.5t89 -212.5q0 -36 -7 -70q-29 -154 -161 -260t-296 -106q-144 0 -233 84t-89 213q0 35 7 69z" />
    <glyph glyph-name="ampersand" unicode="&#x26;" horiz-adv-x="1510" 
d="M1207 1140l-380 -156q-20 79 -36 105.5t-45 26.5q-24 0 -40.5 -14.5t-21.5 -36.5q-2 -12 -2 -20q0 -77 107 -213l177 -223q39 76 71 159l362 -52q-74 -219 -210 -389l261 -327h-480l-65 81q-186 -105 -398 -105q-205 0 -332.5 91t-127.5 233q0 30 6 60q48 247 312 410
q-83 125 -83 224q0 24 8 66q29 154 176.5 259t337.5 105q160 0 264 -75t139 -209zM567 284q76 0 147 38l-164 207q-80 -67 -93 -142q-2 -12 -2 -20q0 -37 30.5 -60t81.5 -23z" />
    <glyph glyph-name="quotesingle" unicode="'" horiz-adv-x="580" 
d="M138 834l110 566h428l-110 -566h-428z" />
    <glyph glyph-name="parenleft" unicode="(" horiz-adv-x="900" 
d="M194 610q53 271 208 519.5t375 420.5l246 -182q-152 -152 -255.5 -347t-145.5 -411q-25 -128 -25 -254q0 -290 132 -504l-318 -182q-116 132 -178.5 310.5t-62.5 379.5q0 122 24 250z" />
    <glyph glyph-name="parenright" unicode=")" horiz-adv-x="900" 
d="M742 610q-53 -271 -208 -519.5t-375 -420.5l-246 182q152 152 255.5 347t145.5 411q25 128 25 254q0 290 -132 504l318 182q116 -132 178.5 -310.5t62.5 -379.5q0 -122 -24 -250z" />
    <glyph glyph-name="asterisk" unicode="*" horiz-adv-x="1144" 
d="M874 664l210 -80l-168 -304l-180 134l32 -222h-352l32 222l-180 -134l-168 304l210 80l-210 80l168 304l180 -134l-32 222h352l-32 -222l180 134l168 -304z" />
    <glyph glyph-name="plus" unicode="+" horiz-adv-x="1184" 
d="M410 190v290h-278v368h278v290h404v-290h278v-368h-278v-290h-404z" />
    <glyph glyph-name="comma" unicode="," horiz-adv-x="612" 
d="M10 196q18 94 96.5 157t179.5 63q89 0 142.5 -49.5t53.5 -127.5q0 -24 -4 -43q-11 -54 -45 -104l-228 -342h-266l162 248q-45 21 -70.5 61.5t-25.5 91.5q0 20 5 45z" />
    <glyph glyph-name="hyphen" unicode="-" horiz-adv-x="876" 
d="M757 480h-652l71 368h652z" />
    <glyph glyph-name="period" unicode="." horiz-adv-x="612" 
d="M10 197q18 93 96.5 156t179.5 63q89 0 142.5 -49.5t53.5 -127.5q0 -23 -4 -43q-19 -94 -97.5 -157t-179.5 -63q-88 0 -142 49.5t-54 126.5q0 20 5 45z" />
    <glyph glyph-name="slash" unicode="/" horiz-adv-x="1056" 
d="M1267 1500l-1028 -1780h-413l1031 1780h410z" />
    <glyph glyph-name="zero" unicode="0" horiz-adv-x="1224" 
d="M120 700q42 215 134.5 377.5t230.5 254.5t303 92q199 0 305.5 -132.5t106.5 -362.5q0 -106 -24 -229q-42 -215 -135.5 -377.5t-231.5 -254.5t-302 -92q-199 0 -305 131.5t-106 360.5q0 108 24 232zM528 700q-23 -118 -23 -196q0 -150 75 -150q57 0 106.5 90.5t81.5 255.5
q22 113 22 194q0 152 -75 152q-57 0 -106.5 -90.5t-80.5 -255.5z" />
    <glyph glyph-name="one" unicode="1" horiz-adv-x="1224" 
d="M704 1400h368l-272 -1400h-428l197 1016l-228 -114l-93 272z" />
    <glyph glyph-name="two" unicode="2" horiz-adv-x="1224" 
d="M984 652l-313 -284h394l-71 -368h-926l65 338l559 508q73 67 84 121q2 10 2 18q0 28 -18.5 45.5t-48.5 17.5q-76 0 -127 -108l-352 110q57 159 212.5 266.5t349.5 107.5q187 0 304 -91.5t117 -235.5q0 -27 -7 -67q-42 -212 -224 -378z" />
    <glyph glyph-name="three" unicode="3" horiz-adv-x="1224" 
d="M668 467q3 13 3 27q0 44 -29.5 72t-76.5 28q-41 0 -73 -16l-123 202l315 264h-414l70 356h876l-68 -346l-294 -226q118 -44 182 -129t64 -200q0 -46 -8 -85q-37 -187 -216 -312.5t-407 -125.5q-156 0 -274.5 63.5t-163.5 176.5l287 250q62 -124 198 -124q54 0 98 36
t54 89z" />
    <glyph glyph-name="four" unicode="4" horiz-adv-x="1224" 
d="M3 226l64 328l719 846h380l-161 -824h150l-68 -350h-150l-43 -226h-408l43 226h-526zM391 576h206l63 322z" />
    <glyph glyph-name="five" unicode="5" horiz-adv-x="1224" 
d="M744 1044l-43 -130q187 -7 302.5 -110t115.5 -263q0 -38 -8 -83q-40 -205 -217 -343.5t-405 -138.5q-162 0 -283 60.5t-183 167.5l304 256q71 -116 193 -116q60 0 106.5 37.5t57.5 94.5q3 15 3 28q0 47 -30 75.5t-79 28.5q-60 0 -106 -42l-302 42l252 792h820l-70 -356
h-428z" />
    <glyph glyph-name="six" unicode="6" horiz-adv-x="1224" 
d="M1216 1400l-403 -474q149 -26 242.5 -122.5t93.5 -245.5q0 -44 -9 -92q-27 -137 -119 -249.5t-228 -176.5t-286 -64q-201 0 -326.5 112t-125.5 287q0 44 9 91q27 140 118 248l584 686h450zM469 470q-3 -16 -3 -32q0 -49 30 -79.5t79 -30.5q57 0 103.5 40.5t58.5 101.5
q3 16 3 31q0 50 -30.5 80.5t-79.5 30.5q-57 0 -103 -40.5t-58 -101.5z" />
    <glyph glyph-name="seven" unicode="7" horiz-adv-x="1224" 
d="M316 1400h952l-62 -318l-650 -1082h-440l632 1032h-504z" />
    <glyph glyph-name="eight" unicode="8" horiz-adv-x="1224" 
d="M466 444q-3 -17 -3 -31q0 -48 30.5 -76.5t77.5 -28.5q55 0 101 37.5t58 98.5q3 15 3 30q0 48 -31 77t-78 29q-55 0 -100.5 -37.5t-57.5 -98.5zM1184 1012q-16 -82 -67.5 -153t-127.5 -111q69 -35 104.5 -104.5t35.5 -151.5q0 -30 -7 -70q-37 -189 -213.5 -317.5
t-401.5 -128.5q-200 0 -324.5 103.5t-124.5 264.5q0 36 8 78q19 99 88.5 191t170.5 135q-99 64 -99 200q0 31 6 64q34 175 193.5 293.5t362.5 118.5q180 0 291.5 -95t111.5 -244q0 -38 -7 -73zM605 998q-2 -10 -2 -22q0 -36 22.5 -58t60.5 -22q44 0 77.5 29t41.5 73
q2 11 2 23q0 35 -22 57t-60 22q-44 0 -77.5 -29t-42.5 -73z" />
    <glyph glyph-name="nine" unicode="9" horiz-adv-x="1224" 
d="M80 0l402 474q-149 26 -242.5 122.5t-93.5 245.5q0 44 9 92q27 137 119 249.5t228 176.5t286 64q201 0 326.5 -112t125.5 -287q0 -45 -9 -91q-27 -140 -118 -248l-583 -686h-450zM826 930q3 17 3 32q0 49 -30 79.5t-79 30.5q-57 0 -103.5 -40.5t-58.5 -101.5
q-3 -16 -3 -31q0 -50 30.5 -80.5t79.5 -30.5q57 0 103 40.5t58 101.5z" />
    <glyph glyph-name="colon" unicode=":" horiz-adv-x="612" 
d="M10 197q18 93 96.5 156t179.5 63q89 0 142.5 -49.5t53.5 -127.5q0 -23 -4 -43q-19 -94 -97.5 -157t-179.5 -63q-88 0 -142 49.5t-54 126.5q0 20 5 45zM135 841q18 93 96.5 156t179.5 63q89 0 142.5 -49.5t53.5 -127.5q0 -23 -4 -43q-19 -94 -97.5 -157t-179.5 -63
q-88 0 -142 49.5t-54 126.5q0 20 5 45z" />
    <glyph glyph-name="semicolon" unicode=";" horiz-adv-x="612" 
d="M135 841q18 93 96.5 156t179.5 63q89 0 142.5 -49.5t53.5 -127.5q0 -23 -4 -43q-19 -94 -97.5 -157t-179.5 -63q-88 0 -142 49.5t-54 126.5q0 20 5 45zM10 196q18 94 96.5 157t179.5 63q89 0 142.5 -49.5t53.5 -127.5q0 -24 -4 -43q-11 -54 -45 -104l-228 -342h-266
l162 248q-45 21 -70.5 61.5t-25.5 91.5q0 20 5 45z" />
    <glyph glyph-name="less" unicode="&#x3c;" horiz-adv-x="1183" 
d="M1066 30l-942 518v232l942 518v-432l-422 -202l422 -202v-432z" />
    <glyph glyph-name="equal" unicode="=" horiz-adv-x="1184" 
d="M1092 728h-960v360h960v-360zM1092 240h-960v360h960v-360z" />
    <glyph glyph-name="greater" unicode="&#x3e;" horiz-adv-x="1183" 
d="M1099 548l-942 -518v432l422 202l-422 202v432l942 -518v-232z" />
    <glyph glyph-name="question" unicode="?" horiz-adv-x="1126" 
d="M270 464l70 362q165 0 254 38t102 104q1 5 1 15q0 33 -29 53t-79 20q-129 0 -280 -104l-110 320q108 70 239 111t250 41q200 0 323 -102.5t123 -264.5q0 -36 -8 -79q-27 -140 -137.5 -254.5t-271.5 -161.5l-19 -98h-428zM183 194q18 92 101.5 155t189.5 63
q94 0 151.5 -50t57.5 -128q0 -21 -4 -40q-18 -92 -101 -155t-189 -63q-94 0 -152 50.5t-58 128.5q0 22 4 39z" />
    <glyph glyph-name="at" unicode="@" horiz-adv-x="1952" 
d="M1067 460l30 156q-8 31 -34 50.5t-66 19.5q-56 0 -101 -40.5t-58 -107.5q-4 -20 -4 -38q0 -51 29 -80.5t76 -29.5q40 0 74 19.5t54 50.5zM1152 898l13 66h350l-103 -530q0 -35 19.5 -52.5t50.5 -17.5q54 0 106.5 67.5t71.5 166.5q10 49 10 100q0 104 -41.5 197.5
t-114 163.5t-178.5 111.5t-229 41.5q-184 0 -353.5 -87.5t-286.5 -239.5t-153 -335q-13 -66 -13 -133q0 -233 156.5 -381t418.5 -148q258 0 500 146l62 -188q-282 -170 -603 -170q-177 0 -325 53t-248.5 147t-156.5 224t-56 282q0 78 17 168q35 181 138 343t247 278.5
t326 184.5t371 68q174 0 320.5 -55.5t244.5 -150t152.5 -220.5t54.5 -267q0 -68 -14 -143q-42 -215 -190.5 -355.5t-330.5 -140.5q-94 0 -167.5 41t-100.5 111q-51 -69 -141 -110.5t-185 -41.5q-144 0 -229.5 95t-85.5 246q0 54 10 105q37 189 170.5 317.5t292.5 128.5
q61 0 115.5 -23.5t87.5 -62.5z" />
    <glyph glyph-name="A" unicode="A" horiz-adv-x="1404" 
d="M642 1400h464l184 -1400h-436l-18 246h-375l-111 -246h-436zM788 962l-182 -400h210z" />
    <glyph glyph-name="B" unicode="B" horiz-adv-x="1270" 
d="M660 0h-626l272 1400h572q173 0 275 -85t102 -222q0 -38 -7 -73q-19 -97 -85 -178t-156 -114q89 -26 139 -91t50 -157q0 -36 -7 -70q-34 -176 -185 -293t-344 -117zM854 968q2 10 2 24q0 37 -22 58.5t-60 21.5h-124l-41 -208h124q44 0 78 29t43 75zM779 438q2 10 2 23
q0 39 -24.5 63t-66.5 24h-142l-43 -220h142q48 0 85 31t47 79z" />
    <glyph glyph-name="C" unicode="C" horiz-adv-x="1416" 
d="M729 -24q-188 0 -334.5 75.5t-225.5 208t-79 300.5q0 65 14 140q39 201 171.5 367t326.5 261.5t408 95.5q296 0 476 -178l-279 -310q-44 54 -113.5 87t-154.5 33q-146 0 -262 -101.5t-145 -254.5q-8 -43 -8 -79q0 -123 75.5 -200t200.5 -77q84 0 172 37.5t158 96.5
l167 -308q-258 -194 -568 -194z" />
    <glyph glyph-name="D" unicode="D" horiz-adv-x="1456" 
d="M586 0h-552l272 1400h552q267 0 424 -149.5t157 -396.5q0 -74 -15 -154q-40 -203 -160 -362.5t-297.5 -248.5t-380.5 -89zM533 368h84q145 0 247 89.5t132 242.5q9 45 9 86q0 116 -68 181t-191 65h-84z" />
    <glyph glyph-name="E" unicode="E" horiz-adv-x="1164" 
d="M34 0l272 1400h932l-70 -356h-504l-32 -166h456l-67 -348h-456l-34 -174h522l-69 -356h-950z" />
    <glyph glyph-name="F" unicode="F" horiz-adv-x="1096" 
d="M34 0l272 1400h912l-71 -364h-484l-41 -210h436l-71 -364h-436l-89 -462h-428z" />
    <glyph glyph-name="G" unicode="G" horiz-adv-x="1482" 
d="M939 1056q-149 0 -263.5 -103t-145.5 -263q-8 -45 -8 -81q0 -126 75 -205.5t199 -79.5q62 0 111 24l33 168h-208l59 304h636l-126 -646q-124 -95 -271.5 -146.5t-300.5 -51.5q-188 0 -334.5 75.5t-225.5 208t-79 300.5q0 65 14 140q39 201 171.5 367t326.5 261.5
t408 95.5q296 0 476 -178l-279 -310q-44 54 -113.5 87t-154.5 33z" />
    <glyph glyph-name="H" unicode="H" horiz-adv-x="1436" 
d="M34 0l272 1400h428l-100 -512h312l100 512h428l-272 -1400h-428l101 520h-312l-101 -520h-428z" />
    <glyph glyph-name="I" unicode="I" horiz-adv-x="696" 
d="M734 1400l-272 -1400h-428l272 1400h428z" />
    <glyph glyph-name="J" unicode="J" horiz-adv-x="950" 
d="M396 486l178 914h428l-186 -954q-42 -213 -194.5 -341.5t-370.5 -128.5q-202 0 -327 78l164 342q72 -52 150 -52q57 0 101.5 40t56.5 102z" />
    <glyph glyph-name="K" unicode="K" horiz-adv-x="1310" 
d="M734 1400l-98 -502h64l314 502h448l-449 -682l247 -718h-448l-170 530h-77l-103 -530h-428l272 1400h428z" />
    <glyph glyph-name="L" unicode="L" horiz-adv-x="1064" 
d="M34 0l272 1400h428l-201 -1032h482l-71 -368h-910z" />
    <glyph glyph-name="M" unicode="M" horiz-adv-x="1740" 
d="M999 388h-308l-106 454l-163 -842h-388l272 1400h500l128 -552l344 552h500l-272 -1400h-388l163 842z" />
    <glyph glyph-name="N" unicode="N" horiz-adv-x="1436" 
d="M34 0l272 1400h468l154 -812l158 812h388l-272 -1400h-468l-155 812l-157 -812h-388z" />
    <glyph glyph-name="O" unicode="O" horiz-adv-x="1668" 
d="M532 700q-8 -43 -8 -79q0 -123 75.5 -200t200.5 -77q145 0 261.5 101.5t146.5 254.5q8 43 8 78q0 124 -76 201t-201 77q-146 0 -262 -101.5t-145 -254.5zM104 700q39 201 171.5 367t326.5 261.5t408 95.5q285 0 462.5 -165t177.5 -421q0 -63 -14 -138q-39 -201 -172 -367
t-327 -261.5t-408 -95.5q-188 0 -334.5 75.5t-225.5 208t-79 300.5q0 65 14 140z" />
    <glyph glyph-name="P" unicode="P" horiz-adv-x="1242" 
d="M681 428h-136l-83 -428h-428l272 1400h564q187 0 303 -109t116 -280q0 -50 -10 -97q-40 -207 -211.5 -346.5t-386.5 -139.5zM608 752h74q66 0 116.5 45.5t64.5 116.5q4 17 4 38q0 56 -33 90t-89 34h-74z" />
    <glyph glyph-name="Q" unicode="Q" horiz-adv-x="1668" 
d="M104 700q39 201 171.5 367t326.5 261.5t408 95.5q188 0 334.5 -75.5t225.5 -208t79 -300.5q0 -72 -13 -140q-47 -244 -233 -436l134 -196l-375 -270l-153 222q-140 -44 -280 -44q-188 0 -334.5 75.5t-225.5 208t-79 300.5q0 65 14 140zM532 700q-8 -43 -8 -79
q0 -123 75.5 -200t200.5 -77q145 0 261.5 101.5t146.5 254.5q8 43 8 78q0 124 -76 201t-201 77q-146 0 -262 -101.5t-145 -254.5z" />
    <glyph glyph-name="R" unicode="R" horiz-adv-x="1288" 
d="M572 468h-28l-90 -468h-420l272 1400h564q189 0 305.5 -102t116.5 -270q0 -44 -9 -94q-25 -127 -104 -229.5t-193 -163.5l162 -541h-460zM602 764h86q63 0 113 43.5t63 112.5q4 17 4 37q0 54 -32.5 86.5t-86.5 32.5h-86z" />
    <glyph glyph-name="S" unicode="S" horiz-adv-x="1212" 
d="M8 198l263 284q60 -74 143 -116t172 -42q46 0 82 25t43 61q2 12 2 18q0 38 -42.5 67.5t-150.5 54.5q-155 36 -247 125.5t-92 222.5q0 33 8 76q38 193 203.5 321.5t379.5 128.5q134 0 254 -47.5t204 -130.5l-253 -292q-132 130 -253 130q-37 0 -65.5 -21.5t-34.5 -52.5
q-2 -12 -2 -17q0 -32 36 -58.5t128 -48.5q174 -41 270.5 -133.5t96.5 -229.5q0 -44 -8 -81q-25 -129 -110.5 -234.5t-223 -168.5t-300.5 -63q-331 0 -503 222z" />
    <glyph glyph-name="T" unicode="T" horiz-adv-x="1128" 
d="M250 0l200 1032h-310l72 368h1048l-72 -368h-310l-200 -1032h-428z" />
    <glyph glyph-name="U" unicode="U" horiz-adv-x="1356" 
d="M720 1400l-182 -932q-2 -11 -2 -24q0 -44 29.5 -71t79.5 -27q57 0 99.5 34.5t53.5 87.5l182 932h428l-188 -964q-38 -192 -225.5 -325t-421.5 -133q-209 0 -342.5 108.5t-133.5 274.5q0 39 7 75l188 964h428z" />
    <glyph glyph-name="V" unicode="V" horiz-adv-x="1404" 
d="M834 0h-464l-184 1400h436l70 -932l434 932h436z" />
    <glyph glyph-name="W" unicode="W" horiz-adv-x="2008" 
d="M960 1400h432l4 -854l332 854h438l-630 -1400h-442l-30 826l-350 -826h-442l-86 1400h438v-854z" />
    <glyph glyph-name="X" unicode="X" horiz-adv-x="1332" 
d="M676 1400l85 -394l239 394h466l-482 -678l238 -722h-466l-105 438l-275 -438h-466l518 722l-218 678h466z" />
    <glyph glyph-name="Y" unicode="Y" horiz-adv-x="1340" 
d="M652 1400l97 -476l283 476h466l-611 -866l-103 -534h-428l103 534l-273 866h466z" />
    <glyph glyph-name="Z" unicode="Z" horiz-adv-x="1238" 
d="M55 328l675 704h-508l72 368h1014l-64 -328l-675 -704h558l-71 -368h-1064z" />
    <glyph glyph-name="bracketleft" unicode="[" horiz-adv-x="900" 
d="M11 -280l346 1780h704l-71 -368h-276l-203 -1044h276l-72 -368h-704z" />
    <glyph glyph-name="backslash" unicode="\" horiz-adv-x="1056" 
d="M507 -280l-336 1780h410l340 -1780h-414z" />
    <glyph glyph-name="bracketright" unicode="]" horiz-adv-x="900" 
d="M925 1500l-346 -1780h-703l71 368h276l203 1044h-276l71 368h704z" />
    <glyph glyph-name="asciicircum" unicode="^" horiz-adv-x="1264" 
d="M472 1400h360l400 -622h-436l-144 242l-144 -242h-436z" />
    <glyph glyph-name="underscore" unicode="_" horiz-adv-x="1000" 
d="M-187 -452l71 368h999l-71 -368h-999z" />
    <glyph glyph-name="grave" unicode="`" horiz-adv-x="880" 
d="M686 1460l161 -342h-382l-197 342h418z" />
    <glyph glyph-name="a" unicode="a" horiz-adv-x="1326" 
d="M710 0l15 80q-62 -47 -142 -75.5t-158 -28.5q-172 0 -278.5 117.5t-106.5 302.5q0 59 12 122q45 229 214 385.5t370 156.5q78 0 147 -28.5t112 -75.5l16 80h404l-201 -1036h-404zM795 440l30 156q-12 48 -51 76t-96 28q-81 0 -143 -52t-77 -130q-4 -17 -4 -38
q0 -64 41.5 -104t111.5 -40q57 0 107 28.5t81 75.5z" />
    <glyph glyph-name="b" unicode="b" horiz-adv-x="1326" 
d="M431 80l-15 -80h-404l283 1460h404l-98 -504q61 47 142 75.5t159 28.5q172 0 278 -117.5t106 -301.5q0 -59 -12 -123q-44 -229 -213 -385.5t-370 -156.5q-78 0 -147.5 28.5t-112.5 75.5zM531 596l-30 -156q12 -47 51.5 -75.5t96.5 -28.5q81 0 142.5 52t76.5 130
q4 17 4 39q0 64 -41 103.5t-111 39.5q-58 0 -108 -28.5t-81 -75.5z" />
    <glyph glyph-name="c" unicode="c" horiz-adv-x="1134" 
d="M872 436l158 -268q-101 -91 -228 -141.5t-265 -50.5q-220 0 -357.5 124t-137.5 317q0 51 10 101q30 151 131.5 275.5t251 195.5t313.5 71q124 0 224 -41.5t167 -116.5l-244 -288q-94 86 -209 86q-81 0 -143 -52t-77 -130q-4 -21 -4 -38q0 -64 41.5 -104t111.5 -40
q111 0 257 100z" />
    <glyph glyph-name="d" unicode="d" horiz-adv-x="1326" 
d="M710 0l15 80q-62 -47 -142 -75.5t-158 -28.5q-172 0 -278.5 117.5t-106.5 302.5q0 60 12 122q45 230 214 386t370 156q78 0 147 -28.5t112 -75.5l98 504h404l-283 -1460h-404zM795 440l30 156q-12 48 -51 76t-96 28q-81 0 -143 -52t-77 -130q-4 -21 -4 -38
q0 -64 41.5 -104t111.5 -40q57 0 107 28.5t81 75.5z" />
    <glyph glyph-name="e" unicode="e" horiz-adv-x="1240" 
d="M445 414q0 -78 41.5 -114t124.5 -36q128 0 273 110l151 -210q-209 -188 -494 -188q-226 0 -362.5 123t-136.5 316q0 52 10 103q30 151 130 275.5t246.5 195.5t307.5 71q208 0 336.5 -120t128.5 -307q0 -51 -10 -101q-13 -64 -43 -118h-703zM672 772q-132 0 -184 -140h308
v13q0 65 -30 96t-94 31z" />
    <glyph glyph-name="f" unicode="f" horiz-adv-x="806" 
d="M946 1444l-56 -288q-36 8 -98 8q-37 0 -63.5 -20t-32.5 -52l-11 -56h182l-69 -356h-182l-223 -1144h-416l223 1144h-128l69 356h128l12 64q21 107 93.5 189t184 126.5t244.5 44.5q82 0 143 -16z" />
    <glyph glyph-name="g" unicode="g" horiz-adv-x="1326" 
d="M795 440l30 156q-12 48 -51 76t-96 28q-81 0 -143 -52t-77 -130q-4 -21 -4 -38q0 -64 41.5 -104t111.5 -40q57 0 107 28.5t81 75.5zM720 52l10 56q-61 -47 -141.5 -75.5t-158.5 -28.5q-174 0 -281.5 111t-107.5 289q0 59 11 114q45 229 214 385.5t370 156.5
q78 0 147 -28.5t112 -75.5l16 80h404l-187 -960q-30 -152 -127.5 -275.5t-241 -194t-302.5 -70.5q-151 0 -282.5 42.5t-211.5 121.5l238 285q100 -97 281 -97q92 0 158.5 46t79.5 118z" />
    <glyph glyph-name="h" unicode="h" horiz-adv-x="1244" 
d="M711 1460l-100 -518q46 55 114.5 86.5t142.5 31.5q144 0 233 -86.5t89 -223.5q0 -35 -8 -80l-130 -670h-416l115 594q2 10 2 23q0 37 -24 60t-65 23q-34 0 -64.5 -18.5t-48.5 -47.5l-123 -634h-416l283 1460h416z" />
    <glyph glyph-name="i" unicode="i" horiz-adv-x="624" 
d="M4 0l201 1036h416l-201 -1036h-416zM237 1296q18 89 94.5 148.5t172.5 59.5q84 0 136.5 -47t52.5 -121q0 -21 -4 -40q-17 -89 -93.5 -148.5t-172.5 -59.5q-84 0 -137 47.5t-53 121.5q0 19 4 39z" />
    <glyph glyph-name="j" unicode="j" horiz-adv-x="624" 
d="M-3 -36l208 1072h416l-222 -1140q-30 -156 -164.5 -258t-307.5 -102q-77 0 -145 18l66 338h57q37 0 61 19.5t31 52.5zM237 1296q18 89 94.5 148.5t172.5 59.5q84 0 136.5 -47t52.5 -121q0 -21 -4 -40q-17 -89 -93.5 -148.5t-172.5 -59.5q-84 0 -137 47.5t-53 121.5
q0 19 4 39z" />
    <glyph glyph-name="k" unicode="k" horiz-adv-x="1172" 
d="M616 0l-66 378h-49l-73 -378h-416l283 1460h416l-141 -726h56l177 302h436l-320 -484l137 -552h-440z" />
    <glyph glyph-name="l" unicode="l" horiz-adv-x="624" 
d="M4 0l283 1460h416l-283 -1460h-416z" />
    <glyph glyph-name="m" unicode="m" horiz-adv-x="1868" 
d="M1175 634l-123 -634h-416l115 594q2 10 2 23q0 37 -24 60t-65 23q-34 0 -64.5 -18.5t-48.5 -47.5l-123 -634h-416l201 1036h416l-18 -94q46 55 114.5 86.5t142.5 31.5q99 0 174 -43t114 -119q61 71 150.5 116.5t185.5 45.5q144 0 233 -86.5t89 -223.5q0 -35 -8 -80
l-130 -670h-416l115 594q2 10 2 23q0 37 -24 60t-65 23q-34 0 -64.5 -18.5t-48.5 -47.5z" />
    <glyph glyph-name="n" unicode="n" horiz-adv-x="1244" 
d="M551 634l-123 -634h-416l201 1036h416l-18 -94q46 55 114.5 86.5t142.5 31.5q144 0 233 -86.5t89 -223.5q0 -35 -8 -80l-130 -670h-416l115 594q2 10 2 23q0 37 -24 60t-65 23q-34 0 -64.5 -18.5t-48.5 -47.5z" />
    <glyph glyph-name="o" unicode="o" horiz-adv-x="1284" 
d="M52 518q30 151 131.5 275.5t251 195.5t313.5 71q220 0 357 -123.5t137 -316.5q0 -52 -10 -102q-29 -151 -130.5 -275.5t-250.5 -195.5t-314 -71q-220 0 -357.5 124t-137.5 317q0 51 10 101zM458 518q-4 -17 -4 -38q0 -64 41.5 -104t111.5 -40q80 0 142 52t77 130
q4 17 4 39q0 64 -41 103.5t-111 39.5q-81 0 -143 -52t-77 -130z" />
    <glyph glyph-name="p" unicode="p" horiz-adv-x="1326" 
d="M431 80l-106 -544h-404l292 1500h404l-16 -80q61 47 142 75.5t159 28.5q172 0 278 -117.5t106 -301.5q0 -59 -12 -123q-44 -229 -213 -385.5t-370 -156.5q-78 0 -147.5 28.5t-112.5 75.5zM531 596l-30 -156q12 -47 51.5 -75.5t96.5 -28.5q81 0 142.5 52t76.5 130
q4 17 4 39q0 64 -41 103.5t-111 39.5q-58 0 -108 -28.5t-81 -75.5z" />
    <glyph glyph-name="q" unicode="q" horiz-adv-x="1326" 
d="M619 -464l106 544q-62 -47 -142 -75.5t-158 -28.5q-172 0 -278.5 117.5t-106.5 302.5q0 59 12 122q45 229 214 385.5t370 156.5q78 0 147 -28.5t112 -75.5l16 80h404l-292 -1500h-404zM795 440l30 156q-12 48 -51 76t-96 28q-81 0 -143 -52t-77 -130q-4 -21 -4 -38
q0 -64 41.5 -104t111.5 -40q57 0 107 28.5t81 75.5z" />
    <glyph glyph-name="r" unicode="r" horiz-adv-x="870" 
d="M712 700q-48 0 -92.5 -25t-74.5 -69l-117 -606h-416l201 1036h416l-22 -112q36 58 98.5 97t124.5 39q51 0 88 -28l-91 -358q-63 26 -115 26z" />
    <glyph glyph-name="s" unicode="s" horiz-adv-x="964" 
d="M-31 148l211 228q37 -51 98.5 -79.5t130.5 -28.5q68 0 81 38q2 6 2 11q0 38 -108 63q-128 30 -199 105t-71 181q0 32 6 64q28 143 162 236.5t307 93.5q105 0 201 -38.5t169 -105.5l-206 -226q-76 78 -179 78q-49 0 -60 -35q-3 -9 -3 -15q0 -42 93 -63q142 -30 214 -102.5
t72 -177.5q0 -25 -7 -65q-29 -144 -169 -239t-326 -95q-136 0 -246.5 45.5t-172.5 126.5z" />
    <glyph glyph-name="t" unicode="t" horiz-adv-x="832" 
d="M616 680l-54 -274q-2 -12 -2 -18q0 -56 70 -56q73 0 124 8l-65 -330q-99 -34 -250 -34q-141 0 -227 81t-86 210q0 33 8 75l66 338h-128l69 356h128l51 264l423 36l-58 -300h192l-69 -356h-192z" />
    <glyph glyph-name="u" unicode="u" horiz-adv-x="1244" 
d="M694 402l123 634h416l-201 -1036h-416l18 94q-47 -55 -115 -86.5t-142 -31.5q-144 0 -233 86.5t-89 223.5q0 35 8 80l130 670h416l-116 -594q-2 -14 -2 -21q0 -37 24.5 -61t65.5 -24q34 0 64 18.5t49 47.5z" />
    <glyph glyph-name="v" unicode="v" horiz-adv-x="1128" 
d="M1213 1036l-511 -1036h-476l-109 1036h436l-5 -600l229 600h436z" />
    <glyph glyph-name="w" unicode="w" horiz-adv-x="1648" 
d="M727 1036h396l-13 -558l207 558h416l-485 -1036h-426l-8 464l-188 -464h-426l-83 1036h416l-11 -558z" />
    <glyph glyph-name="x" unicode="x" horiz-adv-x="1128" 
d="M-84 0l372 528l-145 508h436l35 -262l137 262h436l-343 -508l168 -528h-436l-58 282l-166 -282h-436z" />
    <glyph glyph-name="y" unicode="y" horiz-adv-x="1128" 
d="M777 1036h436l-798 -1500h-438l289 464l-149 1036h436l14 -506z" />
    <glyph glyph-name="z" unicode="z" horiz-adv-x="1042" 
d="M-34 0l56 292l448 392h-346l69 352h860l-57 -292l-448 -392h392l-68 -352h-906z" />
    <glyph glyph-name="braceleft" unicode="{" horiz-adv-x="900" 
d="M74 426l72 368q78 0 133.5 44t69.5 118l39 200q29 147 152.5 245.5t282.5 98.5h238l-71 -368h-72q-46 0 -81.5 -27t-43.5 -69l-39 -200q-17 -86 -74 -145.5t-144 -80.5q66 -17 100.5 -62t34.5 -111q0 -31 -5 -53l-39 -200q-2 -14 -2 -19q0 -35 24.5 -56t65.5 -21h72
l-72 -368h-238q-139 0 -223.5 77t-84.5 199q0 36 7 68l39 200q4 26 4 36q0 58 -38.5 92t-106.5 34z" />
    <glyph glyph-name="bar" unicode="|" horiz-adv-x="672" 
d="M152 -280v1780h408v-1780h-408z" />
    <glyph glyph-name="braceright" unicode="}" horiz-adv-x="900" 
d="M862 794l-72 -368q-78 0 -133.5 -44t-69.5 -118l-39 -200q-29 -147 -152.5 -245.5t-282.5 -98.5h-237l71 368h72q46 0 81 27t43 69l39 200q17 86 74.5 145.5t143.5 80.5q-65 18 -100 63.5t-35 110.5q0 27 5 52l39 200q2 14 2 19q0 35 -24 56t-65 21h-72l71 368h238
q139 0 223.5 -77t84.5 -199q0 -36 -7 -68l-39 -200q-4 -24 -4 -36q0 -58 38.5 -92t106.5 -34z" />
    <glyph glyph-name="asciitilde" unicode="~" horiz-adv-x="1184" 
d="M846 394q-109 0 -226 80l-45 30.5t-37 19t-38 8.5q-48 0 -59 -87l-386 61q24 199 106.5 304.5t216.5 105.5q109 0 226 -80l45 -30.5t37 -19t38 -8.5q48 0 59 87l386 -61q-24 -199 -106.5 -304.5t-216.5 -105.5z" />
    <glyph glyph-name="uni00A0" unicode="&#xa0;" horiz-adv-x="612" 
 />
    <glyph glyph-name="exclamdown" unicode="&#xa1;" horiz-adv-x="636" 
d="M115 572l-182 -936h428l182 936h-428zM133 842q18 92 101.5 155t189.5 63q94 0 151.5 -50t57.5 -128q0 -21 -4 -40q-18 -92 -101 -155t-189 -63q-94 0 -152 50.5t-58 128.5q0 22 4 39z" />
    <glyph glyph-name="cent" unicode="&#xa2;" horiz-adv-x="1134" 
d="M320 -184l36 186q-146 44 -230 154.5t-84 259.5q0 52 10 102q36 183 174.5 323t329.5 193l37 186h352l-36 -181q139 -37 230 -137l-244 -288q-94 86 -209 86q-81 0 -143 -52t-77 -130q-4 -21 -4 -38q0 -64 41.5 -104t111.5 -40q111 0 257 100l158 -268
q-142 -128 -323 -171l-35 -181h-352z" />
    <glyph glyph-name="sterling" unicode="&#xa3;" horiz-adv-x="1183" 
d="M283 526h-169l50 260h103q-19 78 -19 149q0 42 8 87q33 168 193 285t359 117q155 0 261 -72.5t133 -187.5l-389 -190q-19 82 -76 82q-20 0 -37 -18.5t-22 -45.5q-4 -19 -4 -45q0 -64 25 -152l2 -9h255l-50 -260h-197q-18 -54 -55.5 -96t-86.5 -62h506l-71 -368h-984
l66 344q79 19 130 66.5t69 115.5z" />
    <glyph glyph-name="currency" unicode="&#xa4;" horiz-adv-x="1290" 
d="M165 652q0 112 53 210l-165 168l216 206l169 -171q107 49 227 49t227 -49l169 171l216 -206l-166 -168q54 -97 54 -210q0 -114 -54 -211l166 -167l-216 -206l-169 171q-104 -49 -227 -49t-227 49l-169 -171l-216 206l165 167q-53 98 -53 211zM529 652q0 -63 38.5 -104.5
t97.5 -41.5t97.5 41.5t38.5 104.5t-38.5 104.5t-97.5 41.5t-97.5 -41.5t-38.5 -104.5z" />
    <glyph glyph-name="yen" unicode="&#xa5;" horiz-adv-x="1340" 
d="M652 1400l95 -486l285 486h466l-469 -654h206l-35 -180h-300l-9 -12l-9 -48h306l-35 -180h-306l-63 -326h-428l63 326h-306l35 180h306l9 48l-4 12h-299l35 180h205l-214 654h466z" />
    <glyph glyph-name="brokenbar" unicode="&#xa6;" horiz-adv-x="672" 
d="M152 700v800h408v-800h-408zM152 -280v800h408v-800h-408z" />
    <glyph glyph-name="section" unicode="&#xa7;" horiz-adv-x="1038" 
d="M1013 543q-35 -183 -219 -282q48 -63 48 -153q0 -35 -7 -69q-28 -143 -168.5 -241t-317.5 -98q-154 0 -254.5 77t-104.5 198l334 78q2 -35 24 -53t56 -18q35 0 61 17.5t31 44.5q1 5 1 13q0 37 -42 59l-237 118q-89 45 -135.5 119.5t-46.5 162.5q0 32 6 65q18 90 74.5 162
t143.5 119q-47 64 -47 150q0 38 7 73q29 143 169 241t317 98q154 0 255 -77t105 -198l-334 -78q-3 35 -25 53t-56 18q-35 0 -61 -17.5t-31 -44.5q-1 -5 -1 -11q0 -39 42 -61l237 -118q89 -45 135.5 -118.5t46.5 -162.5q0 -33 -6 -66zM621 655l-99 48q-51 -5 -90.5 -39
t-49.5 -83q-2 -10 -2 -24q0 -60 55 -88l97 -49q52 5 91.5 39t49.5 84q3 15 3 25q0 60 -55 87z" />
    <glyph glyph-name="dieresis" unicode="&#xa8;" horiz-adv-x="880" 
d="M180 1292q15 80 80.5 134t147.5 54q72 0 116 -42.5t44 -108.5q0 -16 -4 -37q-16 -80 -81.5 -134t-147.5 -54q-71 0 -115 42t-44 108q0 17 4 38zM618 1292q15 80 80.5 134t147.5 54q72 0 116 -42.5t44 -108.5q0 -16 -4 -37q-16 -80 -81.5 -134t-147.5 -54q-71 0 -115 42
t-44 108q0 17 4 38z" />
    <glyph glyph-name="copyright" unicode="&#xa9;" horiz-adv-x="1608" 
d="M858 300q-182 0 -305.5 115t-123.5 283t123.5 283t305.5 115q168 0 301 -111l-144 -203q-81 79 -157 79q-63 0 -104.5 -46.5t-41.5 -116.5t41.5 -116.5t104.5 -46.5q78 0 162 87l149 -203q-136 -119 -311 -119zM100 700q0 149 56.5 283t153.5 231t231 153.5t283 56.5
t283 -56.5t231 -153.5t153.5 -231t56.5 -283t-56.5 -283t-153.5 -231t-231 -153.5t-283 -56.5t-283 56.5t-231 153.5t-153.5 231t-56.5 283zM232 700q0 -165 78.5 -303t214.5 -217.5t299 -79.5t299 79.5t214.5 217.5t78.5 303t-78.5 303t-214.5 217.5t-299 79.5t-299 -79.5
t-214.5 -217.5t-78.5 -303z" />
    <glyph glyph-name="ordfeminine" unicode="&#xaa;" horiz-adv-x="938" 
d="M538 918q35 0 65.5 18t47.5 46l21 108q-7 28 -30.5 46t-57.5 18q-48 0 -87.5 -34t-48.5 -84q-2 -11 -2 -25q0 -41 25.5 -67t66.5 -26zM591 672l10 52q-83 -68 -190 -68q-122 0 -197 82.5t-75 211.5q0 41 9 86q31 161 149.5 270.5t261.5 109.5q106 0 164 -68l10 52h300
l-142 -728h-300z" />
    <glyph glyph-name="guillemotleft" unicode="&#xab;" horiz-adv-x="1310" 
d="M70 533l35 182l669 364l-60 -308l-290 -147l233 -147l-60 -308zM630 533l35 182l669 364l-60 -308l-290 -147l233 -147l-60 -308z" />
    <glyph glyph-name="logicalnot" unicode="&#xac;" horiz-adv-x="1184" 
d="M688 210v270h-556v368h960v-638h-404z" />
    <glyph glyph-name="uni00AD" unicode="&#xad;" horiz-adv-x="876" 
d="M757 480h-652l71 368h652z" />
    <glyph glyph-name="registered" unicode="&#xae;" horiz-adv-x="1608" 
d="M100 700q0 149 56.5 283t153.5 231t231 153.5t283 56.5t283 -56.5t231 -153.5t153.5 -231t56.5 -283t-56.5 -283t-153.5 -231t-231 -153.5t-283 -56.5t-283 56.5t-231 153.5t-153.5 231t-56.5 283zM232 700q0 -165 78.5 -303t214.5 -217.5t299 -79.5t299 79.5
t214.5 217.5t78.5 303t-78.5 303t-214.5 217.5t-299 79.5t-299 -79.5t-214.5 -217.5t-78.5 -303zM803 567h14l96 -253h269l-132 307q103 74 103 204q0 114 -80.5 186.5t-201.5 72.5h-315v-770h247v253zM840 741h-37v154h37q29 0 48.5 -21.5t19.5 -55.5t-19 -55.5t-49 -21.5z
" />
    <glyph glyph-name="macron" unicode="&#xaf;" horiz-adv-x="880" 
d="M221 1140l58 296h680l-58 -296h-680z" />
    <glyph glyph-name="degree" unicode="&#xb0;" horiz-adv-x="816" 
d="M108 1124q0 126 92.5 213t227.5 87t227.5 -87t92.5 -213t-92.5 -213t-227.5 -87t-227.5 87t-92.5 213zM354 1124q0 -32 21 -53t53 -21t53 21t21 53t-21 53t-53 21t-53 -21t-21 -53z" />
    <glyph glyph-name="plusminus" unicode="&#xb1;" horiz-adv-x="1184" 
d="M1092 0h-960v328h960v-328zM410 381v280h-278v328h278v280h404v-280h278v-328h-278v-280h-404z" />
    <glyph glyph-name="twosuperior" unicode="&#xb2;" 
d="M710 892l-194 -175h254l-52 -265h-644l47 238l377 344q44 40 51 71q2 8 2 15q0 15 -9 24.5t-25 9.5q-42 0 -77 -75l-256 79q40 114 148.5 190t243.5 76q130 0 211 -63t81 -163q0 -20 -5 -47q-29 -146 -153 -259z" />
    <glyph glyph-name="threesuperior" unicode="&#xb3;" 
d="M485 767q1 5 1 15q0 26 -17 43t-44 17q-22 0 -52 -15l-91 149l200 167h-265l50 257h610l-48 -244l-189 -145q158 -64 158 -219q0 -30 -6 -62q-25 -129 -148.5 -215.5t-281.5 -86.5q-108 0 -190.5 45.5t-115.5 125.5l212 183q45 -91 128 -91q32 0 57 21.5t32 54.5z" />
    <glyph glyph-name="acute" unicode="&#xb4;" horiz-adv-x="880" 
d="M267 1118l293 342h418l-329 -342h-382z" />
    <glyph glyph-name="mu" unicode="&#xb5;" horiz-adv-x="1264" 
d="M-79 -464l292 1500h416l-115 -590q-2 -14 -2 -27q0 -83 65 -83q43 0 84 32.5t63 85.5l113 582h416l-201 -1036h-416l21 110q-33 -59 -77.5 -96.5t-83.5 -37.5q-54 0 -64 45l-95 -485h-416z" />
    <glyph glyph-name="paragraph" unicode="&#xb6;" horiz-adv-x="1195" 
d="M545 536h-50q-188 0 -316 124.5t-128 307.5t128 307.5t316 124.5h598v-1662h-228v1424h-92v-1424h-228v798z" />
    <glyph glyph-name="periodcentered" unicode="&#xb7;" horiz-adv-x="612" 
d="M99 658q18 93 96.5 156t179.5 63q89 0 142.5 -49.5t53.5 -127.5q0 -23 -4 -43q-19 -94 -97.5 -157t-179.5 -63q-88 0 -142 49.5t-54 126.5q0 20 5 45z" />
    <glyph glyph-name="cedilla" unicode="&#xb8;" horiz-adv-x="880" 
d="M299 -305q2 6 2 12q0 37 -72 37q-41 0 -69 -4l-54 74l135 186h270l-101 -114q72 -20 114 -62.5t42 -98.5q0 -14 -3 -29q-19 -93 -126 -154.5t-248 -61.5q-150 0 -232 69l125 149q23 -19 59.5 -30.5t70.5 -11.5q74 0 87 39z" />
    <glyph glyph-name="onesuperior" unicode="&#xb9;" 
d="M533 1400h263l-185 -948h-311l129 664l-146 -73l-68 200z" />
    <glyph glyph-name="ordmasculine" unicode="&#xba;" horiz-adv-x="938" 
d="M157 1036q31 159 172.5 269.5t314.5 110.5q152 0 249 -88.5t97 -222.5q0 -35 -7 -69q-31 -159 -172.5 -269.5t-314.5 -110.5q-152 0 -249 88.5t-97 222.5q0 35 7 69zM457 1036q-2 -9 -2 -25q0 -41 25 -67t67 -26q48 0 87 34t49 84q2 9 2 25q0 41 -25 67t-67 26
q-48 0 -87 -34t-49 -84z" />
    <glyph glyph-name="guillemotright" unicode="&#xbb;" horiz-adv-x="1310" 
d="M1281 715l-35 -182l-669 -364l60 308l291 147l-234 147l60 308zM721 715l-35 -182l-669 -364l60 308l291 147l-234 147l60 308z" />
    <glyph glyph-name="onequarter" unicode="&#xbc;" horiz-adv-x="1970" 
d="M400 0l956 1400h286l-954 -1400h-288zM533 1400h263l-185 -948h-311l129 664l-146 -73l-68 200zM1105 147l43 221l495 580h268l-110 -562h100l-46 -239h-100l-29 -147h-281l29 147h-369zM1383 386h137l40 204z" />
    <glyph glyph-name="onehalf" unicode="&#xbd;" horiz-adv-x="1970" 
d="M400 0l956 1400h286l-954 -1400h-288zM533 1400h263l-185 -948h-311l129 664l-146 -73l-68 200zM1772 440l-194 -175h254l-52 -265h-644l47 238l377 344q44 40 51 71q2 8 2 15q0 15 -9 24.5t-25 9.5q-42 0 -77 -75l-256 79q40 114 148.5 190t243.5 76q130 0 211 -63
t81 -163q0 -20 -5 -47q-29 -146 -153 -259z" />
    <glyph glyph-name="threequarters" unicode="&#xbe;" horiz-adv-x="1970" 
d="M485 767q1 5 1 15q0 26 -17 43t-44 17q-22 0 -52 -15l-91 149l200 167h-265l50 257h610l-48 -244l-189 -145q158 -64 158 -219q0 -30 -6 -62q-25 -129 -148.5 -215.5t-281.5 -86.5q-108 0 -190.5 45.5t-115.5 125.5l212 183q45 -91 128 -91q32 0 57 21.5t32 54.5zM400 0
l956 1400h286l-954 -1400h-288zM1105 147l43 221l495 580h268l-110 -562h100l-46 -239h-100l-29 -147h-281l29 147h-369zM1383 386h137l40 204z" />
    <glyph glyph-name="questiondown" unicode="&#xbf;" horiz-adv-x="1126" 
d="M857 572l-71 -362q-165 0 -253.5 -38t-101.5 -104q-1 -5 -1 -15q0 -33 29 -53t79 -20q127 0 280 104l110 -320q-107 -70 -239 -111t-251 -41q-199 0 -322 102.5t-123 263.5q0 35 8 80q28 141 138 255t271 161l19 98h428zM447 842q18 92 101.5 155t189.5 63
q94 0 151.5 -50t57.5 -128q0 -21 -4 -40q-18 -92 -101 -155t-189 -63q-94 0 -152 50.5t-58 128.5q0 22 4 39z" />
    <glyph glyph-name="Agrave" unicode="&#xc0;" horiz-adv-x="1404" 
d="M642 1400h464l184 -1400h-436l-18 246h-375l-111 -246h-436zM788 962l-182 -400h210zM1001 1850l161 -342h-382l-197 342h418z" />
    <glyph glyph-name="Aacute" unicode="&#xc1;" horiz-adv-x="1404" 
d="M642 1400h464l184 -1400h-436l-18 246h-375l-111 -246h-436zM788 962l-182 -400h210zM622 1508l293 342h418l-329 -342h-382z" />
    <glyph glyph-name="Acircumflex" unicode="&#xc2;" horiz-adv-x="1404" 
d="M642 1400h464l184 -1400h-436l-18 246h-375l-111 -246h-436zM788 962l-182 -400h210zM1119 1850l226 -342h-372l-57 110l-99 -110h-372l358 342h316z" />
    <glyph glyph-name="Atilde" unicode="&#xc3;" horiz-adv-x="1404" 
d="M642 1400h464l184 -1400h-436l-18 246h-375l-111 -246h-436zM788 962l-182 -400h210zM911 1545q-52 31 -73 31q-31 0 -58 -66l-291 57q45 125 122 189.5t176 64.5q85 0 152 -40q50 -31 73 -31q31 0 58 66l291 -57q-45 -125 -122 -189.5t-176 -64.5q-85 0 -152 40z" />
    <glyph glyph-name="Adieresis" unicode="&#xc4;" horiz-adv-x="1404" 
d="M642 1400h464l184 -1400h-436l-18 246h-375l-111 -246h-436zM788 962l-182 -400h210zM514 1664q15 80 80.5 134t147.5 54q72 0 116 -42.5t44 -108.5q0 -16 -4 -37q-16 -80 -81.5 -134t-147.5 -54q-71 0 -115 42t-44 108q0 17 4 38zM952 1664q15 80 80.5 134t147.5 54
q72 0 116 -42.5t44 -108.5q0 -16 -4 -37q-16 -80 -81.5 -134t-147.5 -54q-71 0 -115 42t-44 108q0 17 4 38z" />
    <glyph glyph-name="Aring" unicode="&#xc5;" horiz-adv-x="1404" 
d="M642 1400h464l184 -1400h-436l-18 246h-375l-111 -246h-436zM788 962l-182 -400h210zM875 1686q-1 -5 -1 -10q0 -19 12 -30.5t33 -11.5q24 0 42 14.5t22 37.5q1 6 1 12q0 18 -11.5 29t-32.5 11q-24 0 -42 -14.5t-23 -37.5zM673 1686q19 99 106.5 166t195.5 67
q95 0 154.5 -53t59.5 -136q0 -23 -4 -44q-19 -99 -106 -166t-195 -67q-95 0 -155 53.5t-60 137.5q0 22 4 42z" />
    <glyph glyph-name="AE" unicode="&#xc6;" horiz-adv-x="1910" 
d="M346 0h-436l994 1400h1080l-70 -356h-504l-32 -166h456l-67 -348h-456l-34 -174h522l-69 -356h-940l47 246h-332zM978 972l-266 -410h187z" />
    <glyph glyph-name="Ccedilla" unicode="&#xc7;" horiz-adv-x="1416" 
d="M659 -305q2 6 2 12q0 37 -72 37q-41 0 -69 -4l-54 74l125 173q-228 38 -364.5 194.5t-136.5 378.5q0 65 14 140q39 201 171.5 367t326.5 261.5t408 95.5q296 0 476 -178l-279 -310q-44 54 -113.5 87t-154.5 33q-146 0 -262 -101.5t-145 -254.5q-8 -43 -8 -79
q0 -123 75.5 -200t200.5 -77q84 0 172 37.5t158 96.5l167 -308q-200 -151 -439 -184l-88 -100q72 -20 114 -62.5t42 -98.5q0 -14 -3 -29q-19 -93 -126 -154.5t-248 -61.5q-150 0 -232 69l125 149q23 -19 59.5 -30.5t70.5 -11.5q74 0 87 39z" />
    <glyph glyph-name="Egrave" unicode="&#xc8;" horiz-adv-x="1164" 
d="M34 0l272 1400h932l-70 -356h-504l-32 -166h456l-67 -348h-456l-34 -174h522l-69 -356h-950zM856 1850l161 -342h-382l-197 342h418z" />
    <glyph glyph-name="Eacute" unicode="&#xc9;" horiz-adv-x="1164" 
d="M34 0l272 1400h932l-70 -356h-504l-32 -166h456l-67 -348h-456l-34 -174h522l-69 -356h-950zM511 1508l293 342h418l-329 -342h-382z" />
    <glyph glyph-name="Ecircumflex" unicode="&#xca;" horiz-adv-x="1164" 
d="M34 0l272 1400h932l-70 -356h-504l-32 -166h456l-67 -348h-456l-34 -174h522l-69 -356h-950zM1010 1850l226 -342h-372l-57 110l-99 -110h-372l358 342h316z" />
    <glyph glyph-name="Edieresis" unicode="&#xcb;" horiz-adv-x="1164" 
d="M34 0l272 1400h932l-70 -356h-504l-32 -166h456l-67 -348h-456l-34 -174h522l-69 -356h-950zM420 1664q15 80 80.5 134t147.5 54q72 0 116 -42.5t44 -108.5q0 -16 -4 -37q-16 -80 -81.5 -134t-147.5 -54q-71 0 -115 42t-44 108q0 17 4 38zM858 1664q15 80 80.5 134
t147.5 54q72 0 116 -42.5t44 -108.5q0 -16 -4 -37q-16 -80 -81.5 -134t-147.5 -54q-71 0 -115 42t-44 108q0 17 4 38z" />
    <glyph glyph-name="Igrave" unicode="&#xcc;" horiz-adv-x="696" 
d="M734 1400l-272 -1400h-428l272 1400h428zM646 1850l161 -342h-382l-197 342h418z" />
    <glyph glyph-name="Iacute" unicode="&#xcd;" horiz-adv-x="696" 
d="M734 1400l-272 -1400h-428l272 1400h428zM275 1508l293 342h418l-329 -342h-382z" />
    <glyph glyph-name="Icircumflex" unicode="&#xce;" horiz-adv-x="696" 
d="M734 1400l-272 -1400h-428l272 1400h428zM765 1850l226 -342h-372l-57 110l-99 -110h-372l358 342h316z" />
    <glyph glyph-name="Idieresis" unicode="&#xcf;" horiz-adv-x="696" 
d="M734 1400l-272 -1400h-428l272 1400h428zM160 1664q15 80 80.5 134t147.5 54q72 0 116 -42.5t44 -108.5q0 -16 -4 -37q-16 -80 -81.5 -134t-147.5 -54q-71 0 -115 42t-44 108q0 17 4 38zM598 1664q15 80 80.5 134t147.5 54q72 0 116 -42.5t44 -108.5q0 -16 -4 -37
q-16 -80 -81.5 -134t-147.5 -54q-71 0 -115 42t-44 108q0 17 4 38z" />
    <glyph glyph-name="Eth" unicode="&#xd0;" horiz-adv-x="1502" 
d="M632 0h-552l113 584h-160l45 232h160l114 584h552q267 0 424 -149.5t157 -396.5q0 -74 -15 -154q-40 -203 -160 -362.5t-297.5 -248.5t-380.5 -89zM579 368h84q145 0 247 89.5t132 242.5q9 45 9 86q0 116 -68 181t-191 65h-84l-42 -216h172l-45 -232h-172z" />
    <glyph glyph-name="Ntilde" unicode="&#xd1;" horiz-adv-x="1436" 
d="M926 1545q-52 31 -73 31q-31 0 -58 -66l-291 57q45 125 122 189.5t176 64.5q85 0 152 -40q50 -31 73 -31q31 0 58 66l291 -57q-45 -125 -122 -189.5t-176 -64.5q-85 0 -152 40zM34 0l272 1400h468l154 -812l158 812h388l-272 -1400h-468l-155 812l-157 -812h-388z" />
    <glyph glyph-name="Ograve" unicode="&#xd2;" horiz-adv-x="1668" 
d="M532 700q-8 -43 -8 -79q0 -123 75.5 -200t200.5 -77q145 0 261.5 101.5t146.5 254.5q8 43 8 78q0 124 -76 201t-201 77q-146 0 -262 -101.5t-145 -254.5zM104 700q39 201 171.5 367t326.5 261.5t408 95.5q285 0 462.5 -165t177.5 -421q0 -63 -14 -138q-39 -201 -172 -367
t-327 -261.5t-408 -95.5q-188 0 -334.5 75.5t-225.5 208t-79 300.5q0 65 14 140zM1093 1850l161 -342h-382l-197 342h418z" />
    <glyph glyph-name="Oacute" unicode="&#xd3;" horiz-adv-x="1668" 
d="M532 700q-8 -43 -8 -79q0 -123 75.5 -200t200.5 -77q145 0 261.5 101.5t146.5 254.5q8 43 8 78q0 124 -76 201t-201 77q-146 0 -262 -101.5t-145 -254.5zM104 700q39 201 171.5 367t326.5 261.5t408 95.5q285 0 462.5 -165t177.5 -421q0 -63 -14 -138q-39 -201 -172 -367
t-327 -261.5t-408 -95.5q-188 0 -334.5 75.5t-225.5 208t-79 300.5q0 65 14 140zM800 1508l293 342h418l-329 -342h-382z" />
    <glyph glyph-name="Ocircumflex" unicode="&#xd4;" horiz-adv-x="1668" 
d="M532 700q-8 -43 -8 -79q0 -123 75.5 -200t200.5 -77q145 0 261.5 101.5t146.5 254.5q8 43 8 78q0 124 -76 201t-201 77q-146 0 -262 -101.5t-145 -254.5zM104 700q39 201 171.5 367t326.5 261.5t408 95.5q285 0 462.5 -165t177.5 -421q0 -63 -14 -138q-39 -201 -172 -367
t-327 -261.5t-408 -95.5q-188 0 -334.5 75.5t-225.5 208t-79 300.5q0 65 14 140zM1251 1850l226 -342h-372l-57 110l-99 -110h-372l358 342h316z" />
    <glyph glyph-name="Otilde" unicode="&#xd5;" horiz-adv-x="1668" 
d="M532 700q-8 -43 -8 -79q0 -123 75.5 -200t200.5 -77q145 0 261.5 101.5t146.5 254.5q8 43 8 78q0 124 -76 201t-201 77q-146 0 -262 -101.5t-145 -254.5zM104 700q39 201 171.5 367t326.5 261.5t408 95.5q285 0 462.5 -165t177.5 -421q0 -63 -14 -138q-39 -201 -172 -367
t-327 -261.5t-408 -95.5q-188 0 -334.5 75.5t-225.5 208t-79 300.5q0 65 14 140zM1043 1545q-52 31 -73 31q-31 0 -58 -66l-291 57q45 125 122 189.5t176 64.5q85 0 152 -40q50 -31 73 -31q31 0 58 66l291 -57q-45 -125 -122 -189.5t-176 -64.5q-85 0 -152 40z" />
    <glyph glyph-name="Odieresis" unicode="&#xd6;" horiz-adv-x="1668" 
d="M532 700q-8 -43 -8 -79q0 -123 75.5 -200t200.5 -77q145 0 261.5 101.5t146.5 254.5q8 43 8 78q0 124 -76 201t-201 77q-146 0 -262 -101.5t-145 -254.5zM104 700q39 201 171.5 367t326.5 261.5t408 95.5q285 0 462.5 -165t177.5 -421q0 -63 -14 -138q-39 -201 -172 -367
t-327 -261.5t-408 -95.5q-188 0 -334.5 75.5t-225.5 208t-79 300.5q0 65 14 140zM646 1664q15 80 80.5 134t147.5 54q72 0 116 -42.5t44 -108.5q0 -16 -4 -37q-16 -80 -81.5 -134t-147.5 -54q-71 0 -115 42t-44 108q0 17 4 38zM1084 1664q15 80 80.5 134t147.5 54
q72 0 116 -42.5t44 -108.5q0 -16 -4 -37q-16 -80 -81.5 -134t-147.5 -54q-71 0 -115 42t-44 108q0 17 4 38z" />
    <glyph glyph-name="multiply" unicode="&#xd7;" horiz-adv-x="1184" 
d="M104 430l244 237l-244 237l261 259l247 -240l247 240l261 -259l-244 -237l244 -237l-261 -259l-247 240l-247 -240z" />
    <glyph glyph-name="Oslash" unicode="&#xd8;" horiz-adv-x="1668" 
d="M104 700q39 201 171.5 367t326.5 261.5t408 95.5q180 0 326 -72l103 108h286l-222 -232q147 -160 147 -390q0 -65 -14 -138q-39 -201 -172 -367t-327 -261.5t-408 -95.5q-195 0 -345 81l-112 -117h-286l236 247q-132 154 -132 373q0 65 14 140zM1214 700q7 35 7 73
q0 70 -27 132l-517 -541q54 -24 123 -24q145 0 264.5 104t149.5 256zM526 700q-8 -42 -8 -76q0 -57 19 -109l504 528q-48 17 -101 17q-145 0 -265 -104t-149 -256z" />
    <glyph glyph-name="Ugrave" unicode="&#xd9;" horiz-adv-x="1356" 
d="M935 1850l161 -342h-382l-197 342h418zM538 468l182 932h-428l-188 -964q-7 -36 -7 -75q0 -166 133.5 -274.5t342.5 -108.5q234 0 421.5 133t225.5 325l188 964h-428l-182 -932q-11 -53 -53.5 -87.5t-99.5 -34.5q-50 0 -79.5 27t-29.5 71q0 13 2 24z" />
    <glyph glyph-name="Uacute" unicode="&#xda;" horiz-adv-x="1356" 
d="M644 1508l293 342h418l-329 -342h-382zM720 1400l-182 -932q-2 -11 -2 -24q0 -44 29.5 -71t79.5 -27q57 0 99.5 34.5t53.5 87.5l182 932h428l-188 -964q-38 -192 -225.5 -325t-421.5 -133q-209 0 -342.5 108.5t-133.5 274.5q0 39 7 75l188 964h428z" />
    <glyph glyph-name="Ucircumflex" unicode="&#xdb;" horiz-adv-x="1356" 
d="M1095 1850l226 -342h-372l-57 110l-99 -110h-372l358 342h316zM538 468l182 932h-428l-188 -964q-7 -36 -7 -75q0 -166 133.5 -274.5t342.5 -108.5q234 0 421.5 133t225.5 325l188 964h-428l-182 -932q-11 -53 -53.5 -87.5t-99.5 -34.5q-50 0 -79.5 27t-29.5 71
q0 13 2 24z" />
    <glyph glyph-name="Udieresis" unicode="&#xdc;" horiz-adv-x="1356" 
d="M490 1664q15 80 80.5 134t147.5 54q72 0 116 -42.5t44 -108.5q0 -16 -4 -37q-16 -80 -81.5 -134t-147.5 -54q-71 0 -115 42t-44 108q0 17 4 38zM928 1664q15 80 80.5 134t147.5 54q72 0 116 -42.5t44 -108.5q0 -16 -4 -37q-16 -80 -81.5 -134t-147.5 -54q-71 0 -115 42
t-44 108q0 17 4 38zM538 468l182 932h-428l-188 -964q-7 -36 -7 -75q0 -166 133.5 -274.5t342.5 -108.5q234 0 421.5 133t225.5 325l188 964h-428l-182 -932q-11 -53 -53.5 -87.5t-99.5 -34.5q-50 0 -79.5 27t-29.5 71q0 13 2 24z" />
    <glyph glyph-name="Yacute" unicode="&#xdd;" horiz-adv-x="1340" 
d="M652 1400l97 -476l283 476h466l-611 -866l-103 -534h-428l103 534l-273 866h466zM636 1508l293 342h418l-329 -342h-382z" />
    <glyph glyph-name="Thorn" unicode="&#xde;" horiz-adv-x="1242" 
d="M639 214h-136l-41 -214h-428l272 1400h428l-42 -214h136q188 0 303.5 -109.5t115.5 -281.5q0 -45 -9 -95q-27 -136 -114.5 -247.5t-215.5 -175t-269 -63.5zM566 538h74q65 0 116.5 45.5t65.5 116.5q4 20 4 37q0 56 -33.5 90.5t-89.5 34.5h-74z" />
    <glyph glyph-name="germandbls" unicode="&#xdf;" horiz-adv-x="1256" 
d="M20 0l198 1019q33 171 191.5 288t356.5 117q177 0 291 -88t114 -222q0 -29 -6 -59q-19 -97 -99 -183.5t-190 -126.5q135 -16 216 -100.5t81 -207.5q0 -37 -7 -72q-21 -108 -94 -197.5t-180.5 -140.5t-224.5 -51q-123 0 -214 57l128 316q47 -45 84 -45q33 0 59.5 31
t35.5 80q4 26 4 35q0 120 -193 126l63 324q52 1 91 34t48 80q2 12 2 18q0 29 -18.5 46.5t-48.5 17.5q-36 0 -64 -26.5t-36 -70.5l-194 -999h-394z" />
    <glyph glyph-name="agrave" unicode="&#xe0;" horiz-adv-x="1326" 
d="M725 80l-15 -80h404l201 1036h-404l-16 -80q-43 47 -112 75.5t-147 28.5q-201 0 -370 -156.5t-214 -385.5q-12 -63 -12 -122q0 -185 106.5 -302.5t278.5 -117.5q78 0 158 28.5t142 75.5zM825 596l-30 -156q-31 -47 -81 -75.5t-107 -28.5q-70 0 -111.5 40t-41.5 104
q0 21 4 38q15 78 77 130t143 52q57 0 96 -28t51 -76zM903 1526l161 -342h-382l-197 342h418z" />
    <glyph glyph-name="aacute" unicode="&#xe1;" horiz-adv-x="1326" 
d="M710 0l15 80q-62 -47 -142 -75.5t-158 -28.5q-172 0 -278.5 117.5t-106.5 302.5q0 59 12 122q45 229 214 385.5t370 156.5q78 0 147 -28.5t112 -75.5l16 80h404l-201 -1036h-404zM795 440l30 156q-12 48 -51 76t-96 28q-81 0 -143 -52t-77 -130q-4 -17 -4 -38
q0 -64 41.5 -104t111.5 -40q57 0 107 28.5t81 75.5zM542 1184l293 342h418l-329 -342h-382z" />
    <glyph glyph-name="acircumflex" unicode="&#xe2;" horiz-adv-x="1326" 
d="M725 80l-15 -80h404l201 1036h-404l-16 -80q-43 47 -112 75.5t-147 28.5q-201 0 -370 -156.5t-214 -385.5q-12 -63 -12 -122q0 -185 106.5 -302.5t278.5 -117.5q78 0 158 28.5t142 75.5zM825 596l-30 -156q-31 -47 -81 -75.5t-107 -28.5q-70 0 -111.5 40t-41.5 104
q0 21 4 38q15 78 77 130t143 52q57 0 96 -28t51 -76zM1033 1526l226 -342h-372l-57 110l-99 -110h-372l358 342h316z" />
    <glyph glyph-name="atilde" unicode="&#xe3;" horiz-adv-x="1326" 
d="M725 80l-15 -80h404l201 1036h-404l-16 -80q-43 47 -112 75.5t-147 28.5q-201 0 -370 -156.5t-214 -385.5q-12 -63 -12 -122q0 -185 106.5 -302.5t278.5 -117.5q78 0 158 28.5t142 75.5zM825 596l-30 -156q-31 -47 -81 -75.5t-107 -28.5q-70 0 -111.5 40t-41.5 104
q0 21 4 38q15 78 77 130t143 52q57 0 96 -28t51 -76zM813 1211q-52 31 -73 31q-31 0 -58 -66l-291 57q45 125 122 189.5t176 64.5q85 0 152 -40q50 -31 73 -31q31 0 58 66l291 -57q-45 -125 -122 -189.5t-176 -64.5q-85 0 -152 40z" />
    <glyph glyph-name="adieresis" unicode="&#xe4;" horiz-adv-x="1326" 
d="M725 80l-15 -80h404l201 1036h-404l-16 -80q-43 47 -112 75.5t-147 28.5q-201 0 -370 -156.5t-214 -385.5q-12 -63 -12 -122q0 -185 106.5 -302.5t278.5 -117.5q78 0 158 28.5t142 75.5zM825 596l-30 -156q-31 -47 -81 -75.5t-107 -28.5q-70 0 -111.5 40t-41.5 104
q0 21 4 38q15 78 77 130t143 52q57 0 96 -28t51 -76zM404 1340q15 80 80.5 134t147.5 54q72 0 116 -42.5t44 -108.5q0 -16 -4 -37q-16 -80 -81.5 -134t-147.5 -54q-71 0 -115 42t-44 108q0 17 4 38zM842 1340q15 80 80.5 134t147.5 54q72 0 116 -42.5t44 -108.5
q0 -16 -4 -37q-16 -80 -81.5 -134t-147.5 -54q-71 0 -115 42t-44 108q0 17 4 38z" />
    <glyph glyph-name="aring" unicode="&#xe5;" horiz-adv-x="1326" 
d="M725 80l-15 -80h404l201 1036h-404l-16 -80q-43 47 -112 75.5t-147 28.5q-201 0 -370 -156.5t-214 -385.5q-12 -63 -12 -122q0 -185 106.5 -302.5t278.5 -117.5q78 0 158 28.5t142 75.5zM825 596l-30 -156q-31 -47 -81 -75.5t-107 -28.5q-70 0 -111.5 40t-41.5 104
q0 21 4 38q15 78 77 130t143 52q57 0 96 -28t51 -76zM770 1362q-1 -5 -1 -10q0 -19 12 -30.5t33 -11.5q24 0 42 14.5t22 37.5q1 6 1 12q0 18 -11.5 29t-32.5 11q-24 0 -42 -14.5t-23 -37.5zM568 1362q19 99 106.5 166t195.5 67q95 0 154.5 -53t59.5 -136q0 -23 -4 -44
q-19 -99 -106 -166t-195 -67q-95 0 -155 53.5t-60 137.5q0 22 4 42z" />
    <glyph glyph-name="ae" unicode="&#xe6;" horiz-adv-x="2058" 
d="M1263 414q0 -78 41.5 -114t124.5 -36q128 0 273 110l151 -210q-209 -188 -494 -188q-142 0 -250.5 56t-168.5 153q-85 -98 -215.5 -153.5t-272.5 -55.5q-194 0 -317.5 86.5t-123.5 219.5q0 25 5 52q27 143 183.5 240.5t357.5 97.5q152 0 259 -74q3 17 3 32q0 68 -56 105
t-157 37q-179 0 -333 -106l-68 248q90 69 216 107.5t252 38.5q140 0 246.5 -53.5t156.5 -149.5q100 95 223 149t255 54q208 0 336.5 -120t128.5 -307q0 -51 -10 -101q-13 -64 -43 -118h-703zM424 334q-1 -5 -1 -12q0 -35 35.5 -57.5t92.5 -22.5q115 0 209 77l7 39
q-63 68 -181 68q-62 0 -108 -26t-54 -66zM1490 772q-132 0 -184 -140h308v13q0 65 -30 96t-94 31z" />
    <glyph glyph-name="ccedilla" unicode="&#xe7;" horiz-adv-x="1134" 
d="M459 -305q2 6 2 12q0 37 -72 37q-41 0 -69 -4l-54 74l129 178q-162 37 -257.5 151.5t-95.5 273.5q0 51 10 101q30 151 131.5 275.5t251 195.5t313.5 71q124 0 224 -41.5t167 -116.5l-244 -288q-94 86 -209 86q-81 0 -143 -52t-77 -130q-4 -21 -4 -38q0 -64 41.5 -104
t111.5 -40q111 0 257 100l158 -268q-161 -145 -371 -181l-89 -101q72 -20 114 -62.5t42 -98.5q0 -14 -3 -29q-19 -93 -126 -154.5t-248 -61.5q-150 0 -232 69l125 149q23 -19 59.5 -30.5t70.5 -11.5q74 0 87 39z" />
    <glyph glyph-name="egrave" unicode="&#xe8;" horiz-adv-x="1240" 
d="M445 414q0 -78 41.5 -114t124.5 -36q128 0 273 110l151 -210q-209 -188 -494 -188q-226 0 -362.5 123t-136.5 316q0 52 10 103q30 151 130 275.5t246.5 195.5t307.5 71q208 0 336.5 -120t128.5 -307q0 -51 -10 -101q-13 -64 -43 -118h-703zM672 772q-132 0 -184 -140h308
v13q0 65 -30 96t-94 31zM816 1526l161 -342h-382l-197 342h418z" />
    <glyph glyph-name="eacute" unicode="&#xe9;" horiz-adv-x="1240" 
d="M445 414q0 -78 41.5 -114t124.5 -36q128 0 273 110l151 -210q-209 -188 -494 -188q-226 0 -362.5 123t-136.5 316q0 52 10 103q30 151 130 275.5t246.5 195.5t307.5 71q208 0 336.5 -120t128.5 -307q0 -51 -10 -101q-13 -64 -43 -118h-703zM672 772q-132 0 -184 -140h308
v13q0 65 -30 96t-94 31zM525 1184l293 342h418l-329 -342h-382z" />
    <glyph glyph-name="ecircumflex" unicode="&#xea;" horiz-adv-x="1240" 
d="M445 414q0 -78 41.5 -114t124.5 -36q128 0 273 110l151 -210q-209 -188 -494 -188q-226 0 -362.5 123t-136.5 316q0 52 10 103q30 151 130 275.5t246.5 195.5t307.5 71q208 0 336.5 -120t128.5 -307q0 -51 -10 -101q-13 -64 -43 -118h-703zM672 772q-132 0 -184 -140h308
v13q0 65 -30 96t-94 31zM974 1526l226 -342h-372l-57 110l-99 -110h-372l358 342h316z" />
    <glyph glyph-name="edieresis" unicode="&#xeb;" horiz-adv-x="1240" 
d="M445 414q0 -78 41.5 -114t124.5 -36q128 0 273 110l151 -210q-209 -188 -494 -188q-226 0 -362.5 123t-136.5 316q0 52 10 103q30 151 130 275.5t246.5 195.5t307.5 71q208 0 336.5 -120t128.5 -307q0 -51 -10 -101q-13 -64 -43 -118h-703zM672 772q-132 0 -184 -140h308
v13q0 65 -30 96t-94 31zM369 1340q15 80 80.5 134t147.5 54q72 0 116 -42.5t44 -108.5q0 -16 -4 -37q-16 -80 -81.5 -134t-147.5 -54q-71 0 -115 42t-44 108q0 17 4 38zM807 1340q15 80 80.5 134t147.5 54q72 0 116 -42.5t44 -108.5q0 -16 -4 -37q-16 -80 -81.5 -134
t-147.5 -54q-71 0 -115 42t-44 108q0 17 4 38z" />
    <glyph glyph-name="igrave" unicode="&#xec;" horiz-adv-x="624" 
d="M4 0l201 1036h416l-201 -1036h-416zM540 1526l161 -342h-382l-197 342h418z" />
    <glyph glyph-name="iacute" unicode="&#xed;" horiz-adv-x="624" 
d="M4 0l201 1036h416l-201 -1036h-416zM183 1184l293 342h418l-329 -342h-382z" />
    <glyph glyph-name="icircumflex" unicode="&#xee;" horiz-adv-x="624" 
d="M4 0l201 1036h416l-201 -1036h-416zM666 1526l226 -342h-372l-57 110l-99 -110h-372l358 342h316z" />
    <glyph glyph-name="idieresis" unicode="&#xef;" horiz-adv-x="624" 
d="M4 0l201 1036h416l-201 -1036h-416zM61 1340q15 80 80.5 134t147.5 54q72 0 116 -42.5t44 -108.5q0 -16 -4 -37q-16 -80 -81.5 -134t-147.5 -54q-71 0 -115 42t-44 108q0 17 4 38zM499 1340q15 80 80.5 134t147.5 54q72 0 116 -42.5t44 -108.5q0 -16 -4 -37
q-16 -80 -81.5 -134t-147.5 -54q-71 0 -115 42t-44 108q0 17 4 38z" />
    <glyph glyph-name="eth" unicode="&#xf0;" horiz-adv-x="1267" 
d="M423 984l-64 144l155 72q-68 39 -145 72l368 188q80 -46 138 -92l176 82l62 -154l-105 -48q216 -235 216 -543q0 -85 -18 -177q-22 -114 -83.5 -215.5t-150.5 -175.5t-206 -117.5t-243 -43.5q-215 0 -350.5 119.5t-135.5 302.5q0 44 9 90q21 107 87 203t154 161
t188.5 102.5t192.5 37.5q59 0 95 -25q-34 63 -101 125zM451 502q-3 -16 -3 -32q0 -59 40.5 -96.5t106.5 -37.5q75 0 134.5 47.5t73.5 118.5q3 16 3 32q0 59 -40.5 96.5t-106.5 37.5q-75 0 -134.5 -47.5t-73.5 -118.5z" />
    <glyph glyph-name="ntilde" unicode="&#xf1;" horiz-adv-x="1244" 
d="M551 634l-123 -634h-416l201 1036h416l-18 -94q46 55 114.5 86.5t142.5 31.5q144 0 233 -86.5t89 -223.5q0 -35 -8 -80l-130 -670h-416l115 594q2 10 2 23q0 37 -24 60t-65 23q-34 0 -64.5 -18.5t-48.5 -47.5zM775 1211q-52 31 -73 31q-31 0 -58 -66l-291 57
q45 125 122 189.5t176 64.5q85 0 152 -40q50 -31 73 -31q31 0 58 66l291 -57q-45 -125 -122 -189.5t-176 -64.5q-85 0 -152 40z" />
    <glyph glyph-name="ograve" unicode="&#xf2;" horiz-adv-x="1284" 
d="M838 1526l161 -342h-382l-197 342h418zM52 518q30 151 131.5 275.5t251 195.5t313.5 71q220 0 357 -123.5t137 -316.5q0 -52 -10 -102q-29 -151 -130.5 -275.5t-250.5 -195.5t-314 -71q-220 0 -357.5 124t-137.5 317q0 51 10 101zM458 518q-4 -17 -4 -38q0 -64 41.5 -104
t111.5 -40q80 0 142 52t77 130q4 17 4 39q0 64 -41 103.5t-111 39.5q-81 0 -143 -52t-77 -130z" />
    <glyph glyph-name="oacute" unicode="&#xf3;" horiz-adv-x="1284" 
d="M545 1184l293 342h418l-329 -342h-382zM52 518q30 151 131.5 275.5t251 195.5t313.5 71q220 0 357 -123.5t137 -316.5q0 -52 -10 -102q-29 -151 -130.5 -275.5t-250.5 -195.5t-314 -71q-220 0 -357.5 124t-137.5 317q0 51 10 101zM458 518q-4 -17 -4 -38q0 -64 41.5 -104
t111.5 -40q80 0 142 52t77 130q4 17 4 39q0 64 -41 103.5t-111 39.5q-81 0 -143 -52t-77 -130z" />
    <glyph glyph-name="ocircumflex" unicode="&#xf4;" horiz-adv-x="1284" 
d="M996 1526l226 -342h-372l-57 110l-99 -110h-372l358 342h316zM52 518q30 151 131.5 275.5t251 195.5t313.5 71q220 0 357 -123.5t137 -316.5q0 -52 -10 -102q-29 -151 -130.5 -275.5t-250.5 -195.5t-314 -71q-220 0 -357.5 124t-137.5 317q0 51 10 101zM458 518
q-4 -17 -4 -38q0 -64 41.5 -104t111.5 -40q80 0 142 52t77 130q4 17 4 39q0 64 -41 103.5t-111 39.5q-81 0 -143 -52t-77 -130z" />
    <glyph glyph-name="otilde" unicode="&#xf5;" horiz-adv-x="1284" 
d="M785 1211q-52 31 -73 31q-31 0 -58 -66l-291 57q45 125 122 189.5t176 64.5q85 0 152 -40q50 -31 73 -31q31 0 58 66l291 -57q-45 -125 -122 -189.5t-176 -64.5q-85 0 -152 40zM52 518q30 151 131.5 275.5t251 195.5t313.5 71q220 0 357 -123.5t137 -316.5
q0 -52 -10 -102q-29 -151 -130.5 -275.5t-250.5 -195.5t-314 -71q-220 0 -357.5 124t-137.5 317q0 51 10 101zM458 518q-4 -17 -4 -38q0 -64 41.5 -104t111.5 -40q80 0 142 52t77 130q4 17 4 39q0 64 -41 103.5t-111 39.5q-81 0 -143 -52t-77 -130z" />
    <glyph glyph-name="odieresis" unicode="&#xf6;" horiz-adv-x="1284" 
d="M391 1340q15 80 80.5 134t147.5 54q72 0 116 -42.5t44 -108.5q0 -16 -4 -37q-16 -80 -81.5 -134t-147.5 -54q-71 0 -115 42t-44 108q0 17 4 38zM829 1340q15 80 80.5 134t147.5 54q72 0 116 -42.5t44 -108.5q0 -16 -4 -37q-16 -80 -81.5 -134t-147.5 -54q-71 0 -115 42
t-44 108q0 17 4 38zM52 518q30 151 131.5 275.5t251 195.5t313.5 71q220 0 357 -123.5t137 -316.5q0 -52 -10 -102q-29 -151 -130.5 -275.5t-250.5 -195.5t-314 -71q-220 0 -357.5 124t-137.5 317q0 51 10 101zM458 518q-4 -17 -4 -38q0 -64 41.5 -104t111.5 -40
q80 0 142 52t77 130q4 17 4 39q0 64 -41 103.5t-111 39.5q-81 0 -143 -52t-77 -130z" />
    <glyph glyph-name="divide" unicode="&#xf7;" horiz-adv-x="1184" 
d="M1092 490h-960v348h960v-348zM388 1092q0 87 61 147.5t151 60.5t151 -60.5t61 -147.5t-61 -147.5t-151 -60.5t-151 60.5t-61 147.5zM388 236q0 87 61 147.5t151 60.5t151 -60.5t61 -147.5t-61 -147.5t-151 -60.5t-151 60.5t-61 147.5z" />
    <glyph glyph-name="oslash" unicode="&#xf8;" horiz-adv-x="1284" 
d="M52 518q30 151 131.5 275.5t251 195.5t313.5 71q134 0 240 -49l83 85h258l-189 -195q102 -118 102 -281q0 -52 -10 -102q-29 -151 -130.5 -275.5t-250.5 -195.5t-314 -71q-132 0 -243 49l-82 -85h-258l189 196q-101 117 -101 281q0 51 10 101zM876 518q5 27 5 46
q0 32 -9 59l-322 -333q20 -4 47 -4q99 0 179.5 67t99.5 165zM408 518q-5 -28 -5 -48q0 -29 8 -56l321 332q-28 4 -45 4q-99 0 -179.5 -67t-99.5 -165z" />
    <glyph glyph-name="ugrave" unicode="&#xf9;" horiz-adv-x="1244" 
d="M694 402l123 634h416l-201 -1036h-416l18 94q-47 -55 -115 -86.5t-142 -31.5q-144 0 -233 86.5t-89 223.5q0 35 8 80l130 670h416l-116 -594q-2 -14 -2 -21q0 -37 24.5 -61t65.5 -24q34 0 64 18.5t49 47.5zM807 1526l161 -342h-382l-197 342h418z" />
    <glyph glyph-name="uacute" unicode="&#xfa;" horiz-adv-x="1244" 
d="M694 402l123 634h416l-201 -1036h-416l18 94q-47 -55 -115 -86.5t-142 -31.5q-144 0 -233 86.5t-89 223.5q0 35 8 80l130 670h416l-116 -594q-2 -14 -2 -21q0 -37 24.5 -61t65.5 -24q34 0 64 18.5t49 47.5zM516 1184l293 342h418l-329 -342h-382z" />
    <glyph glyph-name="ucircumflex" unicode="&#xfb;" horiz-adv-x="1244" 
d="M694 402l123 634h416l-201 -1036h-416l18 94q-47 -55 -115 -86.5t-142 -31.5q-144 0 -233 86.5t-89 223.5q0 35 8 80l130 670h416l-116 -594q-2 -14 -2 -21q0 -37 24.5 -61t65.5 -24q34 0 64 18.5t49 47.5zM966 1526l226 -342h-372l-57 110l-99 -110h-372l358 342h316z
" />
    <glyph glyph-name="udieresis" unicode="&#xfc;" horiz-adv-x="1244" 
d="M694 402l123 634h416l-201 -1036h-416l18 94q-47 -55 -115 -86.5t-142 -31.5q-144 0 -233 86.5t-89 223.5q0 35 8 80l130 670h416l-116 -594q-2 -14 -2 -21q0 -37 24.5 -61t65.5 -24q34 0 64 18.5t49 47.5zM361 1340q15 80 80.5 134t147.5 54q72 0 116 -42.5t44 -108.5
q0 -16 -4 -37q-16 -80 -81.5 -134t-147.5 -54q-71 0 -115 42t-44 108q0 17 4 38zM799 1340q15 80 80.5 134t147.5 54q72 0 116 -42.5t44 -108.5q0 -16 -4 -37q-16 -80 -81.5 -134t-147.5 -54q-71 0 -115 42t-44 108q0 17 4 38z" />
    <glyph glyph-name="yacute" unicode="&#xfd;" horiz-adv-x="1128" 
d="M777 1036h436l-798 -1500h-438l289 464l-149 1036h436l14 -506zM468 1184l293 342h418l-329 -342h-382z" />
    <glyph glyph-name="thorn" unicode="&#xfe;" horiz-adv-x="1326" 
d="M431 80l-106 -544h-404l374 1924h404l-98 -504q61 47 142 75.5t159 28.5q172 0 278 -117.5t106 -301.5q0 -59 -12 -123q-44 -229 -213 -385.5t-370 -156.5q-78 0 -147.5 28.5t-112.5 75.5zM531 596l-30 -156q12 -47 51.5 -75.5t96.5 -28.5q81 0 142.5 52t76.5 130
q4 17 4 39q0 64 -41 103.5t-111 39.5q-58 0 -108 -28.5t-81 -75.5z" />
    <glyph glyph-name="ydieresis" unicode="&#xff;" horiz-adv-x="1128" 
d="M313 1340q15 80 80.5 134t147.5 54q72 0 116 -42.5t44 -108.5q0 -16 -4 -37q-16 -80 -81.5 -134t-147.5 -54q-71 0 -115 42t-44 108q0 17 4 38zM751 1340q15 80 80.5 134t147.5 54q72 0 116 -42.5t44 -108.5q0 -16 -4 -37q-16 -80 -81.5 -134t-147.5 -54q-71 0 -115 42
t-44 108q0 17 4 38zM777 1036h436l-798 -1500h-438l289 464l-149 1036h436l14 -506z" />
    <glyph glyph-name="Amacron" unicode="&#x100;" horiz-adv-x="1404" 
d="M642 1400h464l184 -1400h-436l-18 246h-375l-111 -246h-436zM788 962l-182 -400h210zM556 1516l58 296h680l-58 -296h-680z" />
    <glyph glyph-name="amacron" unicode="&#x101;" horiz-adv-x="1326" 
d="M725 80l-15 -80h404l201 1036h-404l-16 -80q-43 47 -112 75.5t-147 28.5q-201 0 -370 -156.5t-214 -385.5q-12 -63 -12 -122q0 -185 106.5 -302.5t278.5 -117.5q78 0 158 28.5t142 75.5zM825 596l-30 -156q-31 -47 -81 -75.5t-107 -28.5q-70 0 -111.5 40t-41.5 104
q0 21 4 38q15 78 77 130t143 52q57 0 96 -28t51 -76zM446 1192l58 296h680l-58 -296h-680z" />
    <glyph glyph-name="Abreve" unicode="&#x102;" horiz-adv-x="1404" 
d="M642 1400h464l184 -1400h-436l-18 246h-375l-111 -246h-436zM788 962l-182 -400h210zM891 1488q-145 0 -243 74.5t-98 193.5q0 26 4 46h314q-1 -4 -1 -11q0 -29 20 -47t51 -18q35 0 63 21.5t35 54.5h314q-19 -90 -90 -163t-168.5 -112t-200.5 -39z" />
    <glyph glyph-name="abreve" unicode="&#x103;" horiz-adv-x="1326" 
d="M725 80l-15 -80h404l201 1036h-404l-16 -80q-43 47 -112 75.5t-147 28.5q-201 0 -370 -156.5t-214 -385.5q-12 -63 -12 -122q0 -185 106.5 -302.5t278.5 -117.5q78 0 158 28.5t142 75.5zM825 596l-30 -156q-31 -47 -81 -75.5t-107 -28.5q-70 0 -111.5 40t-41.5 104
q0 21 4 38q15 78 77 130t143 52q57 0 96 -28t51 -76zM781 1164q-145 0 -243 74.5t-98 193.5q0 26 4 46h314q-1 -4 -1 -11q0 -29 20 -47t51 -18q35 0 63 21.5t35 54.5h314q-19 -90 -90 -163t-168.5 -112t-200.5 -39z" />
    <glyph glyph-name="Aogonek" unicode="&#x104;" horiz-adv-x="1404" 
d="M1036 0h-182l-18 246h-375l-111 -246h-436l728 1400h464l184 -1400q-183 -124 -200 -212q-1 -5 -1 -16q0 -24 14.5 -39t39.5 -15q46 0 94 25l37 -149q-91 -52 -206 -52q-111 0 -181.5 50t-70.5 127q0 15 3 31q13 67 73 134t144 116zM788 962l-182 -400h210z" />
    <glyph glyph-name="aogonek" unicode="&#x105;" horiz-adv-x="1326" 
d="M710 0l15 80q-62 -47 -142 -75.5t-158 -28.5q-172 0 -278.5 117.5t-106.5 302.5q0 59 12 122q45 229 214 385.5t370 156.5q78 0 147 -28.5t112 -75.5l16 80h404l-201 -1036q-183 -124 -200 -211q-2 -10 -2 -17q0 -24 15 -39t40 -15q46 0 94 25l37 -149q-91 -52 -206 -52
q-111 0 -181.5 50t-70.5 127q0 15 3 31q13 67 73 134t144 116h-150zM795 440l30 156q-12 48 -51 76t-96 28q-81 0 -143 -52t-77 -130q-4 -17 -4 -38q0 -64 41.5 -104t111.5 -40q57 0 107 28.5t81 75.5z" />
    <glyph glyph-name="Cacute" unicode="&#x106;" horiz-adv-x="1416" 
d="M729 -24q-188 0 -334.5 75.5t-225.5 208t-79 300.5q0 65 14 140q39 201 171.5 367t326.5 261.5t408 95.5q296 0 476 -178l-279 -310q-44 54 -113.5 87t-154.5 33q-146 0 -262 -101.5t-145 -254.5q-8 -43 -8 -79q0 -123 75.5 -200t200.5 -77q84 0 172 37.5t158 96.5
l167 -308q-258 -194 -568 -194zM714 1508l293 342h418l-329 -342h-382z" />
    <glyph glyph-name="cacute" unicode="&#x107;" horiz-adv-x="1134" 
d="M872 436l158 -268q-101 -91 -228 -141.5t-265 -50.5q-220 0 -357.5 124t-137.5 317q0 51 10 101q30 151 131.5 275.5t251 195.5t313.5 71q124 0 224 -41.5t167 -116.5l-244 -288q-94 86 -209 86q-81 0 -143 -52t-77 -130q-4 -21 -4 -38q0 -64 41.5 -104t111.5 -40
q111 0 257 100zM470 1184l293 342h418l-329 -342h-382z" />
    <glyph glyph-name="Ccircumflex" unicode="&#x108;" horiz-adv-x="1416" 
d="M729 -24q-188 0 -334.5 75.5t-225.5 208t-79 300.5q0 65 14 140q39 201 171.5 367t326.5 261.5t408 95.5q296 0 476 -178l-279 -310q-44 54 -113.5 87t-154.5 33q-146 0 -262 -101.5t-145 -254.5q-8 -43 -8 -79q0 -123 75.5 -200t200.5 -77q84 0 172 37.5t158 96.5
l167 -308q-258 -194 -568 -194zM1215 1850l226 -342h-372l-57 110l-99 -110h-372l358 342h316z" />
    <glyph glyph-name="ccircumflex" unicode="&#x109;" horiz-adv-x="1134" 
d="M872 436l158 -268q-101 -91 -228 -141.5t-265 -50.5q-220 0 -357.5 124t-137.5 317q0 51 10 101q30 151 131.5 275.5t251 195.5t313.5 71q124 0 224 -41.5t167 -116.5l-244 -288q-94 86 -209 86q-81 0 -143 -52t-77 -130q-4 -21 -4 -38q0 -64 41.5 -104t111.5 -40
q111 0 257 100zM962 1526l226 -342h-372l-57 110l-99 -110h-372l358 342h316z" />
    <glyph glyph-name="Cdotaccent" unicode="&#x10a;" horiz-adv-x="1416" 
d="M729 -24q-188 0 -334.5 75.5t-225.5 208t-79 300.5q0 65 14 140q39 201 171.5 367t326.5 261.5t408 95.5q296 0 476 -178l-279 -310q-44 54 -113.5 87t-154.5 33q-146 0 -262 -101.5t-145 -254.5q-8 -43 -8 -79q0 -123 75.5 -200t200.5 -77q84 0 172 37.5t158 96.5
l167 -308q-258 -194 -568 -194zM814 1664q16 83 85.5 140.5t154.5 57.5q75 0 121.5 -45t46.5 -115q0 -18 -4 -38q-17 -83 -86.5 -140.5t-154.5 -57.5q-74 0 -120.5 45t-46.5 114q0 18 4 39z" />
    <glyph glyph-name="cdotaccent" unicode="&#x10b;" horiz-adv-x="1134" 
d="M872 436l158 -268q-101 -91 -228 -141.5t-265 -50.5q-220 0 -357.5 124t-137.5 317q0 51 10 101q30 151 131.5 275.5t251 195.5t313.5 71q124 0 224 -41.5t167 -116.5l-244 -288q-94 86 -209 86q-81 0 -143 -52t-77 -130q-4 -21 -4 -38q0 -64 41.5 -104t111.5 -40
q111 0 257 100zM575 1340q16 83 85.5 140.5t154.5 57.5q75 0 121.5 -45t46.5 -115q0 -18 -4 -38q-17 -83 -86.5 -140.5t-154.5 -57.5q-74 0 -120.5 45t-46.5 114q0 18 4 39z" />
    <glyph glyph-name="Ccaron" unicode="&#x10c;" horiz-adv-x="1416" 
d="M729 -24q-188 0 -334.5 75.5t-225.5 208t-79 300.5q0 65 14 140q39 201 171.5 367t326.5 261.5t408 95.5q296 0 476 -178l-279 -310q-44 54 -113.5 87t-154.5 33q-146 0 -262 -101.5t-145 -254.5q-8 -43 -8 -79q0 -123 75.5 -200t200.5 -77q84 0 172 37.5t158 96.5
l167 -308q-258 -194 -568 -194zM1507 1850l-358 -342h-316l-226 342h372l57 -110l99 110h372z" />
    <glyph glyph-name="ccaron" unicode="&#x10d;" horiz-adv-x="1134" 
d="M872 436l158 -268q-101 -91 -228 -141.5t-265 -50.5q-220 0 -357.5 124t-137.5 317q0 51 10 101q30 151 131.5 275.5t251 195.5t313.5 71q124 0 224 -41.5t167 -116.5l-244 -288q-94 86 -209 86q-81 0 -143 -52t-77 -130q-4 -21 -4 -38q0 -64 41.5 -104t111.5 -40
q111 0 257 100zM1250 1506l-358 -342h-316l-226 342h372l57 -110l99 110h372z" />
    <glyph glyph-name="Dcaron" unicode="&#x10e;" horiz-adv-x="1456" 
d="M586 0h-552l272 1400h552q267 0 424 -149.5t157 -396.5q0 -74 -15 -154q-40 -203 -160 -362.5t-297.5 -248.5t-380.5 -89zM533 368h84q145 0 247 89.5t132 242.5q9 45 9 86q0 116 -68 181t-191 65h-84zM1367 1850l-358 -342h-316l-226 342h372l57 -110l99 110h372z" />
    <glyph glyph-name="dcaron" unicode="&#x10f;" horiz-adv-x="1746" 
d="M725 80l-15 -80h404l283 1460h-404l-98 -504q-43 47 -112 75.5t-147 28.5q-201 0 -370 -156t-214 -386q-12 -62 -12 -122q0 -185 106.5 -302.5t278.5 -117.5q78 0 158 28.5t142 75.5zM825 596l-30 -156q-31 -47 -81 -75.5t-107 -28.5q-70 0 -111.5 40t-41.5 104
q0 17 4 38q15 78 77 130t143 52q57 0 96 -28t51 -76zM1445 1273q17 89 90.5 150t164.5 61q79 0 128 -47.5t49 -121.5q0 -23 -4 -42q-11 -55 -45 -103l-224 -322h-231l166 238q-98 47 -98 148q0 20 4 39z" />
    <glyph glyph-name="Dcroat" unicode="&#x110;" horiz-adv-x="1502" 
d="M632 0h-552l113 584h-160l45 232h160l114 584h552q267 0 424 -149.5t157 -396.5q0 -74 -15 -154q-40 -203 -160 -362.5t-297.5 -248.5t-380.5 -89zM579 368h84q145 0 247 89.5t132 242.5q9 45 9 86q0 116 -68 181t-191 65h-84l-42 -216h172l-45 -232h-172z" />
    <glyph glyph-name="dcroat" unicode="&#x111;" horiz-adv-x="1362" 
d="M710 0l15 80q-62 -47 -142 -75.5t-158 -28.5q-172 0 -278.5 117.5t-106.5 302.5q0 59 12 122q45 229 214 385.5t370 156.5q78 0 147 -28.5t112 -75.5l34 174h-228l41 212h228l23 118h404l-23 -118h128l-41 -212h-128l-219 -1130h-404zM795 440l30 156q-12 48 -51 76
t-96 28q-81 0 -143 -52t-77 -130q-4 -17 -4 -38q0 -64 41.5 -104t111.5 -40q57 0 107 28.5t81 75.5z" />
    <glyph glyph-name="Emacron" unicode="&#x112;" horiz-adv-x="1164" 
d="M34 0l272 1400h932l-70 -356h-504l-32 -166h456l-67 -348h-456l-34 -174h522l-69 -356h-950zM440 1516l58 296h680l-58 -296h-680z" />
    <glyph glyph-name="emacron" unicode="&#x113;" horiz-adv-x="1240" 
d="M445 414q0 -78 41.5 -114t124.5 -36q128 0 273 110l151 -210q-209 -188 -494 -188q-226 0 -362.5 123t-136.5 316q0 52 10 103q30 151 130 275.5t246.5 195.5t307.5 71q208 0 336.5 -120t128.5 -307q0 -51 -10 -101q-13 -64 -43 -118h-703zM672 772q-132 0 -184 -140h308
v13q0 65 -30 96t-94 31zM411 1192l58 296h680l-58 -296h-680z" />
    <glyph glyph-name="Ebreve" unicode="&#x114;" horiz-adv-x="1164" 
d="M34 0l272 1400h932l-70 -356h-504l-32 -166h456l-67 -348h-456l-34 -174h522l-69 -356h-950zM785 1488q-145 0 -243 74.5t-98 193.5q0 26 4 46h314q-1 -4 -1 -11q0 -29 20 -47t51 -18q35 0 63 21.5t35 54.5h314q-19 -90 -90 -163t-168.5 -112t-200.5 -39z" />
    <glyph glyph-name="ebreve" unicode="&#x115;" horiz-adv-x="1240" 
d="M445 414q0 -78 41.5 -114t124.5 -36q128 0 273 110l151 -210q-209 -188 -494 -188q-226 0 -362.5 123t-136.5 316q0 52 10 103q30 151 130 275.5t246.5 195.5t307.5 71q208 0 336.5 -120t128.5 -307q0 -51 -10 -101q-13 -64 -43 -118h-703zM672 772q-132 0 -184 -140h308
v13q0 65 -30 96t-94 31zM746 1164q-145 0 -243 74.5t-98 193.5q0 26 4 46h314q-1 -4 -1 -11q0 -29 20 -47t51 -18q35 0 63 21.5t35 54.5h314q-19 -90 -90 -163t-168.5 -112t-200.5 -39z" />
    <glyph glyph-name="Edotaccent" unicode="&#x116;" horiz-adv-x="1164" 
d="M34 0l272 1400h932l-70 -356h-504l-32 -166h456l-67 -348h-456l-34 -174h522l-69 -356h-950zM622 1664q16 83 85.5 140.5t154.5 57.5q75 0 121.5 -45t46.5 -115q0 -18 -4 -38q-17 -83 -86.5 -140.5t-154.5 -57.5q-74 0 -120.5 45t-46.5 114q0 18 4 39z" />
    <glyph glyph-name="edotaccent" unicode="&#x117;" horiz-adv-x="1240" 
d="M445 414q0 -78 41.5 -114t124.5 -36q128 0 273 110l151 -210q-209 -188 -494 -188q-226 0 -362.5 123t-136.5 316q0 52 10 103q30 151 130 275.5t246.5 195.5t307.5 71q208 0 336.5 -120t128.5 -307q0 -51 -10 -101q-13 -64 -43 -118h-703zM672 772q-132 0 -184 -140h308
v13q0 65 -30 96t-94 31zM578 1340q16 83 85.5 140.5t154.5 57.5q75 0 121.5 -45t46.5 -115q0 -18 -4 -38q-17 -83 -86.5 -140.5t-154.5 -57.5q-74 0 -120.5 45t-46.5 114q0 18 4 39z" />
    <glyph glyph-name="Eogonek" unicode="&#x118;" horiz-adv-x="1164" 
d="M34 0l272 1400h932l-70 -356h-504l-32 -166h456l-67 -348h-456l-34 -174h522l-69 -356h-168q-183 -124 -200 -212q-1 -5 -1 -13q0 -22 15 -34.5t41 -12.5q46 0 93 25l36 -159q-91 -52 -206 -52q-116 0 -189 49.5t-73 127.5q0 16 3 31q13 68 76.5 133.5t150.5 116.5h-528z
" />
    <glyph glyph-name="eogonek" unicode="&#x119;" horiz-adv-x="1240" 
d="M445 414q0 -78 41.5 -114t124.5 -36q128 0 273 110l151 -210q-154 -139 -357 -176q-157 -108 -181 -191q-3 -10 -3 -22q0 -22 15 -34.5t41 -12.5q46 0 93 25l36 -159q-91 -52 -206 -52q-116 0 -189 49.5t-73 127.5q0 16 3 31q12 64 68 125t137 112q-175 31 -276 147
t-101 281q0 52 10 103q30 151 130 275.5t246.5 195.5t307.5 71q208 0 336.5 -120t128.5 -307q0 -51 -10 -101q-13 -64 -43 -118h-703zM672 772q-132 0 -184 -140h308v13q0 65 -30 96t-94 31z" />
    <glyph glyph-name="Ecaron" unicode="&#x11a;" horiz-adv-x="1164" 
d="M34 0l272 1400h932l-70 -356h-504l-32 -166h456l-67 -348h-456l-34 -174h522l-69 -356h-950zM1302 1850l-358 -342h-316l-226 342h372l57 -110l99 110h372z" />
    <glyph glyph-name="ecaron" unicode="&#x11b;" horiz-adv-x="1240" 
d="M445 414q0 -78 41.5 -114t124.5 -36q128 0 273 110l151 -210q-209 -188 -494 -188q-226 0 -362.5 123t-136.5 316q0 52 10 103q30 151 130 275.5t246.5 195.5t307.5 71q208 0 336.5 -120t128.5 -307q0 -51 -10 -101q-13 -64 -43 -118h-703zM672 772q-132 0 -184 -140h308
v13q0 65 -30 96t-94 31zM1262 1506l-358 -342h-316l-226 342h372l57 -110l99 110h372z" />
    <glyph glyph-name="Gcircumflex" unicode="&#x11c;" horiz-adv-x="1482" 
d="M939 1056q-149 0 -263.5 -103t-145.5 -263q-8 -45 -8 -81q0 -126 75 -205.5t199 -79.5q62 0 111 24l33 168h-208l59 304h636l-126 -646q-124 -95 -271.5 -146.5t-300.5 -51.5q-188 0 -334.5 75.5t-225.5 208t-79 300.5q0 65 14 140q39 201 171.5 367t326.5 261.5
t408 95.5q296 0 476 -178l-279 -310q-44 54 -113.5 87t-154.5 33zM1215 1850l226 -342h-372l-57 110l-99 -110h-372l358 342h316z" />
    <glyph glyph-name="gcircumflex" unicode="&#x11d;" horiz-adv-x="1326" 
d="M825 596l-30 -156q-31 -47 -81 -75.5t-107 -28.5q-70 0 -111.5 40t-41.5 104q0 17 4 38q15 78 77 130t143 52q57 0 96 -28t51 -76zM730 108l-10 -56q-13 -72 -79.5 -118t-158.5 -46q-181 0 -281 97l-238 -285q80 -79 211.5 -121.5t282.5 -42.5q159 0 302.5 70.5t241 194
t127.5 275.5l187 960h-404l-16 -80q-43 47 -112 75.5t-147 28.5q-201 0 -370 -156.5t-214 -385.5q-11 -55 -11 -114q0 -178 107.5 -289t281.5 -111q78 0 158.5 28.5t141.5 75.5zM1033 1526l226 -342h-372l-57 110l-99 -110h-372l358 342h316z" />
    <glyph glyph-name="Gbreve" unicode="&#x11e;" horiz-adv-x="1482" 
d="M939 1056q-149 0 -263.5 -103t-145.5 -263q-8 -45 -8 -81q0 -126 75 -205.5t199 -79.5q62 0 111 24l33 168h-208l59 304h636l-126 -646q-124 -95 -271.5 -146.5t-300.5 -51.5q-188 0 -334.5 75.5t-225.5 208t-79 300.5q0 65 14 140q39 201 171.5 367t326.5 261.5
t408 95.5q296 0 476 -178l-279 -310q-44 54 -113.5 87t-154.5 33zM987 1488q-145 0 -243 74.5t-98 193.5q0 26 4 46h314q-1 -4 -1 -11q0 -29 20 -47t51 -18q35 0 63 21.5t35 54.5h314q-19 -90 -90 -163t-168.5 -112t-200.5 -39z" />
    <glyph glyph-name="gbreve" unicode="&#x11f;" horiz-adv-x="1326" 
d="M825 596l-30 -156q-31 -47 -81 -75.5t-107 -28.5q-70 0 -111.5 40t-41.5 104q0 17 4 38q15 78 77 130t143 52q57 0 96 -28t51 -76zM730 108l-10 -56q-13 -72 -79.5 -118t-158.5 -46q-181 0 -281 97l-238 -285q80 -79 211.5 -121.5t282.5 -42.5q159 0 302.5 70.5t241 194
t127.5 275.5l187 960h-404l-16 -80q-43 47 -112 75.5t-147 28.5q-201 0 -370 -156.5t-214 -385.5q-11 -55 -11 -114q0 -178 107.5 -289t281.5 -111q78 0 158.5 28.5t141.5 75.5zM781 1164q-145 0 -243 74.5t-98 193.5q0 26 4 46h314q-1 -4 -1 -11q0 -29 20 -47t51 -18
q35 0 63 21.5t35 54.5h314q-19 -90 -90 -163t-168.5 -112t-200.5 -39z" />
    <glyph glyph-name="Gdotaccent" unicode="&#x120;" horiz-adv-x="1482" 
d="M939 1056q-149 0 -263.5 -103t-145.5 -263q-8 -45 -8 -81q0 -126 75 -205.5t199 -79.5q62 0 111 24l33 168h-208l59 304h636l-126 -646q-124 -95 -271.5 -146.5t-300.5 -51.5q-188 0 -334.5 75.5t-225.5 208t-79 300.5q0 65 14 140q39 201 171.5 367t326.5 261.5
t408 95.5q296 0 476 -178l-279 -310q-44 54 -113.5 87t-154.5 33zM814 1664q16 83 85.5 140.5t154.5 57.5q75 0 121.5 -45t46.5 -115q0 -18 -4 -38q-17 -83 -86.5 -140.5t-154.5 -57.5q-74 0 -120.5 45t-46.5 114q0 18 4 39z" />
    <glyph glyph-name="gdotaccent" unicode="&#x121;" horiz-adv-x="1326" 
d="M825 596l-30 -156q-31 -47 -81 -75.5t-107 -28.5q-70 0 -111.5 40t-41.5 104q0 17 4 38q15 78 77 130t143 52q57 0 96 -28t51 -76zM730 108l-10 -56q-13 -72 -79.5 -118t-158.5 -46q-181 0 -281 97l-238 -285q80 -79 211.5 -121.5t282.5 -42.5q159 0 302.5 70.5t241 194
t127.5 275.5l187 960h-404l-16 -80q-43 47 -112 75.5t-147 28.5q-201 0 -370 -156.5t-214 -385.5q-11 -55 -11 -114q0 -178 107.5 -289t281.5 -111q78 0 158.5 28.5t141.5 75.5zM614 1340q16 83 85.5 140.5t154.5 57.5q75 0 121.5 -45t46.5 -115q0 -18 -4 -38
q-17 -83 -86.5 -140.5t-154.5 -57.5q-74 0 -120.5 45t-46.5 114q0 18 4 39z" />
    <glyph glyph-name="Gcommaaccent" unicode="&#x122;" horiz-adv-x="1482" 
d="M939 1056q-149 0 -263.5 -103t-145.5 -263q-8 -45 -8 -81q0 -126 75 -205.5t199 -79.5q62 0 111 24l33 168h-208l59 304h636l-126 -646q-124 -95 -271.5 -146.5t-300.5 -51.5q-188 0 -334.5 75.5t-225.5 208t-79 300.5q0 65 14 140q39 201 171.5 367t326.5 261.5
t408 95.5q296 0 476 -178l-279 -310q-44 54 -113.5 87t-154.5 33zM489 -128l-225 -342h378l285 342h-438z" />
    <glyph glyph-name="gcommaaccent" unicode="&#x123;" horiz-adv-x="1326" 
d="M795 440l30 156q-12 48 -51 76t-96 28q-81 0 -143 -52t-77 -130q-4 -21 -4 -38q0 -64 41.5 -104t111.5 -40q57 0 107 28.5t81 75.5zM720 52l10 56q-61 -47 -141.5 -75.5t-158.5 -28.5q-174 0 -281.5 111t-107.5 289q0 59 11 114q45 229 214 385.5t370 156.5
q78 0 147 -28.5t112 -75.5l16 80h404l-187 -960q-30 -152 -127.5 -275.5t-241 -194t-302.5 -70.5q-151 0 -282.5 42.5t-211.5 121.5l238 285q100 -97 281 -97q92 0 158.5 46t79.5 118zM1187 1514l-225 -342h-438l285 342h378z" />
    <glyph glyph-name="Hcircumflex" unicode="&#x124;" horiz-adv-x="1436" 
d="M1135 1850l226 -342h-372l-57 110l-99 -110h-372l358 342h316zM34 0l272 1400h428l-100 -512h312l100 512h428l-272 -1400h-428l101 520h-312l-101 -520h-428z" />
    <glyph glyph-name="hcircumflex" unicode="&#x125;" horiz-adv-x="1244" 
d="M711 1460l-100 -518q46 55 114.5 86.5t142.5 31.5q144 0 233 -86.5t89 -223.5q0 -35 -8 -80l-130 -670h-416l115 594q2 10 2 23q0 37 -24 60t-65 23q-34 0 -64.5 -18.5t-48.5 -47.5l-123 -634h-416l283 1460h416zM746 1910l226 -342h-372l-57 110l-99 -110h-372l358 342
h316z" />
    <glyph glyph-name="Hbar" unicode="&#x126;" horiz-adv-x="1448" 
d="M40 0l196 1012h-120l43 222h120l33 166h428l-33 -166h312l33 166h428l-33 -166h120l-43 -222h-120l-196 -1012h-428l103 530h-312l-103 -530h-428zM638 878h312l26 134h-312z" />
    <glyph glyph-name="hbar" unicode="&#x127;" horiz-adv-x="1274" 
d="M139 1130l41 212h122l23 118h416l-23 -118h222l-41 -212h-222l-36 -188q46 55 114.5 86.5t142.5 31.5q144 0 233 -86.5t89 -223.5q0 -35 -8 -80l-130 -670h-416l115 594q2 10 2 23q0 37 -24 60t-65 23q-34 0 -64.5 -18.5t-48.5 -47.5l-123 -634h-416l219 1130h-122z" />
    <glyph glyph-name="Itilde" unicode="&#x128;" horiz-adv-x="696" 
d="M734 1400l-272 -1400h-428l272 1400h428zM556 1545q-52 31 -73 31q-31 0 -58 -66l-291 57q45 125 122 189.5t176 64.5q85 0 152 -40q50 -31 73 -31q31 0 58 66l291 -57q-45 -125 -122 -189.5t-176 -64.5q-85 0 -152 40z" />
    <glyph glyph-name="itilde" unicode="&#x129;" horiz-adv-x="624" 
d="M4 0l201 1036h416l-201 -1036h-416zM455 1211q-52 31 -73 31q-31 0 -58 -66l-291 57q45 125 122 189.5t176 64.5q85 0 152 -40q50 -31 73 -31q31 0 58 66l291 -57q-45 -125 -122 -189.5t-176 -64.5q-85 0 -152 40z" />
    <glyph glyph-name="Imacron" unicode="&#x12a;" horiz-adv-x="696" 
d="M734 1400l-272 -1400h-428l272 1400h428zM202 1516l58 296h680l-58 -296h-680z" />
    <glyph glyph-name="imacron" unicode="&#x12b;" horiz-adv-x="624" 
d="M4 0l201 1036h416l-201 -1036h-416zM103 1192l58 296h680l-58 -296h-680z" />
    <glyph glyph-name="Ibreve" unicode="&#x12c;" horiz-adv-x="696" 
d="M734 1400l-272 -1400h-428l272 1400h428zM537 1488q-145 0 -243 74.5t-98 193.5q0 26 4 46h314q-1 -4 -1 -11q0 -29 20 -47t51 -18q35 0 63 21.5t35 54.5h314q-19 -90 -90 -163t-168.5 -112t-200.5 -39z" />
    <glyph glyph-name="ibreve" unicode="&#x12d;" horiz-adv-x="624" 
d="M4 0l201 1036h416l-201 -1036h-416zM438 1164q-145 0 -243 74.5t-98 193.5q0 26 4 46h314q-1 -4 -1 -11q0 -29 20 -47t51 -18q35 0 63 21.5t35 54.5h314q-19 -90 -90 -163t-168.5 -112t-200.5 -39z" />
    <glyph glyph-name="Iogonek" unicode="&#x12e;" horiz-adv-x="696" 
d="M208 0h-174l272 1400h428l-272 -1400q-183 -124 -200 -212q-2 -10 -2 -17q0 -24 15 -38.5t40 -14.5q46 0 94 25l37 -149q-91 -52 -206 -52q-111 0 -181.5 50t-70.5 127q0 15 3 31q13 67 73 134t144 116z" />
    <glyph glyph-name="iogonek" unicode="&#x12f;" horiz-adv-x="624" 
d="M4 0l201 1036h416l-201 -1036q-183 -124 -200 -212q-2 -10 -2 -16q0 -24 15 -39t40 -15q46 0 94 25l37 -149q-91 -52 -206 -52q-111 0 -181.5 50t-70.5 127q0 15 3 31q13 67 73 134t144 116h-162zM237 1296q17 88 94 148t173 60q84 0 136.5 -47t52.5 -121q0 -21 -4 -40
q-17 -89 -93.5 -148.5t-172.5 -59.5q-84 0 -137 47.5t-53 121.5q0 22 4 39z" />
    <glyph glyph-name="Idotaccent" unicode="&#x130;" horiz-adv-x="696" 
d="M734 1400l-272 -1400h-428l272 1400h428zM369 1664q16 83 85.5 140.5t154.5 57.5q75 0 121.5 -45t46.5 -115q0 -18 -4 -38q-17 -83 -86.5 -140.5t-154.5 -57.5q-74 0 -120.5 45t-46.5 114q0 18 4 39z" />
    <glyph glyph-name="dotlessi" unicode="&#x131;" horiz-adv-x="624" 
d="M4 0l201 1036h416l-201 -1036h-416z" />
    <glyph glyph-name="IJ" unicode="&#x132;" horiz-adv-x="1606" 
d="M734 1400l-272 -1400h-428l272 1400h428zM1052 486l178 914h428l-186 -954q-42 -213 -194.5 -341.5t-370.5 -128.5q-202 0 -327 78l164 342q72 -52 150 -52q57 0 101.5 40t56.5 102z" />
    <glyph glyph-name="ij" unicode="&#x133;" horiz-adv-x="1248" 
d="M4 0l201 1036h416l-201 -1036h-416zM237 1296q18 89 94.5 148.5t172.5 59.5q84 0 136.5 -47t52.5 -121q0 -21 -4 -40q-17 -89 -93.5 -148.5t-172.5 -59.5q-84 0 -137 47.5t-53 121.5q0 19 4 39zM621 -36l208 1072h416l-222 -1140q-30 -156 -164.5 -258t-307.5 -102
q-77 0 -145 18l66 338h57q37 0 61 19.5t31 52.5zM861 1296q18 89 94.5 148.5t172.5 59.5q84 0 136.5 -47t52.5 -121q0 -21 -4 -40q-17 -89 -93.5 -148.5t-172.5 -59.5q-84 0 -137 47.5t-53 121.5q0 19 4 39z" />
    <glyph glyph-name="Jcircumflex" unicode="&#x134;" horiz-adv-x="950" 
d="M396 486l178 914h428l-186 -954q-42 -213 -194.5 -341.5t-370.5 -128.5q-202 0 -327 78l164 342q72 -52 150 -52q57 0 101.5 40t56.5 102zM1036 1850l226 -342h-372l-57 110l-99 -110h-372l358 342h316z" />
    <glyph glyph-name="jcircumflex" unicode="&#x135;" horiz-adv-x="624" 
d="M-3 -36l208 1072h416l-222 -1140q-30 -156 -164.5 -258t-307.5 -102q-77 0 -145 18l66 338h57q37 0 61 19.5t31 52.5zM666 1526l226 -342h-372l-57 110l-99 -110h-372l358 342h316z" />
    <glyph glyph-name="Kcommaaccent" unicode="&#x136;" horiz-adv-x="1310" 
d="M734 1400l-98 -502h64l314 502h448l-449 -682l247 -718h-448l-170 530h-77l-103 -530h-428l272 1400h428zM367 -128l-225 -342h378l285 342h-438z" />
    <glyph glyph-name="kcommaaccent" unicode="&#x137;" horiz-adv-x="1172" 
d="M616 0l-66 378h-49l-73 -378h-416l283 1460h416l-141 -726h56l177 302h436l-320 -484l137 -552h-440zM256 -128l-225 -342h378l285 342h-438z" />
    <glyph glyph-name="kgreenlandic" unicode="&#x138;" horiz-adv-x="1172" 
d="M616 0l-66 378h-49l-73 -378h-416l201 1036h416l-59 -302h56l177 302h436l-320 -484l137 -552h-440z" />
    <glyph glyph-name="Lacute" unicode="&#x139;" horiz-adv-x="1064" 
d="M34 0l272 1400h428l-201 -1032h482l-71 -368h-910zM327 1508l293 342h418l-329 -342h-382z" />
    <glyph glyph-name="lacute" unicode="&#x13a;" horiz-adv-x="624" 
d="M4 0l283 1460h416l-283 -1460h-416zM258 1568l293 342h418l-329 -342h-382z" />
    <glyph glyph-name="Lcommaaccent" unicode="&#x13b;" horiz-adv-x="1064" 
d="M34 0l272 1400h428l-201 -1032h482l-71 -368h-910zM267 -128l-225 -342h378l285 342h-438z" />
    <glyph glyph-name="lcommaaccent" unicode="&#x13c;" horiz-adv-x="624" 
d="M4 0l283 1460h416l-283 -1460h-416zM-6 -128l-225 -342h378l285 342h-438z" />
    <glyph glyph-name="Lcaron" unicode="&#x13d;" horiz-adv-x="1094" 
d="M34 0l272 1400h428l-201 -1032h482l-71 -368h-910zM781 1213q17 89 90.5 150t164.5 61q79 0 128 -47.5t49 -121.5q0 -23 -4 -42q-11 -55 -45 -103l-224 -322h-231l166 238q-98 47 -98 148q0 20 4 39z" />
    <glyph glyph-name="lcaron" unicode="&#x13e;" horiz-adv-x="1052" 
d="M4 0l283 1460h416l-283 -1460h-416zM751 1273q17 89 90.5 150t164.5 61q79 0 128 -47.5t49 -121.5q0 -23 -4 -42q-11 -55 -45 -103l-224 -322h-231l166 238q-98 47 -98 148q0 20 4 39z" />
    <glyph glyph-name="Ldot" unicode="&#x13f;" horiz-adv-x="1070" 
d="M34 0l272 1400h428l-201 -1032h482l-71 -368h-910zM699 792q16 83 85.5 140.5t154.5 57.5q75 0 121.5 -45t46.5 -115q0 -18 -4 -38q-17 -83 -86.5 -140.5t-154.5 -57.5q-74 0 -120.5 45t-46.5 114q0 18 4 39z" />
    <glyph glyph-name="ldot" unicode="&#x140;" horiz-adv-x="1008" 
d="M4 0l283 1460h416l-283 -1460h-416zM630 752q16 83 85.5 140.5t154.5 57.5q75 0 121.5 -45t46.5 -115q0 -18 -4 -38q-17 -83 -86.5 -140.5t-154.5 -57.5q-74 0 -120.5 45t-46.5 114q0 18 4 39z" />
    <glyph glyph-name="Lslash" unicode="&#x141;" horiz-adv-x="1084" 
d="M54 0l90 464l-148 -68l51 258l147 68l132 678h428l-89 -458l288 134l-50 -258l-289 -134l-61 -316h482l-71 -368h-910z" />
    <glyph glyph-name="lslash" unicode="&#x142;" horiz-adv-x="708" 
d="M46 0l103 535l-137 -59l49 252l137 59l131 673h416l-92 -476l137 60l-49 -252l-137 -60l-142 -732h-416z" />
    <glyph glyph-name="Nacute" unicode="&#x143;" horiz-adv-x="1436" 
d="M34 0l272 1400h468l154 -812l158 812h388l-272 -1400h-468l-155 812l-157 -812h-388zM685 1508l293 342h418l-329 -342h-382z" />
    <glyph glyph-name="nacute" unicode="&#x144;" horiz-adv-x="1244" 
d="M551 634l-123 -634h-416l201 1036h416l-18 -94q46 55 114.5 86.5t142.5 31.5q144 0 233 -86.5t89 -223.5q0 -35 -8 -80l-130 -670h-416l115 594q2 10 2 23q0 37 -24 60t-65 23q-34 0 -64.5 -18.5t-48.5 -47.5zM525 1184l293 342h418l-329 -342h-382z" />
    <glyph glyph-name="Ncommaaccent" unicode="&#x145;" horiz-adv-x="1436" 
d="M34 0l272 1400h468l154 -812l158 812h388l-272 -1400h-468l-155 812l-157 -812h-388zM413 -128l-225 -342h378l285 342h-438z" />
    <glyph glyph-name="ncommaaccent" unicode="&#x146;" horiz-adv-x="1244" 
d="M551 634l-123 -634h-416l201 1036h416l-18 -94q46 55 114.5 86.5t142.5 31.5q144 0 233 -86.5t89 -223.5q0 -35 -8 -80l-130 -670h-416l115 594q2 10 2 23q0 37 -24 60t-65 23q-34 0 -64.5 -18.5t-48.5 -47.5zM319 -128l-225 -342h378l285 342h-438z" />
    <glyph glyph-name="Ncaron" unicode="&#x147;" horiz-adv-x="1436" 
d="M1427 1850l-358 -342h-316l-226 342h372l57 -110l99 110h372zM34 0l272 1400h468l154 -812l158 812h388l-272 -1400h-468l-155 812l-157 -812h-388z" />
    <glyph glyph-name="ncaron" unicode="&#x148;" horiz-adv-x="1244" 
d="M551 634l-123 -634h-416l201 1036h416l-18 -94q46 55 114.5 86.5t142.5 31.5q144 0 233 -86.5t89 -223.5q0 -35 -8 -80l-130 -670h-416l115 594q2 10 2 23q0 37 -24 60t-65 23q-34 0 -64.5 -18.5t-48.5 -47.5zM1274 1506l-358 -342h-316l-226 342h372l57 -110l99 110h372
z" />
    <glyph glyph-name="napostrophe" unicode="&#x149;" horiz-adv-x="1564" 
d="M871 634l-123 -634h-416l201 1036h416l-18 -94q46 55 114.5 86.5t142.5 31.5q144 0 233 -86.5t89 -223.5q0 -35 -8 -80l-130 -670h-416l115 594q2 10 2 23q0 37 -24 60t-65 23q-34 0 -64.5 -18.5t-48.5 -47.5zM167 1273q17 89 90.5 150t164.5 61q79 0 128 -47.5
t49 -121.5q0 -23 -4 -42q-11 -55 -45 -103l-224 -322h-231l166 238q-98 47 -98 148q0 20 4 39z" />
    <glyph glyph-name="Eng" unicode="&#x14a;" horiz-adv-x="1436" 
d="M1474 1400l-293 -1504q-31 -162 -175 -261t-345 -99q-72 0 -123 16l56 288q39 -8 106 -8q36 0 62.5 20t32.5 52l22 116l-238 792l-157 -812h-388l272 1400h403l229 -762l148 762h388z" />
    <glyph glyph-name="eng" unicode="&#x14b;" horiz-adv-x="1244" 
d="M617 -96l134 690q2 10 2 23q0 37 -24 60t-65 23q-34 0 -64.5 -18.5t-48.5 -47.5l-123 -634h-416l201 1036h416l-18 -94q46 55 114.5 86.5t142.5 31.5q144 0 233 -86.5t89 -223.5q0 -35 -8 -80l-151 -774q-21 -107 -93.5 -189t-184 -126.5t-244.5 -44.5q-82 0 -143 16
l56 288q36 -8 99 -8q37 0 63.5 20t32.5 52z" />
    <glyph glyph-name="Omacron" unicode="&#x14c;" horiz-adv-x="1668" 
d="M532 700q-8 -43 -8 -79q0 -123 75.5 -200t200.5 -77q145 0 261.5 101.5t146.5 254.5q8 43 8 78q0 124 -76 201t-201 77q-146 0 -262 -101.5t-145 -254.5zM104 700q39 201 171.5 367t326.5 261.5t408 95.5q285 0 462.5 -165t177.5 -421q0 -63 -14 -138q-39 -201 -172 -367
t-327 -261.5t-408 -95.5q-188 0 -334.5 75.5t-225.5 208t-79 300.5q0 65 14 140zM688 1516l58 296h680l-58 -296h-680z" />
    <glyph glyph-name="omacron" unicode="&#x14d;" horiz-adv-x="1284" 
d="M433 1192l58 296h680l-58 -296h-680zM52 518q30 151 131.5 275.5t251 195.5t313.5 71q220 0 357 -123.5t137 -316.5q0 -52 -10 -102q-29 -151 -130.5 -275.5t-250.5 -195.5t-314 -71q-220 0 -357.5 124t-137.5 317q0 51 10 101zM458 518q-4 -17 -4 -38q0 -64 41.5 -104
t111.5 -40q80 0 142 52t77 130q4 17 4 39q0 64 -41 103.5t-111 39.5q-81 0 -143 -52t-77 -130z" />
    <glyph glyph-name="Obreve" unicode="&#x14e;" horiz-adv-x="1668" 
d="M1023 1488q-145 0 -243 74.5t-98 193.5q0 26 4 46h314q-1 -4 -1 -11q0 -29 20 -47t51 -18q35 0 63 21.5t35 54.5h314q-19 -90 -90 -163t-168.5 -112t-200.5 -39zM532 700q-8 -43 -8 -79q0 -123 75.5 -200t200.5 -77q145 0 261.5 101.5t146.5 254.5q8 43 8 78
q0 124 -76 201t-201 77q-146 0 -262 -101.5t-145 -254.5zM104 700q39 201 171.5 367t326.5 261.5t408 95.5q285 0 462.5 -165t177.5 -421q0 -63 -14 -138q-39 -201 -172 -367t-327 -261.5t-408 -95.5q-188 0 -334.5 75.5t-225.5 208t-79 300.5q0 65 14 140z" />
    <glyph glyph-name="obreve" unicode="&#x14f;" horiz-adv-x="1284" 
d="M769 1164q-145 0 -243 74.5t-98 193.5q0 26 4 46h314q-1 -4 -1 -11q0 -29 20 -47t51 -18q35 0 63 21.5t35 54.5h314q-19 -90 -90 -163t-168.5 -112t-200.5 -39zM52 518q30 151 131.5 275.5t251 195.5t313.5 71q220 0 357 -123.5t137 -316.5q0 -52 -10 -102
q-29 -151 -130.5 -275.5t-250.5 -195.5t-314 -71q-220 0 -357.5 124t-137.5 317q0 51 10 101zM458 518q-4 -17 -4 -38q0 -64 41.5 -104t111.5 -40q80 0 142 52t77 130q4 17 4 39q0 64 -41 103.5t-111 39.5q-81 0 -143 -52t-77 -130z" />
    <glyph glyph-name="Ohungarumlaut" unicode="&#x150;" horiz-adv-x="1668" 
d="M532 700q-8 -43 -8 -79q0 -123 75.5 -200t200.5 -77q145 0 261.5 101.5t146.5 254.5q8 43 8 78q0 124 -76 201t-201 77q-146 0 -262 -101.5t-145 -254.5zM104 700q39 201 171.5 367t326.5 261.5t408 95.5q285 0 462.5 -165t177.5 -421q0 -63 -14 -138q-39 -201 -172 -367
t-327 -261.5t-408 -95.5q-188 0 -334.5 75.5t-225.5 208t-79 300.5q0 65 14 140zM609 1508l293 342h348l-319 -342h-322zM1016 1508l293 342h348l-319 -342h-322z" />
    <glyph glyph-name="ohungarumlaut" unicode="&#x151;" horiz-adv-x="1284" 
d="M52 518q30 151 131.5 275.5t251 195.5t313.5 71q220 0 357 -123.5t137 -316.5q0 -52 -10 -102q-29 -151 -130.5 -275.5t-250.5 -195.5t-314 -71q-220 0 -357.5 124t-137.5 317q0 51 10 101zM458 518q-4 -17 -4 -38q0 -64 41.5 -104t111.5 -40q80 0 142 52t77 130
q4 17 4 39q0 64 -41 103.5t-111 39.5q-81 0 -143 -52t-77 -130zM346 1184l293 342h348l-319 -342h-322zM753 1184l293 342h348l-319 -342h-322z" />
    <glyph glyph-name="OE" unicode="&#x152;" horiz-adv-x="1854" 
d="M104 700q37 193 170 354t327 253.5t405 92.5h922l-70 -356h-504l-32 -166h456l-67 -348h-456l-34 -174h522l-69 -356h-940q-283 0 -463 162t-180 410q0 64 13 128zM528 700q-7 -34 -7 -69q0 -118 78.5 -192.5t204.5 -74.5l131 672q-145 0 -262 -96t-145 -240z" />
    <glyph glyph-name="oe" unicode="&#x153;" horiz-adv-x="2170" 
d="M52 518q30 151 131.5 275.5t251 195.5t313.5 71q141 0 251.5 -67t165.5 -175q93 107 228 174.5t273 67.5q208 0 336.5 -120t128.5 -307q0 -51 -10 -101q-13 -64 -43 -118h-703q0 -78 41.5 -114t124.5 -36q128 0 273 110l151 -210q-209 -188 -494 -188q-151 0 -259 65
t-164 177q-96 -107 -233.5 -174.5t-277.5 -67.5q-220 0 -357.5 124t-137.5 317q0 51 10 101zM458 518q-4 -17 -4 -38q0 -64 41.5 -104t111.5 -40q80 0 142 52t77 130q4 17 4 39q0 64 -41 103.5t-111 39.5q-81 0 -143 -52t-77 -130zM1602 772q-132 0 -184 -140h308v13
q0 65 -30 96t-94 31z" />
    <glyph glyph-name="Racute" unicode="&#x154;" horiz-adv-x="1288" 
d="M572 468h-28l-90 -468h-420l272 1400h564q189 0 305.5 -102t116.5 -270q0 -44 -9 -94q-25 -127 -104 -229.5t-193 -163.5l162 -541h-460zM602 764h86q63 0 113 43.5t63 112.5q4 17 4 37q0 54 -32.5 86.5t-86.5 32.5h-86zM559 1508l293 342h418l-329 -342h-382z" />
    <glyph glyph-name="racute" unicode="&#x155;" horiz-adv-x="870" 
d="M712 700q-48 0 -92.5 -25t-74.5 -69l-117 -606h-416l201 1036h416l-22 -112q36 58 98.5 97t124.5 39q51 0 88 -28l-91 -358q-63 26 -115 26zM290 1184l293 342h418l-329 -342h-382z" />
    <glyph glyph-name="Rcommaaccent" unicode="&#x156;" horiz-adv-x="1288" 
d="M572 468h-28l-90 -468h-420l272 1400h564q189 0 305.5 -102t116.5 -270q0 -44 -9 -94q-25 -127 -104 -229.5t-193 -163.5l162 -541h-460zM602 764h86q63 0 113 43.5t63 112.5q4 17 4 37q0 54 -32.5 86.5t-86.5 32.5h-86zM87 -470l225 342h438l-285 -342h-378z" />
    <glyph glyph-name="rcommaaccent" unicode="&#x157;" horiz-adv-x="870" 
d="M712 700q-48 0 -92.5 -25t-74.5 -69l-117 -606h-416l201 1036h416l-22 -112q36 58 98.5 97t124.5 39q51 0 88 -28l-91 -358q-63 26 -115 26zM2 -128l-225 -342h378l285 342h-438z" />
    <glyph glyph-name="Rcaron" unicode="&#x158;" horiz-adv-x="1288" 
d="M572 468h-28l-90 -468h-420l272 1400h564q189 0 305.5 -102t116.5 -270q0 -44 -9 -94q-25 -127 -104 -229.5t-193 -163.5l162 -541h-460zM602 764h86q63 0 113 43.5t63 112.5q4 17 4 37q0 54 -32.5 86.5t-86.5 32.5h-86zM1327 1850l-358 -342h-316l-226 342h372l57 -110
l99 110h372z" />
    <glyph glyph-name="rcaron" unicode="&#x159;" horiz-adv-x="870" 
d="M712 700q-48 0 -92.5 -25t-74.5 -69l-117 -606h-416l201 1036h416l-22 -112q36 58 98.5 97t124.5 39q51 0 88 -28l-91 -358q-63 26 -115 26zM1063 1506l-358 -342h-316l-226 342h372l57 -110l99 110h372z" />
    <glyph glyph-name="Sacute" unicode="&#x15a;" horiz-adv-x="1212" 
d="M8 198l263 284q60 -74 143 -116t172 -42q46 0 82 25t43 61q2 12 2 18q0 38 -42.5 67.5t-150.5 54.5q-155 36 -247 125.5t-92 222.5q0 33 8 76q38 193 203.5 321.5t379.5 128.5q134 0 254 -47.5t204 -130.5l-253 -292q-132 130 -253 130q-37 0 -65.5 -21.5t-34.5 -52.5
q-2 -12 -2 -17q0 -32 36 -58.5t128 -48.5q174 -41 270.5 -133.5t96.5 -229.5q0 -44 -8 -81q-25 -129 -110.5 -234.5t-223 -168.5t-300.5 -63q-331 0 -503 222zM514 1508l293 342h418l-329 -342h-382z" />
    <glyph glyph-name="sacute" unicode="&#x15b;" horiz-adv-x="964" 
d="M-31 148l211 228q37 -51 98.5 -79.5t130.5 -28.5q68 0 81 38q2 6 2 11q0 38 -108 63q-128 30 -199 105t-71 181q0 32 6 64q28 143 162 236.5t307 93.5q105 0 201 -38.5t169 -105.5l-206 -226q-76 78 -179 78q-49 0 -60 -35q-3 -9 -3 -15q0 -42 93 -63q142 -30 214 -102.5
t72 -177.5q0 -25 -7 -65q-29 -144 -169 -239t-326 -95q-136 0 -246.5 45.5t-172.5 126.5zM333 1184l293 342h418l-329 -342h-382z" />
    <glyph glyph-name="Scircumflex" unicode="&#x15c;" horiz-adv-x="1212" 
d="M8 198l263 284q60 -74 143 -116t172 -42q46 0 82 25t43 61q2 12 2 18q0 38 -42.5 67.5t-150.5 54.5q-155 36 -247 125.5t-92 222.5q0 33 8 76q38 193 203.5 321.5t379.5 128.5q134 0 254 -47.5t204 -130.5l-253 -292q-132 130 -253 130q-37 0 -65.5 -21.5t-34.5 -52.5
q-2 -12 -2 -17q0 -32 36 -58.5t128 -48.5q174 -41 270.5 -133.5t96.5 -229.5q0 -44 -8 -81q-25 -129 -110.5 -234.5t-223 -168.5t-300.5 -63q-331 0 -503 222zM1032 1850l226 -342h-372l-57 110l-99 -110h-372l358 342h316z" />
    <glyph glyph-name="scircumflex" unicode="&#x15d;" horiz-adv-x="964" 
d="M-31 148l211 228q37 -51 98.5 -79.5t130.5 -28.5q68 0 81 38q2 6 2 11q0 38 -108 63q-128 30 -199 105t-71 181q0 32 6 64q28 143 162 236.5t307 93.5q105 0 201 -38.5t169 -105.5l-206 -226q-76 78 -179 78q-49 0 -60 -35q-3 -9 -3 -15q0 -42 93 -63q142 -30 214 -102.5
t72 -177.5q0 -25 -7 -65q-29 -144 -169 -239t-326 -95q-136 0 -246.5 45.5t-172.5 126.5zM827 1526l226 -342h-372l-57 110l-99 -110h-372l358 342h316z" />
    <glyph glyph-name="Scedilla" unicode="&#x15e;" horiz-adv-x="1212" 
d="M474 -305q2 6 2 12q0 37 -72 37q-41 0 -69 -4l-54 74l122 169q-255 32 -395 215l263 284q60 -74 143 -116t172 -42q46 0 82 25t43 61q2 12 2 18q0 38 -42.5 67.5t-150.5 54.5q-155 36 -247 125.5t-92 222.5q0 33 8 76q38 193 203.5 321.5t379.5 128.5q134 0 254 -47.5
t204 -130.5l-253 -292q-132 130 -253 130q-37 0 -65.5 -21.5t-34.5 -52.5q-2 -12 -2 -17q0 -32 36 -58.5t128 -48.5q174 -41 270.5 -133.5t96.5 -229.5q0 -44 -8 -81q-31 -161 -156 -282.5t-307 -163.5l-97 -110q72 -20 114 -62.5t42 -98.5q0 -14 -3 -29
q-19 -93 -126 -154.5t-248 -61.5q-150 0 -232 69l125 149q23 -19 59.5 -30.5t70.5 -11.5q73 0 87 39z" />
    <glyph glyph-name="scedilla" unicode="&#x15f;" horiz-adv-x="964" 
d="M330 -305q2 6 2 12q0 37 -72 37q-41 0 -69 -4l-54 74l125 173q-196 34 -293 161l211 228q37 -51 98.5 -79.5t130.5 -28.5q68 0 81 38q2 6 2 11q0 38 -108 63q-128 30 -199 105t-71 181q0 32 6 64q28 143 162 236.5t307 93.5q105 0 201 -38.5t169 -105.5l-206 -226
q-76 78 -179 78q-49 0 -60 -35q-3 -9 -3 -15q0 -42 93 -63q142 -30 214 -102.5t72 -177.5q0 -25 -7 -65q-22 -114 -117 -198.5t-231 -117.5l-94 -108q72 -20 114 -62.5t42 -98.5q0 -14 -3 -29q-19 -93 -126 -154.5t-248 -61.5q-150 0 -232 69l125 149q23 -19 59.5 -30.5
t70.5 -11.5q73 0 87 39z" />
    <glyph glyph-name="Scaron" unicode="&#x160;" horiz-adv-x="1212" 
d="M8 198l263 284q60 -74 143 -116t172 -42q46 0 82 25t43 61q2 12 2 18q0 38 -42.5 67.5t-150.5 54.5q-155 36 -247 125.5t-92 222.5q0 33 8 76q38 193 203.5 321.5t379.5 128.5q134 0 254 -47.5t204 -130.5l-253 -292q-132 130 -253 130q-37 0 -65.5 -21.5t-34.5 -52.5
q-2 -12 -2 -17q0 -32 36 -58.5t128 -48.5q174 -41 270.5 -133.5t96.5 -229.5q0 -44 -8 -81q-25 -129 -110.5 -234.5t-223 -168.5t-300.5 -63q-331 0 -503 222zM1304 1850l-358 -342h-316l-226 342h372l57 -110l99 110h372z" />
    <glyph glyph-name="scaron" unicode="&#x161;" horiz-adv-x="964" 
d="M-31 148l211 228q37 -51 98.5 -79.5t130.5 -28.5q68 0 81 38q2 6 2 11q0 38 -108 63q-128 30 -199 105t-71 181q0 32 6 64q28 143 162 236.5t307 93.5q105 0 201 -38.5t169 -105.5l-206 -226q-76 78 -179 78q-49 0 -60 -35q-3 -9 -3 -15q0 -42 93 -63q142 -30 214 -102.5
t72 -177.5q0 -25 -7 -65q-29 -144 -169 -239t-326 -95q-136 0 -246.5 45.5t-172.5 126.5zM1115 1506l-358 -342h-316l-226 342h372l57 -110l99 110h372z" />
    <glyph glyph-name="Tcommaaccent" unicode="&#x162;" horiz-adv-x="1128" 
d="M250 0l200 1032h-310l72 368h1048l-72 -368h-310l-200 -1032h-60l-101 -114q72 -20 114 -62.5t42 -98.5q0 -14 -3 -29q-17 -91 -125 -153.5t-249 -62.5q-150 0 -232 69l125 149q23 -19 59.5 -30.5t70.5 -11.5q71 0 86 37q3 8 3 14q0 37 -72 37q-41 0 -69 -4l-54 74
l135 186h-98z" />
    <glyph glyph-name="tcommaaccent" unicode="&#x163;" horiz-adv-x="832" 
d="M289 -305q2 6 2 12q0 37 -72 37q-41 0 -69 -4l-54 74l154 213q-124 80 -124 240q0 33 8 75l66 338h-128l69 356h128l51 264l423 36l-58 -300h192l-69 -356h-192l-54 -274q-2 -12 -2 -18q0 -56 70 -56q73 0 124 8l-65 -330q-86 -28 -209 -33l-80 -91q72 -20 114 -62.5
t42 -98.5q0 -14 -3 -29q-19 -93 -126 -154.5t-248 -61.5q-150 0 -232 69l125 149q23 -19 59.5 -30.5t70.5 -11.5q74 0 87 39z" />
    <glyph glyph-name="Tcaron" unicode="&#x164;" horiz-adv-x="1128" 
d="M1273 1850l-358 -342h-316l-226 342h372l57 -110l99 110h372zM250 0l200 1032h-310l72 368h1048l-72 -368h-310l-200 -1032h-428z" />
    <glyph glyph-name="tcaron" unicode="&#x165;" horiz-adv-x="1257" 
d="M616 680l-54 -274q-2 -12 -2 -18q0 -56 70 -56q73 0 124 8l-65 -330q-99 -34 -250 -34q-141 0 -227 81t-86 210q0 33 8 75l66 338h-128l69 356h128l51 264l423 36l-58 -300h192l-69 -356h-192zM956 1273q17 89 90.5 150t164.5 61q79 0 128 -47.5t49 -121.5q0 -23 -4 -42
q-11 -55 -45 -103l-224 -322h-231l166 238q-98 47 -98 148q0 20 4 39z" />
    <glyph glyph-name="Tbar" unicode="&#x166;" horiz-adv-x="1128" 
d="M250 0l105 544h-186l47 242h186l48 246h-310l72 368h1048l-72 -368h-310l-48 -246h186l-47 -242h-186l-105 -544h-428z" />
    <glyph glyph-name="tbar" unicode="&#x167;" horiz-adv-x="832" 
d="M623 720l-21 -108h146l-41 -212h-146l-6 -34q-2 -14 -2 -20q0 -54 69 -54q73 0 124 8l-57 -290q-100 -34 -250 -34q-143 0 -229.5 74.5t-86.5 200.5q0 36 7 71l15 78h-98l41 212h98l21 108h-128l62 316h128l51 264l423 36l-58 -300h192l-62 -316h-192z" />
    <glyph glyph-name="Utilde" unicode="&#x168;" horiz-adv-x="1356" 
d="M887 1545q-52 31 -73 31q-31 0 -58 -66l-291 57q45 125 122 189.5t176 64.5q85 0 152 -40q50 -31 73 -31q31 0 58 66l291 -57q-45 -125 -122 -189.5t-176 -64.5q-85 0 -152 40zM538 468l182 932h-428l-188 -964q-7 -36 -7 -75q0 -166 133.5 -274.5t342.5 -108.5
q234 0 421.5 133t225.5 325l188 964h-428l-182 -932q-11 -53 -53.5 -87.5t-99.5 -34.5q-50 0 -79.5 27t-29.5 71q0 13 2 24z" />
    <glyph glyph-name="utilde" unicode="&#x169;" horiz-adv-x="1244" 
d="M694 402l123 634h416l-201 -1036h-416l18 94q-47 -55 -115 -86.5t-142 -31.5q-144 0 -233 86.5t-89 223.5q0 35 8 80l130 670h416l-116 -594q-2 -14 -2 -21q0 -37 24.5 -61t65.5 -24q34 0 64 18.5t49 47.5zM755 1211q-52 31 -73 31q-31 0 -58 -66l-291 57
q45 125 122 189.5t176 64.5q85 0 152 -40q50 -31 73 -31q31 0 58 66l291 -57q-45 -125 -122 -189.5t-176 -64.5q-85 0 -152 40z" />
    <glyph glyph-name="Umacron" unicode="&#x16a;" horiz-adv-x="1356" 
d="M532 1516l58 296h680l-58 -296h-680zM538 468l182 932h-428l-188 -964q-7 -36 -7 -75q0 -166 133.5 -274.5t342.5 -108.5q234 0 421.5 133t225.5 325l188 964h-428l-182 -932q-11 -53 -53.5 -87.5t-99.5 -34.5q-50 0 -79.5 27t-29.5 71q0 13 2 24z" />
    <glyph glyph-name="umacron" unicode="&#x16b;" horiz-adv-x="1244" 
d="M694 402l123 634h416l-201 -1036h-416l18 94q-47 -55 -115 -86.5t-142 -31.5q-144 0 -233 86.5t-89 223.5q0 35 8 80l130 670h416l-116 -594q-2 -14 -2 -21q0 -37 24.5 -61t65.5 -24q34 0 64 18.5t49 47.5zM403 1192l58 296h680l-58 -296h-680z" />
    <glyph glyph-name="Ubreve" unicode="&#x16c;" horiz-adv-x="1356" 
d="M867 1488q-145 0 -243 74.5t-98 193.5q0 26 4 46h314q-1 -4 -1 -11q0 -29 20 -47t51 -18q35 0 63 21.5t35 54.5h314q-19 -90 -90 -163t-168.5 -112t-200.5 -39zM538 468l182 932h-428l-188 -964q-7 -36 -7 -75q0 -166 133.5 -274.5t342.5 -108.5q234 0 421.5 133
t225.5 325l188 964h-428l-182 -932q-11 -53 -53.5 -87.5t-99.5 -34.5q-50 0 -79.5 27t-29.5 71q0 13 2 24z" />
    <glyph glyph-name="ubreve" unicode="&#x16d;" horiz-adv-x="1244" 
d="M694 402l123 634h416l-201 -1036h-416l18 94q-47 -55 -115 -86.5t-142 -31.5q-144 0 -233 86.5t-89 223.5q0 35 8 80l130 670h416l-116 -594q-2 -14 -2 -21q0 -37 24.5 -61t65.5 -24q34 0 64 18.5t49 47.5zM738 1164q-145 0 -243 74.5t-98 193.5q0 26 4 46h314
q-1 -4 -1 -11q0 -29 20 -47t51 -18q35 0 63 21.5t35 54.5h314q-19 -90 -90 -163t-168.5 -112t-200.5 -39z" />
    <glyph glyph-name="Uring" unicode="&#x16e;" horiz-adv-x="1356" 
d="M851 1686q-1 -5 -1 -10q0 -19 12 -30.5t33 -11.5q24 0 42 14.5t22 37.5q1 6 1 12q0 18 -11.5 29t-32.5 11q-24 0 -42 -14.5t-23 -37.5zM649 1686q19 99 106.5 166t195.5 67q95 0 154.5 -53t59.5 -136q0 -23 -4 -44q-19 -99 -106 -166t-195 -67q-95 0 -155 53.5t-60 137.5
q0 22 4 42zM538 468l182 932h-428l-188 -964q-7 -36 -7 -75q0 -166 133.5 -274.5t342.5 -108.5q234 0 421.5 133t225.5 325l188 964h-428l-182 -932q-11 -53 -53.5 -87.5t-99.5 -34.5q-50 0 -79.5 27t-29.5 71q0 13 2 24z" />
    <glyph glyph-name="uring" unicode="&#x16f;" horiz-adv-x="1244" 
d="M694 402l123 634h416l-201 -1036h-416l18 94q-47 -55 -115 -86.5t-142 -31.5q-144 0 -233 86.5t-89 223.5q0 35 8 80l130 670h416l-116 -594q-2 -14 -2 -21q0 -37 24.5 -61t65.5 -24q34 0 64 18.5t49 47.5zM722 1362q-1 -5 -1 -10q0 -19 12 -30.5t33 -11.5q24 0 42 14.5
t22 37.5q1 6 1 12q0 18 -11.5 29t-32.5 11q-24 0 -42 -14.5t-23 -37.5zM520 1362q19 99 106.5 166t195.5 67q95 0 154.5 -53t59.5 -136q0 -23 -4 -44q-19 -99 -106 -166t-195 -67q-95 0 -155 53.5t-60 137.5q0 22 4 42z" />
    <glyph glyph-name="Uhungarumlaut" unicode="&#x170;" horiz-adv-x="1356" 
d="M720 1400l-182 -932q-2 -11 -2 -24q0 -44 29.5 -71t79.5 -27q57 0 99.5 34.5t53.5 87.5l182 932h428l-188 -964q-38 -192 -225.5 -325t-421.5 -133q-209 0 -342.5 108.5t-133.5 274.5q0 39 7 75l188 964h428zM459 1508l293 342h348l-319 -342h-322zM866 1508l293 342h348
l-319 -342h-322z" />
    <glyph glyph-name="uhungarumlaut" unicode="&#x171;" horiz-adv-x="1244" 
d="M694 402l123 634h416l-201 -1036h-416l18 94q-47 -55 -115 -86.5t-142 -31.5q-144 0 -233 86.5t-89 223.5q0 35 8 80l130 670h416l-116 -594q-2 -14 -2 -21q0 -37 24.5 -61t65.5 -24q34 0 64 18.5t49 47.5zM332 1184l293 342h348l-319 -342h-322zM739 1184l293 342h348
l-319 -342h-322z" />
    <glyph glyph-name="Uogonek" unicode="&#x172;" horiz-adv-x="1356" 
d="M720 1400l-182 -932q-2 -11 -2 -24q0 -44 29.5 -71t79.5 -27q57 0 99.5 34.5t53.5 87.5l182 932h428l-188 -964q-30 -150 -155.5 -268t-299.5 -165q-178 -121 -202 -206q-3 -10 -3 -22q0 -22 15 -34.5t41 -12.5q46 0 93 25l36 -159q-91 -52 -206 -52q-116 0 -189 49.5
t-73 127.5q0 16 3 31q12 62 67 123.5t134 111.5q-173 23 -278.5 126.5t-105.5 249.5q0 39 7 75l188 964h428z" />
    <glyph glyph-name="uogonek" unicode="&#x173;" horiz-adv-x="1244" 
d="M778 0h-162l18 94q-47 -55 -115 -86.5t-142 -31.5q-144 0 -233 86.5t-89 223.5q0 35 8 80l130 670h416l-116 -594q-2 -10 -2 -21q0 -37 24.5 -61t65.5 -24q34 0 64 18.5t49 47.5l123 634h416l-201 -1036q-183 -124 -200 -212q-1 -5 -1 -13q0 -22 15 -34.5t41 -12.5
q46 0 93 25l36 -159q-91 -52 -206 -52q-116 0 -189 49.5t-73 127.5q0 16 3 31q13 68 76.5 133.5t150.5 116.5z" />
    <glyph glyph-name="Wcircumflex" unicode="&#x174;" horiz-adv-x="2008" 
d="M960 1400h432l4 -854l332 854h438l-630 -1400h-442l-30 826l-350 -826h-442l-86 1400h438v-854zM1421 1850l226 -342h-372l-57 110l-99 -110h-372l358 342h316z" />
    <glyph glyph-name="wcircumflex" unicode="&#x175;" horiz-adv-x="1648" 
d="M727 1036h396l-13 -558l207 558h416l-485 -1036h-426l-8 464l-188 -464h-426l-83 1036h416l-11 -558zM1178 1526l226 -342h-372l-57 110l-99 -110h-372l358 342h316z" />
    <glyph glyph-name="Ycircumflex" unicode="&#x176;" horiz-adv-x="1340" 
d="M652 1400l97 -476l283 476h466l-611 -866l-103 -534h-428l103 534l-273 866h466zM1087 1850l226 -342h-372l-57 110l-99 -110h-372l358 342h316z" />
    <glyph glyph-name="ycircumflex" unicode="&#x177;" horiz-adv-x="1128" 
d="M777 1036h436l-798 -1500h-438l289 464l-149 1036h436l14 -506zM918 1526l226 -342h-372l-57 110l-99 -110h-372l358 342h316z" />
    <glyph glyph-name="Ydieresis" unicode="&#x178;" horiz-adv-x="1340" 
d="M652 1400l97 -476l283 476h466l-611 -866l-103 -534h-428l103 534l-273 866h466zM482 1664q15 80 80.5 134t147.5 54q72 0 116 -42.5t44 -108.5q0 -16 -4 -37q-16 -80 -81.5 -134t-147.5 -54q-71 0 -115 42t-44 108q0 17 4 38zM920 1664q15 80 80.5 134t147.5 54
q72 0 116 -42.5t44 -108.5q0 -16 -4 -37q-16 -80 -81.5 -134t-147.5 -54q-71 0 -115 42t-44 108q0 17 4 38z" />
    <glyph glyph-name="Zacute" unicode="&#x179;" horiz-adv-x="1238" 
d="M55 328l675 704h-508l72 368h1014l-64 -328l-675 -704h558l-71 -368h-1064zM551 1508l293 342h418l-329 -342h-382z" />
    <glyph glyph-name="zacute" unicode="&#x17a;" horiz-adv-x="1042" 
d="M-34 0l56 292l448 392h-346l69 352h860l-57 -292l-448 -392h392l-68 -352h-906zM380 1184l293 342h418l-329 -342h-382z" />
    <glyph glyph-name="Zdotaccent" unicode="&#x17b;" horiz-adv-x="1238" 
d="M55 328l675 704h-508l72 368h1014l-64 -328l-675 -704h558l-71 -368h-1064zM654 1664q16 83 85.5 140.5t154.5 57.5q75 0 121.5 -45t46.5 -115q0 -18 -4 -38q-17 -83 -86.5 -140.5t-154.5 -57.5q-74 0 -120.5 45t-46.5 114q0 18 4 39z" />
    <glyph glyph-name="zdotaccent" unicode="&#x17c;" horiz-adv-x="1042" 
d="M-34 0l56 292l448 392h-346l69 352h860l-57 -292l-448 -392h392l-68 -352h-906zM480 1340q16 83 85.5 140.5t154.5 57.5q75 0 121.5 -45t46.5 -115q0 -18 -4 -38q-17 -83 -86.5 -140.5t-154.5 -57.5q-74 0 -120.5 45t-46.5 114q0 18 4 39z" />
    <glyph glyph-name="Zcaron" unicode="&#x17d;" horiz-adv-x="1238" 
d="M55 328l675 704h-508l72 368h1014l-64 -328l-675 -704h558l-71 -368h-1064zM1327 1850l-358 -342h-316l-226 342h372l57 -110l99 110h372z" />
    <glyph glyph-name="zcaron" unicode="&#x17e;" horiz-adv-x="1042" 
d="M-34 0l56 292l448 392h-346l69 352h860l-57 -292l-448 -392h392l-68 -352h-906zM1158 1506l-358 -342h-316l-226 342h372l57 -110l99 110h372z" />
    <glyph glyph-name="longs" unicode="&#x17f;" horiz-adv-x="806" 
d="M946 1444l-56 -288q-36 8 -98 8q-37 0 -63.5 -20t-32.5 -52l-212 -1092h-416l132 680h-128l69 356h128l12 64q21 107 93.5 189t184 126.5t244.5 44.5q82 0 143 -16z" />
    <glyph glyph-name="uni0191" unicode="&#x191;" horiz-adv-x="1096" 
d="M551 462l-106 -546q-32 -162 -182 -271t-343 -109q-114 0 -175 16l70 356q40 -8 107 -8q41 0 71 23t37 59l276 1418h912l-71 -364h-484l-41 -210h436l-71 -364h-436z" />
    <glyph glyph-name="florin" unicode="&#x192;" horiz-adv-x="806" 
d="M49 -96l151 776h-128l69 356h128l12 64q21 107 93.5 189t184 126.5t244.5 44.5q82 0 143 -16l-56 -288q-36 8 -98 8q-37 0 -63.5 -20t-32.5 -52l-11 -56h182l-69 -356h-182l-153 -784q-21 -107 -93.5 -189t-184 -126.5t-244.5 -44.5q-81 0 -142 16l56 288q36 -8 98 -8
q37 0 63.5 20t32.5 52z" />
    <glyph glyph-name="Aringacute" unicode="&#x1fa;" horiz-adv-x="1404" 
d="M648 1450q18 92 98.5 155t180.5 63q88 0 142.5 -50t54.5 -127q0 -22 -4 -41q-13 -72 -71 -130h66l175 -1320h-436l-18 246h-375l-111 -246h-436l687 1320h67q-24 42 -24 91q0 13 4 39zM1065 1688h-315l222 262h344zM788 962l-182 -400h210zM830 1450q-1 -5 -1 -12
q0 -20 12 -32.5t32 -12.5q23 0 41.5 16.5t23.5 40.5q1 5 1 13q0 20 -12 32t-32 12q-23 0 -41.5 -17t-23.5 -40z" />
    <glyph glyph-name="aringacute" unicode="&#x1fb;" horiz-adv-x="1326" 
d="M552 1320q18 92 98 155t180 63q88 0 143 -50t55 -127q0 -22 -4 -41q-18 -92 -98 -155t-180 -63q-88 0 -143 50t-55 127q0 22 4 41zM734 1320q-1 -5 -1 -12q0 -20 12 -32.5t32 -12.5q23 0 41.5 16.5t23.5 40.5q1 5 1 12q0 20 -12 32.5t-32 12.5q-23 0 -41.5 -16.5
t-23.5 -40.5zM970 1568h-315l222 262h344zM725 80l-15 -80h404l201 1036h-404l-16 -80q-43 47 -112 75.5t-147 28.5q-201 0 -370 -156.5t-214 -385.5q-12 -63 -12 -122q0 -185 106.5 -302.5t278.5 -117.5q78 0 158 28.5t142 75.5zM825 596l-30 -156q-31 -47 -81 -75.5
t-107 -28.5q-70 0 -111.5 40t-41.5 104q0 17 4 38q15 78 77 130t143 52q57 0 96 -28t51 -76z" />
    <glyph glyph-name="AEacute" unicode="&#x1fc;" horiz-adv-x="1910" 
d="M346 0h-436l994 1400h1080l-70 -356h-504l-32 -166h456l-67 -348h-456l-34 -174h522l-69 -356h-940l47 246h-332zM978 972l-266 -410h187zM889 1508l293 342h418l-329 -342h-382z" />
    <glyph glyph-name="aeacute" unicode="&#x1fd;" horiz-adv-x="2058" 
d="M1263 414q0 -78 41.5 -114t124.5 -36q128 0 273 110l151 -210q-209 -188 -494 -188q-142 0 -250.5 56t-168.5 153q-85 -98 -215.5 -153.5t-272.5 -55.5q-194 0 -317.5 86.5t-123.5 219.5q0 25 5 52q27 143 183.5 240.5t357.5 97.5q152 0 259 -74q3 17 3 32q0 68 -56 105
t-157 37q-179 0 -333 -106l-68 248q90 69 216 107.5t252 38.5q140 0 246.5 -53.5t156.5 -149.5q100 95 223 149t255 54q208 0 336.5 -120t128.5 -307q0 -51 -10 -101q-13 -64 -43 -118h-703zM424 334q-1 -5 -1 -12q0 -35 35.5 -57.5t92.5 -22.5q115 0 209 77l7 39
q-63 68 -181 68q-62 0 -108 -26t-54 -66zM1490 772q-132 0 -184 -140h308v13q0 65 -30 96t-94 31zM892 1184l293 342h418l-329 -342h-382z" />
    <glyph glyph-name="Oslashacute" unicode="&#x1fe;" horiz-adv-x="1668" 
d="M104 700q39 201 171.5 367t326.5 261.5t408 95.5q180 0 326 -72l103 108h286l-222 -232q147 -160 147 -390q0 -65 -14 -138q-39 -201 -172 -367t-327 -261.5t-408 -95.5q-195 0 -345 81l-112 -117h-286l236 247q-132 154 -132 373q0 65 14 140zM1214 700q7 35 7 73
q0 70 -27 132l-517 -541q54 -24 123 -24q145 0 264.5 104t149.5 256zM526 700q-8 -42 -8 -76q0 -57 19 -109l504 528q-48 17 -101 17q-145 0 -265 -104t-149 -256zM800 1508l293 342h418l-329 -342h-382z" />
    <glyph glyph-name="oslashacute" unicode="&#x1ff;" horiz-adv-x="1284" 
d="M52 518q30 151 131.5 275.5t251 195.5t313.5 71q134 0 240 -49l83 85h258l-189 -195q102 -118 102 -281q0 -52 -10 -102q-29 -151 -130.5 -275.5t-250.5 -195.5t-314 -71q-132 0 -243 49l-82 -85h-258l189 196q-101 117 -101 281q0 51 10 101zM876 518q5 27 5 46
q0 32 -9 59l-322 -333q20 -4 47 -4q99 0 179.5 67t99.5 165zM408 518q-5 -28 -5 -48q0 -29 8 -56l321 332q-28 4 -45 4q-99 0 -179.5 -67t-99.5 -165zM545 1184l293 342h418l-329 -342h-382z" />
    <glyph glyph-name="Scommaaccent" unicode="&#x218;" horiz-adv-x="1212" 
d="M8 198l263 284q60 -74 143 -116t172 -42q46 0 82 25t43 61q2 12 2 18q0 38 -42.5 67.5t-150.5 54.5q-155 36 -247 125.5t-92 222.5q0 33 8 76q38 193 203.5 321.5t379.5 128.5q134 0 254 -47.5t204 -130.5l-253 -292q-132 130 -253 130q-37 0 -65.5 -21.5t-34.5 -52.5
q-2 -12 -2 -17q0 -32 36 -58.5t128 -48.5q174 -41 270.5 -133.5t96.5 -229.5q0 -44 -8 -81q-25 -129 -110.5 -234.5t-223 -168.5t-300.5 -63q-331 0 -503 222zM304 -128l-225 -342h378l285 342h-438z" />
    <glyph glyph-name="scommaaccent" unicode="&#x219;" horiz-adv-x="964" 
d="M-31 148l211 228q37 -51 98.5 -79.5t130.5 -28.5q68 0 81 38q2 6 2 11q0 38 -108 63q-128 30 -199 105t-71 181q0 32 6 64q28 143 162 236.5t307 93.5q105 0 201 -38.5t169 -105.5l-206 -226q-76 78 -179 78q-49 0 -60 -35q-3 -9 -3 -15q0 -42 93 -63q142 -30 214 -102.5
t72 -177.5q0 -25 -7 -65q-29 -144 -169 -239t-326 -95q-136 0 -246.5 45.5t-172.5 126.5zM174 -128l-225 -342h378l285 342h-438z" />
    <glyph glyph-name="uni021A" unicode="&#x21a;" horiz-adv-x="1128" 
d="M250 0l200 1032h-310l72 368h1048l-72 -368h-310l-200 -1032h-428zM240 -128l-225 -342h378l285 342h-438z" />
    <glyph glyph-name="uni021B" unicode="&#x21b;" horiz-adv-x="832" 
d="M616 680l-54 -274q-2 -12 -2 -18q0 -56 70 -56q73 0 124 8l-65 -330q-99 -34 -250 -34q-141 0 -227 81t-86 210q0 33 8 75l66 338h-128l69 356h128l51 264l423 36l-58 -300h192l-69 -356h-192zM126 -128l-225 -342h378l285 342h-438z" />
    <glyph glyph-name="dotlessj" unicode="&#x237;" horiz-adv-x="624" 
d="M-3 -36l208 1072h416l-222 -1140q-30 -156 -164.5 -258t-307.5 -102q-77 0 -145 18l66 338h57q37 0 61 19.5t31 52.5z" />
    <glyph glyph-name="apostrophe" unicode="&#x2bc;" horiz-adv-x="880" 
d="M373 1273q17 89 90.5 150t164.5 61q79 0 128 -47.5t49 -121.5q0 -23 -4 -42q-11 -55 -45 -103l-224 -322h-231l166 238q-98 47 -98 148q0 20 4 39z" />
    <glyph glyph-name="circumflex" unicode="&#x2c6;" horiz-adv-x="880" 
d="M781 1460l226 -342h-372l-57 110l-99 -110h-372l358 342h316z" />
    <glyph glyph-name="caron" unicode="&#x2c7;" horiz-adv-x="880" 
d="M1073 1460l-358 -342h-316l-226 342h372l57 -110l99 110h372z" />
    <glyph glyph-name="uni02C9" unicode="&#x2c9;" horiz-adv-x="880" 
d="M221 1140l58 296h680l-58 -296h-680z" />
    <glyph glyph-name="breve" unicode="&#x2d8;" horiz-adv-x="880" 
d="M558 1126q-145 0 -243 74.5t-98 193.5q0 26 4 46h314q-1 -4 -1 -11q0 -29 20 -47t51 -18q35 0 63 21.5t35 54.5h314q-19 -90 -90 -163t-168.5 -112t-200.5 -39z" />
    <glyph glyph-name="dotaccent" unicode="&#x2d9;" horiz-adv-x="880" 
d="M389 1292q16 83 85.5 140.5t154.5 57.5q75 0 121.5 -45t46.5 -115q0 -18 -4 -38q-17 -83 -86.5 -140.5t-154.5 -57.5q-74 0 -120.5 45t-46.5 114q0 18 4 39z" />
    <glyph glyph-name="ring" unicode="&#x2da;" horiz-adv-x="880" 
d="M535 1286q-1 -5 -1 -10q0 -19 12 -30.5t33 -11.5q24 0 42 14.5t22 37.5q1 6 1 12q0 18 -11.5 29t-32.5 11q-24 0 -42 -14.5t-23 -37.5zM333 1286q19 99 106.5 166t195.5 67q95 0 154.5 -53t59.5 -136q0 -23 -4 -44q-19 -99 -106 -166t-195 -67q-95 0 -155 53.5t-60 137.5
q0 22 4 42z" />
    <glyph glyph-name="ogonek" unicode="&#x2db;" horiz-adv-x="880" 
d="M282 0h254q-174 -118 -198 -203q-3 -10 -3 -22q0 -22 15 -34.5t41 -12.5q46 0 93 25l36 -159q-91 -52 -206 -52q-116 0 -189 49.5t-73 127.5q0 16 3 31q13 68 76.5 133.5t150.5 116.5z" />
    <glyph glyph-name="tilde" unicode="&#x2dc;" horiz-adv-x="880" 
d="M575 1165q-52 31 -73 31q-31 0 -58 -66l-291 57q45 125 122 189.5t176 64.5q85 0 152 -40q50 -31 73 -31q31 0 58 66l291 -57q-45 -125 -122 -189.5t-176 -64.5q-85 0 -152 40z" />
    <glyph glyph-name="hungarumlaut" unicode="&#x2dd;" horiz-adv-x="880" 
d="M97 1118l293 342h348l-319 -342h-322zM504 1118l293 342h348l-319 -342h-322z" />
    <glyph glyph-name="gravecomb" unicode="&#x300;" horiz-adv-x="0" 
d="M-194 1460l161 -342h-382l-197 342h418z" />
    <glyph glyph-name="acutecomb" unicode="&#x301;" horiz-adv-x="0" 
d="M-613 1118l293 342h418l-329 -342h-382z" />
    <glyph glyph-name="uni0302" unicode="&#x302;" horiz-adv-x="0" 
d="M-99 1460l226 -342h-372l-57 110l-99 -110h-372l358 342h316z" />
    <glyph glyph-name="tildecomb" unicode="&#x303;" horiz-adv-x="0" 
d="M-305 1165q-52 31 -73 31q-31 0 -58 -66l-291 57q45 125 122 189.5t176 64.5q85 0 152 -40q50 -31 73 -31q31 0 58 66l291 -57q-45 -125 -122 -189.5t-176 -64.5q-85 0 -152 40z" />
    <glyph glyph-name="uni0304" unicode="&#x304;" horiz-adv-x="0" 
d="M-659 1140l58 296h680l-58 -296h-680z" />
    <glyph glyph-name="uni0306" unicode="&#x306;" horiz-adv-x="0" 
d="M-322 1126q-145 0 -243 74.5t-98 193.5q0 26 4 46h314q-1 -4 -1 -11q0 -29 20 -47t51 -18q35 0 63 21.5t35 54.5h314q-19 -90 -90 -163t-168.5 -112t-200.5 -39z" />
    <glyph glyph-name="uni0307" unicode="&#x307;" horiz-adv-x="0" 
d="M-491 1292q16 83 85.5 140.5t154.5 57.5q75 0 121.5 -45t46.5 -115q0 -18 -4 -38q-17 -83 -86.5 -140.5t-154.5 -57.5q-74 0 -120.5 45t-46.5 114q0 18 4 39z" />
    <glyph glyph-name="uni0308" unicode="&#x308;" horiz-adv-x="0" 
d="M-700 1292q15 80 80.5 134t147.5 54q72 0 116 -42.5t44 -108.5q0 -16 -4 -37q-16 -80 -81.5 -134t-147.5 -54q-71 0 -115 42t-44 108q0 17 4 38zM-262 1292q15 80 80.5 134t147.5 54q72 0 116 -42.5t44 -108.5q0 -16 -4 -37q-16 -80 -81.5 -134t-147.5 -54q-71 0 -115 42
t-44 108q0 17 4 38z" />
    <glyph glyph-name="uni030A" unicode="&#x30a;" horiz-adv-x="0" 
d="M-345 1286q-1 -5 -1 -10q0 -19 12 -30.5t33 -11.5q24 0 42 14.5t22 37.5q1 6 1 12q0 18 -11.5 29t-32.5 11q-24 0 -42 -14.5t-23 -37.5zM-547 1286q19 99 106.5 166t195.5 67q95 0 154.5 -53t59.5 -136q0 -23 -4 -44q-19 -99 -106 -166t-195 -67q-95 0 -155 53.5
t-60 137.5q0 22 4 42z" />
    <glyph glyph-name="uni030C" unicode="&#x30c;" horiz-adv-x="0" 
d="M193 1460l-358 -342h-316l-226 342h372l57 -110l99 110h372z" />
    <glyph glyph-name="uni0327" unicode="&#x327;" horiz-adv-x="0" 
d="M-581 -305q2 6 2 12q0 37 -72 37q-41 0 -69 -4l-54 74l135 186h270l-101 -114q72 -20 114 -62.5t42 -98.5q0 -14 -3 -29q-19 -93 -126 -154.5t-248 -61.5q-150 0 -232 69l125 149q23 -19 59.5 -30.5t70.5 -11.5q74 0 87 39z" />
    <glyph glyph-name="tonos" unicode="&#x384;" horiz-adv-x="880" 
d="M656 1088h-395l216 372h449z" />
    <glyph glyph-name="dieresistonos" unicode="&#x385;" horiz-adv-x="880" 
d="M203 1145q13 64 69.5 108.5t125.5 44.5q61 0 99.5 -35t38.5 -89q0 -14 -3 -29q-12 -64 -68.5 -108.5t-126.5 -44.5q-62 0 -100 35t-38 90q0 15 3 28zM591 1145q13 64 69.5 108.5t125.5 44.5q61 0 99.5 -35t38.5 -89q0 -14 -3 -29q-12 -64 -68.5 -108.5t-126.5 -44.5
q-62 0 -100 35t-38 90q0 15 3 28zM727 1314h-315l222 262h344z" />
    <glyph glyph-name="Alphatonos" unicode="&#x386;" horiz-adv-x="1619" 
d="M857 1400h464l184 -1400h-436l-18 246h-375l-111 -246h-436zM1003 962l-182 -400h210zM514 1028h-395l216 372h449z" />
    <glyph glyph-name="anoteleia" unicode="&#x387;" horiz-adv-x="612" 
d="M99 658q18 93 96.5 156t179.5 63q89 0 142.5 -49.5t53.5 -127.5q0 -23 -4 -43q-19 -94 -97.5 -157t-179.5 -63q-88 0 -142 49.5t-54 126.5q0 20 5 45z" />
    <glyph glyph-name="Epsilontonos" unicode="&#x388;" horiz-adv-x="1673" 
d="M543 0l272 1400h932l-70 -356h-504l-32 -166h456l-67 -348h-456l-34 -174h522l-69 -356h-950zM514 1028h-395l216 372h449z" />
    <glyph glyph-name="Etatonos" unicode="&#x389;" horiz-adv-x="1945" 
d="M543 0l272 1400h428l-100 -512h312l100 512h428l-272 -1400h-428l101 520h-312l-101 -520h-428zM514 1028h-395l216 372h449z" />
    <glyph glyph-name="Iotatonos" unicode="&#x38a;" horiz-adv-x="1205" 
d="M1243 1400l-272 -1400h-428l272 1400h428zM514 1028h-395l216 372h449z" />
    <glyph glyph-name="Omicrontonos" unicode="&#x38c;" horiz-adv-x="2020" 
d="M884 700q-8 -43 -8 -79q0 -123 75.5 -200t200.5 -77q145 0 261.5 101.5t146.5 254.5q8 43 8 78q0 124 -76 201t-201 77q-146 0 -262 -101.5t-145 -254.5zM456 700q39 201 171.5 367t326.5 261.5t408 95.5q285 0 462.5 -165t177.5 -421q0 -63 -14 -138q-39 -201 -172 -367
t-327 -261.5t-408 -95.5q-188 0 -334.5 75.5t-225.5 208t-79 300.5q0 65 14 140zM514 1028h-395l216 372h449z" />
    <glyph glyph-name="Upsilontonos" unicode="&#x38e;" horiz-adv-x="1959" 
d="M1271 1400l97 -476l283 476h466l-611 -866l-103 -534h-428l103 534l-273 866h466zM514 1028h-395l216 372h449z" />
    <glyph glyph-name="Omegatonos" unicode="&#x38f;" horiz-adv-x="2010" 
d="M1547 726q7 34 7 70q0 114 -71 187t-186 73q-133 0 -242 -95t-136 -235q-9 -45 -9 -87q0 -100 49 -176.5t143 -122.5l-66 -340h-660l71 368h202q-159 114 -159 308q0 51 10 100q35 179 162 328t314 234.5t392 85.5q277 0 452 -151t175 -383q0 -60 -11 -114
q-51 -264 -307 -408h202l-71 -368h-660l66 340q135 55 221 155t112 231zM514 1028h-395l216 372h449z" />
    <glyph glyph-name="iotadieresistonos" unicode="&#x390;" horiz-adv-x="696" 
d="M75 366l130 670h416l-113 -580q-3 -17 -3 -29q0 -67 78 -67h42l-68 -354q-53 -6 -129 -6q-186 0 -275 66t-89 198q0 44 11 102zM101 1279q13 64 69.5 108.5t125.5 44.5q61 0 99.5 -35t38.5 -89q0 -14 -3 -29q-12 -64 -68.5 -108.5t-126.5 -44.5q-62 0 -100 35t-38 90
q0 15 3 28zM489 1279q13 64 69.5 108.5t125.5 44.5q61 0 99.5 -35t38.5 -89q0 -14 -3 -29q-12 -64 -68.5 -108.5t-126.5 -44.5q-62 0 -100 35t-38 90q0 15 3 28zM625 1448h-315l222 262h344z" />
    <glyph glyph-name="Alpha" unicode="&#x391;" horiz-adv-x="1404" 
d="M642 1400h464l184 -1400h-436l-18 246h-375l-111 -246h-436zM788 962l-182 -400h210z" />
    <glyph glyph-name="Beta" unicode="&#x392;" horiz-adv-x="1270" 
d="M660 0h-626l272 1400h572q173 0 275 -85t102 -222q0 -38 -7 -73q-19 -97 -85 -178t-156 -114q89 -26 139 -91t50 -157q0 -36 -7 -70q-34 -176 -185 -293t-344 -117zM854 968q2 10 2 24q0 37 -22 58.5t-60 21.5h-124l-41 -208h124q44 0 78 29t43 75zM779 438q2 10 2 23
q0 39 -24.5 63t-66.5 24h-142l-43 -220h142q48 0 85 31t47 79z" />
    <glyph glyph-name="Gamma" unicode="&#x393;" horiz-adv-x="1064" 
d="M34 0l272 1400h910l-72 -368h-482l-200 -1032h-428z" />
    <glyph glyph-name="uni0394" unicode="&#x394;" horiz-adv-x="1404" 
d="M1106 1400l184 -1400h-1376l728 1400h464zM788 962l-287 -618h334z" />
    <glyph glyph-name="Epsilon" unicode="&#x395;" horiz-adv-x="1164" 
d="M34 0l272 1400h932l-70 -356h-504l-32 -166h456l-67 -348h-456l-34 -174h522l-69 -356h-950z" />
    <glyph glyph-name="Zeta" unicode="&#x396;" horiz-adv-x="1238" 
d="M55 328l675 704h-508l72 368h1014l-64 -328l-675 -704h558l-71 -368h-1064z" />
    <glyph glyph-name="Eta" unicode="&#x397;" horiz-adv-x="1436" 
d="M34 0l272 1400h428l-100 -512h312l100 512h428l-272 -1400h-428l101 520h-312l-101 -520h-428z" />
    <glyph glyph-name="Theta" unicode="&#x398;" horiz-adv-x="1668" 
d="M571 542l61 316h536l-61 -316h-536zM104 700q39 201 171.5 367t326.5 261.5t408 95.5q285 0 462.5 -165t177.5 -421q0 -63 -14 -138q-39 -201 -172 -367t-327 -261.5t-408 -95.5q-188 0 -334.5 75.5t-225.5 208t-79 300.5q0 65 14 140zM512 700q-8 -37 -8 -81
q0 -130 80.5 -212.5t211.5 -82.5q151 0 275.5 108.5t156.5 267.5q8 43 8 79q0 130 -81 213.5t-212 83.5q-152 0 -276 -108.5t-155 -267.5z" />
    <glyph glyph-name="Iota" unicode="&#x399;" horiz-adv-x="696" 
d="M734 1400l-272 -1400h-428l272 1400h428z" />
    <glyph glyph-name="Kappa" unicode="&#x39a;" horiz-adv-x="1310" 
d="M734 1400l-98 -502h64l314 502h448l-449 -682l247 -718h-448l-170 530h-77l-103 -530h-428l272 1400h428z" />
    <glyph glyph-name="Lambda" unicode="&#x39b;" horiz-adv-x="1404" 
d="M642 1400h464l184 -1400h-436l-67 952l-437 -952h-436z" />
    <glyph glyph-name="Mu" unicode="&#x39c;" horiz-adv-x="1740" 
d="M999 388h-308l-106 454l-163 -842h-388l272 1400h500l128 -552l344 552h500l-272 -1400h-388l163 842z" />
    <glyph glyph-name="Nu" unicode="&#x39d;" horiz-adv-x="1436" 
d="M34 0l272 1400h468l154 -812l158 812h388l-272 -1400h-468l-155 812l-157 -812h-388z" />
    <glyph glyph-name="Xi" unicode="&#x39e;" horiz-adv-x="1160" 
d="M205 1044l70 356h954l-70 -356h-954zM-20 0l69 356h1000l-69 -356h-1000zM164 530h818l67 348h-818z" />
    <glyph glyph-name="Omicron" unicode="&#x39f;" horiz-adv-x="1668" 
d="M532 700q-8 -43 -8 -79q0 -123 75.5 -200t200.5 -77q145 0 261.5 101.5t146.5 254.5q8 43 8 78q0 124 -76 201t-201 77q-146 0 -262 -101.5t-145 -254.5zM104 700q39 201 171.5 367t326.5 261.5t408 95.5q285 0 462.5 -165t177.5 -421q0 -63 -14 -138q-39 -201 -172 -367
t-327 -261.5t-408 -95.5q-188 0 -334.5 75.5t-225.5 208t-79 300.5q0 65 14 140z" />
    <glyph glyph-name="Pi" unicode="&#x3a0;" horiz-adv-x="1384" 
d="M1422 1400l-272 -1400h-428l200 1032h-260l-200 -1032h-428l272 1400h1116z" />
    <glyph glyph-name="Rho" unicode="&#x3a1;" horiz-adv-x="1242" 
d="M681 428h-136l-83 -428h-428l272 1400h564q187 0 303 -109t116 -280q0 -50 -10 -97q-40 -207 -211.5 -346.5t-386.5 -139.5zM608 752h74q66 0 116.5 45.5t64.5 116.5q4 17 4 38q0 56 -33 90t-89 34h-74z" />
    <glyph glyph-name="Sigma" unicode="&#x3a3;" horiz-adv-x="1194" 
d="M73 420l347 282l-238 278l82 420h1010l-71 -364h-552l211 -208l-49 -254l-295 -210h554l-70 -364h-1010z" />
    <glyph glyph-name="Tau" unicode="&#x3a4;" horiz-adv-x="1128" 
d="M250 0l200 1032h-310l72 368h1048l-72 -368h-310l-200 -1032h-428z" />
    <glyph glyph-name="Upsilon" unicode="&#x3a5;" horiz-adv-x="1340" 
d="M652 1400l97 -476l283 476h466l-611 -866l-103 -534h-428l103 534l-273 866h466z" />
    <glyph glyph-name="Phi" unicode="&#x3a6;" horiz-adv-x="1576" 
d="M919 192l-37 -192h-388l37 192q-208 0 -336.5 115.5t-128.5 296.5q0 46 9 94q28 141 123 257t235 182.5t295 66.5l38 196h388l-38 -196q207 0 336 -115.5t129 -295.5q0 -40 -10 -95q-27 -141 -122 -257t-235 -182.5t-295 -66.5zM599 542l61 312q-72 0 -127.5 -44
t-69.5 -112q-3 -15 -3 -31q0 -56 38 -90.5t101 -34.5zM1048 854l-61 -312q72 0 127.5 44.5t68.5 111.5q3 16 3 32q0 55 -37.5 89.5t-100.5 34.5z" />
    <glyph glyph-name="Chi" unicode="&#x3a7;" horiz-adv-x="1332" 
d="M676 1400l85 -394l239 394h466l-482 -678l238 -722h-466l-105 438l-275 -438h-466l518 722l-218 678h466z" />
    <glyph glyph-name="Psi" unicode="&#x3a8;" horiz-adv-x="1424" 
d="M1062 1400l-137 -704q96 66 116 168l105 536h356l-106 -544q-36 -188 -187 -332.5t-356 -195.5l-63 -328h-356l63 328q-160 44 -253.5 159.5t-93.5 270.5q0 44 10 98l106 544h356l-105 -536q-4 -17 -4 -39q0 -76 56 -129l137 704h356z" />
    <glyph glyph-name="uni03A9" unicode="&#x3a9;" horiz-adv-x="1636" 
d="M1173 726q7 34 7 70q0 114 -71 187t-186 73q-133 0 -242 -95t-136 -235q-9 -45 -9 -87q0 -100 49 -176.5t143 -122.5l-66 -340h-660l71 368h202q-159 114 -159 308q0 51 10 100q35 179 162 328t314 234.5t392 85.5q277 0 452 -151t175 -383q0 -60 -11 -114
q-51 -264 -307 -408h202l-71 -368h-660l66 340q135 55 221 155t112 231z" />
    <glyph glyph-name="Iotadieresis" unicode="&#x3aa;" horiz-adv-x="696" 
d="M734 1400l-272 -1400h-428l272 1400h428zM160 1664q15 80 80.5 134t147.5 54q72 0 116 -42.5t44 -108.5q0 -16 -4 -37q-16 -80 -81.5 -134t-147.5 -54q-71 0 -115 42t-44 108q0 17 4 38zM598 1664q15 80 80.5 134t147.5 54q72 0 116 -42.5t44 -108.5q0 -16 -4 -37
q-16 -80 -81.5 -134t-147.5 -54q-71 0 -115 42t-44 108q0 17 4 38z" />
    <glyph glyph-name="Upsilondieresis" unicode="&#x3ab;" horiz-adv-x="1340" 
d="M652 1400l97 -476l283 476h466l-611 -866l-103 -534h-428l103 534l-273 866h466zM482 1664q15 80 80.5 134t147.5 54q72 0 116 -42.5t44 -108.5q0 -16 -4 -37q-16 -80 -81.5 -134t-147.5 -54q-71 0 -115 42t-44 108q0 17 4 38zM920 1664q15 80 80.5 134t147.5 54
q72 0 116 -42.5t44 -108.5q0 -16 -4 -37q-16 -80 -81.5 -134t-147.5 -54q-71 0 -115 42t-44 108q0 17 4 38z" />
    <glyph glyph-name="alphatonos" unicode="&#x3ac;" horiz-adv-x="1390" 
d="M1315 1036l-113 -580q-3 -15 -3 -29q0 -67 78 -67h42l-68 -354q-49 -6 -115 -6q-247 0 -302 148q-82 -81 -185 -126.5t-212 -45.5q-180 0 -288.5 117.5t-108.5 303.5q0 58 12 121q45 229 214 385.5t370 156.5q78 0 147 -28.5t112 -75.5l16 80h404zM795 440l30 156
q-12 48 -51 76t-96 28q-81 0 -143 -52t-77 -130q-4 -17 -4 -38q0 -64 41.5 -104t111.5 -40q57 0 107 28.5t81 75.5zM542 1184l293 342h418l-329 -342h-382z" />
    <glyph glyph-name="epsilontonos" unicode="&#x3ad;" horiz-adv-x="987" 
d="M551 682h164l-56 -288h-158q-37 0 -65.5 -21t-35.5 -55q-1 -5 -1 -15q0 -28 20 -44.5t53 -16.5q79 0 157 93l253 -173q-75 -88 -199.5 -137t-272.5 -49q-185 0 -301 76t-116 195q0 25 4 45q17 85 88.5 154.5t162.5 97.5q-56 23 -88.5 74t-32.5 111q0 17 4 37
q25 125 162.5 209.5t321.5 84.5q138 0 235 -49.5t127 -135.5l-334 -153q-17 72 -70 72q-25 0 -44.5 -16t-24.5 -40q-1 -5 -1 -11q0 -20 13 -32.5t35 -12.5zM353 1184l293 342h418l-329 -342h-382z" />
    <glyph glyph-name="etatonos" unicode="&#x3ae;" horiz-adv-x="1244" 
d="M551 634l-123 -634h-416l201 1036h416l-18 -94q46 55 114.5 86.5t142.5 31.5q144 0 233 -86.5t89 -223.5q0 -38 -8 -80l-221 -1134h-416l206 1058q2 10 2 23q0 37 -24 60t-65 23q-34 0 -64.5 -18.5t-48.5 -47.5zM525 1184l293 342h418l-329 -342h-382z" />
    <glyph glyph-name="iotatonos" unicode="&#x3af;" horiz-adv-x="696" 
d="M75 366l130 670h416l-113 -580q-3 -17 -3 -29q0 -67 78 -67h42l-68 -354q-53 -6 -129 -6q-186 0 -275 66t-89 198q0 44 11 102zM183 1184l293 342h418l-329 -342h-382z" />
    <glyph glyph-name="upsilondieresistonos" unicode="&#x3b0;" horiz-adv-x="1192" 
d="M491 -24q-188 0 -307.5 101t-119.5 257q0 36 7 74l122 628h416l-118 -606q-2 -11 -2 -22q0 -33 19.5 -52.5t52.5 -19.5q39 0 68.5 26.5t37.5 67.5l118 606h416l-122 -628q-23 -119 -109 -218.5t-213 -156.5t-266 -57zM385 1279q13 64 69.5 108.5t125.5 44.5
q61 0 99.5 -35t38.5 -89q0 -14 -3 -29q-12 -64 -68.5 -108.5t-126.5 -44.5q-62 0 -100 35t-38 90q0 15 3 28zM773 1279q13 64 69.5 108.5t125.5 44.5q61 0 99.5 -35t38.5 -89q0 -14 -3 -29q-12 -64 -68.5 -108.5t-126.5 -44.5q-62 0 -100 35t-38 90q0 15 3 28zM909 1448
h-315l222 262h344z" />
    <glyph glyph-name="alpha" unicode="&#x3b1;" horiz-adv-x="1390" 
d="M1315 1036l-113 -580q-3 -15 -3 -29q0 -67 78 -67h42l-68 -354q-49 -6 -115 -6q-247 0 -302 148q-82 -81 -185 -126.5t-212 -45.5q-180 0 -288.5 117.5t-108.5 303.5q0 58 12 121q45 229 214 385.5t370 156.5q78 0 147 -28.5t112 -75.5l16 80h404zM795 440l30 156
q-12 48 -51 76t-96 28q-81 0 -143 -52t-77 -130q-4 -17 -4 -38q0 -64 41.5 -104t111.5 -40q57 0 107 28.5t81 75.5z" />
    <glyph glyph-name="beta" unicode="&#x3b2;" horiz-adv-x="1234" 
d="M1164 1036q-16 -83 -77.5 -157t-150.5 -111q106 -20 168.5 -99t62.5 -193q0 -45 -8 -84q-34 -175 -175 -295.5t-314 -120.5q-86 0 -147.5 31t-87.5 89l-109 -560h-394l292 1500q31 163 189 275.5t356 112.5q177 0 289 -92t112 -232q0 -31 -6 -64zM774 1008q3 15 3 23
q0 29 -17.5 47t-48.5 18q-37 0 -64 -24.5t-35 -63.5l-105 -542q-5 -25 -5 -44q0 -52 27.5 -85t79.5 -33t91 35t50 91q3 17 3 31q0 112 -166 116l63 324q47 2 81.5 32.5t42.5 74.5z" />
    <glyph glyph-name="gamma" unicode="&#x3b3;" horiz-adv-x="1128" 
d="M165 -464l92 470l-140 1030h436l10 -526l214 526h436l-540 -1030l-92 -470h-416z" />
    <glyph glyph-name="delta" unicode="&#x3b4;" horiz-adv-x="1159" 
d="M474 -24q-196 0 -320.5 108.5t-124.5 275.5q0 43 8 84q29 152 151 274.5t294 169.5l-175 225l56 287h786l-69 -354h-284l224 -287q81 -104 81 -231q0 -45 -8 -84q-26 -130 -117 -237.5t-224 -169t-278 -61.5zM443 444q-2 -10 -2 -24q0 -42 27.5 -69t72.5 -27
q53 0 95 34.5t51 85.5q2 11 2 24q0 42 -28 69t-73 27q-52 0 -93.5 -34.5t-51.5 -85.5z" />
    <glyph glyph-name="epsilon" unicode="&#x3b5;" horiz-adv-x="987" 
d="M551 682h164l-56 -288h-158q-37 0 -65.5 -21t-35.5 -55q-1 -5 -1 -15q0 -28 20 -44.5t53 -16.5q79 0 157 93l253 -173q-75 -88 -199.5 -137t-272.5 -49q-185 0 -301 76t-116 195q0 25 4 45q17 85 88.5 154.5t162.5 97.5q-56 23 -88.5 74t-32.5 111q0 17 4 37
q25 125 162.5 209.5t321.5 84.5q138 0 235 -49.5t127 -135.5l-334 -153q-17 72 -70 72q-25 0 -44.5 -16t-24.5 -40q-1 -5 -1 -11q0 -20 13 -32.5t35 -12.5z" />
    <glyph glyph-name="zeta" unicode="&#x3b6;" horiz-adv-x="971" 
d="M11 363q35 181 256 393l305 290h-326l69 354h792l-64 -326l-474 -475q-107 -107 -128 -215q-4 -20 -4 -41q0 -84 63 -128l193 -134q108 -74 108 -218q0 -37 -7 -69q-26 -134 -148 -258h-412q42 42 79 102.5t47 110.5q4 19 4 35q0 67 -54 105l-133 91q-174 119 -174 305
q0 35 8 78z" />
    <glyph glyph-name="eta" unicode="&#x3b7;" horiz-adv-x="1244" 
d="M551 634l-123 -634h-416l201 1036h416l-18 -94q46 55 114.5 86.5t142.5 31.5q144 0 233 -86.5t89 -223.5q0 -38 -8 -80l-221 -1134h-416l206 1058q2 10 2 23q0 37 -24 60t-65 23q-34 0 -64.5 -18.5t-48.5 -47.5z" />
    <glyph glyph-name="theta" unicode="&#x3b8;" horiz-adv-x="1306" 
d="M79 700q38 199 151 365.5t272 262.5t327 96q144 0 255 -72t171 -198.5t60 -286.5q0 -83 -16 -167q-39 -199 -152 -365.5t-272 -262.5t-327 -96q-218 0 -352 156t-134 399q0 79 17 169zM764 1086q-64 0 -126 -62t-105 -166h372q-2 104 -39.5 166t-101.5 62zM614 314
q64 0 125.5 61.5t104.5 166.5h-372q2 -104 40 -166t102 -62z" />
    <glyph glyph-name="iota" unicode="&#x3b9;" horiz-adv-x="696" 
d="M75 366l130 670h416l-113 -580q-3 -17 -3 -29q0 -67 78 -67h42l-68 -354q-53 -6 -129 -6q-186 0 -275 66t-89 198q0 44 11 102z" />
    <glyph glyph-name="kappa" unicode="&#x3ba;" horiz-adv-x="1172" 
d="M616 0l-66 378h-49l-73 -378h-416l201 1036h416l-59 -302h56l177 302h436l-320 -484l137 -552h-440z" />
    <glyph glyph-name="lambda" unicode="&#x3bb;" horiz-adv-x="1128" 
d="M1012 0h-436l-19 480l-205 -480h-436l541 1016l-106 444h438z" />
    <glyph glyph-name="uni03BC" unicode="&#x3bc;" horiz-adv-x="1264" 
d="M-79 -464l292 1500h416l-115 -590q-2 -14 -2 -27q0 -83 65 -83q43 0 84 32.5t63 85.5l113 582h416l-201 -1036h-416l21 110q-33 -59 -77.5 -96.5t-83.5 -37.5q-54 0 -64 45l-95 -485h-416z" />
    <glyph glyph-name="nu" unicode="&#x3bd;" horiz-adv-x="1128" 
d="M1213 1036l-511 -1036h-476l-109 1036h436l-5 -600l229 600h436z" />
    <glyph glyph-name="xi" unicode="&#x3be;" horiz-adv-x="980" 
d="M309 -128l-75 29q-107 41 -166.5 137.5t-59.5 216.5q0 45 9 91q26 136 122 250t224 162q-72 39 -111.5 104t-39.5 143q0 29 6 59q30 152 176.5 256t331.5 104q116 0 204.5 -43.5t135.5 -122.5l-275 -232q-20 36 -41.5 53t-56.5 17q-36 0 -63.5 -27t-35.5 -70
q-3 -15 -3 -30q0 -37 22.5 -58t68.5 -21h206l-65 -338h-153q-75 0 -138.5 -48.5t-81.5 -123.5q-6 -26 -6 -44q0 -44 22.5 -79.5t66.5 -53.5l91 -37q90 -37 141 -110t51 -165q0 -27 -7 -67q-15 -75 -57 -153t-97 -135h-412q105 106 125 209q3 15 3 29q0 35 -16.5 61t-45.5 37
z" />
    <glyph glyph-name="omicron" unicode="&#x3bf;" horiz-adv-x="1284" 
d="M52 518q30 151 131.5 275.5t251 195.5t313.5 71q220 0 357 -123.5t137 -316.5q0 -52 -10 -102q-29 -151 -130.5 -275.5t-250.5 -195.5t-314 -71q-220 0 -357.5 124t-137.5 317q0 51 10 101zM458 518q-4 -17 -4 -38q0 -64 41.5 -104t111.5 -40q80 0 142 52t77 130
q4 17 4 39q0 64 -41 103.5t-111 39.5q-81 0 -143 -52t-77 -130z" />
    <glyph glyph-name="pi" unicode="&#x3c0;" horiz-adv-x="1182" 
d="M560 676l-131 -676h-408l131 676h-96l70 360h1132l-70 -360h-96l-131 -676h-408l131 676h-124z" />
    <glyph glyph-name="rho" unicode="&#x3c1;" horiz-adv-x="1306" 
d="M-99 -464l191 982q29 149 130.5 273.5t249 196.5t307.5 72q214 0 349.5 -125.5t135.5 -316.5q0 -51 -10 -100q-22 -112 -88 -214t-156 -173t-198 -113t-213 -42q-132 0 -195 66l-99 -506h-404zM496 518l-20 -102q55 -80 161 -80q75 0 135.5 52t75.5 130q4 17 4 39
q0 63 -39.5 103t-104.5 40q-75 0 -136 -52t-76 -130z" />
    <glyph glyph-name="sigma1" unicode="&#x3c2;" horiz-adv-x="1096" 
d="M466 518q-6 -32 -6 -60q0 -127 121 -193l116 -63q94 -52 143.5 -129.5t49.5 -173.5q0 -39 -7 -75q-14 -74 -53.5 -152t-90.5 -136h-410q105 109 125 210q3 18 3 34q0 76 -72 115l-116 61q-233 123 -233 409q0 67 16 153q30 151 131.5 275.5t251 195.5t313.5 71
q124 0 224 -41.5t167 -116.5l-244 -288q-94 86 -209 86q-81 0 -143 -52t-77 -130z" />
    <glyph glyph-name="sigma" unicode="&#x3c3;" horiz-adv-x="1338" 
d="M50 506q29 146 129 267.5t246.5 192t305.5 70.5h672l-70 -360h-192q62 -54 62 -156q0 -28 -5 -54q-17 -89 -77 -177t-148 -157.5t-206.5 -112.5t-241.5 -43q-214 0 -349.5 122.5t-135.5 310.5q0 47 10 97zM454 506q-3 -18 -3 -34q0 -60 40 -98t104 -38q73 0 133 49
t74 121q3 18 3 34q0 60 -40 98t-104 38q-73 0 -133 -49t-74 -121z" />
    <glyph glyph-name="tau" unicode="&#x3c4;" horiz-adv-x="998" 
d="M252 366l60 310h-257l70 360h950l-70 -360h-277l-43 -220q-3 -16 -3 -29q0 -67 78 -67h42l-68 -354q-52 -6 -129 -6q-186 0 -275 66t-89 198q0 44 11 102z" />
    <glyph glyph-name="upsilon" unicode="&#x3c5;" horiz-adv-x="1192" 
d="M491 -24q-188 0 -307.5 101t-119.5 257q0 36 7 74l122 628h416l-118 -606q-2 -11 -2 -22q0 -33 19.5 -52.5t52.5 -19.5q39 0 68.5 26.5t37.5 67.5l118 606h416l-122 -628q-23 -119 -109 -218.5t-213 -156.5t-266 -57z" />
    <glyph glyph-name="phi" unicode="&#x3c6;" horiz-adv-x="1424" 
d="M350 942l174 -244q-50 -32 -85 -79.5t-45 -100.5q-3 -15 -3 -35q0 -55 32 -96.5t88 -58.5l143 732h244q215 0 349.5 -124t134.5 -316q0 -52 -10 -102q-26 -136 -112.5 -252t-213.5 -190.5t-270 -93.5l-87 -446h-332l87 446q-182 23 -292 142.5t-110 291.5q0 52 10 102
q25 128 103.5 238t194.5 186zM1030 518q3 18 3 35q0 54 -31 94.5t-85 58.5l-74 -377q72 22 123 72.5t64 116.5z" />
    <glyph glyph-name="chi" unicode="&#x3c7;" horiz-adv-x="1140" 
d="M1205 1036l-408 -732l136 -768h-436l-34 432l-202 -432h-435l435 768l-124 732h436l25 -376l171 376h436z" />
    <glyph glyph-name="psi" unicode="&#x3c8;" horiz-adv-x="1400" 
d="M86 486l107 550h342l-99 -510q-3 -18 -3 -32q0 -80 72 -127l130 669h332l-130 -669q111 58 131 159l99 510h342l-107 -550q-35 -178 -184 -312.5t-353 -178.5l-90 -459h-332l90 459q-163 38 -259.5 146.5t-96.5 256.5q0 43 9 88z" />
    <glyph glyph-name="omega" unicode="&#x3c9;" horiz-adv-x="1644" 
d="M752 158q-62 -80 -159 -131t-198 -51q-160 0 -258.5 114.5t-98.5 293.5q0 62 12 124q27 138 106 278.5t175 249.5h408q-101 -116 -176.5 -258.5t-100.5 -269.5q-8 -40 -8 -75q0 -45 13.5 -71t38.5 -26q35 0 65.5 48t44.5 124l61 310h408l-61 -310q-8 -45 -8 -75
q0 -45 13.5 -71t38.5 -26q35 0 65.5 48t44.5 124q13 66 13 144q0 208 -84 384h408q89 -178 89 -382q0 -77 -14 -146q-29 -148 -111.5 -270t-199 -192t-240.5 -70q-101 0 -178.5 51t-108.5 131z" />
    <glyph glyph-name="iotadieresis" unicode="&#x3ca;" horiz-adv-x="696" 
d="M75 366l130 670h416l-113 -580q-3 -17 -3 -29q0 -67 78 -67h42l-68 -354q-53 -6 -129 -6q-186 0 -275 66t-89 198q0 44 11 102zM61 1340q15 80 80.5 134t147.5 54q72 0 116 -42.5t44 -108.5q0 -16 -4 -37q-16 -80 -81.5 -134t-147.5 -54q-71 0 -115 42t-44 108q0 17 4 38
zM499 1340q15 80 80.5 134t147.5 54q72 0 116 -42.5t44 -108.5q0 -16 -4 -37q-16 -80 -81.5 -134t-147.5 -54q-71 0 -115 42t-44 108q0 17 4 38z" />
    <glyph glyph-name="upsilondieresis" unicode="&#x3cb;" horiz-adv-x="1192" 
d="M345 1340q15 80 80.5 134t147.5 54q72 0 116 -42.5t44 -108.5q0 -16 -4 -37q-16 -80 -81.5 -134t-147.5 -54q-71 0 -115 42t-44 108q0 17 4 38zM783 1340q15 80 80.5 134t147.5 54q72 0 116 -42.5t44 -108.5q0 -16 -4 -37q-16 -80 -81.5 -134t-147.5 -54q-71 0 -115 42
t-44 108q0 17 4 38zM491 -24q-188 0 -307.5 101t-119.5 257q0 36 7 74l122 628h416l-118 -606q-2 -11 -2 -22q0 -33 19.5 -52.5t52.5 -19.5q39 0 68.5 26.5t37.5 67.5l118 606h416l-122 -628q-23 -119 -109 -218.5t-213 -156.5t-266 -57z" />
    <glyph glyph-name="omicrontonos" unicode="&#x3cc;" horiz-adv-x="1284" 
d="M52 518q30 151 131.5 275.5t251 195.5t313.5 71q220 0 357 -123.5t137 -316.5q0 -52 -10 -102q-29 -151 -130.5 -275.5t-250.5 -195.5t-314 -71q-220 0 -357.5 124t-137.5 317q0 51 10 101zM458 518q-4 -17 -4 -38q0 -64 41.5 -104t111.5 -40q80 0 142 52t77 130
q4 17 4 39q0 64 -41 103.5t-111 39.5q-81 0 -143 -52t-77 -130zM545 1184l293 342h418l-329 -342h-382z" />
    <glyph glyph-name="upsilontonos" unicode="&#x3cd;" horiz-adv-x="1192" 
d="M491 -24q-188 0 -307.5 101t-119.5 257q0 36 7 74l122 628h416l-118 -606q-2 -11 -2 -22q0 -33 19.5 -52.5t52.5 -19.5q39 0 68.5 26.5t37.5 67.5l118 606h416l-122 -628q-23 -119 -109 -218.5t-213 -156.5t-266 -57zM497 1184l293 342h418l-329 -342h-382z" />
    <glyph glyph-name="omegatonos" unicode="&#x3ce;" horiz-adv-x="1644" 
d="M752 158q-62 -80 -159 -131t-198 -51q-160 0 -258.5 114.5t-98.5 293.5q0 62 12 124q27 138 106 278.5t175 249.5h408q-101 -116 -176.5 -258.5t-100.5 -269.5q-8 -40 -8 -75q0 -45 13.5 -71t38.5 -26q35 0 65.5 48t44.5 124l61 310h408l-61 -310q-8 -45 -8 -75
q0 -45 13.5 -71t38.5 -26q35 0 65.5 48t44.5 124q13 66 13 144q0 208 -84 384h408q89 -178 89 -382q0 -77 -14 -146q-29 -148 -111.5 -270t-199 -192t-240.5 -70q-101 0 -178.5 51t-108.5 131zM726 1184l293 342h418l-329 -342h-382z" />
    <glyph glyph-name="uni0400" unicode="&#x400;" horiz-adv-x="1164" 
d="M34 0l272 1400h932l-70 -356h-504l-32 -166h456l-67 -348h-456l-34 -174h522l-69 -356h-950zM856 1850l161 -342h-382l-197 342h418z" />
    <glyph glyph-name="afii10023" unicode="&#x401;" horiz-adv-x="1164" 
d="M34 0l272 1400h932l-70 -356h-504l-32 -166h456l-67 -348h-456l-34 -174h522l-69 -356h-950zM420 1664q15 80 80.5 134t147.5 54q72 0 116 -42.5t44 -108.5q0 -16 -4 -37q-16 -80 -81.5 -134t-147.5 -54q-71 0 -115 42t-44 108q0 17 4 38zM858 1664q15 80 80.5 134
t147.5 54q72 0 116 -42.5t44 -108.5q0 -16 -4 -37q-16 -80 -81.5 -134t-147.5 -54q-71 0 -115 42t-44 108q0 17 4 38z" />
    <glyph glyph-name="afii10051" unicode="&#x402;" horiz-adv-x="1478" 
d="M905 -4q-83 0 -135 4l68 352h36q41 0 70.5 22t36.5 56l7 36q1 7 1 16q0 28 -21.5 45t-56.5 17q-40 0 -79 -20.5t-64 -55.5l-90 -468h-428l202 1044h-310l70 356h1048l-70 -356h-310l-43 -224q98 80 243 80q156 0 253.5 -89.5t97.5 -229.5q0 -38 -7 -74l-23 -118
q-32 -166 -175 -279.5t-321 -113.5z" />
    <glyph glyph-name="afii10052" unicode="&#x403;" horiz-adv-x="1064" 
d="M34 0l272 1400h910l-72 -368h-482l-200 -1032h-428zM461 1508l293 342h418l-329 -342h-382z" />
    <glyph glyph-name="afii10053" unicode="&#x404;" horiz-adv-x="1416" 
d="M729 -24q-188 0 -334.5 75.5t-225.5 208t-79 300.5q0 65 14 140q39 201 171.5 367t326.5 261.5t408 95.5q296 0 476 -178l-265 -290q-44 53 -118 86.5t-160 33.5q-109 0 -208 -59.5t-162 -158.5h539l-61 -316h-539q24 -99 99.5 -158.5t184.5 -59.5q86 0 178.5 38
t162.5 96l160 -288q-258 -194 -568 -194z" />
    <glyph glyph-name="afii10054" unicode="&#x405;" horiz-adv-x="1212" 
d="M8 198l263 284q60 -74 143 -116t172 -42q46 0 82 25t43 61q2 12 2 18q0 38 -42.5 67.5t-150.5 54.5q-155 36 -247 125.5t-92 222.5q0 33 8 76q38 193 203.5 321.5t379.5 128.5q134 0 254 -47.5t204 -130.5l-253 -292q-132 130 -253 130q-37 0 -65.5 -21.5t-34.5 -52.5
q-2 -12 -2 -17q0 -32 36 -58.5t128 -48.5q174 -41 270.5 -133.5t96.5 -229.5q0 -44 -8 -81q-25 -129 -110.5 -234.5t-223 -168.5t-300.5 -63q-331 0 -503 222z" />
    <glyph glyph-name="afii10055" unicode="&#x406;" horiz-adv-x="696" 
d="M734 1400l-272 -1400h-428l272 1400h428z" />
    <glyph glyph-name="afii10056" unicode="&#x407;" horiz-adv-x="696" 
d="M734 1400l-272 -1400h-428l272 1400h428zM160 1664q15 80 80.5 134t147.5 54q72 0 116 -42.5t44 -108.5q0 -16 -4 -37q-16 -80 -81.5 -134t-147.5 -54q-71 0 -115 42t-44 108q0 17 4 38zM598 1664q15 80 80.5 134t147.5 54q72 0 116 -42.5t44 -108.5q0 -16 -4 -37
q-16 -80 -81.5 -134t-147.5 -54q-71 0 -115 42t-44 108q0 17 4 38z" />
    <glyph glyph-name="afii10057" unicode="&#x408;" horiz-adv-x="950" 
d="M396 486l178 914h428l-186 -954q-42 -213 -194.5 -341.5t-370.5 -128.5q-202 0 -327 78l164 342q72 -52 150 -52q57 0 101.5 40t56.5 102z" />
    <glyph glyph-name="afii10058" unicode="&#x409;" horiz-adv-x="2074" 
d="M1496 1400l-95 -488h196q192 0 312.5 -105.5t120.5 -268.5q0 -37 -8 -82q-38 -192 -211.5 -324t-390.5 -132h-624l200 1032h-254l-124 -636q-39 -204 -191 -302t-398 -98q-69 0 -109 4l70 364h56q139 0 169 156l171 880h1110zM1594 455q3 13 3 27q0 41 -26 66.5t-70 25.5
h-166l-46 -236h166q51 0 90 33.5t49 83.5z" />
    <glyph glyph-name="afii10059" unicode="&#x40a;" horiz-adv-x="2052" 
d="M1474 1400l-95 -488h196q192 0 312.5 -105.5t120.5 -268.5q0 -37 -8 -82q-38 -192 -211.5 -324t-390.5 -132h-624l101 520h-312l-101 -520h-428l272 1400h428l-100 -512h312l100 512h428zM1572 455q3 13 3 27q0 41 -26 66.5t-70 25.5h-166l-46 -236h166q51 0 90 33.5
t49 83.5z" />
    <glyph glyph-name="afii10060" unicode="&#x40b;" horiz-adv-x="1518" 
d="M1326 0h-428l89 461q2 11 2 20q0 29 -21 46t-57 17q-40 0 -79 -20.5t-64 -55.5l-90 -468h-428l202 1044h-310l70 356h1048l-70 -356h-310l-43 -224q98 80 243 80q156 0 253.5 -89.5t97.5 -229.5q0 -38 -7 -74z" />
    <glyph glyph-name="afii10061" unicode="&#x40c;" horiz-adv-x="1310" 
d="M734 1400l-98 -502h64l314 502h448l-449 -682l247 -718h-448l-170 530h-77l-103 -530h-428l272 1400h428zM601 1508l293 342h418l-329 -342h-382z" />
    <glyph glyph-name="uni040D" unicode="&#x40d;" horiz-adv-x="1436" 
d="M1202 0l272 1400h-468l-470 -812l158 812h-388l-272 -1400h468l469 812l-157 -812h388zM1013 1850l161 -342h-382l-197 342h418z" />
    <glyph glyph-name="afii10062" unicode="&#x40e;" horiz-adv-x="1340" 
d="M1498 1400l-739 -1145q-165 -255 -437 -255h-246l71 368h132q73 0 114 60l31 46l-238 926h466l88 -522l292 522h466zM859 1488q-145 0 -243 74.5t-98 193.5q0 26 4 46h314q-1 -4 -1 -11q0 -29 20 -47t51 -18q35 0 63 21.5t35 54.5h314q-19 -90 -90 -163t-168.5 -112
t-200.5 -39z" />
    <glyph glyph-name="afii10145" unicode="&#x40f;" horiz-adv-x="1384" 
d="M1422 1400l-272 -1400h-344l-55 -280h-428l55 280h-344l272 1400h428l-201 -1032h260l201 1032h428z" />
    <glyph glyph-name="afii10017" unicode="&#x410;" horiz-adv-x="1404" 
d="M642 1400h464l184 -1400h-436l-18 246h-375l-111 -246h-436zM788 962l-182 -400h210z" />
    <glyph glyph-name="afii10018" unicode="&#x411;" horiz-adv-x="1312" 
d="M34 0l272 1400h990l-66 -338h-562l-29 -150h196q192 0 312.5 -105.5t120.5 -268.5q0 -40 -8 -82q-37 -192 -211 -324t-391 -132h-624zM831 452q3 14 3 31q0 41 -25.5 66t-69.5 25h-166l-46 -236h166q51 0 90 33.5t48 80.5z" />
    <glyph glyph-name="afii10019" unicode="&#x412;" horiz-adv-x="1270" 
d="M660 0h-626l272 1400h572q173 0 275 -85t102 -222q0 -38 -7 -73q-19 -97 -85 -178t-156 -114q89 -26 139 -91t50 -157q0 -36 -7 -70q-34 -176 -185 -293t-344 -117zM854 968q2 10 2 24q0 37 -22 58.5t-60 21.5h-124l-41 -208h124q44 0 78 29t43 75zM779 438q2 10 2 23
q0 39 -24.5 63t-66.5 24h-142l-43 -220h142q48 0 85 31t47 79z" />
    <glyph glyph-name="afii10020" unicode="&#x413;" horiz-adv-x="1064" 
d="M34 0l272 1400h910l-72 -368h-482l-200 -1032h-428z" />
    <glyph glyph-name="afii10021" unicode="&#x414;" horiz-adv-x="1405" 
d="M1328 328l-118 -608h-408l55 280h-509l-55 -280h-407l117 608h96q206 325 292 762l61 310h950l-209 -1072h135zM529 328h256l145 744h-138q-86 -447 -263 -744z" />
    <glyph glyph-name="afii10022" unicode="&#x415;" horiz-adv-x="1164" 
d="M34 0l272 1400h932l-70 -356h-504l-32 -166h456l-67 -348h-456l-34 -174h522l-69 -356h-950z" />
    <glyph glyph-name="afii10024" unicode="&#x416;" horiz-adv-x="1904" 
d="M666 1400l106 -502h40l98 502h428l-98 -502h39l303 502h444l-433 -682l231 -718h-444l-158 530h-53l-103 -530h-428l103 530h-54l-363 -530h-444l509 718l-167 682h444z" />
    <glyph glyph-name="afii10025" unicode="&#x417;" horiz-adv-x="1089" 
d="M369 920h170q57 0 92.5 24t42.5 63q2 12 2 19q0 31 -22 50.5t-60 19.5q-86 0 -162 -76l-183 215q76 88 192.5 138.5t245.5 50.5q172 0 281.5 -87.5t109.5 -221.5q0 -30 -6 -60q-18 -93 -87 -173.5t-175 -128.5q94 -39 152.5 -118.5t58.5 -179.5q0 -31 -6 -62
q-35 -177 -212.5 -297t-406.5 -120q-145 0 -261.5 55t-167.5 157l271 224q58 -108 202 -108q59 0 103 38.5t55 98.5q4 22 4 33q0 52 -36.5 80t-101.5 28h-160z" />
    <glyph glyph-name="afii10026" unicode="&#x418;" horiz-adv-x="1436" 
d="M1474 1400l-272 -1400h-388l157 812l-469 -812h-468l272 1400h388l-158 -812l470 812h468z" />
    <glyph glyph-name="afii10027" unicode="&#x419;" horiz-adv-x="1436" 
d="M907 1488q-145 0 -243 74.5t-98 193.5q0 26 4 46h314q-1 -4 -1 -11q0 -29 20 -47t51 -18q35 0 63 21.5t35 54.5h314q-19 -90 -90 -163t-168.5 -112t-200.5 -39zM1202 0l272 1400h-468l-470 -812l158 812h-388l-272 -1400h468l469 812l-157 -812h388z" />
    <glyph glyph-name="afii10028" unicode="&#x41a;" horiz-adv-x="1310" 
d="M734 1400l-98 -502h64l314 502h448l-449 -682l247 -718h-448l-170 530h-77l-103 -530h-428l272 1400h428z" />
    <glyph glyph-name="afii10029" unicode="&#x41b;" horiz-adv-x="1488" 
d="M1526 1400l-272 -1400h-428l200 1032h-284l-124 -636q-39 -204 -191 -302t-398 -98q-69 0 -109 4l70 364h56q139 0 169 156l171 880h1140z" />
    <glyph glyph-name="afii10030" unicode="&#x41c;" horiz-adv-x="1740" 
d="M999 388h-308l-106 454l-163 -842h-388l272 1400h500l128 -552l344 552h500l-272 -1400h-388l163 842z" />
    <glyph glyph-name="afii10031" unicode="&#x41d;" horiz-adv-x="1436" 
d="M34 0l272 1400h428l-100 -512h312l100 512h428l-272 -1400h-428l101 520h-312l-101 -520h-428z" />
    <glyph glyph-name="afii10032" unicode="&#x41e;" horiz-adv-x="1668" 
d="M532 700q-8 -43 -8 -79q0 -123 75.5 -200t200.5 -77q145 0 261.5 101.5t146.5 254.5q8 43 8 78q0 124 -76 201t-201 77q-146 0 -262 -101.5t-145 -254.5zM104 700q39 201 171.5 367t326.5 261.5t408 95.5q285 0 462.5 -165t177.5 -421q0 -63 -14 -138q-39 -201 -172 -367
t-327 -261.5t-408 -95.5q-188 0 -334.5 75.5t-225.5 208t-79 300.5q0 65 14 140z" />
    <glyph glyph-name="afii10033" unicode="&#x41f;" horiz-adv-x="1384" 
d="M1422 1400l-272 -1400h-428l200 1032h-260l-200 -1032h-428l272 1400h1116z" />
    <glyph glyph-name="afii10034" unicode="&#x420;" horiz-adv-x="1242" 
d="M681 428h-136l-83 -428h-428l272 1400h564q187 0 303 -109t116 -280q0 -50 -10 -97q-40 -207 -211.5 -346.5t-386.5 -139.5zM608 752h74q66 0 116.5 45.5t64.5 116.5q4 17 4 38q0 56 -33 90t-89 34h-74z" />
    <glyph glyph-name="afii10035" unicode="&#x421;" horiz-adv-x="1416" 
d="M729 -24q-188 0 -334.5 75.5t-225.5 208t-79 300.5q0 65 14 140q39 201 171.5 367t326.5 261.5t408 95.5q296 0 476 -178l-279 -310q-44 54 -113.5 87t-154.5 33q-146 0 -262 -101.5t-145 -254.5q-8 -43 -8 -79q0 -123 75.5 -200t200.5 -77q84 0 172 37.5t158 96.5
l167 -308q-258 -194 -568 -194z" />
    <glyph glyph-name="afii10036" unicode="&#x422;" horiz-adv-x="1128" 
d="M250 0l200 1032h-310l72 368h1048l-72 -368h-310l-200 -1032h-428z" />
    <glyph glyph-name="afii10037" unicode="&#x423;" horiz-adv-x="1340" 
d="M1498 1400l-739 -1145q-165 -255 -437 -255h-246l71 368h132q73 0 114 60l31 46l-238 926h466l88 -522l292 522h466z" />
    <glyph glyph-name="afii10038" unicode="&#x424;" horiz-adv-x="1576" 
d="M919 192l-37 -192h-388l37 192q-208 0 -336.5 115.5t-128.5 296.5q0 46 9 94q28 141 123 257t235 182.5t295 66.5l38 196h388l-38 -196q207 0 336 -115.5t129 -295.5q0 -40 -10 -95q-27 -141 -122 -257t-235 -182.5t-295 -66.5zM599 542l61 312q-72 0 -127.5 -44
t-69.5 -112q-3 -15 -3 -31q0 -56 38 -90.5t101 -34.5zM1048 854l-61 -312q72 0 127.5 44.5t68.5 111.5q3 16 3 32q0 55 -37.5 89.5t-100.5 34.5z" />
    <glyph glyph-name="afii10039" unicode="&#x425;" horiz-adv-x="1332" 
d="M676 1400l85 -394l239 394h466l-482 -678l238 -722h-466l-105 438l-275 -438h-466l518 722l-218 678h466z" />
    <glyph glyph-name="afii10040" unicode="&#x426;" horiz-adv-x="1420" 
d="M1422 1400l-201 -1032h130l-126 -648h-376l55 280h-870l272 1400h428l-201 -1032h260l201 1032h428z" />
    <glyph glyph-name="afii10041" unicode="&#x427;" horiz-adv-x="1342" 
d="M680 0l105 544q-54 -39 -125 -61.5t-139 -22.5q-163 0 -265.5 94.5t-102.5 240.5q0 35 8 78l103 527h428l-95 -486q-2 -12 -2 -18q0 -35 26 -57.5t69 -22.5q48 0 92 26.5t75 69.5l95 488h428l-272 -1400h-428z" />
    <glyph glyph-name="afii10042" unicode="&#x428;" horiz-adv-x="2000" 
d="M1409 368l201 1032h428l-272 -1400h-1732l272 1400h428l-201 -1032h224l201 1032h428l-201 -1032h224z" />
    <glyph glyph-name="afii10043" unicode="&#x429;" horiz-adv-x="2036" 
d="M1465 -280l55 280h-1486l272 1400h428l-201 -1032h224l201 1032h428l-201 -1032h224l201 1032h428l-201 -1032h130l-126 -648h-376z" />
    <glyph glyph-name="afii10044" unicode="&#x42a;" horiz-adv-x="1505" 
d="M212 1400h715l-95 -488h196q192 0 312.5 -105.5t120.5 -268.5q0 -37 -8 -82q-38 -192 -211.5 -324t-390.5 -132h-624l206 1062h-287zM1025 456q3 13 3 26q0 41 -26 66.5t-70 25.5h-166l-46 -236h166q51 0 90 33.5t49 84.5z" />
    <glyph glyph-name="afii10045" unicode="&#x42b;" horiz-adv-x="1886" 
d="M306 1400h428l-95 -488h196q192 0 312.5 -105.5t120.5 -268.5q0 -37 -8 -82q-38 -192 -211.5 -324t-390.5 -132h-624zM832 456q3 13 3 26q0 41 -26 66.5t-70 25.5h-166l-46 -236h166q51 0 90 33.5t49 84.5zM1924 1400l-272 -1400h-428l272 1400h428z" />
    <glyph glyph-name="afii10046" unicode="&#x42c;" horiz-adv-x="1312" 
d="M306 1400h428l-95 -488h196q192 0 312.5 -105.5t120.5 -268.5q0 -37 -8 -82q-38 -192 -211.5 -324t-390.5 -132h-624zM832 456q3 13 3 26q0 41 -26 66.5t-70 25.5h-166l-46 -236h166q51 0 90 33.5t49 84.5z" />
    <glyph glyph-name="afii10047" unicode="&#x42d;" horiz-adv-x="1416" 
d="M477 -24q-153 0 -279 50t-213 144l272 288q46 -58 123.5 -96t163.5 -38q110 0 209 59.5t160 158.5h-538l61 316h538q-22 99 -97.5 158.5t-185.5 59.5q-86 0 -173 -33.5t-153 -86.5l-151 290q246 178 544 178q285 0 462.5 -165t177.5 -421q0 -63 -14 -138
q-39 -201 -172 -367t-327 -261.5t-408 -95.5z" />
    <glyph glyph-name="afii10048" unicode="&#x42e;" horiz-adv-x="2224" 
d="M563 520l-101 -520h-428l272 1400h428l-100 -512h107q110 236 340.5 386t494.5 150q278 0 453.5 -166t175.5 -421q0 -69 -13 -137q-39 -200 -171.5 -366.5t-325 -262t-400.5 -95.5q-266 0 -439.5 152.5t-188.5 391.5h-104zM1108 700q-8 -43 -8 -79q0 -122 73.5 -199.5
t192.5 -77.5q139 0 253.5 102t144.5 254q8 43 8 78q0 123 -74 200.5t-193 77.5q-139 0 -253.5 -102t-143.5 -254z" />
    <glyph glyph-name="afii10049" unicode="&#x42f;" horiz-adv-x="1288" 
d="M724 468h-28l-296 -468h-460l372 541q-74 49 -114.5 126.5t-40.5 172.5q0 39 10 94q26 135 113.5 242t214 165.5t267.5 58.5h564l-272 -1400h-420zM696 764h86l61 312h-86q-63 0 -113.5 -43.5t-63.5 -112.5q-4 -22 -4 -36q0 -54 33 -87t87 -33z" />
    <glyph glyph-name="afii10065" unicode="&#x430;" horiz-adv-x="1326" 
d="M710 0l15 80q-62 -47 -142 -75.5t-158 -28.5q-172 0 -278.5 117.5t-106.5 302.5q0 59 12 122q45 229 214 385.5t370 156.5q78 0 147 -28.5t112 -75.5l16 80h404l-201 -1036h-404zM795 440l30 156q-12 48 -51 76t-96 28q-81 0 -143 -52t-77 -130q-4 -17 -4 -38
q0 -64 41.5 -104t111.5 -40q57 0 107 28.5t81 75.5z" />
    <glyph glyph-name="afii10066" unicode="&#x431;" horiz-adv-x="1253" 
d="M616 912q79 44 186 44q183 0 294 -107t111 -275q0 -49 -10 -98q-41 -210 -232 -355t-429 -145q-208 0 -339 120.5t-131 341.5q0 75 16 156q44 224 115 374t192 253.5t289.5 158.5t415.5 80l-8 -360q-237 -27 -335 -65.5t-135 -122.5zM474 504q-4 -21 -4 -45
q0 -123 136 -123q71 0 121.5 36t61.5 94q3 13 3 25q0 47 -34.5 76t-91.5 29q-115 0 -192 -92z" />
    <glyph glyph-name="afii10067" unicode="&#x432;" horiz-adv-x="1062" 
d="M518 0h-506l201 1036h474q138 0 226.5 -70.5t88.5 -178.5q0 -21 -5 -49q-12 -61 -57 -110.5t-111 -73.5q65 -18 102 -69.5t37 -119.5q0 -20 -5 -47q-26 -135 -154.5 -226.5t-290.5 -91.5zM523 418h-82l-30 -152h82q41 0 71 21t36 55q1 6 1 15q0 28 -21 44.5t-57 16.5z
M485 646h76q34 0 58.5 17.5t29.5 44.5q1 5 1 12q0 23 -17.5 36.5t-47.5 13.5h-76z" />
    <glyph glyph-name="afii10068" unicode="&#x433;" horiz-adv-x="876" 
d="M867 676h-308l-131 -676h-416l201 1036h724z" />
    <glyph glyph-name="afii10069" unicode="&#x434;" horiz-adv-x="1182" 
d="M1094 270l-94 -482h-354l42 212h-394l-42 -212h-353l93 482h93q174 262 273 766h787l-149 -766h98zM463 270h179l96 496h-87q-54 -283 -188 -496z" />
    <glyph glyph-name="afii10070" unicode="&#x435;" horiz-adv-x="1240" 
d="M445 414q0 -78 41.5 -114t124.5 -36q128 0 273 110l151 -210q-209 -188 -494 -188q-226 0 -362.5 123t-136.5 316q0 52 10 103q30 151 130 275.5t246.5 195.5t307.5 71q208 0 336.5 -120t128.5 -307q0 -51 -10 -101q-13 -64 -43 -118h-703zM672 772q-132 0 -184 -140h308
v13q0 65 -30 96t-94 31z" />
    <glyph glyph-name="afii10072" unicode="&#x436;" horiz-adv-x="1704" 
d="M1148 0l-66 368h-51l-71 -368h-416l71 368h-51l-208 -368h-440l351 542l-132 494h436l57 -312h56l61 312h416l-61 -312h55l180 312h436l-324 -494l141 -542h-440z" />
    <glyph glyph-name="afii10073" unicode="&#x437;" horiz-adv-x="987" 
d="M336 682h164q25 0 44.5 16t24.5 40q1 5 1 11q0 20 -13 32.5t-35 12.5q-53 0 -98 -72l-274 153q63 86 179.5 135.5t254.5 49.5q166 0 269 -70.5t103 -179.5q0 -24 -4 -44q-13 -68 -70 -132t-133 -90q69 -24 113 -81t44 -128q0 -23 -4 -43q-26 -135 -178.5 -225.5
t-356.5 -90.5q-148 0 -254 49t-146 137l321 173q41 -93 121 -93q36 0 63.5 20t35.5 51q2 8 2 21q0 28 -19.5 44t-52.5 16h-158z" />
    <glyph glyph-name="afii10074" unicode="&#x438;" horiz-adv-x="1264" 
d="M1253 1036l-201 -1036h-404l85 438l-371 -438h-350l201 1036h404l-85 -438l371 438h350z" />
    <glyph glyph-name="afii10075" unicode="&#x439;" horiz-adv-x="1264" 
d="M758 1164q-145 0 -243 74.5t-98 193.5q0 26 4 46h314q-1 -4 -1 -11q0 -29 20 -47t51 -18q35 0 63 21.5t35 54.5h314q-19 -90 -90 -163t-168.5 -112t-200.5 -39zM1052 0l201 1036h-350l-371 -438l85 438h-404l-201 -1036h350l371 438l-85 -438h404z" />
    <glyph glyph-name="afii10076" unicode="&#x43a;" horiz-adv-x="1172" 
d="M616 0l-66 378h-49l-73 -378h-416l201 1036h416l-59 -302h56l177 302h436l-320 -484l137 -552h-440z" />
    <glyph glyph-name="afii10077" unicode="&#x43b;" horiz-adv-x="1282" 
d="M1271 1036l-201 -1036h-416l133 686h-124l-67 -342q-31 -159 -179 -255.5t-343 -96.5q-83 0 -134 8l68 352h55q55 0 93 29.5t48 82.5l111 572h956z" />
    <glyph glyph-name="afii10078" unicode="&#x43c;" horiz-adv-x="1406" 
d="M643 1036l74 -440l248 440h430l-201 -1036h-380l104 540l-158 -282h-214l-50 282l-104 -540h-380l201 1036h430z" />
    <glyph glyph-name="afii10079" unicode="&#x43d;" horiz-adv-x="1264" 
d="M1253 1036l-201 -1036h-416l70 361h-208l-70 -361h-416l201 1036h416l-63 -325h208l63 325h416z" />
    <glyph glyph-name="afii10080" unicode="&#x43e;" horiz-adv-x="1284" 
d="M52 518q30 151 131.5 275.5t251 195.5t313.5 71q220 0 357 -123.5t137 -316.5q0 -52 -10 -102q-29 -151 -130.5 -275.5t-250.5 -195.5t-314 -71q-220 0 -357.5 124t-137.5 317q0 51 10 101zM458 518q-4 -17 -4 -38q0 -64 41.5 -104t111.5 -40q80 0 142 52t77 130
q4 17 4 39q0 64 -41 103.5t-111 39.5q-81 0 -143 -52t-77 -130z" />
    <glyph glyph-name="afii10081" unicode="&#x43f;" horiz-adv-x="1264" 
d="M1253 1036l-201 -1036h-416l133 686h-208l-133 -686h-416l201 1036h1040z" />
    <glyph glyph-name="afii10082" unicode="&#x440;" horiz-adv-x="1326" 
d="M431 80l-106 -544h-404l292 1500h404l-16 -80q61 47 142 75.5t159 28.5q172 0 278 -117.5t106 -301.5q0 -59 -12 -123q-44 -229 -213 -385.5t-370 -156.5q-78 0 -147.5 28.5t-112.5 75.5zM531 596l-30 -156q12 -47 51.5 -75.5t96.5 -28.5q81 0 142.5 52t76.5 130
q4 17 4 39q0 64 -41 103.5t-111 39.5q-58 0 -108 -28.5t-81 -75.5z" />
    <glyph glyph-name="afii10083" unicode="&#x441;" horiz-adv-x="1134" 
d="M872 436l158 -268q-101 -91 -228 -141.5t-265 -50.5q-220 0 -357.5 124t-137.5 317q0 51 10 101q30 151 131.5 275.5t251 195.5t313.5 71q124 0 224 -41.5t167 -116.5l-244 -288q-94 86 -209 86q-81 0 -143 -52t-77 -130q-4 -21 -4 -38q0 -64 41.5 -104t111.5 -40
q111 0 257 100z" />
    <glyph glyph-name="afii10084" unicode="&#x442;" horiz-adv-x="1020" 
d="M333 676h-262l70 360h940l-70 -360h-262l-131 -676h-416z" />
    <glyph glyph-name="afii10085" unicode="&#x443;" horiz-adv-x="1128" 
d="M777 1036h436l-798 -1500h-438l289 464l-149 1036h436l14 -506z" />
    <glyph glyph-name="afii10086" unicode="&#x444;" horiz-adv-x="2024" 
d="M1129 80l-106 -544h-404l106 544q-62 -47 -142 -75.5t-158 -28.5q-172 0 -278.5 117.5t-106.5 302.5q0 59 12 122q45 229 214 385.5t370 156.5q78 0 147 -28.5t112 -75.5l98 504h404l-98 -504q61 47 142 75.5t159 28.5q172 0 278 -117.5t106 -301.5q0 -59 -12 -123
q-44 -229 -213 -385.5t-370 -156.5q-78 0 -147.5 28.5t-112.5 75.5zM795 440l30 156q-12 48 -51 76t-96 28q-81 0 -143 -52t-77 -130q-4 -17 -4 -38q0 -64 41.5 -104t111.5 -40q57 0 107 28.5t81 75.5zM1229 596l-30 -156q12 -47 51.5 -75.5t96.5 -28.5q81 0 142.5 52
t76.5 130q4 17 4 39q0 64 -41 103.5t-111 39.5q-58 0 -108 -28.5t-81 -75.5z" />
    <glyph glyph-name="afii10087" unicode="&#x445;" horiz-adv-x="1128" 
d="M-84 0l372 528l-145 508h436l35 -262l137 262h436l-343 -508l168 -528h-436l-58 282l-166 -282h-436z" />
    <glyph glyph-name="afii10088" unicode="&#x446;" horiz-adv-x="1322" 
d="M1120 350h130l-123 -630h-368l55 280h-802l201 1036h416l-133 -686h208l133 686h416z" />
    <glyph glyph-name="afii10089" unicode="&#x447;" horiz-adv-x="1144" 
d="M516 0l61 316q-64 -48 -156 -48q-154 0 -252 89.5t-98 224.5q0 34 7 68l75 386h416l-71 -364q-1 -6 -1 -10q0 -20 15 -32t41 -12q32 0 57.5 19.5t39.5 52.5l67 346h416l-201 -1036h-416z" />
    <glyph glyph-name="afii10090" unicode="&#x448;" horiz-adv-x="1612" 
d="M1601 1036l-201 -1036h-1388l201 1036h389l-133 -686h112l133 686h386l-133 -686h112l133 686h389z" />
    <glyph glyph-name="afii10091" unicode="&#x449;" horiz-adv-x="1670" 
d="M1107 -280l55 280h-1150l201 1036h389l-133 -686h112l133 686h386l-133 -686h112l133 686h389l-133 -686h130l-123 -630h-368z" />
    <glyph glyph-name="afii10092" unicode="&#x44a;" horiz-adv-x="1262" 
d="M793 366q2 10 2 21q0 35 -23 57t-62 22h-78l-39 -200h78q45 0 79 28t43 72zM1181 366q-29 -154 -168.5 -260t-312.5 -106h-546l139 716h-214l62 320h602l-59 -304h158q153 0 249 -84.5t96 -215.5q0 -34 -6 -66z" />
    <glyph glyph-name="afii10093" unicode="&#x44b;" horiz-adv-x="1648" 
d="M651 366q2 10 2 21q0 35 -23 57t-62 22h-78l-39 -200h78q45 0 79 28t43 72zM1039 366q-30 -154 -169 -260t-312 -106h-546l201 1036h388l-59 -304h158q153 0 249 -84.5t96 -215.5q0 -32 -6 -66zM1020 0l201 1036h416l-201 -1036h-416z" />
    <glyph glyph-name="afii10094" unicode="&#x44c;" horiz-adv-x="1120" 
d="M651 366q2 10 2 21q0 35 -23 57t-62 22h-78l-39 -200h78q45 0 79 28t43 72zM1039 366q-30 -154 -169 -260t-312 -106h-546l201 1036h388l-59 -304h158q153 0 249 -84.5t96 -215.5q0 -32 -6 -66z" />
    <glyph glyph-name="afii10095" unicode="&#x44d;" horiz-adv-x="1134" 
d="M-32 168l246 234q112 -116 225 -116q61 0 117.5 30t96.5 81h-340l46 238h342q-19 53 -64 84t-108 31q-109 0 -256 -102l-128 254q202 158 453 158q220 0 357 -123.5t137 -316.5q0 -52 -10 -102q-29 -151 -130.5 -275.5t-250.5 -195.5t-314 -71q-138 0 -246 51t-173 141z
" />
    <glyph glyph-name="afii10096" unicode="&#x44e;" horiz-adv-x="1806" 
d="M619 1036l-65 -336h88q91 161 262 260.5t366 99.5q220 0 357 -123.5t137 -316.5q0 -52 -10 -102q-29 -151 -130.5 -275.5t-250.5 -195.5t-314 -71q-197 0 -329 100.5t-159 263.5h-87l-66 -340h-406l201 1036h406zM980 518q-4 -21 -4 -38q0 -64 41.5 -104t111.5 -40
q81 0 142.5 52t76.5 130q4 17 4 39q0 64 -41 103.5t-111 39.5q-81 0 -143 -52t-77 -130z" />
    <glyph glyph-name="afii10097" unicode="&#x44f;" horiz-adv-x="1146" 
d="M356 0h-420l349 382q-81 32 -127.5 99t-46.5 153q0 30 6 62q28 144 157 242t291 98h570l-201 -1036h-368l64 334zM715 770h-114q-36 0 -62.5 -20t-33.5 -53q-2 -10 -2 -17q0 -26 19 -42t50 -16h114z" />
    <glyph glyph-name="uni0450" unicode="&#x450;" horiz-adv-x="1240" 
d="M445 414q0 -78 41.5 -114t124.5 -36q128 0 273 110l151 -210q-209 -188 -494 -188q-226 0 -362.5 123t-136.5 316q0 52 10 103q30 151 130 275.5t246.5 195.5t307.5 71q208 0 336.5 -120t128.5 -307q0 -51 -10 -101q-13 -64 -43 -118h-703zM672 772q-132 0 -184 -140h308
v13q0 65 -30 96t-94 31zM817 1526l161 -342h-382l-197 342h418z" />
    <glyph glyph-name="afii10071" unicode="&#x451;" horiz-adv-x="1240" 
d="M445 414q0 -78 41.5 -114t124.5 -36q128 0 273 110l151 -210q-209 -188 -494 -188q-226 0 -362.5 123t-136.5 316q0 52 10 103q30 151 130 275.5t246.5 195.5t307.5 71q208 0 336.5 -120t128.5 -307q0 -51 -10 -101q-13 -64 -43 -118h-703zM672 772q-132 0 -184 -140h308
v13q0 65 -30 96t-94 31zM369 1340q15 80 80.5 134t147.5 54q72 0 116 -42.5t44 -108.5q0 -16 -4 -37q-16 -80 -81.5 -134t-147.5 -54q-71 0 -115 42t-44 108q0 17 4 38zM807 1340q15 80 80.5 134t147.5 54q72 0 116 -42.5t44 -108.5q0 -16 -4 -37q-16 -80 -81.5 -134
t-147.5 -54q-71 0 -115 42t-44 108q0 17 4 38z" />
    <glyph glyph-name="afii10099" unicode="&#x452;" horiz-adv-x="1274" 
d="M139 1130l41 212h122l23 118h416l-23 -118h222l-41 -212h-222l-36 -188q46 55 114.5 86.5t142.5 31.5q144 0 233 -86.5t89 -223.5q0 -35 -8 -80l-151 -774q-21 -107 -93.5 -189t-184 -126.5t-244.5 -44.5q-82 0 -143 16l56 288q36 -8 99 -8q37 0 63.5 20t32.5 52l134 690
q2 10 2 23q0 37 -24 60t-65 23q-34 0 -64.5 -18.5t-48.5 -47.5l-123 -634h-416l219 1130h-122z" />
    <glyph glyph-name="afii10100" unicode="&#x453;" horiz-adv-x="876" 
d="M867 676h-308l-131 -676h-416l201 1036h724zM311 1184l293 342h418l-329 -342h-382z" />
    <glyph glyph-name="afii10101" unicode="&#x454;" horiz-adv-x="1134" 
d="M876 402l154 -234q-101 -91 -228 -141.5t-265 -50.5q-220 0 -357.5 124t-137.5 317q0 51 10 101q46 230 246 386t450 156q124 0 224 -41.5t167 -116.5l-228 -254q-106 102 -216 102q-63 0 -120.5 -31t-96.5 -84h343l-46 -238h-340q19 -51 63.5 -81t106.5 -30
q114 0 271 116z" />
    <glyph glyph-name="afii10102" unicode="&#x455;" horiz-adv-x="964" 
d="M-31 148l211 228q37 -51 98.5 -79.5t130.5 -28.5q68 0 81 38q2 6 2 11q0 38 -108 63q-128 30 -199 105t-71 181q0 32 6 64q28 143 162 236.5t307 93.5q105 0 201 -38.5t169 -105.5l-206 -226q-76 78 -179 78q-49 0 -60 -35q-3 -9 -3 -15q0 -42 93 -63q142 -30 214 -102.5
t72 -177.5q0 -25 -7 -65q-29 -144 -169 -239t-326 -95q-136 0 -246.5 45.5t-172.5 126.5z" />
    <glyph glyph-name="afii10103" unicode="&#x456;" horiz-adv-x="624" 
d="M4 0l201 1036h416l-201 -1036h-416zM237 1296q18 89 94.5 148.5t172.5 59.5q84 0 136.5 -47t52.5 -121q0 -21 -4 -40q-17 -89 -93.5 -148.5t-172.5 -59.5q-84 0 -137 47.5t-53 121.5q0 19 4 39z" />
    <glyph glyph-name="afii10104" unicode="&#x457;" horiz-adv-x="624" 
d="M4 0l201 1036h416l-201 -1036h-416zM61 1340q15 80 80.5 134t147.5 54q72 0 116 -42.5t44 -108.5q0 -16 -4 -37q-16 -80 -81.5 -134t-147.5 -54q-71 0 -115 42t-44 108q0 17 4 38zM499 1340q15 80 80.5 134t147.5 54q72 0 116 -42.5t44 -108.5q0 -16 -4 -37
q-16 -80 -81.5 -134t-147.5 -54q-71 0 -115 42t-44 108q0 17 4 38z" />
    <glyph glyph-name="afii10105" unicode="&#x458;" horiz-adv-x="624" 
d="M-3 -36l208 1072h416l-222 -1140q-30 -156 -164.5 -258t-307.5 -102q-77 0 -145 18l66 338h57q37 0 61 19.5t31 52.5zM237 1296q18 89 94.5 148.5t172.5 59.5q84 0 136.5 -47t52.5 -121q0 -21 -4 -40q-17 -89 -93.5 -148.5t-172.5 -59.5q-84 0 -137 47.5t-53 121.5
q0 19 4 39z" />
    <glyph glyph-name="afii10106" unicode="&#x459;" horiz-adv-x="1760" 
d="M1291 366q2 10 2 21q0 35 -23 57t-62 22h-78l-39 -200h78q45 0 79 28t43 72zM1241 1036l-59 -304h158q153 0 249 -84.5t96 -215.5q0 -32 -6 -66q-30 -154 -169 -260t-312 -106h-546l135 696h-122l-69 -352q-31 -159 -179 -255.5t-343 -96.5q-83 0 -134 8l68 352h55
q55 0 93 29.5t48 82.5l111 572h926z" />
    <glyph glyph-name="afii10107" unicode="&#x45a;" horiz-adv-x="1742" 
d="M1661 366q-31 -155 -170 -260.5t-311 -105.5h-546l70 361h-206l-70 -361h-416l201 1036h416l-63 -325h206l63 325h388l-59 -304h158q153 0 249 -84.5t96 -215.5q0 -36 -6 -66zM1273 366q2 10 2 21q0 35 -23 57t-62 22h-78l-39 -200h78q45 0 79 28t43 72z" />
    <glyph glyph-name="afii10108" unicode="&#x45b;" horiz-adv-x="1274" 
d="M139 1130l41 212h122l23 118h416l-23 -118h222l-41 -212h-222l-36 -188q46 55 114.5 86.5t142.5 31.5q144 0 233 -86.5t89 -223.5q0 -35 -8 -80l-130 -670h-416l115 594q2 10 2 23q0 37 -24 60t-65 23q-34 0 -64.5 -18.5t-48.5 -47.5l-123 -634h-416l219 1130h-122z" />
    <glyph glyph-name="afii10109" unicode="&#x45c;" horiz-adv-x="1172" 
d="M616 0l-66 378h-49l-73 -378h-416l201 1036h416l-59 -302h56l177 302h436l-320 -484l137 -552h-440zM441 1184l293 342h418l-329 -342h-382z" />
    <glyph glyph-name="uni045D" unicode="&#x45d;" horiz-adv-x="1264" 
d="M1052 0l201 1036h-350l-371 -438l85 438h-404l-201 -1036h350l371 438l-85 -438h404zM841 1526l161 -342h-382l-197 342h418z" />
    <glyph glyph-name="afii10110" unicode="&#x45e;" horiz-adv-x="1128" 
d="M777 1036h436l-798 -1500h-438l289 464l-149 1036h436l14 -506zM690 1164q-145 0 -243 74.5t-98 193.5q0 26 4 46h314q-1 -4 -1 -11q0 -29 20 -47t51 -18q35 0 63 21.5t35 54.5h314q-19 -90 -90 -163t-168.5 -112t-200.5 -39z" />
    <glyph glyph-name="afii10193" unicode="&#x45f;" horiz-adv-x="1264" 
d="M1253 1036l-201 -1036h-312l-55 -280h-416l55 280h-312l201 1036h416l-133 -686h208l133 686h416z" />
    <glyph glyph-name="afii10050" unicode="&#x490;" horiz-adv-x="1074" 
d="M34 0l272 1400h544l54 280h376l-126 -648h-492l-200 -1032h-428z" />
    <glyph glyph-name="afii10098" unicode="&#x491;" horiz-adv-x="886" 
d="M877 676h-318l-131 -676h-416l201 1036h366l54 280h368z" />
    <glyph glyph-name="Wgrave" unicode="&#x1e80;" horiz-adv-x="2008" 
d="M960 1400h432l4 -854l332 854h438l-630 -1400h-442l-30 826l-350 -826h-442l-86 1400h438v-854zM1264 1850l161 -342h-382l-197 342h418z" />
    <glyph glyph-name="wgrave" unicode="&#x1e81;" horiz-adv-x="1648" 
d="M727 1036h396l-13 -558l207 558h416l-485 -1036h-426l-8 464l-188 -464h-426l-83 1036h416l-11 -558zM1022 1526l161 -342h-382l-197 342h418z" />
    <glyph glyph-name="Wacute" unicode="&#x1e82;" horiz-adv-x="2008" 
d="M960 1400h432l4 -854l332 854h438l-630 -1400h-442l-30 826l-350 -826h-442l-86 1400h438v-854zM970 1508l293 342h418l-329 -342h-382z" />
    <glyph glyph-name="wacute" unicode="&#x1e83;" horiz-adv-x="1648" 
d="M727 1036h396l-13 -558l207 558h416l-485 -1036h-426l-8 464l-188 -464h-426l-83 1036h416l-11 -558zM728 1184l293 342h418l-329 -342h-382z" />
    <glyph glyph-name="Wdieresis" unicode="&#x1e84;" horiz-adv-x="2008" 
d="M960 1400h432l4 -854l332 854h438l-630 -1400h-442l-30 826l-350 -826h-442l-86 1400h438v-854zM816 1664q15 80 80.5 134t147.5 54q72 0 116 -42.5t44 -108.5q0 -16 -4 -37q-16 -80 -81.5 -134t-147.5 -54q-71 0 -115 42t-44 108q0 17 4 38zM1254 1664q15 80 80.5 134
t147.5 54q72 0 116 -42.5t44 -108.5q0 -16 -4 -37q-16 -80 -81.5 -134t-147.5 -54q-71 0 -115 42t-44 108q0 17 4 38z" />
    <glyph glyph-name="wdieresis" unicode="&#x1e85;" horiz-adv-x="1648" 
d="M727 1036h396l-13 -558l207 558h416l-485 -1036h-426l-8 464l-188 -464h-426l-83 1036h416l-11 -558zM573 1340q15 80 80.5 134t147.5 54q72 0 116 -42.5t44 -108.5q0 -16 -4 -37q-16 -80 -81.5 -134t-147.5 -54q-71 0 -115 42t-44 108q0 17 4 38zM1011 1340
q15 80 80.5 134t147.5 54q72 0 116 -42.5t44 -108.5q0 -16 -4 -37q-16 -80 -81.5 -134t-147.5 -54q-71 0 -115 42t-44 108q0 17 4 38z" />
    <glyph glyph-name="Ygrave" unicode="&#x1ef2;" horiz-adv-x="1340" 
d="M652 1400l97 -476l283 476h466l-611 -866l-103 -534h-428l103 534l-273 866h466zM931 1850l161 -342h-382l-197 342h418z" />
    <glyph glyph-name="ygrave" unicode="&#x1ef3;" horiz-adv-x="1128" 
d="M777 1036h436l-798 -1500h-438l289 464l-149 1036h436l14 -506zM760 1526l161 -342h-382l-197 342h418z" />
    <glyph glyph-name="thinspace" unicode="&#x2009;" horiz-adv-x="400" 
 />
    <glyph glyph-name="uni2010" unicode="&#x2010;" horiz-adv-x="876" 
d="M757 480h-652l71 368h652z" />
    <glyph glyph-name="figuredash" unicode="&#x2012;" horiz-adv-x="1200" 
d="M1093 480h-1000l71 368h1000z" />
    <glyph glyph-name="endash" unicode="&#x2013;" horiz-adv-x="1000" 
d="M993 480h-1000l71 368h1000z" />
    <glyph glyph-name="emdash" unicode="&#x2014;" horiz-adv-x="2000" 
d="M1993 480h-2000l71 368h2000z" />
    <glyph glyph-name="afii00208" unicode="&#x2015;" horiz-adv-x="2000" 
d="M1793 480h-1600l71 368h1600z" />
    <glyph glyph-name="uni2016" unicode="&#x2016;" horiz-adv-x="1120" 
d="M-23 -280l346 1780h382l-346 -1780h-382zM451 -280l346 1780h382l-346 -1780h-382z" />
    <glyph glyph-name="underscoredbl" unicode="&#x2017;" horiz-adv-x="1200" 
d="M-98 -504l50 258h1000l-50 -258h-1000zM-38 -192l50 258h1000l-50 -258h-1000z" />
    <glyph glyph-name="quoteleft" unicode="&#x2018;" horiz-adv-x="612" 
d="M655 1112q-18 -94 -96.5 -157t-179.5 -63q-89 0 -142.5 49.5t-53.5 127.5q0 24 4 43q11 54 45 104l228 342h266l-162 -248q45 -21 70.5 -61.5t25.5 -91.5q0 -20 -5 -45z" />
    <glyph glyph-name="quoteright" unicode="&#x2019;" horiz-adv-x="612" 
d="M231 1338q18 94 96.5 157t179.5 63q89 0 142.5 -49.5t53.5 -127.5q0 -24 -4 -43q-11 -54 -45 -104l-228 -342h-266l162 248q-45 21 -70.5 61.5t-25.5 91.5q0 20 5 45z" />
    <glyph glyph-name="quotesinglbase" unicode="&#x201a;" horiz-adv-x="612" 
d="M10 196q18 94 96.5 157t179.5 63q89 0 142.5 -49.5t53.5 -127.5q0 -24 -4 -43q-11 -54 -45 -104l-228 -342h-266l162 248q-45 21 -70.5 61.5t-25.5 91.5q0 20 5 45z" />
    <glyph glyph-name="quotereversed" unicode="&#x201b;" horiz-adv-x="612" 
d="M700 1338q-13 -67 -58.5 -119.5t-110.5 -78.5l66 -248h-266l-96 342q-8 30 -8 59q0 20 5 45q18 94 96.5 157t179.5 63q89 0 142.5 -49.5t53.5 -127.5q0 -23 -4 -43z" />
    <glyph glyph-name="quotedblleft" unicode="&#x201c;" horiz-adv-x="1110" 
d="M655 1112q-18 -94 -96.5 -157t-179.5 -63q-89 0 -142.5 49.5t-53.5 127.5q0 24 4 43q11 54 45 104l228 342h266l-162 -248q45 -21 70.5 -61.5t25.5 -91.5q0 -20 -5 -45zM1153 1112q-18 -94 -96.5 -157t-179.5 -63q-89 0 -142.5 49.5t-53.5 127.5q0 24 4 43q11 54 45 104
l228 342h266l-162 -248q45 -21 70.5 -61.5t25.5 -91.5q0 -20 -5 -45z" />
    <glyph glyph-name="quotedblright" unicode="&#x201d;" horiz-adv-x="1110" 
d="M232 1338q18 94 96.5 157t179.5 63q89 0 142.5 -49.5t53.5 -127.5q0 -24 -4 -43q-11 -54 -45 -104l-228 -342h-266l162 248q-45 21 -70.5 61.5t-25.5 91.5q0 20 5 45zM730 1338q18 94 96.5 157t179.5 63q89 0 142.5 -49.5t53.5 -127.5q0 -24 -4 -43q-11 -54 -45 -104
l-228 -342h-266l162 248q-45 21 -70.5 61.5t-25.5 91.5q0 20 5 45z" />
    <glyph glyph-name="quotedblbase" unicode="&#x201e;" horiz-adv-x="1110" 
d="M10 196q18 94 96.5 157t179.5 63q89 0 142.5 -49.5t53.5 -127.5q0 -24 -4 -43q-11 -54 -45 -104l-228 -342h-266l162 248q-45 21 -70.5 61.5t-25.5 91.5q0 20 5 45zM508 196q18 94 96.5 157t179.5 63q89 0 142.5 -49.5t53.5 -127.5q0 -24 -4 -43q-11 -54 -45 -104
l-228 -342h-266l162 248q-45 21 -70.5 61.5t-25.5 91.5q0 20 5 45z" />
    <glyph glyph-name="uni201F" unicode="&#x201f;" horiz-adv-x="1110" 
d="M700 1338q-13 -67 -58.5 -119.5t-110.5 -78.5l66 -248h-266l-96 342q-8 30 -8 59q0 20 5 45q18 94 96.5 157t179.5 63q89 0 142.5 -49.5t53.5 -127.5q0 -23 -4 -43zM1198 1338q-13 -67 -58.5 -119.5t-110.5 -78.5l66 -248h-266l-96 342q-8 30 -8 59q0 20 5 45
q18 94 96.5 157t179.5 63q89 0 142.5 -49.5t53.5 -127.5q0 -23 -4 -43z" />
    <glyph glyph-name="dagger" unicode="&#x2020;" horiz-adv-x="1142" 
d="M212 -262l215 1108h-268l68 350h268l58 300h416l-58 -300h268l-68 -350h-268l-215 -1108h-416z" />
    <glyph glyph-name="daggerdbl" unicode="&#x2021;" horiz-adv-x="1142" 
d="M338 388l89 458h-268l68 350h268l58 300h416l-58 -300h268l-68 -350h-268l-89 -458h268l-68 -350h-268l-58 -300h-416l58 300h-268l68 350h268z" />
    <glyph glyph-name="bullet" unicode="&#x2022;" horiz-adv-x="800" 
d="M96 664q0 136 93.5 229t230.5 93t230.5 -93t93.5 -229t-93.5 -229t-230.5 -93t-230.5 93t-93.5 229z" />
    <glyph glyph-name="onedotenleader" unicode="&#x2024;" horiz-adv-x="612" 
d="M10 197q18 93 96.5 156t179.5 63q89 0 142.5 -49.5t53.5 -127.5q0 -23 -4 -43q-19 -94 -97.5 -157t-179.5 -63q-88 0 -142 49.5t-54 126.5q0 20 5 45z" />
    <glyph glyph-name="twodotenleader" unicode="&#x2025;" horiz-adv-x="1224" 
d="M10 197q18 93 96.5 156t179.5 63q89 0 142.5 -49.5t53.5 -127.5q0 -23 -4 -43q-19 -94 -97.5 -157t-179.5 -63q-88 0 -142 49.5t-54 126.5q0 20 5 45zM622 197q18 93 96.5 156t179.5 63q89 0 142.5 -49.5t53.5 -127.5q0 -23 -4 -43q-19 -94 -97.5 -157t-179.5 -63
q-88 0 -142 49.5t-54 126.5q0 20 5 45z" />
    <glyph glyph-name="ellipsis" unicode="&#x2026;" horiz-adv-x="1836" 
d="M10 197q18 93 96.5 156t179.5 63q89 0 142.5 -49.5t53.5 -127.5q0 -23 -4 -43q-19 -94 -97.5 -157t-179.5 -63q-88 0 -142 49.5t-54 126.5q0 20 5 45zM622 197q18 93 96.5 156t179.5 63q89 0 142.5 -49.5t53.5 -127.5q0 -23 -4 -43q-19 -94 -97.5 -157t-179.5 -63
q-88 0 -142 49.5t-54 126.5q0 20 5 45zM1234 197q18 93 96.5 156t179.5 63q89 0 142.5 -49.5t53.5 -127.5q0 -23 -4 -43q-19 -94 -97.5 -157t-179.5 -63q-88 0 -142 49.5t-54 126.5q0 20 5 45z" />
    <glyph glyph-name="perthousand" unicode="&#x2030;" horiz-adv-x="2598" 
d="M300 0l994 1400h276l-992 -1400h-278zM478 1048q-2 -12 -2 -18q0 -29 18 -46.5t49 -17.5q36 0 63 23t34 59q2 14 2 19q0 29 -18 46t-49 17q-36 0 -62.5 -23t-34.5 -59zM183 1048q30 155 159 260.5t288 105.5q139 0 225.5 -82.5t86.5 -211.5q0 -37 -7 -72
q-30 -155 -159 -260.5t-288 -105.5q-139 0 -225.5 82.5t-86.5 211.5q0 37 7 72zM1229 352q-2 -12 -2 -18q0 -29 18 -46.5t49 -17.5q36 0 63 23t34 59q2 12 2 18q0 29 -18 46.5t-49 17.5q-36 0 -63 -23t-34 -59zM934 352q30 155 159 260.5t288 105.5q139 0 225.5 -82.5
t86.5 -211.5q0 -37 -7 -72q-30 -155 -159 -260.5t-288 -105.5q-139 0 -225.5 82.5t-86.5 211.5q0 37 7 72zM2029 352q-2 -12 -2 -18q0 -29 18 -46.5t49 -17.5q36 0 63 23t34 59q2 12 2 18q0 29 -18 46.5t-49 17.5q-36 0 -63 -23t-34 -59zM1734 352q30 155 159 260.5
t288 105.5q139 0 225.5 -82.5t86.5 -211.5q0 -37 -7 -72q-30 -155 -159 -260.5t-288 -105.5q-139 0 -225.5 82.5t-86.5 211.5q0 37 7 72z" />
    <glyph glyph-name="minute" unicode="&#x2032;" horiz-adv-x="694" 
d="M146 1028l246 372h448l-306 -372h-388z" />
    <glyph glyph-name="second" unicode="&#x2033;" horiz-adv-x="1212" 
d="M146 1028l246 372h448l-306 -372h-388zM664 1028l246 372h448l-306 -372h-388z" />
    <glyph glyph-name="guilsinglleft" unicode="&#x2039;" horiz-adv-x="750" 
d="M70 533l35 182l669 364l-60 -308l-290 -147l233 -147l-60 -308z" />
    <glyph glyph-name="guilsinglright" unicode="&#x203a;" horiz-adv-x="750" 
d="M721 715l-35 -182l-669 -364l60 308l291 147l-234 147l60 308z" />
    <glyph glyph-name="exclamdbl" unicode="&#x203c;" horiz-adv-x="1202" 
d="M94 464l182 936h428l-182 -936h-428zM7 194q18 92 101.5 155t189.5 63q94 0 151.5 -50t57.5 -128q0 -21 -4 -40q-18 -92 -101 -155t-189 -63q-94 0 -152 50.5t-58 128.5q0 22 4 39zM660 464l182 936h428l-182 -936h-428zM573 194q18 92 101.5 155t189.5 63
q94 0 151.5 -50t57.5 -128q0 -21 -4 -40q-18 -92 -101 -155t-189 -63q-94 0 -152 50.5t-58 128.5q0 22 4 39z" />
    <glyph glyph-name="uni203E" unicode="&#x203e;" horiz-adv-x="880" 
d="M221 1140l58 296h680l-58 -296h-680z" />
    <glyph glyph-name="fraction" unicode="&#x2044;" horiz-adv-x="330" 
d="M-420 0l956 1400h286l-954 -1400h-288z" />
    <glyph glyph-name="zerosuperior" unicode="&#x2070;" 
d="M123 926q44 225 167.5 361.5t295.5 136.5q138 0 212 -91t74 -249q0 -71 -17 -158q-44 -225 -167.5 -361.5t-294.5 -136.5q-139 0 -212.5 91t-73.5 250q0 76 16 157zM421 926q-16 -88 -16 -138q0 -89 40 -89q32 0 62 60t50 167q16 81 16 139q0 88 -39 88q-32 0 -62 -60
t-51 -167z" />
    <glyph glyph-name="uni2071" unicode="&#x2071;" 
d="M254 452l131 670h286l-131 -670h-286zM404 1297q11 61 64.5 102t120.5 41q60 0 96.5 -33t36.5 -84q0 -16 -2 -26q-12 -61 -65.5 -102t-120.5 -41q-59 0 -96 32.5t-37 83.5q0 14 3 27z" />
    <glyph glyph-name="foursuperior" unicode="&#x2074;" 
d="M43 599l43 221l495 580h268l-110 -562h100l-46 -239h-100l-29 -147h-281l29 147h-369zM321 838h137l40 204z" />
    <glyph glyph-name="fivesuperior" unicode="&#x2075;" 
d="M561 1143l-24 -70q125 -8 201.5 -78.5t76.5 -177.5q0 -27 -6 -57q-27 -141 -149.5 -236.5t-280.5 -95.5q-111 0 -195.5 43.5t-129.5 119.5l222 186q52 -85 127 -85q35 0 61.5 21.5t34.5 53.5q3 12 3 22q0 28 -17.5 45t-46.5 17q-34 0 -65 -29l-221 30l174 548h573
l-50 -257h-288z" />
    <glyph glyph-name="sixsuperior" unicode="&#x2076;" 
d="M889 1400l-272 -321q97 -21 157.5 -86.5t60.5 -163.5q0 -31 -6 -64q-28 -143 -153.5 -240t-283.5 -97q-139 0 -226 77.5t-87 197.5q0 31 6 62q19 96 81 171l396 464h327zM380 768q-2 -10 -2 -20q0 -29 17.5 -47.5t45.5 -18.5q33 0 60.5 24.5t34.5 61.5q2 10 2 20
q0 29 -17.5 47.5t-45.5 18.5q-33 0 -60.5 -24.5t-34.5 -61.5z" />
    <glyph glyph-name="sevensuperior" unicode="&#x2077;" 
d="M253 1400h662l-44 -225l-435 -723h-322l419 683h-332z" />
    <glyph glyph-name="eightsuperior" unicode="&#x2078;" 
d="M378 752q-2 -14 -2 -19q0 -29 18 -47t45 -18q32 0 60 23.5t35 60.5q2 14 2 19q0 29 -18 47.5t-46 18.5q-32 0 -59.5 -24t-34.5 -61zM862 1137q-11 -53 -43.5 -101t-80.5 -77q42 -26 64 -72t22 -100q0 -22 -5 -49q-26 -131 -147.5 -220.5t-278.5 -89.5q-139 0 -225 72
t-86 184q0 30 5 54q13 65 57.5 127t109.5 94q-59 47 -59 133q0 20 5 45q23 121 134 204t252 83q126 0 203.5 -67t77.5 -170q0 -22 -5 -50zM472 1133q-2 -7 -2 -20q0 -21 12.5 -34t34.5 -13q26 0 45.5 18t24.5 44q1 5 1 13q0 21 -12.5 34.5t-34.5 13.5q-24 0 -43.5 -16
t-25.5 -40z" />
    <glyph glyph-name="ninesuperior" unicode="&#x2079;" 
d="M90 452l272 321q-97 21 -157.5 86.5t-60.5 163.5q0 31 6 64q28 143 153.5 240t283.5 97q139 0 226 -77t87 -198q0 -31 -6 -62q-19 -96 -81 -171l-396 -464h-327zM599 1084q2 10 2 20q0 29 -17.5 47.5t-45.5 18.5q-33 0 -60.5 -24.5t-34.5 -61.5q-2 -10 -2 -20
q0 -29 17.5 -47.5t45.5 -18.5q33 0 60.5 24.5t34.5 61.5z" />
    <glyph glyph-name="uni207A" unicode="&#x207a;" 
d="M344 600v194h-192v264h192v194h292v-194h192v-264h-192v-194h-292z" />
    <glyph glyph-name="uni207B" unicode="&#x207b;" 
d="M828 794h-676v264h676v-264z" />
    <glyph glyph-name="uni207C" unicode="&#x207c;" 
d="M828 634h-676v254h676v-254zM828 964h-676v254h676v-254z" />
    <glyph glyph-name="uni207D" unicode="&#x207d;" 
d="M335 926q32 164 127.5 322.5t230.5 279.5l183 -136q-197 -211 -247 -466q-15 -80 -15 -151q0 -167 81 -315l-237 -136q-138 192 -138 446q0 78 15 156z" />
    <glyph glyph-name="uni207E" unicode="&#x207e;" 
d="M643 926q-32 -164 -127 -322t-230 -280l-183 136q198 212 246 466q16 86 16 154q0 164 -81 312l237 136q137 -191 137 -444q0 -78 -15 -158z" />
    <glyph glyph-name="uni207F" unicode="&#x207f;" 
d="M423 858l-79 -406h-282l131 670h282l-11 -52q64 66 150 66q95 0 153.5 -56.5t58.5 -145.5q0 -22 -5 -52l-84 -430h-282l75 382q1 5 1 12q0 21 -13 34t-35 13q-36 0 -60 -35z" />
    <glyph glyph-name="zeroinferior" unicode="&#x2080;" 
d="M-16 212q44 225 167.5 361.5t295.5 136.5q138 0 212 -91t74 -249q0 -71 -17 -158q-44 -225 -167.5 -361.5t-294.5 -136.5q-139 0 -212.5 91t-73.5 250q0 76 16 157zM282 212q-16 -88 -16 -138q0 -89 40 -89q32 0 62 60t50 167q16 81 16 139q0 88 -39 88q-32 0 -62 -60
t-51 -167z" />
    <glyph glyph-name="oneinferior" unicode="&#x2081;" 
d="M394 686h263l-185 -948h-311l129 664l-146 -73l-68 200z" />
    <glyph glyph-name="twoinferior" unicode="&#x2082;" 
d="M571 178l-194 -175h254l-52 -265h-644l47 238l377 344q44 40 51 71q2 8 2 15q0 15 -9 24.5t-25 9.5q-42 0 -77 -75l-256 79q40 114 148.5 190t243.5 76q130 0 211 -63t81 -163q0 -20 -5 -47q-29 -146 -153 -259z" />
    <glyph glyph-name="threeinferior" unicode="&#x2083;" 
d="M346 53q1 5 1 15q0 26 -16.5 43t-44.5 17q-22 0 -52 -15l-91 149l200 167h-265l50 257h610l-48 -244l-189 -145q158 -64 158 -219q0 -30 -6 -62q-25 -129 -148.5 -215.5t-281.5 -86.5q-108 0 -190.5 45.5t-115.5 125.5l212 183q45 -91 128 -91q32 0 57 21.5t32 54.5z" />
    <glyph glyph-name="fourinferior" unicode="&#x2084;" 
d="M-96 -115l43 221l495 580h268l-110 -562h100l-46 -239h-100l-29 -147h-281l29 147h-369zM182 124h137l40 204z" />
    <glyph glyph-name="fiveinferior" unicode="&#x2085;" 
d="M422 429l-24 -70q125 -8 201.5 -78.5t76.5 -177.5q0 -27 -6 -57q-27 -141 -149.5 -236.5t-280.5 -95.5q-111 0 -195.5 43.5t-129.5 119.5l222 186q52 -85 127 -85q35 0 61.5 21.5t34.5 53.5q3 12 3 22q0 28 -17.5 45t-46.5 17q-34 0 -65 -29l-221 30l174 548h573
l-50 -257h-288z" />
    <glyph glyph-name="sixinferior" unicode="&#x2086;" 
d="M750 686l-272 -321q97 -21 157.5 -86.5t60.5 -163.5q0 -31 -6 -64q-28 -143 -153.5 -240t-283.5 -97q-139 0 -226 77.5t-87 197.5q0 31 6 62q19 96 81 171l396 464h327zM241 54q-2 -10 -2 -20q0 -29 17.5 -47.5t45.5 -18.5q33 0 60.5 24.5t34.5 61.5q2 10 2 20
q0 29 -17.5 47.5t-45.5 18.5q-33 0 -60.5 -24.5t-34.5 -61.5z" />
    <glyph glyph-name="seveninferior" unicode="&#x2087;" 
d="M114 686h662l-44 -225l-435 -723h-322l419 683h-332z" />
    <glyph glyph-name="eightinferior" unicode="&#x2088;" 
d="M239 38q-2 -14 -2 -19q0 -29 18 -47t45 -18q32 0 60 23.5t35 60.5q2 14 2 19q0 29 -18.5 47.5t-45.5 18.5q-32 0 -59.5 -24t-34.5 -61zM723 423q-11 -53 -43.5 -101t-80.5 -77q42 -26 64 -72t22 -100q0 -22 -5 -49q-26 -131 -147.5 -220.5t-278.5 -89.5q-139 0 -225 72
t-86 184q0 30 5 54q13 65 57.5 127t109.5 94q-59 47 -59 133q0 20 5 45q23 121 134 204t252 83q126 0 203.5 -67t77.5 -170q0 -22 -5 -50zM333 419q-2 -7 -2 -20q0 -21 12.5 -34t34.5 -13q26 0 45.5 18t24.5 44q1 5 1 13q0 21 -12.5 34.5t-34.5 13.5q-24 0 -43.5 -16
t-25.5 -40z" />
    <glyph glyph-name="nineinferior" unicode="&#x2089;" 
d="M-49 -262l272 321q-97 21 -157.5 86.5t-60.5 163.5q0 31 6 64q28 143 153.5 240t283.5 97q139 0 226 -77t87 -198q0 -31 -6 -62q-19 -96 -81 -171l-396 -464h-327zM460 370q2 10 2 20q0 29 -17.5 47.5t-45.5 18.5q-33 0 -60.5 -24.5t-34.5 -61.5q-2 -10 -2 -20
q0 -29 17.5 -47.5t45.5 -18.5q33 0 60.5 24.5t34.5 61.5z" />
    <glyph glyph-name="uni208A" unicode="&#x208a;" 
d="M204 -114v194h-192v264h192v194h292v-194h192v-264h-192v-194h-292z" />
    <glyph glyph-name="uni208B" unicode="&#x208b;" 
d="M688 80h-676v264h676v-264z" />
    <glyph glyph-name="uni208C" unicode="&#x208c;" 
d="M688 -80h-676v254h676v-254zM688 250h-676v254h676v-254z" />
    <glyph glyph-name="uni208D" unicode="&#x208d;" 
d="M196 212q32 164 127.5 322.5t230.5 279.5l183 -136q-197 -211 -247 -466q-15 -80 -15 -151q0 -167 81 -315l-237 -136q-138 192 -138 446q0 78 15 156z" />
    <glyph glyph-name="uni208E" unicode="&#x208e;" 
d="M504 212q-32 -164 -127 -322t-230 -280l-183 136q198 212 246 466q16 86 16 154q0 164 -81 312l237 136q137 -191 137 -444q0 -78 -15 -158z" />
    <glyph glyph-name="uni2090" unicode="&#x2090;" 
d="M399 14l19 99q-8 26 -31 42t-55 16q-47 0 -83 -30.5t-45 -76.5q-2 -10 -2 -23q0 -37 23.5 -60.5t64.5 -23.5q72 0 109 57zM344 -272l10 51q-36 -29 -86 -47t-99 -18q-110 0 -177.5 75.5t-67.5 195.5q0 36 8 79q29 148 136.5 249t236.5 101q49 0 92.5 -18.5t66.5 -46.5
l10 51h271l-130 -672h-271z" />
    <glyph glyph-name="uni2091" unicode="&#x2091;" 
d="M220 -7q3 -84 97 -84q84 0 172 65l105 -134q-141 -126 -324 -126q-146 0 -233.5 79t-87.5 204q0 27 7 67q28 148 155 249t285 101q134 0 216.5 -77t82.5 -198q0 -33 -6 -66q-7 -38 -30 -80h-439zM353 218q-73 0 -104 -76h175q0 76 -71 76z" />
    <glyph glyph-name="uni2092" unicode="&#x2092;" 
d="M-58 64q29 148 157.5 249t289.5 101q142 0 230 -79.5t88 -204.5q0 -32 -6 -66q-29 -149 -157.5 -249.5t-290.5 -100.5q-141 0 -229.5 79.5t-88.5 203.5q0 31 7 67zM214 64q-2 -10 -2 -23q0 -37 23.5 -60.5t64.5 -23.5q47 0 83.5 31t45.5 76q2 10 2 23q0 37 -24 60.5
t-65 23.5q-47 0 -83 -30.5t-45 -76.5z" />
    <glyph glyph-name="uni2093" unicode="&#x2093;" 
d="M-105 -272l249 342l-103 330h300l16 -149l74 149h300l-231 -329l119 -343h-301l-30 165l-93 -165h-300z" />
    <glyph glyph-name="uni2094" unicode="&#x2094;" 
d="M-45 55q7 38 30 80h439q-3 84 -97 84q-84 0 -173 -65l-105 134q143 126 325 126q146 0 233.5 -79.5t87.5 -203.5q0 -27 -7 -67q-29 -149 -156 -249.5t-284 -100.5q-134 0 -216.5 77t-82.5 198q0 33 6 66zM291 -90q73 0 104 76h-176q0 -76 72 -76z" />
    <glyph glyph-name="uni20A0" unicode="&#x20a0;" horiz-adv-x="1605" 
d="M574 422q-202 0 -327 114t-125 292q0 46 9 95q41 212 224.5 356.5t412.5 144.5q214 0 357 -145l-225 -256q-87 94 -181 94q-76 0 -137.5 -55t-77.5 -139q-5 -27 -5 -45q0 -66 39.5 -107.5t104.5 -41.5q115 0 209 83l31 158h686l-52 -270h-342l-17 -84h312l-49 -255h-312
l-18 -89h354l-52 -270h-698l93 478q-108 -58 -214 -58z" />
    <glyph glyph-name="colonmonetary" unicode="&#x20a1;" horiz-adv-x="1416" 
d="M1391 1604l-88 -236q100 -42 183 -122l-253 -280q-24 29 -59 53l-256 -687q130 35 227 116l152 -278q-231 -174 -510 -192l-67 -182h-182l70 189q-47 7 -73 14l-75 -203h-182l98 265q-135 76 -210.5 206t-75.5 293q0 65 14 140q53 273 270.5 472.5t503.5 241.5l71 190
h182l-67 -182q14 -1 74 -8l71 190h182zM662 341q33 -15 70 -22l282 761q-40 6 -69 6h-6zM502 700q-8 -45 -8 -82q0 -83 34 -149l206 558q-88 -52 -150 -138t-82 -189z" />
    <glyph glyph-name="uni20A2" unicode="&#x20a2;" horiz-adv-x="1416" 
d="M729 -24q-188 0 -334.5 75.5t-225.5 208t-79 300.5q0 65 14 140q39 201 171.5 367t326.5 261.5t408 95.5q296 0 476 -178l-253 -280q-44 53 -121.5 86.5t-166.5 33.5q-154 0 -282.5 -112t-160.5 -274q-8 -45 -8 -81q0 -164 119 -250l94 481h328l-15 -74q80 88 171 88
q50 0 86 -22l-77 -255q-42 21 -78 21q-89 0 -151 -88l-36 -183q119 36 210 111l152 -278q-258 -194 -568 -194z" />
    <glyph glyph-name="franc" unicode="&#x20a3;" horiz-adv-x="1146" 
d="M84 0l78 404h-164l35 180h164l14 72h-164l35 180h164l110 564h912l-71 -364h-484l-39 -200h268l-35 -180h-268l-14 -72h268l-35 -180h-268l-78 -404h-428z" />
    <glyph glyph-name="lira" unicode="&#x20a4;" horiz-adv-x="1183" 
d="M234 434h-188l33 170h203q0 30 -3 62h-188l33 170h122q-8 50 -8 97q0 50 8 89q33 168 193 285t359 117q155 0 261 -72.5t133 -187.5l-389 -190q-19 82 -76 82q-25 0 -44.5 -18.5t-24.5 -45.5q-4 -20 -4 -49q0 -47 13 -107h287l-33 -170h-220q2 -30 2 -46v-16h206
l-33 -170h-230q-45 -61 -103 -86h516l-67 -348h-984l62 324q107 28 164 110z" />
    <glyph glyph-name="uni20A6" unicode="&#x20a6;" horiz-adv-x="1488" 
d="M60 0l92 474h-140l37 190h140l14 72h-140l36 190h140l93 474h468l154 -812l158 812h388l-93 -474h140l-36 -190h-140l-14 -72h140l-37 -190h-140l-92 -474h-468l-155 812l-157 -812h-388z" />
    <glyph glyph-name="peseta" unicode="&#x20a7;" horiz-adv-x="2416" 
d="M1911 0h-588q-129 0 -198.5 60.5t-69.5 173.5q0 41 8 82l75 384h-114q-75 -124 -191.5 -198t-244.5 -74h-88l-83 -428h-383l272 1400h471q151 0 244 -101.5t96 -262.5h86l51 264l381 38l-59 -302h151l-65 -336h-151l-68 -350q-3 -17 -3 -23q0 -35 37 -35h461q39 0 46 36
q1 5 1 10q0 34 -69 54q-103 30 -162 101.5t-59 171.5q0 35 7 71q27 142 143 233t264 91q90 0 169 -39t136 -107l-184 -224q-71 76 -136 76q-33 0 -39 -34q-1 -6 -1 -12q0 -35 58 -52q116 -33 175 -101t59 -166q0 -33 -8 -73q-28 -144 -148.5 -236t-278.5 -92zM563 752h39
q44 0 81 46t50 116q5 24 5 54q0 49 -19.5 78.5t-53.5 29.5h-39z" />
    <glyph glyph-name="uni20A8" unicode="&#x20a8;" horiz-adv-x="1939" 
d="M928 544l137 -544h-442l-93 457l-88 -457h-408l272 1400h522q174 0 281 -100.5t107 -265.5q0 -50 -10 -100q-24 -126 -98 -227.5t-180 -162.5zM1058 148l182 212q73 -92 205 -92q71 0 87 33q4 8 4 15q0 36 -107 64q-108 29 -167.5 101t-59.5 175q0 38 7 74
q28 143 146.5 236.5t267.5 93.5q88 0 172 -38.5t148 -105.5l-183 -213q-65 65 -157 65q-56 0 -69 -34q-3 -8 -3 -15q0 -40 94 -63q117 -30 178.5 -101.5t61.5 -173.5q0 -36 -7 -71q-29 -144 -153 -239t-284 -95q-118 0 -213.5 45.5t-149.5 126.5zM590 764h62q50 0 91.5 43.5
t54.5 112.5q5 27 5 45q0 50 -24.5 80.5t-65.5 30.5h-62z" />
    <glyph glyph-name="uni20A9" unicode="&#x20a9;" horiz-adv-x="2040" 
d="M980 1400h432l4 -854l332 854h438l-222 -490h132l-37 -190h-180l-33 -72h199l-36 -190h-247l-206 -458h-442l-30 826l-350 -826h-442l-28 458h-255l36 190h206l-4 72h-188l37 190h139l-29 490h438v-854z" />
    <glyph glyph-name="afii57636" unicode="&#x20aa;" horiz-adv-x="1792" 
d="M34 0l272 1400h598q197 0 322 -109t125 -276q0 -43 -8 -83l-80 -408h-336l66 338q5 25 5 45q0 75 -48.5 122t-128.5 47h-242l-209 -1076h-336zM1830 1400l-272 -1400h-598q-197 0 -322.5 109t-125.5 277q0 37 8 82l80 408h336l-66 -338q-5 -25 -5 -45q0 -75 48.5 -122
t128.5 -47h242l210 1076h336z" />
    <glyph glyph-name="dong" unicode="&#x20ab;" horiz-adv-x="1392" 
d="M710 0l15 80q-62 -47 -142 -75.5t-158 -28.5q-172 0 -278.5 117.5t-106.5 302.5q0 59 12 122q45 229 214 385.5t370 156.5q78 0 147 -28.5t112 -75.5l34 174h-228l41 212h228l23 118h404l-23 -118h128l-41 -212h-128l-219 -1130h-404zM158 -420l57 296h770l-57 -296h-770
zM795 440l30 156q-12 48 -51 76t-96 28q-81 0 -143 -52t-77 -130q-4 -17 -4 -38q0 -64 41.5 -104t111.5 -40q57 0 107 28.5t81 75.5z" />
    <glyph glyph-name="Euro" unicode="&#x20ac;" horiz-adv-x="1488" 
d="M801 -24q-259 0 -431 137.5t-202 360.5h-156l35 184h121q2 14 8 42q3 21 9 42h-121l35 184h156q117 223 342.5 360.5t484.5 137.5q296 0 476 -178l-253 -280q-44 53 -121.5 86.5t-166.5 33.5q-92 0 -179.5 -43t-152.5 -117h424l-35 -184h-490q-7 -19 -10 -42
q-6 -27 -7 -42h490l-35 -184h-424q36 -75 106.5 -117.5t162.5 -42.5q88 0 184 38t166 96l152 -278q-258 -194 -568 -194z" />
    <glyph glyph-name="afii61248" unicode="&#x2105;" horiz-adv-x="2138" 
d="M575 0l684 1400h286l-682 -1400h-288zM1161 399q0 87 36 166t97.5 135.5t147 89.5t180.5 33t180.5 -33t147 -89.5t97.5 -135.5t36 -166t-36 -166t-97.5 -135.5t-147 -89.5t-180.5 -33t-180.5 33t-147 89.5t-97.5 135.5t-36 166zM1481 399q0 -58 40.5 -97.5t100.5 -39.5
t100.5 39.5t40.5 97.5t-40.5 97.5t-100.5 39.5t-100.5 -39.5t-40.5 -97.5zM719 924l181 -218q-63 -60 -155.5 -95t-188.5 -35q-95 0 -180.5 33t-147 89.5t-97.5 135.5t-36 166t36 166t97.5 135.5t147 89.5t180.5 33q93 0 184 -30t152 -83l-171 -241q-78 67 -165 67
q-60 0 -100.5 -39.5t-40.5 -97.5t40.5 -97.5t100.5 -39.5q92 0 163 61z" />
    <glyph glyph-name="uni2109" unicode="&#x2109;" horiz-adv-x="1702" 
d="M60 1124q0 126 92.5 213t227.5 87t227.5 -87t92.5 -213t-92.5 -213t-227.5 -87t-227.5 87t-92.5 213zM306 1124q0 -32 21 -53t53 -21t53 21t21 53t-21 53t-53 21t-53 -21t-21 -53zM760 0v1400h912v-364h-484v-210h436v-364h-436v-462h-428z" />
    <glyph glyph-name="afii61289" unicode="&#x2113;" horiz-adv-x="1157" 
d="M1126 1058v-37q0 -357 -490 -625v-44q0 -27 18 -44.5t46 -17.5q46 0 77.5 25t56.5 83l280 -162q-41 -120 -155.5 -190t-258.5 -70q-150 0 -264 73.5t-151 189.5q-52 -20 -121 -43l-104 302q114 42 210 82v478q0 154 124 260t304 106t304 -106t124 -260zM636 1049v-268
q67 57 95.5 119t28.5 141v8q0 28 -17 44.5t-45 16.5t-45 -16.5t-17 -44.5z" />
    <glyph glyph-name="afii61352" unicode="&#x2116;" horiz-adv-x="2225" 
d="M154 0v1400h346l332 -712v712h367v-1400h-346l-332 712v-712h-367zM2133 304h-820v296h820v-296zM1627 1032q0 -41 27.5 -68.5t68.5 -27.5t68.5 27.5t27.5 68.5t-27.5 68.5t-68.5 27.5t-68.5 -27.5t-27.5 -68.5zM1293 1032q0 164 124.5 278t305.5 114t305.5 -114
t124.5 -278t-124.5 -278t-305.5 -114t-305.5 114t-124.5 278z" />
    <glyph glyph-name="uni2117" unicode="&#x2117;" horiz-adv-x="1608" 
d="M810 542h82q128 0 215 78t87 193t-87 193t-215 78h-344v-770h262v228zM100 700q0 149 56.5 283t153.5 231t231 153.5t283 56.5t283 -56.5t231 -153.5t153.5 -231t56.5 -283t-56.5 -283t-153.5 -231t-231 -153.5t-283 -56.5t-283 56.5t-231 153.5t-153.5 231t-56.5 283z
M232 700q0 -165 78.5 -303t214.5 -217.5t299 -79.5t299 79.5t214.5 217.5t78.5 303t-78.5 303t-214.5 217.5t-299 79.5t-299 -79.5t-214.5 -217.5t-78.5 -303zM861 742h-51v142h51q31 0 50 -20t19 -51t-19 -51t-50 -20z" />
    <glyph glyph-name="uni2120" unicode="&#x2120;" horiz-adv-x="1612" 
d="M63 797l140 155q48 -52 98.5 -84.5t82.5 -32.5q26 0 43.5 13.5t17.5 34.5q0 48 -95 67q-130 27 -195 87t-65 148q0 101 79.5 164t206.5 63q172 0 296 -126l-129 -157q-104 95 -163 95q-17 0 -28.5 -9t-11.5 -22q0 -43 87 -63q268 -63 268 -247q0 -105 -83 -170t-226 -65
q-88 0 -173.5 39.5t-149.5 109.5zM1213 858h-153l-82 154v-352h-244v740h226l176 -294l175 294h226v-740h-244v347z" />
    <glyph glyph-name="uni2121" unicode="&#x2121;" horiz-adv-x="2340" 
d="M1213 414q17 -150 126 -150q86 0 195 128l184 -228q-138 -188 -390 -188q-144 0 -260 71.5t-180.5 195t-64.5 275.5q0 230 142 386t350 156q203 0 340 -152.5t137 -375.5q0 -57 -17 -118h-562zM338 0v1032h-278v368h958v-368h-278v-1032h-402zM1833 0v1460h393v-1460
h-393zM1309 772q-81 0 -96 -140h188q-13 140 -92 140z" />
    <glyph glyph-name="trademark" unicode="&#x2122;" horiz-adv-x="1584" 
d="M223 660v514h-166v226h599v-226h-166v-514h-267zM1185 858h-153l-82 154v-352h-244v740h226l176 -294l175 294h226v-740h-244v347z" />
    <glyph glyph-name="Omega" unicode="&#x2126;" horiz-adv-x="1636" 
d="M1152 726q0 140 -90.5 235t-223.5 95t-223.5 -95t-90.5 -235q0 -131 67 -231t191 -155v-340h-660v368h202q-228 144 -228 408q0 179 98 328t268.5 234.5t375.5 85.5t375.5 -85.5t268.5 -234.5t98 -328q0 -264 -228 -408h202v-368h-660v340q124 55 191 155t67 231z" />
    <glyph glyph-name="estimated" unicode="&#x212e;" horiz-adv-x="1608" 
d="M1198 804v235q-70 83 -165.5 129t-208.5 46t-208.5 -46t-165.5 -129v-235h748zM450 596v-235q70 -83 165.5 -129t208.5 -46q126 0 234.5 59.5t180.5 171.5l185 -126q-102 -149 -259.5 -232t-340.5 -83q-149 0 -283 56.5t-231 153.5t-153.5 231t-56.5 283t56.5 283
t153.5 231t231 153.5t283 56.5t283 -56.5t231 -153.5t153.5 -231t56.5 -283v-104h-1098z" />
    <glyph glyph-name="onethird" unicode="&#x2153;" horiz-adv-x="1970" 
d="M400 0l956 1400h286l-954 -1400h-288zM533 1400h263l-185 -948h-311l129 664l-146 -73l-68 200zM1547 315q1 5 1 15q0 26 -17 43t-44 17q-22 0 -52 -15l-91 149l200 167h-265l50 257h610l-48 -244l-189 -145q158 -64 158 -219q0 -30 -6 -62q-25 -129 -148.5 -215.5
t-281.5 -86.5q-108 0 -190.5 45.5t-115.5 125.5l212 183q45 -91 128 -91q32 0 57 21.5t32 54.5z" />
    <glyph glyph-name="twothirds" unicode="&#x2154;" horiz-adv-x="1970" 
d="M710 892l-194 -175h254l-52 -265h-644l47 238l377 344q44 40 51 71q2 8 2 15q0 15 -9 24.5t-25 9.5q-42 0 -77 -75l-256 79q40 114 148.5 190t243.5 76q130 0 211 -63t81 -163q0 -20 -5 -47q-29 -146 -153 -259zM400 0l956 1400h286l-954 -1400h-288zM1547 315q1 5 1 15
q0 26 -17 43t-44 17q-22 0 -52 -15l-91 149l200 167h-265l50 257h610l-48 -244l-189 -145q158 -64 158 -219q0 -30 -6 -62q-25 -129 -148.5 -215.5t-281.5 -86.5q-108 0 -190.5 45.5t-115.5 125.5l212 183q45 -91 128 -91q32 0 57 21.5t32 54.5z" />
    <glyph glyph-name="onefifth" unicode="&#x2155;" horiz-adv-x="1970" 
d="M400 0l956 1400h286l-954 -1400h-288zM533 1400h263l-185 -948h-311l129 664l-146 -73l-68 200zM1622 689l-24 -70q125 -8 201.5 -78.5t76.5 -177.5q0 -27 -6 -57q-27 -141 -149.5 -236.5t-280.5 -95.5q-111 0 -195.5 43.5t-129.5 119.5l222 186q52 -85 127 -85
q35 0 61.5 21.5t34.5 53.5q3 12 3 22q0 28 -17.5 45t-46.5 17q-34 0 -65 -29l-221 30l174 548h573l-50 -257h-288z" />
    <glyph glyph-name="twofifths" unicode="&#x2156;" horiz-adv-x="1970" 
d="M710 892l-194 -175h254l-52 -265h-644l47 238l377 344q44 40 51 71q2 8 2 15q0 15 -9 24.5t-25 9.5q-42 0 -77 -75l-256 79q40 114 148.5 190t243.5 76q130 0 211 -63t81 -163q0 -20 -5 -47q-29 -146 -153 -259zM400 0l956 1400h286l-954 -1400h-288zM1622 689l-24 -70
q125 -8 201.5 -78.5t76.5 -177.5q0 -27 -6 -57q-27 -141 -149.5 -236.5t-280.5 -95.5q-111 0 -195.5 43.5t-129.5 119.5l222 186q52 -85 127 -85q35 0 61.5 21.5t34.5 53.5q3 12 3 22q0 28 -17.5 45t-46.5 17q-34 0 -65 -29l-221 30l174 548h573l-50 -257h-288z" />
    <glyph glyph-name="threefifths" unicode="&#x2157;" horiz-adv-x="1970" 
d="M400 0l956 1400h286l-954 -1400h-288zM485 767q1 5 1 15q0 26 -17 43t-44 17q-22 0 -52 -15l-91 149l200 167h-265l50 257h610l-48 -244l-189 -145q158 -64 158 -219q0 -30 -6 -62q-25 -129 -148.5 -215.5t-281.5 -86.5q-108 0 -190.5 45.5t-115.5 125.5l212 183
q45 -91 128 -91q32 0 57 21.5t32 54.5zM1622 689l-24 -70q125 -8 201.5 -78.5t76.5 -177.5q0 -27 -6 -57q-27 -141 -149.5 -236.5t-280.5 -95.5q-111 0 -195.5 43.5t-129.5 119.5l222 186q52 -85 127 -85q35 0 61.5 21.5t34.5 53.5q3 12 3 22q0 28 -17.5 45t-46.5 17
q-34 0 -65 -29l-221 30l174 548h573l-50 -257h-288z" />
    <glyph glyph-name="fourfifths" unicode="&#x2158;" horiz-adv-x="1970" 
d="M43 599l43 221l495 580h268l-110 -562h100l-46 -239h-100l-29 -147h-281l29 147h-369zM321 838h137l40 204zM400 0l956 1400h286l-954 -1400h-288zM1622 689l-24 -70q125 -8 201.5 -78.5t76.5 -177.5q0 -27 -6 -57q-27 -141 -149.5 -236.5t-280.5 -95.5
q-111 0 -195.5 43.5t-129.5 119.5l222 186q52 -85 127 -85q35 0 61.5 21.5t34.5 53.5q3 12 3 22q0 28 -17.5 45t-46.5 17q-34 0 -65 -29l-221 30l174 548h573l-50 -257h-288z" />
    <glyph glyph-name="onesixth" unicode="&#x2159;" horiz-adv-x="1970" 
d="M400 0l956 1400h286l-954 -1400h-288zM533 1400h263l-185 -948h-311l129 664l-146 -73l-68 200zM1950 948l-272 -321q97 -21 157.5 -86.5t60.5 -163.5q0 -31 -6 -64q-28 -143 -153.5 -240t-283.5 -97q-139 0 -226 77.5t-87 197.5q0 31 6 62q19 96 81 171l396 464h327z
M1441 316q-2 -10 -2 -20q0 -29 17.5 -47.5t45.5 -18.5q33 0 60.5 24.5t34.5 61.5q2 10 2 20q0 29 -17.5 47.5t-45.5 18.5q-33 0 -60.5 -24.5t-34.5 -61.5z" />
    <glyph glyph-name="fivesixths" unicode="&#x215a;" horiz-adv-x="1970" 
d="M561 1143l-24 -70q125 -8 201.5 -78.5t76.5 -177.5q0 -27 -6 -57q-27 -141 -149.5 -236.5t-280.5 -95.5q-111 0 -195.5 43.5t-129.5 119.5l222 186q52 -85 127 -85q35 0 61.5 21.5t34.5 53.5q3 12 3 22q0 28 -17.5 45t-46.5 17q-34 0 -65 -29l-221 30l174 548h573
l-50 -257h-288zM400 0l956 1400h286l-954 -1400h-288zM1950 948l-272 -321q97 -21 157.5 -86.5t60.5 -163.5q0 -31 -6 -64q-28 -143 -153.5 -240t-283.5 -97q-139 0 -226 77.5t-87 197.5q0 31 6 62q19 96 81 171l396 464h327zM1441 316q-2 -10 -2 -20q0 -29 17.5 -47.5
t45.5 -18.5q33 0 60.5 24.5t34.5 61.5q2 10 2 20q0 29 -17.5 47.5t-45.5 18.5q-33 0 -60.5 -24.5t-34.5 -61.5z" />
    <glyph glyph-name="oneeighth" unicode="&#x215b;" horiz-adv-x="1970" 
d="M400 0l956 1400h286l-954 -1400h-288zM533 1400h263l-185 -948h-311l129 664l-146 -73l-68 200zM1439 298q-2 -14 -2 -19q0 -29 18 -47t45 -18q32 0 60 23.5t35 60.5q2 14 2 19q0 29 -18.5 47.5t-45.5 18.5q-32 0 -59.5 -24t-34.5 -61zM1923 683q-11 -53 -43.5 -101
t-80.5 -77q42 -26 64 -72t22 -100q0 -22 -5 -49q-26 -131 -147.5 -220.5t-278.5 -89.5q-139 0 -225 72t-86 184q0 30 5 54q13 65 57.5 127t109.5 94q-59 47 -59 133q0 20 5 45q23 121 134 204t252 83q126 0 203.5 -67t77.5 -170q0 -22 -5 -50zM1533 679q-2 -7 -2 -20
q0 -21 12.5 -34t34.5 -13q26 0 45.5 18t24.5 44q1 5 1 13q0 21 -12.5 34.5t-34.5 13.5q-24 0 -43.5 -16t-25.5 -40z" />
    <glyph glyph-name="threeeighths" unicode="&#x215c;" horiz-adv-x="1970" 
d="M400 0l956 1400h286l-954 -1400h-288zM485 767q1 5 1 15q0 26 -17 43t-44 17q-22 0 -52 -15l-91 149l200 167h-265l50 257h610l-48 -244l-189 -145q158 -64 158 -219q0 -30 -6 -62q-25 -129 -148.5 -215.5t-281.5 -86.5q-108 0 -190.5 45.5t-115.5 125.5l212 183
q45 -91 128 -91q32 0 57 21.5t32 54.5zM1439 298q-2 -14 -2 -19q0 -29 18 -47t45 -18q32 0 60 23.5t35 60.5q2 14 2 19q0 29 -18.5 47.5t-45.5 18.5q-32 0 -59.5 -24t-34.5 -61zM1923 683q-11 -53 -43.5 -101t-80.5 -77q42 -26 64 -72t22 -100q0 -22 -5 -49
q-26 -131 -147.5 -220.5t-278.5 -89.5q-139 0 -225 72t-86 184q0 30 5 54q13 65 57.5 127t109.5 94q-59 47 -59 133q0 20 5 45q23 121 134 204t252 83q126 0 203.5 -67t77.5 -170q0 -22 -5 -50zM1533 679q-2 -7 -2 -20q0 -21 12.5 -34t34.5 -13q26 0 45.5 18t24.5 44
q1 5 1 13q0 21 -12.5 34.5t-34.5 13.5q-24 0 -43.5 -16t-25.5 -40z" />
    <glyph glyph-name="fiveeighths" unicode="&#x215d;" horiz-adv-x="1970" 
d="M400 0l956 1400h286l-954 -1400h-288zM561 1143l-24 -70q125 -8 201.5 -78.5t76.5 -177.5q0 -27 -6 -57q-27 -141 -149.5 -236.5t-280.5 -95.5q-111 0 -195.5 43.5t-129.5 119.5l222 186q52 -85 127 -85q35 0 61.5 21.5t34.5 53.5q3 12 3 22q0 28 -17.5 45t-46.5 17
q-34 0 -65 -29l-221 30l174 548h573l-50 -257h-288zM1439 298q-2 -14 -2 -19q0 -29 18 -47t45 -18q32 0 60 23.5t35 60.5q2 14 2 19q0 29 -18.5 47.5t-45.5 18.5q-32 0 -59.5 -24t-34.5 -61zM1923 683q-11 -53 -43.5 -101t-80.5 -77q42 -26 64 -72t22 -100q0 -22 -5 -49
q-26 -131 -147.5 -220.5t-278.5 -89.5q-139 0 -225 72t-86 184q0 30 5 54q13 65 57.5 127t109.5 94q-59 47 -59 133q0 20 5 45q23 121 134 204t252 83q126 0 203.5 -67t77.5 -170q0 -22 -5 -50zM1533 679q-2 -7 -2 -20q0 -21 12.5 -34t34.5 -13q26 0 45.5 18t24.5 44
q1 5 1 13q0 21 -12.5 34.5t-34.5 13.5q-24 0 -43.5 -16t-25.5 -40z" />
    <glyph glyph-name="seveneighths" unicode="&#x215e;" horiz-adv-x="1970" 
d="M253 1400h662l-44 -225l-435 -723h-322l419 683h-332zM400 0l956 1400h286l-954 -1400h-288zM1439 298q-2 -14 -2 -19q0 -29 18 -47t45 -18q32 0 60 23.5t35 60.5q2 14 2 19q0 29 -18.5 47.5t-45.5 18.5q-32 0 -59.5 -24t-34.5 -61zM1923 683q-11 -53 -43.5 -101
t-80.5 -77q42 -26 64 -72t22 -100q0 -22 -5 -49q-26 -131 -147.5 -220.5t-278.5 -89.5q-139 0 -225 72t-86 184q0 30 5 54q13 65 57.5 127t109.5 94q-59 47 -59 133q0 20 5 45q23 121 134 204t252 83q126 0 203.5 -67t77.5 -170q0 -22 -5 -50zM1533 679q-2 -7 -2 -20
q0 -21 12.5 -34t34.5 -13q26 0 45.5 18t24.5 44q1 5 1 13q0 21 -12.5 34.5t-34.5 13.5q-24 0 -43.5 -16t-25.5 -40z" />
    <glyph glyph-name="uni215F" unicode="&#x215f;" horiz-adv-x="1970" 
d="M400 0l956 1400h286l-954 -1400h-288zM533 1400h263l-185 -948h-311l129 664l-146 -73l-68 200z" />
    <glyph glyph-name="arrowleft" unicode="&#x2190;" horiz-adv-x="1720" 
d="M1668 878v-428h-1030v-232l-546 446l546 446v-232h1030z" />
    <glyph glyph-name="arrowup" unicode="&#x2191;" horiz-adv-x="1720" 
d="M1094 -76h-428v1030h-232l446 546l446 -546h-232v-1030z" />
    <glyph glyph-name="arrowright" unicode="&#x2192;" horiz-adv-x="1720" 
d="M92 450v428h1030v232l546 -446l-546 -446v232h-1030z" />
    <glyph glyph-name="arrowdown" unicode="&#x2193;" horiz-adv-x="1720" 
d="M666 1500h428v-1030h232l-446 -546l-446 546h232v1030z" />
    <glyph glyph-name="arrowboth" unicode="&#x2194;" horiz-adv-x="1720" 
d="M638 1110v-232h484v232l546 -446l-546 -446v232h-484v-232l-546 446z" />
    <glyph glyph-name="arrowupdn" unicode="&#x2195;" horiz-adv-x="1720" 
d="M434 470h232v484h-232l446 546l446 -546h-232v-484h232l-446 -546z" />
    <glyph glyph-name="arrowupdnbse" unicode="&#x21a8;" horiz-adv-x="1720" 
d="M902 -48h382v-208h-810v208h382l-422 518h232v484h-232l446 546l446 -546h-232v-484h232z" />
    <glyph glyph-name="partialdiff" unicode="&#x2202;" horiz-adv-x="1257" 
d="M574 940q65 0 124.5 -27t97.5 -75q-16 131 -64.5 178.5t-133.5 47.5q-142 0 -265 -110l-140 316q160 154 405 154q188 0 327 -91.5t211.5 -255.5t72.5 -381q0 -169 -45 -306t-124.5 -227t-187.5 -138.5t-234 -48.5q-152 0 -278.5 63.5t-199.5 174.5t-73 244
q0 132 71 243.5t187.5 175t248.5 63.5zM618 336q70 0 111.5 40.5t59.5 133.5q-68 70 -171 70q-62 0 -103.5 -35t-41.5 -87t41.5 -87t103.5 -35z" />
    <glyph glyph-name="Delta" unicode="&#x2206;" horiz-adv-x="1404" 
d="M954 1400l456 -1400h-1376l456 1400h464zM722 962l-167 -618h334z" />
    <glyph glyph-name="product" unicode="&#x220f;" horiz-adv-x="1384" 
d="M1270 1480v-1702h-428v1334h-260v-1334h-428v1702h1116z" />
    <glyph glyph-name="summation" unicode="&#x2211;" horiz-adv-x="1338" 
d="M113 224l440 416l-440 394v446h1152v-364h-692l366 -328v-296l-364 -350h690v-364h-1152v446z" />
    <glyph glyph-name="minus" unicode="&#x2212;" horiz-adv-x="1184" 
d="M1092 480h-960v368h960v-368z" />
    <glyph glyph-name="uni2215" unicode="&#x2215;" horiz-adv-x="330" 
d="M-300 0l684 1400h286l-682 -1400h-288z" />
    </font>
</defs>
</svg>
