<?xml version="1.0" standalone="no"?>
<!DOCTYPE svg PUBLIC "-//W3C//DTD SVG 1.1//EN" "http://www.w3.org/Graphics/SVG/1.1/DTD/svg11.dtd" >
<svg>
<metadata>
Created by FontForge 20090622 at Thu Jun 21 13:24:42 2018
 By deploy user
Copyright (c) 2016 by S-Core Co., Ltd.. All rights reserved.
</metadata>
<defs>
<font id="CoreSansC-65BoldIt" horiz-adv-x="806" >
  <font-face 
    font-family="Core Sans C 65 Bold"
    font-weight="600"
    font-style="italic"
    font-stretch="normal"
    units-per-em="2000"
    panose-1="2 11 6 3 3 3 2 2 2 4"
    ascent="1600"
    descent="-400"
    x-height="1036"
    cap-height="1400"
    bbox="-853 -520 2484 1950"
    underline-thickness="48"
    underline-position="-366"
    unicode-range="U+0009-U+FB04"
  />
<missing-glyph horiz-adv-x="1000" 
d="M910 0h-780v1500h780v-1500zM355 214h330v1071h-330v-1071z" />
    <glyph glyph-name="ff" unicode="ff" horiz-adv-x="1473" 
d="M1611 1450l-42 -219q-45 5 -92 5q-84 0 -127.5 -35t-58.5 -109l-11 -56h251l-47 -239h-251l-244 -1261h-275l244 1261h-431l-244 -1261h-275l244 1261h-155l47 239h155l11 59q36 184 157 274.5t331 90.5q84 0 151 -15l-70 -221q-62 12 -109 12q-83 0 -126.5 -35
t-58.5 -109l-11 -56h431l11 59q72 365 478 365q55 0 117 -10z" />
    <glyph glyph-name="fi" unicode="fi" horiz-adv-x="1318" 
d="M299 1036l11 59q72 365 480 365q61 0 125 -10l-42 -219q-50 5 -99 5q-86 0 -130 -35t-59 -109l-11 -56h706l-201 -1036h-275l154 797h-431l-243 -1261h-275l243 1261h-155l47 239h155zM1034 1312q13 67 68.5 113t124.5 46q61 0 98.5 -36t37.5 -92q0 -15 -3 -31
q-14 -68 -69.5 -113.5t-124.5 -45.5q-60 0 -97.5 35.5t-37.5 91.5q0 16 3 32z" />
    <glyph glyph-name="fl" unicode="fl" horiz-adv-x="1307" 
d="M905 1450l-42 -219q-45 5 -92 5q-84 0 -127.5 -35t-58.5 -109l-11 -56h251l-47 -239h-251l-244 -1261h-275l244 1261h-155l47 239h155l11 59q72 365 478 365q55 0 117 -10zM794 0l283 1460h275l-283 -1460h-275z" />
    <glyph glyph-name="ffi" unicode="ffi" horiz-adv-x="2024" 
d="M1740 1312q13 67 68.5 113t124.5 46q61 0 98.5 -36t37.5 -92q0 -15 -3 -31q-14 -68 -69.5 -113.5t-124.5 -45.5q-60 0 -97.5 35.5t-37.5 91.5q0 16 3 32zM252 797h-155l47 239h155l11 59q36 184 157 274.5t331 90.5q84 0 151 -15l-70 -221q-62 12 -109 12
q-83 0 -126.5 -35t-58.5 -109l-11 -56h431l11 59q72 365 480 365q61 0 125 -10l-42 -219q-50 5 -99 5q-86 0 -130 -35t-59 -109l-11 -56h706l-201 -1036h-275l154 797h-431l-244 -1261h-275l244 1261h-431l-244 -1261h-275z" />
    <glyph glyph-name="ffl" unicode="ffl" horiz-adv-x="2013" 
d="M1611 1450l-42 -219q-45 5 -92 5q-84 0 -127.5 -35t-58.5 -109l-11 -56h251l-47 -239h-251l-244 -1261h-275l244 1261h-431l-244 -1261h-275l244 1261h-155l47 239h155l11 59q36 184 157 274.5t331 90.5q84 0 151 -15l-70 -221q-62 12 -109 12q-83 0 -126.5 -35
t-58.5 -109l-11 -56h431l11 59q72 365 478 365q55 0 117 -10zM1500 0l283 1460h275l-283 -1460h-275z" />
    <glyph glyph-name=".notdef" horiz-adv-x="1000" 
d="M910 0h-780v1500h780v-1500zM355 214h330v1071h-330v-1071z" />
    <glyph glyph-name=".null" horiz-adv-x="0" 
 />
    <glyph glyph-name=".null" horiz-adv-x="0" 
 />
    <glyph glyph-name="nonmarkingreturn" horiz-adv-x="666" 
 />
    <glyph glyph-name="CR" unicode="&#x9;" horiz-adv-x="0" 
 />
    <glyph glyph-name="space" unicode=" " horiz-adv-x="603" 
 />
    <glyph glyph-name="exclam" unicode="!" horiz-adv-x="626" 
d="M152 419l191 981h284l-191 -981h-284zM67 142q13 70 72 118t133 48q64 0 104 -37.5t40 -96.5q0 -16 -3 -32q-13 -70 -72 -118t-133 -48q-64 0 -104 37.5t-40 96.5q0 16 3 32z" />
    <glyph glyph-name="quotedbl" unicode="&#x22;" horiz-adv-x="987" 
d="M232 834l110 566h272l-110 -566h-272zM607 834l110 566h272l-110 -566h-272z" />
    <glyph glyph-name="numbersign" unicode="#" horiz-adv-x="1387" 
d="M70 540h215l115 312h-195l43 220h232l121 328h262l-121 -328h246l121 328h262l-121 -328h179l-43 -220h-216l-115 -312h196l-42 -220h-233l-117 -320h-262l117 320h-246l-117 -320h-262l117 320h-178zM662 852l-115 -312h246l115 312h-246z" />
    <glyph glyph-name="dollar" unicode="$" horiz-adv-x="1194" 
d="M30 201l199 190q99 -135 239 -166l76 388q-164 41 -248.5 124.5t-84.5 205.5q0 34 8 77q31 163 164 273t318 128l35 183h176l-36 -189q198 -31 315 -169l-192 -198q-87 90 -171 120l-67 -340q346 -91 346 -343q0 -41 -9 -87q-33 -167 -167 -280t-334 -136l-36 -186h-176
l36 185q-126 14 -228 71.5t-163 148.5zM811 390q4 16 4 36q0 86 -105 136l-65 -331q66 19 110.5 60.5t55.5 98.5zM508 1041q-3 -17 -3 -33q0 -79 91 -125l57 292q-58 -15 -97 -50.5t-48 -83.5z" />
    <glyph glyph-name="percent" unicode="%" horiz-adv-x="1837" 
d="M334 0l994 1400h247l-993 -1400h-248zM431 1055q-3 -15 -3 -30q0 -49 30 -81.5t82 -32.5q60 0 106.5 42.5t58.5 101.5q3 15 3 30q0 49 -30 81.5t-82 32.5q-60 0 -106.5 -42.5t-58.5 -101.5zM189 1055q29 151 157.5 255t290.5 104q142 0 229.5 -82t87.5 -209q0 -28 -7 -68
q-29 -151 -158 -255t-291 -104q-141 0 -228.5 82t-87.5 208q0 35 7 69zM1204 345q-3 -15 -3 -30q0 -49 30 -81.5t82 -32.5q60 0 106.5 42.5t58.5 101.5q3 15 3 30q0 49 -30 81.5t-82 32.5q-60 0 -106.5 -42.5t-58.5 -101.5zM962 345q29 151 157.5 255t290.5 104
q142 0 229.5 -82t87.5 -209q0 -28 -7 -68q-29 -151 -158 -255t-291 -104q-141 0 -228.5 82t-87.5 208q0 35 7 69z" />
    <glyph glyph-name="ampersand" unicode="&#x26;" horiz-adv-x="1487" 
d="M1153 1170l-261 -98q-17 134 -137 134q-59 0 -107.5 -38.5t-58.5 -90.5q-3 -15 -3 -30q0 -89 133 -242l266 -307q61 94 107 240l251 -37q-63 -221 -199 -391l268 -310h-358l-109 124q-208 -148 -446 -148q-192 0 -310 92.5t-118 238.5q0 28 7 68q24 123 102.5 219
t217.5 177q-83 120 -83 226q0 40 7 78q29 149 167 249t307 100q149 0 242.5 -68t114.5 -186zM543 203q132 0 258 91l-270 312q-155 -94 -178 -213q-3 -18 -3 -35q0 -69 52 -112t141 -43z" />
    <glyph glyph-name="quotesingle" unicode="'" horiz-adv-x="622" 
d="M234 834l110 566h278l-110 -566h-278z" />
    <glyph glyph-name="parenleft" unicode="(" horiz-adv-x="855" 
d="M234 609q52 267 198 510.5t359 422.5l166 -137q-170 -161 -283 -367.5t-156 -428.5q-24 -126 -24 -247q0 -317 153 -549l-218 -137q-107 134 -164 306t-57 365q0 126 26 262z" />
    <glyph glyph-name="parenright" unicode=")" horiz-adv-x="855" 
d="M657 609q-52 -267 -198 -511t-359 -422l-166 137q169 162 282.5 368.5t156.5 427.5q24 125 24 246q0 316 -153 550l218 137q108 -133 164.5 -305.5t56.5 -366.5q0 -125 -26 -261z" />
    <glyph glyph-name="asterisk" unicode="*" horiz-adv-x="1126" 
d="M137 788l114 201l227 -143l-11 267h232l-11 -267l227 143l114 -201l-239 -125l239 -125l-114 -201l-227 143l11 -267h-232l11 267l-227 -143l-114 201l239 125z" />
    <glyph glyph-name="plus" unicode="+" horiz-adv-x="1166" 
d="M467 205v339h-329v239h329v339h272v-339h329v-239h-329v-339h-272z" />
    <glyph glyph-name="comma" unicode="," horiz-adv-x="603" 
d="M59 142q14 71 71 118.5t130 47.5q64 0 102.5 -37.5t38.5 -95.5q0 -17 -3 -33q-7 -38 -33 -77l-208 -315h-176l154 237q-37 15 -58 47t-21 74q0 16 3 34z" />
    <glyph glyph-name="hyphen" unicode="-" horiz-adv-x="828" 
d="M714 537h-592l49 254h592z" />
    <glyph glyph-name="period" unicode="." horiz-adv-x="603" 
d="M59 142q14 71 71 118.5t130 47.5q64 0 102.5 -37.5t38.5 -95.5q0 -17 -3 -33q-14 -71 -71.5 -118.5t-130.5 -47.5q-63 0 -101.5 37.5t-38.5 95.5q0 17 3 33z" />
    <glyph glyph-name="slash" unicode="/" horiz-adv-x="957" 
d="M1153 1500l-1030 -1780h-282l1029 1780h283z" />
    <glyph glyph-name="zero" unicode="0" horiz-adv-x="1206" 
d="M147 700q30 156 86.5 287t135.5 229t184.5 153t225.5 55q187 0 282 -128t95 -348q0 -119 -25 -248q-30 -156 -87 -287t-136 -229t-184.5 -153t-225.5 -55q-188 0 -282.5 127.5t-94.5 347.5q0 114 26 249zM423 700q-26 -135 -26 -233q0 -238 150 -238q110 0 187 124.5
t121 346.5q26 133 26 231q0 239 -151 239q-110 0 -187 -124t-120 -346z" />
    <glyph glyph-name="one" unicode="1" horiz-adv-x="1206" 
d="M732 1400h251l-272 -1400h-281l219 1130l-251 -122l-71 196z" />
    <glyph glyph-name="two" unicode="2" horiz-adv-x="1206" 
d="M883 595l-392 -353h505l-47 -242h-866l44 227l566 509q88 79 130 138.5t54 123.5q4 19 4 40q0 64 -41.5 103t-110.5 39q-141 0 -242 -169l-220 90q70 146 205 234.5t307 88.5q176 0 282.5 -88t106.5 -238q0 -44 -8 -83q-23 -116 -88 -212.5t-189 -207.5z" />
    <glyph glyph-name="three" unicode="3" horiz-adv-x="1206" 
d="M481 217q102 0 183 68t100 165q5 25 5 45q0 81 -54.5 134t-143.5 53q-34 0 -69 -11l-82 136l369 351h-489l47 242h816l-47 -240l-335 -308q129 -27 199 -116.5t70 -218.5q0 -50 -10 -97q-17 -85 -69 -165t-128.5 -142t-180.5 -99.5t-216 -37.5q-145 0 -251.5 61.5
t-158.5 175.5l210 162q80 -158 235 -158z" />
    <glyph glyph-name="four" unicode="4" horiz-adv-x="1206" 
d="M22 254l47 240l781 906h269l-175 -899h150l-48 -247h-150l-49 -254h-276l49 254h-598zM340 499h327l96 490z" />
    <glyph glyph-name="five" unicode="5" horiz-adv-x="1206" 
d="M465 -24q-147 0 -255 59.5t-162 172.5l220 165q76 -155 228 -155q103 0 184.5 66.5t100.5 165.5q5 27 5 47q0 82 -55 134t-144 52q-54 0 -105 -22t-84 -58l-196 26l238 771h755l-47 -242h-503l-90 -286q63 30 146 30q162 0 266.5 -97.5t104.5 -258.5q0 -47 -10 -96
q-40 -209 -204 -341.5t-393 -132.5z" />
    <glyph glyph-name="six" unicode="6" horiz-adv-x="1206" 
d="M1090 1400l-420 -498q7 1 20 1q113 0 205.5 -39.5t151.5 -123t59 -197.5q0 -45 -9 -94q-40 -202 -216 -337.5t-381 -135.5q-184 0 -306 107t-122 277q0 42 9 89q26 138 118 247l594 704h297zM822 450q5 28 5 48q0 83 -53.5 136t-138.5 53q-97 0 -178.5 -68t-100.5 -169
q-5 -27 -5 -48q0 -83 53.5 -135.5t138.5 -52.5q97 0 178.5 68t100.5 168z" />
    <glyph glyph-name="seven" unicode="7" horiz-adv-x="1206" 
d="M334 1400h892l-44 -225l-713 -1175h-305l707 1155h-585z" />
    <glyph glyph-name="eight" unicode="8" horiz-adv-x="1206" 
d="M361 427q-4 -20 -4 -43q0 -76 51.5 -125.5t134.5 -49.5q95 0 172.5 63.5t95.5 154.5q4 19 4 41q0 77 -52 127.5t-135 50.5q-95 0 -172.5 -63.5t-94.5 -155.5zM1136 1040q-17 -86 -78 -161.5t-141 -112.5q83 -35 128 -107t45 -164q0 -34 -8 -76q-37 -189 -205 -316
t-379 -127q-187 0 -303.5 101.5t-116.5 260.5q0 36 8 81q23 116 103 210.5t196 136.5q-54 31 -85.5 88.5t-31.5 127.5q0 28 6 58q31 162 175 273t330 111q165 0 264.5 -88.5t99.5 -225.5q0 -36 -7 -70zM534 1032q-3 -15 -3 -30q0 -56 39 -94.5t101 -38.5q71 0 129.5 48.5
t71.5 114.5q3 15 3 30q0 56 -39 93.5t-102 37.5q-71 0 -129 -47t-71 -114z" />
    <glyph glyph-name="nine" unicode="9" horiz-adv-x="1206" 
d="M188 0l419 498q-7 -1 -20 -1q-113 0 -205.5 39.5t-151.5 123t-59 197.5q0 45 9 94q40 202 216 337.5t381 135.5q184 0 306 -107t122 -277q0 -42 -9 -89q-26 -138 -118 -247l-593 -704h-297zM455 950q-5 -28 -5 -48q0 -83 53.5 -136t138.5 -53q97 0 178.5 68t100.5 169
q5 27 5 48q0 83 -53.5 135.5t-138.5 52.5q-97 0 -178.5 -68t-100.5 -168z" />
    <glyph glyph-name="colon" unicode=":" horiz-adv-x="603" 
d="M205 894q14 71 72 118.5t130 47.5q64 0 102.5 -36.5t38.5 -94.5q0 -11 -4 -35q-14 -71 -71.5 -118.5t-130.5 -47.5q-63 0 -101.5 37.5t-38.5 95.5q0 17 3 33zM59 142q14 71 71 118.5t130 47.5q64 0 102.5 -37.5t38.5 -95.5q0 -17 -3 -33q-14 -71 -71.5 -118.5
t-130.5 -47.5q-63 0 -101.5 37.5t-38.5 95.5q0 17 3 33z" />
    <glyph glyph-name="semicolon" unicode=";" horiz-adv-x="603" 
d="M205 894q14 71 72 118.5t130 47.5q64 0 102.5 -36.5t38.5 -94.5q0 -11 -4 -35q-14 -71 -71.5 -118.5t-130.5 -47.5q-63 0 -101.5 37.5t-38.5 95.5q0 17 3 33zM59 142q14 71 71 118.5t130 47.5q64 0 102.5 -37.5t38.5 -95.5q0 -17 -3 -33q-7 -38 -33 -77l-208 -315h-176
l154 237q-37 15 -58 47t-21 74q0 16 3 34z" />
    <glyph glyph-name="less" unicode="&#x3c;" horiz-adv-x="1166" 
d="M140 572v182l895 491v-301l-548 -281l548 -281v-301z" />
    <glyph glyph-name="equal" unicode="=" horiz-adv-x="1166" 
d="M1068 773h-930v237h930v-237zM1068 317h-930v237h930v-237z" />
    <glyph glyph-name="greater" unicode="&#x3e;" horiz-adv-x="1166" 
d="M1066 754v-182l-895 -491v301l548 281l-548 281v301z" />
    <glyph glyph-name="question" unicode="?" horiz-adv-x="1109" 
d="M324 419l70 362q174 0 283 63t128 163q3 13 3 28q0 63 -55.5 102t-149.5 39q-132 0 -291 -113l-96 206q219 155 463 155q193 0 306.5 -98.5t113.5 -246.5q0 -37 -7 -71q-27 -143 -148.5 -254t-299.5 -149l-36 -186h-284zM239 142q13 70 72 118t133 48q64 0 104 -37.5
t40 -96.5q0 -16 -3 -32q-13 -70 -72 -118t-133 -48q-64 0 -104 37.5t-40 96.5q0 16 3 32z" />
    <glyph glyph-name="at" unicode="@" horiz-adv-x="1942" 
d="M924 310q64 0 121 33.5t95 89.5l40 210q-16 55 -60.5 88.5t-107.5 33.5q-92 0 -166.5 -65t-93.5 -162q-5 -28 -5 -49q0 -79 49 -129t128 -50zM1367 107q-76 0 -140.5 36t-93.5 93q-60 -61 -138 -95t-158 -34q-148 0 -237.5 95.5t-89.5 243.5q0 46 9 92q35 178 174 304.5
t308 126.5q138 0 223 -104l16 84h230l-115 -593q7 -23 30 -37.5t51 -14.5q79 0 148.5 75.5t95.5 210.5q12 60 12 116q0 230 -166 383t-418 153q-188 0 -364.5 -91.5t-300.5 -250.5t-161 -350q-13 -68 -13 -136q0 -244 164 -400t432 -156q261 0 504 149l49 -167
q-295 -164 -588 -164q-171 0 -315.5 52t-244.5 144.5t-155.5 222.5t-55.5 283q0 88 17 172q48 245 207.5 446t387 314.5t472.5 113.5q169 0 311.5 -51t240.5 -141t152.5 -215.5t54.5 -270.5q0 -72 -16 -158q-42 -218 -186.5 -349.5t-332.5 -131.5z" />
    <glyph glyph-name="A" unicode="A" horiz-adv-x="1382" 
d="M706 1400h314l229 -1400h-301l-43 315h-506l-165 -315h-301zM877 547l-73 550l-287 -550h360z" />
    <glyph glyph-name="B" unicode="B" horiz-adv-x="1252" 
d="M649 0h-596l272 1400h527q167 0 258 -77.5t91 -213.5q0 -41 -9 -88q-20 -100 -79.5 -172t-143.5 -106q85 -24 136 -92t51 -167q0 -34 -8 -76q-36 -181 -172.5 -294.5t-326.5 -113.5zM912 999q4 21 4 44q0 60 -35 91t-97 31h-226l-64 -331h226q72 0 124.5 43t67.5 122z
M866 421q5 28 5 49q0 64 -37 101t-101 37h-283l-73 -373h283q76 0 133 51t73 135z" />
    <glyph glyph-name="C" unicode="C" horiz-adv-x="1390" 
d="M723 -24q-278 0 -451 163.5t-173 418.5q0 73 14 142q39 201 169.5 367t321.5 261.5t400 95.5q271 0 449 -162l-184 -211q-72 60 -145.5 92.5t-167.5 32.5q-128 0 -246 -62t-200.5 -171.5t-109.5 -242.5q-10 -49 -10 -99q0 -166 106 -271.5t275 -105.5q185 0 373 135
l110 -209q-245 -174 -531 -174z" />
    <glyph glyph-name="D" unicode="D" horiz-adv-x="1439" 
d="M325 1400h507q274 0 428.5 -141.5t154.5 -389.5q0 -85 -17 -169q-63 -321 -290.5 -510.5t-547.5 -189.5h-507zM773 1152h-213l-175 -904h213q195 0 332 114.5t181 337.5q13 66 13 126q0 161 -93 243.5t-258 82.5z" />
    <glyph glyph-name="E" unicode="E" horiz-adv-x="1146" 
d="M53 0l272 1400h872l-47 -242h-588l-65 -334h540l-47 -240h-540l-66 -342h606l-47 -242h-890z" />
    <glyph glyph-name="F" unicode="F" horiz-adv-x="1078" 
d="M53 0l272 1400h852l-48 -244h-568l-67 -345h520l-47 -244h-520l-110 -567h-284z" />
    <glyph glyph-name="G" unicode="G" horiz-adv-x="1458" 
d="M956 1176q-196 0 -356.5 -137.5t-200.5 -341.5q-10 -49 -10 -98q0 -167 106 -273.5t275 -106.5q126 0 231 58l53 269h-307l44 229h591l-120 -618q-116 -86 -255.5 -133.5t-283.5 -47.5q-278 0 -451 163.5t-173 418.5q0 73 14 142q39 201 169.5 367t321.5 261.5t400 95.5
q271 0 449 -162l-184 -211q-72 60 -145.5 92.5t-167.5 32.5z" />
    <glyph glyph-name="H" unicode="H" horiz-adv-x="1414" 
d="M53 0l272 1400h284l-112 -574h540l112 574h284l-272 -1400h-284l112 581h-540l-112 -581h-284z" />
    <glyph glyph-name="I" unicode="I" horiz-adv-x="606" 
d="M333 1400h284l-272 -1400h-284z" />
    <glyph glyph-name="J" unicode="J" horiz-adv-x="930" 
d="M492 456l184 944h284l-186 -954q-46 -236 -186 -353t-364 -117q-79 0 -155.5 18.5t-127.5 51.5l128 234q81 -56 179 -56q198 0 244 232z" />
    <glyph glyph-name="K" unicode="K" horiz-adv-x="1239" 
d="M609 1400l-111 -571h80l463 571h313l-563 -690l368 -710h-319l-302 584h-88l-113 -584h-284l272 1400h284z" />
    <glyph glyph-name="L" unicode="L" horiz-adv-x="1038" 
d="M53 0l272 1400h284l-225 -1155h566l-47 -245h-850z" />
    <glyph glyph-name="M" unicode="M" horiz-adv-x="1718" 
d="M934 418h-188l-237 553l-188 -971h-268l272 1400h290l285 -672l547 672h290l-272 -1400h-268l188 971z" />
    <glyph glyph-name="N" unicode="N" horiz-adv-x="1414" 
d="M53 0l272 1400h288l369 -942l183 942h268l-272 -1400h-288l-369 942l-183 -942h-268z" />
    <glyph glyph-name="O" unicode="O" horiz-adv-x="1656" 
d="M400 700q-10 -49 -10 -99q0 -166 106 -271.5t275 -105.5q196 0 356.5 137t199.5 339q11 53 11 98q0 166 -106 272t-276 106q-196 0 -356.5 -137t-199.5 -339zM113 700q39 201 169.5 367t321.5 261.5t400 95.5q279 0 452 -163.5t173 -419.5q0 -66 -14 -141
q-39 -201 -170 -367t-322 -261.5t-400 -95.5q-278 0 -451 163.5t-173 418.5q0 73 14 142z" />
    <glyph glyph-name="P" unicode="P" horiz-adv-x="1200" 
d="M642 488h-211l-94 -488h-284l272 1400h495q192 0 301 -96t109 -259q0 -51 -10 -101q-40 -205 -198 -330.5t-380 -125.5zM936 944q6 28 6 55q0 78 -49 122.5t-142 44.5h-188l-86 -444h188q109 0 180 59.5t91 162.5z" />
    <glyph glyph-name="Q" unicode="Q" horiz-adv-x="1656" 
d="M113 700q39 201 169.5 367t321.5 261.5t400 95.5q278 0 451 -163.5t173 -418.5q0 -77 -13 -142q-55 -278 -276 -480l150 -210l-221 -167l-159 222q-186 -89 -386 -89q-278 0 -451 163.5t-173 418.5q0 73 14 142zM400 700q-10 -49 -10 -99q0 -166 106 -271.5t275 -105.5
q99 0 197 39l-148 208l222 167l150 -212q105 119 136 274q10 50 10 98q0 166 -106 272t-276 106q-196 0 -356.5 -137t-199.5 -339z" />
    <glyph glyph-name="R" unicode="R" horiz-adv-x="1227" 
d="M325 1400h495q193 0 302 -94.5t109 -256.5q0 -50 -10 -100q-31 -157 -133 -267.5t-255 -153.5l237 -528h-310l-218 498h-111l-96 -498h-282zM752 1166h-191l-86 -441h191q108 0 179.5 60t90.5 160q6 29 6 55q0 78 -49 122t-141 44z" />
    <glyph glyph-name="S" unicode="S" horiz-adv-x="1194" 
d="M30 201l200 191q58 -78 139 -125.5t174 -47.5q98 0 172.5 44.5t92.5 121.5q5 22 5 40q0 62 -56 107t-190 75q-175 38 -265.5 124t-90.5 212q0 34 8 77q23 117 100 209t193 143.5t251 51.5q139 0 247.5 -46.5t180.5 -131.5l-193 -199q-129 136 -270 136
q-83 0 -144.5 -39.5t-73.5 -102.5q-3 -17 -3 -33q0 -60 54 -101.5t176 -70.5q190 -46 280 -132.5t90 -216.5q0 -43 -9 -89q-37 -187 -198.5 -304.5t-397.5 -117.5q-153 0 -277 59.5t-195 165.5z" />
    <glyph glyph-name="T" unicode="T" horiz-adv-x="1114" 
d="M315 0l224 1155h-360l48 245h1004l-48 -245h-360l-224 -1155h-284z" />
    <glyph glyph-name="U" unicode="U" horiz-adv-x="1340" 
d="M1370 1400l-179 -920q-29 -147 -122.5 -262.5t-225.5 -177.5t-278 -62q-195 0 -317.5 109t-122.5 289q0 53 10 104l179 920h284l-182 -932q-5 -30 -5 -52q0 -87 56 -138.5t146 -51.5q104 0 187 67t104 175l182 932h284z" />
    <glyph glyph-name="V" unicode="V" horiz-adv-x="1382" 
d="M503 1400l154 -1060l566 1060h298l-773 -1400h-314l-229 1400h298z" />
    <glyph glyph-name="W" unicode="W" horiz-adv-x="1970" 
d="M1017 1400h280l73 -1004l443 1004h296l-660 -1400h-285l-83 1013l-475 -1013h-285l-116 1400h296l51 -1004z" />
    <glyph glyph-name="X" unicode="X" horiz-adv-x="1286" 
d="M1161 0h-309l-209 516l-409 -516h-309l582 714l-290 686h309l194 -487l384 487h309l-558 -686z" />
    <glyph glyph-name="Y" unicode="Y" horiz-adv-x="1302" 
d="M511 1400l202 -566l422 566h306l-639 -836l-109 -564h-284l109 564l-313 836h306z" />
    <glyph glyph-name="Z" unicode="Z" horiz-adv-x="1220" 
d="M58 235l824 920h-615l48 245h954l-46 -235l-824 -920h665l-47 -245h-1004z" />
    <glyph glyph-name="bracketleft" unicode="[" horiz-adv-x="855" 
d="M57 -280l346 1780h605l-48 -245h-321l-250 -1290h321l-48 -245h-605z" />
    <glyph glyph-name="backslash" unicode="\" horiz-adv-x="957" 
d="M524 -280l-338 1780h283l338 -1780h-283z" />
    <glyph glyph-name="bracketright" unicode="]" horiz-adv-x="855" 
d="M834 1500l-346 -1780h-604l47 245h321l250 1290h-321l48 245h605z" />
    <glyph glyph-name="asciicircum" unicode="^" horiz-adv-x="1246" 
d="M508 1400h270l400 -622h-298l-237 377l-237 -377h-298z" />
    <glyph glyph-name="underscore" unicode="_" horiz-adv-x="1000" 
d="M-174 -383l44 224h999l-44 -224h-999z" />
    <glyph glyph-name="grave" unicode="`" horiz-adv-x="850" 
d="M563 1460l195 -342h-262l-209 342h276z" />
    <glyph glyph-name="a" unicode="a" horiz-adv-x="1315" 
d="M582 219q89 0 170.5 45t131.5 120l52 268q-21 75 -85 120t-153 45q-127 0 -229.5 -86t-127.5 -213q-6 -31 -6 -61q0 -104 68.5 -171t178.5 -67zM688 1060q196 0 303 -128l20 104h272l-201 -1036h-272l20 104q-157 -128 -353 -128q-191 0 -307 121.5t-116 307.5
q0 59 11 113q29 147 119.5 271t224 197.5t279.5 73.5z" />
    <glyph glyph-name="b" unicode="b" horiz-adv-x="1315" 
d="M617 219q127 0 229.5 86t127.5 213q6 32 6 61q0 104 -68.5 171t-178.5 67q-89 0 -170.5 -45t-131.5 -120l-52 -268q21 -75 85 -120t153 -45zM839 1060q191 0 306.5 -121.5t115.5 -307.5q0 -59 -11 -113q-29 -147 -119.5 -271t-223.5 -197.5t-279 -73.5q-198 0 -303 128
l-20 -104h-272l283 1460h272l-102 -528q155 128 353 128z" />
    <glyph glyph-name="c" unicode="c" horiz-adv-x="1111" 
d="M535 -24q-215 0 -347.5 123.5t-132.5 314.5q0 53 10 104q29 150 128 274t245 196t308 72q225 0 364 -139l-176 -205q-105 101 -234 101q-127 0 -229.5 -86.5t-127.5 -212.5q-6 -31 -6 -61q0 -104 68.5 -171t178.5 -67q136 0 280 109l116 -192q-197 -160 -445 -160z" />
    <glyph glyph-name="d" unicode="d" horiz-adv-x="1315" 
d="M582 219q89 0 170.5 45t131.5 120l52 268q-21 75 -85 120t-153 45q-127 0 -229.5 -86t-127.5 -213q-6 -31 -6 -61q0 -104 68.5 -171t178.5 -67zM688 1060q196 0 303 -128l102 528h272l-283 -1460h-272l20 104q-157 -128 -353 -128q-191 0 -307 121.5t-116 307.5
q0 59 11 113q29 147 119.5 271t224 197.5t279.5 73.5z" />
    <glyph glyph-name="e" unicode="e" horiz-adv-x="1236" 
d="M327 436v-8q0 -105 69.5 -169t183.5 -64q164 0 319 129l134 -160q-209 -188 -494 -188q-222 0 -353.5 122t-131.5 313q0 49 11 107q29 150 126.5 274t241 196t301.5 72q205 0 328 -118.5t123 -301.5q0 -53 -10 -104q-10 -52 -32 -100h-816zM689 841q-97 0 -183.5 -57
t-133.5 -152h538q-5 94 -63.5 151.5t-157.5 57.5z" />
    <glyph glyph-name="f" unicode="f" horiz-adv-x="767" 
d="M905 1450l-42 -219q-45 5 -92 5q-84 0 -127.5 -35t-58.5 -109l-11 -56h251l-47 -239h-251l-244 -1261h-275l244 1261h-155l47 239h155l11 59q72 365 478 365q55 0 117 -10z" />
    <glyph glyph-name="g" unicode="g" horiz-adv-x="1315" 
d="M884 384l52 268q-21 75 -85 120t-153 45q-127 0 -229.5 -86t-127.5 -213q-6 -31 -6 -61q0 -104 68.5 -171t178.5 -67q89 0 170.5 45t131.5 120zM991 932l20 104h272l-190 -975q-46 -238 -219 -381.5t-434 -143.5q-147 0 -265 52.5t-189 146.5l193 181q117 -145 295 -145
q133 0 226 72.5t118 199.5l13 68q-154 -128 -353 -128q-192 0 -308 120t-116 305q0 50 11 110q29 147 119.5 271t224 197.5t279.5 73.5q196 0 303 -128z" />
    <glyph glyph-name="h" unicode="h" horiz-adv-x="1226" 
d="M439 674l-131 -674h-275l283 1460h275l-104 -538q65 63 150 100.5t168 37.5q158 0 250 -88.5t92 -237.5q0 -39 -10 -96l-124 -638h-275l118 611q5 27 5 46q0 71 -45.5 115.5t-125.5 44.5q-63 0 -133 -42t-118 -101z" />
    <glyph glyph-name="i" unicode="i" horiz-adv-x="552" 
d="M38 0l201 1036h275l-201 -1036h-275zM268 1312q13 67 68.5 113t124.5 46q61 0 98.5 -36t37.5 -92q0 -15 -3 -31q-14 -68 -69.5 -113.5t-124.5 -45.5q-60 0 -97.5 35.5t-37.5 91.5q0 16 3 32z" />
    <glyph glyph-name="j" unicode="j" horiz-adv-x="552" 
d="M20 -90l219 1126h275l-222 -1140q-36 -184 -140.5 -272t-282.5 -88q-57 0 -95 7l45 232h53q63 0 98.5 31t49.5 104zM268 1312q13 67 68.5 113t124.5 46q61 0 98.5 -36t37.5 -92q0 -15 -3 -31q-14 -68 -69.5 -113.5t-124.5 -45.5q-60 0 -97.5 35.5t-37.5 91.5q0 16 3 32z
" />
    <glyph glyph-name="k" unicode="k" horiz-adv-x="1073" 
d="M664 0l-183 453h-85l-88 -453h-275l283 1460h275l-150 -771h89l285 347h310l-395 -466l239 -570h-305z" />
    <glyph glyph-name="l" unicode="l" horiz-adv-x="552" 
d="M38 0l283 1460h275l-283 -1460h-275z" />
    <glyph glyph-name="m" unicode="m" horiz-adv-x="1883" 
d="M234 1036h275l-22 -114q62 62 142 99t163 37q109 0 187.5 -47t115.5 -131q71 81 173 130.5t204 49.5q153 0 242.5 -88t89.5 -234q0 -48 -10 -97l-124 -641h-275l119 613q5 27 5 48q0 69 -41 112.5t-113 43.5q-63 0 -129 -41.5t-120 -107.5q-4 -32 -11 -68l-116 -600h-275
l119 613q5 28 5 48q0 70 -41 113t-113 43q-63 0 -128.5 -41t-117.5 -105l-130 -671h-275z" />
    <glyph glyph-name="n" unicode="n" horiz-adv-x="1226" 
d="M439 674l-131 -674h-275l201 1036h275l-22 -114q65 63 150 100.5t168 37.5q158 0 250 -88.5t92 -237.5q0 -39 -10 -96l-124 -638h-275l118 611q5 27 5 46q0 71 -45.5 115.5t-125.5 44.5q-63 0 -133 -42t-118 -101z" />
    <glyph glyph-name="o" unicode="o" horiz-adv-x="1280" 
d="M65 518q29 150 128 274t245 196t308 72q216 0 347.5 -123t131.5 -315q0 -53 -10 -104q-29 -150 -127.5 -274t-244.5 -196t-308 -72q-215 0 -347.5 123.5t-132.5 314.5q0 53 10 104zM341 518q-6 -31 -6 -61q0 -104 68.5 -171t178.5 -67q127 0 230 86t128 213q6 32 6 60
q0 104 -68.5 171.5t-179.5 67.5q-127 0 -229.5 -86.5t-127.5 -212.5z" />
    <glyph glyph-name="p" unicode="p" horiz-adv-x="1315" 
d="M617 219q127 0 229.5 86t127.5 213q6 32 6 61q0 104 -68.5 171t-178.5 67q-89 0 -170.5 -45t-131.5 -120l-52 -268q21 -75 85 -120t153 -45zM839 1060q191 0 306.5 -121.5t115.5 -307.5q0 -59 -11 -113q-29 -147 -119.5 -271t-223.5 -197.5t-279 -73.5q-198 0 -303 128
l-111 -568h-272l292 1500h272l-20 -104q155 128 353 128z" />
    <glyph glyph-name="q" unicode="q" horiz-adv-x="1315" 
d="M582 219q89 0 170.5 45t131.5 120l52 268q-21 75 -85 120t-153 45q-127 0 -229.5 -86t-127.5 -213q-6 -31 -6 -61q0 -104 68.5 -171t178.5 -67zM688 1060q196 0 303 -128l20 104h272l-292 -1500h-272l111 568q-157 -128 -353 -128q-191 0 -307 121.5t-116 307.5
q0 59 11 113q29 147 119.5 271t224 197.5t279.5 73.5z" />
    <glyph glyph-name="r" unicode="r" horiz-adv-x="825" 
d="M708 817q-74 0 -145.5 -45t-128.5 -123l-126 -649h-275l201 1036h275l-25 -127q142 151 307 151q53 0 89 -22l-66 -241q-53 20 -106 20z" />
    <glyph glyph-name="s" unicode="s" horiz-adv-x="947" 
d="M-10 148l172 171q38 -56 100.5 -89.5t138.5 -33.5q71 0 116.5 27.5t55.5 75.5q2 14 2 21q0 38 -36 63t-120 43q-279 60 -279 265q0 33 7 67q26 132 146 217t287 85q104 0 192 -38.5t148 -102.5l-165 -172q-96 93 -194 93q-57 0 -97.5 -23t-48.5 -63q-2 -10 -2 -17
q0 -76 143 -106q292 -63 292 -267q0 -34 -7 -68q-28 -140 -154 -230t-308 -90q-129 0 -231.5 45.5t-157.5 126.5z" />
    <glyph glyph-name="t" unicode="t" horiz-adv-x="787" 
d="M533 797l-85 -438q-5 -28 -5 -46q0 -51 32 -74.5t103 -23.5q54 0 99 5l-44 -230q-68 -14 -146 -14q-328 0 -328 263q0 45 11 103l88 455h-161l47 239h161l54 276l279 24l-58 -300h244l-47 -239h-244z" />
    <glyph glyph-name="u" unicode="u" horiz-adv-x="1226" 
d="M788 362l131 674h275l-201 -1036h-275l22 114q-65 -63 -150 -100.5t-168 -37.5q-157 0 -249.5 88.5t-92.5 236.5q0 48 10 97l124 638h275l-119 -611q-4 -20 -4 -45q0 -72 45 -116.5t125 -44.5q63 0 133.5 42t118.5 101z" />
    <glyph glyph-name="v" unicode="v" horiz-adv-x="1074" 
d="M870 1036h286l-571 -1036h-296l-169 1036h286l95 -705z" />
    <glyph glyph-name="w" unicode="w" horiz-adv-x="1594" 
d="M760 1036h276l43 -693l316 693h281l-515 -1036h-284l-49 674l-311 -674h-284l-113 1036h281l46 -693z" />
    <glyph glyph-name="x" unicode="x" horiz-adv-x="1074" 
d="M955 0h-298l-152 352l-288 -352h-298l442 528l-215 508h298l129 -333l259 333h298l-413 -508z" />
    <glyph glyph-name="y" unicode="y" horiz-adv-x="1074" 
d="M313 -464h-287l273 464l-179 1036h286l96 -688l368 688h286z" />
    <glyph glyph-name="z" unicode="z" horiz-adv-x="1027" 
d="M-12 0l43 223l604 575h-466l46 238h800l-43 -223l-604 -575h512l-46 -238h-846z" />
    <glyph glyph-name="braceleft" unicode="{" horiz-adv-x="855" 
d="M125 488l48 244q88 0 146.5 45.5t74.5 128.5l51 265q27 140 147.5 234.5t275.5 94.5h140l-48 -245h-87q-56 0 -99 -35.5t-53 -90.5l-54 -280q-38 -192 -229 -239q142 -40 142 -177q0 -29 -6 -62l-55 -280q-3 -13 -3 -27q0 -45 29 -72t78 -27h87l-48 -245h-140
q-136 0 -218.5 74.5t-82.5 191.5q0 30 6 63l52 265q4 20 4 42q0 64 -41 98t-117 34z" />
    <glyph glyph-name="bar" unicode="|" horiz-adv-x="660" 
d="M218 -280v1780h264v-1780h-264z" />
    <glyph glyph-name="braceright" unicode="}" horiz-adv-x="855" 
d="M766 732l-48 -244q-88 0 -146 -45.5t-74 -128.5l-52 -265q-27 -140 -147.5 -234.5t-275.5 -94.5h-139l47 245h87q56 0 99 35.5t53 90.5l55 280q37 192 228 239q-142 40 -142 177q0 24 7 62l54 280q3 13 3 27q0 45 -29 72t-78 27h-87l48 245h140q136 0 218.5 -74.5
t82.5 -191.5q0 -30 -6 -63l-51 -265q-5 -27 -5 -44q0 -63 41 -96.5t117 -33.5z" />
    <glyph glyph-name="asciitilde" unicode="~" horiz-adv-x="1166" 
d="M580 530l-53.5 46.5t-46 30t-49.5 15.5q-70 0 -95 -144l-259 57q26 162 104 249t203 87q138 0 242 -91l53.5 -46.5t46 -30t49.5 -15.5q70 0 95 144l259 -57q-26 -162 -104 -249t-203 -87q-138 0 -242 91z" />
    <glyph glyph-name="uni00A0" unicode="&#xa0;" horiz-adv-x="603" 
 />
    <glyph glyph-name="exclamdown" unicode="&#xa1;" horiz-adv-x="626" 
d="M0 -364l190 981h284l-190 -981h-284zM213 894q13 70 72 118t133 48q65 0 104.5 -37.5t39.5 -96.5q0 -16 -3 -32q-13 -70 -72 -118t-133 -48q-64 0 -104 37.5t-40 96.5q0 16 3 32z" />
    <glyph glyph-name="cent" unicode="&#xa2;" horiz-adv-x="1111" 
d="M405 -184l32 168q-175 28 -278.5 145t-103.5 285q0 53 10 104q40 203 202.5 352.5t377.5 181.5l33 168h177l-32 -165q172 -20 287 -134l-176 -205q-74 70 -159 92l-113 -580q102 24 202 100l116 -192q-163 -133 -366 -155l-32 -165h-177zM343 518q-6 -31 -6 -61
q0 -79 40 -137.5t109 -84.5l110 565q-95 -31 -164.5 -107.5t-88.5 -174.5z" />
    <glyph glyph-name="sterling" unicode="&#xa3;" horiz-adv-x="1165" 
d="M306 541h-168l39 200h121q-30 102 -30 187q0 46 9 94q33 169 183.5 285.5t338.5 116.5q147 0 244 -72t121 -182l-263 -127q-26 133 -150 133q-68 0 -121 -46t-67 -116q-5 -28 -5 -52q0 -30 5 -65t15 -84t14 -72h324l-39 -200h-285q-37 -189 -183 -293h602l-48 -248h-924
l46 239q179 92 221 302z" />
    <glyph glyph-name="currency" unicode="&#xa4;" horiz-adv-x="1272" 
d="M185 652q0 125 70 232l-174 176l164 161l183 -183q104 53 228 53t228 -53l183 183l164 -161l-174 -176q70 -107 70 -232t-70 -232l174 -176l-164 -161l-183 183q-104 -53 -228 -53t-228 53l-183 -183l-164 161l174 176q-70 107 -70 232zM444 652q0 -89 61 -151t151 -62
t151 62t61 151t-61 151t-151 62t-151 -62t-61 -151z" />
    <glyph glyph-name="yen" unicode="&#xa5;" horiz-adv-x="1302" 
d="M158 498h347l13 66l-9 24h-333l29 150h248l-248 662h306l202 -566l422 566h306l-506 -662h248l-29 -150h-334l-18 -24l-13 -66h347l-29 -150h-347l-67 -348h-284l67 348h-347z" />
    <glyph glyph-name="brokenbar" unicode="&#xa6;" horiz-adv-x="660" 
d="M218 700v800h264v-800h-264zM218 -280v800h264v-800h-264z" />
    <glyph glyph-name="section" unicode="&#xa7;" horiz-adv-x="1022" 
d="M973 531q-18 -89 -79.5 -161t-155.5 -115q63 -71 63 -167q0 -30 -6 -61q-27 -139 -157 -233t-297 -94q-143 0 -235.5 72t-96.5 193l248 54q2 -49 35.5 -77t90.5 -28q61 0 106.5 32.5t55.5 82.5q2 14 2 21q0 56 -55 84l-238 115q-95 46 -144.5 118t-49.5 160q0 27 7 65
q17 89 78.5 161t155.5 115q-62 69 -62 166q0 30 6 62q27 140 157 234t296 94q143 0 235.5 -72.5t97.5 -193.5l-248 -54q-2 49 -35.5 77t-90.5 28q-60 0 -106.5 -32.5t-56.5 -81.5q-2 -10 -2 -20q0 -58 56 -85l238 -115q95 -46 144 -119t49 -162q0 -30 -6 -63zM628 688
l-124 60q-69 -5 -122 -49t-65 -107q-3 -14 -3 -28q0 -82 97 -129l123 -60q70 5 123 49t66 107q3 13 3 27q0 84 -98 130z" />
    <glyph glyph-name="dieresis" unicode="&#xa8;" horiz-adv-x="850" 
d="M236 1292q12 62 62.5 104t112.5 42q54 0 88 -33t34 -84q0 -14 -3 -29q-12 -62 -63 -104t-113 -42q-54 0 -87.5 33t-33.5 84q0 14 3 29zM622 1292q12 62 62.5 104t112.5 42q54 0 88 -33t34 -84q0 -14 -3 -29q-12 -62 -63 -104t-113 -42q-54 0 -87.5 33t-33.5 84q0 14 3 29
z" />
    <glyph glyph-name="copyright" unicode="&#xa9;" horiz-adv-x="1608" 
d="M861 300q-175 0 -295 115t-120 283t120 283t295 115q148 0 268 -93l-84 -163q-93 71 -184 71q-88 0 -147 -61.5t-59 -151.5q0 -91 59 -152.5t147 -61.5q98 0 190 78l88 -162q-117 -100 -278 -100zM100 700q0 149 56.5 283t153.5 231t231 153.5t283 56.5t283 -56.5
t231 -153.5t153.5 -231t56.5 -283t-56.5 -283t-153.5 -231t-231 -153.5t-283 -56.5t-283 56.5t-231 153.5t-153.5 231t-56.5 283zM232 700q0 -165 78.5 -303t214.5 -217.5t299 -79.5t299 79.5t214.5 217.5t78.5 303t-78.5 303t-214.5 217.5t-299 79.5t-299 -79.5
t-214.5 -217.5t-78.5 -303z" />
    <glyph glyph-name="ordfeminine" unicode="&#xaa;" horiz-adv-x="924" 
d="M524 858q53 0 98.5 25.5t75.5 64.5l34 176q-14 39 -50 64.5t-89 25.5q-76 0 -136.5 -51t-75.5 -127q-4 -17 -4 -37q0 -62 40.5 -101.5t106.5 -39.5zM644 672l13 67q-85 -83 -212 -83q-132 0 -214 83.5t-82 215.5q0 36 8 81q31 161 156.5 270.5t279.5 109.5q127 0 180 -83
l13 67h223l-142 -728h-223z" />
    <glyph glyph-name="guillemotleft" unicode="&#xab;" horiz-adv-x="1290" 
d="M101 555l27 136l645 354l-46 -235l-354 -187l281 -187l-45 -235zM608 555l27 136l645 354l-46 -235l-354 -187l281 -187l-45 -235z" />
    <glyph glyph-name="logicalnot" unicode="&#xac;" horiz-adv-x="1166" 
d="M796 225v319h-658v239h930v-558h-272z" />
    <glyph glyph-name="uni00AD" unicode="&#xad;" horiz-adv-x="828" 
d="M714 537h-592l49 254h592z" />
    <glyph glyph-name="registered" unicode="&#xae;" horiz-adv-x="1608" 
d="M100 700q0 149 56.5 283t153.5 231t231 153.5t283 56.5t283 -56.5t231 -153.5t153.5 -231t56.5 -283t-56.5 -283t-153.5 -231t-231 -153.5t-283 -56.5t-283 56.5t-231 153.5t-153.5 231t-56.5 283zM232 700q0 -165 78.5 -303t214.5 -217.5t299 -79.5t299 79.5
t214.5 217.5t78.5 303t-78.5 303t-214.5 217.5t-299 79.5t-299 -79.5t-214.5 -217.5t-78.5 -303zM565 1084h299q118 0 196 -72t78 -182q0 -77 -40.5 -137t-109.5 -90l170 -289h-209l-150 262h-44v-262h-190v770zM844 916h-89v-188h89q46 0 75 26.5t29 67.5t-29 67.5
t-75 26.5z" />
    <glyph glyph-name="macron" unicode="&#xaf;" horiz-adv-x="850" 
d="M245 1185l40 206h620l-40 -206h-620z" />
    <glyph glyph-name="degree" unicode="&#xb0;" horiz-adv-x="804" 
d="M132 1147q0 117 83.5 197t206.5 80t206.5 -80t83.5 -197t-83.5 -197t-206.5 -80t-206.5 80t-83.5 197zM318 1147q0 -45 29.5 -74.5t74.5 -29.5t74.5 29.5t29.5 74.5t-29.5 74.5t-74.5 29.5t-74.5 -29.5t-29.5 -74.5z" />
    <glyph glyph-name="plusminus" unicode="&#xb1;" horiz-adv-x="1166" 
d="M1068 0h-930v237h930v-237zM467 325v323h-329v237h329v323h272v-323h329v-237h-329v-323h-272z" />
    <glyph glyph-name="twosuperior" unicode="&#xb2;" 
d="M648 851l-236 -210h319l-37 -189h-616l33 169l382 342q54 49 80.5 86.5t34.5 78.5q3 14 3 25q0 37 -22.5 58.5t-61.5 21.5q-42 0 -76 -27.5t-69 -90.5l-183 70q51 113 147.5 176t219.5 63q125 0 201.5 -62t76.5 -167q0 -27 -6 -57q-15 -78 -60 -144t-130 -143z" />
    <glyph glyph-name="threesuperior" unicode="&#xb3;" 
d="M546 757q3 15 3 28q0 48 -31 79.5t-81 31.5q-28 0 -55 -11l-67 107l231 219h-310l37 189h582l-34 -175l-210 -194q80 -24 123.5 -85.5t43.5 -145.5q0 -31 -6 -64q-24 -123 -142.5 -215.5t-274.5 -92.5q-103 0 -179.5 46t-111.5 128l171 132q60 -118 147 -118
q58 0 105 40.5t59 100.5z" />
    <glyph glyph-name="acute" unicode="&#xb4;" horiz-adv-x="850" 
d="M326 1118l327 342h276l-341 -342h-262z" />
    <glyph glyph-name="mu" unicode="&#xb5;" horiz-adv-x="1246" 
d="M-58 -464l292 1500h275l-130 -670q4 -67 51.5 -107t118.5 -40q66 0 139 45.5t122 109.5l129 662h275l-201 -1036h-275l22 117q-59 -64 -133.5 -102.5t-145.5 -38.5q-52 0 -95 22.5t-67 61.5l-102 -524h-275z" />
    <glyph glyph-name="paragraph" unicode="&#xb6;" horiz-adv-x="1177" 
d="M581 536h-50q-188 0 -316 124.5t-128 307.5t128 307.5t316 124.5h508v-1662h-183v1484h-92v-1484h-183v798z" />
    <glyph glyph-name="periodcentered" unicode="&#xb7;" horiz-adv-x="603" 
d="M158 651q14 71 71 118.5t130 47.5q64 0 102.5 -37.5t38.5 -95.5q0 -16 -3 -33q-14 -71 -71.5 -118.5t-130.5 -47.5q-63 0 -101.5 37.5t-38.5 95.5q0 16 3 33z" />
    <glyph glyph-name="cedilla" unicode="&#xb8;" horiz-adv-x="850" 
d="M301 -308q4 13 4 22q0 27 -22 43.5t-60 16.5q-32 0 -60 -5l-37 52l130 179h198l-91 -107q65 -18 102 -62t37 -101q0 -16 -3 -34q-18 -93 -110 -154.5t-212 -61.5q-121 0 -189 62l104 118q40 -34 102 -34q39 0 68.5 18.5t38.5 47.5z" />
    <glyph glyph-name="onesuperior" unicode="&#xb9;" 
d="M547 1400h195l-185 -948h-230l141 725l-156 -77l-53 161z" />
    <glyph glyph-name="ordmasculine" unicode="&#xba;" horiz-adv-x="924" 
d="M160 1036q31 159 169.5 269.5t307.5 110.5q149 0 242.5 -87.5t93.5 -221.5q0 -37 -7 -71q-31 -159 -169.5 -269.5t-307.5 -110.5q-149 0 -242.5 87.5t-93.5 221.5q0 37 7 71zM386 1036q-4 -17 -4 -38q0 -62 40 -101t106 -39q76 0 136.5 50.5t75.5 127.5q4 17 4 38
q0 63 -40.5 101.5t-106.5 38.5q-76 0 -136 -50.5t-75 -127.5z" />
    <glyph glyph-name="guillemotright" unicode="&#xbb;" horiz-adv-x="1290" 
d="M1230 691l-27 -136l-644 -354l45 235l355 187l-282 187l46 235zM723 691l-27 -136l-644 -354l45 235l355 187l-282 187l46 235z" />
    <glyph glyph-name="onequarter" unicode="&#xbc;" horiz-adv-x="1940" 
d="M547 1400h195l-185 -948h-230l141 725l-156 -77l-53 161zM418 0l954 1400h223l-954 -1400h-223zM1100 167l33 172l530 609h211l-115 -592h98l-37 -189h-98l-33 -167h-222l33 167h-400zM1359 354h177l52 269z" />
    <glyph glyph-name="onehalf" unicode="&#xbd;" horiz-adv-x="1940" 
d="M547 1400h195l-185 -948h-230l141 725l-156 -77l-53 161zM418 0l954 1400h223l-954 -1400h-223zM1695 399l-236 -210h319l-37 -189h-616l33 169l382 342q54 49 80.5 86.5t34.5 78.5q3 13 3 25q0 37 -22.5 58.5t-61.5 21.5q-42 0 -76 -27.5t-69 -90.5l-183 70
q51 113 147.5 176t219.5 63q125 0 201.5 -62t76.5 -167q0 -27 -6 -57q-15 -78 -60 -144t-130 -143z" />
    <glyph glyph-name="threequarters" unicode="&#xbe;" horiz-adv-x="1940" 
d="M546 757q3 15 3 28q0 48 -31 79.5t-81 31.5q-28 0 -55 -11l-67 107l231 219h-310l37 189h582l-34 -175l-210 -194q80 -24 123.5 -85.5t43.5 -145.5q0 -31 -6 -64q-24 -123 -142.5 -215.5t-274.5 -92.5q-103 0 -179.5 46t-111.5 128l171 132q60 -118 147 -118
q58 0 105 40.5t59 100.5zM418 0l954 1400h223l-954 -1400h-223zM1100 167l33 172l530 609h211l-115 -592h98l-37 -189h-98l-33 -167h-222l33 167h-400zM1359 354h177l52 269z" />
    <glyph glyph-name="questiondown" unicode="&#xbf;" horiz-adv-x="1109" 
d="M785 617l-70 -362q-174 0 -283 -63t-128 -163q-3 -13 -3 -28q0 -63 55.5 -102t149.5 -39q134 0 291 113l96 -206q-219 -155 -463 -155q-193 0 -306.5 98.5t-113.5 246.5q0 37 7 71q27 143 148.5 254t299.5 149l36 186h284zM524 894q13 70 72 118t133 48q64 0 104 -37.5
t40 -96.5q0 -16 -3 -32q-13 -70 -72 -118t-133 -48q-64 0 -104 37.5t-40 96.5q0 16 3 32z" />
    <glyph glyph-name="Agrave" unicode="&#xc0;" horiz-adv-x="1382" 
d="M706 1400h314l229 -1400h-301l-43 315h-506l-165 -315h-301zM877 547l-73 550l-287 -550h360zM883 1850l195 -342h-262l-209 342h276z" />
    <glyph glyph-name="Aacute" unicode="&#xc1;" horiz-adv-x="1382" 
d="M706 1400h314l229 -1400h-301l-43 315h-506l-165 -315h-301zM877 547l-73 550l-287 -550h360zM687 1508l327 342h276l-341 -342h-262z" />
    <glyph glyph-name="Acircumflex" unicode="&#xc2;" horiz-adv-x="1382" 
d="M706 1400h314l229 -1400h-301l-43 315h-506l-165 -315h-301zM877 547l-73 550l-287 -550h360zM852 1850h196l226 -342h-260l-100 155l-160 -155h-260z" />
    <glyph glyph-name="Atilde" unicode="&#xc3;" horiz-adv-x="1382" 
d="M706 1400h314l229 -1400h-301l-43 315h-506l-165 -315h-301zM877 547l-73 550l-287 -550h360zM905 1560q-62 38 -89 38q-42 0 -75 -75l-211 44q88 227 251 227q68 0 137 -45q62 -38 90 -38q43 0 74 75l212 -44q-88 -227 -251 -227q-67 0 -138 45z" />
    <glyph glyph-name="Adieresis" unicode="&#xc4;" horiz-adv-x="1382" 
d="M706 1400h314l229 -1400h-301l-43 315h-506l-165 -315h-301zM877 547l-73 550l-287 -550h360zM574 1664q12 62 62.5 104t112.5 42q54 0 88 -33t34 -84q0 -14 -3 -29q-12 -62 -63 -104t-113 -42q-54 0 -87.5 33t-33.5 84q0 14 3 29zM960 1664q12 62 62.5 104t112.5 42
q54 0 88 -33t34 -84q0 -14 -3 -29q-12 -62 -63 -104t-113 -42q-54 0 -87.5 33t-33.5 84q0 14 3 29z" />
    <glyph glyph-name="Aring" unicode="&#xc5;" horiz-adv-x="1382" 
d="M706 1400h314l229 -1400h-301l-43 315h-506l-165 -315h-301zM877 547l-73 550l-287 -550h360zM851 1685q-1 -5 -1 -13q0 -23 15 -38t40 -15q29 0 52 19t28 47q1 5 1 13q0 23 -15 38t-40 15q-29 0 -52 -19t-28 -47zM692 1685q18 89 94 148t173 59q85 0 137 -47t52 -120
q0 -21 -4 -40q-17 -88 -93 -147.5t-173 -59.5q-85 0 -137.5 47.5t-52.5 121.5q0 18 4 38z" />
    <glyph glyph-name="AE" unicode="&#xc6;" horiz-adv-x="1865" 
d="M212 0h-310l1047 1400h967l-47 -242h-573l-65 -334h525l-47 -240h-525l-66 -342h591l-47 -242h-872l61 315h-411zM1002 1092l-397 -545h291z" />
    <glyph glyph-name="Ccedilla" unicode="&#xc7;" horiz-adv-x="1390" 
d="M686 -308q4 13 4 22q0 27 -22 43.5t-60 16.5q-32 0 -60 -5l-37 52l116 161q-239 28 -383.5 186t-144.5 390q0 73 14 142q39 201 169.5 367t321.5 261.5t400 95.5q271 0 449 -162l-184 -211q-72 60 -145.5 92.5t-167.5 32.5q-128 0 -246 -62t-200.5 -171.5t-109.5 -242.5
q-10 -49 -10 -99q0 -166 106 -271.5t275 -105.5q185 0 373 135l110 -209q-198 -141 -430 -168l-76 -89q65 -18 102 -62t37 -101q0 -16 -3 -34q-18 -93 -110 -154.5t-212 -61.5q-121 0 -189 62l104 118q40 -34 102 -34q39 0 68.5 18.5t38.5 47.5z" />
    <glyph glyph-name="Egrave" unicode="&#xc8;" horiz-adv-x="1146" 
d="M53 0l272 1400h872l-47 -242h-588l-65 -334h540l-47 -240h-540l-66 -342h606l-47 -242h-890zM755 1850l195 -342h-262l-209 342h276z" />
    <glyph glyph-name="Eacute" unicode="&#xc9;" horiz-adv-x="1146" 
d="M53 0l272 1400h872l-47 -242h-588l-65 -334h540l-47 -240h-540l-66 -342h606l-47 -242h-890zM606 1508l327 342h276l-341 -342h-262z" />
    <glyph glyph-name="Ecircumflex" unicode="&#xca;" horiz-adv-x="1146" 
d="M53 0l272 1400h872l-47 -242h-588l-65 -334h540l-47 -240h-540l-66 -342h606l-47 -242h-890zM750 1850h196l226 -342h-260l-100 155l-160 -155h-260z" />
    <glyph glyph-name="Edieresis" unicode="&#xcb;" horiz-adv-x="1146" 
d="M53 0l272 1400h872l-47 -242h-588l-65 -334h540l-47 -240h-540l-66 -342h606l-47 -242h-890zM476 1664q12 62 62.5 104t112.5 42q54 0 88 -33t34 -84q0 -14 -3 -29q-12 -62 -63 -104t-113 -42q-54 0 -87.5 33t-33.5 84q0 14 3 29zM862 1664q12 62 62.5 104t112.5 42
q54 0 88 -33t34 -84q0 -14 -3 -29q-12 -62 -63 -104t-113 -42q-54 0 -87.5 33t-33.5 84q0 14 3 29z" />
    <glyph glyph-name="Igrave" unicode="&#xcc;" horiz-adv-x="606" 
d="M333 1400h284l-272 -1400h-284zM493 1850l195 -342h-262l-209 342h276z" />
    <glyph glyph-name="Iacute" unicode="&#xcd;" horiz-adv-x="606" 
d="M333 1400h284l-272 -1400h-284zM304 1508l327 342h276l-341 -342h-262z" />
    <glyph glyph-name="Icircumflex" unicode="&#xce;" horiz-adv-x="606" 
d="M333 1400h284l-272 -1400h-284zM464 1850h196l226 -342h-260l-100 155l-160 -155h-260z" />
    <glyph glyph-name="Idieresis" unicode="&#xcf;" horiz-adv-x="606" 
d="M333 1400h284l-272 -1400h-284zM186 1664q12 62 62.5 104t112.5 42q54 0 88 -33t34 -84q0 -14 -3 -29q-12 -62 -63 -104t-113 -42q-54 0 -87.5 33t-33.5 84q0 14 3 29zM572 1664q12 62 62.5 104t112.5 42q54 0 88 -33t34 -84q0 -14 -3 -29q-12 -62 -63 -104t-113 -42
q-54 0 -87.5 33t-33.5 84q0 14 3 29z" />
    <glyph glyph-name="Eth" unicode="&#xd0;" horiz-adv-x="1473" 
d="M359 1400h507q274 0 428.5 -141.5t154.5 -389.5q0 -85 -17 -169q-63 -321 -290.5 -510.5t-547.5 -189.5h-507l117 606h-175l37 187h175zM744 606h-256l-69 -358h213q195 0 332 114.5t181 337.5q13 66 13 126q0 161 -93 243.5t-258 82.5h-213l-69 -359h256z" />
    <glyph glyph-name="Ntilde" unicode="&#xd1;" horiz-adv-x="1414" 
d="M53 0l272 1400h288l369 -942l183 942h268l-272 -1400h-288l-369 942l-183 -942h-268zM921 1560q-62 38 -89 38q-42 0 -75 -75l-211 44q88 227 251 227q68 0 137 -45q62 -38 90 -38q43 0 74 75l212 -44q-88 -227 -251 -227q-67 0 -138 45z" />
    <glyph glyph-name="Ograve" unicode="&#xd2;" horiz-adv-x="1656" 
d="M400 700q-10 -49 -10 -99q0 -166 106 -271.5t275 -105.5q196 0 356.5 137t199.5 339q11 53 11 98q0 166 -106 272t-276 106q-196 0 -356.5 -137t-199.5 -339zM113 700q39 201 169.5 367t321.5 261.5t400 95.5q279 0 452 -163.5t173 -419.5q0 -66 -14 -141
q-39 -201 -170 -367t-322 -261.5t-400 -95.5q-278 0 -451 163.5t-173 418.5q0 73 14 142zM1008 1850l195 -342h-262l-209 342h276z" />
    <glyph glyph-name="Oacute" unicode="&#xd3;" horiz-adv-x="1656" 
d="M400 700q-10 -49 -10 -99q0 -166 106 -271.5t275 -105.5q196 0 356.5 137t199.5 339q11 53 11 98q0 166 -106 272t-276 106q-196 0 -356.5 -137t-199.5 -339zM113 700q39 201 169.5 367t321.5 261.5t400 95.5q279 0 452 -163.5t173 -419.5q0 -66 -14 -141
q-39 -201 -170 -367t-322 -261.5t-400 -95.5q-278 0 -451 163.5t-173 418.5q0 73 14 142zM838 1508l327 342h276l-341 -342h-262z" />
    <glyph glyph-name="Ocircumflex" unicode="&#xd4;" horiz-adv-x="1656" 
d="M400 700q-10 -49 -10 -99q0 -166 106 -271.5t275 -105.5q196 0 356.5 137t199.5 339q11 53 11 98q0 166 -106 272t-276 106q-196 0 -356.5 -137t-199.5 -339zM113 700q39 201 169.5 367t321.5 261.5t400 95.5q279 0 452 -163.5t173 -419.5q0 -66 -14 -141
q-39 -201 -170 -367t-322 -261.5t-400 -95.5q-278 0 -451 163.5t-173 418.5q0 73 14 142zM989 1850h196l226 -342h-260l-100 155l-160 -155h-260z" />
    <glyph glyph-name="Otilde" unicode="&#xd5;" horiz-adv-x="1656" 
d="M400 700q-10 -49 -10 -99q0 -166 106 -271.5t275 -105.5q196 0 356.5 137t199.5 339q11 53 11 98q0 166 -106 272t-276 106q-196 0 -356.5 -137t-199.5 -339zM113 700q39 201 169.5 367t321.5 261.5t400 95.5q279 0 452 -163.5t173 -419.5q0 -66 -14 -141
q-39 -201 -170 -367t-322 -261.5t-400 -95.5q-278 0 -451 163.5t-173 418.5q0 73 14 142zM1042 1560q-62 38 -89 38q-42 0 -75 -75l-211 44q88 227 251 227q68 0 137 -45q62 -38 90 -38q43 0 74 75l212 -44q-88 -227 -251 -227q-67 0 -138 45z" />
    <glyph glyph-name="Odieresis" unicode="&#xd6;" horiz-adv-x="1656" 
d="M400 700q-10 -49 -10 -99q0 -166 106 -271.5t275 -105.5q196 0 356.5 137t199.5 339q11 53 11 98q0 166 -106 272t-276 106q-196 0 -356.5 -137t-199.5 -339zM113 700q39 201 169.5 367t321.5 261.5t400 95.5q279 0 452 -163.5t173 -419.5q0 -66 -14 -141
q-39 -201 -170 -367t-322 -261.5t-400 -95.5q-278 0 -451 163.5t-173 418.5q0 73 14 142zM711 1664q12 62 62.5 104t112.5 42q54 0 88 -33t34 -84q0 -14 -3 -29q-12 -62 -63 -104t-113 -42q-54 0 -87.5 33t-33.5 84q0 14 3 29zM1097 1664q12 62 62.5 104t112.5 42
q54 0 88 -33t34 -84q0 -14 -3 -29q-12 -62 -63 -104t-113 -42q-54 0 -87.5 33t-33.5 84q0 14 3 29z" />
    <glyph glyph-name="multiply" unicode="&#xd7;" horiz-adv-x="1166" 
d="M880 1117l180 -180l-277 -278l277 -277l-180 -180l-277 277l-277 -277l-180 180l277 277l-277 278l180 180l277 -278z" />
    <glyph glyph-name="Oslash" unicode="&#xd8;" horiz-adv-x="1656" 
d="M113 700q39 201 169.5 367t321.5 261.5t400 95.5q199 0 352 -90l122 126h226l-222 -227q147 -160 147 -393q0 -65 -14 -140q-39 -201 -170 -367t-322 -261.5t-400 -95.5q-212 0 -370 100l-132 -136h-226l236 242q-132 154 -132 375q0 74 14 143zM1328 700q9 50 9 96
q0 127 -64 222l-718 -736q94 -58 216 -58q196 0 356.5 137t200.5 339zM400 700q-10 -50 -10 -100q0 -115 52 -202l712 729q-89 49 -198 49q-196 0 -356.5 -137t-199.5 -339z" />
    <glyph glyph-name="Ugrave" unicode="&#xd9;" horiz-adv-x="1340" 
d="M1370 1400l-179 -920q-29 -147 -122.5 -262.5t-225.5 -177.5t-278 -62q-195 0 -317.5 109t-122.5 289q0 53 10 104l179 920h284l-182 -932q-5 -30 -5 -52q0 -87 56 -138.5t146 -51.5q104 0 187 67t104 175l182 932h284zM842 1850l195 -342h-262l-209 342h276z" />
    <glyph glyph-name="Uacute" unicode="&#xda;" horiz-adv-x="1340" 
d="M1370 1400l-179 -920q-29 -147 -122.5 -262.5t-225.5 -177.5t-278 -62q-195 0 -317.5 109t-122.5 289q0 53 10 104l179 920h284l-182 -932q-5 -30 -5 -52q0 -87 56 -138.5t146 -51.5q104 0 187 67t104 175l182 932h284zM692 1508l327 342h276l-341 -342h-262z" />
    <glyph glyph-name="Ucircumflex" unicode="&#xdb;" horiz-adv-x="1340" 
d="M1370 1400l-179 -920q-29 -147 -122.5 -262.5t-225.5 -177.5t-278 -62q-195 0 -317.5 109t-122.5 289q0 53 10 104l179 920h284l-182 -932q-5 -30 -5 -52q0 -87 56 -138.5t146 -51.5q104 0 187 67t104 175l182 932h284zM831 1850h196l226 -342h-260l-100 155l-160 -155
h-260z" />
    <glyph glyph-name="Udieresis" unicode="&#xdc;" horiz-adv-x="1340" 
d="M1370 1400l-179 -920q-29 -147 -122.5 -262.5t-225.5 -177.5t-278 -62q-195 0 -317.5 109t-122.5 289q0 53 10 104l179 920h284l-182 -932q-5 -30 -5 -52q0 -87 56 -138.5t146 -51.5q104 0 187 67t104 175l182 932h284zM553 1664q12 62 62.5 104t112.5 42q54 0 88 -33
t34 -84q0 -14 -3 -29q-12 -62 -63 -104t-113 -42q-54 0 -87.5 33t-33.5 84q0 14 3 29zM939 1664q12 62 62.5 104t112.5 42q54 0 88 -33t34 -84q0 -14 -3 -29q-12 -62 -63 -104t-113 -42q-54 0 -87.5 33t-33.5 84q0 14 3 29z" />
    <glyph glyph-name="Yacute" unicode="&#xdd;" horiz-adv-x="1302" 
d="M511 1400l202 -566l422 566h306l-639 -836l-109 -564h-284l109 564l-313 836h306zM674 1508l327 342h276l-341 -342h-262z" />
    <glyph glyph-name="Thorn" unicode="&#xde;" horiz-adv-x="1200" 
d="M595 244h-211l-47 -244h-284l272 1400h284l-48 -244h211q193 0 302 -96t109 -260q0 -50 -10 -100q-40 -205 -198 -330.5t-380 -125.5zM889 700q6 28 6 55q0 78 -49 122.5t-142 44.5h-188l-87 -444h188q109 0 180 59.5t92 162.5z" />
    <glyph glyph-name="germandbls" unicode="&#xdf;" horiz-adv-x="1233" 
d="M42 0l198 1022q35 178 179 290t330 112q163 0 266 -86t103 -218q0 -30 -6 -62q-19 -97 -92.5 -179t-182.5 -122q136 -20 218.5 -105.5t82.5 -207.5q0 -28 -7 -68q-33 -170 -186 -285t-346 -115q-128 0 -214 50l104 233q61 -48 140 -48q80 0 142.5 50.5t77.5 126.5
q4 20 4 42q0 91 -79.5 144t-221.5 57l44 228q91 8 156.5 57t80.5 125q3 15 3 28q0 53 -36.5 86.5t-94.5 33.5q-68 0 -121 -45.5t-67 -118.5l-199 -1025h-276z" />
    <glyph glyph-name="agrave" unicode="&#xe0;" horiz-adv-x="1315" 
d="M582 219q89 0 170.5 45t131.5 120l52 268q-21 75 -85 120t-153 45q-127 0 -229.5 -86t-127.5 -213q-6 -31 -6 -61q0 -104 68.5 -171t178.5 -67zM688 1060q196 0 303 -128l20 104h272l-201 -1036h-272l20 104q-157 -128 -353 -128q-191 0 -307 121.5t-116 307.5
q0 59 11 113q29 147 119.5 271t224 197.5t279.5 73.5zM765 1526l195 -342h-262l-209 342h276z" />
    <glyph glyph-name="aacute" unicode="&#xe1;" horiz-adv-x="1315" 
d="M582 219q89 0 170.5 45t131.5 120l52 268q-21 75 -85 120t-153 45q-127 0 -229.5 -86t-127.5 -213q-6 -31 -6 -61q0 -104 68.5 -171t178.5 -67zM688 1060q196 0 303 -128l20 104h272l-201 -1036h-272l20 104q-157 -128 -353 -128q-191 0 -307 121.5t-116 307.5
q0 59 11 113q29 147 119.5 271t224 197.5t279.5 73.5zM566 1184l327 342h276l-341 -342h-262z" />
    <glyph glyph-name="acircumflex" unicode="&#xe2;" horiz-adv-x="1315" 
d="M582 219q89 0 170.5 45t131.5 120l52 268q-21 75 -85 120t-153 45q-127 0 -229.5 -86t-127.5 -213q-6 -31 -6 -61q0 -104 68.5 -171t178.5 -67zM688 1060q196 0 303 -128l20 104h272l-201 -1036h-272l20 104q-157 -128 -353 -128q-191 0 -307 121.5t-116 307.5
q0 59 11 113q29 147 119.5 271t224 197.5t279.5 73.5zM747 1526h196l226 -342h-260l-100 155l-160 -155h-260z" />
    <glyph glyph-name="atilde" unicode="&#xe3;" horiz-adv-x="1315" 
d="M582 219q89 0 170.5 45t131.5 120l52 268q-21 75 -85 120t-153 45q-127 0 -229.5 -86t-127.5 -213q-6 -31 -6 -61q0 -104 68.5 -171t178.5 -67zM688 1060q196 0 303 -128l20 104h272l-201 -1036h-272l20 104q-157 -128 -353 -128q-191 0 -307 121.5t-116 307.5
q0 59 11 113q29 147 119.5 271t224 197.5t279.5 73.5zM783 1234q-62 38 -89 38q-42 0 -75 -75l-211 44q88 227 251 227q68 0 137 -45q62 -38 90 -38q43 0 74 75l212 -44q-88 -227 -251 -227q-67 0 -138 45z" />
    <glyph glyph-name="adieresis" unicode="&#xe4;" horiz-adv-x="1315" 
d="M582 219q89 0 170.5 45t131.5 120l52 268q-21 75 -85 120t-153 45q-127 0 -229.5 -86t-127.5 -213q-6 -31 -6 -61q0 -104 68.5 -171t178.5 -67zM688 1060q196 0 303 -128l20 104h272l-201 -1036h-272l20 104q-157 -128 -353 -128q-191 0 -307 121.5t-116 307.5
q0 59 11 113q29 147 119.5 271t224 197.5t279.5 73.5zM448 1340q12 62 62.5 104t112.5 42q54 0 88 -33t34 -84q0 -14 -3 -29q-12 -62 -63 -104t-113 -42q-54 0 -87.5 33t-33.5 84q0 14 3 29zM834 1340q12 62 62.5 104t112.5 42q54 0 88 -33t34 -84q0 -14 -3 -29
q-12 -62 -63 -104t-113 -42q-54 0 -87.5 33t-33.5 84q0 14 3 29z" />
    <glyph glyph-name="aring" unicode="&#xe5;" horiz-adv-x="1315" 
d="M582 219q89 0 170.5 45t131.5 120l52 268q-21 75 -85 120t-153 45q-127 0 -229.5 -86t-127.5 -213q-6 -31 -6 -61q0 -104 68.5 -171t178.5 -67zM688 1060q196 0 303 -128l20 104h272l-201 -1036h-272l20 104q-157 -128 -353 -128q-191 0 -307 121.5t-116 307.5
q0 59 11 113q29 147 119.5 271t224 197.5t279.5 73.5zM727 1361q-1 -5 -1 -13q0 -23 15 -38t40 -15q29 0 52 19t28 47q1 5 1 13q0 23 -15 38t-40 15q-29 0 -52 -19t-28 -47zM568 1361q18 89 94 148t173 59q85 0 137 -47t52 -120q0 -21 -4 -40q-17 -88 -93 -147.5t-173 -59.5
q-85 0 -137.5 47.5t-52.5 121.5q0 18 4 38z" />
    <glyph glyph-name="ae" unicode="&#xe6;" horiz-adv-x="2039" 
d="M1946 436h-816v-8q0 -105 69.5 -169t183.5 -64q164 0 319 129l134 -160q-209 -188 -494 -188q-139 0 -246.5 54t-162.5 145q-86 -92 -211 -145.5t-261 -53.5q-195 0 -316.5 84.5t-121.5 214.5q0 26 5 51q28 140 183 235.5t352 95.5q84 0 164 -22t136 -58l6 33q4 19 4 40
q0 84 -67.5 137.5t-180.5 53.5q-89 0 -181 -32.5t-169 -87.5l-57 191q98 70 218 109t239 39q136 0 239.5 -53.5t153.5 -146.5q91 93 214.5 146.5t254.5 53.5q205 0 327.5 -118.5t122.5 -301.5q0 -53 -10 -104q-10 -56 -31 -100zM301 327q-2 -10 -2 -17q0 -52 62 -86.5
t162 -34.5q181 0 284 111l16 84q-84 79 -247 79q-108 0 -185.5 -39t-89.5 -97zM1492 841q-97 0 -183.5 -57t-133.5 -152h538q-5 94 -63.5 151.5t-157.5 57.5z" />
    <glyph glyph-name="ccedilla" unicode="&#xe7;" horiz-adv-x="1114" 
d="M490 -308q4 13 4 22q0 27 -22 43.5t-60 16.5q-32 0 -60 -5l-37 52l118 163q-173 28 -275.5 145.5t-102.5 284.5q0 53 10 104q29 150 128 274t245 196t308 72q225 0 364 -139l-176 -205q-105 101 -234 101q-127 0 -229.5 -86.5t-127.5 -212.5q-6 -31 -6 -61
q0 -104 68.5 -171t178.5 -67q136 0 280 109l116 -192q-158 -128 -352 -153l-76 -90q65 -18 102 -62t37 -101q0 -16 -3 -34q-18 -93 -110 -154.5t-212 -61.5q-121 0 -189 62l104 118q40 -34 102 -34q39 0 68.5 18.5t38.5 47.5z" />
    <glyph glyph-name="egrave" unicode="&#xe8;" horiz-adv-x="1236" 
d="M327 436v-8q0 -105 69.5 -169t183.5 -64q164 0 319 129l134 -160q-209 -188 -494 -188q-222 0 -353.5 122t-131.5 313q0 49 11 107q29 150 126.5 274t241 196t301.5 72q205 0 328 -118.5t123 -301.5q0 -53 -10 -104q-10 -52 -32 -100h-816zM689 841q-97 0 -183.5 -57
t-133.5 -152h538q-5 94 -63.5 151.5t-157.5 57.5zM749 1526l195 -342h-262l-209 342h276z" />
    <glyph glyph-name="eacute" unicode="&#xe9;" horiz-adv-x="1236" 
d="M327 436v-8q0 -105 69.5 -169t183.5 -64q164 0 319 129l134 -160q-209 -188 -494 -188q-222 0 -353.5 122t-131.5 313q0 49 11 107q29 150 126.5 274t241 196t301.5 72q205 0 328 -118.5t123 -301.5q0 -53 -10 -104q-10 -52 -32 -100h-816zM689 841q-97 0 -183.5 -57
t-133.5 -152h538q-5 94 -63.5 151.5t-157.5 57.5zM556 1184l327 342h276l-341 -342h-262z" />
    <glyph glyph-name="ecircumflex" unicode="&#xea;" horiz-adv-x="1236" 
d="M327 436v-8q0 -105 69.5 -169t183.5 -64q164 0 319 129l134 -160q-209 -188 -494 -188q-222 0 -353.5 122t-131.5 313q0 49 11 107q29 150 126.5 274t241 196t301.5 72q205 0 328 -118.5t123 -301.5q0 -53 -10 -104q-10 -52 -32 -100h-816zM689 841q-97 0 -183.5 -57
t-133.5 -152h538q-5 94 -63.5 151.5t-157.5 57.5zM716 1526h196l226 -342h-260l-100 155l-160 -155h-260z" />
    <glyph glyph-name="edieresis" unicode="&#xeb;" horiz-adv-x="1236" 
d="M327 436v-8q0 -105 69.5 -169t183.5 -64q164 0 319 129l134 -160q-209 -188 -494 -188q-222 0 -353.5 122t-131.5 313q0 49 11 107q29 150 126.5 274t241 196t301.5 72q205 0 328 -118.5t123 -301.5q0 -53 -10 -104q-10 -52 -32 -100h-816zM689 841q-97 0 -183.5 -57
t-133.5 -152h538q-5 94 -63.5 151.5t-157.5 57.5zM438 1340q12 62 62.5 104t112.5 42q54 0 88 -33t34 -84q0 -14 -3 -29q-12 -62 -63 -104t-113 -42q-54 0 -87.5 33t-33.5 84q0 14 3 29zM824 1340q12 62 62.5 104t112.5 42q54 0 88 -33t34 -84q0 -14 -3 -29
q-12 -62 -63 -104t-113 -42q-54 0 -87.5 33t-33.5 84q0 14 3 29z" />
    <glyph glyph-name="igrave" unicode="&#xec;" horiz-adv-x="552" 
d="M38 0l201 1036h275l-201 -1036h-275zM392 1526l195 -342h-262l-209 342h276z" />
    <glyph glyph-name="iacute" unicode="&#xed;" horiz-adv-x="552" 
d="M38 0l201 1036h275l-201 -1036h-275zM225 1184l327 342h276l-341 -342h-262z" />
    <glyph glyph-name="icircumflex" unicode="&#xee;" horiz-adv-x="552" 
d="M38 0l201 1036h275l-201 -1036h-275zM373 1526h196l226 -342h-260l-100 155l-160 -155h-260z" />
    <glyph glyph-name="idieresis" unicode="&#xef;" horiz-adv-x="552" 
d="M38 0l201 1036h275l-201 -1036h-275zM96 1340q12 62 62.5 104t112.5 42q54 0 88 -33t34 -84q0 -14 -3 -29q-12 -62 -63 -104t-113 -42q-54 0 -87.5 33t-33.5 84q0 14 3 29zM482 1340q12 62 62.5 104t112.5 42q54 0 88 -33t34 -84q0 -14 -3 -29q-12 -62 -63 -104t-113 -42
q-54 0 -87.5 33t-33.5 84q0 14 3 29z" />
    <glyph glyph-name="eth" unicode="&#xf0;" horiz-adv-x="1248" 
d="M420 1014l-44 136l210 91q-70 48 -163 91l245 128q93 -45 173 -107l223 97l43 -139l-149 -65q109 -119 168 -267.5t59 -310.5q0 -82 -17 -170q-28 -145 -123 -264.5t-235.5 -188.5t-295.5 -69q-206 0 -335 117.5t-129 299.5q0 48 9 95q27 139 124 256.5t228 182.5t263 65
q111 0 181 -53q-52 112 -142 201zM336 494q-6 -31 -6 -56q0 -96 64.5 -157.5t168.5 -61.5q118 0 215 79.5t120 195.5q5 24 5 54q0 97 -64.5 159.5t-168.5 62.5q-119 0 -215 -79.5t-119 -196.5z" />
    <glyph glyph-name="ntilde" unicode="&#xf1;" horiz-adv-x="1226" 
d="M439 674l-131 -674h-275l201 1036h275l-22 -114q65 63 150 100.5t168 37.5q158 0 250 -88.5t92 -237.5q0 -39 -10 -96l-124 -638h-275l118 611q5 27 5 46q0 71 -45.5 115.5t-125.5 44.5q-63 0 -133 -42t-118 -101zM774 1234q-62 38 -89 38q-42 0 -75 -75l-211 44
q88 227 251 227q68 0 137 -45q62 -38 90 -38q43 0 74 75l212 -44q-88 -227 -251 -227q-67 0 -138 45z" />
    <glyph glyph-name="ograve" unicode="&#xf2;" horiz-adv-x="1280" 
d="M65 518q29 150 128 274t245 196t308 72q216 0 347.5 -123t131.5 -315q0 -53 -10 -104q-29 -150 -127.5 -274t-244.5 -196t-308 -72q-215 0 -347.5 123.5t-132.5 314.5q0 53 10 104zM341 518q-6 -31 -6 -61q0 -104 68.5 -171t178.5 -67q127 0 230 86t128 213q6 32 6 60
q0 104 -68.5 171.5t-179.5 67.5q-127 0 -229.5 -86.5t-127.5 -212.5zM756 1526l195 -342h-262l-209 342h276z" />
    <glyph glyph-name="oacute" unicode="&#xf3;" horiz-adv-x="1280" 
d="M65 518q29 150 128 274t245 196t308 72q216 0 347.5 -123t131.5 -315q0 -53 -10 -104q-29 -150 -127.5 -274t-244.5 -196t-308 -72q-215 0 -347.5 123.5t-132.5 314.5q0 53 10 104zM341 518q-6 -31 -6 -61q0 -104 68.5 -171t178.5 -67q127 0 230 86t128 213q6 32 6 60
q0 104 -68.5 171.5t-179.5 67.5q-127 0 -229.5 -86.5t-127.5 -212.5zM593 1184l327 342h276l-341 -342h-262z" />
    <glyph glyph-name="ocircumflex" unicode="&#xf4;" horiz-adv-x="1280" 
d="M65 518q29 150 128 274t245 196t308 72q216 0 347.5 -123t131.5 -315q0 -53 -10 -104q-29 -150 -127.5 -274t-244.5 -196t-308 -72q-215 0 -347.5 123.5t-132.5 314.5q0 53 10 104zM341 518q-6 -31 -6 -61q0 -104 68.5 -171t178.5 -67q127 0 230 86t128 213q6 32 6 60
q0 104 -68.5 171.5t-179.5 67.5q-127 0 -229.5 -86.5t-127.5 -212.5zM738 1526h196l226 -342h-260l-100 155l-160 -155h-260z" />
    <glyph glyph-name="otilde" unicode="&#xf5;" horiz-adv-x="1280" 
d="M65 518q29 150 128 274t245 196t308 72q216 0 347.5 -123t131.5 -315q0 -53 -10 -104q-29 -150 -127.5 -274t-244.5 -196t-308 -72q-215 0 -347.5 123.5t-132.5 314.5q0 53 10 104zM341 518q-6 -31 -6 -61q0 -104 68.5 -171t178.5 -67q127 0 230 86t128 213q6 32 6 60
q0 104 -68.5 171.5t-179.5 67.5q-127 0 -229.5 -86.5t-127.5 -212.5zM791 1234q-62 38 -89 38q-42 0 -75 -75l-211 44q88 227 251 227q68 0 137 -45q62 -38 90 -38q43 0 74 75l212 -44q-88 -227 -251 -227q-67 0 -138 45z" />
    <glyph glyph-name="odieresis" unicode="&#xf6;" horiz-adv-x="1280" 
d="M65 518q29 150 128 274t245 196t308 72q216 0 347.5 -123t131.5 -315q0 -53 -10 -104q-29 -150 -127.5 -274t-244.5 -196t-308 -72q-215 0 -347.5 123.5t-132.5 314.5q0 53 10 104zM341 518q-6 -31 -6 -61q0 -104 68.5 -171t178.5 -67q127 0 230 86t128 213q6 32 6 60
q0 104 -68.5 171.5t-179.5 67.5q-127 0 -229.5 -86.5t-127.5 -212.5zM460 1340q12 62 62.5 104t112.5 42q54 0 88 -33t34 -84q0 -14 -3 -29q-12 -62 -63 -104t-113 -42q-54 0 -87.5 33t-33.5 84q0 14 3 29zM846 1340q12 62 62.5 104t112.5 42q54 0 88 -33t34 -84
q0 -14 -3 -29q-12 -62 -63 -104t-113 -42q-54 0 -87.5 33t-33.5 84q0 14 3 29z" />
    <glyph glyph-name="divide" unicode="&#xf7;" horiz-adv-x="1166" 
d="M1068 545h-930v237h930v-237zM439 1054q0 69 47 116t117 47t117 -47t47 -116t-47 -116t-117 -47t-117 47t-47 116zM439 273q0 69 47 116t117 47t117 -47t47 -116t-47 -116t-117 -47t-117 47t-47 116z" />
    <glyph glyph-name="oslash" unicode="&#xf8;" horiz-adv-x="1280" 
d="M65 518q29 150 128 274t245 196t308 72q145 0 258 -61l95 97h213l-188 -192q101 -115 101 -282q0 -53 -10 -104q-29 -150 -127.5 -274t-244.5 -196t-308 -72q-148 0 -259 61l-96 -97h-213l188 192q-100 117 -100 281q0 54 10 105zM952 518q6 32 6 61q0 68 -31 124
l-463 -473q53 -24 116 -24q132 0 239 90.5t133 221.5zM328 518q-6 -33 -6 -63q0 -69 29 -122l463 472q-53 24 -113 24q-131 0 -239.5 -90t-133.5 -221z" />
    <glyph glyph-name="ugrave" unicode="&#xf9;" horiz-adv-x="1226" 
d="M788 362l131 674h275l-201 -1036h-275l22 114q-65 -63 -150 -100.5t-168 -37.5q-157 0 -249.5 88.5t-92.5 236.5q0 48 10 97l124 638h275l-119 -611q-4 -20 -4 -45q0 -72 45 -116.5t125 -44.5q63 0 133.5 42t118.5 101zM703 1526l195 -342h-262l-209 342h276z" />
    <glyph glyph-name="uacute" unicode="&#xfa;" horiz-adv-x="1226" 
d="M788 362l131 674h275l-201 -1036h-275l22 114q-65 -63 -150 -100.5t-168 -37.5q-157 0 -249.5 88.5t-92.5 236.5q0 48 10 97l124 638h275l-119 -611q-4 -20 -4 -45q0 -72 45 -116.5t125 -44.5q63 0 133.5 42t118.5 101zM560 1184l327 342h276l-341 -342h-262z" />
    <glyph glyph-name="ucircumflex" unicode="&#xfb;" horiz-adv-x="1226" 
d="M788 362l131 674h275l-201 -1036h-275l22 114q-65 -63 -150 -100.5t-168 -37.5q-157 0 -249.5 88.5t-92.5 236.5q0 48 10 97l124 638h275l-119 -611q-4 -20 -4 -45q0 -72 45 -116.5t125 -44.5q63 0 133.5 42t118.5 101zM701 1526h196l226 -342h-260l-100 155l-160 -155
h-260z" />
    <glyph glyph-name="udieresis" unicode="&#xfc;" horiz-adv-x="1226" 
d="M788 362l131 674h275l-201 -1036h-275l22 114q-65 -63 -150 -100.5t-168 -37.5q-157 0 -249.5 88.5t-92.5 236.5q0 48 10 97l124 638h275l-119 -611q-4 -20 -4 -45q0 -72 45 -116.5t125 -44.5q63 0 133.5 42t118.5 101zM423 1340q12 62 62.5 104t112.5 42q54 0 88 -33
t34 -84q0 -14 -3 -29q-12 -62 -63 -104t-113 -42q-54 0 -87.5 33t-33.5 84q0 14 3 29zM809 1340q12 62 62.5 104t112.5 42q54 0 88 -33t34 -84q0 -14 -3 -29q-12 -62 -63 -104t-113 -42q-54 0 -87.5 33t-33.5 84q0 14 3 29z" />
    <glyph glyph-name="yacute" unicode="&#xfd;" horiz-adv-x="1074" 
d="M313 -464h-287l273 464l-179 1036h286l96 -688l368 688h286zM488 1184l327 342h276l-341 -342h-262z" />
    <glyph glyph-name="thorn" unicode="&#xfe;" horiz-adv-x="1315" 
d="M617 219q127 0 229.5 86t127.5 213q6 32 6 61q0 104 -68.5 171t-178.5 67q-89 0 -170.5 -45t-131.5 -120l-52 -268q21 -75 85 -120t153 -45zM839 1060q191 0 306.5 -121.5t115.5 -307.5q0 -59 -11 -113q-29 -147 -119.5 -271t-223.5 -197.5t-279 -73.5q-198 0 -303 128
l-111 -568h-272l374 1924h272l-102 -528q155 128 353 128z" />
    <glyph glyph-name="ydieresis" unicode="&#xff;" horiz-adv-x="1074" 
d="M313 -464h-287l273 464l-179 1036h286l96 -688l368 688h286zM356 1340q12 62 62.5 104t112.5 42q54 0 88 -33t34 -84q0 -14 -3 -29q-12 -62 -63 -104t-113 -42q-54 0 -87.5 33t-33.5 84q0 14 3 29zM742 1340q12 62 62.5 104t112.5 42q54 0 88 -33t34 -84q0 -14 -3 -29
q-12 -62 -63 -104t-113 -42q-54 0 -87.5 33t-33.5 84q0 14 3 29z" />
    <glyph glyph-name="Amacron" unicode="&#x100;" horiz-adv-x="1382" 
d="M706 1400h314l229 -1400h-301l-43 315h-506l-165 -315h-301zM877 547l-73 550l-287 -550h360zM583 1556l40 206h620l-40 -206h-620z" />
    <glyph glyph-name="amacron" unicode="&#x101;" horiz-adv-x="1315" 
d="M582 219q89 0 170.5 45t131.5 120l52 268q-21 75 -85 120t-153 45q-127 0 -229.5 -86t-127.5 -213q-6 -31 -6 -61q0 -104 68.5 -171t178.5 -67zM688 1060q196 0 303 -128l20 104h272l-201 -1036h-272l20 104q-157 -128 -353 -128q-191 0 -307 121.5t-116 307.5
q0 59 11 113q29 147 119.5 271t224 197.5t279.5 73.5zM465 1232l40 206h620l-40 -206h-620z" />
    <glyph glyph-name="Abreve" unicode="&#x102;" horiz-adv-x="1382" 
d="M706 1400h314l229 -1400h-301l-43 315h-506l-165 -315h-301zM877 547l-73 550l-287 -550h360zM880 1488q-128 0 -212 74t-84 192q0 18 4 48h229q-2 -14 -2 -25q0 -46 28 -75t73 -29q52 0 94.5 37t54.5 92h229q-32 -136 -152.5 -225t-261.5 -89z" />
    <glyph glyph-name="abreve" unicode="&#x103;" horiz-adv-x="1315" 
d="M582 219q89 0 170.5 45t131.5 120l52 268q-21 75 -85 120t-153 45q-127 0 -229.5 -86t-127.5 -213q-6 -31 -6 -61q0 -104 68.5 -171t178.5 -67zM688 1060q196 0 303 -128l20 104h272l-201 -1036h-272l20 104q-157 -128 -353 -128q-191 0 -307 121.5t-116 307.5
q0 59 11 113q29 147 119.5 271t224 197.5t279.5 73.5zM762 1164q-128 0 -212 74t-84 192q0 18 4 48h229q-2 -14 -2 -25q0 -46 28 -75t73 -29q52 0 94.5 37t54.5 92h229q-32 -136 -152.5 -225t-261.5 -89z" />
    <glyph glyph-name="Aogonek" unicode="&#x104;" horiz-adv-x="1382" 
d="M1063 0h-115l-43 315h-506l-165 -315h-301l773 1400h314l229 -1400q-183 -129 -201 -220q-2 -10 -2 -18q0 -31 20.5 -49t53.5 -18q45 0 81 22l30 -128q-80 -47 -181 -47q-93 0 -152 48.5t-59 123.5q0 15 4 36q12 67 71.5 132t148.5 118zM877 547l-73 550l-287 -550h360z
" />
    <glyph glyph-name="aogonek" unicode="&#x105;" horiz-adv-x="1315" 
d="M896 0h-86l20 104q-157 -128 -353 -128q-191 0 -307 121.5t-116 307.5q0 59 11 113q29 147 119.5 271t224 197.5t279.5 73.5q196 0 303 -128l20 104h272l-201 -1036q-183 -129 -201 -220q-2 -10 -2 -18q0 -31 20.5 -49t53.5 -18q45 0 81 22l30 -128q-80 -47 -181 -47
q-93 0 -152 48.5t-59 123.5q0 15 4 36q12 67 71.5 132t148.5 118zM582 219q89 0 170.5 45t131.5 120l52 268q-21 75 -85 120t-153 45q-127 0 -229.5 -86t-127.5 -213q-6 -31 -6 -61q0 -104 68.5 -171t178.5 -67z" />
    <glyph glyph-name="Cacute" unicode="&#x106;" horiz-adv-x="1390" 
d="M723 -24q-278 0 -451 163.5t-173 418.5q0 73 14 142q39 201 169.5 367t321.5 261.5t400 95.5q271 0 449 -162l-184 -211q-72 60 -145.5 92.5t-167.5 32.5q-128 0 -246 -62t-200.5 -171.5t-109.5 -242.5q-10 -49 -10 -99q0 -166 106 -271.5t275 -105.5q185 0 373 135
l110 -209q-245 -174 -531 -174zM780 1508l327 342h276l-341 -342h-262z" />
    <glyph glyph-name="cacute" unicode="&#x107;" horiz-adv-x="1111" 
d="M535 -24q-215 0 -347.5 123.5t-132.5 314.5q0 53 10 104q29 150 128 274t245 196t308 72q225 0 364 -139l-176 -205q-105 101 -234 101q-127 0 -229.5 -86.5t-127.5 -212.5q-6 -31 -6 -61q0 -104 68.5 -171t178.5 -67q136 0 280 109l116 -192q-197 -160 -445 -160z
M532 1184l327 342h276l-341 -342h-262z" />
    <glyph glyph-name="Ccircumflex" unicode="&#x108;" horiz-adv-x="1390" 
d="M723 -24q-278 0 -451 163.5t-173 418.5q0 73 14 142q39 201 169.5 367t321.5 261.5t400 95.5q271 0 449 -162l-184 -211q-72 60 -145.5 92.5t-167.5 32.5q-128 0 -246 -62t-200.5 -171.5t-109.5 -242.5q-10 -49 -10 -99q0 -166 106 -271.5t275 -105.5q185 0 373 135
l110 -209q-245 -174 -531 -174zM936 1850h196l226 -342h-260l-100 155l-160 -155h-260z" />
    <glyph glyph-name="ccircumflex" unicode="&#x109;" horiz-adv-x="1111" 
d="M535 -24q-215 0 -347.5 123.5t-132.5 314.5q0 53 10 104q29 150 128 274t245 196t308 72q225 0 364 -139l-176 -205q-105 101 -234 101q-127 0 -229.5 -86.5t-127.5 -212.5q-6 -31 -6 -61q0 -104 68.5 -171t178.5 -67q136 0 280 109l116 -192q-197 -160 -445 -160z
M683 1526h196l226 -342h-260l-100 155l-160 -155h-260z" />
    <glyph glyph-name="Cdotaccent" unicode="&#x10a;" horiz-adv-x="1390" 
d="M723 -24q-278 0 -451 163.5t-173 418.5q0 73 14 142q39 201 169.5 367t321.5 261.5t400 95.5q271 0 449 -162l-184 -211q-72 60 -145.5 92.5t-167.5 32.5q-128 0 -246 -62t-200.5 -171.5t-109.5 -242.5q-10 -49 -10 -99q0 -166 106 -271.5t275 -105.5q185 0 373 135
l110 -209q-245 -174 -531 -174zM847 1663q13 62 64.5 105.5t114.5 43.5q55 0 89.5 -33.5t34.5 -85.5q0 -15 -3 -30q-12 -62 -64 -105.5t-115 -43.5q-55 0 -89.5 34t-34.5 86q0 14 3 29z" />
    <glyph glyph-name="cdotaccent" unicode="&#x10b;" horiz-adv-x="1111" 
d="M535 -24q-215 0 -347.5 123.5t-132.5 314.5q0 53 10 104q29 150 128 274t245 196t308 72q225 0 364 -139l-176 -205q-105 101 -234 101q-127 0 -229.5 -86.5t-127.5 -212.5q-6 -31 -6 -61q0 -104 68.5 -171t178.5 -67q136 0 280 109l116 -192q-197 -160 -445 -160z
M615 1339q13 62 64.5 105.5t114.5 43.5q55 0 89.5 -33.5t34.5 -85.5q0 -15 -3 -30q-12 -62 -64 -105.5t-115 -43.5q-55 0 -89.5 34t-34.5 86q0 14 3 29z" />
    <glyph glyph-name="Ccaron" unicode="&#x10c;" horiz-adv-x="1390" 
d="M723 -24q-278 0 -451 163.5t-173 418.5q0 73 14 142q39 201 169.5 367t321.5 261.5t400 95.5q271 0 449 -162l-184 -211q-72 60 -145.5 92.5t-167.5 32.5q-128 0 -246 -62t-200.5 -171.5t-109.5 -242.5q-10 -49 -10 -99q0 -166 106 -271.5t275 -105.5q185 0 373 135
l110 -209q-245 -174 -531 -174zM1066 1508h-196l-226 342h260l100 -155l160 155h260z" />
    <glyph glyph-name="ccaron" unicode="&#x10d;" horiz-adv-x="1111" 
d="M535 -24q-215 0 -347.5 123.5t-132.5 314.5q0 53 10 104q29 150 128 274t245 196t308 72q225 0 364 -139l-176 -205q-105 101 -234 101q-127 0 -229.5 -86.5t-127.5 -212.5q-6 -31 -6 -61q0 -104 68.5 -171t178.5 -67q136 0 280 109l116 -192q-197 -160 -445 -160z
M811 1164h-196l-226 342h260l100 -155l160 155h260z" />
    <glyph glyph-name="Dcaron" unicode="&#x10e;" horiz-adv-x="1439" 
d="M325 1400h507q274 0 428.5 -141.5t154.5 -389.5q0 -85 -17 -169q-63 -321 -290.5 -510.5t-547.5 -189.5h-507zM773 1152h-213l-175 -904h213q195 0 332 114.5t181 337.5q13 66 13 126q0 161 -93 243.5t-258 82.5zM956 1508h-196l-226 342h260l100 -155l160 155h260z" />
    <glyph glyph-name="dcaron" unicode="&#x10f;" horiz-adv-x="1654" 
d="M582 219q89 0 170.5 45t131.5 120l52 268q-21 75 -85 120t-153 45q-127 0 -229.5 -86t-127.5 -213q-6 -31 -6 -61q0 -104 68.5 -171t178.5 -67zM688 1060q196 0 303 -128l102 528h272l-283 -1460h-272l20 104q-157 -128 -353 -128q-191 0 -307 121.5t-116 307.5
q0 59 11 113q29 147 119.5 271t224 197.5t279.5 73.5zM1456 1324q13 67 68 113.5t123 46.5q59 0 95.5 -36t36.5 -92q0 -16 -3 -32q-7 -36 -33 -75l-199 -301h-168l151 229q-74 33 -74 115q0 16 3 32z" />
    <glyph glyph-name="Dcroat" unicode="&#x110;" horiz-adv-x="1473" 
d="M359 1400h507q274 0 428.5 -141.5t154.5 -389.5q0 -85 -17 -169q-63 -321 -290.5 -510.5t-547.5 -189.5h-507l117 606h-175l37 187h175zM744 606h-256l-69 -358h213q195 0 332 114.5t181 337.5q13 66 13 126q0 161 -93 243.5t-258 82.5h-213l-69 -359h256z" />
    <glyph glyph-name="dcroat" unicode="&#x111;" horiz-adv-x="1339" 
d="M735 1152l33 167h298l27 141h272l-27 -141h137l-33 -167h-137l-223 -1152h-272l20 104q-157 -128 -353 -128q-191 0 -307 121.5t-116 307.5q0 59 11 113q29 147 119.5 271t224 197.5t279.5 73.5q196 0 303 -128l42 220h-298zM582 219q89 0 170.5 45t131.5 120l52 268
q-21 75 -85 120t-153 45q-127 0 -229.5 -86t-127.5 -213q-6 -31 -6 -61q0 -104 68.5 -171t178.5 -67z" />
    <glyph glyph-name="Emacron" unicode="&#x112;" horiz-adv-x="1146" 
d="M53 0l272 1400h872l-47 -242h-588l-65 -334h540l-47 -240h-540l-66 -342h606l-47 -242h-890zM479 1556l40 206h620l-40 -206h-620z" />
    <glyph glyph-name="emacron" unicode="&#x113;" horiz-adv-x="1236" 
d="M327 436v-8q0 -105 69.5 -169t183.5 -64q164 0 319 129l134 -160q-209 -188 -494 -188q-222 0 -353.5 122t-131.5 313q0 49 11 107q29 150 126.5 274t241 196t301.5 72q205 0 328 -118.5t123 -301.5q0 -53 -10 -104q-10 -52 -32 -100h-816zM689 841q-97 0 -183.5 -57
t-133.5 -152h538q-5 94 -63.5 151.5t-157.5 57.5zM447 1232l40 206h620l-40 -206h-620z" />
    <glyph glyph-name="Ebreve" unicode="&#x114;" horiz-adv-x="1146" 
d="M53 0l272 1400h872l-47 -242h-588l-65 -334h540l-47 -240h-540l-66 -342h606l-47 -242h-890zM777 1488q-128 0 -212 74t-84 192q0 18 4 48h229q-2 -14 -2 -25q0 -46 28 -75t73 -29q52 0 94.5 37t54.5 92h229q-32 -136 -152.5 -225t-261.5 -89z" />
    <glyph glyph-name="ebreve" unicode="&#x115;" horiz-adv-x="1236" 
d="M327 436v-8q0 -105 69.5 -169t183.5 -64q164 0 319 129l134 -160q-209 -188 -494 -188q-222 0 -353.5 122t-131.5 313q0 49 11 107q29 150 126.5 274t241 196t301.5 72q205 0 328 -118.5t123 -301.5q0 -53 -10 -104q-10 -52 -32 -100h-816zM689 841q-97 0 -183.5 -57
t-133.5 -152h538q-5 94 -63.5 151.5t-157.5 57.5zM744 1164q-128 0 -212 74t-84 192q0 18 4 48h229q-2 -14 -2 -25q0 -46 28 -75t73 -29q52 0 94.5 37t54.5 92h229q-32 -136 -152.5 -225t-261.5 -89z" />
    <glyph glyph-name="Edotaccent" unicode="&#x116;" horiz-adv-x="1146" 
d="M53 0l272 1400h872l-47 -242h-588l-65 -334h540l-47 -240h-540l-66 -342h606l-47 -242h-890zM670 1663q13 62 64.5 105.5t114.5 43.5q55 0 89.5 -33.5t34.5 -85.5q0 -15 -3 -30q-12 -62 -64 -105.5t-115 -43.5q-55 0 -89.5 34t-34.5 86q0 14 3 29z" />
    <glyph glyph-name="edotaccent" unicode="&#x117;" horiz-adv-x="1236" 
d="M327 436v-8q0 -105 69.5 -169t183.5 -64q164 0 319 129l134 -160q-209 -188 -494 -188q-222 0 -353.5 122t-131.5 313q0 49 11 107q29 150 126.5 274t241 196t301.5 72q205 0 328 -118.5t123 -301.5q0 -53 -10 -104q-10 -52 -32 -100h-816zM689 841q-97 0 -183.5 -57
t-133.5 -152h538q-5 94 -63.5 151.5t-157.5 57.5zM628 1339q13 62 64.5 105.5t114.5 43.5q55 0 89.5 -33.5t34.5 -85.5q0 -15 -3 -30q-12 -62 -64 -105.5t-115 -43.5q-55 0 -89.5 34t-34.5 86q0 14 3 29z" />
    <glyph glyph-name="Eogonek" unicode="&#x118;" horiz-adv-x="1146" 
d="M53 0l272 1400h872l-47 -242h-588l-65 -334h540l-47 -240h-540l-66 -342h606l-47 -242h-174q-183 -129 -201 -220q-2 -10 -2 -18q0 -31 20.5 -49t53.5 -18q45 0 81 22l30 -128q-80 -47 -181 -47q-93 0 -152 48.5t-59 123.5q0 15 4 36q12 67 71.5 132t148.5 118h-530z" />
    <glyph glyph-name="eogonek" unicode="&#x119;" horiz-adv-x="1236" 
d="M327 436v-8q0 -105 69.5 -169t183.5 -64q164 0 319 129l134 -160q-170 -153 -395 -181q-158 -115 -175 -203q-2 -10 -2 -18q0 -31 20.5 -49t53.5 -18q45 0 81 22l30 -128q-80 -47 -181 -47q-93 0 -152 48.5t-59 123.5q0 15 4 36q11 61 62 121.5t129 110.5
q-184 24 -289.5 141.5t-105.5 287.5q0 49 11 107q29 150 126.5 274t241 196t301.5 72q205 0 328 -118.5t123 -301.5q0 -53 -10 -104q-10 -52 -32 -100h-816zM689 841q-97 0 -183.5 -57t-133.5 -152h538q-5 94 -63.5 151.5t-157.5 57.5z" />
    <glyph glyph-name="Ecaron" unicode="&#x11a;" horiz-adv-x="1146" 
d="M53 0l272 1400h872l-47 -242h-588l-65 -334h540l-47 -240h-540l-66 -342h606l-47 -242h-890zM880 1508h-196l-226 342h260l100 -155l160 155h260z" />
    <glyph glyph-name="ecaron" unicode="&#x11b;" horiz-adv-x="1236" 
d="M327 436v-8q0 -105 69.5 -169t183.5 -64q164 0 319 129l134 -160q-209 -188 -494 -188q-222 0 -353.5 122t-131.5 313q0 49 11 107q29 150 126.5 274t241 196t301.5 72q205 0 328 -118.5t123 -301.5q0 -53 -10 -104q-10 -52 -32 -100h-816zM689 841q-97 0 -183.5 -57
t-133.5 -152h538q-5 94 -63.5 151.5t-157.5 57.5zM842 1164h-196l-226 342h260l100 -155l160 155h260z" />
    <glyph glyph-name="Gcircumflex" unicode="&#x11c;" horiz-adv-x="1458" 
d="M956 1176q-196 0 -356.5 -137.5t-200.5 -341.5q-10 -49 -10 -98q0 -167 106 -273.5t275 -106.5q126 0 231 58l53 269h-307l44 229h591l-120 -618q-116 -86 -255.5 -133.5t-283.5 -47.5q-278 0 -451 163.5t-173 418.5q0 73 14 142q39 201 169.5 367t321.5 261.5t400 95.5
q271 0 449 -162l-184 -211q-72 60 -145.5 92.5t-167.5 32.5zM936 1850h196l226 -342h-260l-100 155l-160 -155h-260z" />
    <glyph glyph-name="gcircumflex" unicode="&#x11d;" horiz-adv-x="1315" 
d="M884 384l52 268q-21 75 -85 120t-153 45q-127 0 -229.5 -86t-127.5 -213q-6 -31 -6 -61q0 -104 68.5 -171t178.5 -67q89 0 170.5 45t131.5 120zM991 932l20 104h272l-190 -975q-46 -238 -219 -381.5t-434 -143.5q-147 0 -265 52.5t-189 146.5l193 181q117 -145 295 -145
q133 0 226 72.5t118 199.5l13 68q-154 -128 -353 -128q-192 0 -308 120t-116 305q0 50 11 110q29 147 119.5 271t224 197.5t279.5 73.5q196 0 303 -128zM747 1526h196l226 -342h-260l-100 155l-160 -155h-260z" />
    <glyph glyph-name="Gbreve" unicode="&#x11e;" horiz-adv-x="1458" 
d="M956 1176q-196 0 -356.5 -137.5t-200.5 -341.5q-10 -49 -10 -98q0 -167 106 -273.5t275 -106.5q126 0 231 58l53 269h-307l44 229h591l-120 -618q-116 -86 -255.5 -133.5t-283.5 -47.5q-278 0 -451 163.5t-173 418.5q0 73 14 142q39 201 169.5 367t321.5 261.5t400 95.5
q271 0 449 -162l-184 -211q-72 60 -145.5 92.5t-167.5 32.5zM964 1488q-128 0 -212 74t-84 192q0 18 4 48h229q-2 -14 -2 -25q0 -46 28 -75t73 -29q52 0 94.5 37t54.5 92h229q-32 -136 -152.5 -225t-261.5 -89z" />
    <glyph glyph-name="gbreve" unicode="&#x11f;" horiz-adv-x="1315" 
d="M884 384l52 268q-21 75 -85 120t-153 45q-127 0 -229.5 -86t-127.5 -213q-6 -31 -6 -61q0 -104 68.5 -171t178.5 -67q89 0 170.5 45t131.5 120zM991 932l20 104h272l-190 -975q-46 -238 -219 -381.5t-434 -143.5q-147 0 -265 52.5t-189 146.5l193 181q117 -145 295 -145
q133 0 226 72.5t118 199.5l13 68q-154 -128 -353 -128q-192 0 -308 120t-116 305q0 50 11 110q29 147 119.5 271t224 197.5t279.5 73.5q196 0 303 -128zM762 1164q-128 0 -212 74t-84 192q0 18 4 48h229q-2 -14 -2 -25q0 -46 28 -75t73 -29q52 0 94.5 37t54.5 92h229
q-32 -136 -152.5 -225t-261.5 -89z" />
    <glyph glyph-name="Gdotaccent" unicode="&#x120;" horiz-adv-x="1458" 
d="M956 1176q-196 0 -356.5 -137.5t-200.5 -341.5q-10 -49 -10 -98q0 -167 106 -273.5t275 -106.5q126 0 231 58l53 269h-307l44 229h591l-120 -618q-116 -86 -255.5 -133.5t-283.5 -47.5q-278 0 -451 163.5t-173 418.5q0 73 14 142q39 201 169.5 367t321.5 261.5t400 95.5
q271 0 449 -162l-184 -211q-72 60 -145.5 92.5t-167.5 32.5zM847 1663q13 62 64.5 105.5t114.5 43.5q55 0 89.5 -33.5t34.5 -85.5q0 -15 -3 -30q-12 -62 -64 -105.5t-115 -43.5q-55 0 -89.5 34t-34.5 86q0 14 3 29z" />
    <glyph glyph-name="gdotaccent" unicode="&#x121;" horiz-adv-x="1315" 
d="M884 384l52 268q-21 75 -85 120t-153 45q-127 0 -229.5 -86t-127.5 -213q-6 -31 -6 -61q0 -104 68.5 -171t178.5 -67q89 0 170.5 45t131.5 120zM991 932l20 104h272l-190 -975q-46 -238 -219 -381.5t-434 -143.5q-147 0 -265 52.5t-189 146.5l193 181q117 -145 295 -145
q133 0 226 72.5t118 199.5l13 68q-154 -128 -353 -128q-192 0 -308 120t-116 305q0 50 11 110q29 147 119.5 271t224 197.5t279.5 73.5q196 0 303 -128zM638 1339q13 62 64.5 105.5t114.5 43.5q55 0 89.5 -33.5t34.5 -85.5q0 -15 -3 -30q-12 -62 -64 -105.5t-115 -43.5
q-55 0 -89.5 34t-34.5 86q0 14 3 29z" />
    <glyph glyph-name="Gcommaaccent" unicode="&#x122;" horiz-adv-x="1458" 
d="M956 1176q-196 0 -356.5 -137.5t-200.5 -341.5q-10 -49 -10 -98q0 -167 106 -273.5t275 -106.5q126 0 231 58l53 269h-307l44 229h591l-120 -618q-116 -86 -255.5 -133.5t-283.5 -47.5q-278 0 -451 163.5t-173 418.5q0 73 14 142q39 201 169.5 367t321.5 261.5t400 95.5
q271 0 449 -162l-184 -211q-72 60 -145.5 92.5t-167.5 32.5zM593 -470h-248l222 342h281z" />
    <glyph glyph-name="gcommaaccent" unicode="&#x123;" horiz-adv-x="1315" 
d="M884 384l52 268q-21 75 -85 120t-153 45q-127 0 -229.5 -86t-127.5 -213q-6 -31 -6 -61q0 -104 68.5 -171t178.5 -67q89 0 170.5 45t131.5 120zM991 932l20 104h272l-190 -975q-46 -238 -219 -381.5t-434 -143.5q-147 0 -265 52.5t-189 146.5l193 181q117 -145 295 -145
q133 0 226 72.5t118 199.5l13 68q-154 -128 -353 -128q-192 0 -308 120t-116 305q0 50 11 110q29 147 119.5 271t224 197.5t279.5 73.5q196 0 303 -128zM857 1514h248l-222 -342h-281z" />
    <glyph glyph-name="Hcircumflex" unicode="&#x124;" horiz-adv-x="1414" 
d="M53 0l272 1400h284l-112 -574h540l112 574h284l-272 -1400h-284l112 581h-540l-112 -581h-284zM868 1850h196l226 -342h-260l-100 155l-160 -155h-260z" />
    <glyph glyph-name="hcircumflex" unicode="&#x125;" horiz-adv-x="1226" 
d="M439 674l-131 -674h-275l283 1460h275l-104 -538q65 63 150 100.5t168 37.5q158 0 250 -88.5t92 -237.5q0 -39 -10 -96l-124 -638h-275l118 611q5 27 5 46q0 71 -45.5 115.5t-125.5 44.5q-63 0 -133 -42t-118 -101zM442 1910h196l226 -342h-260l-100 155l-160 -155h-260z
" />
    <glyph glyph-name="Hbar" unicode="&#x126;" horiz-adv-x="1432" 
d="M62 0l199 1027h-120l36 184h120l37 189h284l-37 -189h540l37 189h284l-37 -189h120l-36 -184h-120l-199 -1027h-284l113 584h-540l-113 -584h-284zM506 824h540l39 203h-540z" />
    <glyph glyph-name="hbar" unicode="&#x127;" horiz-adv-x="1248" 
d="M143 1152l33 167h135l27 141h275l-27 -141h297l-33 -167h-297l-44 -230q65 63 150 100.5t168 37.5q158 0 250 -88.5t92 -237.5q0 -39 -10 -96l-124 -638h-275l118 611q5 27 5 46q0 71 -45.5 115.5t-125.5 44.5q-63 0 -133 -42t-118 -101l-131 -674h-275l223 1152h-135z
" />
    <glyph glyph-name="Itilde" unicode="&#x128;" horiz-adv-x="606" 
d="M333 1400h284l-272 -1400h-284zM517 1560q-62 38 -89 38q-42 0 -75 -75l-211 44q88 227 251 227q68 0 137 -45q62 -38 90 -38q43 0 74 75l212 -44q-88 -227 -251 -227q-67 0 -138 45z" />
    <glyph glyph-name="itilde" unicode="&#x129;" horiz-adv-x="552" 
d="M38 0l201 1036h275l-201 -1036h-275zM427 1234q-62 38 -89 38q-42 0 -75 -75l-211 44q88 227 251 227q68 0 137 -45q62 -38 90 -38q43 0 74 75l212 -44q-88 -227 -251 -227q-67 0 -138 45z" />
    <glyph glyph-name="Imacron" unicode="&#x12a;" horiz-adv-x="606" 
d="M333 1400h284l-272 -1400h-284zM195 1556l40 206h620l-40 -206h-620z" />
    <glyph glyph-name="imacron" unicode="&#x12b;" horiz-adv-x="552" 
d="M38 0l201 1036h275l-201 -1036h-275zM105 1232l40 206h620l-40 -206h-620z" />
    <glyph glyph-name="Ibreve" unicode="&#x12c;" horiz-adv-x="606" 
d="M333 1400h284l-272 -1400h-284zM492 1488q-128 0 -212 74t-84 192q0 18 4 48h229q-2 -14 -2 -25q0 -46 28 -75t73 -29q52 0 94.5 37t54.5 92h229q-32 -136 -152.5 -225t-261.5 -89z" />
    <glyph glyph-name="ibreve" unicode="&#x12d;" horiz-adv-x="552" 
d="M38 0l201 1036h275l-201 -1036h-275zM402 1164q-128 0 -212 74t-84 192q0 18 4 48h229q-2 -14 -2 -25q0 -46 28 -75t73 -29q52 0 94.5 37t54.5 92h229q-32 -136 -152.5 -225t-261.5 -89z" />
    <glyph glyph-name="Iogonek" unicode="&#x12e;" horiz-adv-x="606" 
d="M159 0h-98l272 1400h284l-272 -1400q-183 -129 -201 -220q-2 -10 -2 -18q0 -31 20.5 -49t53.5 -18q45 0 81 22l30 -128q-80 -47 -181 -47q-93 0 -152 48.5t-59 123.5q0 15 4 36q12 67 71.5 132t148.5 118z" />
    <glyph glyph-name="iogonek" unicode="&#x12f;" horiz-adv-x="552" 
d="M38 0l201 1036h275l-201 -1036q-183 -129 -201 -220q-2 -10 -2 -18q0 -31 20.5 -49t53.5 -18q45 0 81 22l30 -128q-80 -47 -181 -47q-93 0 -152 48.5t-59 123.5q0 15 4 36q12 67 71.5 132t148.5 118h-89zM268 1312q13 67 68.5 113t124.5 46q61 0 98.5 -36t37.5 -92
q0 -15 -3 -31q-14 -68 -69.5 -113.5t-124.5 -45.5q-60 0 -97.5 35.5t-37.5 91.5q0 16 3 32z" />
    <glyph glyph-name="Idotaccent" unicode="&#x130;" horiz-adv-x="606" 
d="M333 1400h284l-272 -1400h-284zM376 1663q13 62 64.5 105.5t114.5 43.5q55 0 89.5 -33.5t34.5 -85.5q0 -15 -3 -30q-12 -62 -64 -105.5t-115 -43.5q-55 0 -89.5 34t-34.5 86q0 14 3 29z" />
    <glyph glyph-name="dotlessi" unicode="&#x131;" horiz-adv-x="552" 
d="M38 0l201 1036h275l-201 -1036h-275z" />
    <glyph glyph-name="IJ" unicode="&#x132;" horiz-adv-x="1496" 
d="M333 1400h284l-272 -1400h-284zM1058 456l184 944h284l-186 -954q-46 -236 -186 -353t-364 -117q-79 0 -155.5 18.5t-127.5 51.5l128 234q81 -56 179 -56q198 0 244 232z" />
    <glyph glyph-name="ij" unicode="&#x133;" horiz-adv-x="1104" 
d="M38 0l201 1036h275l-201 -1036h-275zM268 1312q13 67 68.5 113t124.5 46q61 0 98.5 -36t37.5 -92q0 -15 -3 -31q-14 -68 -69.5 -113.5t-124.5 -45.5q-60 0 -97.5 35.5t-37.5 91.5q0 16 3 32zM572 -90l219 1126h275l-222 -1140q-36 -184 -140.5 -272t-282.5 -88
q-57 0 -95 7l45 232h53q63 0 98.5 31t49.5 104zM820 1312q13 67 68.5 113t124.5 46q61 0 98.5 -36t37.5 -92q0 -15 -3 -31q-14 -68 -69.5 -113.5t-124.5 -45.5q-60 0 -97.5 35.5t-37.5 91.5q0 16 3 32z" />
    <glyph glyph-name="Jcircumflex" unicode="&#x134;" horiz-adv-x="930" 
d="M492 456l184 944h284l-186 -954q-46 -236 -186 -353t-364 -117q-79 0 -155.5 18.5t-127.5 51.5l128 234q81 -56 179 -56q198 0 244 232zM807 1850h196l226 -342h-260l-100 155l-160 -155h-260z" />
    <glyph glyph-name="jcircumflex" unicode="&#x135;" horiz-adv-x="552" 
d="M20 -90l219 1126h275l-222 -1140q-36 -184 -140.5 -272t-282.5 -88q-57 0 -95 7l45 232h53q63 0 98.5 31t49.5 104zM374 1526h196l226 -342h-260l-100 155l-160 -155h-260z" />
    <glyph glyph-name="Kcommaaccent" unicode="&#x136;" horiz-adv-x="1239" 
d="M609 1400l-111 -571h80l463 571h313l-563 -690l368 -710h-319l-302 584h-88l-113 -584h-284l272 1400h284zM441 -470h-248l222 342h281z" />
    <glyph glyph-name="kcommaaccent" unicode="&#x137;" horiz-adv-x="1073" 
d="M664 0l-183 453h-85l-88 -453h-275l283 1460h275l-150 -771h89l285 347h310l-395 -466l239 -570h-305zM326 -470h-248l222 342h281z" />
    <glyph glyph-name="kgreenlandic" unicode="&#x138;" horiz-adv-x="1073" 
d="M664 0l-183 453h-85l-88 -453h-275l201 1036h275l-68 -347h89l285 347h310l-395 -466l239 -570h-305z" />
    <glyph glyph-name="Lacute" unicode="&#x139;" horiz-adv-x="1038" 
d="M53 0l272 1400h284l-225 -1155h566l-47 -245h-850zM347 1508l327 342h276l-341 -342h-262z" />
    <glyph glyph-name="lacute" unicode="&#x13a;" horiz-adv-x="552" 
d="M38 0l283 1460h275l-283 -1460h-275zM292 1568l327 342h276l-341 -342h-262z" />
    <glyph glyph-name="Lcommaaccent" unicode="&#x13b;" horiz-adv-x="1038" 
d="M53 0l272 1400h284l-225 -1155h566l-47 -245h-850zM371 -470h-248l222 342h281z" />
    <glyph glyph-name="lcommaaccent" unicode="&#x13c;" horiz-adv-x="552" 
d="M38 0l283 1460h275l-283 -1460h-275zM60 -470h-248l222 342h281z" />
    <glyph glyph-name="Lcaron" unicode="&#x13d;" horiz-adv-x="1038" 
d="M53 0l272 1400h284l-225 -1155h566l-47 -245h-850zM775 1264q13 67 68 113.5t123 46.5q59 0 95.5 -36t36.5 -92q0 -16 -3 -32q-7 -36 -33 -75l-199 -301h-168l151 229q-74 33 -74 115q0 16 3 32z" />
    <glyph glyph-name="lcaron" unicode="&#x13e;" horiz-adv-x="885" 
d="M38 0l283 1460h275l-283 -1460h-275zM687 1324q13 67 68 113.5t123 46.5q59 0 95.5 -36t36.5 -92q0 -16 -3 -32q-7 -36 -33 -75l-199 -301h-168l151 229q-74 33 -74 115q0 16 3 32z" />
    <glyph glyph-name="Ldot" unicode="&#x13f;" horiz-adv-x="1038" 
d="M53 0l272 1400h284l-225 -1155h566l-47 -245h-850zM659 761q13 62 64.5 105.5t114.5 43.5q55 0 89.5 -33.5t34.5 -85.5q0 -15 -3 -30q-12 -62 -64 -105.5t-115 -43.5q-55 0 -89.5 34t-34.5 86q0 14 3 29z" />
    <glyph glyph-name="ldot" unicode="&#x140;" horiz-adv-x="869" 
d="M38 0l283 1460h275l-283 -1460h-275zM576 751q13 62 64.5 105.5t114.5 43.5q55 0 89.5 -33.5t34.5 -85.5q0 -15 -3 -30q-12 -62 -64 -105.5t-115 -43.5q-55 0 -89.5 34t-34.5 86q0 14 3 29z" />
    <glyph glyph-name="Lslash" unicode="&#x141;" horiz-adv-x="1066" 
d="M81 0l99 512l-153 -71l40 206l153 71l133 682h284l-105 -536l359 167l-40 -206l-359 -167l-80 -413h566l-47 -245h-850z" />
    <glyph glyph-name="lslash" unicode="&#x142;" horiz-adv-x="619" 
d="M72 0l115 596l-166 -75l37 192l167 75l130 672h275l-104 -536l167 75l-38 -192l-166 -75l-142 -732h-275z" />
    <glyph glyph-name="Nacute" unicode="&#x143;" horiz-adv-x="1414" 
d="M53 0l272 1400h288l369 -942l183 942h268l-272 -1400h-288l-369 942l-183 -942h-268zM717 1508l327 342h276l-341 -342h-262z" />
    <glyph glyph-name="nacute" unicode="&#x144;" horiz-adv-x="1226" 
d="M439 674l-131 -674h-275l201 1036h275l-22 -114q65 63 150 100.5t168 37.5q158 0 250 -88.5t92 -237.5q0 -39 -10 -96l-124 -638h-275l118 611q5 27 5 46q0 71 -45.5 115.5t-125.5 44.5q-63 0 -133 -42t-118 -101zM568 1184l327 342h276l-341 -342h-262z" />
    <glyph glyph-name="Ncommaaccent" unicode="&#x145;" horiz-adv-x="1415" 
d="M53 0l272 1400h288l369 -942l183 942h268l-272 -1400h-288l-369 942l-183 -942h-268zM509 -470h-248l222 342h281z" />
    <glyph glyph-name="ncommaaccent" unicode="&#x146;" horiz-adv-x="1226" 
d="M439 674l-131 -674h-275l201 1036h275l-22 -114q65 63 150 100.5t168 37.5q158 0 250 -88.5t92 -237.5q0 -39 -10 -96l-124 -638h-275l118 611q5 27 5 46q0 71 -45.5 115.5t-125.5 44.5q-63 0 -133 -42t-118 -101zM417 -470h-248l222 342h281z" />
    <glyph glyph-name="Ncaron" unicode="&#x147;" horiz-adv-x="1415" 
d="M53 0l272 1400h288l369 -942l183 942h268l-272 -1400h-288l-369 942l-183 -942h-268zM998 1508h-196l-226 342h260l100 -155l160 155h260z" />
    <glyph glyph-name="ncaron" unicode="&#x148;" horiz-adv-x="1226" 
d="M439 674l-131 -674h-275l201 1036h275l-22 -114q65 63 150 100.5t168 37.5q158 0 250 -88.5t92 -237.5q0 -39 -10 -96l-124 -638h-275l118 611q5 27 5 46q0 71 -45.5 115.5t-125.5 44.5q-63 0 -133 -42t-118 -101zM831 1164h-196l-226 342h260l100 -155l160 155h260z" />
    <glyph glyph-name="napostrophe" unicode="&#x149;" horiz-adv-x="1456" 
d="M669 674l-131 -674h-275l201 1036h275l-22 -114q65 63 150 100.5t168 37.5q158 0 250 -88.5t92 -237.5q0 -39 -10 -96l-124 -638h-275l118 611q5 27 5 46q0 71 -45.5 115.5t-125.5 44.5q-63 0 -133 -42t-118 -101zM207 1324q13 67 68 113.5t123 46.5q59 0 95.5 -36
t36.5 -92q0 -16 -3 -32q-7 -36 -33 -75l-199 -301h-168l151 229q-74 33 -74 115q0 16 3 32z" />
    <glyph glyph-name="Eng" unicode="&#x14a;" horiz-adv-x="1414" 
d="M874 -96l19 101l-388 942l-184 -947h-268l272 1400h272l386 -935l182 935h268l-292 -1500q-70 -364 -477 -364q-65 0 -112 10l43 219q43 -5 93 -5q84 0 128 35t58 109z" />
    <glyph glyph-name="eng" unicode="&#x14b;" horiz-adv-x="1226" 
d="M1137 638l-144 -737q-72 -365 -478 -365q-57 0 -117 10l43 219q42 -5 91 -5q158 0 187 144l137 707q5 27 5 46q0 71 -45.5 115.5t-125.5 44.5q-63 0 -133 -42t-118 -101l-131 -674h-275l201 1036h275l-22 -114q65 63 150 100.5t168 37.5q158 0 250 -88.5t92 -237.5
q0 -39 -10 -96z" />
    <glyph glyph-name="Omacron" unicode="&#x14c;" horiz-adv-x="1656" 
d="M400 700q-10 -49 -10 -99q0 -166 106 -271.5t275 -105.5q196 0 356.5 137t199.5 339q11 53 11 98q0 166 -106 272t-276 106q-196 0 -356.5 -137t-199.5 -339zM113 700q39 201 169.5 367t321.5 261.5t400 95.5q279 0 452 -163.5t173 -419.5q0 -66 -14 -141
q-39 -201 -170 -367t-322 -261.5t-400 -95.5q-278 0 -451 163.5t-173 418.5q0 73 14 142zM720 1556l40 206h620l-40 -206h-620z" />
    <glyph glyph-name="omacron" unicode="&#x14d;" horiz-adv-x="1280" 
d="M65 518q29 150 128 274t245 196t308 72q216 0 347.5 -123t131.5 -315q0 -53 -10 -104q-29 -150 -127.5 -274t-244.5 -196t-308 -72q-215 0 -347.5 123.5t-132.5 314.5q0 53 10 104zM341 518q-6 -31 -6 -61q0 -104 68.5 -171t178.5 -67q127 0 230 86t128 213q6 32 6 60
q0 104 -68.5 171.5t-179.5 67.5q-127 0 -229.5 -86.5t-127.5 -212.5zM469 1232l40 206h620l-40 -206h-620z" />
    <glyph glyph-name="Obreve" unicode="&#x14e;" horiz-adv-x="1656" 
d="M400 700q-10 -49 -10 -99q0 -166 106 -271.5t275 -105.5q196 0 356.5 137t199.5 339q11 53 11 98q0 166 -106 272t-276 106q-196 0 -356.5 -137t-199.5 -339zM113 700q39 201 169.5 367t321.5 261.5t400 95.5q279 0 452 -163.5t173 -419.5q0 -66 -14 -141
q-39 -201 -170 -367t-322 -261.5t-400 -95.5q-278 0 -451 163.5t-173 418.5q0 73 14 142zM1017 1488q-128 0 -212 74t-84 192q0 18 4 48h229q-2 -14 -2 -25q0 -46 28 -75t73 -29q52 0 94.5 37t54.5 92h229q-32 -136 -152.5 -225t-261.5 -89z" />
    <glyph glyph-name="obreve" unicode="&#x14f;" horiz-adv-x="1280" 
d="M65 518q29 150 128 274t245 196t308 72q216 0 347.5 -123t131.5 -315q0 -53 -10 -104q-29 -150 -127.5 -274t-244.5 -196t-308 -72q-215 0 -347.5 123.5t-132.5 314.5q0 53 10 104zM341 518q-6 -31 -6 -61q0 -104 68.5 -171t178.5 -67q127 0 230 86t128 213q6 32 6 60
q0 104 -68.5 171.5t-179.5 67.5q-127 0 -229.5 -86.5t-127.5 -212.5zM766 1164q-128 0 -212 74t-84 192q0 18 4 48h229q-2 -14 -2 -25q0 -46 28 -75t73 -29q52 0 94.5 37t54.5 92h229q-32 -136 -152.5 -225t-261.5 -89z" />
    <glyph glyph-name="Ohungarumlaut" unicode="&#x150;" horiz-adv-x="1656" 
d="M400 700q-10 -49 -10 -99q0 -166 106 -271.5t275 -105.5q196 0 356.5 137t199.5 339q11 53 11 98q0 166 -106 272t-276 106q-196 0 -356.5 -137t-199.5 -339zM113 700q39 201 169.5 367t321.5 261.5t400 95.5q279 0 452 -163.5t173 -419.5q0 -66 -14 -141
q-39 -201 -170 -367t-322 -261.5t-400 -95.5q-278 0 -451 163.5t-173 418.5q0 73 14 142zM687 1508l327 342h258l-338 -342h-247zM1036 1508l327 342h258l-338 -342h-247z" />
    <glyph glyph-name="ohungarumlaut" unicode="&#x151;" horiz-adv-x="1280" 
d="M65 518q29 150 128 274t245 196t308 72q216 0 347.5 -123t131.5 -315q0 -53 -10 -104q-29 -150 -127.5 -274t-244.5 -196t-308 -72q-215 0 -347.5 123.5t-132.5 314.5q0 53 10 104zM341 518q-6 -31 -6 -61q0 -104 68.5 -171t178.5 -67q127 0 230 86t128 213q6 32 6 60
q0 104 -68.5 171.5t-179.5 67.5q-127 0 -229.5 -86.5t-127.5 -212.5zM418 1184l327 342h258l-338 -342h-247zM767 1184l327 342h258l-338 -342h-247z" />
    <glyph glyph-name="OE" unicode="&#x152;" horiz-adv-x="1818" 
d="M776 247h15l176 906h-15q-129 0 -247 -59t-199.5 -163t-106.5 -231q-9 -48 -9 -91q0 -160 107 -261t279 -101zM1615 0h-887q-277 0 -452.5 160.5t-175.5 408.5q0 66 13 131q37 194 168 355t321.5 253t397.5 92h869l-47 -242h-573l-65 -334h525l-47 -240h-525l-66 -342
h591z" />
    <glyph glyph-name="oe" unicode="&#x153;" horiz-adv-x="2151" 
d="M65 518q29 150 128 274t245 196t308 72q140 0 248.5 -63.5t162.5 -168.5q90 103 222.5 167.5t269.5 64.5q205 0 328 -118.5t123 -301.5q0 -53 -10 -104q-10 -53 -32 -100h-817v-6q0 -106 69.5 -170.5t184.5 -64.5q164 0 319 129l134 -160q-209 -188 -494 -188
q-148 0 -258 63t-161 167q-95 -105 -227.5 -167.5t-272.5 -62.5q-215 0 -347.5 123.5t-132.5 314.5q0 53 10 104zM341 518q-6 -31 -6 -61q0 -104 68.5 -171t178.5 -67q127 0 230 86t128 213q6 32 6 60q0 104 -68.5 171.5t-179.5 67.5q-127 0 -229.5 -86.5t-127.5 -212.5z
M1604 841q-98 0 -184.5 -57.5t-132.5 -151.5h538q-5 94 -63.5 151.5t-157.5 57.5z" />
    <glyph glyph-name="Racute" unicode="&#x154;" horiz-adv-x="1227" 
d="M325 1400h495q193 0 302 -94.5t109 -256.5q0 -50 -10 -100q-31 -157 -133 -267.5t-255 -153.5l237 -528h-310l-218 498h-111l-96 -498h-282zM752 1166h-191l-86 -441h191q108 0 179.5 60t90.5 160q6 29 6 55q0 78 -49 122t-141 44zM606 1508l327 342h276l-341 -342h-262z
" />
    <glyph glyph-name="racute" unicode="&#x155;" horiz-adv-x="825" 
d="M708 817q-74 0 -145.5 -45t-128.5 -123l-126 -649h-275l201 1036h275l-25 -127q142 151 307 151q53 0 89 -22l-66 -241q-53 20 -106 20zM344 1184l327 342h276l-341 -342h-262z" />
    <glyph glyph-name="Rcommaaccent" unicode="&#x156;" horiz-adv-x="1227" 
d="M325 1400h495q193 0 302 -94.5t109 -256.5q0 -50 -10 -100q-31 -157 -133 -267.5t-255 -153.5l237 -528h-310l-218 498h-111l-96 -498h-282zM752 1166h-191l-86 -441h191q108 0 179.5 60t90.5 160q6 29 6 55q0 78 -49 122t-141 44zM397 -470h-248l222 342h281z" />
    <glyph glyph-name="rcommaaccent" unicode="&#x157;" horiz-adv-x="825" 
d="M708 817q-74 0 -145.5 -45t-128.5 -123l-126 -649h-275l201 1036h275l-25 -127q142 151 307 151q53 0 89 -22l-66 -241q-53 20 -106 20zM55 -470h-248l222 342h281z" />
    <glyph glyph-name="Rcaron" unicode="&#x158;" horiz-adv-x="1227" 
d="M325 1400h495q193 0 302 -94.5t109 -256.5q0 -50 -10 -100q-31 -157 -133 -267.5t-255 -153.5l237 -528h-310l-218 498h-111l-96 -498h-282zM752 1166h-191l-86 -441h191q108 0 179.5 60t90.5 160q6 29 6 55q0 78 -49 122t-141 44zM886 1508h-196l-226 342h260l100 -155
l160 155h260z" />
    <glyph glyph-name="rcaron" unicode="&#x159;" horiz-adv-x="825" 
d="M708 817q-74 0 -145.5 -45t-128.5 -123l-126 -649h-275l201 1036h275l-25 -127q142 151 307 151q53 0 89 -22l-66 -241q-53 20 -106 20zM634 1164h-196l-226 342h260l100 -155l160 155h260z" />
    <glyph glyph-name="Sacute" unicode="&#x15a;" horiz-adv-x="1194" 
d="M30 201l200 191q58 -78 139 -125.5t174 -47.5q98 0 172.5 44.5t92.5 121.5q5 22 5 40q0 62 -56 107t-190 75q-175 38 -265.5 124t-90.5 212q0 34 8 77q23 117 100 209t193 143.5t251 51.5q139 0 247.5 -46.5t180.5 -131.5l-193 -199q-129 136 -270 136
q-83 0 -144.5 -39.5t-73.5 -102.5q-3 -17 -3 -33q0 -60 54 -101.5t176 -70.5q190 -46 280 -132.5t90 -216.5q0 -43 -9 -89q-37 -187 -198.5 -304.5t-397.5 -117.5q-153 0 -277 59.5t-195 165.5zM602 1508l327 342h276l-341 -342h-262z" />
    <glyph glyph-name="sacute" unicode="&#x15b;" horiz-adv-x="947" 
d="M-10 148l172 171q38 -56 100.5 -89.5t138.5 -33.5q71 0 116.5 27.5t55.5 75.5q2 14 2 21q0 38 -36 63t-120 43q-279 60 -279 265q0 33 7 67q26 132 146 217t287 85q104 0 192 -38.5t148 -102.5l-165 -172q-96 93 -194 93q-57 0 -97.5 -23t-48.5 -63q-2 -10 -2 -17
q0 -76 143 -106q292 -63 292 -267q0 -34 -7 -68q-28 -140 -154 -230t-308 -90q-129 0 -231.5 45.5t-157.5 126.5zM407 1184l327 342h276l-341 -342h-262z" />
    <glyph glyph-name="Scircumflex" unicode="&#x15c;" horiz-adv-x="1194" 
d="M30 201l200 191q58 -78 139 -125.5t174 -47.5q98 0 172.5 44.5t92.5 121.5q5 22 5 40q0 62 -56 107t-190 75q-175 38 -265.5 124t-90.5 212q0 34 8 77q23 117 100 209t193 143.5t251 51.5q139 0 247.5 -46.5t180.5 -131.5l-193 -199q-129 136 -270 136
q-83 0 -144.5 -39.5t-73.5 -102.5q-3 -17 -3 -33q0 -60 54 -101.5t176 -70.5q190 -46 280 -132.5t90 -216.5q0 -43 -9 -89q-37 -187 -198.5 -304.5t-397.5 -117.5q-153 0 -277 59.5t-195 165.5zM749 1850h196l226 -342h-260l-100 155l-160 -155h-260z" />
    <glyph glyph-name="scircumflex" unicode="&#x15d;" horiz-adv-x="947" 
d="M-10 148l172 171q38 -56 100.5 -89.5t138.5 -33.5q71 0 116.5 27.5t55.5 75.5q2 14 2 21q0 38 -36 63t-120 43q-279 60 -279 265q0 33 7 67q26 132 146 217t287 85q104 0 192 -38.5t148 -102.5l-165 -172q-96 93 -194 93q-57 0 -97.5 -23t-48.5 -63q-2 -10 -2 -17
q0 -76 143 -106q292 -63 292 -267q0 -34 -7 -68q-28 -140 -154 -230t-308 -90q-129 0 -231.5 45.5t-157.5 126.5zM561 1526h196l226 -342h-260l-100 155l-160 -155h-260z" />
    <glyph glyph-name="Scedilla" unicode="&#x15e;" horiz-adv-x="1194" 
d="M488 -308q4 13 4 22q0 27 -22 43.5t-60 16.5q-32 0 -60 -5l-37 52l115 159q-129 14 -233 71t-165 150l200 191q58 -78 139 -125.5t174 -47.5q98 0 172.5 44.5t92.5 121.5q5 22 5 40q0 62 -56 107t-190 75q-175 38 -265.5 124t-90.5 212q0 34 8 77q23 117 100 209
t193 143.5t251 51.5q139 0 247.5 -46.5t180.5 -131.5l-193 -199q-129 136 -270 136q-83 0 -144.5 -39.5t-73.5 -102.5q-3 -17 -3 -33q0 -60 54 -101.5t176 -70.5q190 -46 280 -132.5t90 -216.5q0 -43 -9 -89q-32 -160 -157 -271t-312 -141l-79 -93q65 -18 102 -62t37 -101
q0 -16 -3 -34q-18 -93 -110 -154.5t-212 -61.5q-121 0 -189 62l104 118q40 -34 102 -34q39 0 68.5 18.5t38.5 47.5z" />
    <glyph glyph-name="scedilla" unicode="&#x15f;" horiz-adv-x="947" 
d="M350 -308q4 13 4 22q0 27 -22 43.5t-60 16.5q-32 0 -60 -5l-37 52l117 161q-101 14 -179 56.5t-123 109.5l172 171q38 -56 100.5 -89.5t138.5 -33.5q71 0 116.5 27.5t55.5 75.5q2 14 2 21q0 38 -36 63t-120 43q-279 60 -279 265q0 33 7 67q26 132 146 217t287 85
q104 0 192 -38.5t148 -102.5l-165 -172q-96 93 -194 93q-57 0 -97.5 -23t-48.5 -63q-2 -10 -2 -17q0 -76 143 -106q292 -63 292 -267q0 -34 -7 -68q-24 -117 -117.5 -201t-232.5 -109l-79 -93q65 -18 102 -62t37 -101q0 -16 -3 -34q-18 -93 -110 -154.5t-212 -61.5
q-121 0 -189 62l104 118q40 -34 102 -34q39 0 68.5 18.5t38.5 47.5z" />
    <glyph glyph-name="Scaron" unicode="&#x160;" horiz-adv-x="1194" 
d="M30 201l200 191q58 -78 139 -125.5t174 -47.5q98 0 172.5 44.5t92.5 121.5q5 22 5 40q0 62 -56 107t-190 75q-175 38 -265.5 124t-90.5 212q0 34 8 77q23 117 100 209t193 143.5t251 51.5q139 0 247.5 -46.5t180.5 -131.5l-193 -199q-129 136 -270 136
q-83 0 -144.5 -39.5t-73.5 -102.5q-3 -17 -3 -33q0 -60 54 -101.5t176 -70.5q190 -46 280 -132.5t90 -216.5q0 -43 -9 -89q-37 -187 -198.5 -304.5t-397.5 -117.5q-153 0 -277 59.5t-195 165.5zM874 1508h-196l-226 342h260l100 -155l160 155h260z" />
    <glyph glyph-name="scaron" unicode="&#x161;" horiz-adv-x="947" 
d="M-10 148l172 171q38 -56 100.5 -89.5t138.5 -33.5q71 0 116.5 27.5t55.5 75.5q2 14 2 21q0 38 -36 63t-120 43q-279 60 -279 265q0 33 7 67q26 132 146 217t287 85q104 0 192 -38.5t148 -102.5l-165 -172q-96 93 -194 93q-57 0 -97.5 -23t-48.5 -63q-2 -10 -2 -17
q0 -76 143 -106q292 -63 292 -267q0 -34 -7 -68q-28 -140 -154 -230t-308 -90q-129 0 -231.5 45.5t-157.5 126.5zM687 1164h-196l-226 342h260l100 -155l160 155h260z" />
    <glyph glyph-name="Tcommaaccent" unicode="&#x162;" horiz-adv-x="1114" 
d="M315 0l224 1155h-360l48 245h1004l-48 -245h-360l-224 -1155l-91 -107q65 -18 102 -62t37 -101q0 -16 -3 -34q-18 -93 -110 -154.5t-212 -61.5q-121 0 -189 62l104 118q40 -34 102 -34q39 0 68.5 18.5t38.5 47.5q4 13 4 22q0 27 -22 43.5t-60 16.5q-32 0 -60 -5l-37 52
l130 179h-86z" />
    <glyph glyph-name="tcommaaccent" unicode="&#x163;" horiz-adv-x="787" 
d="M291 -308q4 13 4 22q0 27 -22 43.5t-60 16.5q-32 0 -60 -5l-37 52l148 204q-105 64 -105 214q0 45 11 103l88 455h-161l47 239h161l54 276l279 24l-58 -300h244l-47 -239h-244l-85 -438q-5 -28 -5 -46q0 -51 32 -74.5t103 -23.5q54 0 99 5l-44 -230q-68 -14 -146 -14
q-33 0 -63 3l-71 -86q65 -18 102 -62t37 -101q0 -16 -3 -34q-18 -93 -110 -154.5t-212 -61.5q-121 0 -189 62l104 118q40 -34 102 -34q39 0 68.5 18.5t38.5 47.5z" />
    <glyph glyph-name="Tcaron" unicode="&#x164;" horiz-adv-x="1114" 
d="M315 0l224 1155h-360l48 245h1004l-48 -245h-360l-224 -1155h-284zM848 1508h-196l-226 342h260l100 -155l160 155h260z" />
    <glyph glyph-name="tcaron" unicode="&#x165;" horiz-adv-x="1139" 
d="M533 797l-85 -438q-5 -28 -5 -46q0 -51 32 -74.5t103 -23.5q54 0 99 5l-44 -230q-68 -14 -146 -14q-328 0 -328 263q0 45 11 103l88 455h-161l47 239h161l54 276l279 24l-58 -300h244l-47 -239h-244zM940 1324q13 67 68 113.5t123 46.5q59 0 95.5 -36t36.5 -92
q0 -16 -3 -32q-7 -36 -33 -75l-199 -301h-168l151 229q-74 33 -74 115q0 16 3 32z" />
    <glyph glyph-name="Tbar" unicode="&#x166;" horiz-adv-x="1114" 
d="M315 0l115 596h-236l37 190h236l72 369h-360l48 245h1004l-48 -245h-360l-72 -369h236l-37 -190h-236l-115 -596h-284z" />
    <glyph glyph-name="tbar" unicode="&#x167;" horiz-adv-x="787" 
d="M53 445l32 167h137l38 195h-161l45 229h161l54 276l279 24l-58 -300h244l-45 -229h-244l-38 -195h203l-32 -167h-203l-19 -96q-5 -28 -5 -45q0 -51 32 -75t103 -24q51 0 99 5l-42 -220q-70 -14 -154 -14q-321 0 -321 259q0 44 11 102l21 108h-137z" />
    <glyph glyph-name="Utilde" unicode="&#x168;" horiz-adv-x="1340" 
d="M1370 1400l-179 -920q-29 -147 -122.5 -262.5t-225.5 -177.5t-278 -62q-195 0 -317.5 109t-122.5 289q0 53 10 104l179 920h284l-182 -932q-5 -30 -5 -52q0 -87 56 -138.5t146 -51.5q104 0 187 67t104 175l182 932h284zM884 1560q-62 38 -89 38q-42 0 -75 -75l-211 44
q88 227 251 227q68 0 137 -45q62 -38 90 -38q43 0 74 75l212 -44q-88 -227 -251 -227q-67 0 -138 45z" />
    <glyph glyph-name="utilde" unicode="&#x169;" horiz-adv-x="1226" 
d="M788 362l131 674h275l-201 -1036h-275l22 114q-65 -63 -150 -100.5t-168 -37.5q-157 0 -249.5 88.5t-92.5 236.5q0 48 10 97l124 638h275l-119 -611q-4 -20 -4 -45q0 -72 45 -116.5t125 -44.5q63 0 133.5 42t118.5 101zM754 1234q-62 38 -89 38q-42 0 -75 -75l-211 44
q88 227 251 227q68 0 137 -45q62 -38 90 -38q43 0 74 75l212 -44q-88 -227 -251 -227q-67 0 -138 45z" />
    <glyph glyph-name="Umacron" unicode="&#x16a;" horiz-adv-x="1340" 
d="M1370 1400l-179 -920q-29 -147 -122.5 -262.5t-225.5 -177.5t-278 -62q-195 0 -317.5 109t-122.5 289q0 53 10 104l179 920h284l-182 -932q-5 -30 -5 -52q0 -87 56 -138.5t146 -51.5q104 0 187 67t104 175l182 932h284zM562 1556l40 206h620l-40 -206h-620z" />
    <glyph glyph-name="umacron" unicode="&#x16b;" horiz-adv-x="1226" 
d="M788 362l131 674h275l-201 -1036h-275l22 114q-65 -63 -150 -100.5t-168 -37.5q-157 0 -249.5 88.5t-92.5 236.5q0 48 10 97l124 638h275l-119 -611q-4 -20 -4 -45q0 -72 45 -116.5t125 -44.5q63 0 133.5 42t118.5 101zM432 1232l40 206h620l-40 -206h-620z" />
    <glyph glyph-name="Ubreve" unicode="&#x16c;" horiz-adv-x="1340" 
d="M1370 1400l-179 -920q-29 -147 -122.5 -262.5t-225.5 -177.5t-278 -62q-195 0 -317.5 109t-122.5 289q0 53 10 104l179 920h284l-182 -932q-5 -30 -5 -52q0 -87 56 -138.5t146 -51.5q104 0 187 67t104 175l182 932h284zM859 1488q-128 0 -212 74t-84 192q0 18 4 48h229
q-2 -14 -2 -25q0 -46 28 -75t73 -29q52 0 94.5 37t54.5 92h229q-32 -136 -152.5 -225t-261.5 -89z" />
    <glyph glyph-name="ubreve" unicode="&#x16d;" horiz-adv-x="1226" 
d="M788 362l131 674h275l-201 -1036h-275l22 114q-65 -63 -150 -100.5t-168 -37.5q-157 0 -249.5 88.5t-92.5 236.5q0 48 10 97l124 638h275l-119 -611q-4 -20 -4 -45q0 -72 45 -116.5t125 -44.5q63 0 133.5 42t118.5 101zM729 1164q-128 0 -212 74t-84 192q0 18 4 48h229
q-2 -14 -2 -25q0 -46 28 -75t73 -29q52 0 94.5 37t54.5 92h229q-32 -136 -152.5 -225t-261.5 -89z" />
    <glyph glyph-name="Uring" unicode="&#x16e;" horiz-adv-x="1340" 
d="M1370 1400l-179 -920q-29 -147 -122.5 -262.5t-225.5 -177.5t-278 -62q-195 0 -317.5 109t-122.5 289q0 53 10 104l179 920h284l-182 -932q-5 -30 -5 -52q0 -87 56 -138.5t146 -51.5q104 0 187 67t104 175l182 932h284zM830 1685q-1 -5 -1 -13q0 -23 15 -38t40 -15
q29 0 52 19t28 47q1 5 1 13q0 23 -15 38t-40 15q-29 0 -52 -19t-28 -47zM671 1685q18 89 94 148t173 59q85 0 137 -47t52 -120q0 -21 -4 -40q-17 -88 -93 -147.5t-173 -59.5q-85 0 -137.5 47.5t-52.5 121.5q0 18 4 38z" />
    <glyph glyph-name="uring" unicode="&#x16f;" horiz-adv-x="1226" 
d="M788 362l131 674h275l-201 -1036h-275l22 114q-65 -63 -150 -100.5t-168 -37.5q-157 0 -249.5 88.5t-92.5 236.5q0 48 10 97l124 638h275l-119 -611q-4 -20 -4 -45q0 -72 45 -116.5t125 -44.5q63 0 133.5 42t118.5 101zM696 1361q-1 -5 -1 -13q0 -23 15 -38t40 -15
q29 0 52 19t28 47q1 5 1 13q0 23 -15 38t-40 15q-29 0 -52 -19t-28 -47zM537 1361q18 89 94 148t173 59q85 0 137 -47t52 -120q0 -21 -4 -40q-17 -88 -93 -147.5t-173 -59.5q-85 0 -137.5 47.5t-52.5 121.5q0 18 4 38z" />
    <glyph glyph-name="Uhungarumlaut" unicode="&#x170;" horiz-adv-x="1340" 
d="M1370 1400l-179 -920q-29 -147 -122.5 -262.5t-225.5 -177.5t-278 -62q-195 0 -317.5 109t-122.5 289q0 53 10 104l179 920h284l-182 -932q-5 -30 -5 -52q0 -87 56 -138.5t146 -51.5q104 0 187 67t104 175l182 932h284zM549 1527l327 342h258l-338 -342h-247zM898 1527
l327 342h258l-338 -342h-247z" />
    <glyph glyph-name="uhungarumlaut" unicode="&#x171;" horiz-adv-x="1226" 
d="M788 362l131 674h275l-201 -1036h-275l22 114q-65 -63 -150 -100.5t-168 -37.5q-157 0 -249.5 88.5t-92.5 236.5q0 48 10 97l124 638h275l-119 -611q-4 -20 -4 -45q0 -72 45 -116.5t125 -44.5q63 0 133.5 42t118.5 101zM408 1193l327 342h258l-338 -342h-247zM757 1193
l327 342h258l-338 -342h-247z" />
    <glyph glyph-name="Uogonek" unicode="&#x172;" horiz-adv-x="1340" 
d="M1370 1400l-179 -920q-36 -183 -169 -313t-312 -172q-176 -126 -193 -215q-2 -10 -2 -18q0 -31 20.5 -49t53.5 -18q45 0 81 22l30 -128q-80 -47 -181 -47q-93 0 -152 48.5t-59 123.5q0 15 4 36q22 122 190 231q-170 17 -273.5 123.5t-103.5 271.5q0 53 10 104l179 920
h284l-182 -932q-5 -30 -5 -52q0 -87 56 -138.5t146 -51.5q104 0 187 67t104 175l182 932h284z" />
    <glyph glyph-name="uogonek" unicode="&#x173;" horiz-adv-x="1226" 
d="M807 0h-89l22 114q-65 -63 -150 -100.5t-168 -37.5q-157 0 -249.5 88.5t-92.5 236.5q0 48 10 97l124 638h275l-119 -611q-4 -20 -4 -45q0 -72 45 -116.5t125 -44.5q63 0 133.5 42t118.5 101l131 674h275l-201 -1036q-183 -129 -201 -220q-2 -10 -2 -18q0 -31 20.5 -49
t53.5 -18q45 0 81 22l30 -128q-80 -47 -181 -47q-93 0 -152 48.5t-59 123.5q0 15 4 36q12 67 71.5 132t148.5 118z" />
    <glyph glyph-name="Wcircumflex" unicode="&#x174;" horiz-adv-x="1970" 
d="M1017 1400h280l73 -1004l443 1004h296l-660 -1400h-285l-83 1013l-475 -1013h-285l-116 1400h296l51 -1004zM1146 1850h196l226 -342h-260l-100 155l-160 -155h-260z" />
    <glyph glyph-name="wcircumflex" unicode="&#x175;" horiz-adv-x="1594" 
d="M760 1036h276l43 -693l316 693h281l-515 -1036h-284l-49 674l-311 -674h-284l-113 1036h281l46 -693zM895 1526h196l226 -342h-260l-100 155l-160 -155h-260z" />
    <glyph glyph-name="Ycircumflex" unicode="&#x176;" horiz-adv-x="1302" 
d="M511 1400l202 -566l422 566h306l-639 -836l-109 -564h-284l109 564l-313 836h306zM812 1850h196l226 -342h-260l-100 155l-160 -155h-260z" />
    <glyph glyph-name="ycircumflex" unicode="&#x177;" horiz-adv-x="1074" 
d="M313 -464h-287l273 464l-179 1036h286l96 -688l368 688h286zM633 1526h196l226 -342h-260l-100 155l-160 -155h-260z" />
    <glyph glyph-name="Ydieresis" unicode="&#x178;" horiz-adv-x="1302" 
d="M511 1400l202 -566l422 566h306l-639 -836l-109 -564h-284l109 564l-313 836h306zM534 1664q12 62 62.5 104t112.5 42q54 0 88 -33t34 -84q0 -14 -3 -29q-12 -62 -63 -104t-113 -42q-54 0 -87.5 33t-33.5 84q0 14 3 29zM920 1664q12 62 62.5 104t112.5 42q54 0 88 -33
t34 -84q0 -14 -3 -29q-12 -62 -63 -104t-113 -42q-54 0 -87.5 33t-33.5 84q0 14 3 29z" />
    <glyph glyph-name="Zacute" unicode="&#x179;" horiz-adv-x="1220" 
d="M58 235l824 920h-615l48 245h954l-46 -235l-824 -920h665l-47 -245h-1004zM598 1508l327 342h276l-341 -342h-262z" />
    <glyph glyph-name="zacute" unicode="&#x17a;" horiz-adv-x="1027" 
d="M-12 0l43 223l604 575h-466l46 238h800l-43 -223l-604 -575h512l-46 -238h-846zM436 1184l327 342h276l-341 -342h-262z" />
    <glyph glyph-name="Zdotaccent" unicode="&#x17b;" horiz-adv-x="1220" 
d="M58 235l824 920h-615l48 245h954l-46 -235l-824 -920h665l-47 -245h-1004zM687 1663q13 62 64.5 105.5t114.5 43.5q55 0 89.5 -33.5t34.5 -85.5q0 -15 -3 -30q-12 -62 -64 -105.5t-115 -43.5q-55 0 -89.5 34t-34.5 86q0 14 3 29z" />
    <glyph glyph-name="zdotaccent" unicode="&#x17c;" horiz-adv-x="1027" 
d="M-12 0l43 223l604 575h-466l46 238h800l-43 -223l-604 -575h512l-46 -238h-846zM524 1339q13 62 64.5 105.5t114.5 43.5q55 0 89.5 -33.5t34.5 -85.5q0 -15 -3 -30q-12 -62 -64 -105.5t-115 -43.5q-55 0 -89.5 34t-34.5 86q0 14 3 29z" />
    <glyph glyph-name="Zcaron" unicode="&#x17d;" horiz-adv-x="1220" 
d="M58 235l824 920h-615l48 245h954l-46 -235l-824 -920h665l-47 -245h-1004zM901 1508h-196l-226 342h260l100 -155l160 155h260z" />
    <glyph glyph-name="zcaron" unicode="&#x17e;" horiz-adv-x="1027" 
d="M-12 0l43 223l604 575h-466l46 238h800l-43 -223l-604 -575h512l-46 -238h-846zM727 1164h-196l-226 342h260l100 -155l160 155h260z" />
    <glyph glyph-name="longs" unicode="&#x17f;" horiz-adv-x="764" 
d="M905 1450l-42 -219q-45 5 -92 5q-84 0 -127.5 -35t-58.5 -109l-212 -1092h-275l154 797h-155l47 239h155l11 59q72 365 478 365q55 0 117 -10z" />
    <glyph glyph-name="uni0191" unicode="&#x191;" horiz-adv-x="1078" 
d="M447 567l-129 -662q-35 -180 -156 -274.5t-316 -94.5q-70 0 -122 10l46 236q45 -5 88 -5q79 0 122.5 35.5t57.5 110.5l287 1477h852l-48 -244h-568l-67 -345h520l-47 -244h-520z" />
    <glyph glyph-name="florin" unicode="&#x192;" horiz-adv-x="767" 
d="M79 -96l173 893h-155l47 239h155l11 59q72 365 478 365q55 0 117 -10l-42 -219q-45 5 -92 5q-84 0 -127.5 -35t-58.5 -109l-11 -56h251l-47 -239h-251l-174 -896q-70 -365 -477 -365q-55 0 -117 10l43 219q43 -5 92 -5q83 0 126.5 35t58.5 109z" />
    <glyph glyph-name="Aringacute" unicode="&#x1fa;" horiz-adv-x="1382" 
d="M648 1461q17 88 93.5 147.5t173.5 59.5q85 0 137 -47t52 -120q0 -21 -4 -40q-13 -74 -74 -130l223 -1331h-301l-43 315h-506l-165 -315h-301l739 1331q-27 39 -27 93q0 18 3 37zM877 547l-73 550l-287 -550h360zM808 1469q-3 -9 -3 -21q0 -24 15.5 -38.5t41.5 -14.5
q27 0 48 15t29 39q5 15 5 27q0 23 -15.5 37t-41.5 14q-27 0 -49 -16t-30 -42zM1024 1703h-242l232 247h257z" />
    <glyph glyph-name="aringacute" unicode="&#x1fb;" horiz-adv-x="1315" 
d="M726 1343q-6 -13 -6 -29q0 -24 15.5 -39t40.5 -15q27 0 50 17t30 44q3 11 3 20q0 23 -16 38t-41 15t-45.5 -14t-30.5 -37zM568 1327q17 86 92 144.5t169 58.5q83 0 134 -46t51 -118q0 -22 -4 -39q-17 -86 -91.5 -144.5t-168.5 -58.5q-83 0 -134.5 46.5t-51.5 118.5
q0 18 4 38zM934 1568h-242l248 262h256zM582 219q89 0 170.5 45t131.5 120l52 268q-21 75 -85 120t-153 45q-127 0 -229.5 -86t-127.5 -213q-6 -31 -6 -61q0 -104 68.5 -171t178.5 -67zM688 1060q196 0 303 -128l20 104h272l-201 -1036h-272l20 104q-157 -128 -353 -128
q-191 0 -307 121.5t-116 307.5q0 59 11 113q29 147 119.5 271t224 197.5t279.5 73.5z" />
    <glyph glyph-name="AEacute" unicode="&#x1fc;" horiz-adv-x="1865" 
d="M212 0h-310l1047 1400h967l-47 -242h-573l-65 -334h525l-47 -240h-525l-66 -342h591l-47 -242h-872l61 315h-411zM1002 1092l-397 -545h291zM936 1508l327 342h276l-341 -342h-262z" />
    <glyph glyph-name="aeacute" unicode="&#x1fd;" horiz-adv-x="2039" 
d="M1946 436h-816v-8q0 -105 69.5 -169t183.5 -64q164 0 319 129l134 -160q-209 -188 -494 -188q-139 0 -246.5 54t-162.5 145q-86 -92 -211 -145.5t-261 -53.5q-195 0 -316.5 84.5t-121.5 214.5q0 26 5 51q28 140 183 235.5t352 95.5q84 0 164 -22t136 -58l6 33q4 19 4 40
q0 84 -67.5 137.5t-180.5 53.5q-89 0 -181 -32.5t-169 -87.5l-57 191q98 70 218 109t239 39q136 0 239.5 -53.5t153.5 -146.5q91 93 214.5 146.5t254.5 53.5q205 0 327.5 -118.5t122.5 -301.5q0 -53 -10 -104q-10 -56 -31 -100zM301 327q-2 -10 -2 -17q0 -52 62 -86.5
t162 -34.5q181 0 284 111l16 84q-84 79 -247 79q-108 0 -185.5 -39t-89.5 -97zM1492 841q-97 0 -183.5 -57t-133.5 -152h538q-5 94 -63.5 151.5t-157.5 57.5zM948 1184l327 342h276l-341 -342h-262z" />
    <glyph glyph-name="Oslashacute" unicode="&#x1fe;" horiz-adv-x="1656" 
d="M113 700q39 201 169.5 367t321.5 261.5t400 95.5q199 0 352 -90l122 126h226l-222 -227q147 -160 147 -393q0 -65 -14 -140q-39 -201 -170 -367t-322 -261.5t-400 -95.5q-212 0 -370 100l-132 -136h-226l236 242q-132 154 -132 375q0 74 14 143zM1328 700q9 50 9 96
q0 127 -64 222l-718 -736q94 -58 216 -58q196 0 356.5 137t200.5 339zM400 700q-10 -50 -10 -100q0 -115 52 -202l712 729q-89 49 -198 49q-196 0 -356.5 -137t-199.5 -339zM838 1508l327 342h276l-341 -342h-262z" />
    <glyph glyph-name="oslashacute" unicode="&#x1ff;" horiz-adv-x="1280" 
d="M65 518q29 150 128 274t245 196t308 72q145 0 258 -61l95 97h213l-188 -192q101 -115 101 -282q0 -53 -10 -104q-29 -150 -127.5 -274t-244.5 -196t-308 -72q-148 0 -259 61l-96 -97h-213l188 192q-100 117 -100 281q0 54 10 105zM952 518q6 32 6 61q0 68 -31 124
l-463 -473q53 -24 116 -24q132 0 239 90.5t133 221.5zM328 518q-6 -33 -6 -63q0 -69 29 -122l463 472q-53 24 -113 24q-131 0 -239.5 -90t-133.5 -221zM593 1184l327 342h276l-341 -342h-262z" />
    <glyph glyph-name="Scommaaccent" unicode="&#x218;" horiz-adv-x="1194" 
d="M30 201l200 191q58 -78 139 -125.5t174 -47.5q98 0 172.5 44.5t92.5 121.5q5 22 5 40q0 62 -56 107t-190 75q-175 38 -265.5 124t-90.5 212q0 34 8 77q23 117 100 209t193 143.5t251 51.5q139 0 247.5 -46.5t180.5 -131.5l-193 -199q-129 136 -270 136
q-83 0 -144.5 -39.5t-73.5 -102.5q-3 -17 -3 -33q0 -60 54 -101.5t176 -70.5q190 -46 280 -132.5t90 -216.5q0 -43 -9 -89q-37 -187 -198.5 -304.5t-397.5 -117.5q-153 0 -277 59.5t-195 165.5zM412 -470h-248l222 342h281z" />
    <glyph glyph-name="scommaaccent" unicode="&#x219;" horiz-adv-x="947" 
d="M-10 148l172 171q38 -56 100.5 -89.5t138.5 -33.5q71 0 116.5 27.5t55.5 75.5q2 14 2 21q0 38 -36 63t-120 43q-279 60 -279 265q0 33 7 67q26 132 146 217t287 85q104 0 192 -38.5t148 -102.5l-165 -172q-96 93 -194 93q-57 0 -97.5 -23t-48.5 -63q-2 -10 -2 -17
q0 -76 143 -106q292 -63 292 -267q0 -34 -7 -68q-28 -140 -154 -230t-308 -90q-129 0 -231.5 45.5t-157.5 126.5zM276 -470h-248l222 342h281z" />
    <glyph glyph-name="uni021A" unicode="&#x21a;" horiz-adv-x="1114" 
d="M315 0l224 1155h-360l48 245h1004l-48 -245h-360l-224 -1155h-284zM351 -470h-248l222 342h281z" />
    <glyph glyph-name="uni021B" unicode="&#x21b;" horiz-adv-x="787" 
d="M533 797l-85 -438q-5 -28 -5 -46q0 -51 32 -74.5t103 -23.5q54 0 99 5l-44 -230q-68 -14 -146 -14q-328 0 -328 263q0 45 11 103l88 455h-161l47 239h161l54 276l279 24l-58 -300h244l-47 -239h-244zM204 -470h-248l222 342h281z" />
    <glyph glyph-name="dotlessj" unicode="&#x237;" horiz-adv-x="552" 
d="M20 -90l219 1126h275l-222 -1140q-36 -184 -140.5 -272t-282.5 -88q-57 0 -95 7l45 232h53q63 0 98.5 31t49.5 104z" />
    <glyph glyph-name="apostrophe" unicode="&#x2bc;" horiz-adv-x="850" 
d="M426 1324q13 67 68 113.5t123 46.5q59 0 95.5 -36t36.5 -92q0 -16 -3 -32q-7 -36 -33 -75l-199 -301h-168l151 229q-74 33 -74 115q0 16 3 32z" />
    <glyph glyph-name="circumflex" unicode="&#x2c6;" horiz-adv-x="850" 
d="M510 1460h196l226 -342h-260l-100 155l-160 -155h-260z" />
    <glyph glyph-name="caron" unicode="&#x2c7;" horiz-adv-x="850" 
d="M640 1118h-196l-226 342h260l100 -155l160 155h260z" />
    <glyph glyph-name="uni02C9" unicode="&#x2c9;" horiz-adv-x="850" 
d="M245 1185l40 206h620l-40 -206h-620z" />
    <glyph glyph-name="breve" unicode="&#x2d8;" horiz-adv-x="850" 
d="M543 1126q-128 0 -212 74t-84 192q0 18 4 48h229q-2 -14 -2 -25q0 -46 28 -75t73 -29q52 0 94.5 37t54.5 92h229q-32 -136 -152.5 -225t-261.5 -89z" />
    <glyph glyph-name="dotaccent" unicode="&#x2d9;" horiz-adv-x="850" 
d="M425 1291q13 62 64.5 105.5t114.5 43.5q55 0 89.5 -33.5t34.5 -85.5q0 -15 -3 -30q-12 -62 -64 -105.5t-115 -43.5q-55 0 -89.5 34t-34.5 86q0 14 3 29z" />
    <glyph glyph-name="ring" unicode="&#x2da;" horiz-adv-x="850" 
d="M507 1285q-1 -5 -1 -13q0 -23 15 -38t40 -15q29 0 52 19t28 47q1 5 1 13q0 23 -15 38t-40 15q-29 0 -52 -19t-28 -47zM348 1285q18 89 94 148t173 59q85 0 137 -47t52 -120q0 -21 -4 -40q-17 -88 -93 -147.5t-173 -59.5q-85 0 -137.5 47.5t-52.5 121.5q0 18 4 38z" />
    <glyph glyph-name="ogonek" unicode="&#x2db;" horiz-adv-x="850" 
d="M297 0h186q-183 -129 -201 -220q-2 -10 -2 -18q0 -31 20.5 -49t53.5 -18q45 0 81 22l30 -128q-80 -47 -181 -47q-93 0 -152 48.5t-59 123.5q0 15 4 36q12 67 71.5 132t148.5 118z" />
    <glyph glyph-name="tilde" unicode="&#x2dc;" horiz-adv-x="850" 
d="M567 1188q-62 38 -89 38q-42 0 -75 -75l-211 44q88 227 251 227q68 0 137 -45q62 -38 90 -38q43 0 74 75l212 -44q-88 -227 -251 -227q-67 0 -138 45z" />
    <glyph glyph-name="hungarumlaut" unicode="&#x2dd;" horiz-adv-x="850" 
d="M156 1118l327 342h258l-338 -342h-247zM505 1118l327 342h258l-338 -342h-247z" />
    <glyph glyph-name="gravecomb" unicode="&#x300;" horiz-adv-x="0" 
d="M-287 1460l195 -342h-262l-209 342h276z" />
    <glyph glyph-name="acutecomb" unicode="&#x301;" horiz-adv-x="0" 
d="M-524 1118l327 342h276l-341 -342h-262z" />
    <glyph glyph-name="uni0302" unicode="&#x302;" horiz-adv-x="0" 
d="M-340 1460h196l226 -342h-260l-100 155l-160 -155h-260z" />
    <glyph glyph-name="tildecomb" unicode="&#x303;" horiz-adv-x="0" 
d="M-283 1188q-62 38 -89 38q-42 0 -75 -75l-211 44q88 227 251 227q68 0 137 -45q62 -38 90 -38q43 0 74 75l212 -44q-88 -227 -251 -227q-67 0 -138 45z" />
    <glyph glyph-name="uni0304" unicode="&#x304;" horiz-adv-x="0" 
d="M-605 1186l40 206h620l-40 -206h-620z" />
    <glyph glyph-name="uni0306" unicode="&#x306;" horiz-adv-x="0" 
d="M-307 1126q-128 0 -212 74t-84 192q0 18 4 48h229q-2 -14 -2 -25q0 -46 28 -75t73 -29q52 0 94.5 37t54.5 92h229q-32 -136 -152.5 -225t-261.5 -89z" />
    <glyph glyph-name="uni0307" unicode="&#x307;" horiz-adv-x="0" 
d="M-425 1291q13 62 64.5 105.5t114.5 43.5q55 0 89.5 -33.5t34.5 -85.5q0 -15 -3 -30q-12 -62 -64 -105.5t-115 -43.5q-55 0 -89.5 34t-34.5 86q0 14 3 29z" />
    <glyph glyph-name="uni0308" unicode="&#x308;" horiz-adv-x="0" 
d="M-614 1292q12 62 62.5 104t112.5 42q54 0 88 -33t34 -84q0 -14 -3 -29q-12 -62 -63 -104t-113 -42q-54 0 -87.5 33t-33.5 84q0 14 3 29zM-228 1292q12 62 62.5 104t112.5 42q54 0 88 -33t34 -84q0 -14 -3 -29q-12 -62 -63 -104t-113 -42q-54 0 -87.5 33t-33.5 84
q0 14 3 29z" />
    <glyph glyph-name="uni030A" unicode="&#x30a;" horiz-adv-x="0" 
d="M-343 1285q-1 -5 -1 -13q0 -23 15 -38t40 -15q29 0 52 19t28 47q1 5 1 13q0 23 -15 38t-40 15q-29 0 -52 -19t-28 -47zM-502 1285q18 89 94 148t173 59q85 0 137 -47t52 -120q0 -21 -4 -40q-17 -88 -93 -147.5t-173 -59.5q-85 0 -137.5 47.5t-52.5 121.5q0 18 4 38z" />
    <glyph glyph-name="uni030C" unicode="&#x30c;" horiz-adv-x="0" 
d="M-210 1118h-196l-226 342h260l100 -155l160 155h260z" />
    <glyph glyph-name="uni0327" unicode="&#x327;" horiz-adv-x="0" 
d="M-540 -308q4 13 4 22q0 27 -22 43.5t-60 16.5q-32 0 -60 -5l-37 52l130 179h198l-91 -107q65 -18 102 -62t37 -101q0 -16 -3 -34q-18 -93 -110 -154.5t-212 -61.5q-121 0 -189 62l104 118q40 -34 102 -34q39 0 68.5 18.5t38.5 47.5z" />
    <glyph glyph-name="tonos" unicode="&#x384;" horiz-adv-x="850" 
d="M583 1088h-253l224 372h284z" />
    <glyph glyph-name="dieresistonos" unicode="&#x385;" horiz-adv-x="850" 
d="M213 1141q12 60 62 101t113 41q55 0 88.5 -32t33.5 -81q0 -14 -3 -29q-11 -60 -61 -101t-113 -41q-56 0 -89.5 32t-33.5 82q0 15 3 28zM585 1141q12 60 62 101t113 41q55 0 88.5 -32t33.5 -81q0 -14 -3 -29q-11 -60 -61 -101t-113 -41q-56 0 -89.5 32t-33.5 82q0 15 3 28
zM678 1314h-242l247 262h256z" />
    <glyph glyph-name="Alphatonos" unicode="&#x386;" horiz-adv-x="1450" 
d="M774 1400h314l229 -1400h-301l-43 315h-506l-165 -315h-301zM945 547l-73 550l-287 -550h360zM376 1028h-253l224 372h284z" />
    <glyph glyph-name="anoteleia" unicode="&#x387;" horiz-adv-x="603" 
d="M158 651q14 71 71 118.5t130 47.5q64 0 102.5 -37.5t38.5 -95.5q0 -16 -3 -33q-14 -71 -71.5 -118.5t-130.5 -47.5q-63 0 -101.5 37.5t-38.5 95.5q0 16 3 33z" />
    <glyph glyph-name="Epsilontonos" unicode="&#x388;" horiz-adv-x="1517" 
d="M424 0l272 1400h872l-47 -242h-588l-65 -334h540l-47 -240h-540l-66 -342h606l-47 -242h-890zM376 1028h-253l224 372h284z" />
    <glyph glyph-name="Etatonos" unicode="&#x389;" horiz-adv-x="1785" 
d="M424 0l272 1400h284l-112 -574h540l112 574h284l-272 -1400h-284l112 581h-540l-112 -581h-284zM376 1028h-253l224 372h284z" />
    <glyph glyph-name="Iotatonos" unicode="&#x38a;" horiz-adv-x="970" 
d="M697 1400h284l-272 -1400h-284zM376 1028h-253l224 372h284z" />
    <glyph glyph-name="Omicrontonos" unicode="&#x38c;" horiz-adv-x="1895" 
d="M639 700q-10 -49 -10 -99q0 -166 106 -271.5t275 -105.5q196 0 356.5 137t199.5 339q11 53 11 98q0 166 -106 272t-276 106q-196 0 -356.5 -137t-199.5 -339zM352 700q39 201 169.5 367t321.5 261.5t400 95.5q279 0 452 -163.5t173 -419.5q0 -66 -14 -141
q-39 -201 -170 -367t-322 -261.5t-400 -95.5q-278 0 -451 163.5t-173 418.5q0 73 14 142zM376 1028h-253l224 372h284z" />
    <glyph glyph-name="Upsilontonos" unicode="&#x38e;" horiz-adv-x="1761" 
d="M970 1400l202 -566l422 566h306l-639 -836l-109 -564h-284l109 564l-313 836h306zM376 1028h-253l224 372h284z" />
    <glyph glyph-name="Omegatonos" unicode="&#x38f;" horiz-adv-x="1863" 
d="M1532 733q9 47 9 90q0 154 -99 253.5t-257 99.5q-182 0 -332.5 -128.5t-186.5 -314.5q-10 -49 -10 -99q0 -128 64 -232.5t181 -166.5l-45 -235h-600l48 248h277q-208 154 -208 399q0 60 11 114q35 182 160 334.5t307.5 240.5t381.5 88q267 0 435 -153.5t168 -388.5
q0 -58 -12 -121q-31 -158 -132 -288.5t-263 -224.5h277l-48 -248h-600l45 235q168 75 283 208t146 290zM376 1028h-253l224 372h284z" />
    <glyph glyph-name="iotadieresistonos" unicode="&#x390;" horiz-adv-x="588" 
d="M89 267l150 769h275l-136 -700q-3 -16 -3 -28q0 -68 80 -68h36l-46 -236q-48 -4 -92 -4q-271 0 -271 198q0 34 7 69zM91 1275q12 60 62 101t113 41q55 0 88.5 -32t33.5 -81q0 -14 -3 -29q-11 -60 -61 -101t-113 -41q-56 0 -89.5 32t-33.5 82q0 15 3 28zM463 1275
q12 60 62 101t113 41q55 0 88.5 -32t33.5 -81q0 -14 -3 -29q-11 -60 -61 -101t-113 -41q-56 0 -89.5 32t-33.5 82q0 15 3 28zM556 1448h-242l247 262h256z" />
    <glyph glyph-name="Alpha" unicode="&#x391;" horiz-adv-x="1382" 
d="M706 1400h314l229 -1400h-301l-43 315h-506l-165 -315h-301zM877 547l-73 550l-287 -550h360z" />
    <glyph glyph-name="Beta" unicode="&#x392;" horiz-adv-x="1252" 
d="M649 0h-596l272 1400h527q167 0 258 -77.5t91 -213.5q0 -41 -9 -88q-20 -100 -79.5 -172t-143.5 -106q85 -24 136 -92t51 -167q0 -34 -8 -76q-36 -181 -172.5 -294.5t-326.5 -113.5zM912 999q4 21 4 44q0 60 -35 91t-97 31h-226l-64 -331h226q72 0 124.5 43t67.5 122z
M866 421q5 28 5 49q0 64 -37 101t-101 37h-283l-73 -373h283q76 0 133 51t73 135z" />
    <glyph glyph-name="Gamma" unicode="&#x393;" horiz-adv-x="1040" 
d="M53 0l272 1400h852l-48 -245h-568l-224 -1155h-284z" />
    <glyph glyph-name="uni0394" unicode="&#x394;" horiz-adv-x="1382" 
d="M1020 1400l229 -1400h-1316l773 1400h314zM804 1097l-453 -858h572z" />
    <glyph glyph-name="Epsilon" unicode="&#x395;" horiz-adv-x="1146" 
d="M53 0l272 1400h872l-47 -242h-588l-65 -334h540l-47 -240h-540l-66 -342h606l-47 -242h-890z" />
    <glyph glyph-name="Zeta" unicode="&#x396;" horiz-adv-x="1220" 
d="M58 235l824 920h-615l48 245h954l-46 -235l-824 -920h665l-47 -245h-1004z" />
    <glyph glyph-name="Eta" unicode="&#x397;" horiz-adv-x="1414" 
d="M53 0l272 1400h284l-112 -574h540l112 574h284l-272 -1400h-284l112 581h-540l-112 -581h-284z" />
    <glyph glyph-name="Theta" unicode="&#x398;" horiz-adv-x="1656" 
d="M558 582l46 236h566l-46 -236h-566zM113 700q39 201 169.5 367t321.5 261.5t400 95.5q279 0 452 -163.5t173 -419.5q0 -66 -14 -141q-39 -201 -170 -367t-322 -261.5t-400 -95.5q-278 0 -451 163.5t-173 418.5q0 73 14 142zM395 700q-10 -49 -10 -99q0 -167 107 -274.5
t278 -107.5q197 0 360 139t203 342q10 57 10 98q0 168 -107 275.5t-279 107.5q-197 0 -360 -139t-202 -342z" />
    <glyph glyph-name="Iota" unicode="&#x399;" horiz-adv-x="606" 
d="M333 1400h284l-272 -1400h-284z" />
    <glyph glyph-name="Kappa" unicode="&#x39a;" horiz-adv-x="1239" 
d="M609 1400l-111 -571h80l463 571h313l-563 -690l368 -710h-319l-302 584h-88l-113 -584h-284l272 1400h284z" />
    <glyph glyph-name="Lambda" unicode="&#x39b;" horiz-adv-x="1382" 
d="M1249 0h-301l-148 1079l-566 -1079h-301l773 1400h314z" />
    <glyph glyph-name="Mu" unicode="&#x39c;" horiz-adv-x="1718" 
d="M934 418h-188l-237 553l-188 -971h-268l272 1400h290l285 -672l547 672h290l-272 -1400h-268l188 971z" />
    <glyph glyph-name="Nu" unicode="&#x39d;" horiz-adv-x="1414" 
d="M53 0l272 1400h288l369 -942l183 942h268l-272 -1400h-288l-369 942l-183 -942h-268z" />
    <glyph glyph-name="Xi" unicode="&#x39e;" horiz-adv-x="1169" 
d="M247 1158l47 242h925l-47 -242h-925zM3 0l47 242h963l-47 -242h-963zM999 584h-803l47 240h803z" />
    <glyph glyph-name="Omicron" unicode="&#x39f;" horiz-adv-x="1656" 
d="M400 700q-10 -49 -10 -99q0 -166 106 -271.5t275 -105.5q196 0 356.5 137t199.5 339q11 53 11 98q0 166 -106 272t-276 106q-196 0 -356.5 -137t-199.5 -339zM113 700q39 201 169.5 367t321.5 261.5t400 95.5q279 0 452 -163.5t173 -419.5q0 -66 -14 -141
q-39 -201 -170 -367t-322 -261.5t-400 -95.5q-278 0 -451 163.5t-173 418.5q0 73 14 142z" />
    <glyph glyph-name="Pi" unicode="&#x3a0;" horiz-adv-x="1362" 
d="M1381 1400l-272 -1400h-284l224 1155h-488l-224 -1155h-284l272 1400h1056z" />
    <glyph glyph-name="Rho" unicode="&#x3a1;" horiz-adv-x="1200" 
d="M642 488h-211l-94 -488h-284l272 1400h495q192 0 301 -96t109 -259q0 -51 -10 -101q-40 -205 -198 -330.5t-380 -125.5zM936 944q6 28 6 55q0 78 -49 122.5t-142 44.5h-188l-86 -444h188q109 0 180 59.5t91 162.5z" />
    <glyph glyph-name="Sigma" unicode="&#x3a3;" horiz-adv-x="1176" 
d="M62 255l446 447l-273 443l50 255h950l-48 -244h-620l248 -388l-26 -134l-401 -390h622l-47 -244h-950z" />
    <glyph glyph-name="Tau" unicode="&#x3a4;" horiz-adv-x="1114" 
d="M315 0l224 1155h-360l48 245h1004l-48 -245h-360l-224 -1155h-284z" />
    <glyph glyph-name="Upsilon" unicode="&#x3a5;" horiz-adv-x="1302" 
d="M511 1400l202 -566l422 566h306l-639 -836l-109 -564h-284l109 564l-313 836h306z" />
    <glyph glyph-name="Phi" unicode="&#x3a6;" horiz-adv-x="1546" 
d="M536 0l37 192q-213 0 -349 117.5t-136 299.5q0 43 9 89q28 141 127 257t243.5 182.5t302.5 66.5l38 196h274l-38 -196q213 0 348.5 -117.5t135.5 -298.5q0 -44 -9 -90q-27 -141 -126 -257t-243.5 -182.5t-302.5 -66.5l-37 -192h-274zM1242 698q5 27 5 47q0 94 -69.5 156
t-180.5 62l-104 -531q125 0 226.5 77.5t122.5 188.5zM374 698q-4 -21 -4 -46q0 -95 69.5 -157.5t179.5 -62.5l104 531q-125 0 -226 -77t-123 -188z" />
    <glyph glyph-name="Chi" unicode="&#x3a7;" horiz-adv-x="1286" 
d="M1161 0h-309l-209 516l-409 -516h-309l582 714l-290 686h309l194 -487l384 487h309l-558 -686z" />
    <glyph glyph-name="Psi" unicode="&#x3a8;" horiz-adv-x="1402" 
d="M1006 1400l-161 -825q89 35 154 112t84 174l105 539h266l-108 -552q-38 -195 -191.5 -341.5t-358.5 -187.5l-62 -319h-266l62 319q-163 35 -259.5 151t-96.5 276q0 52 10 102l108 552h266l-105 -539q-6 -33 -6 -64q0 -76 35 -135t97 -87l161 825h266z" />
    <glyph glyph-name="uni03A9" unicode="&#x3a9;" horiz-adv-x="1612" 
d="M1281 733q9 47 9 90q0 154 -99 253.5t-257 99.5q-182 0 -332.5 -128.5t-186.5 -314.5q-10 -49 -10 -99q0 -128 64 -232.5t181 -166.5l-45 -235h-600l48 248h277q-208 154 -208 399q0 60 11 114q35 182 160 334.5t307.5 240.5t381.5 88q267 0 435 -153.5t168 -388.5
q0 -58 -12 -121q-31 -158 -132 -288.5t-263 -224.5h277l-48 -248h-600l45 235q168 75 283 208t146 290z" />
    <glyph glyph-name="Iotadieresis" unicode="&#x3aa;" horiz-adv-x="606" 
d="M333 1400h284l-272 -1400h-284zM186 1664q12 62 62.5 104t112.5 42q54 0 88 -33t34 -84q0 -14 -3 -29q-12 -62 -63 -104t-113 -42q-54 0 -87.5 33t-33.5 84q0 14 3 29zM572 1664q12 62 62.5 104t112.5 42q54 0 88 -33t34 -84q0 -14 -3 -29q-12 -62 -63 -104t-113 -42
q-54 0 -87.5 33t-33.5 84q0 14 3 29z" />
    <glyph glyph-name="Upsilondieresis" unicode="&#x3ab;" horiz-adv-x="1302" 
d="M511 1400l202 -566l422 566h306l-639 -836l-109 -564h-284l109 564l-313 836h306zM534 1664q12 62 62.5 104t112.5 42q54 0 88 -33t34 -84q0 -14 -3 -29q-12 -62 -63 -104t-113 -42q-54 0 -87.5 33t-33.5 84q0 14 3 29zM920 1664q12 62 62.5 104t112.5 42q54 0 88 -33
t34 -84q0 -14 -3 -29q-12 -62 -63 -104t-113 -42q-54 0 -87.5 33t-33.5 84q0 14 3 29z" />
    <glyph glyph-name="alphatonos" unicode="&#x3ac;" horiz-adv-x="1387" 
d="M1155 0q-135 0 -200.5 30t-80.5 107q-168 -161 -394 -161q-193 0 -309.5 121t-116.5 308q0 59 11 113q29 147 119.5 271t224 197.5t279.5 73.5q196 0 303 -128l20 104h272l-133 -685q-3 -15 -3 -29q0 -39 24.5 -60.5t68.5 -21.5h50l-46 -236q-44 -4 -89 -4zM582 219
q89 0 170.5 45t131.5 120l52 268q-21 75 -85 120t-153 45q-127 0 -229.5 -86t-127.5 -213q-6 -31 -6 -61q0 -104 68.5 -171t178.5 -67zM566 1184l327 342h276l-341 -342h-262z" />
    <glyph glyph-name="epsilontonos" unicode="&#x3ad;" horiz-adv-x="962" 
d="M294 318q-2 -14 -2 -20q0 -47 39 -76.5t101 -29.5q144 0 245 109l162 -139q-74 -87 -191 -136.5t-254 -49.5q-168 0 -273.5 77.5t-105.5 196.5q0 21 5 49q18 89 89.5 160t162.5 98q-58 22 -90 69.5t-32 105.5q0 21 4 41q24 122 151.5 204.5t293.5 82.5q133 0 219 -49.5
t115 -136.5l-236 -122q-12 42 -48 66t-90 24q-53 0 -94.5 -25t-48.5 -64q-1 -5 -1 -14q0 -34 29.5 -57t78.5 -23h157l-42 -213h-151q-70 0 -126.5 -37t-66.5 -91zM399 1184l327 342h276l-341 -342h-262z" />
    <glyph glyph-name="etatonos" unicode="&#x3ae;" horiz-adv-x="1226" 
d="M439 674l-131 -674h-275l201 1036h275l-22 -114q65 63 150 100.5t168 37.5q157 0 249.5 -88.5t92.5 -236.5q0 -48 -10 -97l-215 -1102h-275l209 1075q5 27 5 46q0 71 -45.5 115.5t-125.5 44.5q-63 0 -133 -42t-118 -101zM568 1184l327 342h276l-341 -342h-262z" />
    <glyph glyph-name="iotatonos" unicode="&#x3af;" horiz-adv-x="588" 
d="M89 267l150 769h275l-136 -700q-3 -16 -3 -28q0 -68 80 -68h36l-46 -236q-48 -4 -92 -4q-271 0 -271 198q0 34 7 69zM225 1184l327 342h276l-341 -342h-262z" />
    <glyph glyph-name="upsilondieresistonos" unicode="&#x3b0;" horiz-adv-x="1160" 
d="M475 -24q-173 0 -282 99.5t-109 252.5q0 37 8 80l122 628h275l-119 -614q-5 -27 -5 -45q0 -70 43.5 -114t113.5 -44q82 0 148.5 58t83.5 145l119 614h275l-122 -628q-23 -119 -104 -218.5t-199.5 -156.5t-247.5 -57zM394 1275q12 60 62 101t113 41q55 0 88.5 -32
t33.5 -81q0 -14 -3 -29q-11 -60 -61 -101t-113 -41q-56 0 -89.5 32t-33.5 82q0 15 3 28zM766 1275q12 60 62 101t113 41q55 0 88.5 -32t33.5 -81q0 -14 -3 -29q-11 -60 -61 -101t-113 -41q-56 0 -89.5 32t-33.5 82q0 15 3 28zM859 1448h-242l247 262h256z" />
    <glyph glyph-name="alpha" unicode="&#x3b1;" horiz-adv-x="1387" 
d="M1155 0q-135 0 -200.5 30t-80.5 107q-168 -161 -394 -161q-193 0 -309.5 121t-116.5 308q0 59 11 113q29 147 119.5 271t224 197.5t279.5 73.5q196 0 303 -128l20 104h272l-133 -685q-3 -15 -3 -29q0 -39 24.5 -60.5t68.5 -21.5h50l-46 -236q-44 -4 -89 -4zM582 219
q89 0 170.5 45t131.5 120l52 268q-21 75 -85 120t-153 45q-127 0 -229.5 -86t-127.5 -213q-6 -31 -6 -61q0 -104 68.5 -171t178.5 -67z" />
    <glyph glyph-name="beta" unicode="&#x3b2;" horiz-adv-x="1215" 
d="M1124 1043q-17 -87 -87 -161.5t-172 -110.5q114 -19 187 -101.5t73 -202.5q0 -39 -7 -75q-23 -116 -97 -211.5t-182 -150t-225 -54.5q-101 0 -175.5 42t-95.5 115l-116 -597h-276l292 1500q32 167 179.5 277.5t335.5 110.5q167 0 270 -88t103 -225q0 -32 -7 -68z
M846 1029q3 18 3 33q0 58 -37.5 94t-98.5 36q-75 0 -129.5 -52t-70.5 -135l-104 -535q-7 -35 -7 -70q0 -89 49.5 -139t137.5 -50q90 0 161 57t88 145q4 20 4 43q0 86 -72 130.5t-199 44.5l45 230q97 1 156.5 48.5t73.5 119.5z" />
    <glyph glyph-name="gamma" unicode="&#x3b3;" horiz-adv-x="1075" 
d="M209 -464l90 462l-179 1038h286l98 -693l367 693h286l-583 -1038l-90 -462h-275z" />
    <glyph glyph-name="delta" unicode="&#x3b4;" horiz-adv-x="1141" 
d="M326 444q-5 -27 -5 -47q0 -80 53.5 -132t136.5 -52q96 0 176.5 66.5t99.5 164.5q4 21 4 46q0 81 -53 133t-137 52q-96 0 -176 -66.5t-99 -164.5zM558 903l-223 281l42 216h741l-47 -242h-397l323 -408q73 -93 73 -224q0 -37 -8 -82q-26 -133 -118 -241.5t-219.5 -167.5
t-262.5 -59q-179 0 -299.5 107t-120.5 275q0 41 9 86q34 177 179.5 304t327.5 155z" />
    <glyph glyph-name="epsilon" unicode="&#x3b5;" horiz-adv-x="962" 
d="M294 318q-2 -14 -2 -20q0 -47 39 -76.5t101 -29.5q144 0 245 109l162 -139q-74 -87 -191 -136.5t-254 -49.5q-168 0 -273.5 77.5t-105.5 196.5q0 21 5 49q18 89 89.5 160t162.5 98q-58 22 -90 69.5t-32 105.5q0 21 4 41q24 122 151.5 204.5t293.5 82.5q133 0 219 -49.5
t115 -136.5l-236 -122q-12 42 -48 66t-90 24q-53 0 -94.5 -25t-48.5 -64q-1 -5 -1 -14q0 -34 29.5 -57t78.5 -23h157l-42 -213h-151q-70 0 -126.5 -37t-66.5 -91z" />
    <glyph glyph-name="zeta" unicode="&#x3b6;" horiz-adv-x="950" 
d="M33 366q18 97 84 189t170 193l418 410h-416l47 242h732l-44 -226l-543 -543q-150 -152 -171 -259q-4 -21 -4 -38q0 -100 114 -162l214 -116q126 -68 126 -207q0 -30 -6 -63q-25 -126 -139 -250h-270q105 109 126 214q3 15 3 28q0 36 -18 65t-49 45l-185 95
q-95 50 -146 128t-51 176q0 37 8 79z" />
    <glyph glyph-name="eta" unicode="&#x3b7;" horiz-adv-x="1226" 
d="M439 674l-131 -674h-275l201 1036h275l-22 -114q65 63 150 100.5t168 37.5q157 0 249.5 -88.5t92.5 -236.5q0 -48 -10 -97l-215 -1102h-275l209 1075q5 27 5 46q0 71 -45.5 115.5t-125.5 44.5q-63 0 -133 -42t-118 -101z" />
    <glyph glyph-name="theta" unicode="&#x3b8;" horiz-adv-x="1286" 
d="M99 700q38 197 141.5 362t256.5 263.5t322 98.5q142 0 247 -71.5t158 -193t53 -277.5q0 -88 -18 -182q-38 -197 -142 -362t-257 -263.5t-322 -98.5q-142 0 -247 71t-157.5 192.5t-52.5 276.5q0 89 18 184zM773 1186q-116 0 -216.5 -105.5t-151.5 -267.5h592q2 32 2 47
q0 144 -59 235t-167 91zM584 213q116 0 216.5 106t152.5 268h-592q-2 -34 -2 -50q0 -144 59 -234t166 -90z" />
    <glyph glyph-name="iota" unicode="&#x3b9;" horiz-adv-x="588" 
d="M89 267l150 769h275l-136 -700q-3 -16 -3 -28q0 -68 80 -68h36l-46 -236q-48 -4 -92 -4q-271 0 -271 198q0 34 7 69z" />
    <glyph glyph-name="kappa" unicode="&#x3ba;" horiz-adv-x="1073" 
d="M664 0l-183 453h-85l-88 -453h-275l201 1036h275l-68 -347h89l285 347h310l-395 -466l239 -570h-305z" />
    <glyph glyph-name="lambda" unicode="&#x3bb;" horiz-adv-x="1074" 
d="M497 1019l-89 441h286l261 -1460h-286l-106 666l-358 -666h-286z" />
    <glyph glyph-name="uni03BC" unicode="&#x3bc;" horiz-adv-x="1246" 
d="M-58 -464l292 1500h275l-130 -670q4 -67 51.5 -107t118.5 -40q66 0 139 45.5t122 109.5l129 662h275l-201 -1036h-275l22 117q-59 -64 -133.5 -102.5t-145.5 -38.5q-52 0 -95 22.5t-67 61.5l-102 -524h-275z" />
    <glyph glyph-name="nu" unicode="&#x3bd;" horiz-adv-x="1074" 
d="M870 1036h286l-571 -1036h-296l-169 1036h286l95 -705z" />
    <glyph glyph-name="xi" unicode="&#x3be;" horiz-adv-x="960" 
d="M320 374q-5 -27 -5 -47q0 -124 139 -182l151 -63q80 -33 123.5 -91.5t43.5 -137.5q0 -27 -6 -59q-25 -130 -141 -258h-270q105 107 126 213q3 15 3 30q0 74 -74 105l-137 55q-114 46 -176.5 137.5t-62.5 205.5q0 36 8 79q25 132 124 239t233 154q-78 36 -120.5 104
t-42.5 152q0 30 6 61q29 149 166.5 251t309.5 102q216 0 314 -145l-204 -178q-59 97 -147 97q-64 0 -114.5 -46t-63.5 -117q-4 -21 -4 -38q0 -57 34.5 -93.5t91.5 -36.5h221l-44 -225h-176q-107 0 -195.5 -76.5t-110.5 -191.5z" />
    <glyph glyph-name="omicron" unicode="&#x3bf;" horiz-adv-x="1280" 
d="M65 518q29 150 128 274t245 196t308 72q216 0 347.5 -123t131.5 -315q0 -53 -10 -104q-29 -150 -127.5 -274t-244.5 -196t-308 -72q-215 0 -347.5 123.5t-132.5 314.5q0 53 10 104zM341 518q-6 -31 -6 -61q0 -104 68.5 -171t178.5 -67q127 0 230 86t128 213q6 32 6 60
q0 104 -68.5 171.5t-179.5 67.5q-127 0 -229.5 -86.5t-127.5 -212.5z" />
    <glyph glyph-name="pi" unicode="&#x3c0;" horiz-adv-x="1162" 
d="M502 793l-154 -793h-273l154 793h-130l47 243h1072l-47 -243h-131l-154 -793h-273l154 793h-265z" />
    <glyph glyph-name="rho" unicode="&#x3c1;" horiz-adv-x="1295" 
d="M-78 -464l191 982q45 229 234 385.5t431 156.5q210 0 336.5 -121.5t126.5 -311.5q0 -51 -11 -109q-29 -147 -123.5 -271.5t-231.5 -197.5t-285 -73q-191 0 -287 118l-109 -558h-272zM385 518l-27 -140q24 -73 88.5 -116t152.5 -43q125 0 227.5 86t127.5 213q7 38 7 65
q0 103 -63.5 168.5t-169.5 65.5q-123 0 -220.5 -86t-122.5 -213z" />
    <glyph glyph-name="sigma1" unicode="&#x3c2;" horiz-adv-x="1084" 
d="M343 518q-7 -34 -7 -71q0 -168 156 -246l228 -113q147 -73 147 -228q0 -26 -7 -66q-24 -130 -138 -258h-269q106 109 126 213q3 15 3 28q0 77 -72 112l-213 104q-116 57 -180 161.5t-64 241.5q0 59 12 122q29 150 128 274t245 196t308 72q225 0 364 -139l-176 -205
q-105 101 -234 101q-127 0 -229.5 -86.5t-127.5 -212.5z" />
    <glyph glyph-name="sigma" unicode="&#x3c3;" horiz-adv-x="1332" 
d="M63 506q43 221 236.5 375.5t429.5 154.5h657l-47 -243h-229q82 -95 82 -231q0 -36 -8 -81q-19 -100 -80.5 -192.5t-149.5 -161.5t-201 -110t-230 -41q-208 0 -339 121.5t-131 308.5q0 49 10 100zM338 506q-6 -30 -6 -58q0 -100 66 -164.5t172 -64.5q122 0 221 82.5
t123 204.5q6 30 6 58q0 101 -66 165t-172 64q-122 0 -221 -82.5t-123 -204.5z" />
    <glyph glyph-name="tau" unicode="&#x3c4;" horiz-adv-x="989" 
d="M315 358l85 435h-304l47 243h905l-47 -243h-326l-81 -415q-6 -28 -6 -50q0 -91 106 -91h49l-46 -236q-46 -4 -93 -4q-156 0 -229 57t-73 182q0 57 13 122z" />
    <glyph glyph-name="upsilon" unicode="&#x3c5;" horiz-adv-x="1160" 
d="M475 -24q-173 0 -282 99.5t-109 252.5q0 37 8 80l122 628h275l-119 -614q-5 -27 -5 -45q0 -70 43.5 -114t113.5 -44q82 0 148.5 58t83.5 145l119 614h275l-122 -628q-23 -119 -104 -218.5t-199.5 -156.5t-247.5 -57z" />
    <glyph glyph-name="phi" unicode="&#x3c6;" horiz-adv-x="1405" 
d="M349 945l144 -169q-138 -110 -168 -258q-6 -30 -6 -60q0 -93 54.5 -157.5t146.5 -80.5l164 840h190q213 0 344.5 -123.5t131.5 -314.5q0 -53 -10 -104q-41 -212 -214.5 -364.5t-397.5 -173.5l-87 -444h-254l87 444q-190 17 -304.5 137.5t-114.5 297.5q0 53 10 103
q25 130 101.5 240.5t182.5 186.5zM1081 518q6 30 6 59q0 91 -54 155.5t-143 81.5l-116 -594q113 20 199 103t108 195z" />
    <glyph glyph-name="chi" unicode="&#x3c7;" horiz-adv-x="1060" 
d="M1135 1036l-484 -730l212 -770h-292l-133 510l-331 -510h-291l511 770l-200 730h292l120 -471l304 471h292z" />
    <glyph glyph-name="psi" unicode="&#x3c8;" horiz-adv-x="1383" 
d="M921 1036l-155 -796q93 30 158.5 100.5t83.5 162.5l104 533h259l-107 -550q-36 -186 -189 -323.5t-358 -174.5l-88 -452h-257l88 452q-165 32 -263.5 142t-98.5 264q0 44 9 92l107 550h259l-104 -533q-5 -26 -5 -54q0 -73 38.5 -128.5t106.5 -80.5l155 796h257z" />
    <glyph glyph-name="omega" unicode="&#x3c9;" horiz-adv-x="1611" 
d="M1001 818l-56 -285q-12 -63 -12 -119q0 -89 30 -142t85 -53q70 0 132.5 82.5t86.5 206.5q13 66 13 137q0 184 -84 391h273q89 -206 89 -385q0 -73 -14 -143q-29 -148 -107.5 -270t-188 -192t-225.5 -70q-106 0 -180 59.5t-102 152.5q-62 -93 -159.5 -152.5t-203.5 -59.5
q-148 0 -238 111.5t-90 287.5q0 67 13 133q47 245 281 528h273q-230 -287 -277 -528q-10 -51 -10 -100q0 -85 31 -137t86 -52q73 0 136 90t89 224l56 285h273z" />
    <glyph glyph-name="iotadieresis" unicode="&#x3ca;" horiz-adv-x="588" 
d="M89 267l150 769h275l-136 -700q-3 -16 -3 -28q0 -68 80 -68h36l-46 -236q-48 -4 -92 -4q-271 0 -271 198q0 34 7 69zM96 1340q12 62 62.5 104t112.5 42q54 0 88 -33t34 -84q0 -14 -3 -29q-12 -62 -63 -104t-113 -42q-54 0 -87.5 33t-33.5 84q0 14 3 29zM482 1340
q12 62 62.5 104t112.5 42q54 0 88 -33t34 -84q0 -14 -3 -29q-12 -62 -63 -104t-113 -42q-54 0 -87.5 33t-33.5 84q0 14 3 29z" />
    <glyph glyph-name="upsilondieresis" unicode="&#x3cb;" horiz-adv-x="1160" 
d="M475 -24q-173 0 -282 99.5t-109 252.5q0 37 8 80l122 628h275l-119 -614q-5 -27 -5 -45q0 -70 43.5 -114t113.5 -44q82 0 148.5 58t83.5 145l119 614h275l-122 -628q-23 -119 -104 -218.5t-199.5 -156.5t-247.5 -57zM400 1340q12 62 62.5 104t112.5 42q54 0 88 -33
t34 -84q0 -14 -3 -29q-12 -62 -63 -104t-113 -42q-54 0 -87.5 33t-33.5 84q0 14 3 29zM786 1340q12 62 62.5 104t112.5 42q54 0 88 -33t34 -84q0 -14 -3 -29q-12 -62 -63 -104t-113 -42q-54 0 -87.5 33t-33.5 84q0 14 3 29z" />
    <glyph glyph-name="omicrontonos" unicode="&#x3cc;" horiz-adv-x="1280" 
d="M65 518q29 150 128 274t245 196t308 72q216 0 347.5 -123t131.5 -315q0 -53 -10 -104q-29 -150 -127.5 -274t-244.5 -196t-308 -72q-215 0 -347.5 123.5t-132.5 314.5q0 53 10 104zM341 518q-6 -31 -6 -61q0 -104 68.5 -171t178.5 -67q127 0 230 86t128 213q6 32 6 60
q0 104 -68.5 171.5t-179.5 67.5q-127 0 -229.5 -86.5t-127.5 -212.5zM593 1184l327 342h276l-341 -342h-262z" />
    <glyph glyph-name="upsilontonos" unicode="&#x3cd;" horiz-adv-x="1160" 
d="M475 -24q-173 0 -282 99.5t-109 252.5q0 37 8 80l122 628h275l-119 -614q-5 -27 -5 -45q0 -70 43.5 -114t113.5 -44q82 0 148.5 58t83.5 145l119 614h275l-122 -628q-23 -119 -104 -218.5t-199.5 -156.5t-247.5 -57zM523 1184l327 342h276l-341 -342h-262z" />
    <glyph glyph-name="omegatonos" unicode="&#x3ce;" horiz-adv-x="1611" 
d="M1001 818l-56 -285q-12 -63 -12 -119q0 -89 30 -142t85 -53q70 0 132.5 82.5t86.5 206.5q13 66 13 137q0 184 -84 391h273q89 -206 89 -385q0 -73 -14 -143q-29 -148 -107.5 -270t-188 -192t-225.5 -70q-106 0 -180 59.5t-102 152.5q-62 -93 -159.5 -152.5t-203.5 -59.5
q-148 0 -238 111.5t-90 287.5q0 67 13 133q47 245 281 528h273q-230 -287 -277 -528q-10 -51 -10 -100q0 -85 31 -137t86 -52q73 0 136 90t89 224l56 285h273zM767 1184l327 342h276l-341 -342h-262z" />
    <glyph glyph-name="uni0400" unicode="&#x400;" horiz-adv-x="1146" 
d="M53 0l272 1400h872l-47 -242h-588l-65 -334h540l-47 -240h-540l-66 -342h606l-47 -242h-890zM755 1850l195 -342h-262l-209 342h276z" />
    <glyph glyph-name="afii10023" unicode="&#x401;" horiz-adv-x="1146" 
d="M53 0l272 1400h872l-47 -242h-588l-65 -334h540l-47 -240h-540l-66 -342h606l-47 -242h-890zM476 1664q12 62 62.5 104t112.5 42q54 0 88 -33t34 -84q0 -14 -3 -29q-12 -62 -63 -104t-113 -42q-54 0 -87.5 33t-33.5 84q0 14 3 29zM862 1664q12 62 62.5 104t112.5 42
q54 0 88 -33t34 -84q0 -14 -3 -29q-12 -62 -63 -104t-113 -42q-54 0 -87.5 33t-33.5 84q0 14 3 29z" />
    <glyph glyph-name="afii10051" unicode="&#x402;" horiz-adv-x="1446" 
d="M870 -4q-62 0 -93 4l45 235h48q74 0 133 49.5t73 122.5l14 74q3 18 3 36q0 62 -40.5 101.5t-107.5 39.5q-151 0 -245 -130l-102 -528h-284l225 1158h-359l47 242h1003l-47 -242h-360l-72 -368q124 110 291 110q153 0 248 -91t95 -232q0 -38 -7 -77l-21 -109
q-33 -167 -174 -281t-313 -114z" />
    <glyph glyph-name="afii10052" unicode="&#x403;" horiz-adv-x="1040" 
d="M53 0l272 1400h852l-48 -245h-568l-224 -1155h-284zM594 1546l327 342h276l-341 -342h-262z" />
    <glyph glyph-name="afii10053" unicode="&#x404;" horiz-adv-x="1388" 
d="M723 -24q-278 0 -451 163.5t-173 418.5q0 69 14 142q39 201 169.5 367t321.5 261.5t400 95.5q285 0 459 -171l-185 -204q-60 60 -143.5 96t-177.5 36q-166 0 -312 -102.5t-214 -262.5h650l-45 -232h-650q5 -161 111.5 -263t272.5 -102q176 0 378 133l103 -205
q-246 -171 -528 -171z" />
    <glyph glyph-name="afii10054" unicode="&#x405;" horiz-adv-x="1194" 
d="M30 201l200 191q58 -78 139 -125.5t174 -47.5q98 0 172.5 44.5t92.5 121.5q5 22 5 40q0 62 -56 107t-190 75q-175 38 -265.5 124t-90.5 212q0 34 8 77q23 117 100 209t193 143.5t251 51.5q139 0 247.5 -46.5t180.5 -131.5l-193 -199q-129 136 -270 136
q-83 0 -144.5 -39.5t-73.5 -102.5q-3 -17 -3 -33q0 -60 54 -101.5t176 -70.5q190 -46 280 -132.5t90 -216.5q0 -43 -9 -89q-37 -187 -198.5 -304.5t-397.5 -117.5q-153 0 -277 59.5t-195 165.5z" />
    <glyph glyph-name="afii10055" unicode="&#x406;" horiz-adv-x="606" 
d="M333 1400h284l-272 -1400h-284z" />
    <glyph glyph-name="afii10056" unicode="&#x407;" horiz-adv-x="606" 
d="M333 1400h284l-272 -1400h-284zM186 1664q12 62 62.5 104t112.5 42q54 0 88 -33t34 -84q0 -14 -3 -29q-12 -62 -63 -104t-113 -42q-54 0 -87.5 33t-33.5 84q0 14 3 29zM572 1664q12 62 62.5 104t112.5 42q54 0 88 -33t34 -84q0 -14 -3 -29q-12 -62 -63 -104t-113 -42
q-54 0 -87.5 33t-33.5 84q0 14 3 29z" />
    <glyph glyph-name="afii10057" unicode="&#x408;" horiz-adv-x="930" 
d="M492 456l184 944h284l-186 -954q-46 -236 -186 -353t-364 -117q-79 0 -155.5 18.5t-127.5 51.5l128 234q81 -56 179 -56q198 0 244 232z" />
    <glyph glyph-name="afii10058" unicode="&#x409;" horiz-adv-x="2022" 
d="M1413 1400l-98 -503h226q194 0 304 -95.5t110 -256.5q0 -51 -9 -97q-39 -201 -197.5 -324.5t-381.5 -123.5h-510l224 1155h-444l-153 -789q-38 -195 -151.5 -282.5t-311.5 -87.5q-38 0 -86 4l46 241h56q71 0 111.5 35.5t57.5 120.5l195 1003h1012zM1659 448q5 24 5 52
q0 76 -50 117.5t-144 41.5h-201l-82 -422h201q110 0 180.5 55t90.5 156z" />
    <glyph glyph-name="afii10059" unicode="&#x40a;" horiz-adv-x="2027" 
d="M1418 1400l-98 -503h226q194 0 304 -95.5t110 -256.5q0 -53 -9 -97q-39 -201 -197.5 -324.5t-381.5 -123.5h-510l112 581h-525l-112 -581h-284l272 1400h284l-112 -574h525l112 574h284zM1664 448q5 24 5 52q0 76 -50 117.5t-144 41.5h-201l-82 -422h201q110 0 180.5 55
t90.5 156z" />
    <glyph glyph-name="afii10060" unicode="&#x40b;" horiz-adv-x="1494" 
d="M1378 500l-97 -500h-284l93 481q3 18 3 35q0 62 -40.5 102t-107.5 40q-151 0 -245 -130l-102 -528h-284l225 1158h-359l47 242h1003l-47 -242h-360l-72 -368q124 110 291 110q153 0 248 -91t95 -232q0 -41 -7 -77z" />
    <glyph glyph-name="afii10061" unicode="&#x40c;" horiz-adv-x="1239" 
d="M609 1400l-111 -571h80l463 571h313l-563 -690l368 -710h-319l-302 584h-88l-113 -584h-284l272 1400h284zM610 1508l327 342h276l-341 -342h-262z" />
    <glyph glyph-name="uni040D" unicode="&#x40d;" horiz-adv-x="1414" 
d="M1433 1400l-272 -1400h-268l183 942l-735 -942h-288l272 1400h268l-183 -942l735 942h288zM892 1850l195 -342h-262l-209 342h276z" />
    <glyph glyph-name="afii10062" unicode="&#x40e;" horiz-adv-x="1303" 
d="M1442 1400l-795 -1185q-143 -215 -366 -215h-186l47 245h132q86 0 144 84l69 100l-282 971h301l186 -695l449 695h301zM844 1488q-128 0 -212 74t-84 192q0 18 4 48h229q-2 -14 -2 -25q0 -46 28 -75t73 -29q52 0 94.5 37t54.5 92h229q-32 -136 -152.5 -225t-261.5 -89z
" />
    <glyph glyph-name="afii10145" unicode="&#x40f;" horiz-adv-x="1362" 
d="M872 245l225 1155h284l-272 -1400h-386l-55 -280h-284l55 280h-386l272 1400h284l-225 -1155h488z" />
    <glyph glyph-name="afii10017" unicode="&#x410;" horiz-adv-x="1382" 
d="M706 1400h314l229 -1400h-301l-43 315h-506l-165 -315h-301zM877 547l-73 550l-287 -550h360z" />
    <glyph glyph-name="afii10018" unicode="&#x411;" horiz-adv-x="1225" 
d="M511 897h226q194 0 304 -95.5t110 -256.5q0 -52 -9 -97q-39 -201 -197.5 -324.5t-381.5 -123.5h-510l272 1400h882l-47 -238h-598zM855 448q5 26 5 52q0 76 -50 117.5t-144 41.5h-201l-82 -422h201q110 0 180.5 55t90.5 156z" />
    <glyph glyph-name="afii10019" unicode="&#x412;" horiz-adv-x="1252" 
d="M649 0h-596l272 1400h527q167 0 258 -77.5t91 -213.5q0 -41 -9 -88q-20 -100 -79.5 -172t-143.5 -106q85 -24 136 -92t51 -167q0 -34 -8 -76q-36 -181 -172.5 -294.5t-326.5 -113.5zM912 999q4 21 4 44q0 60 -35 91t-97 31h-226l-64 -331h226q72 0 124.5 43t67.5 122z
M866 421q5 28 5 49q0 64 -37 101t-101 37h-283l-73 -373h283q76 0 133 51t73 135z" />
    <glyph glyph-name="afii10020" unicode="&#x413;" horiz-adv-x="1040" 
d="M53 0l272 1400h852l-48 -245h-568l-224 -1155h-284z" />
    <glyph glyph-name="afii10021" unicode="&#x414;" horiz-adv-x="1348" 
d="M1238 235l-100 -515h-279l55 280h-680l-55 -280h-279l100 515h103q242 384 355 967l39 198h845l-227 -1165h123zM397 235h439l181 930h-291q-48 -245 -133.5 -491.5t-195.5 -438.5z" />
    <glyph glyph-name="afii10022" unicode="&#x415;" horiz-adv-x="1146" 
d="M53 0l272 1400h872l-47 -242h-588l-65 -334h540l-47 -240h-540l-66 -342h606l-47 -242h-890z" />
    <glyph glyph-name="afii10024" unicode="&#x416;" horiz-adv-x="1818" 
d="M234 1400h312l223 -571h59l111 571h284l-111 -571h59l445 571h312l-543 -690l348 -710h-318l-283 584h-68l-113 -584h-284l113 584h-68l-509 -584h-318l624 710z" />
    <glyph glyph-name="afii10025" unicode="&#x417;" horiz-adv-x="1073" 
d="M389 1095l-131 160q170 169 420 169q165 0 263 -85t98 -219q0 -29 -7 -69q-18 -92 -85.5 -168t-163.5 -116q93 -38 148 -114.5t55 -174.5q0 -31 -7 -67q-23 -121 -108 -220.5t-211 -157t-265 -57.5t-246.5 59.5t-158.5 164.5l201 167q79 -159 244 -159q96 0 173 63
t94 155q5 27 5 45q0 80 -59.5 127.5t-165.5 47.5h-145l45 229h148q91 0 155.5 45.5t78.5 116.5q3 15 3 29q0 56 -43 91t-113 35q-117 0 -222 -97z" />
    <glyph glyph-name="afii10026" unicode="&#x418;" horiz-adv-x="1414" 
d="M1433 1400l-272 -1400h-268l183 942l-735 -942h-288l272 1400h268l-183 -942l735 942h288z" />
    <glyph glyph-name="afii10027" unicode="&#x419;" horiz-adv-x="1414" 
d="M1433 1400l-272 -1400h-268l183 942l-735 -942h-288l272 1400h268l-183 -942l735 942h288zM896 1488q-128 0 -212 74t-84 192q0 18 4 48h229q-2 -14 -2 -25q0 -46 28 -75t73 -29q52 0 94.5 37t54.5 92h229q-32 -136 -152.5 -225t-261.5 -89z" />
    <glyph glyph-name="afii10028" unicode="&#x41a;" horiz-adv-x="1239" 
d="M609 1400l-111 -571h80l463 571h313l-563 -690l368 -710h-319l-302 584h-88l-113 -584h-284l272 1400h284z" />
    <glyph glyph-name="afii10029" unicode="&#x41b;" horiz-adv-x="1429" 
d="M637 1155l-153 -789q-38 -195 -151.5 -282.5t-311.5 -87.5q-38 0 -86 4l46 241h56q71 0 111.5 35.5t57.5 120.5l195 1003h1047l-272 -1400h-284l224 1155h-479z" />
    <glyph glyph-name="afii10030" unicode="&#x41c;" horiz-adv-x="1718" 
d="M934 418h-188l-237 553l-188 -971h-268l272 1400h290l285 -672l547 672h290l-272 -1400h-268l188 971z" />
    <glyph glyph-name="afii10031" unicode="&#x41d;" horiz-adv-x="1414" 
d="M53 0l272 1400h284l-112 -574h540l112 574h284l-272 -1400h-284l112 581h-540l-112 -581h-284z" />
    <glyph glyph-name="afii10032" unicode="&#x41e;" horiz-adv-x="1656" 
d="M400 700q-10 -49 -10 -99q0 -166 106 -271.5t275 -105.5q196 0 356.5 137t199.5 339q11 53 11 98q0 166 -106 272t-276 106q-196 0 -356.5 -137t-199.5 -339zM113 700q39 201 169.5 367t321.5 261.5t400 95.5q279 0 452 -163.5t173 -419.5q0 -66 -14 -141
q-39 -201 -170 -367t-322 -261.5t-400 -95.5q-278 0 -451 163.5t-173 418.5q0 73 14 142z" />
    <glyph glyph-name="afii10033" unicode="&#x41f;" horiz-adv-x="1362" 
d="M1381 1400l-272 -1400h-284l224 1155h-488l-224 -1155h-284l272 1400h1056z" />
    <glyph glyph-name="afii10034" unicode="&#x420;" horiz-adv-x="1200" 
d="M642 488h-211l-94 -488h-284l272 1400h495q192 0 301 -96t109 -259q0 -51 -10 -101q-40 -205 -198 -330.5t-380 -125.5zM936 944q6 28 6 55q0 78 -49 122.5t-142 44.5h-188l-86 -444h188q109 0 180 59.5t91 162.5z" />
    <glyph glyph-name="afii10035" unicode="&#x421;" horiz-adv-x="1390" 
d="M723 -24q-278 0 -451 163.5t-173 418.5q0 73 14 142q39 201 169.5 367t321.5 261.5t400 95.5q271 0 449 -162l-184 -211q-72 60 -145.5 92.5t-167.5 32.5q-128 0 -246 -62t-200.5 -171.5t-109.5 -242.5q-10 -49 -10 -99q0 -166 106 -271.5t275 -105.5q185 0 373 135
l110 -209q-245 -174 -531 -174z" />
    <glyph glyph-name="afii10036" unicode="&#x422;" horiz-adv-x="1114" 
d="M315 0l224 1155h-360l48 245h1004l-48 -245h-360l-224 -1155h-284z" />
    <glyph glyph-name="afii10037" unicode="&#x423;" horiz-adv-x="1303" 
d="M1442 1400l-795 -1185q-143 -215 -366 -215h-186l47 245h132q86 0 144 84l69 100l-282 971h301l186 -695l449 695h301z" />
    <glyph glyph-name="afii10038" unicode="&#x424;" horiz-adv-x="1546" 
d="M536 0l37 192q-213 0 -349 117.5t-136 299.5q0 43 9 89q28 141 127 257t243.5 182.5t302.5 66.5l38 196h274l-38 -196q213 0 348.5 -117.5t135.5 -298.5q0 -44 -9 -90q-27 -141 -126 -257t-243.5 -182.5t-302.5 -66.5l-37 -192h-274zM1242 698q5 27 5 47q0 94 -69.5 156
t-180.5 62l-104 -531q125 0 226.5 77.5t122.5 188.5zM374 698q-4 -21 -4 -46q0 -95 69.5 -157.5t179.5 -62.5l104 531q-125 0 -226 -77t-123 -188z" />
    <glyph glyph-name="afii10039" unicode="&#x425;" horiz-adv-x="1286" 
d="M1161 0h-309l-209 516l-409 -516h-309l582 714l-290 686h309l194 -487l384 487h309l-558 -686z" />
    <glyph glyph-name="afii10040" unicode="&#x426;" horiz-adv-x="1387" 
d="M961 0h-908l272 1400h284l-225 -1155h488l225 1155h284l-225 -1155h123l-102 -525h-271z" />
    <glyph glyph-name="afii10041" unicode="&#x427;" horiz-adv-x="1272" 
d="M189 909l96 491h284l-92 -471q-4 -19 -4 -41q0 -69 45 -112.5t120 -43.5q77 0 149 39.5t117 102.5l103 526h284l-272 -1400h-284l118 608q-60 -53 -146 -85.5t-167 -32.5q-159 0 -259 95t-100 242q0 37 8 82z" />
    <glyph glyph-name="afii10042" unicode="&#x428;" horiz-adv-x="1962" 
d="M1472 245l225 1155h284l-272 -1400h-1656l272 1400h284l-225 -1155h402l225 1155h284l-225 -1155h402z" />
    <glyph glyph-name="afii10043" unicode="&#x429;" horiz-adv-x="1987" 
d="M1561 0h-1508l272 1400h284l-225 -1155h402l225 1155h284l-225 -1155h402l225 1155h284l-225 -1155h123l-102 -525h-271z" />
    <glyph glyph-name="afii10044" unicode="&#x42a;" horiz-adv-x="1446" 
d="M739 897h226q194 0 304 -95.5t110 -256.5q0 -53 -9 -97q-38 -200 -197 -324t-382 -124h-510l225 1162h-326l47 238h610zM1083 448q5 30 5 52q0 76 -49.5 117.5t-144.5 41.5h-201l-82 -422h201q110 0 180.5 55.5t90.5 155.5z" />
    <glyph glyph-name="afii10045" unicode="&#x42b;" horiz-adv-x="1720" 
d="M325 1400h284l-98 -503h226q194 0 304 -95.5t110 -256.5q0 -52 -9 -97q-40 -201 -198 -324.5t-381 -123.5h-510zM855 448q5 30 5 52q0 76 -49.5 117.5t-144.5 41.5h-201l-82 -422h201q110 0 180.5 55.5t90.5 155.5zM1455 1400h284l-272 -1400h-284z" />
    <glyph glyph-name="afii10046" unicode="&#x42c;" horiz-adv-x="1218" 
d="M325 1400h284l-98 -503h226q194 0 304 -95.5t110 -256.5q0 -52 -9 -97q-40 -201 -198 -324.5t-381 -123.5h-510zM855 448q5 30 5 52q0 76 -49.5 117.5t-144.5 41.5h-201l-82 -422h201q110 0 180.5 55.5t90.5 155.5z" />
    <glyph glyph-name="afii10047" unicode="&#x42d;" horiz-adv-x="1388" 
d="M455 -24q-283 0 -462 171l183 205q149 -133 326 -133q166 0 311.5 102t214.5 263h-650l45 232h650q-6 160 -112 262.5t-272 102.5q-186 0 -373 -132l-105 204q241 171 525 171q279 0 452 -163.5t173 -419.5q0 -66 -14 -141q-39 -201 -170 -367t-322 -261.5t-400 -95.5z
" />
    <glyph glyph-name="afii10048" unicode="&#x42e;" horiz-adv-x="2162" 
d="M449 581l-112 -581h-284l272 1400h284l-112 -574h163q95 260 333.5 429t519.5 169q183 0 325.5 -75.5t219.5 -208t77 -299.5q0 -66 -14 -141q-39 -201 -170 -367t-321 -261.5t-398 -95.5q-278 0 -450 164t-172 421v20h-161zM911 700q-10 -49 -10 -99q0 -166 105.5 -271.5
t273.5 -105.5q194 0 354 137t200 339q10 49 10 98q0 166 -105.5 272t-273.5 106q-194 0 -354.5 -137.5t-199.5 -338.5z" />
    <glyph glyph-name="afii10049" unicode="&#x42f;" horiz-adv-x="1227" 
d="M751 1400h495l-272 -1400h-282l96 498h-111l-410 -498h-310l441 528q-113 35 -173.5 118.5t-60.5 202.5q0 50 10 100q40 204 197 327.5t380 123.5zM918 1166h-191q-108 0 -179 -59.5t-91 -161.5q-5 -24 -5 -54q0 -78 48 -122t141 -44h191z" />
    <glyph glyph-name="afii10065" unicode="&#x430;" horiz-adv-x="1315" 
d="M582 219q89 0 170.5 45t131.5 120l52 268q-21 75 -85 120t-153 45q-127 0 -229.5 -86t-127.5 -213q-6 -31 -6 -61q0 -104 68.5 -171t178.5 -67zM688 1060q196 0 303 -128l20 104h272l-201 -1036h-272l20 104q-157 -128 -353 -128q-191 0 -307 121.5t-116 307.5
q0 59 11 113q29 147 119.5 271t224 197.5t279.5 73.5z" />
    <glyph glyph-name="afii10066" unicode="&#x431;" horiz-adv-x="1234" 
d="M452 844q66 52 148.5 82t165.5 30q180 0 291.5 -109.5t111.5 -280.5q0 -41 -10 -98q-27 -139 -118 -251.5t-227 -176.5t-291 -64q-201 0 -322.5 114t-121.5 327q0 72 17 162q45 233 117 390t190.5 261.5t278.5 157.5t391 72l-7 -243q-157 -15 -259 -39.5t-172.5 -70
t-110.5 -106.5t-72 -157zM368 556q-11 -60 -11 -104q0 -114 57.5 -173.5t155.5 -59.5q116 0 205 70.5t109 176.5q5 28 5 49q0 87 -59 142.5t-154 55.5q-85 0 -165 -42.5t-143 -114.5z" />
    <glyph glyph-name="afii10067" unicode="&#x432;" horiz-adv-x="1045" 
d="M501 0h-468l201 1036h436q131 0 213.5 -65.5t82.5 -168.5q0 -23 -5 -48q-13 -68 -62.5 -124t-117.5 -82q66 -17 105.5 -72t39.5 -126q0 -20 -5 -47q-25 -128 -146 -215.5t-274 -87.5zM557 433h-182l-43 -220h182q55 0 97 31t51 78q2 10 2 21q0 40 -29 65t-78 25zM413 631
h154q50 0 87 27t45 69q2 10 2 18q0 35 -27 56t-70 21h-154z" />
    <glyph glyph-name="afii10068" unicode="&#x433;" horiz-adv-x="840" 
d="M851 793h-389l-154 -793h-275l201 1036h664z" />
    <glyph glyph-name="afii10069" unicode="&#x434;" horiz-adv-x="1128" 
d="M1027 217l-84 -429h-260l42 212h-523l-42 -212h-259l84 429h104q196 295 298 819h678l-159 -819h121zM365 217h285l117 601h-174q-29 -147 -90.5 -310t-137.5 -291z" />
    <glyph glyph-name="afii10070" unicode="&#x435;" horiz-adv-x="1236" 
d="M327 436v-8q0 -105 69.5 -169t183.5 -64q164 0 319 129l134 -160q-209 -188 -494 -188q-222 0 -353.5 122t-131.5 313q0 49 11 107q29 150 126.5 274t241 196t301.5 72q205 0 328 -118.5t123 -301.5q0 -53 -10 -104q-10 -52 -32 -100h-816zM689 841q-97 0 -183.5 -57
t-133.5 -152h538q-5 94 -63.5 151.5t-157.5 57.5z" />
    <glyph glyph-name="afii10072" unicode="&#x436;" horiz-adv-x="1605" 
d="M1196 0l-183 435h-89l-84 -435h-275l84 435h-90l-350 -435h-305l456 552l-210 484h310l146 -365h89l71 365h275l-71 -365h89l288 365h310l-398 -484l242 -552h-305z" />
    <glyph glyph-name="afii10073" unicode="&#x437;" horiz-adv-x="962" 
d="M590 318q2 10 2 20q0 47 -41 77.5t-104 30.5h-151l42 213h157q54 0 94.5 27t48.5 67q1 5 1 13q0 34 -31 55t-79 21q-54 0 -99 -24t-73 -66l-190 122q64 87 170 136.5t238 49.5q150 0 243.5 -68.5t93.5 -174.5q0 -24 -4 -44q-14 -70 -69 -130t-133 -86q69 -23 112.5 -80
t43.5 -131q0 -27 -4 -47q-28 -138 -171 -230.5t-329 -92.5q-137 0 -234.5 49.5t-138.5 136.5l216 139q28 -52 81 -80.5t122 -28.5t122.5 36t63.5 90z" />
    <glyph glyph-name="afii10074" unicode="&#x438;" horiz-adv-x="1246" 
d="M1214 1036l-201 -1036h-266l125 648l-590 -648h-249l201 1036h266l-126 -648l591 648h249z" />
    <glyph glyph-name="afii10075" unicode="&#x439;" horiz-adv-x="1246" 
d="M1214 1036l-201 -1036h-266l125 648l-590 -648h-249l201 1036h266l-126 -648l591 648h249zM749 1164q-128 0 -212 74t-84 192q0 18 4 48h229q-2 -14 -2 -25q0 -46 28 -75t73 -29q52 0 94.5 37t54.5 92h229q-32 -136 -152.5 -225t-261.5 -89z" />
    <glyph glyph-name="afii10076" unicode="&#x43a;" horiz-adv-x="1073" 
d="M664 0l-183 453h-85l-88 -453h-275l201 1036h275l-68 -347h89l285 347h310l-395 -466l239 -570h-305z" />
    <glyph glyph-name="afii10077" unicode="&#x43b;" horiz-adv-x="1246" 
d="M1214 1036l-201 -1036h-275l154 795h-346l-93 -481q-27 -140 -142 -231t-264 -91q-64 0 -104 8l46 239h51q54 0 95 33t51 87l132 677h896z" />
    <glyph glyph-name="afii10078" unicode="&#x43c;" horiz-adv-x="1374" 
d="M499 1036l193 -493l385 493h265l-201 -1036h-260l125 647l-282 -352h-160l-146 352l-125 -647h-260l201 1036h265z" />
    <glyph glyph-name="afii10079" unicode="&#x43d;" horiz-adv-x="1246" 
d="M1214 1036l-201 -1036h-275l80 415h-430l-80 -415h-275l201 1036h275l-74 -380h430l74 380h275z" />
    <glyph glyph-name="afii10080" unicode="&#x43e;" horiz-adv-x="1280" 
d="M65 518q29 150 128 274t245 196t308 72q216 0 347.5 -123t131.5 -315q0 -53 -10 -104q-29 -150 -127.5 -274t-244.5 -196t-308 -72q-215 0 -347.5 123.5t-132.5 314.5q0 53 10 104zM341 518q-6 -31 -6 -61q0 -104 68.5 -171t178.5 -67q127 0 230 86t128 213q6 32 6 60
q0 104 -68.5 171.5t-179.5 67.5q-127 0 -229.5 -86.5t-127.5 -212.5z" />
    <glyph glyph-name="afii10081" unicode="&#x43f;" horiz-adv-x="1246" 
d="M1214 1036l-201 -1036h-275l154 795h-430l-154 -795h-275l201 1036h980z" />
    <glyph glyph-name="afii10082" unicode="&#x440;" horiz-adv-x="1315" 
d="M617 219q127 0 229.5 86t127.5 213q6 32 6 61q0 104 -68.5 171t-178.5 67q-89 0 -170.5 -45t-131.5 -120l-52 -268q21 -75 85 -120t153 -45zM839 1060q191 0 306.5 -121.5t115.5 -307.5q0 -59 -11 -113q-29 -147 -119.5 -271t-223.5 -197.5t-279 -73.5q-198 0 -303 128
l-111 -568h-272l292 1500h272l-20 -104q155 128 353 128z" />
    <glyph glyph-name="afii10083" unicode="&#x441;" horiz-adv-x="1111" 
d="M535 -24q-215 0 -347.5 123.5t-132.5 314.5q0 53 10 104q29 150 128 274t245 196t308 72q225 0 364 -139l-176 -205q-105 101 -234 101q-127 0 -229.5 -86.5t-127.5 -212.5q-6 -31 -6 -61q0 -104 68.5 -171t178.5 -67q136 0 280 109l116 -192q-197 -160 -445 -160z" />
    <glyph glyph-name="afii10084" unicode="&#x442;" horiz-adv-x="966" 
d="M399 793h-302l47 243h880l-47 -243h-303l-154 -793h-275z" />
    <glyph glyph-name="afii10085" unicode="&#x443;" horiz-adv-x="1074" 
d="M313 -464h-287l273 464l-179 1036h286l96 -688l368 688h286z" />
    <glyph glyph-name="afii10086" unicode="&#x444;" horiz-adv-x="2092" 
d="M582 219q89 0 170.5 45t131.5 120l52 268q-21 75 -85 120t-153 45q-127 0 -229.5 -86t-127.5 -213q-6 -31 -6 -61q0 -104 68.5 -171t178.5 -67zM1102 104l-111 -568h-272l111 568q-157 -128 -353 -128q-191 0 -307 121.5t-116 307.5q0 59 11 113q29 147 119.5 271
t224 197.5t279.5 73.5q196 0 303 -128l102 528h272l-102 -528q155 128 353 128q191 0 306.5 -121.5t115.5 -307.5q0 -59 -11 -113q-29 -147 -119.5 -271t-223.5 -197.5t-279 -73.5q-198 0 -303 128zM1394 219q127 0 229.5 86t127.5 213q6 31 6 61q0 104 -68.5 171t-178.5 67
q-89 0 -170.5 -45t-131.5 -120l-52 -268q21 -75 85 -120t153 -45z" />
    <glyph glyph-name="afii10087" unicode="&#x445;" horiz-adv-x="1074" 
d="M955 0h-298l-152 352l-288 -352h-298l442 528l-215 508h298l129 -333l259 333h298l-413 -508z" />
    <glyph glyph-name="afii10088" unicode="&#x446;" horiz-adv-x="1278" 
d="M1214 1036l-155 -796h122l-101 -520h-263l55 280h-839l201 1036h275l-155 -796h430l155 796h275z" />
    <glyph glyph-name="afii10089" unicode="&#x447;" horiz-adv-x="1118" 
d="M610 0l76 391q-111 -108 -260 -108q-143 0 -233 88.5t-90 224.5q0 40 7 76l71 364h275l-68 -349q-3 -18 -3 -34q0 -57 36.5 -93.5t99.5 -36.5q66 0 121 35.5t94 93.5l75 384h275l-201 -1036h-275z" />
    <glyph glyph-name="afii10090" unicode="&#x448;" horiz-adv-x="1595" 
d="M1563 1036l-201 -1036h-1329l201 1036h268l-155 -796h263l155 796h267l-155 -796h263l155 796h268z" />
    <glyph glyph-name="afii10091" unicode="&#x449;" horiz-adv-x="1627" 
d="M1221 0h-1188l201 1036h268l-155 -796h263l155 796h267l-155 -796h263l155 796h268l-155 -796h122l-101 -520h-263z" />
    <glyph glyph-name="afii10092" unicode="&#x44a;" horiz-adv-x="1218" 
d="M861 358q3 15 3 28q0 52 -35.5 84.5t-93.5 32.5h-161l-56 -290h161q65 0 117.5 41.5t64.5 103.5zM1129 358q-19 -99 -85.5 -181t-164.5 -129.5t-206 -47.5h-464l157 809h-266l44 227h534l-62 -319h196q144 0 234 -82.5t90 -209.5q0 -27 -7 -67z" />
    <glyph glyph-name="afii10093" unicode="&#x44b;" horiz-adv-x="1498" 
d="M685 358q3 15 3 28q0 52 -36 84.5t-94 32.5h-160l-56 -290h160q66 0 118.5 41.5t64.5 103.5zM953 358q-29 -151 -161 -254.5t-296 -103.5h-463l201 1036h268l-62 -319h195q145 0 235 -82.5t90 -209.5q0 -27 -7 -67zM990 0l201 1036h275l-201 -1036h-275z" />
    <glyph glyph-name="afii10094" unicode="&#x44c;" horiz-adv-x="1042" 
d="M685 358q3 15 3 28q0 52 -36 84.5t-94 32.5h-160l-56 -290h160q66 0 118.5 41.5t64.5 103.5zM953 358q-29 -151 -161 -254.5t-296 -103.5h-463l201 1036h268l-62 -319h195q145 0 235 -82.5t90 -209.5q0 -27 -7 -67z" />
    <glyph glyph-name="afii10095" unicode="&#x44d;" horiz-adv-x="1111" 
d="M366 -24q-123 0 -221.5 42t-161.5 118l186 183q103 -113 240 -113q102 0 192.5 58t138.5 151h-429l39 201h431q-11 95 -79.5 154t-171.5 59q-127 0 -277 -105l-94 197q191 139 418 139q215 0 347 -123.5t132 -314.5q0 -53 -10 -104q-45 -229 -240 -385.5t-440 -156.5z
" />
    <glyph glyph-name="afii10096" unicode="&#x44e;" horiz-adv-x="1733" 
d="M1199 1060q216 0 347.5 -123t131.5 -315q0 -53 -10 -104q-29 -150 -127.5 -274t-244.5 -196t-308 -72q-211 0 -342 118.5t-136 303.5h-128l-77 -398h-272l201 1036h272l-77 -395h129q78 183 255 301t386 118zM1035 219q127 0 230 86t128 213q6 32 6 60q0 104 -68.5 171.5
t-179.5 67.5q-127 0 -229.5 -86.5t-127.5 -212.5q-6 -31 -6 -61q0 -104 68.5 -171t178.5 -67z" />
    <glyph glyph-name="afii10097" unicode="&#x44f;" horiz-adv-x="1113" 
d="M123 696q28 144 159 242t296 98h503l-201 -1036h-263l68 350h-103l-333 -350h-292l362 374q-94 29 -148 98t-54 162q0 30 6 62zM776 822h-213q-63 0 -113 -36t-60 -90q-2 -10 -2 -24q0 -46 35 -74.5t91 -28.5h213z" />
    <glyph glyph-name="uni0450" unicode="&#x450;" horiz-adv-x="1236" 
d="M327 436v-8q0 -105 69.5 -169t183.5 -64q164 0 319 129l134 -160q-209 -188 -494 -188q-222 0 -353.5 122t-131.5 313q0 49 11 107q29 150 126.5 274t241 196t301.5 72q205 0 328 -118.5t123 -301.5q0 -53 -10 -104q-10 -52 -32 -100h-816zM689 841q-97 0 -183.5 -57
t-133.5 -152h538q-5 94 -63.5 151.5t-157.5 57.5zM749 1526l195 -342h-262l-209 342h276z" />
    <glyph glyph-name="afii10071" unicode="&#x451;" horiz-adv-x="1236" 
d="M327 436v-8q0 -105 69.5 -169t183.5 -64q164 0 319 129l134 -160q-209 -188 -494 -188q-222 0 -353.5 122t-131.5 313q0 49 11 107q29 150 126.5 274t241 196t301.5 72q205 0 328 -118.5t123 -301.5q0 -53 -10 -104q-10 -52 -32 -100h-816zM689 841q-97 0 -183.5 -57
t-133.5 -152h538q-5 94 -63.5 151.5t-157.5 57.5zM438 1340q12 62 62.5 104t112.5 42q54 0 88 -33t34 -84q0 -14 -3 -29q-12 -62 -63 -104t-113 -42q-54 0 -87.5 33t-33.5 84q0 14 3 29zM824 1340q12 62 62.5 104t112.5 42q54 0 88 -33t34 -84q0 -14 -3 -29
q-12 -62 -63 -104t-113 -42q-54 0 -87.5 33t-33.5 84q0 14 3 29z" />
    <glyph glyph-name="afii10099" unicode="&#x452;" horiz-adv-x="1248" 
d="M143 1152l33 167h135l27 141h275l-27 -141h297l-33 -167h-297l-44 -230q65 63 150 100.5t168 37.5q157 0 249.5 -88.5t92.5 -236.5q0 -47 -10 -97l-144 -738q-70 -364 -478 -364q-67 0 -117 10l43 219q43 -5 92 -5q88 0 131 40.5t60 128.5l132 682q5 27 5 46
q0 71 -45.5 115.5t-125.5 44.5q-63 0 -133 -42t-118 -101l-131 -674h-275l223 1152h-135z" />
    <glyph glyph-name="afii10100" unicode="&#x453;" horiz-adv-x="840" 
d="M851 793h-389l-154 -793h-275l201 1036h664zM342 1184l327 342h276l-341 -342h-262z" />
    <glyph glyph-name="afii10101" unicode="&#x454;" horiz-adv-x="1111" 
d="M535 -24q-215 0 -347.5 123.5t-132.5 314.5q0 53 10 104q29 150 128 274t245 196t308 72q225 0 364 -139l-172 -197q-107 105 -235 105q-103 0 -194.5 -59t-140.5 -154h431l-39 -201h-429q11 -93 79.5 -151t171.5 -58q136 0 284 113l114 -183q-197 -160 -445 -160z" />
    <glyph glyph-name="afii10102" unicode="&#x455;" horiz-adv-x="947" 
d="M-10 148l172 171q38 -56 100.5 -89.5t138.5 -33.5q71 0 116.5 27.5t55.5 75.5q2 14 2 21q0 38 -36 63t-120 43q-279 60 -279 265q0 33 7 67q26 132 146 217t287 85q104 0 192 -38.5t148 -102.5l-165 -172q-96 93 -194 93q-57 0 -97.5 -23t-48.5 -63q-2 -10 -2 -17
q0 -76 143 -106q292 -63 292 -267q0 -34 -7 -68q-28 -140 -154 -230t-308 -90q-129 0 -231.5 45.5t-157.5 126.5z" />
    <glyph glyph-name="afii10103" unicode="&#x456;" horiz-adv-x="552" 
d="M38 0l201 1036h275l-201 -1036h-275zM268 1312q13 67 68.5 113t124.5 46q61 0 98.5 -36t37.5 -92q0 -15 -3 -31q-14 -68 -69.5 -113.5t-124.5 -45.5q-60 0 -97.5 35.5t-37.5 91.5q0 16 3 32z" />
    <glyph glyph-name="afii10104" unicode="&#x457;" horiz-adv-x="552" 
d="M38 0l201 1036h275l-201 -1036h-275zM96 1340q12 62 62.5 104t112.5 42q54 0 88 -33t34 -84q0 -14 -3 -29q-12 -62 -63 -104t-113 -42q-54 0 -87.5 33t-33.5 84q0 14 3 29zM482 1340q12 62 62.5 104t112.5 42q54 0 88 -33t34 -84q0 -14 -3 -29q-12 -62 -63 -104t-113 -42
q-54 0 -87.5 33t-33.5 84q0 14 3 29z" />
    <glyph glyph-name="afii10105" unicode="&#x458;" horiz-adv-x="552" 
d="M20 -90l219 1126h275l-222 -1140q-36 -184 -140.5 -272t-282.5 -88q-57 0 -95 7l45 232h53q63 0 98.5 31t49.5 104zM268 1312q13 67 68.5 113t124.5 46q61 0 98.5 -36t37.5 -92q0 -15 -3 -31q-14 -68 -69.5 -113.5t-124.5 -45.5q-60 0 -97.5 35.5t-37.5 91.5q0 16 3 32z
" />
    <glyph glyph-name="afii10106" unicode="&#x459;" horiz-adv-x="1716" 
d="M1171 0h-464l155 798h-315l-94 -484q-27 -140 -142 -231t-264 -91q-64 0 -104 8l46 239h51q54 0 95 33t51 87l132 677h858l-62 -319h196q144 0 234 -82.5t90 -209.5q0 -27 -7 -67q-19 -99 -85.5 -181t-164.5 -129.5t-206 -47.5zM1359 358q3 15 3 28q0 52 -35.5 84.5
t-93.5 32.5h-161l-56 -290h161q65 0 117.5 41.5t64.5 103.5z" />
    <glyph glyph-name="afii10107" unicode="&#x45a;" horiz-adv-x="1716" 
d="M1627 358q-19 -99 -85.5 -181t-164.5 -129.5t-206 -47.5h-464l80 415h-399l-80 -415h-275l201 1036h275l-74 -380h399l74 380h268l-62 -319h196q144 0 234 -82.5t90 -209.5q0 -27 -7 -67zM1359 358q3 15 3 28q0 52 -35.5 84.5t-93.5 32.5h-161l-56 -290h161
q65 0 117.5 41.5t64.5 103.5z" />
    <glyph glyph-name="afii10108" unicode="&#x45b;" horiz-adv-x="1248" 
d="M143 1152l33 167h135l27 141h275l-27 -141h297l-33 -167h-297l-44 -230q65 63 150 100.5t168 37.5q158 0 250 -88.5t92 -237.5q0 -39 -10 -96l-124 -638h-275l118 611q5 27 5 46q0 71 -45.5 115.5t-125.5 44.5q-63 0 -133 -42t-118 -101l-131 -674h-275l223 1152h-135z
" />
    <glyph glyph-name="afii10109" unicode="&#x45c;" horiz-adv-x="1073" 
d="M664 0l-183 453h-85l-88 -453h-275l201 1036h275l-68 -347h89l285 347h310l-395 -466l239 -570h-305zM451 1184l327 342h276l-341 -342h-262z" />
    <glyph glyph-name="uni045D" unicode="&#x45d;" horiz-adv-x="1246" 
d="M1214 1036l-201 -1036h-266l125 648l-590 -648h-249l201 1036h266l-126 -648l591 648h249zM748 1526l195 -342h-262l-209 342h276z" />
    <glyph glyph-name="afii10110" unicode="&#x45e;" horiz-adv-x="1074" 
d="M313 -464h-287l273 464l-179 1036h286l96 -688l368 688h286zM661 1164q-128 0 -212 74t-84 192q0 18 4 48h229q-2 -14 -2 -25q0 -46 28 -75t73 -29q52 0 94.5 37t54.5 92h229q-32 -136 -152.5 -225t-261.5 -89z" />
    <glyph glyph-name="afii10193" unicode="&#x45f;" horiz-adv-x="1247" 
d="M661 0l-55 -280h-275l55 280h-353l201 1036h275l-155 -796h431l155 796h275l-201 -1036h-353z" />
    <glyph glyph-name="afii10050" unicode="&#x490;" horiz-adv-x="1040" 
d="M906 1400l54 280h271l-102 -525h-568l-224 -1155h-284l272 1400h581z" />
    <glyph glyph-name="afii10098" unicode="&#x491;" horiz-adv-x="840" 
d="M635 1036l54 280h263l-101 -523h-389l-154 -793h-275l201 1036h401z" />
    <glyph glyph-name="Wgrave" unicode="&#x1e80;" horiz-adv-x="1970" 
d="M1017 1400h280l73 -1004l443 1004h296l-660 -1400h-285l-83 1013l-475 -1013h-285l-116 1400h296l51 -1004zM1163 1850l195 -342h-262l-209 342h276z" />
    <glyph glyph-name="wgrave" unicode="&#x1e81;" horiz-adv-x="1594" 
d="M760 1036h276l43 -693l316 693h281l-515 -1036h-284l-49 674l-311 -674h-284l-113 1036h281l46 -693zM899 1526l195 -342h-262l-209 342h276z" />
    <glyph glyph-name="Wacute" unicode="&#x1e82;" horiz-adv-x="1970" 
d="M1017 1400h280l73 -1004l443 1004h296l-660 -1400h-285l-83 1013l-475 -1013h-285l-116 1400h296l51 -1004zM1003 1508l327 342h276l-341 -342h-262z" />
    <glyph glyph-name="wacute" unicode="&#x1e83;" horiz-adv-x="1594" 
d="M760 1036h276l43 -693l316 693h281l-515 -1036h-284l-49 674l-311 -674h-284l-113 1036h281l46 -693zM753 1184l327 342h276l-341 -342h-262z" />
    <glyph glyph-name="Wdieresis" unicode="&#x1e84;" horiz-adv-x="1970" 
d="M1017 1400h280l73 -1004l443 1004h296l-660 -1400h-285l-83 1013l-475 -1013h-285l-116 1400h296l51 -1004zM868 1664q12 62 62.5 104t112.5 42q54 0 88 -33t34 -84q0 -14 -3 -29q-12 -62 -63 -104t-113 -42q-54 0 -87.5 33t-33.5 84q0 14 3 29zM1254 1664
q12 62 62.5 104t112.5 42q54 0 88 -33t34 -84q0 -14 -3 -29q-12 -62 -63 -104t-113 -42q-54 0 -87.5 33t-33.5 84q0 14 3 29z" />
    <glyph glyph-name="wdieresis" unicode="&#x1e85;" horiz-adv-x="1594" 
d="M760 1036h276l43 -693l316 693h281l-515 -1036h-284l-49 674l-311 -674h-284l-113 1036h281l46 -693zM617 1340q12 62 62.5 104t112.5 42q54 0 88 -33t34 -84q0 -14 -3 -29q-12 -62 -63 -104t-113 -42q-54 0 -87.5 33t-33.5 84q0 14 3 29zM1003 1340q12 62 62.5 104
t112.5 42q54 0 88 -33t34 -84q0 -14 -3 -29q-12 -62 -63 -104t-113 -42q-54 0 -87.5 33t-33.5 84q0 14 3 29z" />
    <glyph glyph-name="Ygrave" unicode="&#x1ef2;" horiz-adv-x="1302" 
d="M511 1400l202 -566l422 566h306l-639 -836l-109 -564h-284l109 564l-313 836h306zM826 1850l195 -342h-262l-209 342h276z" />
    <glyph glyph-name="ygrave" unicode="&#x1ef3;" horiz-adv-x="1074" 
d="M313 -464h-287l273 464l-179 1036h286l96 -688l368 688h286zM637 1526l195 -342h-262l-209 342h276z" />
    <glyph glyph-name="thinspace" unicode="&#x2009;" horiz-adv-x="400" 
 />
    <glyph glyph-name="uni2010" unicode="&#x2010;" horiz-adv-x="828" 
d="M714 537h-592l49 254h592z" />
    <glyph glyph-name="figuredash" unicode="&#x2012;" horiz-adv-x="1200" 
d="M1104 537h-1000l49 254h1000z" />
    <glyph glyph-name="endash" unicode="&#x2013;" horiz-adv-x="1000" 
d="M1004 537h-1000l49 254h1000z" />
    <glyph glyph-name="emdash" unicode="&#x2014;" horiz-adv-x="2000" 
d="M2004 537h-2000l49 254h2000z" />
    <glyph glyph-name="afii00208" unicode="&#x2015;" horiz-adv-x="2000" 
d="M1804 537h-1600l49 254h1600z" />
    <glyph glyph-name="uni2016" unicode="&#x2016;" horiz-adv-x="955" 
d="M7 -280l346 1780h249l-346 -1780h-249zM389 -280l346 1780h249l-346 -1780h-249z" />
    <glyph glyph-name="underscoredbl" unicode="&#x2017;" horiz-adv-x="1200" 
d="M-94 -482l40 206h1000l-40 -206h-1000zM-38 -192l40 206h1000l-40 -206h-1000z" />
    <glyph glyph-name="quoteleft" unicode="&#x2018;" horiz-adv-x="603" 
d="M597 1166q-14 -71 -71 -118.5t-130 -47.5q-64 0 -102.5 37.5t-38.5 95.5q0 17 3 33q7 38 33 77l208 315h176l-154 -237q37 -15 58 -47t21 -74q0 -16 -3 -34z" />
    <glyph glyph-name="quoteright" unicode="&#x2019;" horiz-adv-x="603" 
d="M302 1392q14 71 71 118.5t130 47.5q64 0 102.5 -37.5t38.5 -95.5q0 -17 -3 -33q-7 -38 -33 -77l-208 -315h-176l154 237q-37 15 -58 47t-21 74q0 16 3 34z" />
    <glyph glyph-name="quotesinglbase" unicode="&#x201a;" horiz-adv-x="603" 
d="M59 142q14 71 71 118.5t130 47.5q64 0 102.5 -37.5t38.5 -95.5q0 -17 -3 -33q-7 -38 -33 -77l-208 -315h-176l154 237q-37 15 -58 47t-21 74q0 16 3 34z" />
    <glyph glyph-name="quotereversed" unicode="&#x201b;" horiz-adv-x="603" 
d="M641 1392q-10 -54 -47 -95.5t-89 -59.5l62 -237h-176l-86 315q-6 23 -6 46q0 15 3 31q14 71 71.5 118.5t130.5 47.5q63 0 101.5 -37.5t38.5 -95.5q0 -17 -3 -33z" />
    <glyph glyph-name="quotedblleft" unicode="&#x201c;" horiz-adv-x="994" 
d="M988 1166q-14 -71 -71 -118.5t-130 -47.5q-64 0 -102.5 37.5t-38.5 95.5q0 17 3 33q7 38 33 77l208 315h176l-154 -237q37 -15 58 -47t21 -74q0 -16 -3 -34zM597 1166q-14 -71 -71 -118.5t-130 -47.5q-64 0 -102.5 37.5t-38.5 95.5q0 17 3 33q7 38 33 77l208 315h176
l-154 -237q37 -15 58 -47t21 -74q0 -16 -3 -34z" />
    <glyph glyph-name="quotedblright" unicode="&#x201d;" horiz-adv-x="994" 
d="M693 1392q14 71 71 118.5t130 47.5q64 0 102.5 -37.5t38.5 -95.5q0 -17 -3 -33q-7 -38 -33 -77l-208 -315h-176l154 237q-37 15 -58 47t-21 74q0 16 3 34zM302 1392q14 71 71 118.5t130 47.5q64 0 102.5 -37.5t38.5 -95.5q0 -17 -3 -33q-7 -38 -33 -77l-208 -315h-176
l154 237q-37 15 -58 47t-21 74q0 16 3 34z" />
    <glyph glyph-name="quotedblbase" unicode="&#x201e;" horiz-adv-x="994" 
d="M59 142q14 71 71 118.5t130 47.5q64 0 102.5 -37.5t38.5 -95.5q0 -17 -3 -33q-7 -38 -33 -77l-208 -315h-176l154 237q-37 15 -58 47t-21 74q0 16 3 34zM450 142q14 71 71 118.5t130 47.5q64 0 102.5 -37.5t38.5 -95.5q0 -17 -3 -33q-7 -38 -33 -77l-208 -315h-176
l154 237q-37 15 -58 47t-21 74q0 16 3 34z" />
    <glyph glyph-name="uni201F" unicode="&#x201f;" horiz-adv-x="994" 
d="M641 1392q-10 -54 -47 -95.5t-89 -59.5l62 -237h-176l-86 315q-6 23 -6 46q0 15 3 31q14 71 71.5 118.5t130.5 47.5q63 0 101.5 -37.5t38.5 -95.5q0 -17 -3 -33zM1032 1392q-10 -54 -47 -95.5t-89 -59.5l62 -237h-176l-86 315q-6 23 -6 46q0 15 3 31q14 71 71.5 118.5
t130.5 47.5q63 0 101.5 -37.5t38.5 -95.5q0 -17 -3 -33z" />
    <glyph glyph-name="dagger" unicode="&#x2020;" horiz-adv-x="1125" 
d="M271 -262l230 1187h-306l47 241h306l64 330h281l-64 -330h306l-47 -241h-306l-230 -1187h-281z" />
    <glyph glyph-name="daggerdbl" unicode="&#x2021;" horiz-adv-x="1125" 
d="M29 68l46 240h306l120 617h-306l47 241h306l64 330h281l-64 -330h306l-47 -241h-306l-120 -617h306l-46 -240h-306l-64 -330h-281l64 330h-306z" />
    <glyph glyph-name="bullet" unicode="&#x2022;" horiz-adv-x="800" 
d="M141 664q0 115 81.5 196t197.5 81q115 0 197 -81t82 -196t-82 -196t-197 -81q-116 0 -197.5 81t-81.5 196z" />
    <glyph glyph-name="onedotenleader" unicode="&#x2024;" horiz-adv-x="603" 
d="M59 142q14 71 71 118.5t130 47.5q64 0 102.5 -37.5t38.5 -95.5q0 -17 -3 -33q-14 -71 -71.5 -118.5t-130.5 -47.5q-63 0 -101.5 37.5t-38.5 95.5q0 17 3 33z" />
    <glyph glyph-name="twodotenleader" unicode="&#x2025;" horiz-adv-x="1206" 
d="M59 142q14 71 71 118.5t130 47.5q64 0 102.5 -37.5t38.5 -95.5q0 -17 -3 -33q-14 -71 -71.5 -118.5t-130.5 -47.5q-63 0 -101.5 37.5t-38.5 95.5q0 17 3 33zM662 142q14 71 71 118.5t130 47.5q64 0 102.5 -37.5t38.5 -95.5q0 -17 -3 -33q-14 -71 -71.5 -118.5
t-130.5 -47.5q-63 0 -101.5 37.5t-38.5 95.5q0 17 3 33z" />
    <glyph glyph-name="ellipsis" unicode="&#x2026;" horiz-adv-x="1809" 
d="M59 142q14 71 71 118.5t130 47.5q64 0 102.5 -37.5t38.5 -95.5q0 -17 -3 -33q-14 -71 -71.5 -118.5t-130.5 -47.5q-63 0 -101.5 37.5t-38.5 95.5q0 17 3 33zM1265 142q14 71 71 118.5t130 47.5q64 0 102.5 -37.5t38.5 -95.5q0 -17 -3 -33q-14 -71 -71.5 -118.5
t-130.5 -47.5q-63 0 -101.5 37.5t-38.5 95.5q0 17 3 33zM662 142q14 71 71 118.5t130 47.5q64 0 102.5 -37.5t38.5 -95.5q0 -17 -3 -33q-14 -71 -71.5 -118.5t-130.5 -47.5q-63 0 -101.5 37.5t-38.5 95.5q0 17 3 33z" />
    <glyph glyph-name="perthousand" unicode="&#x2030;" horiz-adv-x="2595" 
d="M313 0l992 1400h247l-992 -1400h-247zM429 1055q-3 -17 -3 -33q0 -48 28.5 -79t75.5 -31q56 0 100.5 41.5t56.5 101.5q3 16 3 32q0 49 -28 80.5t-76 31.5q-56 0 -101 -41.5t-56 -102.5zM189 1055q29 152 155.5 255.5t282.5 103.5q136 0 221.5 -81.5t85.5 -207.5
q0 -36 -7 -70q-29 -151 -156 -254.5t-283 -103.5q-136 0 -221 81t-85 207q0 36 7 70zM1177 344q-3 -17 -3 -31q0 -49 28.5 -80.5t76.5 -31.5q56 0 100.5 41.5t55.5 101.5q3 16 3 33q0 49 -28.5 80t-75.5 31q-56 0 -100.5 -41.5t-56.5 -102.5zM937 344q30 152 156.5 255.5
t282.5 103.5q136 0 221 -81t85 -207q0 -37 -7 -71q-29 -151 -155.5 -254.5t-282.5 -103.5q-136 0 -221.5 81.5t-85.5 207.5q0 35 7 69zM1979 344q-3 -17 -3 -31q0 -49 28.5 -80.5t76.5 -31.5q56 0 100.5 41.5t55.5 101.5q3 16 3 33q0 49 -28.5 80t-75.5 31
q-56 0 -100.5 -41.5t-56.5 -102.5zM1739 344q30 152 156.5 255.5t282.5 103.5q136 0 221 -81t85 -207q0 -37 -7 -71q-29 -151 -155.5 -254.5t-282.5 -103.5q-136 0 -221.5 81.5t-85.5 207.5q0 35 7 69z" />
    <glyph glyph-name="minute" unicode="&#x2032;" horiz-adv-x="593" 
d="M174 1028l252 372h284l-285 -372h-251z" />
    <glyph glyph-name="second" unicode="&#x2033;" horiz-adv-x="975" 
d="M174 1028l252 372h284l-285 -372h-251zM556 1028l252 372h284l-285 -372h-251z" />
    <glyph glyph-name="guilsinglleft" unicode="&#x2039;" horiz-adv-x="783" 
d="M101 555l27 136l645 354l-46 -235l-354 -187l281 -187l-45 -235z" />
    <glyph glyph-name="guilsinglright" unicode="&#x203a;" horiz-adv-x="783" 
d="M723 691l-27 -136l-644 -354l45 235l355 187l-282 187l46 235z" />
    <glyph glyph-name="exclamdbl" unicode="&#x203c;" horiz-adv-x="1096" 
d="M152 419l191 981h284l-191 -981h-284zM67 142q13 70 72 118t133 48q64 0 104 -37.5t40 -96.5q0 -16 -3 -32q-13 -70 -72 -118t-133 -48q-64 0 -104 37.5t-40 96.5q0 16 3 32zM622 419l191 981h284l-191 -981h-284zM537 142q13 70 72 118t133 48q64 0 104 -37.5t40 -96.5
q0 -16 -3 -32q-13 -70 -72 -118t-133 -48q-64 0 -104 37.5t-40 96.5q0 16 3 32z" />
    <glyph glyph-name="uni203E" unicode="&#x203e;" horiz-adv-x="850" 
d="M245 1185l40 206h620l-40 -206h-620z" />
    <glyph glyph-name="fraction" unicode="&#x2044;" horiz-adv-x="331" 
d="M-387 0l954 1400h223l-954 -1400h-223z" />
    <glyph glyph-name="zerosuperior" unicode="&#x2070;" 
d="M132 926q43 221 161 359.5t286 138.5q134 0 202 -90t68 -244q0 -74 -17 -164q-42 -220 -160 -359t-286 -139q-134 0 -202.5 90.5t-68.5 244.5q0 75 17 163zM357 926q-17 -91 -17 -155q0 -147 84 -147q63 0 109.5 80.5t73.5 221.5q18 90 18 157q0 145 -84 145
q-63 0 -109.5 -80t-74.5 -222z" />
    <glyph glyph-name="uni2071" unicode="&#x2071;" 
d="M280 452l131 670h218l-131 -670h-218zM424 1288q11 51 54.5 86.5t97.5 35.5q47 0 76.5 -28t29.5 -71q0 -13 -2 -23q-10 -50 -53.5 -84.5t-97.5 -34.5q-47 0 -77 27.5t-30 69.5q0 12 2 22z" />
    <glyph glyph-name="foursuperior" unicode="&#x2074;" 
d="M53 619l33 172l530 609h211l-115 -592h98l-37 -189h-98l-33 -167h-222l33 167h-400zM312 806h177l52 269z" />
    <glyph glyph-name="fivesuperior" unicode="&#x2075;" 
d="M362 428q-105 0 -182 44.5t-115 127.5l180 131q54 -114 143 -114q58 0 106 40.5t60 99.5q3 15 3 29q0 49 -31 79.5t-82 30.5q-64 0 -114 -55l-164 21l166 538h542l-37 -189h-335l-48 -148q35 7 64 7q117 0 194 -68t77 -181q0 -31 -6 -64q-28 -145 -143.5 -237t-277.5 -92
z" />
    <glyph glyph-name="sixsuperior" unicode="&#x2076;" 
d="M816 1400l-273 -324q113 -4 191 -74t78 -183q0 -30 -6 -63q-27 -141 -150.5 -234.5t-267.5 -93.5q-130 0 -216.5 74.5t-86.5 192.5q0 29 6 61q19 96 83 171l401 473h241zM584 757q3 15 3 28q0 49 -31 80.5t-80 31.5q-56 0 -103 -40.5t-58 -99.5q-3 -17 -3 -30
q0 -49 30.5 -80t78.5 -31q57 0 104 40.5t59 100.5z" />
    <glyph glyph-name="sevensuperior" unicode="&#x2077;" 
d="M260 1400h634l-33 -166l-475 -782h-250l467 757h-380z" />
    <glyph glyph-name="eightsuperior" unicode="&#x2078;" 
d="M319 743q-3 -13 -3 -27q0 -46 29 -75.5t76 -29.5q54 0 99 38.5t55 93.5q3 13 3 26q0 46 -29.5 75.5t-76.5 29.5q-54 0 -98.5 -38t-54.5 -93zM832 1152q-10 -54 -45.5 -102t-85.5 -79q48 -29 74.5 -77.5t26.5 -106.5q0 -22 -5 -49q-25 -132 -143.5 -221t-267.5 -89
q-131 0 -213.5 71t-82.5 183q0 32 5 56q14 72 64 135t122 98q-65 54 -65 141q0 20 4 40q23 114 125 193t234 79q116 0 187 -63t71 -159q0 -23 -5 -50zM434 1149q-2 -10 -2 -20q0 -33 20.5 -54.5t54.5 -21.5q39 0 71 28t40 68q2 10 2 19q0 32 -21 52.5t-55 20.5
q-40 0 -71 -26.5t-39 -65.5z" />
    <glyph glyph-name="ninesuperior" unicode="&#x2079;" 
d="M149 452l273 324q-113 4 -191 74t-78 183q0 30 6 63q27 141 150.5 234.5t267.5 93.5q130 0 216.5 -74.5t86.5 -192.5q0 -29 -6 -61q-19 -96 -83 -171l-401 -473h-241zM381 1095q-3 -15 -3 -28q0 -49 31 -80.5t80 -31.5q56 0 103 40.5t58 99.5q3 17 3 30q0 49 -30.5 80
t-78.5 31q-57 0 -104 -40.5t-59 -100.5z" />
    <glyph glyph-name="uni207A" unicode="&#x207a;" 
d="M595 828v-221h-223v221h-220v195h220v221h223v-221h219v-195h-219z" />
    <glyph glyph-name="uni207B" unicode="&#x207b;" 
d="M814 828h-662v195h662v-195z" />
    <glyph glyph-name="uni207C" unicode="&#x207c;" 
d="M814 668h-662v193h662v-193zM814 990h-662v193h662v-193z" />
    <glyph glyph-name="uni207D" unicode="&#x207d;" 
d="M353 925q33 166 126 320.5t230 274.5l136 -106q-211 -211 -266 -489q-15 -78 -15 -154q0 -186 91 -335l-177 -106q-140 185 -140 435q0 79 15 160z" />
    <glyph glyph-name="uni207E" unicode="&#x207e;" 
d="M611 925q-32 -165 -125 -320t-230 -275l-137 106q212 210 267 489q15 79 15 156q0 185 -92 333l178 106q140 -185 140 -434q0 -82 -16 -161z" />
    <glyph glyph-name="uni207F" unicode="&#x207f;" 
d="M381 879l-83 -427h-218l131 670h218l-9 -43q68 57 150 57q101 0 160.5 -58t59.5 -154q0 -25 -7 -65l-79 -407h-218l77 392q2 11 2 25q0 36 -19.5 57t-53.5 21q-64 0 -111 -68z" />
    <glyph glyph-name="zeroinferior" unicode="&#x2080;" 
d="M-7 212q43 221 161 359.5t286 138.5q134 0 202 -90t68 -244q0 -74 -17 -164q-42 -220 -160 -359t-286 -139q-134 0 -202.5 90.5t-68.5 244.5q0 75 17 163zM218 212q-17 -91 -17 -155q0 -147 84 -147q63 0 109.5 80.5t73.5 221.5q18 90 18 157q0 145 -84 145
q-63 0 -109.5 -80t-74.5 -222z" />
    <glyph glyph-name="oneinferior" unicode="&#x2081;" 
d="M408 686h195l-185 -948h-230l141 725l-156 -77l-53 161z" />
    <glyph glyph-name="twoinferior" unicode="&#x2082;" 
d="M509 137l-236 -210h319l-37 -189h-616l33 169l382 342q54 49 80.5 86.5t34.5 78.5q3 14 3 25q0 37 -22.5 58.5t-61.5 21.5q-42 0 -76 -27.5t-69 -90.5l-183 70q51 113 147.5 176t219.5 63q125 0 201.5 -62t76.5 -167q0 -27 -6 -57q-15 -78 -60 -144t-130 -143z" />
    <glyph glyph-name="threeinferior" unicode="&#x2083;" 
d="M407 43q3 15 3 28q0 48 -31 79.5t-81 31.5q-28 0 -55 -11l-67 107l231 219h-310l37 189h582l-34 -175l-210 -194q80 -24 123.5 -85.5t43.5 -145.5q0 -31 -6 -64q-24 -123 -142.5 -215.5t-274.5 -92.5q-103 0 -179.5 46t-111.5 128l171 132q60 -118 147 -118
q58 0 105 40.5t59 100.5z" />
    <glyph glyph-name="fourinferior" unicode="&#x2084;" 
d="M-86 -95l33 172l530 609h211l-115 -592h98l-37 -189h-98l-33 -167h-222l33 167h-400zM173 92h177l52 269z" />
    <glyph glyph-name="fiveinferior" unicode="&#x2085;" 
d="M223 -286q-105 0 -182 44.5t-115 127.5l180 131q54 -114 143 -114q58 0 106 40.5t60 99.5q3 15 3 29q0 49 -31 79.5t-82 30.5q-64 0 -114 -55l-164 21l166 538h542l-37 -189h-335l-48 -148q35 7 64 7q117 0 194 -68t77 -181q0 -31 -6 -64q-28 -145 -143.5 -237
t-277.5 -92z" />
    <glyph glyph-name="sixinferior" unicode="&#x2086;" 
d="M678 686l-273 -324q113 -4 191 -74t78 -183q0 -30 -6 -63q-27 -141 -150.5 -234.5t-267.5 -93.5q-130 0 -216.5 74.5t-86.5 192.5q0 29 6 61q19 96 83 171l401 473h241zM446 43q3 15 3 28q0 49 -31 80.5t-80 31.5q-56 0 -103 -40.5t-58 -99.5q-3 -17 -3 -30
q0 -49 30.5 -80t78.5 -31q57 0 104 40.5t59 100.5z" />
    <glyph glyph-name="seveninferior" unicode="&#x2087;" 
d="M121 686h634l-33 -166l-475 -782h-250l467 757h-380z" />
    <glyph glyph-name="eightinferior" unicode="&#x2088;" 
d="M180 29q-3 -13 -3 -27q0 -46 29 -75.5t76 -29.5q54 0 99 38.5t55 93.5q3 14 3 26q0 46 -29.5 75.5t-76.5 29.5q-54 0 -98.5 -38t-54.5 -93zM693 438q-10 -54 -45.5 -102t-85.5 -79q48 -29 74.5 -77.5t26.5 -106.5q0 -22 -5 -49q-25 -132 -143.5 -221t-267.5 -89
q-131 0 -213.5 71t-82.5 183q0 32 5 56q14 72 64 135t122 98q-65 54 -65 141q0 20 4 40q23 114 125 193t234 79q116 0 187 -63t71 -159q0 -23 -5 -50zM295 435q-2 -10 -2 -20q0 -33 20.5 -54.5t54.5 -21.5q39 0 71 28t40 68q2 10 2 19q0 32 -21 52.5t-55 20.5
q-40 0 -71 -26.5t-39 -65.5z" />
    <glyph glyph-name="nineinferior" unicode="&#x2089;" 
d="M10 -262l273 324q-113 4 -191 74t-78 183q0 30 6 63q27 141 150.5 234.5t267.5 93.5q130 0 216.5 -74.5t86.5 -192.5q0 -29 -6 -61q-19 -96 -83 -171l-401 -473h-241zM242 381q-3 -15 -3 -28q0 -49 31 -80.5t80 -31.5q56 0 103 40.5t58 99.5q3 17 3 30q0 49 -30.5 80
t-78.5 31q-57 0 -104 -40.5t-59 -100.5z" />
    <glyph glyph-name="uni208A" unicode="&#x208a;" 
d="M455 114v-221h-223v221h-220v195h220v221h223v-221h219v-195h-219z" />
    <glyph glyph-name="uni208B" unicode="&#x208b;" 
d="M674 114h-662v195h662v-195z" />
    <glyph glyph-name="uni208C" unicode="&#x208c;" 
d="M674 -46h-662v193h662v-193zM674 276h-662v193h662v-193z" />
    <glyph glyph-name="uni208D" unicode="&#x208d;" 
d="M215 211q33 166 126 320.5t230 274.5l136 -106q-211 -211 -266 -489q-15 -78 -15 -154q0 -186 91 -335l-177 -106q-140 185 -140 435q0 79 15 160z" />
    <glyph glyph-name="uni208E" unicode="&#x208e;" 
d="M472 211q-32 -165 -125 -320t-230 -275l-137 106q212 210 267 489q15 80 15 156q0 185 -92 333l178 106q140 -185 140 -434q0 -82 -16 -161z" />
    <glyph glyph-name="uni2090" unicode="&#x2090;" 
d="M414 -18l32 164q-10 37 -39 58.5t-71 21.5q-61 0 -110.5 -46t-62.5 -116q-4 -17 -4 -38q0 -55 31.5 -89.5t82.5 -34.5q42 0 79.5 21.5t61.5 58.5zM365 -272l9 50q-75 -64 -172 -64q-118 0 -190.5 76t-72.5 196q0 35 8 78q29 148 141 249t250 101q95 0 148 -64l9 50h217
l-130 -672h-217z" />
    <glyph glyph-name="uni2091" unicode="&#x2091;" 
d="M171 -2q5 -52 38.5 -83t86.5 -31q93 0 190 87l101 -125q-143 -132 -325 -132q-140 0 -221.5 78t-81.5 201q0 37 7 71q28 148 150.5 249t273.5 101q129 0 206.5 -76t77.5 -194q0 -35 -7 -69q-9 -45 -23 -77h-473zM355 243q-45 0 -84.5 -24.5t-64.5 -67.5h255
q-5 43 -33 67.5t-73 24.5z" />
    <glyph glyph-name="uni2092" unicode="&#x2092;" 
d="M-45 64q29 148 151 249t277 101q135 0 217 -78.5t82 -201.5q0 -36 -7 -70q-29 -148 -151 -249t-277 -101q-135 0 -217 78.5t-82 201.5q0 36 7 70zM171 64q-4 -17 -4 -37q0 -55 32 -90t84 -35q61 0 111.5 47t64.5 115q3 18 3 35q0 56 -32 91.5t-84 35.5q-61 0 -111.5 -47
t-63.5 -115z" />
    <glyph glyph-name="uni2093" unicode="&#x2093;" 
d="M287 400l59 -168l124 168h240l-263 -327l148 -345h-237l-72 190l-144 -190h-240l283 346l-137 326h239z" />
    <glyph glyph-name="uni2094" unicode="&#x2094;" 
d="M459 130q-5 52 -38.5 83t-86.5 31q-93 0 -190 -87l-101 125q143 132 325 132q140 0 221.5 -78t81.5 -201q0 -37 -7 -71q-29 -149 -151 -249.5t-273 -100.5q-129 0 -206.5 76t-77.5 194q0 35 7 69q9 45 23 77h473zM275 -115q45 0 84.5 24.5t64.5 67.5h-255q5 -43 33 -67.5
t73 -24.5z" />
    <glyph glyph-name="uni20A0" unicode="&#x20a0;" horiz-adv-x="1581" 
d="M571 422q-195 0 -316 113.5t-121 289.5q0 46 10 97q27 139 118 254t224 181.5t279 66.5q190 0 332 -131l-162 -189q-56 47 -105 71.5t-106 24.5q-112 0 -204.5 -80t-114.5 -198q-6 -32 -6 -59q0 -96 60.5 -157t156.5 -61q116 0 229 72l49 253h638l-41 -212h-386l-32 -166
h354l-41 -208h-354l-33 -172h398l-41 -212h-650l91 471q-112 -49 -226 -49z" />
    <glyph glyph-name="colonmonetary" unicode="&#x20a1;" horiz-adv-x="1390" 
d="M1186 1604h160l-83 -225q102 -40 190 -117l-178 -203q-56 46 -105 71l-336 -908q158 18 314 130l106 -202q-234 -167 -512 -173l-67 -181h-159l70 192q-62 12 -93 22l-78 -214h-160l103 277q-123 77 -191 203t-68 282q0 66 14 142q51 267 258.5 464.5t482.5 245.5l72 194
h160l-67 -181q42 0 98 -7zM392 700q-10 -50 -10 -101q0 -144 82 -243l290 784q-136 -56 -235 -174t-127 -266zM929 1182l-343 -926q45 -22 88 -30l354 952q-37 5 -71 5q-20 0 -28 -1z" />
    <glyph glyph-name="uni20A2" unicode="&#x20a2;" horiz-adv-x="1390" 
d="M1148 352l106 -202q-245 -174 -531 -174q-278 0 -451 163.5t-173 418.5q0 73 14 142q39 201 169.5 367t321.5 261.5t400 95.5q271 0 449 -162l-178 -203q-148 124 -318 124q-198 0 -361.5 -139.5t-203.5 -343.5q-10 -50 -10 -100q0 -125 61.5 -218t168.5 -135l114 588
h238l-16 -79q86 93 181 93q51 0 92 -24l-58 -196q-48 24 -86 24q-43 0 -88 -27.5t-81 -75.5l-63 -326q159 24 303 128z" />
    <glyph glyph-name="franc" unicode="&#x20a3;" horiz-adv-x="1113" 
d="M798 447h-310l-86 -447h-284l86 447h-176l28 144h176l17 86h-176l28 145h176l113 578h852l-48 -244h-568l-65 -334h310l-28 -145h-310l-17 -86h310z" />
    <glyph glyph-name="lira" unicode="&#x20a4;" horiz-adv-x="1165" 
d="M281 449h-216l27 140h218l1 30q0 27 -3 54h-200l28 140h143q-11 55 -11 110q0 48 9 99q33 169 183.5 285.5t338.5 116.5q147 0 244 -72t121 -182l-263 -127q-26 133 -150 133q-69 0 -122.5 -46t-67.5 -116q-5 -23 -5 -57q0 -59 19 -144h323l-28 -140h-274q1 -14 1 -42
t-1 -42h258l-27 -140h-262q-42 -123 -155 -206h600l-47 -243h-924l45 234q68 36 119.5 91.5t77.5 123.5z" />
    <glyph glyph-name="uni20A6" unicode="&#x20a6;" horiz-adv-x="1472" 
d="M82 0l101 520h-140l26 137h140l17 86h-140l27 138h140l101 519h281l193 -519h276l101 519h257l-101 -519h140l-27 -138h-140l-17 -86h140l-26 -137h-140l-101 -520h-281l-194 520h-275l-101 -520h-257zM879 743l31 -86h150l17 86h-198zM483 743l-17 -86h198l-32 86h-149z
M962 520l47 -127l25 127h-72zM534 1007l-24 -126h71z" />
    <glyph glyph-name="peseta" unicode="&#x20a7;" horiz-adv-x="2402" 
d="M1471 220h429q57 0 94.5 25.5t46.5 71.5q2 10 2 21q0 35 -29.5 59t-95.5 41q-249 64 -249 261q0 30 7 65q26 130 136 213t262 83q95 0 174 -39t130 -104l-157 -180q-90 102 -167 102q-46 0 -79.5 -21t-40.5 -58q-2 -10 -2 -20q0 -71 114 -98q261 -63 261 -259
q0 -35 -7 -69q-27 -136 -143 -225t-280 -89h-492q-291 0 -291 242q0 50 12 108l87 452h-140q-64 -146 -191.5 -230t-290.5 -84h-153l-94 -488h-271l272 1400h424q171 0 266.5 -93t95.5 -252v-19h128l53 275l268 26l-58 -301h205l-46 -234h-205l-86 -442q-5 -28 -5 -46
q0 -94 106 -94zM829 944q7 40 7 65q0 74 -39 115.5t-113 41.5h-134l-86 -444h134q90 0 150.5 59.5t80.5 162.5z" />
    <glyph glyph-name="uni20A8" unicode="&#x20a8;" horiz-adv-x="1949" 
d="M325 1400h471q183 0 286.5 -93.5t103.5 -253.5q0 -46 -11 -104q-31 -156 -128.5 -266t-243.5 -154l217 -529h-303l-198 495h-91l-96 -495h-279zM1042 148l164 171q37 -56 95 -89.5t127 -33.5q65 0 109.5 28.5t53.5 74.5q2 12 2 19q0 38 -34.5 64t-110.5 44
q-258 61 -258 264q0 32 7 68q25 131 139 216.5t271 85.5q97 0 179 -38.5t139 -103.5l-158 -172q-47 47 -89 70.5t-92 23.5q-54 0 -92.5 -23t-45.5 -62q-2 -12 -2 -19q0 -76 132 -106q272 -62 272 -264q0 -35 -7 -70q-28 -140 -147.5 -230t-290.5 -90q-121 0 -217 45.5
t-146 126.5zM730 1166h-172l-86 -441h172q99 0 164.5 60t84.5 160q6 31 6 60q0 76 -43 118.5t-126 42.5z" />
    <glyph glyph-name="uni20A9" unicode="&#x20a9;" horiz-adv-x="2012" 
d="M1034 1400h288l34 -519h254l227 519h294l-243 -519h159l-27 -138h-197l-43 -90h223l-26 -138h-260l-241 -515h-293l-37 515h-280l-237 -515h-293l-41 515h-260l26 138h222l-6 90h-198l27 138h160l-41 519h294l25 -519h254zM970 743l-42 -90h207l-6 90h-159zM550 743
l4 -90h140l41 90h-185zM1365 743l5 -90h139l40 90h-184zM1108 1043l-74 -162h86zM562 515l7 -139l63 139h-70zM1380 515l9 -139l61 139h-70z" />
    <glyph glyph-name="afii57636" unicode="&#x20aa;" horiz-adv-x="1758" 
d="M53 0l272 1400h548q189 0 307 -107.5t118 -273.5q0 -42 -9 -87l-80 -408h-261l76 390q5 24 5 54q0 89 -56 143.5t-151 54.5h-282l-226 -1166h-261zM1777 1400l-272 -1400h-547q-190 0 -308.5 107.5t-118.5 273.5q0 42 9 87l80 408h261l-76 -391q-5 -24 -5 -54
q0 -88 56 -142.5t152 -54.5h281l227 1166h261z" />
    <glyph glyph-name="dong" unicode="&#x20ab;" horiz-adv-x="1339" 
d="M735 1152l33 167h298l27 141h272l-27 -141h137l-33 -167h-137l-223 -1152h-272l20 104q-157 -128 -353 -128q-191 0 -307 121.5t-116 307.5q0 57 11 113q29 147 119.5 271t224 197.5t279.5 73.5q196 0 303 -128l42 220h-298zM582 219q89 0 170.5 45t131.5 120l52 268
q-21 75 -85 120t-153 45q-127 0 -229.5 -86t-127.5 -213q-6 -31 -6 -61q0 -104 68.5 -171t178.5 -67zM185 -360l40 206h732l-40 -206h-732z" />
    <glyph glyph-name="Euro" unicode="&#x20ac;" horiz-adv-x="1453" 
d="M988 494h-529q31 -127 131 -202.5t242 -75.5q95 0 194.5 37.5t184.5 98.5l106 -202q-245 -174 -531 -174q-260 0 -429.5 143.5t-191.5 374.5h-149l28 149h122q3 21 10 57q2 14 13 57h-122l29 149h149q112 230 337 374t485 144q271 0 449 -162l-178 -203
q-148 124 -318 124q-142 0 -271 -75.5t-210 -201.5h529l-29 -149h-570q-10 -32 -14 -57q-6 -30 -9 -57h570z" />
    <glyph glyph-name="afii61248" unicode="&#x2105;" horiz-adv-x="2107" 
d="M544 576q-192 0 -322.5 123t-130.5 301t130.5 301t322.5 123q181 0 318 -113l-126 -186q-105 87 -192 87q-88 0 -148 -61.5t-60 -150.5t60 -150.5t148 -61.5q97 0 193 88l139 -171q-140 -129 -332 -129zM1602 187q88 0 148.5 61.5t60.5 150.5t-60.5 150.5t-148.5 61.5
t-148.5 -61.5t-60.5 -150.5t60.5 -150.5t148.5 -61.5zM1602 823q193 0 323.5 -123t130.5 -301t-130.5 -300.5t-323.5 -122.5t-323.5 122.5t-130.5 300.5t130.5 301t323.5 123zM817 0h-234l683 1400h234z" />
    <glyph glyph-name="uni2109" unicode="&#x2109;" horiz-adv-x="1636" 
d="M731 0v1400h852v-244h-568v-345h520v-244h-520v-567h-284zM60 1147q0 117 83.5 197t206.5 80t206.5 -80t83.5 -197t-83.5 -197t-206.5 -80t-206.5 80t-83.5 197zM246 1147q0 -45 29.5 -74.5t74.5 -29.5t74.5 29.5t29.5 74.5t-29.5 74.5t-74.5 29.5t-74.5 -29.5
t-29.5 -74.5z" />
    <glyph glyph-name="afii61289" unicode="&#x2113;" horiz-adv-x="1139" 
d="M156 241l-74 219q97 36 218 86v522q0 151 112.5 253.5t277.5 102.5t278 -102.5t113 -253.5v-51q0 -338 -513 -603v-70q0 -58 34 -94t87 -36q57 0 105.5 34t76.5 97l213 -126q-51 -111 -155.5 -177t-236.5 -66q-157 0 -267 90t-122 229q-52 -21 -147 -54zM568 1052v-369
q125 78 184.5 161.5t59.5 184.5v22q0 61 -34.5 101t-87.5 40t-87.5 -39t-34.5 -101z" />
    <glyph glyph-name="afii61352" unicode="&#x2116;" horiz-adv-x="2220" 
d="M173 0v1400h256l467 -892v892h262v-1400h-256l-467 892v-892h-262zM2100 319h-790v221h790v-221zM1541 1039q0 -70 47 -117t117 -47t117 47t47 117t-47 117t-117 47t-117 -47t-47 -117zM1290 1039q0 161 120 273t295 112t295 -112t120 -273t-120 -273t-295 -112t-295 112
t-120 273z" />
    <glyph glyph-name="uni2117" unicode="&#x2117;" horiz-adv-x="1608" 
d="M884 564h-119v-250h-195v770h314q123 0 205 -74t82 -186t-82 -186t-205 -74zM975 824q0 39 -29 64.5t-74 25.5h-107v-180h107q45 0 74 25.5t29 64.5zM100 700q0 149 56.5 283t153.5 231t231 153.5t283 56.5t283 -56.5t231 -153.5t153.5 -231t56.5 -283t-56.5 -283
t-153.5 -231t-231 -153.5t-283 -56.5t-283 56.5t-231 153.5t-153.5 231t-56.5 283zM232 700q0 -165 78.5 -303t214.5 -217.5t299 -79.5t299 79.5t214.5 217.5t78.5 303t-78.5 303t-214.5 217.5t-299 79.5t-299 -79.5t-214.5 -217.5t-78.5 -303z" />
    <glyph glyph-name="uni2120" unicode="&#x2120;" horiz-adv-x="1588" 
d="M83 784l116 127q46 -49 94 -79t85 -30q40 0 66.5 20t26.5 52q0 67 -121 92q-123 25 -184 83.5t-61 144.5q0 97 73.5 157.5t191.5 60.5q161 0 269 -113l-108 -131q-98 89 -157 89q-31 0 -51.5 -15.5t-20.5 -39.5q0 -61 113 -87q134 -31 193.5 -90t59.5 -151
q0 -101 -77.5 -163.5t-210.5 -62.5q-83 0 -162 36t-135 100zM1171 870h-122l-132 210v-420h-191v740h176l208 -324l208 324h176v-740h-191v420z" />
    <glyph glyph-name="uni2121" unicode="&#x2121;" horiz-adv-x="2227" 
d="M1084 436q13 -108 73.5 -174.5t144.5 -66.5q115 0 226 142l166 -162q-141 -199 -390 -199q-142 0 -254 72t-172.5 195.5t-60.5 274.5q0 150 61 274t170 196t242 72q131 0 236 -70.5t163 -190t58 -263.5q0 -54 -11 -100h-652zM414 0v1155h-339v245h950v-245h-339v-1155
h-272zM1832 0v1460h262v-1460h-262zM1288 841q-71 0 -125 -57.5t-73 -151.5h386q-16 94 -66.5 151.5t-121.5 57.5z" />
    <glyph glyph-name="trademark" unicode="&#x2122;" horiz-adv-x="1563" 
d="M256 660v577h-182v163h565v-163h-182v-577h-201zM1146 870h-122l-132 210v-420h-191v740h176l208 -324l208 324h176v-740h-191v420z" />
    <glyph glyph-name="Omega" unicode="&#x2126;" horiz-adv-x="1612" 
d="M1259 733q0 186 -125.5 314.5t-307.5 128.5t-307.5 -128.5t-125.5 -314.5q0 -158 89 -290.5t243 -207.5v-235h-600v248h277q-144 94 -220 224.5t-76 288.5q0 182 95 334.5t260.5 240.5t364.5 88t364.5 -88t260.5 -240.5t95 -334.5q0 -158 -76 -288.5t-220 -224.5h277
v-248h-600v235q154 75 243 207.5t89 290.5z" />
    <glyph glyph-name="estimated" unicode="&#x212e;" horiz-adv-x="1608" 
d="M1548 628h-1128v-337q78 -80 182 -125t222 -45q142 0 264.5 65t201.5 181l126 -87q-102 -144 -258 -224t-334 -80q-149 0 -283 56.5t-231 153.5t-153.5 231t-56.5 283t56.5 283t153.5 231t231 153.5t283 56.5t283 -56.5t231 -153.5t153.5 -231t56.5 -283v-72zM824 1278
q-118 0 -222 -45t-182 -125v-337h808v337q-167 170 -404 170z" />
    <glyph glyph-name="onethird" unicode="&#x2153;" horiz-adv-x="1940" 
d="M418 0l954 1400h223l-954 -1400h-223zM547 1400h195l-185 -948h-230l141 725l-156 -77l-53 161zM1593 305q3 15 3 28q0 48 -31 79.5t-81 31.5q-28 0 -55 -11l-67 107l231 219h-310l37 189h582l-34 -175l-210 -194q80 -24 123.5 -85.5t43.5 -145.5q0 -31 -6 -64
q-24 -123 -142.5 -215.5t-274.5 -92.5q-103 0 -179.5 46t-111.5 128l171 132q60 -118 147 -118q58 0 105 40.5t59 100.5z" />
    <glyph glyph-name="twothirds" unicode="&#x2154;" horiz-adv-x="1940" 
d="M648 851l-236 -210h319l-37 -189h-616l33 169l382 342q54 49 80.5 86.5t34.5 78.5q3 14 3 25q0 37 -22.5 58.5t-61.5 21.5q-42 0 -76 -27.5t-69 -90.5l-183 70q51 113 147.5 176t219.5 63q125 0 201.5 -62t76.5 -167q0 -27 -6 -57q-15 -78 -60 -144t-130 -143zM418 0
l954 1400h223l-954 -1400h-223zM1593 305q3 15 3 28q0 48 -31 79.5t-81 31.5q-28 0 -55 -11l-67 107l231 219h-310l37 189h582l-34 -175l-210 -194q80 -24 123.5 -85.5t43.5 -145.5q0 -31 -6 -64q-24 -123 -142.5 -215.5t-274.5 -92.5q-103 0 -179.5 46t-111.5 128l171 132
q60 -118 147 -118q58 0 105 40.5t59 100.5z" />
    <glyph glyph-name="onefifth" unicode="&#x2155;" horiz-adv-x="1940" 
d="M547 1400h195l-185 -948h-230l141 725l-156 -77l-53 161zM418 0l954 1400h223l-954 -1400h-223zM1408 -26q-105 0 -182 44.5t-115 127.5l180 131q54 -114 143 -114q58 0 106 40.5t60 99.5q3 15 3 29q0 49 -31 79.5t-82 30.5q-64 0 -114 -55l-164 21l166 538h542l-37 -189
h-335l-48 -148q35 7 64 7q117 0 194 -68t77 -181q0 -31 -6 -64q-28 -145 -143.5 -237t-277.5 -92z" />
    <glyph glyph-name="twofifths" unicode="&#x2156;" horiz-adv-x="1940" 
d="M648 851l-236 -210h319l-37 -189h-616l33 169l382 342q54 49 80.5 86.5t34.5 78.5q3 14 3 25q0 37 -22.5 58.5t-61.5 21.5q-42 0 -76 -27.5t-69 -90.5l-183 70q51 113 147.5 176t219.5 63q125 0 201.5 -62t76.5 -167q0 -27 -6 -57q-15 -78 -60 -144t-130 -143zM418 0
l954 1400h223l-954 -1400h-223zM1408 -26q-105 0 -182 44.5t-115 127.5l180 131q54 -114 143 -114q58 0 106 40.5t60 99.5q3 15 3 29q0 49 -31 79.5t-82 30.5q-64 0 -114 -55l-164 21l166 538h542l-37 -189h-335l-48 -148q35 7 64 7q117 0 194 -68t77 -181q0 -31 -6 -64
q-28 -145 -143.5 -237t-277.5 -92z" />
    <glyph glyph-name="threefifths" unicode="&#x2157;" horiz-adv-x="1940" 
d="M546 757q3 15 3 28q0 48 -31 79.5t-81 31.5q-28 0 -55 -11l-67 107l231 219h-310l37 189h582l-34 -175l-210 -194q80 -24 123.5 -85.5t43.5 -145.5q0 -31 -6 -64q-24 -123 -142.5 -215.5t-274.5 -92.5q-103 0 -179.5 46t-111.5 128l171 132q60 -118 147 -118
q58 0 105 40.5t59 100.5zM418 0l954 1400h223l-954 -1400h-223zM1408 -26q-105 0 -182 44.5t-115 127.5l180 131q54 -114 143 -114q58 0 106 40.5t60 99.5q3 15 3 29q0 49 -31 79.5t-82 30.5q-64 0 -114 -55l-164 21l166 538h542l-37 -189h-335l-48 -148q35 7 64 7
q117 0 194 -68t77 -181q0 -31 -6 -64q-28 -145 -143.5 -237t-277.5 -92z" />
    <glyph glyph-name="fourfifths" unicode="&#x2158;" horiz-adv-x="1940" 
d="M53 619l33 172l530 609h211l-115 -592h98l-37 -189h-98l-33 -167h-222l33 167h-400zM312 806h177l52 269zM418 0l954 1400h223l-954 -1400h-223zM1408 -26q-105 0 -182 44.5t-115 127.5l180 131q54 -114 143 -114q58 0 106 40.5t60 99.5q3 15 3 29q0 49 -31 79.5
t-82 30.5q-64 0 -114 -55l-164 21l166 538h542l-37 -189h-335l-48 -148q35 7 64 7q117 0 194 -68t77 -181q0 -31 -6 -64q-28 -145 -143.5 -237t-277.5 -92z" />
    <glyph glyph-name="onesixth" unicode="&#x2159;" horiz-adv-x="1940" 
d="M547 1400h195l-185 -948h-230l141 725l-156 -77l-53 161zM418 0l954 1400h223l-954 -1400h-223zM1863 948l-273 -324q113 -4 191 -74t78 -183q0 -30 -6 -63q-27 -141 -150.5 -234.5t-267.5 -93.5q-130 0 -216.5 74.5t-86.5 192.5q0 29 6 61q19 96 83 171l401 473h241z
M1631 305q3 15 3 28q0 49 -31 80.5t-80 31.5q-56 0 -103 -40.5t-58 -99.5q-3 -16 -3 -30q0 -49 30.5 -80t78.5 -31q57 0 104 40.5t59 100.5z" />
    <glyph glyph-name="fivesixths" unicode="&#x215a;" horiz-adv-x="1940" 
d="M362 428q-105 0 -182 44.5t-115 127.5l180 131q54 -114 143 -114q58 0 106 40.5t60 99.5q3 15 3 29q0 49 -31 79.5t-82 30.5q-64 0 -114 -55l-164 21l166 538h542l-37 -189h-335l-48 -148q35 7 64 7q117 0 194 -68t77 -181q0 -31 -6 -64q-28 -145 -143.5 -237t-277.5 -92
zM418 0l954 1400h223l-954 -1400h-223zM1863 948l-273 -324q113 -4 191 -74t78 -183q0 -30 -6 -63q-27 -141 -150.5 -234.5t-267.5 -93.5q-130 0 -216.5 74.5t-86.5 192.5q0 29 6 61q19 96 83 171l401 473h241zM1631 305q3 15 3 28q0 49 -31 80.5t-80 31.5q-56 0 -103 -40.5
t-58 -99.5q-3 -16 -3 -30q0 -49 30.5 -80t78.5 -31q57 0 104 40.5t59 100.5z" />
    <glyph glyph-name="oneeighth" unicode="&#x215b;" horiz-adv-x="1940" 
d="M547 1400h195l-185 -948h-230l141 725l-156 -77l-53 161zM418 0l954 1400h223l-954 -1400h-223zM1366 289q-3 -13 -3 -27q0 -46 29 -75.5t76 -29.5q54 0 99 38.5t55 93.5q3 13 3 26q0 46 -29.5 75.5t-76.5 29.5q-54 0 -98.5 -38t-54.5 -93zM1879 698q-10 -54 -45.5 -102
t-85.5 -79q48 -29 74.5 -77.5t26.5 -106.5q0 -22 -5 -49q-25 -132 -143.5 -221t-267.5 -89q-131 0 -213.5 71t-82.5 183q0 32 5 56q14 72 64 135t122 98q-65 54 -65 141q0 20 4 40q23 114 125 193t234 79q116 0 187 -63t71 -159q0 -23 -5 -50zM1481 695q-2 -10 -2 -20
q0 -33 20.5 -54.5t54.5 -21.5q39 0 71 28t40 68q2 10 2 19q0 32 -21 52.5t-55 20.5q-40 0 -71 -26.5t-39 -65.5z" />
    <glyph glyph-name="threeeighths" unicode="&#x215c;" horiz-adv-x="1940" 
d="M546 757q3 15 3 28q0 48 -31 79.5t-81 31.5q-28 0 -55 -11l-67 107l231 219h-310l37 189h582l-34 -175l-210 -194q80 -24 123.5 -85.5t43.5 -145.5q0 -31 -6 -64q-24 -123 -142.5 -215.5t-274.5 -92.5q-103 0 -179.5 46t-111.5 128l171 132q60 -118 147 -118
q58 0 105 40.5t59 100.5zM418 0l954 1400h223l-954 -1400h-223zM1366 289q-3 -13 -3 -27q0 -46 29 -75.5t76 -29.5q54 0 99 38.5t55 93.5q3 13 3 26q0 46 -29.5 75.5t-76.5 29.5q-54 0 -98.5 -38t-54.5 -93zM1879 698q-10 -54 -45.5 -102t-85.5 -79q48 -29 74.5 -77.5
t26.5 -106.5q0 -22 -5 -49q-25 -132 -143.5 -221t-267.5 -89q-131 0 -213.5 71t-82.5 183q0 32 5 56q14 72 64 135t122 98q-65 54 -65 141q0 20 4 40q23 114 125 193t234 79q116 0 187 -63t71 -159q0 -23 -5 -50zM1481 695q-2 -10 -2 -20q0 -33 20.5 -54.5t54.5 -21.5
q39 0 71 28t40 68q2 10 2 19q0 32 -21 52.5t-55 20.5q-40 0 -71 -26.5t-39 -65.5z" />
    <glyph glyph-name="fiveeighths" unicode="&#x215d;" horiz-adv-x="1940" 
d="M362 428q-105 0 -182 44.5t-115 127.5l180 131q54 -114 143 -114q58 0 106 40.5t60 99.5q3 15 3 29q0 49 -31 79.5t-82 30.5q-64 0 -114 -55l-164 21l166 538h542l-37 -189h-335l-48 -148q35 7 64 7q117 0 194 -68t77 -181q0 -31 -6 -64q-28 -145 -143.5 -237t-277.5 -92
zM418 0l954 1400h223l-954 -1400h-223zM1366 289q-3 -13 -3 -27q0 -46 29 -75.5t76 -29.5q54 0 99 38.5t55 93.5q3 13 3 26q0 46 -29.5 75.5t-76.5 29.5q-54 0 -98.5 -38t-54.5 -93zM1879 698q-10 -54 -45.5 -102t-85.5 -79q48 -29 74.5 -77.5t26.5 -106.5q0 -22 -5 -49
q-25 -132 -143.5 -221t-267.5 -89q-131 0 -213.5 71t-82.5 183q0 32 5 56q14 72 64 135t122 98q-65 54 -65 141q0 20 4 40q23 114 125 193t234 79q116 0 187 -63t71 -159q0 -23 -5 -50zM1481 695q-2 -10 -2 -20q0 -33 20.5 -54.5t54.5 -21.5q39 0 71 28t40 68q2 10 2 19
q0 32 -21 52.5t-55 20.5q-40 0 -71 -26.5t-39 -65.5z" />
    <glyph glyph-name="seveneighths" unicode="&#x215e;" horiz-adv-x="1940" 
d="M260 1400h634l-33 -166l-475 -782h-250l467 757h-380zM418 0l954 1400h223l-954 -1400h-223zM1366 289q-3 -13 -3 -27q0 -46 29 -75.5t76 -29.5q54 0 99 38.5t55 93.5q3 13 3 26q0 46 -29.5 75.5t-76.5 29.5q-54 0 -98.5 -38t-54.5 -93zM1879 698q-10 -54 -45.5 -102
t-85.5 -79q48 -29 74.5 -77.5t26.5 -106.5q0 -22 -5 -49q-25 -132 -143.5 -221t-267.5 -89q-131 0 -213.5 71t-82.5 183q0 32 5 56q14 72 64 135t122 98q-65 54 -65 141q0 20 4 40q23 114 125 193t234 79q116 0 187 -63t71 -159q0 -23 -5 -50zM1481 695q-2 -10 -2 -20
q0 -33 20.5 -54.5t54.5 -21.5q39 0 71 28t40 68q2 10 2 19q0 32 -21 52.5t-55 20.5q-40 0 -71 -26.5t-39 -65.5z" />
    <glyph glyph-name="uni215F" unicode="&#x215f;" horiz-adv-x="1940" 
d="M547 1400h195l-185 -948h-230l141 725l-156 -77l-53 161zM418 0l954 1400h223l-954 -1400h-223z" />
    <glyph glyph-name="arrowleft" unicode="&#x2190;" horiz-adv-x="1720" 
d="M1668 788v-248h-1106v-232l-470 356l470 356v-232h1106z" />
    <glyph glyph-name="arrowup" unicode="&#x2191;" horiz-adv-x="1720" 
d="M1004 -76h-248v1104h-232l356 472l356 -472h-232v-1104z" />
    <glyph glyph-name="arrowright" unicode="&#x2192;" horiz-adv-x="1720" 
d="M92 540v248h1104v232l472 -356l-472 -356v232h-1104z" />
    <glyph glyph-name="arrowdown" unicode="&#x2193;" horiz-adv-x="1720" 
d="M756 1500h248v-1106h232l-356 -470l-356 470h232v1106z" />
    <glyph glyph-name="arrowboth" unicode="&#x2194;" horiz-adv-x="1720" 
d="M562 1020v-232h636v232l470 -356l-470 -356v232h-636v-232l-470 356z" />
    <glyph glyph-name="arrowupdn" unicode="&#x2195;" horiz-adv-x="1720" 
d="M524 394h232v636h-232l356 470l356 -470h-232v-636h232l-356 -470z" />
    <glyph glyph-name="arrowupdnbse" unicode="&#x21a8;" horiz-adv-x="1720" 
d="M524 394h232v636h-232l356 470l356 -470h-232v-636h232l-336 -442h310v-148h-660v148h308z" />
    <glyph glyph-name="partialdiff" unicode="&#x2202;" horiz-adv-x="1238" 
d="M587 925q89 0 169.5 -36t134.5 -94q-15 190 -92 288t-210 98q-153 0 -277 -121l-110 214q153 150 389 150q183 0 316 -92.5t199.5 -255.5t66.5 -380q0 -171 -44 -309t-120.5 -227t-178.5 -136.5t-221 -47.5q-145 0 -265.5 63t-190 172t-69.5 239t70 240t185.5 172.5
t247.5 62.5zM609 219q108 0 182 79t95 251q-54 63 -126 98t-151 35q-105 0 -176 -66.5t-71 -165.5q0 -98 71 -164.5t176 -66.5z" />
    <glyph glyph-name="Delta" unicode="&#x2206;" horiz-adv-x="1382" 
d="M868 1400l501 -1400h-1316l501 1400h314zM711 1097l-286 -858h572z" />
    </font>
</defs>
</svg>
