<?xml version="1.0" standalone="no"?>
<!DOCTYPE svg PUBLIC "-//W3C//DTD SVG 1.1//EN" "http://www.w3.org/Graphics/SVG/1.1/DTD/svg11.dtd" >
<svg>
<metadata>
Created by FontForge 20090622 at Thu Jun 21 13:20:44 2018
 By deploy user
Copyright (c) 2016 by S-Core Co., Ltd.. All rights reserved.
</metadata>
<defs>
<font id="CoreSansC-45RegularIt" horiz-adv-x="792" >
  <font-face 
    font-family="Core Sans C 45 Regular"
    font-weight="400"
    font-style="italic"
    font-stretch="normal"
    units-per-em="2000"
    panose-1="2 11 6 3 3 3 2 2 2 4"
    ascent="1600"
    descent="-400"
    x-height="1036"
    cap-height="1400"
    bbox="-818 -520 2456 1950"
    underline-thickness="48"
    underline-position="-366"
    unicode-range="U+0009-U+FB04"
  />
<missing-glyph horiz-adv-x="1000" 
d="M890 0h-740v1500h740v-1500zM303 146h434v1207h-434v-1207z" />
    <glyph glyph-name="ff" unicode="ff" horiz-adv-x="1426" 
d="M1563 1452l-31 -157q-40 5 -90 5q-108 0 -165.5 -50t-77.5 -153l-12 -61h295l-31 -160h-295l-261 -1340h-182l261 1340h-498l-261 -1340h-182l261 1340h-179l31 160h179l12 63q36 184 145.5 272.5t305.5 88.5q86 0 150 -19l-59 -154q-57 13 -113 13q-111 0 -169 -50
t-78 -153l-12 -61h498l12 63q36 184 144 272.5t297 88.5q53 0 105 -8z" />
    <glyph glyph-name="fi" unicode="fi" horiz-adv-x="1256" 
d="M519 1097l-12 -61h680l-201 -1036h-182l170 876h-498l-261 -1340h-182l261 1340h-179l31 160h179l12 63q36 184 144.5 272.5t299.5 88.5q64 0 107 -8l-31 -157q-42 5 -92 5q-110 0 -168 -50t-78 -153zM1033 1330q12 50 52 82.5t90 32.5q45 0 72 -27t27 -69q0 -14 -3 -28
q-10 -47 -50.5 -81t-91.5 -34q-45 0 -72 26.5t-27 68.5q0 16 3 29z" />
    <glyph glyph-name="fl" unicode="fl" horiz-adv-x="1256" 
d="M883 1452l-31 -157q-40 5 -90 5q-108 0 -165.5 -50t-77.5 -153l-12 -61h295l-31 -160h-295l-261 -1340h-182l261 1340h-179l31 160h179l12 63q36 184 144 272.5t297 88.5q53 0 105 -8zM804 0l283 1460h182l-283 -1460h-182z" />
    <glyph glyph-name="ffi" unicode="ffi" horiz-adv-x="1936" 
d="M519 1097l-12 -61h498l12 63q36 184 144.5 272.5t299.5 88.5q64 0 107 -8l-31 -157q-42 5 -92 5q-110 0 -168 -50t-78 -153l-12 -61h680l-201 -1036h-182l170 876h-498l-261 -1340h-182l261 1340h-498l-261 -1340h-182l261 1340h-179l31 160h179l12 63
q36 184 145.5 272.5t305.5 88.5q86 0 150 -19l-59 -154q-57 13 -113 13q-111 0 -169 -50t-78 -153zM1713 1330q12 50 52 82.5t90 32.5q45 0 72 -27t27 -69q0 -14 -3 -28q-10 -47 -50.5 -81t-91.5 -34q-45 0 -72 26.5t-27 68.5q0 16 3 29z" />
    <glyph glyph-name="ffl" unicode="ffl" horiz-adv-x="1936" 
d="M1563 1452l-31 -157q-40 5 -90 5q-108 0 -165.5 -50t-77.5 -153l-12 -61h295l-31 -160h-295l-261 -1340h-182l261 1340h-498l-261 -1340h-182l261 1340h-179l31 160h179l12 63q36 184 145.5 272.5t305.5 88.5q86 0 150 -19l-59 -154q-57 13 -113 13q-111 0 -169 -50
t-78 -153l-12 -61h498l12 63q36 184 144 272.5t297 88.5q53 0 105 -8zM1484 0l283 1460h182l-283 -1460h-182z" />
    <glyph glyph-name=".notdef" horiz-adv-x="1000" 
d="M890 0h-740v1500h740v-1500zM303 146h434v1207h-434v-1207z" />
    <glyph glyph-name=".null" horiz-adv-x="0" 
 />
    <glyph glyph-name=".null" horiz-adv-x="0" 
 />
    <glyph glyph-name="nonmarkingreturn" horiz-adv-x="666" 
 />
    <glyph glyph-name="CR" unicode="&#x9;" horiz-adv-x="0" 
 />
    <glyph glyph-name="space" unicode=" " horiz-adv-x="594" 
 />
    <glyph glyph-name="exclam" unicode="!" horiz-adv-x="618" 
d="M191 394l196 1006h188l-196 -1006h-188zM105 105q12 50 53.5 84.5t93.5 34.5q46 0 74.5 -27.5t28.5 -70.5q0 -12 -3 -26q-11 -53 -53 -88.5t-95 -35.5q-46 0 -74.5 27t-28.5 71q0 13 4 31z" />
    <glyph glyph-name="quotedbl" unicode="&#x22;" horiz-adv-x="963" 
d="M620 834l110 566h182l-110 -566h-182zM285 834l110 566h182l-110 -566h-182z" />
    <glyph glyph-name="numbersign" unicode="#" horiz-adv-x="1367" 
d="M124 0l130 359h-209l30 153h235l138 376h-226l30 153h252l132 359h179l-132 -359h321l132 359h179l-132 -359h210l-30 -153h-236l-138 -376h227l-30 -153h-253l-130 -359h-179l130 359h-321l-130 -359h-179zM627 888l-138 -376h321l138 376h-321z" />
    <glyph glyph-name="dollar" unicode="$" horiz-adv-x="1176" 
d="M43 201l143 128q51 -73 124 -123t160 -61l98 505q-169 40 -254 122t-85 201q0 37 7 72q31 160 164 263.5t318 114.5l35 181h131l-36 -187q196 -27 311 -171l-139 -135q-94 110 -205 137l-88 -455q178 -46 261 -129t83 -204q0 -41 -9 -86q-31 -160 -164 -267.5
t-329 -126.5l-36 -184h-131l35 183q-128 11 -232 70t-162 152zM871 373q4 20 4 45q0 134 -183 198l-91 -467q107 18 180 77.5t90 146.5zM429 1058q-4 -19 -4 -40q0 -125 178 -189l82 426q-100 -11 -170 -64.5t-86 -132.5z" />
    <glyph glyph-name="percent" unicode="%" horiz-adv-x="1811" 
d="M350 0l993 1400h190l-993 -1400h-190zM198 1063q27 145 151.5 248t282.5 103q138 0 221.5 -80.5t83.5 -203.5q0 -27 -7 -67q-28 -146 -152.5 -248.5t-281.5 -102.5q-138 0 -221.5 80.5t-83.5 203.5q0 30 7 67zM375 1063q-4 -20 -4 -40q0 -67 41.5 -112t113.5 -45
q83 0 147 59t80 138q4 17 4 40q0 67 -41.5 112t-113.5 45q-83 0 -147 -59t-80 -138zM952 337q28 146 152.5 248.5t281.5 102.5q138 0 221.5 -80.5t83.5 -203.5q0 -27 -7 -67q-28 -146 -152.5 -248.5t-281.5 -102.5q-138 0 -221.5 80.5t-83.5 203.5q0 27 7 67zM1129 337
q-4 -17 -4 -40q0 -67 41.5 -112t113.5 -45q83 0 147 59t80 138q4 17 4 40q0 67 -41.5 112t-113.5 45q-83 0 -147 -59t-80 -138z" />
    <glyph glyph-name="ampersand" unicode="&#x26;" horiz-adv-x="1465" 
d="M1119 1181l-176 -63q-11 72 -60.5 113.5t-128.5 41.5q-84 0 -153 -54.5t-83 -128.5q-3 -18 -3 -35q0 -52 33.5 -110t112.5 -146l335 -375q92 131 141 298l172 -26q-64 -225 -203 -397l268 -299h-254l-150 166q-222 -190 -479 -190q-180 0 -291.5 92.5t-111.5 236.5
q0 35 7 69q47 238 340 399q-103 133 -103 245q0 36 7 70q28 143 158 239.5t286 96.5q141 0 229 -65t107 -178zM522 136q178 0 345 147l-337 377q-220 -116 -250 -274q-4 -20 -4 -45q0 -89 67 -147t179 -58z" />
    <glyph glyph-name="quotesingle" unicode="'" horiz-adv-x="628" 
d="M285 834l110 566h182l-110 -566h-182z" />
    <glyph glyph-name="parenleft" unicode="(" horiz-adv-x="831" 
d="M258 610q51 266 196.5 510t354.5 420l110 -99q-181 -163 -304.5 -381t-168.5 -450q-24 -124 -24 -247q0 -342 174 -584l-149 -99q-104 131 -159.5 302.5t-55.5 363.5q0 128 26 264z" />
    <glyph glyph-name="parenright" unicode=")" horiz-adv-x="831" 
d="M609 610q-52 -267 -197 -510.5t-354 -419.5l-109 99q180 163 303.5 381t168.5 450q24 125 24 247q0 343 -173 584l148 99q105 -130 160 -301t55 -364q0 -127 -26 -265z" />
    <glyph glyph-name="asterisk" unicode="*" horiz-adv-x="1110" 
d="M231 954l270 -160l-4 312h156l-4 -312l270 160l77 -134l-275 -156l275 -156l-77 -134l-270 160l4 -312h-156l4 312l-270 -160l-77 134l275 156l-275 156z" />
    <glyph glyph-name="plus" unicode="+" horiz-adv-x="1148" 
d="M503 210v376h-364v157h364v375h182v-375h364v-157h-364v-376h-182z" />
    <glyph glyph-name="comma" unicode="," horiz-adv-x="594" 
d="M88 76q0 18 6 38q14 49 55.5 80.5t90.5 31.5q46 0 75 -28t29 -71q0 -13 -4 -31q-6 -25 -23 -52l-188 -289h-121l146 227q-66 23 -66 94z" />
    <glyph glyph-name="hyphen" unicode="-" horiz-adv-x="804" 
d="M698 578h-568l33 172h568z" />
    <glyph glyph-name="period" unicode="." horiz-adv-x="594" 
d="M92 106q13 54 54.5 87t93.5 33q46 0 75 -27.5t29 -71.5q0 -13 -3 -27q-11 -52 -53.5 -88t-95.5 -36q-46 0 -75 27.5t-29 71.5q0 15 4 31z" />
    <glyph glyph-name="slash" unicode="/" horiz-adv-x="914" 
d="M1086 1500l-1029 -1780h-192l1028 1780h193z" />
    <glyph glyph-name="zero" unicode="0" horiz-adv-x="1188" 
d="M157 700q30 155 84.5 285t131 229t178.5 154.5t219 55.5q180 0 270 -126t90 -342q0 -119 -27 -256q-30 -155 -85 -285t-131.5 -229t-178.5 -154.5t-219 -55.5q-180 0 -269.5 125.5t-89.5 340.5q0 122 27 258zM342 700q-27 -136 -27 -247q0 -146 51 -227t156 -81
q145 0 245.5 150t150.5 405q27 135 27 246q0 147 -51 228t-157 81q-145 0 -245 -150t-150 -405z" />
    <glyph glyph-name="one" unicode="1" horiz-adv-x="1188" 
d="M761 1400h170l-272 -1400h-185l235 1214l-293 -145l-51 137z" />
    <glyph glyph-name="two" unicode="2" horiz-adv-x="1188" 
d="M849 605l-488 -445h587l-31 -160h-830l29 152l608 552q103 94 154.5 168.5t66.5 152.5q5 28 5 50q0 86 -57 137.5t-153 51.5q-201 0 -313 -213l-142 67q68 140 195.5 223t290.5 83q166 0 266.5 -86t100.5 -230q0 -43 -8 -82q-22 -112 -87.5 -208t-193.5 -213z" />
    <glyph glyph-name="three" unicode="3" horiz-adv-x="1188" 
d="M824 434q6 30 6 57q0 104 -71.5 172.5t-186.5 68.5q-40 0 -85 -13l-55 93l443 425h-554l32 163h779l-32 -163l-409 -386q151 -11 237.5 -105t86.5 -236q0 -45 -9 -93q-16 -84 -66.5 -163t-124.5 -141t-174.5 -99.5t-209.5 -37.5q-139 0 -238 60t-150 171l147 106
q84 -177 266 -177q132 0 237.5 87t130.5 211z" />
    <glyph glyph-name="four" unicode="4" horiz-adv-x="1188" 
d="M34 284l32 167l824 949h185l-184 -947h165l-33 -169h-165l-55 -284h-185l55 284h-639zM271 451h434l126 645z" />
    <glyph glyph-name="five" unicode="5" horiz-adv-x="1188" 
d="M451 -24q-136 0 -237 59t-151 168l153 108q82 -175 260 -175q132 0 236 85.5t129 212.5q6 32 6 60q0 105 -70 171.5t-185 66.5q-73 0 -140 -31t-110 -81l-127 16l233 764h714l-32 -163h-550l-130 -415q93 67 216 67q161 0 265.5 -96t104.5 -257q0 -54 -9 -98
q-39 -204 -198 -333t-378 -129z" />
    <glyph glyph-name="six" unicode="6" horiz-adv-x="1188" 
d="M1008 1400l-452 -537q57 31 133 31q164 0 272.5 -102t108.5 -264q0 -44 -9 -92q-25 -130 -113.5 -237t-210.5 -165t-250 -58q-173 0 -289.5 105t-116.5 269q0 41 9 86q26 135 116 242l605 722h197zM876 436q6 32 6 60q0 105 -69 173t-178 68q-125 0 -230 -87t-130 -214
q-6 -30 -6 -59q0 -105 69.5 -173t179.5 -68q125 0 229 87t129 213z" />
    <glyph glyph-name="seven" unicode="7" horiz-adv-x="1188" 
d="M341 1400h857l-31 -156l-763 -1244h-208l762 1237h-649z" />
    <glyph glyph-name="eight" unicode="8" horiz-adv-x="1188" 
d="M489 -24q-178 0 -290 98.5t-112 253.5q0 38 8 80q24 126 114.5 224t221.5 138q-66 29 -104.5 92t-38.5 140q0 32 5 56q30 154 166 260t311 106q154 0 248 -84t94 -214q0 -36 -7 -68q-18 -93 -88 -173t-162 -115q97 -34 150 -109.5t53 -176.5q0 -40 -7 -76
q-36 -183 -198 -307.5t-364 -124.5zM627 687q-124 0 -224 -81t-123 -195q-5 -25 -5 -50q0 -97 68 -161t177 -64q124 0 224.5 81t121.5 194q5 26 5 52q0 97 -67.5 160.5t-176.5 63.5zM657 841q95 0 173 63t95 150q4 17 4 38q0 74 -53 123t-137 49q-92 0 -170 -59.5
t-97 -146.5q-5 -22 -5 -41q0 -74 53 -125t137 -51z" />
    <glyph glyph-name="nine" unicode="9" horiz-adv-x="1188" 
d="M252 0l451 537q-57 -31 -133 -31q-164 0 -272.5 102.5t-108.5 264.5q0 43 9 91q25 130 113.5 237t210.5 165t250 58q173 0 289.5 -105t116.5 -269q0 -41 -9 -86q-26 -135 -116 -242l-604 -722h-197zM383 964q-6 -32 -6 -60q0 -105 69 -173t178 -68q125 0 230 87t130 214
q6 30 6 59q0 105 -69.5 173t-179.5 68q-125 0 -229 -87t-129 -213z" />
    <glyph glyph-name="colon" unicode=":" horiz-adv-x="594" 
d="M92 106q13 54 54.5 87t93.5 33q46 0 75 -27.5t29 -71.5q0 -13 -3 -27q-11 -52 -53.5 -88t-95.5 -36q-46 0 -75 27.5t-29 71.5q0 15 4 31zM254 940q13 54 55 87t93 33q46 0 75 -27.5t29 -71.5q0 -13 -3 -27q-11 -52 -53.5 -88t-95.5 -36q-46 0 -75 27.5t-29 71.5
q0 15 4 31z" />
    <glyph glyph-name="semicolon" unicode=";" horiz-adv-x="594" 
d="M254 940q13 54 55 87t93 33q46 0 75 -27.5t29 -71.5q0 -13 -3 -27q-11 -52 -53.5 -88t-95.5 -36q-46 0 -75 27.5t-29 71.5q0 15 4 31zM88 76q0 18 6 38q14 49 55.5 80.5t90.5 31.5q46 0 75 -28t29 -71q0 -13 -4 -31q-6 -25 -23 -52l-188 -289h-121l146 227q-66 23 -66 94
z" />
    <glyph glyph-name="less" unicode="&#x3c;" horiz-adv-x="1148" 
d="M1014 317v-206l-865 486v132l865 486v-206l-635 -346z" />
    <glyph glyph-name="equal" unicode="=" horiz-adv-x="1148" 
d="M1049 812h-910v157h910v-157zM1049 360h-910v157h910v-157z" />
    <glyph glyph-name="greater" unicode="&#x3e;" horiz-adv-x="1148" 
d="M174 111v206l635 346l-635 346v206l865 -486v-132z" />
    <glyph glyph-name="question" unicode="?" horiz-adv-x="1093" 
d="M358 399l69 354q183 0 305 77t145 197q4 17 4 39q0 85 -72 138.5t-192 53.5q-154 0 -317 -123l-72 136q209 153 442 153q186 0 295.5 -95.5t109.5 -236.5q0 -28 -7 -66q-29 -147 -159 -256t-317 -136l-46 -235h-188zM273 105q12 50 53.5 84.5t93.5 34.5q46 0 74.5 -27.5
t28.5 -70.5q0 -12 -3 -26q-11 -53 -53 -88.5t-95 -35.5q-46 0 -74.5 27t-28.5 71q0 13 4 31z" />
    <glyph glyph-name="at" unicode="@" horiz-adv-x="1920" 
d="M902 251q80 0 153.5 45t120.5 119l48 246q-18 74 -74 119t-136 45q-114 0 -208 -83t-117 -204q-6 -31 -6 -61q0 -99 60.5 -162.5t158.5 -63.5zM1364 112q-73 0 -130.5 40.5t-77.5 102.5q-63 -67 -142.5 -105t-162.5 -38q-147 0 -237 95.5t-90 241.5q0 44 9 89
q34 177 173.5 301.5t310.5 124.5q159 0 240 -131l22 111h154l-119 -614q6 -35 32.5 -57t63.5 -22q96 0 180.5 92t115.5 250q13 64 13 128q0 245 -173.5 404.5t-439.5 159.5q-148 0 -294 -57.5t-262.5 -155t-201 -234t-113.5 -288.5q-14 -70 -14 -146q0 -258 172 -423.5
t452 -165.5q271 0 515 153l37 -129q-291 -163 -579 -163q-168 0 -309.5 52t-239 144t-152 221.5t-54.5 281.5q0 90 17 175q48 245 205.5 446t382 314.5t465.5 113.5q166 0 305 -49.5t235.5 -137.5t150 -212t53.5 -270q0 -81 -16 -162q-42 -216 -181 -348.5t-316 -132.5z" />
    <glyph glyph-name="A" unicode="A" horiz-adv-x="1362" 
d="M1214 0h-205l-60 361h-596l-200 -361h-205l800 1400h210zM440 524h484l-112 668z" />
    <glyph glyph-name="B" unicode="B" horiz-adv-x="1235" 
d="M620 0h-552l272 1400h492q161 0 248.5 -76t87.5 -209q0 -41 -9 -86q-21 -108 -87 -181.5t-158 -104.5q93 -21 151.5 -92t58.5 -176q0 -33 -8 -76q-35 -178 -170.5 -288.5t-325.5 -110.5zM966 1020q5 24 5 53q0 78 -49.5 121t-134.5 43h-291l-84 -433h291q100 0 171.5 57
t91.5 159zM926 405q6 30 6 57q0 86 -54.5 135.5t-148.5 49.5h-348l-94 -484h348q109 0 189.5 66.5t101.5 175.5z" />
    <glyph glyph-name="C" unicode="C" horiz-adv-x="1368" 
d="M744 142q207 0 407 142l72 -141q-235 -167 -511 -167q-135 0 -249 43.5t-193 120t-123 184t-44 232.5q0 74 14 144q39 201 168 367.5t316.5 261.5t391.5 95q260 0 432 -155l-122 -142q-80 64 -160 97.5t-182 33.5q-228 0 -418 -162t-235 -396q-11 -54 -11 -113
q0 -194 124.5 -319.5t322.5 -125.5z" />
    <glyph glyph-name="D" unicode="D" horiz-adv-x="1413" 
d="M340 1400h475q270 0 420.5 -140.5t150.5 -386.5q0 -81 -18 -173q-63 -321 -286 -510.5t-539 -189.5h-475zM782 1234h-287l-207 -1068h287q227 0 389 138.5t213 395.5q15 78 15 146q0 189 -109 288.5t-301 99.5z" />
    <glyph glyph-name="E" unicode="E" horiz-adv-x="1129" 
d="M68 0l272 1400h827l-32 -163h-639l-88 -452h588l-32 -163h-588l-89 -459h657l-31 -163h-845z" />
    <glyph glyph-name="F" unicode="F" horiz-adv-x="1057" 
d="M68 0l272 1400h807l-32 -163h-619l-88 -451h568l-31 -163h-568l-121 -623h-188z" />
    <glyph glyph-name="G" unicode="G" horiz-adv-x="1440" 
d="M961 1258q-228 0 -418 -162t-235 -396q-11 -54 -11 -113q0 -194 124.5 -319.5t322.5 -125.5q80 0 165 24.5t154 68.5l66 341h-383l32 163h571l-114 -586q-112 -83 -247 -130t-276 -47q-135 0 -249 43.5t-193 120t-123 184t-44 232.5q0 74 14 144q39 201 168 367.5
t316.5 261.5t391.5 95q260 0 432 -155l-122 -142q-80 64 -160 97.5t-182 33.5z" />
    <glyph glyph-name="H" unicode="H" horiz-adv-x="1394" 
d="M68 0l272 1400h188l-120 -615h682l120 615h188l-272 -1400h-188l120 622h-682l-120 -622h-188z" />
    <glyph glyph-name="I" unicode="I" horiz-adv-x="570" 
d="M363 1400h188l-272 -1400h-188z" />
    <glyph glyph-name="J" unicode="J" horiz-adv-x="909" 
d="M549 431l189 969h188l-189 -969q-88 -455 -516 -455q-73 0 -145 18.5t-120 49.5l92 159q39 -27 94.5 -44t106.5 -17q244 0 300 289z" />
    <glyph glyph-name="K" unicode="K" horiz-adv-x="1201" 
d="M528 1400l-120 -615h120l548 615h215l-618 -693l426 -707h-221l-376 622h-126l-120 -622h-188l272 1400h188z" />
    <glyph glyph-name="L" unicode="L" horiz-adv-x="1030" 
d="M68 0l272 1400h188l-241 -1237h627l-31 -163h-815z" />
    <glyph glyph-name="M" unicode="M" horiz-adv-x="1698" 
d="M895 443h-120l-314 646l-211 -1089h-182l272 1400h175l360 -749l652 749h175l-272 -1400h-182l211 1089z" />
    <glyph glyph-name="N" unicode="N" horiz-adv-x="1399" 
d="M68 0l272 1400h181l491 -1074l209 1074h182l-272 -1400h-181l-492 1074l-208 -1074h-182z" />
    <glyph glyph-name="O" unicode="O" horiz-adv-x="1634" 
d="M744 142q228 0 418 162t236 396q11 60 11 112q0 195 -124.5 320.5t-323.5 125.5q-228 0 -418 -162t-235 -396q-11 -54 -11 -113q0 -194 124.5 -319.5t322.5 -125.5zM993 1424q135 0 249 -43.5t193 -120.5t123.5 -184.5t44.5 -232.5q0 -74 -14 -143q-39 -201 -168.5 -367
t-317 -261.5t-391.5 -95.5q-135 0 -249 43.5t-193 120t-123 184t-44 232.5q0 74 14 144q39 201 168 367.5t316.5 261.5t391.5 95z" />
    <glyph glyph-name="P" unicode="P" horiz-adv-x="1170" 
d="M617 528h-259l-102 -528h-188l272 1400h447q192 0 299 -90.5t107 -248.5q0 -48 -10 -97q-38 -199 -191 -317.5t-375 -118.5zM992 964q6 33 6 64q0 98 -64.5 153.5t-185.5 55.5h-252l-106 -546h252q140 0 233 73.5t117 199.5z" />
    <glyph glyph-name="Q" unicode="Q" horiz-adv-x="1634" 
d="M993 1424q135 0 249 -43.5t193 -120.5t123.5 -184.5t44.5 -232.5q0 -74 -14 -143q-29 -147 -108 -277t-195 -230l157 -214l-142 -111l-164 222q-204 -114 -425 -114q-135 0 -249 43.5t-193 120t-123 184t-44 232.5q0 74 14 144q39 201 168 367.5t316.5 261.5t391.5 95z
M744 142q153 0 297 79l-194 266l143 111l198 -271q167 157 210 373q11 60 11 112q0 195 -124.5 320.5t-323.5 125.5q-228 0 -418 -162t-235 -396q-11 -54 -11 -113q0 -194 124.5 -319.5t322.5 -125.5z" />
    <glyph glyph-name="R" unicode="R" horiz-adv-x="1200" 
d="M546 528h-188l-102 -528h-188l272 1400h447q192 0 299 -90.5t107 -248.5q0 -48 -10 -97q-33 -168 -148.5 -280t-287.5 -144l275 -540h-208zM992 964q6 33 6 64q0 98 -64.5 153.5t-185.5 55.5h-252l-106 -546h252q140 0 233 73.5t117 199.5z" />
    <glyph glyph-name="S" unicode="S" horiz-adv-x="1176" 
d="M43 201l143 128q57 -83 142.5 -135t187.5 -52q138 0 236.5 63.5t118.5 167.5q5 27 5 45q0 165 -285 227q-180 39 -271 123t-91 206q0 36 7 71q32 168 176 273.5t341 105.5q264 0 406 -178l-139 -135q-126 147 -290 147q-116 0 -200 -56t-101 -144q-4 -19 -4 -40
q0 -152 275 -218q193 -46 282 -130t89 -210q0 -41 -9 -86q-34 -177 -189 -287.5t-380 -110.5q-145 0 -265 60.5t-185 164.5z" />
    <glyph glyph-name="T" unicode="T" horiz-adv-x="1098" 
d="M355 0l240 1237h-393l32 163h974l-32 -163h-393l-240 -1237h-188z" />
    <glyph glyph-name="U" unicode="U" horiz-adv-x="1326" 
d="M1343 1400l-177 -911q-30 -152 -120 -269t-217.5 -179.5t-270.5 -62.5q-189 0 -304.5 107.5t-115.5 288.5q0 55 12 115l177 911h188l-182 -932q-7 -35 -7 -71q0 -115 72.5 -184t191.5 -69q138 0 246.5 90t136.5 234l182 932h188z" />
    <glyph glyph-name="V" unicode="V" horiz-adv-x="1360" 
d="M421 1400l205 -1163l657 1163h202l-800 -1400h-210l-256 1400h202z" />
    <glyph glyph-name="W" unicode="W" horiz-adv-x="1934" 
d="M1045 1400h188l105 -1125l523 1125h198l-674 -1400h-188l-109 1141l-551 -1141h-188l-130 1400h198l85 -1125z" />
    <glyph glyph-name="X" unicode="X" horiz-adv-x="1260" 
d="M145 0h-206l617 712l-327 688h206l260 -551l474 551h206l-595 -688l341 -712h-206l-274 575z" />
    <glyph glyph-name="Y" unicode="Y" horiz-adv-x="1286" 
d="M422 1400l268 -642l518 642h203l-663 -826l-111 -574h-188l111 574l-341 826h203z" />
    <glyph glyph-name="Z" unicode="Z" horiz-adv-x="1201" 
d="M52 163l933 1074h-694l32 163h919l-32 -163l-933 -1074h744l-31 -163h-969z" />
    <glyph glyph-name="bracketleft" unicode="[" horiz-adv-x="831" 
d="M79 -280l346 1780h547l-32 -163h-359l-282 -1454h359l-32 -163h-547z" />
    <glyph glyph-name="backslash" unicode="\" horiz-adv-x="914" 
d="M547 -280l-337 1780h193l337 -1780h-193z" />
    <glyph glyph-name="bracketright" unicode="]" horiz-adv-x="831" 
d="M788 1500l-346 -1780h-546l31 163h359l282 1454h-359l32 163h547z" />
    <glyph glyph-name="asciicircum" unicode="^" horiz-adv-x="1228" 
d="M538 1400h192l409 -622h-204l-301 460l-301 -460h-204z" />
    <glyph glyph-name="underscore" unicode="_" horiz-adv-x="1000" 
d="M-166 -343l27 142h999l-27 -142h-999z" />
    <glyph glyph-name="grave" unicode="`" horiz-adv-x="832" 
d="M495 1460l209 -337h-180l-215 337h186z" />
    <glyph glyph-name="a" unicode="a" horiz-adv-x="1297" 
d="M561 139q109 0 209.5 56t164.5 149l67 345q-28 94 -106.5 151t-187.5 57q-158 0 -288 -110.5t-161 -268.5q-7 -35 -7 -74q0 -132 85.5 -218.5t223.5 -86.5zM710 1060q221 0 334 -158l26 134h182l-201 -1036h-182l26 134q-173 -158 -396 -158q-131 0 -231.5 57.5
t-152.5 155.5t-52 220q0 51 11 109q28 146 120 269.5t229 198t287 74.5z" />
    <glyph glyph-name="b" unicode="b" horiz-adv-x="1297" 
d="M590 139q158 0 288 110.5t160 268.5q8 42 8 76q0 131 -85.5 217t-223.5 86q-109 0 -210 -57t-166 -151l-67 -345q29 -93 108 -149t188 -56zM799 1060q197 0 316 -123t119 -310q0 -51 -11 -109q-28 -146 -119.5 -269.5t-228.5 -198t-287 -74.5q-222 0 -334 158l-26 -134
h-182l283 1460h182l-108 -558q175 158 396 158z" />
    <glyph glyph-name="c" unicode="c" horiz-adv-x="1098" 
d="M529 -24q-210 0 -337.5 123.5t-127.5 313.5q0 54 10 105q29 148 125 272t239.5 197t301.5 73q216 0 350 -137l-123 -143q-110 117 -259 117q-158 0 -288 -110.5t-161 -268.5q-7 -35 -7 -74q0 -132 85.5 -218.5t223.5 -86.5q161 0 313 125l81 -133q-190 -155 -426 -155z
" />
    <glyph glyph-name="d" unicode="d" horiz-adv-x="1297" 
d="M561 139q109 0 209.5 56t164.5 149l67 345q-28 94 -106.5 151t-187.5 57q-158 0 -288 -110.5t-161 -268.5q-7 -35 -7 -74q0 -132 85.5 -218.5t223.5 -86.5zM710 1060q221 0 334 -158l108 558h182l-283 -1460h-182l26 134q-173 -158 -396 -158q-131 0 -231.5 57.5
t-152.5 155.5t-52 220q0 51 11 109q28 146 120 269.5t229 198t287 74.5z" />
    <glyph glyph-name="e" unicode="e" horiz-adv-x="1224" 
d="M249 461q-1 -11 -1 -32q0 -129 85 -212.5t224 -83.5q189 0 357 150l102 -116q-207 -191 -484 -191q-216 0 -342.5 121.5t-126.5 311.5q0 51 11 109q45 227 232.5 384.5t421.5 157.5q199 0 318 -117.5t119 -298.5q0 -53 -10 -103q-7 -36 -25 -80h-881zM697 903
q-128 0 -244 -83t-168 -208h692v11q0 123 -77 201.5t-203 78.5z" />
    <glyph glyph-name="f" unicode="f" horiz-adv-x="746" 
d="M883 1452l-31 -157q-40 5 -90 5q-108 0 -165.5 -50t-77.5 -153l-12 -61h295l-31 -160h-295l-261 -1340h-182l261 1340h-179l31 160h179l12 63q36 184 144 272.5t297 88.5q53 0 105 -8z" />
    <glyph glyph-name="g" unicode="g" horiz-adv-x="1297" 
d="M873 21l22 113q-173 -158 -396 -158q-131 0 -231.5 57.5t-152.5 155.5t-52 220q0 51 11 109q28 146 120 269.5t229 198t287 74.5q221 0 334 -158l26 134h182l-195 -1003q-44 -227 -207.5 -362t-413.5 -135q-143 0 -252.5 55.5t-175.5 152.5l143 118q117 -169 315 -169
q156 0 266.5 88t140.5 240zM561 139q109 0 209.5 56t164.5 149l67 345q-28 94 -106.5 151t-187.5 57q-158 0 -288 -110.5t-161 -268.5q-7 -35 -7 -74q0 -132 85.5 -218.5t223.5 -86.5z" />
    <glyph glyph-name="h" unicode="h" horiz-adv-x="1207" 
d="M361 687l-133 -687h-182l283 1460h182l-113 -583q77 80 173.5 131.5t198.5 51.5q158 0 251 -89t93 -237q0 -48 -10 -97l-123 -637h-182l121 627q6 31 6 60q0 94 -60 152t-162 58q-91 0 -182 -61t-161 -149z" />
    <glyph glyph-name="i" unicode="i" horiz-adv-x="522" 
d="M70 0l201 1036h182l-201 -1036h-182zM299 1330q12 50 52 82.5t90 32.5q45 0 72 -27t27 -69q0 -14 -3 -28q-10 -47 -50.5 -81t-91.5 -34q-45 0 -72 26.5t-27 68.5q0 16 3 29z" />
    <glyph glyph-name="j" unicode="j" horiz-adv-x="522" 
d="M43 -137l228 1173h182l-228 -1170q-33 -173 -123 -251.5t-247 -78.5q-35 0 -77 4l31 157q17 -1 56 -1q72 0 116.5 39t61.5 128zM299 1330q12 50 52 82.5t90 32.5q45 0 72 -27t27 -69q0 -14 -3 -28q-10 -47 -50.5 -81t-91.5 -34q-45 0 -72 26.5t-27 68.5q0 16 3 29z" />
    <glyph glyph-name="k" unicode="k" horiz-adv-x="1029" 
d="M711 0l-259 497h-128l-96 -497h-182l283 1460h182l-156 -806h130l367 382h216l-448 -460l301 -576h-210z" />
    <glyph glyph-name="l" unicode="l" horiz-adv-x="522" 
d="M70 0l283 1460h182l-283 -1460h-182z" />
    <glyph glyph-name="m" unicode="m" horiz-adv-x="1872" 
d="M361 688l-133 -688h-182l201 1036h182l-30 -155q71 77 161.5 128t186.5 51q118 0 197.5 -57.5t107.5 -155.5q79 96 186 154.5t218 58.5q151 0 238 -87t87 -231q0 -48 -10 -97l-125 -645h-182l123 635q6 32 6 62q0 90 -52 145t-144 55q-85 0 -171 -59.5t-158 -152.5
l-6 -40l-125 -645h-182l123 635q6 32 6 62q0 90 -52 145t-144 55q-85 0 -169.5 -58.5t-157.5 -150.5z" />
    <glyph glyph-name="n" unicode="n" horiz-adv-x="1207" 
d="M361 687l-133 -687h-182l201 1036h182l-31 -159q77 80 173.5 131.5t198.5 51.5q158 0 251 -89t93 -237q0 -48 -10 -97l-123 -637h-182l121 627q6 31 6 60q0 94 -60 152t-162 58q-91 0 -182 -61t-161 -149z" />
    <glyph glyph-name="o" unicode="o" horiz-adv-x="1268" 
d="M561 139q158 0 288 110.5t160 268.5q8 42 8 76q0 131 -85.5 217t-223.5 86q-158 0 -288 -110.5t-161 -268.5q-7 -35 -7 -74q0 -132 85.5 -218.5t223.5 -86.5zM740 1060q210 0 337 -123t127 -313q0 -55 -10 -106q-29 -148 -125 -272t-239 -197t-301 -73
q-210 0 -337.5 123.5t-127.5 313.5q0 54 10 105q29 148 125 272t239.5 197t301.5 73z" />
    <glyph glyph-name="p" unicode="p" horiz-adv-x="1297" 
d="M590 139q158 0 288 110.5t160 268.5q8 42 8 76q0 131 -85.5 217t-223.5 86q-109 0 -210 -57t-166 -151l-67 -345q29 -93 108 -149t188 -56zM799 1060q197 0 316 -123t119 -310q0 -51 -11 -109q-28 -146 -119.5 -269.5t-228.5 -198t-287 -74.5q-222 0 -334 158l-117 -598
h-182l292 1500h182l-26 -134q175 158 396 158z" />
    <glyph glyph-name="q" unicode="q" horiz-adv-x="1297" 
d="M561 139q109 0 209.5 56t164.5 149l67 345q-28 94 -106.5 151t-187.5 57q-158 0 -288 -110.5t-161 -268.5q-7 -35 -7 -74q0 -132 85.5 -218.5t223.5 -86.5zM710 1060q221 0 334 -158l26 134h182l-292 -1500h-182l117 598q-173 -158 -396 -158q-131 0 -231.5 57.5
t-152.5 155.5t-52 220q0 51 11 109q28 146 120 269.5t229 198t287 74.5z" />
    <glyph glyph-name="r" unicode="r" 
d="M700 897q-86 0 -177 -64t-166 -168l-129 -665h-182l201 1036h182l-33 -170q181 194 360 194q53 0 93 -20l-47 -162q-51 19 -102 19z" />
    <glyph glyph-name="s" unicode="s" horiz-adv-x="932" 
d="M1 148l127 123q40 -63 107.5 -100.5t153.5 -37.5q98 0 163 42t79 111q3 15 3 28q0 107 -199 147q-283 56 -283 253q0 27 7 60q25 124 139 205t274 81q200 0 321 -138l-122 -124q-102 105 -217 105q-81 0 -142 -37.5t-72 -95.5q-2 -14 -2 -21q0 -49 46.5 -86.5
t137.5 -56.5q297 -61 297 -259q0 -34 -6 -64q-27 -135 -146 -221t-296 -86q-125 0 -221 46t-149 126z" />
    <glyph glyph-name="t" unicode="t" horiz-adv-x="764" 
d="M484 876l-106 -545q-7 -32 -7 -64q0 -67 41 -99t130 -32q54 0 94 5l-31 -157q-42 -8 -109 -8q-159 0 -236 60t-77 185q0 43 12 108l107 547h-187l31 160h187l55 284l185 16l-58 -300h283l-31 -160h-283z" />
    <glyph glyph-name="u" unicode="u" horiz-adv-x="1207" 
d="M846 349l134 687h182l-201 -1036h-182l30 159q-76 -80 -172.5 -131.5t-198.5 -51.5q-158 0 -251.5 89.5t-93.5 237.5q0 47 10 96l124 637h182l-122 -627q-6 -30 -6 -58q0 -95 60.5 -153.5t162.5 -58.5q90 0 181 60.5t161 149.5z" />
    <glyph glyph-name="v" unicode="v" horiz-adv-x="1046" 
d="M1120 1036l-603 -1036h-188l-201 1036h190l151 -798l461 798h190z" />
    <glyph glyph-name="w" unicode="w" horiz-adv-x="1560" 
d="M787 1036h188l77 -792l392 792h190l-533 -1036h-188l-79 796l-387 -796h-188l-131 1036h190l84 -792z" />
    <glyph glyph-name="x" unicode="x" horiz-adv-x="1046" 
d="M130 0h-203l483 529l-256 507h203l192 -384l342 384h203l-454 -507l279 -529h-203l-215 406z" />
    <glyph glyph-name="y" unicode="y" horiz-adv-x="1050" 
d="M57 -464l275 468l-204 1032h190l152 -801l464 801h190l-877 -1500h-190z" />
    <glyph glyph-name="z" unicode="z" horiz-adv-x="1012" 
d="M-2 0l31 160l711 716h-546l31 160h765l-31 -160l-710 -716h591l-31 -160h-811z" />
    <glyph glyph-name="braceleft" unicode="{" horiz-adv-x="831" 
d="M151 529l32 162q93 0 157.5 50.5t81.5 138.5l59 306q26 133 139 223.5t258 90.5h98l-32 -163h-86q-70 0 -123.5 -46t-67.5 -117l-63 -321q-37 -193 -230 -243q142 -42 142 -181q0 -29 -6 -62l-63 -321q-3 -18 -3 -35q0 -57 36 -92.5t96 -35.5h86l-32 -163h-98
q-127 0 -204 71.5t-77 182.5q0 28 6 60l60 306q5 27 5 45q0 68 -45.5 106t-125.5 38z" />
    <glyph glyph-name="bar" unicode="|" horiz-adv-x="649" 
d="M258 -280v1780h173v-1780h-173z" />
    <glyph glyph-name="braceright" unicode="}" horiz-adv-x="831" 
d="M716 691l-32 -162q-93 0 -157 -50.5t-81 -138.5l-60 -306q-26 -133 -139 -223.5t-258 -90.5h-97l31 163h86q70 0 123.5 46t67.5 117l63 321q37 193 230 243q-142 42 -142 181q0 29 6 62l63 321q3 18 3 35q0 57 -36 92.5t-96 35.5h-86l32 163h98q127 0 204 -71.5
t77 -182.5q0 -28 -6 -60l-59 -306q-5 -27 -5 -45q0 -68 45 -106t125 -38z" />
    <glyph glyph-name="asciitilde" unicode="~" horiz-adv-x="1148" 
d="M562 575l-10 10q-98 98 -160 98q-106 0 -136 -180l-172 43q24 144 98 222t192 78q139 0 251 -112l10 -10q98 -98 160 -98q106 0 136 180l172 -43q-24 -144 -98 -222t-192 -78q-134 0 -251 112z" />
    <glyph glyph-name="uni00A0" unicode="&#xa0;" horiz-adv-x="594" 
 />
    <glyph glyph-name="exclamdown" unicode="&#xa1;" horiz-adv-x="618" 
d="M44 -364l195 1006h188l-195 -1006h-188zM267 941q12 50 53.5 84.5t93.5 34.5q46 0 74.5 -27.5t28.5 -70.5q0 -12 -3 -26q-11 -53 -53 -88.5t-95 -35.5q-46 0 -74.5 27t-28.5 71q0 13 4 31z" />
    <glyph glyph-name="cent" unicode="&#xa2;" horiz-adv-x="1098" 
d="M823 1220l-32 -162q182 -16 299 -135l-123 -143q-92 97 -208 113l-146 -750q138 19 261 121l81 -133q-169 -137 -374 -153l-31 -162h-132l32 165q-177 23 -281.5 142t-104.5 290q0 54 10 105q40 206 204.5 357.5t380.5 179.5l32 165h132zM259 518q-7 -36 -7 -75
q0 -112 62 -192.5t168 -103.5l144 742q-135 -28 -237.5 -131.5t-129.5 -239.5z" />
    <glyph glyph-name="sterling" unicode="&#xa3;" horiz-adv-x="1148" 
d="M150 562l28 147h134q-2 10 -8 36t-8.5 38.5l-7 35.5t-6.5 39t-3.5 36.5t-1.5 39.5q0 48 8 88q33 169 178 285.5t325 116.5q142 0 234 -73t114 -182l-177 -84q-17 81 -68.5 127t-134.5 46q-100 0 -180 -67.5t-100 -168.5q-5 -25 -5 -61t6.5 -77.5t17 -93t14.5 -81.5h376
l-28 -147h-346q-2 -61 -6 -80q-18 -93 -73 -174.5t-134 -141.5h670l-32 -166h-889l31 162q92 58 155 141.5t81 178.5q5 24 5 62v18h-169z" />
    <glyph glyph-name="currency" unicode="&#xa4;" horiz-adv-x="1252" 
d="M646 927q-115 0 -194.5 -80.5t-79.5 -194.5t79.5 -194.5t194.5 -80.5t194.5 80.5t79.5 194.5t-79.5 194.5t-194.5 80.5zM646 220q-135 0 -244 67l-191 -187l-117 117l183 183q-84 109 -84 252t84 252l-183 183l117 117l191 -187q109 67 244 67t244 -67l191 187l117 -117
l-183 -183q84 -109 84 -252t-84 -252l183 -183l-117 -117l-191 187q-109 -67 -244 -67z" />
    <glyph glyph-name="yen" unicode="&#xa5;" horiz-adv-x="1286" 
d="M422 1400l268 -642l518 642h203l-551 -686h291l-23 -118h-363l-17 -22l-18 -91h376l-23 -118h-376l-70 -365h-188l70 365h-376l23 118h376l18 91l-10 22h-362l23 118h291l-283 686h203z" />
    <glyph glyph-name="brokenbar" unicode="&#xa6;" horiz-adv-x="649" 
d="M258 700v800h173v-800h-173zM258 -280v800h173v-800h-173z" />
    <glyph glyph-name="section" unicode="&#xa7;" horiz-adv-x="1008" 
d="M944 521q-18 -92 -88 -165t-172 -109q86 -73 86 -179q0 -30 -5 -54q-26 -134 -149.5 -224t-281.5 -90q-136 0 -223.5 68.5t-91.5 185.5l175 38q2 -64 48 -101t122 -37q83 0 147.5 45.5t77.5 114.5q3 13 3 26q0 77 -86 118l-229 109q-99 47 -150 117.5t-51 156.5
q0 29 6 61q18 92 87 164.5t172 108.5q-87 74 -87 180q0 27 6 55q26 134 149 224t282 90q136 0 223.5 -69t91.5 -186l-175 -37q-2 63 -48.5 100.5t-121.5 37.5q-83 0 -147 -46t-78 -114q-3 -14 -3 -26q0 -79 85 -119l229 -108q100 -47 151.5 -118.5t51.5 -158.5q0 -29 -6 -59
zM638 720l-144 67q-87 -5 -154.5 -57t-81.5 -128q-3 -16 -3 -32q0 -104 131 -166l143 -68q87 5 155.5 57.5t83.5 127.5q3 15 3 31q0 106 -133 168z" />
    <glyph glyph-name="dieresis" unicode="&#xa8;" horiz-adv-x="832" 
d="M275 1292q9 47 48 80t87 33q42 0 67.5 -25.5t25.5 -65.5q0 -12 -2 -22q-10 -48 -48.5 -80.5t-86.5 -32.5q-42 0 -68 25t-26 64q0 12 3 24zM633 1292q9 47 48 80t87 33q42 0 67.5 -25.5t25.5 -65.5q0 -12 -2 -22q-10 -48 -48.5 -80.5t-86.5 -32.5q-42 0 -68 25t-26 64
q0 12 3 24z" />
    <glyph glyph-name="copyright" unicode="&#xa9;" horiz-adv-x="1602" 
d="M857 439q111 0 206 78l58 -120q-111 -94 -264 -94q-169 0 -285.5 114t-116.5 281q0 166 116.5 280.5t285.5 114.5q142 0 254 -87l-54 -120q-100 71 -200 71q-107 0 -180 -75t-73 -184t73 -184t180 -75zM97 700q0 149 56.5 283t153.5 231t231 153.5t283 56.5t283 -56.5
t231 -153.5t153.5 -231t56.5 -283t-56.5 -283t-153.5 -231t-231 -153.5t-283 -56.5t-283 56.5t-231 153.5t-153.5 231t-56.5 283zM207 700q0 -171 81.5 -313.5t223 -225t309.5 -82.5t309.5 82.5t223 225t81.5 313.5t-81.5 313.5t-223 225t-309.5 82.5t-309.5 -82.5
t-223 -225t-81.5 -313.5z" />
    <glyph glyph-name="ordfeminine" unicode="&#xaa;" horiz-adv-x="912" 
d="M734 919l46 234q-19 52 -65.5 84.5t-112.5 32.5q-97 0 -176 -67.5t-98 -166.5q-5 -28 -5 -49q0 -81 52 -133t136 -52q66 0 125 32.5t98 84.5zM686 672l17 85q-101 -101 -241 -101q-135 0 -219.5 85t-84.5 217q0 35 8 78q31 160 160 270t284 110q140 0 201 -101l17 85h162
l-142 -728h-162z" />
    <glyph glyph-name="guillemotleft" unicode="&#xab;" horiz-adv-x="1271" 
d="M116 576l19 96l621 347l-33 -169l-412 -226l324 -226l-33 -169zM606 576l19 96l621 347l-33 -169l-412 -226l324 -226l-33 -169z" />
    <glyph glyph-name="logicalnot" unicode="&#xac;" horiz-adv-x="1148" 
d="M867 236v350h-728v157h910v-507h-182z" />
    <glyph glyph-name="uni00AD" unicode="&#xad;" horiz-adv-x="804" 
d="M698 578h-568l33 172h568z" />
    <glyph glyph-name="registered" unicode="&#xae;" horiz-adv-x="1602" 
d="M97 700q0 149 56.5 283t153.5 231t231 153.5t283 56.5t283 -56.5t231 -153.5t153.5 -231t56.5 -283t-56.5 -283t-153.5 -231t-231 -153.5t-283 -56.5t-283 56.5t-231 153.5t-153.5 231t-56.5 283zM207 700q0 -171 81.5 -313.5t223 -225t309.5 -82.5t309.5 82.5t223 225
t81.5 313.5t-81.5 313.5t-223 225t-309.5 82.5t-309.5 -82.5t-223 -225t-81.5 -313.5zM719 592v-276h-140v765h271q117 0 192.5 -69t75.5 -175q0 -83 -48 -145t-128 -85l193 -291h-154l-182 276h-80zM978 831q0 53 -38.5 86.5t-101.5 33.5h-119v-241h119q63 0 101.5 33.5
t38.5 87.5z" />
    <glyph glyph-name="macron" unicode="&#xaf;" horiz-adv-x="832" 
d="M262 1217l28 142h580l-28 -142h-580z" />
    <glyph glyph-name="degree" unicode="&#xb0;" 
d="M276 1154q0 -59 40 -99.5t100 -40.5t100 40.5t40 99.5t-40 99.5t-100 40.5t-100 -40.5t-40 -99.5zM141 1154q0 113 79.5 190t195.5 77t195.5 -77t79.5 -190t-79.5 -190t-195.5 -77t-195.5 77t-79.5 190z" />
    <glyph glyph-name="plusminus" unicode="&#xb1;" horiz-adv-x="1148" 
d="M503 295v368h-364v157h364v368h182v-368h364v-157h-364v-368h-182zM1049 0h-910v157h910v-157z" />
    <glyph glyph-name="twosuperior" unicode="&#xb2;" 
d="M623 858l-302 -273h376l-26 -133h-591l23 118l410 371q66 60 98 107.5t42 97.5q3 16 3 32q0 51 -33.5 82t-89.5 31q-120 0 -194 -147l-130 54q49 107 141.5 166.5t208.5 59.5q118 0 190.5 -60.5t72.5 -161.5q0 -26 -6 -56q-15 -76 -60 -142.5t-133 -145.5z" />
    <glyph glyph-name="threesuperior" unicode="&#xb3;" 
d="M591 746q3 18 3 35q0 65 -42.5 106.5t-111.5 41.5q-30 0 -66 -11l-47 77l282 270h-356l27 135h556l-24 -123l-260 -244q94 -16 149 -81t55 -157q0 -29 -6 -61q-24 -122 -138 -214t-265 -92q-99 0 -170 45t-106 124l128 94q60 -130 170 -130q79 0 142.5 53.5t79.5 131.5z
" />
    <glyph glyph-name="acute" unicode="&#xb4;" horiz-adv-x="832" 
d="M364 1123l339 337h186l-345 -337h-180z" />
    <glyph glyph-name="mu" unicode="&#xb5;" horiz-adv-x="1227" 
d="M-45 -464l292 1500h182l-138 -707q13 -84 77.5 -137t154.5 -53q87 0 179.5 59t162.5 146l135 692h182l-201 -1036h-182l29 153q-72 -77 -166.5 -127t-188.5 -50q-75 0 -134.5 37t-90.5 94l-111 -571h-182z" />
    <glyph glyph-name="paragraph" unicode="&#xb6;" horiz-adv-x="1160" 
d="M608 536h-57q-188 0 -316 124.5t-128 307.5t128 307.5t316 124.5h453v-1662h-137v1533h-122v-1533h-137v798z" />
    <glyph glyph-name="periodcentered" unicode="&#xb7;" horiz-adv-x="594" 
d="M199 658q13 54 55 87t93 33q46 0 75 -27.5t29 -71.5q0 -13 -3 -27q-11 -52 -53.5 -88t-95.5 -36q-46 0 -75 27.5t-29 71.5q0 15 4 31z" />
    <glyph glyph-name="cedilla" unicode="&#xb8;" horiz-adv-x="832" 
d="M223 -209q-30 0 -57 -5l-26 38l131 176h142l-96 -115q71 -13 110.5 -57.5t39.5 -105.5q0 -16 -3 -34q-17 -89 -101 -148.5t-192 -59.5q-106 0 -167 58l79 90q38 -36 101 -36q52 0 91 28.5t47 70.5q2 12 2 18q0 36 -27.5 59t-73.5 23z" />
    <glyph glyph-name="onesuperior" unicode="&#xb9;" 
d="M567 1400h138l-185 -948h-162l153 783l-186 -91l-40 119z" />
    <glyph glyph-name="ordmasculine" unicode="&#xba;" horiz-adv-x="912" 
d="M165 1036q31 159 166.5 269.5t299.5 110.5q144 0 234.5 -87t90.5 -221q0 -37 -7 -72q-31 -159 -166.5 -269.5t-299.5 -110.5q-144 0 -234.5 87t-90.5 221q0 37 7 72zM327 1036q-5 -28 -5 -49q0 -82 52 -133.5t137 -51.5q98 0 177 67t99 167q5 28 5 49q0 82 -52.5 133.5
t-137.5 51.5q-98 0 -176.5 -67t-98.5 -167z" />
    <glyph glyph-name="guillemotright" unicode="&#xbb;" horiz-adv-x="1271" 
d="M1196 672l-19 -96l-620 -347l33 169l412 226l-324 226l33 169zM706 672l-19 -96l-620 -347l33 169l412 226l-324 226l33 169z" />
    <glyph glyph-name="onequarter" unicode="&#xbc;" horiz-adv-x="1911" 
d="M567 1400h138l-185 -948h-162l153 783l-186 -91l-40 119zM434 0l956 1400h159l-956 -1400h-159zM1094 187l24 126l557 635h154l-121 -622h109l-27 -139h-109l-37 -187h-162l37 187h-425zM1300 325h246l71 368z" />
    <glyph glyph-name="onehalf" unicode="&#xbd;" horiz-adv-x="1911" 
d="M567 1400h138l-185 -948h-162l153 783l-186 -91l-40 119zM434 0l956 1400h159l-956 -1400h-159zM1654 406l-302 -273h376l-26 -133h-591l23 118l410 371q66 60 98 107.5t42 97.5q3 17 3 32q0 51 -33.5 82t-89.5 31q-120 0 -194 -147l-130 54q49 107 141.5 166.5
t208.5 59.5q118 0 190.5 -60.5t72.5 -161.5q0 -26 -6 -56q-15 -76 -60 -142.5t-133 -145.5z" />
    <glyph glyph-name="threequarters" unicode="&#xbe;" horiz-adv-x="1911" 
d="M591 746q3 18 3 35q0 65 -42.5 106.5t-111.5 41.5q-30 0 -66 -11l-47 77l282 270h-356l27 135h556l-24 -123l-260 -244q94 -16 149 -81t55 -157q0 -29 -6 -61q-24 -122 -138 -214t-265 -92q-99 0 -170 45t-106 124l128 94q60 -130 170 -130q79 0 142.5 53.5t79.5 131.5z
M434 0l956 1400h159l-956 -1400h-159zM1094 187l24 126l557 635h154l-121 -622h109l-27 -139h-109l-37 -187h-162l37 187h-425zM1300 325h246l71 368z" />
    <glyph glyph-name="questiondown" unicode="&#xbf;" horiz-adv-x="1093" 
d="M735 637l-69 -354q-183 0 -305 -77t-145 -197q-4 -17 -4 -39q0 -85 72 -138.5t192 -53.5q154 0 317 123l72 -136q-209 -153 -442 -153q-186 0 -295.5 95.5t-109.5 236.5q0 28 7 66q29 147 159 256t317 136l46 235h188zM820 931q-12 -50 -53.5 -84.5t-93.5 -34.5
q-46 0 -74.5 27.5t-28.5 70.5q0 12 3 26q11 53 53 88.5t95 35.5q46 0 74.5 -27t28.5 -71q0 -13 -4 -31z" />
    <glyph glyph-name="Agrave" unicode="&#xc0;" horiz-adv-x="1362" 
d="M1214 0h-205l-60 361h-596l-200 -361h-205l800 1400h210zM440 524h484l-112 668zM816 1847l209 -337h-180l-215 337h186z" />
    <glyph glyph-name="Aacute" unicode="&#xc1;" horiz-adv-x="1362" 
d="M1214 0h-205l-60 361h-596l-200 -361h-205l800 1400h210zM440 524h484l-112 668zM721 1510l339 337h186l-345 -337h-180z" />
    <glyph glyph-name="Acircumflex" unicode="&#xc2;" horiz-adv-x="1362" 
d="M1214 0h-205l-60 361h-596l-200 -361h-205l800 1400h210zM440 524h484l-112 668zM1003 1847l226 -337h-180l-136 199l-214 -199h-180l358 337h126z" />
    <glyph glyph-name="Atilde" unicode="&#xc3;" horiz-adv-x="1362" 
d="M1214 0h-205l-60 361h-596l-200 -361h-205l800 1400h210zM440 524h484l-112 668zM883 1580l-19.5 16.5l-20.5 17.5t-18.5 13.5t-21.5 10.5t-20 3q-49 0 -89 -101l-147 30q84 213 229 213q76 0 145 -58q4 -3 19 -16.5t21 -18t18 -12.5t22 -11t20 -3q26 0 46.5 24.5
t42.5 76.5l147 -30q-85 -213 -230 -213q-77 0 -144 58z" />
    <glyph glyph-name="Adieresis" unicode="&#xc4;" horiz-adv-x="1362" 
d="M1214 0h-205l-60 361h-596l-200 -361h-205l800 1400h210zM440 524h484l-112 668zM612 1664q9 47 48 80t87 33q41 0 67 -25.5t26 -65.5q0 -12 -2 -22q-10 -48 -48.5 -80.5t-86.5 -32.5q-42 0 -68 25t-26 64q0 12 3 24zM970 1664q9 47 48 80t87 33q41 0 67 -25.5t26 -65.5
q0 -12 -2 -22q-10 -48 -48.5 -80.5t-86.5 -32.5q-42 0 -68 25t-26 64q0 12 3 24z" />
    <glyph glyph-name="Aring" unicode="&#xc5;" horiz-adv-x="1362" 
d="M1214 0h-205l-60 361h-596l-200 -361h-205l800 1400h210zM440 524h484l-112 668zM817 1687q-2 -9 -2 -18q0 -32 21 -52t55 -20q39 0 70 25t38 64q2 10 2 19q0 31 -20.5 50.5t-54.5 19.5q-38 0 -69 -24.5t-40 -63.5zM698 1686q17 85 88 140t160 55q79 0 127.5 -44
t48.5 -113q0 -18 -4 -38q-17 -84 -87 -139.5t-160 -55.5q-79 0 -128 44.5t-49 113.5q0 17 4 37z" />
    <glyph glyph-name="AE" unicode="&#xc6;" horiz-adv-x="1846" 
d="M132 0h-214l1076 1400h890l-32 -163h-621l-88 -452h571l-32 -163h-571l-89 -459h639l-31 -163h-827l70 361h-467zM528 524h376l130 665z" />
    <glyph glyph-name="Ccedilla" unicode="&#xc7;" horiz-adv-x="1368" 
d="M614 -209q-30 0 -57 -5l-26 38l115 155q-245 20 -394 179.5t-149 397.5q0 74 14 144q39 201 168 367.5t316.5 261.5t391.5 95q260 0 432 -155l-122 -142q-80 64 -160 97.5t-182 33.5q-228 0 -418 -162t-235 -396q-11 -54 -11 -113q0 -194 124.5 -319.5t322.5 -125.5
q207 0 407 142l72 -141q-200 -142 -436 -163l-79 -95q71 -13 110.5 -57.5t39.5 -105.5q0 -16 -3 -34q-17 -89 -101 -148.5t-192 -59.5q-106 0 -167 58l79 90q38 -36 101 -36q52 0 91 28.5t47 70.5q2 12 2 18q0 36 -27.5 59t-73.5 23z" />
    <glyph glyph-name="Egrave" unicode="&#xc8;" horiz-adv-x="1129" 
d="M68 0l272 1400h827l-32 -163h-639l-88 -452h588l-32 -163h-588l-89 -459h657l-31 -163h-845zM701 1847l209 -337h-180l-215 337h186z" />
    <glyph glyph-name="Eacute" unicode="&#xc9;" horiz-adv-x="1129" 
d="M68 0l272 1400h827l-32 -163h-639l-88 -452h588l-32 -163h-588l-89 -459h657l-31 -163h-845zM644 1510l339 337h186l-345 -337h-180z" />
    <glyph glyph-name="Ecircumflex" unicode="&#xca;" horiz-adv-x="1129" 
d="M68 0l272 1400h827l-32 -163h-639l-88 -452h588l-32 -163h-588l-89 -459h657l-31 -163h-845zM904 1847l226 -337h-180l-136 199l-214 -199h-180l358 337h126z" />
    <glyph glyph-name="Edieresis" unicode="&#xcb;" horiz-adv-x="1129" 
d="M68 0l272 1400h827l-32 -163h-639l-88 -452h588l-32 -163h-588l-89 -459h657l-31 -163h-845zM510 1664q9 47 48 80t87 33q41 0 67 -25.5t26 -65.5q0 -12 -2 -22q-10 -48 -48.5 -80.5t-86.5 -32.5q-42 0 -68 25t-26 64q0 12 3 24zM868 1664q9 47 48 80t87 33
q41 0 67 -25.5t26 -65.5q0 -12 -2 -22q-10 -48 -48.5 -80.5t-86.5 -32.5q-42 0 -68 25t-26 64q0 12 3 24z" />
    <glyph glyph-name="Igrave" unicode="&#xcc;" horiz-adv-x="570" 
d="M363 1400h188l-272 -1400h-188zM419 1847l209 -337h-180l-215 337h186z" />
    <glyph glyph-name="Iacute" unicode="&#xcd;" horiz-adv-x="570" 
d="M363 1400h188l-272 -1400h-188zM330 1510l339 337h186l-345 -337h-180z" />
    <glyph glyph-name="Icircumflex" unicode="&#xce;" horiz-adv-x="570" 
d="M363 1400h188l-272 -1400h-188zM607 1847l226 -337h-180l-136 199l-214 -199h-180l358 337h126z" />
    <glyph glyph-name="Idieresis" unicode="&#xcf;" horiz-adv-x="570" 
d="M363 1400h188l-272 -1400h-188zM216 1664q9 47 48 80t87 33q41 0 67 -25.5t26 -65.5q0 -12 -2 -22q-10 -48 -48.5 -80.5t-86.5 -32.5q-42 0 -68 25t-26 64q0 12 3 24zM574 1664q9 47 48 80t87 33q41 0 67 -25.5t26 -65.5q0 -12 -2 -22q-10 -48 -48.5 -80.5t-86.5 -32.5
q-42 0 -68 25t-26 64q0 12 3 24z" />
    <glyph glyph-name="Eth" unicode="&#xd0;" horiz-adv-x="1452" 
d="M379 1400h475q270 0 420.5 -140.5t150.5 -386.5q0 -81 -18 -173q-63 -321 -286 -510.5t-539 -189.5h-475l122 629h-183l27 142h183zM821 1234h-287l-90 -463h307l-27 -142h-307l-90 -463h287q227 0 389 138.5t213 395.5q15 78 15 146q0 189 -109 288.5t-301 99.5z" />
    <glyph glyph-name="Ntilde" unicode="&#xd1;" horiz-adv-x="1399" 
d="M68 0l272 1400h181l491 -1074l209 1074h182l-272 -1400h-181l-492 1074l-208 -1074h-182zM901 1580l-19.5 16.5l-20.5 17.5t-18.5 13.5t-21.5 10.5t-20 3q-49 0 -89 -101l-147 30q84 213 229 213q76 0 145 -58q4 -3 19 -16.5t21 -18t18 -12.5t22 -11t20 -3
q26 0 46.5 24.5t42.5 76.5l147 -30q-85 -213 -230 -213q-77 0 -144 58z" />
    <glyph glyph-name="Ograve" unicode="&#xd2;" horiz-adv-x="1634" 
d="M744 142q228 0 418 162t236 396q11 60 11 112q0 195 -124.5 320.5t-323.5 125.5q-228 0 -418 -162t-235 -396q-11 -54 -11 -113q0 -194 124.5 -319.5t322.5 -125.5zM993 1424q135 0 249 -43.5t193 -120.5t123.5 -184.5t44.5 -232.5q0 -74 -14 -143q-39 -201 -168.5 -367
t-317 -261.5t-391.5 -95.5q-135 0 -249 43.5t-193 120t-123 184t-44 232.5q0 74 14 144q39 201 168 367.5t316.5 261.5t391.5 95zM947 1847l209 -337h-180l-215 337h186z" />
    <glyph glyph-name="Oacute" unicode="&#xd3;" horiz-adv-x="1634" 
d="M744 142q228 0 418 162t236 396q11 60 11 112q0 195 -124.5 320.5t-323.5 125.5q-228 0 -418 -162t-235 -396q-11 -54 -11 -113q0 -194 124.5 -319.5t322.5 -125.5zM993 1424q135 0 249 -43.5t193 -120.5t123.5 -184.5t44.5 -232.5q0 -74 -14 -143q-39 -201 -168.5 -367
t-317 -261.5t-391.5 -95.5q-135 0 -249 43.5t-193 120t-123 184t-44 232.5q0 74 14 144q39 201 168 367.5t316.5 261.5t391.5 95zM867 1510l339 337h186l-345 -337h-180z" />
    <glyph glyph-name="Ocircumflex" unicode="&#xd4;" horiz-adv-x="1634" 
d="M744 142q228 0 418 162t236 396q11 60 11 112q0 195 -124.5 320.5t-323.5 125.5q-228 0 -418 -162t-235 -396q-11 -54 -11 -113q0 -194 124.5 -319.5t322.5 -125.5zM993 1424q135 0 249 -43.5t193 -120.5t123.5 -184.5t44.5 -232.5q0 -74 -14 -143q-39 -201 -168.5 -367
t-317 -261.5t-391.5 -95.5q-135 0 -249 43.5t-193 120t-123 184t-44 232.5q0 74 14 144q39 201 168 367.5t316.5 261.5t391.5 95zM1139 1847l226 -337h-180l-136 199l-214 -199h-180l358 337h126z" />
    <glyph glyph-name="Otilde" unicode="&#xd5;" horiz-adv-x="1634" 
d="M744 142q228 0 418 162t236 396q11 60 11 112q0 195 -124.5 320.5t-323.5 125.5q-228 0 -418 -162t-235 -396q-11 -54 -11 -113q0 -194 124.5 -319.5t322.5 -125.5zM993 1424q135 0 249 -43.5t193 -120.5t123.5 -184.5t44.5 -232.5q0 -74 -14 -143q-39 -201 -168.5 -367
t-317 -261.5t-391.5 -95.5q-135 0 -249 43.5t-193 120t-123 184t-44 232.5q0 74 14 144q39 201 168 367.5t316.5 261.5t391.5 95zM1019 1580l-19.5 16.5l-20.5 17.5t-18.5 13.5t-21.5 10.5t-20 3q-49 0 -89 -101l-147 30q84 213 229 213q76 0 145 -58q4 -3 19 -16.5t21 -18
t18 -12.5t22 -11t20 -3q26 0 46.5 24.5t42.5 76.5l147 -30q-85 -213 -230 -213q-77 0 -144 58z" />
    <glyph glyph-name="Odieresis" unicode="&#xd6;" horiz-adv-x="1634" 
d="M744 142q228 0 418 162t236 396q11 60 11 112q0 195 -124.5 320.5t-323.5 125.5q-228 0 -418 -162t-235 -396q-11 -54 -11 -113q0 -194 124.5 -319.5t322.5 -125.5zM993 1424q135 0 249 -43.5t193 -120.5t123.5 -184.5t44.5 -232.5q0 -74 -14 -143q-39 -201 -168.5 -367
t-317 -261.5t-391.5 -95.5q-135 0 -249 43.5t-193 120t-123 184t-44 232.5q0 74 14 144q39 201 168 367.5t316.5 261.5t391.5 95zM748 1664q9 47 48 80t87 33q41 0 67 -25.5t26 -65.5q0 -12 -2 -22q-10 -48 -48.5 -80.5t-86.5 -32.5q-42 0 -68 25t-26 64q0 12 3 24z
M1106 1664q9 47 48 80t87 33q41 0 67 -25.5t26 -65.5q0 -12 -2 -22q-10 -48 -48.5 -80.5t-86.5 -32.5q-42 0 -68 25t-26 64q0 12 3 24z" />
    <glyph glyph-name="multiply" unicode="&#xd7;" horiz-adv-x="1148" 
d="M167 353l304 307l-304 307l123 123l304 -307l304 307l123 -123l-305 -307l305 -307l-123 -123l-304 306l-304 -306z" />
    <glyph glyph-name="Oslash" unicode="&#xd8;" horiz-adv-x="1634" 
d="M993 1424q213 0 367 -105l138 141h172l-215 -220q148 -161 148 -397q0 -74 -14 -143q-39 -201 -168.5 -367t-317 -261.5t-391.5 -95.5q-225 0 -385 116l-148 -152h-172l231 235q-135 154 -135 380q0 75 14 145q39 201 168 367.5t316.5 261.5t391.5 95zM744 142
q228 0 418 162t236 396q11 60 11 111q0 168 -94 287l-852 -868q116 -88 281 -88zM308 700q-11 -54 -11 -114q0 -156 80 -268l848 863q-113 77 -264 77q-228 0 -418 -162t-235 -396z" />
    <glyph glyph-name="Ugrave" unicode="&#xd9;" horiz-adv-x="1326" 
d="M1343 1400l-177 -911q-30 -152 -120 -269t-217.5 -179.5t-270.5 -62.5q-189 0 -304.5 107.5t-115.5 288.5q0 55 12 115l177 911h188l-182 -932q-7 -35 -7 -71q0 -115 72.5 -184t191.5 -69q138 0 246.5 90t136.5 234l182 932h188zM785 1847l209 -337h-180l-215 337h186z
" />
    <glyph glyph-name="Uacute" unicode="&#xda;" horiz-adv-x="1326" 
d="M1343 1400l-177 -911q-30 -152 -120 -269t-217.5 -179.5t-270.5 -62.5q-189 0 -304.5 107.5t-115.5 288.5q0 55 12 115l177 911h188l-182 -932q-7 -35 -7 -71q0 -115 72.5 -184t191.5 -69q138 0 246.5 90t136.5 234l182 932h188zM723 1510l339 337h186l-345 -337h-180z
" />
    <glyph glyph-name="Ucircumflex" unicode="&#xdb;" horiz-adv-x="1326" 
d="M1343 1400l-177 -911q-30 -152 -120 -269t-217.5 -179.5t-270.5 -62.5q-189 0 -304.5 107.5t-115.5 288.5q0 55 12 115l177 911h188l-182 -932q-7 -35 -7 -71q0 -115 72.5 -184t191.5 -69q138 0 246.5 90t136.5 234l182 932h188zM985 1847l226 -337h-180l-136 199
l-214 -199h-180l358 337h126z" />
    <glyph glyph-name="Udieresis" unicode="&#xdc;" horiz-adv-x="1326" 
d="M1343 1400l-177 -911q-30 -152 -120 -269t-217.5 -179.5t-270.5 -62.5q-189 0 -304.5 107.5t-115.5 288.5q0 55 12 115l177 911h188l-182 -932q-7 -35 -7 -71q0 -115 72.5 -184t191.5 -69q138 0 246.5 90t136.5 234l182 932h188zM594 1664q9 47 48 80t87 33
q41 0 67 -25.5t26 -65.5q0 -12 -2 -22q-10 -48 -48.5 -80.5t-86.5 -32.5q-42 0 -68 25t-26 64q0 12 3 24zM952 1664q9 47 48 80t87 33q41 0 67 -25.5t26 -65.5q0 -12 -2 -22q-10 -48 -48.5 -80.5t-86.5 -32.5q-42 0 -68 25t-26 64q0 12 3 24z" />
    <glyph glyph-name="Yacute" unicode="&#xdd;" horiz-adv-x="1286" 
d="M422 1400l268 -642l518 642h203l-663 -826l-111 -574h-188l111 574l-341 826h203zM706 1510l339 337h186l-345 -337h-180z" />
    <glyph glyph-name="Thorn" unicode="&#xde;" horiz-adv-x="1170" 
d="M566 264h-259l-51 -264h-188l272 1400h188l-52 -264h259q193 0 300 -91t107 -248q0 -48 -10 -97q-39 -199 -191.5 -317.5t-374.5 -118.5zM941 700q6 33 6 64q0 98 -64.5 153.5t-185.5 55.5h-252l-106 -546h252q140 0 232.5 73.5t117.5 199.5z" />
    <glyph glyph-name="germandbls" unicode="&#xdf;" horiz-adv-x="1215" 
d="M55 0l199 1026q34 177 171.5 287.5t315.5 110.5q153 0 249 -84.5t96 -212.5q0 -31 -6 -62q-21 -104 -101.5 -186.5t-194.5 -119.5q145 -22 233 -108.5t88 -211.5q0 -27 -7 -67q-33 -168 -187 -282t-351 -114q-133 0 -225 58l79 165q33 -27 81.5 -43.5t96.5 -16.5
q114 0 204.5 67.5t110.5 165.5q5 27 5 47q0 109 -99 177.5t-275 72.5l30 157q120 8 210 71t109 160q4 17 4 38q0 71 -50.5 118.5t-130.5 47.5q-96 0 -172 -64t-95 -163l-200 -1034h-188z" />
    <glyph glyph-name="agrave" unicode="&#xe0;" horiz-adv-x="1297" 
d="M561 139q109 0 209.5 56t164.5 149l67 345q-28 94 -106.5 151t-187.5 57q-158 0 -288 -110.5t-161 -268.5q-7 -35 -7 -74q0 -132 85.5 -218.5t223.5 -86.5zM710 1060q221 0 334 -158l26 134h182l-201 -1036h-182l26 134q-173 -158 -396 -158q-131 0 -231.5 57.5
t-152.5 155.5t-52 220q0 51 11 109q28 146 120 269.5t229 198t287 74.5zM694 1523l209 -337h-180l-215 337h186z" />
    <glyph glyph-name="aacute" unicode="&#xe1;" horiz-adv-x="1297" 
d="M561 139q109 0 209.5 56t164.5 149l67 345q-28 94 -106.5 151t-187.5 57q-158 0 -288 -110.5t-161 -268.5q-7 -35 -7 -74q0 -132 85.5 -218.5t223.5 -86.5zM710 1060q221 0 334 -158l26 134h182l-201 -1036h-182l26 134q-173 -158 -396 -158q-131 0 -231.5 57.5
t-152.5 155.5t-52 220q0 51 11 109q28 146 120 269.5t229 198t287 74.5zM590 1186l339 337h186l-345 -337h-180z" />
    <glyph glyph-name="acircumflex" unicode="&#xe2;" horiz-adv-x="1297" 
d="M561 139q109 0 209.5 56t164.5 149l67 345q-28 94 -106.5 151t-187.5 57q-158 0 -288 -110.5t-161 -268.5q-7 -35 -7 -74q0 -132 85.5 -218.5t223.5 -86.5zM710 1060q221 0 334 -158l26 134h182l-201 -1036h-182l26 134q-173 -158 -396 -158q-131 0 -231.5 57.5
t-152.5 155.5t-52 220q0 51 11 109q28 146 120 269.5t229 198t287 74.5zM890 1523l226 -337h-180l-136 199l-214 -199h-180l358 337h126z" />
    <glyph glyph-name="atilde" unicode="&#xe3;" horiz-adv-x="1297" 
d="M561 139q109 0 209.5 56t164.5 149l67 345q-28 94 -106.5 151t-187.5 57q-158 0 -288 -110.5t-161 -268.5q-7 -35 -7 -74q0 -132 85.5 -218.5t223.5 -86.5zM710 1060q221 0 334 -158l26 134h182l-201 -1036h-182l26 134q-173 -158 -396 -158q-131 0 -231.5 57.5
t-152.5 155.5t-52 220q0 51 11 109q28 146 120 269.5t229 198t287 74.5zM757 1256l-19.5 16.5l-20.5 17.5t-18.5 13.5t-21.5 10.5t-20 3q-49 0 -89 -101l-147 30q84 213 229 213q76 0 145 -58q4 -3 19 -16.5t21 -18t18 -12.5t22 -11t20 -3q26 0 46.5 24.5t42.5 76.5l147 -30
q-85 -213 -230 -213q-77 0 -144 58z" />
    <glyph glyph-name="adieresis" unicode="&#xe4;" horiz-adv-x="1297" 
d="M561 139q109 0 209.5 56t164.5 149l67 345q-28 94 -106.5 151t-187.5 57q-158 0 -288 -110.5t-161 -268.5q-7 -35 -7 -74q0 -132 85.5 -218.5t223.5 -86.5zM710 1060q221 0 334 -158l26 134h182l-201 -1036h-182l26 134q-173 -158 -396 -158q-131 0 -231.5 57.5
t-152.5 155.5t-52 220q0 51 11 109q28 146 120 269.5t229 198t287 74.5zM484 1340q9 47 48 80t87 33q41 0 67 -25.5t26 -65.5q0 -12 -2 -22q-10 -48 -48.5 -80.5t-86.5 -32.5q-42 0 -68 25t-26 64q0 12 3 24zM842 1340q9 47 48 80t87 33q41 0 67 -25.5t26 -65.5
q0 -12 -2 -22q-10 -48 -48.5 -80.5t-86.5 -32.5q-42 0 -68 25t-26 64q0 12 3 24z" />
    <glyph glyph-name="aring" unicode="&#xe5;" horiz-adv-x="1297" 
d="M561 139q109 0 209.5 56t164.5 149l67 345q-28 94 -106.5 151t-187.5 57q-158 0 -288 -110.5t-161 -268.5q-7 -35 -7 -74q0 -132 85.5 -218.5t223.5 -86.5zM710 1060q221 0 334 -158l26 134h182l-201 -1036h-182l26 134q-173 -158 -396 -158q-131 0 -231.5 57.5
t-152.5 155.5t-52 220q0 51 11 109q28 146 120 269.5t229 198t287 74.5zM689 1363q-2 -9 -2 -18q0 -32 21 -52t55 -20q39 0 70 25t38 64q2 10 2 19q0 31 -20.5 50.5t-54.5 19.5q-38 0 -69 -24.5t-40 -63.5zM570 1362q17 85 88 140t160 55q79 0 127.5 -44t48.5 -113
q0 -18 -4 -38q-17 -84 -87 -139.5t-160 -55.5q-79 0 -128 44.5t-49 113.5q0 17 4 37z" />
    <glyph glyph-name="ae" unicode="&#xe6;" horiz-adv-x="2024" 
d="M1059 461q-1 -11 -1 -32q0 -129 84 -212.5t221 -83.5q185 0 351 150l102 -116q-205 -191 -479 -191q-144 0 -250 61t-155 163q-88 -104 -214 -164t-263 -60q-189 0 -307 82.5t-118 208.5q0 21 5 49q27 138 180.5 232t347.5 94q95 0 186.5 -27t147.5 -69q0 10 3 25l6 20.5
t5 19.5q3 23 3 43q0 113 -78.5 181t-205.5 68q-92 0 -186 -34.5t-174 -92.5l-42 140q206 144 438 144q142 0 245.5 -62t140.5 -171q87 106 215 169.5t266 63.5q198 0 315 -117t117 -298q0 -53 -10 -104q-8 -40 -24 -80h-872zM494 133q112 0 208.5 48t159.5 131q1 45 8 94
q-49 45 -129.5 69.5t-173.5 24.5q-135 0 -235 -53.5t-115 -130.5q-2 -10 -2 -22q0 -69 78 -115t201 -46zM1502 903q-126 0 -240.5 -83t-166.5 -208h683v9q0 124 -75.5 203t-200.5 79z" />
    <glyph glyph-name="ccedilla" unicode="&#xe7;" horiz-adv-x="1098" 
d="M424 -209q-30 0 -57 -5l-26 38l116 156q-180 22 -286.5 141t-106.5 292q0 54 10 105q29 148 125 272t239.5 197t301.5 73q216 0 350 -137l-123 -143q-110 117 -259 117q-158 0 -288 -110.5t-161 -268.5q-7 -35 -7 -74q0 -132 85.5 -218.5t223.5 -86.5q161 0 313 125
l81 -133q-160 -130 -358 -151l-79 -95q71 -13 110.5 -57.5t39.5 -105.5q0 -16 -3 -34q-17 -89 -101 -148.5t-192 -59.5q-106 0 -167 58l79 90q38 -36 101 -36q52 0 91 28.5t47 70.5q2 12 2 18q0 36 -27.5 59t-73.5 23z" />
    <glyph glyph-name="egrave" unicode="&#xe8;" horiz-adv-x="1224" 
d="M249 461q-1 -11 -1 -32q0 -129 85 -212.5t224 -83.5q189 0 357 150l102 -116q-207 -191 -484 -191q-216 0 -342.5 121.5t-126.5 311.5q0 51 11 109q45 227 232.5 384.5t421.5 157.5q199 0 318 -117.5t119 -298.5q0 -53 -10 -103q-7 -36 -25 -80h-881zM697 903
q-128 0 -244 -83t-168 -208h692v11q0 123 -77 201.5t-203 78.5zM693 1523l209 -337h-180l-215 337h186z" />
    <glyph glyph-name="eacute" unicode="&#xe9;" horiz-adv-x="1224" 
d="M249 461q-1 -11 -1 -32q0 -129 85 -212.5t224 -83.5q189 0 357 150l102 -116q-207 -191 -484 -191q-216 0 -342.5 121.5t-126.5 311.5q0 51 11 109q45 227 232.5 384.5t421.5 157.5q199 0 318 -117.5t119 -298.5q0 -53 -10 -103q-7 -36 -25 -80h-881zM697 903
q-128 0 -244 -83t-168 -208h692v11q0 123 -77 201.5t-203 78.5zM584 1186l339 337h186l-345 -337h-180z" />
    <glyph glyph-name="ecircumflex" unicode="&#xea;" horiz-adv-x="1224" 
d="M249 461q-1 -11 -1 -32q0 -129 85 -212.5t224 -83.5q189 0 357 150l102 -116q-207 -191 -484 -191q-216 0 -342.5 121.5t-126.5 311.5q0 51 11 109q45 227 232.5 384.5t421.5 157.5q199 0 318 -117.5t119 -298.5q0 -53 -10 -103q-7 -36 -25 -80h-881zM697 903
q-128 0 -244 -83t-168 -208h692v11q0 123 -77 201.5t-203 78.5zM871 1523l226 -337h-180l-136 199l-214 -199h-180l358 337h126z" />
    <glyph glyph-name="edieresis" unicode="&#xeb;" horiz-adv-x="1224" 
d="M249 461q-1 -11 -1 -32q0 -129 85 -212.5t224 -83.5q189 0 357 150l102 -116q-207 -191 -484 -191q-216 0 -342.5 121.5t-126.5 311.5q0 51 11 109q45 227 232.5 384.5t421.5 157.5q199 0 318 -117.5t119 -298.5q0 -53 -10 -103q-7 -36 -25 -80h-881zM697 903
q-128 0 -244 -83t-168 -208h692v11q0 123 -77 201.5t-203 78.5zM480 1340q9 47 48 80t87 33q41 0 67 -25.5t26 -65.5q0 -12 -2 -22q-10 -48 -48.5 -80.5t-86.5 -32.5q-42 0 -68 25t-26 64q0 12 3 24zM838 1340q9 47 48 80t87 33q41 0 67 -25.5t26 -65.5q0 -12 -2 -22
q-10 -48 -48.5 -80.5t-86.5 -32.5q-42 0 -68 25t-26 64q0 12 3 24z" />
    <glyph glyph-name="igrave" unicode="&#xec;" horiz-adv-x="522" 
d="M70 0l201 1036h182l-201 -1036h-182zM321 1523l209 -337h-180l-215 337h186z" />
    <glyph glyph-name="iacute" unicode="&#xed;" horiz-adv-x="522" 
d="M70 0l201 1036h182l-201 -1036h-182zM252 1186l339 337h186l-345 -337h-180z" />
    <glyph glyph-name="icircumflex" unicode="&#xee;" horiz-adv-x="522" 
d="M70 0l201 1036h182l-201 -1036h-182zM520 1523l226 -337h-180l-136 199l-214 -199h-180l358 337h126z" />
    <glyph glyph-name="idieresis" unicode="&#xef;" horiz-adv-x="522" 
d="M70 0l201 1036h182l-201 -1036h-182zM130 1340q9 47 48 80t87 33q41 0 67 -25.5t26 -65.5q0 -12 -2 -22q-10 -48 -48.5 -80.5t-86.5 -32.5q-42 0 -68 25t-26 64q0 12 3 24zM488 1340q9 47 48 80t87 33q41 0 67 -25.5t26 -65.5q0 -12 -2 -22q-10 -48 -48.5 -80.5
t-86.5 -32.5q-42 0 -68 25t-26 64q0 12 3 24z" />
    <glyph glyph-name="eth" unicode="&#xf0;" horiz-adv-x="1229" 
d="M744 1181l-337 -145l-30 112l267 115q-79 58 -182 108l161 89q107 -50 199 -122l247 107l30 -111l-186 -80q116 -121 179 -275.5t63 -323.5q0 -82 -17 -173q-27 -140 -120.5 -256t-229.5 -183t-284 -67q-198 0 -322.5 116t-124.5 295q0 45 9 95q27 137 120 252.5
t223.5 181.5t265.5 66q178 0 277 -130q-57 190 -208 329zM672 831q-149 0 -270.5 -100.5t-149.5 -245.5q-7 -32 -7 -68q0 -121 81.5 -199.5t211.5 -78.5q148 0 269 100t150 246q6 35 6 67q0 122 -81 200.5t-210 78.5z" />
    <glyph glyph-name="ntilde" unicode="&#xf1;" horiz-adv-x="1207" 
d="M361 687l-133 -687h-182l201 1036h182l-31 -159q77 80 173.5 131.5t198.5 51.5q158 0 251 -89t93 -237q0 -48 -10 -97l-123 -637h-182l121 627q6 31 6 60q0 94 -60 152t-162 58q-91 0 -182 -61t-161 -149zM752 1256l-19.5 16.5l-20.5 17.5t-18.5 13.5t-21.5 10.5t-20 3
q-49 0 -89 -101l-147 30q84 213 229 213q76 0 145 -58q4 -3 19 -16.5t21 -18t18 -12.5t22 -11t20 -3q26 0 46.5 24.5t42.5 76.5l147 -30q-86 -213 -230 -213q-77 0 -144 58z" />
    <glyph glyph-name="ograve" unicode="&#xf2;" horiz-adv-x="1268" 
d="M561 139q158 0 288 110.5t160 268.5q8 42 8 76q0 131 -85.5 217t-223.5 86q-158 0 -288 -110.5t-161 -268.5q-7 -35 -7 -74q0 -132 85.5 -218.5t223.5 -86.5zM740 1060q210 0 337 -123t127 -313q0 -55 -10 -106q-29 -148 -125 -272t-239 -197t-301 -73
q-210 0 -337.5 123.5t-127.5 313.5q0 54 10 105q29 148 125 272t239.5 197t301.5 73zM702 1523l209 -337h-180l-215 337h186z" />
    <glyph glyph-name="oacute" unicode="&#xf3;" horiz-adv-x="1268" 
d="M561 139q158 0 288 110.5t160 268.5q8 42 8 76q0 131 -85.5 217t-223.5 86q-158 0 -288 -110.5t-161 -268.5q-7 -35 -7 -74q0 -132 85.5 -218.5t223.5 -86.5zM740 1060q210 0 337 -123t127 -313q0 -55 -10 -106q-29 -148 -125 -272t-239 -197t-301 -73
q-210 0 -337.5 123.5t-127.5 313.5q0 54 10 105q29 148 125 272t239.5 197t301.5 73zM621 1186l339 337h186l-345 -337h-180z" />
    <glyph glyph-name="ocircumflex" unicode="&#xf4;" horiz-adv-x="1268" 
d="M561 139q158 0 288 110.5t160 268.5q8 42 8 76q0 131 -85.5 217t-223.5 86q-158 0 -288 -110.5t-161 -268.5q-7 -35 -7 -74q0 -132 85.5 -218.5t223.5 -86.5zM740 1060q210 0 337 -123t127 -313q0 -55 -10 -106q-29 -148 -125 -272t-239 -197t-301 -73
q-210 0 -337.5 123.5t-127.5 313.5q0 54 10 105q29 148 125 272t239.5 197t301.5 73zM893 1523l226 -337h-180l-136 199l-214 -199h-180l358 337h126z" />
    <glyph glyph-name="otilde" unicode="&#xf5;" horiz-adv-x="1268" 
d="M561 139q158 0 288 110.5t160 268.5q8 42 8 76q0 131 -85.5 217t-223.5 86q-158 0 -288 -110.5t-161 -268.5q-7 -35 -7 -74q0 -132 85.5 -218.5t223.5 -86.5zM740 1060q210 0 337 -123t127 -313q0 -55 -10 -106q-29 -148 -125 -272t-239 -197t-301 -73
q-210 0 -337.5 123.5t-127.5 313.5q0 54 10 105q29 148 125 272t239.5 197t301.5 73zM773 1256l-19.5 16.5l-20.5 17.5t-18.5 13.5t-21.5 10.5t-20 3q-49 0 -89 -101l-147 30q84 213 229 213q76 0 145 -58q4 -3 19 -16.5t21 -18t18 -12.5t22 -11t20 -3q26 0 46.5 24.5
t42.5 76.5l147 -30q-85 -213 -230 -213q-77 0 -144 58z" />
    <glyph glyph-name="odieresis" unicode="&#xf6;" horiz-adv-x="1268" 
d="M561 139q158 0 288 110.5t160 268.5q8 42 8 76q0 131 -85.5 217t-223.5 86q-158 0 -288 -110.5t-161 -268.5q-7 -35 -7 -74q0 -132 85.5 -218.5t223.5 -86.5zM740 1060q210 0 337 -123t127 -313q0 -55 -10 -106q-29 -148 -125 -272t-239 -197t-301 -73
q-210 0 -337.5 123.5t-127.5 313.5q0 54 10 105q29 148 125 272t239.5 197t301.5 73zM502 1340q9 47 48 80t87 33q41 0 67 -25.5t26 -65.5q0 -12 -2 -22q-10 -48 -48.5 -80.5t-86.5 -32.5q-42 0 -68 25t-26 64q0 12 3 24zM860 1340q9 47 48 80t87 33q41 0 67 -25.5t26 -65.5
q0 -12 -2 -22q-10 -48 -48.5 -80.5t-86.5 -32.5q-42 0 -68 25t-26 64q0 12 3 24z" />
    <glyph glyph-name="divide" unicode="&#xf7;" horiz-adv-x="1148" 
d="M1049 586h-910v157h910v-157zM469 1042q0 53 36 89t89 36t89 -36t36 -89t-36 -89t-89 -36t-89 36t-36 89zM469 287q0 53 36 89t89 36t89 -36t36 -89t-36 -89t-89 -36t-89 36t-36 89z" />
    <glyph glyph-name="oslash" unicode="&#xf8;" horiz-adv-x="1268" 
d="M740 1060q156 0 273 -74l110 110h164l-185 -187q102 -116 102 -286q0 -54 -10 -105q-29 -148 -125 -272t-239 -197t-301 -73q-160 0 -276 75l-109 -111h-164l185 187q-102 117 -102 285q0 49 11 106q29 148 125 272t239.5 197t301.5 73zM561 139q158 0 288 110.5
t160 268.5q7 36 7 75q0 102 -52 177l-577 -584q74 -47 174 -47zM259 518q-7 -36 -7 -76q0 -101 50 -175l578 584q-75 46 -172 46q-158 0 -288 -110.5t-161 -268.5z" />
    <glyph glyph-name="ugrave" unicode="&#xf9;" horiz-adv-x="1207" 
d="M846 349l134 687h182l-201 -1036h-182l30 159q-76 -80 -172.5 -131.5t-198.5 -51.5q-158 0 -251.5 89.5t-93.5 237.5q0 47 10 96l124 637h182l-122 -627q-6 -30 -6 -58q0 -95 60.5 -153.5t162.5 -58.5q90 0 181 60.5t161 149.5zM642 1523l209 -337h-180l-215 337h186z
" />
    <glyph glyph-name="uacute" unicode="&#xfa;" horiz-adv-x="1207" 
d="M846 349l134 687h182l-201 -1036h-182l30 159q-76 -80 -172.5 -131.5t-198.5 -51.5q-158 0 -251.5 89.5t-93.5 237.5q0 47 10 96l124 637h182l-122 -627q-6 -30 -6 -58q0 -95 60.5 -153.5t162.5 -58.5q90 0 181 60.5t161 149.5zM584 1186l339 337h186l-345 -337h-180z
" />
    <glyph glyph-name="ucircumflex" unicode="&#xfb;" horiz-adv-x="1207" 
d="M846 349l134 687h182l-201 -1036h-182l30 159q-76 -80 -172.5 -131.5t-198.5 -51.5q-158 0 -251.5 89.5t-93.5 237.5q0 47 10 96l124 637h182l-122 -627q-6 -30 -6 -58q0 -95 60.5 -153.5t162.5 -58.5q90 0 181 60.5t161 149.5zM852 1523l226 -337h-180l-136 199
l-214 -199h-180l358 337h126z" />
    <glyph glyph-name="udieresis" unicode="&#xfc;" horiz-adv-x="1207" 
d="M846 349l134 687h182l-201 -1036h-182l30 159q-76 -80 -172.5 -131.5t-198.5 -51.5q-158 0 -251.5 89.5t-93.5 237.5q0 47 10 96l124 637h182l-122 -627q-6 -30 -6 -58q0 -95 60.5 -153.5t162.5 -58.5q90 0 181 60.5t161 149.5zM462 1340q9 47 48 80t87 33q41 0 67 -25.5
t26 -65.5q0 -12 -2 -22q-10 -48 -48.5 -80.5t-86.5 -32.5q-42 0 -68 25t-26 64q0 12 3 24zM820 1340q9 47 48 80t87 33q41 0 67 -25.5t26 -65.5q0 -12 -2 -22q-10 -48 -48.5 -80.5t-86.5 -32.5q-42 0 -68 25t-26 64q0 12 3 24z" />
    <glyph glyph-name="yacute" unicode="&#xfd;" horiz-adv-x="1050" 
d="M57 -464l275 468l-204 1032h190l152 -801l464 801h190l-877 -1500h-190zM515 1186l339 337h186l-345 -337h-180z" />
    <glyph glyph-name="thorn" unicode="&#xfe;" horiz-adv-x="1297" 
d="M590 139q158 0 288 110.5t160 268.5q8 42 8 76q0 131 -85.5 217t-223.5 86q-109 0 -210 -57t-166 -151l-67 -345q29 -93 108 -149t188 -56zM799 1060q197 0 316 -123t119 -310q0 -51 -11 -109q-28 -146 -119.5 -269.5t-228.5 -198t-287 -74.5q-222 0 -334 158l-117 -598
h-182l374 1924h182l-108 -558q175 158 396 158z" />
    <glyph glyph-name="ydieresis" unicode="&#xff;" horiz-adv-x="1050" 
d="M57 -464l275 468l-204 1032h190l152 -801l464 801h190l-877 -1500h-190zM393 1340q9 47 48 80t87 33q42 0 67.5 -25.5t25.5 -65.5q0 -12 -2 -22q-10 -48 -48.5 -80.5t-86.5 -32.5q-42 0 -68 25t-26 64q0 12 3 24zM751 1340q9 47 48 80t87 33q42 0 67.5 -25.5t25.5 -65.5
q0 -12 -2 -22q-10 -48 -48.5 -80.5t-86.5 -32.5q-42 0 -68 25t-26 64q0 12 3 24z" />
    <glyph glyph-name="Amacron" unicode="&#x100;" horiz-adv-x="1362" 
d="M1214 0h-205l-60 361h-596l-200 -361h-205l800 1400h210zM440 524h484l-112 668zM599 1587l28 142h580l-28 -142h-580z" />
    <glyph glyph-name="amacron" unicode="&#x101;" horiz-adv-x="1297" 
d="M561 139q109 0 209.5 56t164.5 149l67 345q-28 94 -106.5 151t-187.5 57q-158 0 -288 -110.5t-161 -268.5q-7 -35 -7 -74q0 -132 85.5 -218.5t223.5 -86.5zM710 1060q221 0 334 -158l26 134h182l-201 -1036h-182l26 134q-173 -158 -396 -158q-131 0 -231.5 57.5
t-152.5 155.5t-52 220q0 51 11 109q28 146 120 269.5t229 198t287 74.5zM482 1263l28 142h580l-28 -142h-580z" />
    <glyph glyph-name="Abreve" unicode="&#x102;" horiz-adv-x="1362" 
d="M1214 0h-205l-60 361h-596l-200 -361h-205l800 1400h210zM440 524h484l-112 668zM870 1490q-119 0 -194 72.5t-75 188.5q0 24 3 48h162q-3 -18 -3 -34q0 -62 35.5 -100.5t97.5 -38.5q70 0 125 49t73 124h162q-34 -134 -144 -221.5t-242 -87.5z" />
    <glyph glyph-name="abreve" unicode="&#x103;" horiz-adv-x="1297" 
d="M561 139q109 0 209.5 56t164.5 149l67 345q-28 94 -106.5 151t-187.5 57q-158 0 -288 -110.5t-161 -268.5q-7 -35 -7 -74q0 -132 85.5 -218.5t223.5 -86.5zM710 1060q221 0 334 -158l26 134h182l-201 -1036h-182l26 134q-173 -158 -396 -158q-131 0 -231.5 57.5
t-152.5 155.5t-52 220q0 51 11 109q28 146 120 269.5t229 198t287 74.5zM753 1166q-119 0 -194 72.5t-75 188.5q0 24 3 48h162q-3 -18 -3 -34q0 -62 35.5 -100.5t97.5 -38.5q70 0 125 49t73 124h162q-34 -134 -144 -221.5t-242 -87.5z" />
    <glyph glyph-name="Aogonek" unicode="&#x104;" horiz-adv-x="1362" 
d="M1078 0h-69l-60 361h-596l-200 -361h-205l800 1400h210l256 -1400q-96 -68 -150.5 -123.5t-65.5 -109.5q-2 -10 -2 -23q0 -39 24.5 -62.5t65.5 -23.5q48 0 94 27l22 -97q-75 -46 -169 -46q-82 0 -133 46.5t-51 119.5q0 18 4 38q27 133 225 254zM440 524h484l-112 668z
" />
    <glyph glyph-name="aogonek" unicode="&#x105;" horiz-adv-x="1297" 
d="M915 0h-46l26 134q-173 -158 -396 -158q-131 0 -231.5 57.5t-152.5 155.5t-52 220q0 51 11 109q28 146 120 269.5t229 198t287 74.5q221 0 334 -158l26 134h182l-201 -1036q-96 -68 -150.5 -123.5t-65.5 -109.5q-2 -10 -2 -23q0 -39 24.5 -62.5t65.5 -23.5q48 0 94 27
l22 -97q-75 -46 -169 -46q-82 0 -133 46.5t-51 119.5q0 18 4 38q27 133 225 254zM561 139q109 0 209.5 56t164.5 149l67 345q-28 94 -106.5 151t-187.5 57q-158 0 -288 -110.5t-161 -268.5q-7 -35 -7 -74q0 -132 85.5 -218.5t223.5 -86.5z" />
    <glyph glyph-name="Cacute" unicode="&#x106;" horiz-adv-x="1368" 
d="M744 142q207 0 407 142l72 -141q-235 -167 -511 -167q-135 0 -249 43.5t-193 120t-123 184t-44 232.5q0 74 14 144q39 201 168 367.5t316.5 261.5t391.5 95q260 0 432 -155l-122 -142q-80 64 -160 97.5t-182 33.5q-228 0 -418 -162t-235 -396q-11 -54 -11 -113
q0 -194 124.5 -319.5t322.5 -125.5zM815 1510l339 337h186l-345 -337h-180z" />
    <glyph glyph-name="cacute" unicode="&#x107;" horiz-adv-x="1098" 
d="M529 -24q-210 0 -337.5 123.5t-127.5 313.5q0 54 10 105q29 148 125 272t239.5 197t301.5 73q216 0 350 -137l-123 -143q-110 117 -259 117q-158 0 -288 -110.5t-161 -268.5q-7 -35 -7 -74q0 -132 85.5 -218.5t223.5 -86.5q161 0 313 125l81 -133q-190 -155 -426 -155z
M571 1186l339 337h186l-345 -337h-180z" />
    <glyph glyph-name="Ccircumflex" unicode="&#x108;" horiz-adv-x="1368" 
d="M744 142q207 0 407 142l72 -141q-235 -167 -511 -167q-135 0 -249 43.5t-193 120t-123 184t-44 232.5q0 74 14 144q39 201 168 367.5t316.5 261.5t391.5 95q260 0 432 -155l-122 -142q-80 64 -160 97.5t-182 33.5q-228 0 -418 -162t-235 -396q-11 -54 -11 -113
q0 -194 124.5 -319.5t322.5 -125.5zM1087 1847l226 -337h-180l-136 199l-214 -199h-180l358 337h126z" />
    <glyph glyph-name="ccircumflex" unicode="&#x109;" horiz-adv-x="1098" 
d="M529 -24q-210 0 -337.5 123.5t-127.5 313.5q0 54 10 105q29 148 125 272t239.5 197t301.5 73q216 0 350 -137l-123 -143q-110 117 -259 117q-158 0 -288 -110.5t-161 -268.5q-7 -35 -7 -74q0 -132 85.5 -218.5t223.5 -86.5q161 0 313 125l81 -133q-190 -155 -426 -155z
M840 1523l226 -337h-180l-136 199l-214 -199h-180l358 337h126z" />
    <glyph glyph-name="Cdotaccent" unicode="&#x10a;" horiz-adv-x="1368" 
d="M744 142q207 0 407 142l72 -141q-235 -167 -511 -167q-135 0 -249 43.5t-193 120t-123 184t-44 232.5q0 74 14 144q39 201 168 367.5t316.5 261.5t391.5 95q260 0 432 -155l-122 -142q-80 64 -160 97.5t-182 33.5q-228 0 -418 -162t-235 -396q-11 -54 -11 -113
q0 -194 124.5 -319.5t322.5 -125.5zM876 1664q9 47 48 80t87 33q41 0 67 -25.5t26 -65.5q0 -12 -2 -22q-10 -48 -48.5 -80.5t-86.5 -32.5q-42 0 -68 25t-26 64q0 12 3 24z" />
    <glyph glyph-name="cdotaccent" unicode="&#x10b;" horiz-adv-x="1098" 
d="M529 -24q-210 0 -337.5 123.5t-127.5 313.5q0 54 10 105q29 148 125 272t239.5 197t301.5 73q216 0 350 -137l-123 -143q-110 117 -259 117q-158 0 -288 -110.5t-161 -268.5q-7 -35 -7 -74q0 -132 85.5 -218.5t223.5 -86.5q161 0 313 125l81 -133q-190 -155 -426 -155z
M648 1340q9 47 48 80t87 33q41 0 67 -25.5t26 -65.5q0 -12 -2 -22q-10 -48 -48.5 -80.5t-86.5 -32.5q-42 0 -68 25t-26 64q0 12 3 24z" />
    <glyph glyph-name="Ccaron" unicode="&#x10c;" horiz-adv-x="1368" 
d="M744 142q207 0 407 142l72 -141q-235 -167 -511 -167q-135 0 -249 43.5t-193 120t-123 184t-44 232.5q0 74 14 144q39 201 168 367.5t316.5 261.5t391.5 95q260 0 432 -155l-122 -142q-80 64 -160 97.5t-182 33.5q-228 0 -418 -162t-235 -396q-11 -54 -11 -113
q0 -194 124.5 -319.5t322.5 -125.5zM1379 1847l-358 -337h-126l-226 337h180l136 -199l214 199h180z" />
    <glyph glyph-name="ccaron" unicode="&#x10d;" horiz-adv-x="1098" 
d="M529 -24q-210 0 -337.5 123.5t-127.5 313.5q0 54 10 105q29 148 125 272t239.5 197t301.5 73q216 0 350 -137l-123 -143q-110 117 -259 117q-158 0 -288 -110.5t-161 -268.5q-7 -35 -7 -74q0 -132 85.5 -218.5t223.5 -86.5q161 0 313 125l81 -133q-190 -155 -426 -155z
M1129 1503l-358 -337h-126l-226 337h180l136 -199l214 199h180z" />
    <glyph glyph-name="Dcaron" unicode="&#x10e;" horiz-adv-x="1413" 
d="M340 1400h475q270 0 420.5 -140.5t150.5 -386.5q0 -81 -18 -173q-63 -321 -286 -510.5t-539 -189.5h-475zM782 1234h-287l-207 -1068h287q227 0 389 138.5t213 395.5q15 78 15 146q0 189 -109 288.5t-301 99.5zM1279 1847l-358 -337h-126l-226 337h180l136 -199l214 199
h180z" />
    <glyph glyph-name="dcaron" unicode="&#x10f;" horiz-adv-x="1602" 
d="M561 139q109 0 209.5 56t164.5 149l67 345q-28 94 -106.5 151t-187.5 57q-158 0 -288 -110.5t-161 -268.5q-7 -35 -7 -74q0 -132 85.5 -218.5t223.5 -86.5zM710 1060q221 0 334 -158l108 558h182l-283 -1460h-182l26 134q-173 -158 -396 -158q-131 0 -231.5 57.5
t-152.5 155.5t-52 220q0 51 11 109q28 146 120 269.5t229 198t287 74.5zM1478 1363q10 51 51 86t92 35q45 0 72.5 -27.5t27.5 -69.5q0 -16 -2 -24q-5 -25 -24 -55l-183 -280h-119l142 221q-28 10 -44 33.5t-16 54.5q0 13 3 26z" />
    <glyph glyph-name="Dcroat" unicode="&#x110;" horiz-adv-x="1452" 
d="M379 1400h475q270 0 420.5 -140.5t150.5 -386.5q0 -81 -18 -173q-63 -321 -286 -510.5t-539 -189.5h-475l122 629h-183l27 142h183zM821 1234h-287l-90 -463h307l-27 -142h-307l-90 -463h287q227 0 389 138.5t213 395.5q15 78 15 146q0 189 -109 288.5t-301 99.5z" />
    <glyph glyph-name="dcroat" unicode="&#x111;" horiz-adv-x="1328" 
d="M710 1060q221 0 334 -158l53 271h-346l24 126h346l31 161h182l-31 -161h150l-24 -126h-150l-228 -1173h-182l26 134q-173 -158 -396 -158q-131 0 -231.5 57.5t-152.5 155.5t-52 220q0 51 11 109q28 146 120 269.5t229 198t287 74.5zM561 139q109 0 209.5 56t164.5 149
l67 345q-28 94 -106.5 151t-187.5 57q-158 0 -288 -110.5t-161 -268.5q-7 -35 -7 -74q0 -132 85.5 -218.5t223.5 -86.5z" />
    <glyph glyph-name="Emacron" unicode="&#x112;" horiz-adv-x="1129" 
d="M68 0l272 1400h827l-32 -163h-639l-88 -452h588l-32 -163h-588l-89 -459h657l-31 -163h-845zM498 1587l28 142h580l-28 -142h-580z" />
    <glyph glyph-name="emacron" unicode="&#x113;" horiz-adv-x="1224" 
d="M249 461q-1 -11 -1 -32q0 -129 85 -212.5t224 -83.5q189 0 357 150l102 -116q-207 -191 -484 -191q-216 0 -342.5 121.5t-126.5 311.5q0 51 11 109q45 227 232.5 384.5t421.5 157.5q199 0 318 -117.5t119 -298.5q0 -53 -10 -103q-7 -36 -25 -80h-881zM697 903
q-128 0 -244 -83t-168 -208h692v11q0 123 -77 201.5t-203 78.5zM467 1263l28 142h580l-28 -142h-580z" />
    <glyph glyph-name="Ebreve" unicode="&#x114;" horiz-adv-x="1129" 
d="M68 0l272 1400h827l-32 -163h-639l-88 -452h588l-32 -163h-588l-89 -459h657l-31 -163h-845zM767 1490q-119 0 -194 72.5t-75 188.5q0 24 3 48h162q-3 -18 -3 -34q0 -62 35.5 -100.5t97.5 -38.5q70 0 125 49t73 124h162q-34 -134 -144 -221.5t-242 -87.5z" />
    <glyph glyph-name="ebreve" unicode="&#x115;" horiz-adv-x="1224" 
d="M249 461q-1 -11 -1 -32q0 -129 85 -212.5t224 -83.5q189 0 357 150l102 -116q-207 -191 -484 -191q-216 0 -342.5 121.5t-126.5 311.5q0 51 11 109q45 227 232.5 384.5t421.5 157.5q199 0 318 -117.5t119 -298.5q0 -53 -10 -103q-7 -36 -25 -80h-881zM697 903
q-128 0 -244 -83t-168 -208h692v11q0 123 -77 201.5t-203 78.5zM738 1166q-119 0 -194 72.5t-75 188.5q0 24 3 48h162q-3 -18 -3 -34q0 -62 35.5 -100.5t97.5 -38.5q70 0 125 49t73 124h162q-34 -134 -144 -221.5t-242 -87.5z" />
    <glyph glyph-name="Edotaccent" unicode="&#x116;" horiz-adv-x="1129" 
d="M68 0l272 1400h827l-32 -163h-639l-88 -452h588l-32 -163h-588l-89 -459h657l-31 -163h-845zM697 1664q9 47 48 80t87 33q42 0 67.5 -25.5t25.5 -65.5q0 -12 -2 -22q-10 -48 -48.5 -80.5t-86.5 -32.5q-42 0 -68 25t-26 64q0 12 3 24z" />
    <glyph glyph-name="edotaccent" unicode="&#x117;" horiz-adv-x="1224" 
d="M249 461q-1 -11 -1 -32q0 -129 85 -212.5t224 -83.5q189 0 357 150l102 -116q-207 -191 -484 -191q-216 0 -342.5 121.5t-126.5 311.5q0 51 11 109q45 227 232.5 384.5t421.5 157.5q199 0 318 -117.5t119 -298.5q0 -53 -10 -103q-7 -36 -25 -80h-881zM697 903
q-128 0 -244 -83t-168 -208h692v11q0 123 -77 201.5t-203 78.5zM660 1340q9 47 48 80t87 33q41 0 67 -25.5t26 -65.5q0 -12 -2 -22q-10 -48 -48.5 -80.5t-86.5 -32.5q-42 0 -68 25t-26 64q0 12 3 24z" />
    <glyph glyph-name="Eogonek" unicode="&#x118;" horiz-adv-x="1129" 
d="M68 0l272 1400h827l-32 -163h-639l-88 -452h588l-32 -163h-588l-89 -459h657l-31 -163h-175q-96 -68 -150.5 -123.5t-65.5 -109.5q-2 -10 -2 -23q0 -39 24.5 -62.5t65.5 -23.5q48 0 94 27l22 -97q-75 -46 -169 -46q-82 0 -133 46.5t-51 119.5q0 16 4 38q25 133 225 254
h-534z" />
    <glyph glyph-name="eogonek" unicode="&#x119;" horiz-adv-x="1224" 
d="M249 461q-1 -11 -1 -32q0 -129 85 -212.5t224 -83.5q189 0 357 150l102 -116q-176 -163 -411 -187q-84 -62 -131 -112.5t-56 -100.5q-2 -10 -2 -23q0 -39 24.5 -62.5t65.5 -23.5q48 0 94 27l22 -97q-75 -46 -169 -46q-82 0 -133 46.5t-51 119.5q0 17 4 38q22 122 192 234
q-187 18 -294.5 136.5t-107.5 292.5q0 51 11 109q45 227 232.5 384.5t421.5 157.5q199 0 318 -117.5t119 -298.5q0 -53 -10 -103q-7 -36 -25 -80h-881zM697 903q-128 0 -244 -83t-168 -208h692v11q0 123 -77 201.5t-203 78.5z" />
    <glyph glyph-name="Ecaron" unicode="&#x11a;" horiz-adv-x="1129" 
d="M68 0l272 1400h827l-32 -163h-639l-88 -452h588l-32 -163h-588l-89 -459h657l-31 -163h-845zM1195 1847l-358 -337h-126l-226 337h180l136 -199l214 199h180z" />
    <glyph glyph-name="ecaron" unicode="&#x11b;" horiz-adv-x="1224" 
d="M249 461q-1 -11 -1 -32q0 -129 85 -212.5t224 -83.5q189 0 357 150l102 -116q-207 -191 -484 -191q-216 0 -342.5 121.5t-126.5 311.5q0 51 11 109q45 227 232.5 384.5t421.5 157.5q199 0 318 -117.5t119 -298.5q0 -53 -10 -103q-7 -36 -25 -80h-881zM697 903
q-128 0 -244 -83t-168 -208h692v11q0 123 -77 201.5t-203 78.5zM1159 1503l-358 -337h-126l-226 337h180l136 -199l214 199h180z" />
    <glyph glyph-name="Gcircumflex" unicode="&#x11c;" horiz-adv-x="1440" 
d="M961 1258q-228 0 -418 -162t-235 -396q-11 -54 -11 -113q0 -194 124.5 -319.5t322.5 -125.5q80 0 165 24.5t154 68.5l66 341h-383l32 163h571l-114 -586q-112 -83 -247 -130t-276 -47q-135 0 -249 43.5t-193 120t-123 184t-44 232.5q0 74 14 144q39 201 168 367.5
t316.5 261.5t391.5 95q260 0 432 -155l-122 -142q-80 64 -160 97.5t-182 33.5zM1087 1847l226 -337h-180l-136 199l-214 -199h-180l358 337h126z" />
    <glyph glyph-name="gcircumflex" unicode="&#x11d;" horiz-adv-x="1297" 
d="M873 21l22 113q-173 -158 -396 -158q-131 0 -231.5 57.5t-152.5 155.5t-52 220q0 51 11 109q28 146 120 269.5t229 198t287 74.5q221 0 334 -158l26 134h182l-195 -1003q-44 -227 -207.5 -362t-413.5 -135q-143 0 -252.5 55.5t-175.5 152.5l143 118q117 -169 315 -169
q156 0 266.5 88t140.5 240zM561 139q109 0 209.5 56t164.5 149l67 345q-28 94 -106.5 151t-187.5 57q-158 0 -288 -110.5t-161 -268.5q-7 -35 -7 -74q0 -132 85.5 -218.5t223.5 -86.5zM891 1523l226 -337h-180l-136 199l-214 -199h-180l358 337h126z" />
    <glyph glyph-name="Gbreve" unicode="&#x11e;" horiz-adv-x="1440" 
d="M961 1258q-228 0 -418 -162t-235 -396q-11 -54 -11 -113q0 -194 124.5 -319.5t322.5 -125.5q80 0 165 24.5t154 68.5l66 341h-383l32 163h571l-114 -586q-112 -83 -247 -130t-276 -47q-135 0 -249 43.5t-193 120t-123 184t-44 232.5q0 74 14 144q39 201 168 367.5
t316.5 261.5t391.5 95q260 0 432 -155l-122 -142q-80 64 -160 97.5t-182 33.5zM954 1490q-119 0 -194 72.5t-75 188.5q0 24 3 48h162q-3 -18 -3 -34q0 -62 35.5 -100.5t97.5 -38.5q70 0 125 49t73 124h162q-34 -134 -144 -221.5t-242 -87.5z" />
    <glyph glyph-name="gbreve" unicode="&#x11f;" horiz-adv-x="1297" 
d="M873 21l22 113q-173 -158 -396 -158q-131 0 -231.5 57.5t-152.5 155.5t-52 220q0 51 11 109q28 146 120 269.5t229 198t287 74.5q221 0 334 -158l26 134h182l-195 -1003q-44 -227 -207.5 -362t-413.5 -135q-143 0 -252.5 55.5t-175.5 152.5l143 118q117 -169 315 -169
q156 0 266.5 88t140.5 240zM561 139q109 0 209.5 56t164.5 149l67 345q-28 94 -106.5 151t-187.5 57q-158 0 -288 -110.5t-161 -268.5q-7 -35 -7 -74q0 -132 85.5 -218.5t223.5 -86.5zM750 1166q-119 0 -194 72.5t-75 188.5q0 24 3 48h162q-3 -18 -3 -34q0 -62 35.5 -100.5
t97.5 -38.5q70 0 125 49t73 124h162q-34 -134 -144 -221.5t-242 -87.5z" />
    <glyph glyph-name="Gdotaccent" unicode="&#x120;" horiz-adv-x="1440" 
d="M961 1258q-228 0 -418 -162t-235 -396q-11 -54 -11 -113q0 -194 124.5 -319.5t322.5 -125.5q80 0 165 24.5t154 68.5l66 341h-383l32 163h571l-114 -586q-112 -83 -247 -130t-276 -47q-135 0 -249 43.5t-193 120t-123 184t-44 232.5q0 74 14 144q39 201 168 367.5
t316.5 261.5t391.5 95q260 0 432 -155l-122 -142q-80 64 -160 97.5t-182 33.5zM875 1664q9 47 48 80t87 33q42 0 67.5 -25.5t25.5 -65.5q0 -12 -2 -22q-10 -48 -48.5 -80.5t-86.5 -32.5q-42 0 -68 25t-26 64q0 12 3 24z" />
    <glyph glyph-name="gdotaccent" unicode="&#x121;" horiz-adv-x="1297" 
d="M873 21l22 113q-173 -158 -396 -158q-131 0 -231.5 57.5t-152.5 155.5t-52 220q0 51 11 109q28 146 120 269.5t229 198t287 74.5q221 0 334 -158l26 134h182l-195 -1003q-44 -227 -207.5 -362t-413.5 -135q-143 0 -252.5 55.5t-175.5 152.5l143 118q117 -169 315 -169
q156 0 266.5 88t140.5 240zM561 139q109 0 209.5 56t164.5 149l67 345q-28 94 -106.5 151t-187.5 57q-158 0 -288 -110.5t-161 -268.5q-7 -35 -7 -74q0 -132 85.5 -218.5t223.5 -86.5zM664 1340q9 47 48 80t87 33q41 0 67 -25.5t26 -65.5q0 -12 -2 -22q-10 -48 -48.5 -80.5
t-86.5 -32.5q-42 0 -68 25t-26 64q0 12 3 24z" />
    <glyph glyph-name="Gcommaaccent" unicode="&#x122;" horiz-adv-x="1440" 
d="M961 1258q-228 0 -418 -162t-235 -396q-11 -54 -11 -113q0 -194 124.5 -319.5t322.5 -125.5q80 0 165 24.5t154 68.5l66 341h-383l32 163h571l-114 -586q-112 -83 -247 -130t-276 -47q-135 0 -249 43.5t-193 120t-123 184t-44 232.5q0 74 14 144q39 201 168 367.5
t316.5 261.5t391.5 95q260 0 432 -155l-122 -142q-80 64 -160 97.5t-182 33.5zM553 -470h-166l223 342h184z" />
    <glyph glyph-name="gcommaaccent" unicode="&#x123;" horiz-adv-x="1297" 
d="M873 21l22 113q-173 -158 -396 -158q-131 0 -231.5 57.5t-152.5 155.5t-52 220q0 51 11 109q28 146 120 269.5t229 198t287 74.5q221 0 334 -158l26 134h182l-195 -1003q-44 -227 -207.5 -362t-413.5 -135q-143 0 -252.5 55.5t-175.5 152.5l143 118q117 -169 315 -169
q156 0 266.5 88t140.5 240zM561 139q109 0 209.5 56t164.5 149l67 345q-28 94 -106.5 151t-187.5 57q-158 0 -288 -110.5t-161 -268.5q-7 -35 -7 -74q0 -132 85.5 -218.5t223.5 -86.5zM883 1514h166l-223 -342h-184z" />
    <glyph glyph-name="Hcircumflex" unicode="&#x124;" horiz-adv-x="1394" 
d="M68 0l272 1400h188l-120 -615h682l120 615h188l-272 -1400h-188l120 622h-682l-120 -622h-188zM1019 1847l226 -337h-180l-136 199l-214 -199h-180l358 337h126z" />
    <glyph glyph-name="hcircumflex" unicode="&#x125;" horiz-adv-x="1207" 
d="M361 687l-133 -687h-182l283 1460h182l-113 -583q77 80 173.5 131.5t198.5 51.5q158 0 251 -89t93 -237q0 -48 -10 -97l-123 -637h-182l121 627q6 31 6 60q0 94 -60 152t-162 58q-91 0 -182 -61t-161 -149zM571 1907l226 -337h-180l-136 199l-214 -199h-180l358 337h126z
" />
    <glyph glyph-name="Hbar" unicode="&#x126;" horiz-adv-x="1416" 
d="M79 0l203 1048h-125l27 139h125l42 213h188l-42 -213h682l42 213h188l-42 -213h125l-27 -139h-125l-203 -1048h-188l120 622h-682l-120 -622h-188zM419 785h682l51 263h-682z" />
    <glyph glyph-name="hbar" unicode="&#x127;" horiz-adv-x="1238" 
d="M155 1173l24 126h150l31 161h182l-31 -161h346l-24 -126h-346l-58 -296q77 80 173.5 131.5t198.5 51.5q158 0 251 -89t93 -237q0 -48 -10 -97l-123 -637h-182l121 627q6 31 6 60q0 94 -60 152t-162 58q-91 0 -182 -61t-161 -149l-133 -687h-182l228 1173h-150z" />
    <glyph glyph-name="Itilde" unicode="&#x128;" horiz-adv-x="570" 
d="M363 1400h188l-272 -1400h-188zM487 1580l-19.5 16.5l-20.5 17.5t-18.5 13.5t-21.5 10.5t-20 3q-49 0 -89 -101l-147 30q84 213 229 213q76 0 145 -58q4 -3 19 -16.5t21 -18t18 -12.5t22 -11t20 -3q26 0 46.5 24.5t42.5 76.5l147 -30q-85 -213 -230 -213q-77 0 -144 58z
" />
    <glyph glyph-name="itilde" unicode="&#x129;" horiz-adv-x="522" 
d="M70 0l201 1036h182l-201 -1036h-182zM400 1256l-19.5 16.5l-20.5 17.5t-18.5 13.5t-21.5 10.5t-20 3q-49 0 -89 -101l-147 30q84 213 229 213q76 0 145 -58q4 -3 19 -16.5t21 -18t18 -12.5t22 -11t20 -3q26 0 46.5 24.5t42.5 76.5l147 -30q-86 -213 -230 -213
q-77 0 -144 58z" />
    <glyph glyph-name="Imacron" unicode="&#x12a;" horiz-adv-x="570" 
d="M363 1400h188l-272 -1400h-188zM203 1587l28 142h580l-28 -142h-580z" />
    <glyph glyph-name="imacron" unicode="&#x12b;" horiz-adv-x="522" 
d="M70 0l201 1036h182l-201 -1036h-182zM116 1263l28 142h580l-28 -142h-580z" />
    <glyph glyph-name="Ibreve" unicode="&#x12c;" horiz-adv-x="570" 
d="M363 1400h188l-272 -1400h-188zM474 1490q-119 0 -194 72.5t-75 188.5q0 24 3 48h162q-3 -18 -3 -34q0 -62 35.5 -100.5t97.5 -38.5q70 0 125 49t73 124h162q-34 -134 -144 -221.5t-242 -87.5z" />
    <glyph glyph-name="ibreve" unicode="&#x12d;" horiz-adv-x="522" 
d="M70 0l201 1036h182l-201 -1036h-182zM387 1166q-119 0 -194 72.5t-75 188.5q0 24 3 48h162q-3 -18 -3 -34q0 -62 35.5 -100.5t97.5 -38.5q70 0 125 49t73 124h162q-34 -134 -144 -221.5t-242 -87.5z" />
    <glyph glyph-name="Iogonek" unicode="&#x12e;" horiz-adv-x="570" 
d="M143 0h-52l272 1400h188l-272 -1400q-96 -68 -150.5 -123.5t-65.5 -109.5q-2 -10 -2 -23q0 -39 24.5 -62.5t65.5 -23.5q48 0 94 27l22 -97q-75 -46 -169 -46q-82 0 -132.5 47t-50.5 120q0 21 3 37q25 133 225 254z" />
    <glyph glyph-name="iogonek" unicode="&#x12f;" horiz-adv-x="522" 
d="M70 0l201 1036h182l-201 -1036q-96 -68 -151 -123.5t-65 -109.5q-2 -10 -2 -23q0 -39 24.5 -62.5t65.5 -23.5q48 0 94 27l22 -97q-75 -46 -169 -46q-82 0 -132.5 46.5t-50.5 119.5q0 17 4 38q24 132 224 254h-46zM299 1330q12 50 52 82.5t90 32.5q45 0 72 -27t27 -69
q0 -14 -3 -28q-10 -47 -50.5 -81t-91.5 -34q-45 0 -72 26.5t-27 68.5q0 16 3 29z" />
    <glyph glyph-name="Idotaccent" unicode="&#x130;" horiz-adv-x="570" 
d="M363 1400h188l-272 -1400h-188zM395 1664q9 47 48 80t87 33q42 0 67.5 -25.5t25.5 -65.5q0 -12 -2 -22q-10 -48 -48.5 -80.5t-86.5 -32.5q-42 0 -68 25t-26 64q0 12 3 24z" />
    <glyph glyph-name="dotlessi" unicode="&#x131;" horiz-adv-x="522" 
d="M70 0l201 1036h182l-201 -1036h-182z" />
    <glyph glyph-name="IJ" unicode="&#x132;" horiz-adv-x="1449" 
d="M363 1400h188l-272 -1400h-188zM1089 431l189 969h188l-189 -969q-88 -455 -516 -455q-73 0 -145 18.5t-120 49.5l92 159q39 -27 94.5 -44t106.5 -17q244 0 300 289z" />
    <glyph glyph-name="ij" unicode="&#x133;" horiz-adv-x="1044" 
d="M70 0l201 1036h182l-201 -1036h-182zM299 1330q12 50 52 82.5t90 32.5q45 0 72 -27t27 -69q0 -14 -3 -28q-10 -47 -50.5 -81t-91.5 -34q-45 0 -72 26.5t-27 68.5q0 16 3 29zM565 -137l228 1173h182l-228 -1170q-33 -173 -123 -251.5t-247 -78.5q-35 0 -77 4l31 157
q17 -1 56 -1q72 0 116.5 39t61.5 128zM821 1330q12 50 52 82.5t90 32.5q45 0 72 -27t27 -69q0 -14 -3 -28q-10 -47 -50.5 -81t-91.5 -34q-45 0 -72 26.5t-27 68.5q0 16 3 29z" />
    <glyph glyph-name="Jcircumflex" unicode="&#x134;" horiz-adv-x="909" 
d="M549 431l189 969h188l-189 -969q-88 -455 -516 -455q-73 0 -145 18.5t-120 49.5l92 159q39 -27 94.5 -44t106.5 -17q244 0 300 289zM982 1847l226 -337h-180l-136 199l-214 -199h-180l358 337h126z" />
    <glyph glyph-name="jcircumflex" unicode="&#x135;" horiz-adv-x="522" 
d="M43 -137l228 1173h182l-228 -1170q-33 -173 -123 -251.5t-247 -78.5q-35 0 -77 4l31 157q17 -1 56 -1q72 0 116.5 39t61.5 128zM520 1523l226 -337h-180l-136 199l-214 -199h-180l358 337h126z" />
    <glyph glyph-name="Kcommaaccent" unicode="&#x136;" horiz-adv-x="1201" 
d="M528 1400l-120 -615h120l548 615h215l-618 -693l426 -707h-221l-376 622h-126l-120 -622h-188l272 1400h188zM386 -470h-166l223 342h184z" />
    <glyph glyph-name="kcommaaccent" unicode="&#x137;" horiz-adv-x="1029" 
d="M711 0l-259 497h-128l-96 -497h-182l283 1460h182l-156 -806h130l367 382h216l-448 -460l301 -576h-210zM275 -470h-166l223 342h184z" />
    <glyph glyph-name="kgreenlandic" unicode="&#x138;" horiz-adv-x="1029" 
d="M711 0l-260 492h-128l-95 -492h-182l201 1036h182l-75 -387h130l368 387h216l-449 -465l302 -571h-210z" />
    <glyph glyph-name="Lacute" unicode="&#x139;" horiz-adv-x="1030" 
d="M68 0l272 1400h188l-241 -1237h627l-31 -163h-815zM363 1510l339 337h186l-345 -337h-180z" />
    <glyph glyph-name="lacute" unicode="&#x13a;" horiz-adv-x="522" 
d="M70 0l283 1460h182l-283 -1460h-182zM317 1570l339 337h186l-345 -337h-180z" />
    <glyph glyph-name="Lcommaaccent" unicode="&#x13b;" horiz-adv-x="1030" 
d="M68 0l272 1400h188l-241 -1237h627l-31 -163h-815zM333 -470h-166l223 342h184z" />
    <glyph glyph-name="lcommaaccent" unicode="&#x13c;" horiz-adv-x="522" 
d="M70 0l283 1460h182l-283 -1460h-182zM10 -470h-166l223 342h184z" />
    <glyph glyph-name="Lcaron" unicode="&#x13d;" horiz-adv-x="1030" 
d="M68 0l272 1400h188l-241 -1237h627l-31 -163h-815zM783 1303q10 51 51 86t92 35q45 0 72.5 -27.5t27.5 -69.5q0 -16 -2 -24q-5 -25 -24 -55l-183 -280h-119l142 221q-28 10 -44 33.5t-16 54.5q0 13 3 26z" />
    <glyph glyph-name="lcaron" unicode="&#x13e;" horiz-adv-x="804" 
d="M70 0l283 1460h182l-283 -1460h-182zM679 1363q10 51 51 86t92 35q45 0 72.5 -27.5t27.5 -69.5q0 -16 -2 -24q-5 -25 -24 -55l-183 -280h-119l142 221q-28 10 -44 33.5t-16 54.5q0 13 3 26z" />
    <glyph glyph-name="Ldot" unicode="&#x13f;" horiz-adv-x="1030" 
d="M68 0l272 1400h188l-241 -1237h627l-31 -163h-815zM658 752q9 47 48 80t87 33q41 0 67 -25.5t26 -65.5q0 -12 -2 -22q-10 -48 -48.5 -80.5t-86.5 -32.5q-42 0 -68 25t-26 64q0 12 3 24z" />
    <glyph glyph-name="ldot" unicode="&#x140;" horiz-adv-x="802" 
d="M70 0l283 1460h182l-283 -1460h-182zM570 752q9 47 48 80t87 33q41 0 67 -25.5t26 -65.5q0 -12 -2 -22q-10 -48 -48.5 -80.5t-86.5 -32.5q-42 0 -68 25t-26 64q0 12 3 24z" />
    <glyph glyph-name="Lslash" unicode="&#x141;" horiz-adv-x="1061" 
d="M99 0l106 550l-159 -74l30 153l159 74l136 697h188l-117 -600l414 193l-30 -153l-414 -193l-94 -484h627l-31 -163h-815z" />
    <glyph glyph-name="lslash" unicode="&#x142;" horiz-adv-x="588" 
d="M103 0l124 643l-193 -88l28 142l193 88l131 675h182l-113 -583l193 88l-28 -142l-193 -88l-142 -735h-182z" />
    <glyph glyph-name="Nacute" unicode="&#x143;" horiz-adv-x="1399" 
d="M68 0l272 1400h181l491 -1074l209 1074h182l-272 -1400h-181l-492 1074l-208 -1074h-182zM744 1510l339 337h186l-345 -337h-180z" />
    <glyph glyph-name="nacute" unicode="&#x144;" horiz-adv-x="1207" 
d="M361 687l-133 -687h-182l201 1036h182l-31 -159q77 80 173.5 131.5t198.5 51.5q158 0 251 -89t93 -237q0 -48 -10 -97l-123 -637h-182l121 627q6 31 6 60q0 94 -60 152t-162 58q-91 0 -182 -61t-161 -149zM596 1186l339 337h186l-345 -337h-180z" />
    <glyph glyph-name="Ncommaaccent" unicode="&#x145;" horiz-adv-x="1399" 
d="M68 0l272 1400h181l491 -1074l209 1074h182l-272 -1400h-181l-492 1074l-208 -1074h-182zM464 -470h-166l223 342h184z" />
    <glyph glyph-name="ncommaaccent" unicode="&#x146;" horiz-adv-x="1207" 
d="M361 687l-133 -687h-182l201 1036h182l-31 -159q77 80 173.5 131.5t198.5 51.5q158 0 251 -89t93 -237q0 -48 -10 -97l-123 -637h-182l121 627q6 31 6 60q0 94 -60 152t-162 58q-91 0 -182 -61t-161 -149zM372 -470h-166l223 342h184z" />
    <glyph glyph-name="Ncaron" unicode="&#x147;" horiz-adv-x="1399" 
d="M68 0l272 1400h181l491 -1074l209 1074h182l-272 -1400h-181l-492 1074l-208 -1074h-182zM1313 1847l-358 -337h-126l-226 337h180l136 -199l214 199h180z" />
    <glyph glyph-name="ncaron" unicode="&#x148;" horiz-adv-x="1207" 
d="M361 687l-133 -687h-182l201 1036h182l-31 -159q77 80 173.5 131.5t198.5 51.5q158 0 251 -89t93 -237q0 -48 -10 -97l-123 -637h-182l121 627q6 31 6 60q0 94 -60 152t-162 58q-91 0 -182 -61t-161 -149zM1139 1503l-358 -337h-126l-226 337h180l136 -199l214 199h180z
" />
    <glyph glyph-name="napostrophe" unicode="&#x149;" horiz-adv-x="1401" 
d="M555 687l-133 -687h-182l201 1036h182l-31 -159q77 80 173.5 131.5t198.5 51.5q158 0 251 -89t93 -237q0 -48 -10 -97l-123 -637h-182l121 627q6 31 6 60q0 94 -60 152t-162 58q-91 0 -182 -61t-161 -149zM236 1363q10 51 51 86t92 35q45 0 72.5 -27.5t27.5 -69.5
q0 -16 -2 -24q-5 -25 -24 -55l-183 -280h-119l142 221q-28 10 -44 33.5t-16 54.5q0 13 3 26z" />
    <glyph glyph-name="Eng" unicode="&#x14a;" horiz-adv-x="1399" 
d="M1403 1400l-293 -1503q-70 -361 -446 -361q-55 0 -99 8l30 157q43 -5 90 -5q109 0 166.5 50t77.5 153l20 102l-491 1073l-208 -1074h-182l272 1400h181l491 -1074l209 1074h182z" />
    <glyph glyph-name="eng" unicode="&#x14b;" horiz-adv-x="1207" 
d="M779 -101l141 728q6 31 6 60q0 94 -60 152t-162 58q-91 0 -182 -61t-161 -149l-133 -687h-182l201 1036h182l-31 -159q77 80 173.5 131.5t198.5 51.5q158 0 251 -89t93 -237q0 -48 -10 -97l-144 -740q-35 -183 -143.5 -272t-297.5 -89q-58 0 -104 8l30 157q43 -5 90 -5
q109 0 166.5 50t77.5 153z" />
    <glyph glyph-name="Omacron" unicode="&#x14c;" horiz-adv-x="1634" 
d="M744 142q228 0 418 162t236 396q11 60 11 112q0 195 -124.5 320.5t-323.5 125.5q-228 0 -418 -162t-235 -396q-11 -54 -11 -113q0 -194 124.5 -319.5t322.5 -125.5zM993 1424q135 0 249 -43.5t193 -120.5t123.5 -184.5t44.5 -232.5q0 -74 -14 -143q-39 -201 -168.5 -367
t-317 -261.5t-391.5 -95.5q-135 0 -249 43.5t-193 120t-123 184t-44 232.5q0 74 14 144q39 201 168 367.5t316.5 261.5t391.5 95zM735 1587l28 142h580l-28 -142h-580z" />
    <glyph glyph-name="omacron" unicode="&#x14d;" horiz-adv-x="1268" 
d="M561 139q158 0 288 110.5t160 268.5q8 42 8 76q0 131 -85.5 217t-223.5 86q-158 0 -288 -110.5t-161 -268.5q-7 -35 -7 -74q0 -132 85.5 -218.5t223.5 -86.5zM740 1060q210 0 337 -123t127 -313q0 -55 -10 -106q-29 -148 -125 -272t-239 -197t-301 -73
q-210 0 -337.5 123.5t-127.5 313.5q0 54 10 105q29 148 125 272t239.5 197t301.5 73zM489 1263l28 142h580l-28 -142h-580z" />
    <glyph glyph-name="Obreve" unicode="&#x14e;" horiz-adv-x="1634" 
d="M744 142q228 0 418 162t236 396q11 60 11 112q0 195 -124.5 320.5t-323.5 125.5q-228 0 -418 -162t-235 -396q-11 -54 -11 -113q0 -194 124.5 -319.5t322.5 -125.5zM993 1424q135 0 249 -43.5t193 -120.5t123.5 -184.5t44.5 -232.5q0 -74 -14 -143q-39 -201 -168.5 -367
t-317 -261.5t-391.5 -95.5q-135 0 -249 43.5t-193 120t-123 184t-44 232.5q0 74 14 144q39 201 168 367.5t316.5 261.5t391.5 95zM1006 1490q-119 0 -194 72.5t-75 188.5q0 24 3 48h162q-3 -18 -3 -34q0 -62 35.5 -100.5t97.5 -38.5q70 0 125 49t73 124h162
q-34 -134 -144 -221.5t-242 -87.5z" />
    <glyph glyph-name="obreve" unicode="&#x14f;" horiz-adv-x="1268" 
d="M561 139q158 0 288 110.5t160 268.5q8 42 8 76q0 131 -85.5 217t-223.5 86q-158 0 -288 -110.5t-161 -268.5q-7 -35 -7 -74q0 -132 85.5 -218.5t223.5 -86.5zM740 1060q210 0 337 -123t127 -313q0 -55 -10 -106q-29 -148 -125 -272t-239 -197t-301 -73
q-210 0 -337.5 123.5t-127.5 313.5q0 54 10 105q29 148 125 272t239.5 197t301.5 73zM760 1166q-119 0 -194 72.5t-75 188.5q0 24 3 48h162q-3 -18 -3 -34q0 -62 35.5 -100.5t97.5 -38.5q70 0 125 49t73 124h162q-34 -134 -144 -221.5t-242 -87.5z" />
    <glyph glyph-name="Ohungarumlaut" unicode="&#x150;" horiz-adv-x="1634" 
d="M744 142q228 0 418 162t236 396q11 60 11 112q0 195 -124.5 320.5t-323.5 125.5q-228 0 -418 -162t-235 -396q-11 -54 -11 -113q0 -194 124.5 -319.5t322.5 -125.5zM993 1424q135 0 249 -43.5t193 -120.5t123.5 -184.5t44.5 -232.5q0 -74 -14 -143q-39 -201 -168.5 -367
t-317 -261.5t-391.5 -95.5q-135 0 -249 43.5t-193 120t-123 184t-44 232.5q0 74 14 144q39 201 168 367.5t316.5 261.5t391.5 95zM728 1510l340 337h186l-345 -337h-181zM1045 1510l339 337h186l-345 -337h-180z" />
    <glyph glyph-name="ohungarumlaut" unicode="&#x151;" horiz-adv-x="1268" 
d="M561 139q158 0 288 110.5t160 268.5q8 42 8 76q0 131 -85.5 217t-223.5 86q-158 0 -288 -110.5t-161 -268.5q-7 -35 -7 -74q0 -132 85.5 -218.5t223.5 -86.5zM740 1060q210 0 337 -123t127 -313q0 -55 -10 -106q-29 -148 -125 -272t-239 -197t-301 -73
q-210 0 -337.5 123.5t-127.5 313.5q0 54 10 105q29 148 125 272t239.5 197t301.5 73zM466 1186l340 337h186l-345 -337h-181zM783 1186l339 337h186l-345 -337h-180z" />
    <glyph glyph-name="OE" unicode="&#x152;" horiz-adv-x="1796" 
d="M768 166h16l207 1068h-16q-156 0 -299 -70t-241 -192.5t-127 -271.5q-10 -50 -10 -103q0 -189 131 -310t339 -121zM1580 0h-844q-184 0 -328.5 73t-224 203t-79.5 293q0 66 13 131q37 194 169 355t323 253t399 92h826l-32 -163h-622l-88 -452h571l-32 -163h-571l-89 -459
h640z" />
    <glyph glyph-name="oe" unicode="&#x153;" horiz-adv-x="2134" 
d="M732 1060q146 0 254.5 -73t152.5 -194q88 119 223.5 193t280.5 74q198 0 315 -117t117 -298q0 -53 -10 -104q-8 -40 -24 -80h-873q-1 -10 -1 -30q0 -129 84.5 -213.5t221.5 -84.5q185 0 351 150l102 -116q-205 -191 -479 -191q-154 0 -265.5 73t-151.5 191
q-90 -120 -226 -192t-283 -72q-205 0 -331.5 122.5t-126.5 311.5q0 50 11 108q29 149 125 273.5t237 196.5t296 72zM553 139q155 0 282 109.5t158 269.5q8 43 8 77q0 132 -83.5 217t-217.5 85q-154 0 -282 -110t-159 -269q-8 -42 -8 -77q0 -132 84 -217t218 -85zM1612 903
q-126 0 -240.5 -83t-166.5 -208h682v9q0 123 -75 202.5t-200 79.5z" />
    <glyph glyph-name="Racute" unicode="&#x154;" horiz-adv-x="1200" 
d="M546 528h-188l-102 -528h-188l272 1400h447q192 0 299 -90.5t107 -248.5q0 -48 -10 -97q-33 -168 -148.5 -280t-287.5 -144l275 -540h-208zM992 964q6 33 6 64q0 98 -64.5 153.5t-185.5 55.5h-252l-106 -546h252q140 0 233 73.5t117 199.5zM631 1510l339 337h186
l-345 -337h-180z" />
    <glyph glyph-name="racute" unicode="&#x155;" 
d="M700 897q-86 0 -177 -64t-166 -168l-129 -665h-182l201 1036h182l-33 -170q181 194 360 194q53 0 93 -20l-47 -162q-51 19 -102 19zM371 1186l339 337h186l-345 -337h-180z" />
    <glyph glyph-name="Rcommaaccent" unicode="&#x156;" horiz-adv-x="1200" 
d="M546 528h-188l-102 -528h-188l272 1400h447q192 0 299 -90.5t107 -248.5q0 -48 -10 -97q-33 -168 -148.5 -280t-287.5 -144l275 -540h-208zM992 964q6 33 6 64q0 98 -64.5 153.5t-185.5 55.5h-252l-106 -546h252q140 0 233 73.5t117 199.5zM351 -470h-166l223 342h184z
" />
    <glyph glyph-name="rcommaaccent" unicode="&#x157;" 
d="M700 897q-86 0 -177 -64t-166 -168l-129 -665h-182l201 1036h182l-33 -170q181 194 360 194q53 0 93 -20l-47 -162q-51 19 -102 19zM-14 -470h-166l223 342h184z" />
    <glyph glyph-name="Rcaron" unicode="&#x158;" horiz-adv-x="1200" 
d="M546 528h-188l-102 -528h-188l272 1400h447q192 0 299 -90.5t107 -248.5q0 -48 -10 -97q-33 -168 -148.5 -280t-287.5 -144l275 -540h-208zM992 964q6 33 6 64q0 98 -64.5 153.5t-185.5 55.5h-252l-106 -546h252q140 0 233 73.5t117 199.5zM1186 1847l-358 -337h-126
l-226 337h180l136 -199l214 199h180z" />
    <glyph glyph-name="rcaron" unicode="&#x159;" 
d="M700 897q-86 0 -177 -64t-166 -168l-129 -665h-182l201 1036h182l-33 -170q181 194 360 194q53 0 93 -20l-47 -162q-51 19 -102 19zM943 1503l-358 -337h-126l-226 337h180l136 -199l214 199h180z" />
    <glyph glyph-name="Sacute" unicode="&#x15a;" horiz-adv-x="1176" 
d="M43 201l143 128q57 -83 142.5 -135t187.5 -52q138 0 236.5 63.5t118.5 167.5q5 27 5 45q0 165 -285 227q-180 39 -271 123t-91 206q0 36 7 71q32 168 176 273.5t341 105.5q264 0 406 -178l-139 -135q-126 147 -290 147q-116 0 -200 -56t-101 -144q-4 -19 -4 -40
q0 -152 275 -218q193 -46 282 -130t89 -210q0 -41 -9 -86q-34 -177 -189 -287.5t-380 -110.5q-145 0 -265 60.5t-185 164.5zM639 1510l339 337h186l-345 -337h-180z" />
    <glyph glyph-name="sacute" unicode="&#x15b;" horiz-adv-x="932" 
d="M1 148l127 123q40 -63 107.5 -100.5t153.5 -37.5q98 0 163 42t79 111q3 15 3 28q0 107 -199 147q-283 56 -283 253q0 27 7 60q25 124 139 205t274 81q200 0 321 -138l-122 -124q-102 105 -217 105q-81 0 -142 -37.5t-72 -95.5q-2 -14 -2 -21q0 -49 46.5 -86.5
t137.5 -56.5q297 -61 297 -259q0 -34 -6 -64q-27 -135 -146 -221t-296 -86q-125 0 -221 46t-149 126zM438 1186l339 337h186l-345 -337h-180z" />
    <glyph glyph-name="Scircumflex" unicode="&#x15c;" horiz-adv-x="1176" 
d="M43 201l143 128q57 -83 142.5 -135t187.5 -52q138 0 236.5 63.5t118.5 167.5q5 27 5 45q0 165 -285 227q-180 39 -271 123t-91 206q0 36 7 71q32 168 176 273.5t341 105.5q264 0 406 -178l-139 -135q-126 147 -290 147q-116 0 -200 -56t-101 -144q-4 -19 -4 -40
q0 -152 275 -218q193 -46 282 -130t89 -210q0 -41 -9 -86q-34 -177 -189 -287.5t-380 -110.5q-145 0 -265 60.5t-185 164.5zM897 1847l226 -337h-180l-136 199l-214 -199h-180l358 337h126z" />
    <glyph glyph-name="scircumflex" unicode="&#x15d;" horiz-adv-x="932" 
d="M1 148l127 123q40 -63 107.5 -100.5t153.5 -37.5q98 0 163 42t79 111q3 15 3 28q0 107 -199 147q-283 56 -283 253q0 27 7 60q25 124 139 205t274 81q200 0 321 -138l-122 -124q-102 105 -217 105q-81 0 -142 -37.5t-72 -95.5q-2 -14 -2 -21q0 -49 46.5 -86.5
t137.5 -56.5q297 -61 297 -259q0 -34 -6 -64q-27 -135 -146 -221t-296 -86q-125 0 -221 46t-149 126zM713 1523l226 -337h-180l-136 199l-214 -199h-180l358 337h126z" />
    <glyph glyph-name="Scedilla" unicode="&#x15e;" horiz-adv-x="1176" 
d="M411 -209q-30 0 -57 -5l-26 38l114 154q-129 10 -234.5 69.5t-164.5 153.5l143 128q57 -83 142.5 -135t187.5 -52q138 0 236.5 63.5t118.5 167.5q5 27 5 45q0 165 -285 227q-180 39 -271 123t-91 206q0 36 7 71q32 168 176 273.5t341 105.5q264 0 406 -178l-139 -135
q-126 147 -290 147q-116 0 -200 -56t-101 -144q-4 -19 -4 -40q0 -152 275 -218q193 -46 282 -130t89 -210q0 -41 -9 -86q-31 -158 -159 -264t-318 -128l-80 -97q71 -13 110.5 -57.5t39.5 -105.5q0 -16 -3 -34q-17 -89 -101 -148.5t-192 -59.5q-106 0 -167 58l79 90
q38 -36 101 -36q52 0 91 28.5t47 70.5q2 12 2 18q0 36 -27.5 59t-73.5 23z" />
    <glyph glyph-name="scedilla" unicode="&#x15f;" horiz-adv-x="932" 
d="M281 -209q-30 0 -57 -5l-26 38l114 155q-104 10 -184.5 54t-126.5 115l127 123q40 -63 107.5 -100.5t153.5 -37.5q98 0 163 42t79 111q3 15 3 28q0 107 -199 147q-283 56 -283 253q0 27 7 60q25 124 139 205t274 81q200 0 321 -138l-122 -124q-102 105 -217 105
q-81 0 -142 -37.5t-72 -95.5q-2 -14 -2 -21q0 -49 46.5 -86.5t137.5 -56.5q297 -61 297 -259q0 -34 -6 -64q-24 -118 -119 -200t-239 -101l-80 -97q71 -13 110.5 -57.5t39.5 -105.5q0 -16 -3 -34q-17 -89 -101 -148.5t-192 -59.5q-106 0 -167 58l79 90q38 -36 101 -36
q52 0 91 28.5t47 70.5q2 12 2 18q0 36 -27.5 59t-73.5 23z" />
    <glyph glyph-name="Scaron" unicode="&#x160;" horiz-adv-x="1176" 
d="M43 201l143 128q57 -83 142.5 -135t187.5 -52q138 0 236.5 63.5t118.5 167.5q5 27 5 45q0 165 -285 227q-180 39 -271 123t-91 206q0 36 7 71q32 168 176 273.5t341 105.5q264 0 406 -178l-139 -135q-126 147 -290 147q-116 0 -200 -56t-101 -144q-4 -19 -4 -40
q0 -152 275 -218q193 -46 282 -130t89 -210q0 -41 -9 -86q-34 -177 -189 -287.5t-380 -110.5q-145 0 -265 60.5t-185 164.5zM1189 1847l-358 -337h-126l-226 337h180l136 -199l214 199h180z" />
    <glyph glyph-name="scaron" unicode="&#x161;" horiz-adv-x="932" 
d="M1 148l127 123q40 -63 107.5 -100.5t153.5 -37.5q98 0 163 42t79 111q3 15 3 28q0 107 -199 147q-283 56 -283 253q0 27 7 60q25 124 139 205t274 81q200 0 321 -138l-122 -124q-102 105 -217 105q-81 0 -142 -37.5t-72 -95.5q-2 -14 -2 -21q0 -49 46.5 -86.5
t137.5 -56.5q297 -61 297 -259q0 -34 -6 -64q-27 -135 -146 -221t-296 -86q-125 0 -221 46t-149 126zM1003 1503l-358 -337h-126l-226 337h180l136 -199l214 199h180z" />
    <glyph glyph-name="Tcommaaccent" unicode="&#x162;" horiz-adv-x="1098" 
d="M355 0l240 1237h-393l32 163h974l-32 -163h-393l-240 -1237l-96 -115q71 -13 110.5 -57.5t39.5 -105.5q0 -16 -3 -34q-17 -89 -101 -148.5t-192 -59.5q-106 0 -167 58l79 90q38 -36 101 -36q52 0 91 28.5t47 70.5q2 12 2 18q0 36 -27.5 59t-73.5 23q-30 0 -57 -5l-26 38
l131 176h-46z" />
    <glyph glyph-name="tcommaaccent" unicode="&#x163;" horiz-adv-x="764" 
d="M218 -209q-30 0 -57 -5l-26 38l147 197q-99 58 -99 200q0 43 12 108l107 547h-187l31 160h187l55 284l185 16l-58 -300h283l-31 -160h-283l-106 -545q-7 -32 -7 -64q0 -67 41 -99t130 -32q54 0 94 5l-31 -157q-42 -8 -109 -8q-53 0 -103 8l-81 -99q71 -13 110.5 -57.5
t39.5 -105.5q0 -16 -3 -34q-17 -89 -101 -148.5t-192 -59.5q-106 0 -167 58l79 90q38 -36 101 -36q52 0 91 28.5t47 70.5q2 12 2 18q0 36 -27.5 59t-73.5 23z" />
    <glyph glyph-name="Tcaron" unicode="&#x164;" horiz-adv-x="1098" 
d="M355 0l240 1237h-393l32 163h974l-32 -163h-393l-240 -1237h-188zM1163 1847l-358 -337h-126l-226 337h180l136 -199l214 199h180z" />
    <glyph glyph-name="tcaron" unicode="&#x165;" horiz-adv-x="1073" 
d="M484 876l-106 -545q-7 -32 -7 -64q0 -67 41 -99t130 -32q54 0 94 5l-31 -157q-42 -8 -109 -8q-159 0 -236 60t-77 185q0 43 12 108l107 547h-187l31 160h187l55 284l185 16l-58 -300h283l-31 -160h-283zM949 1363q10 51 51 86t92 35q45 0 72.5 -27.5t27.5 -69.5
q0 -16 -2 -24q-5 -25 -24 -55l-183 -280h-119l142 221q-28 10 -44 33.5t-16 54.5q0 13 3 26z" />
    <glyph glyph-name="Tbar" unicode="&#x166;" horiz-adv-x="1098" 
d="M355 0l122 629h-266l27 141h266l91 467h-393l32 163h974l-32 -163h-393l-91 -467h266l-27 -141h-266l-122 -629h-188z" />
    <glyph glyph-name="tbar" unicode="&#x167;" horiz-adv-x="764" 
d="M484 876l-54 -277h241l-25 -126h-241l-27 -142q-7 -32 -7 -64q0 -67 41 -99t130 -32q54 0 94 5l-31 -157q-42 -8 -109 -8q-158 0 -235 60.5t-77 185.5q0 46 11 107l28 144h-162l25 126h162l54 277h-187l31 160h187l55 284l185 16l-58 -300h283l-31 -160h-283z" />
    <glyph glyph-name="Utilde" unicode="&#x168;" horiz-adv-x="1326" 
d="M1343 1400l-177 -911q-30 -152 -120 -269t-217.5 -179.5t-270.5 -62.5q-189 0 -304.5 107.5t-115.5 288.5q0 55 12 115l177 911h188l-182 -932q-7 -35 -7 -71q0 -115 72.5 -184t191.5 -69q138 0 246.5 90t136.5 234l182 932h188zM865 1580l-19.5 16.5l-20.5 17.5
t-18.5 13.5t-21.5 10.5t-20 3q-49 0 -89 -101l-147 30q84 213 229 213q76 0 145 -58q4 -3 19 -16.5t21 -18t18 -12.5t22 -11t20 -3q26 0 46.5 24.5t42.5 76.5l147 -30q-85 -213 -230 -213q-77 0 -144 58z" />
    <glyph glyph-name="utilde" unicode="&#x169;" horiz-adv-x="1207" 
d="M846 349l134 687h182l-201 -1036h-182l30 159q-76 -80 -172.5 -131.5t-198.5 -51.5q-158 0 -251.5 89.5t-93.5 237.5q0 47 10 96l124 637h182l-122 -627q-6 -30 -6 -58q0 -95 60.5 -153.5t162.5 -58.5q90 0 181 60.5t161 149.5zM731 1256l-19.5 16.5l-20.5 17.5
t-18.5 13.5t-21.5 10.5t-20 3q-49 0 -89 -101l-147 30q84 213 229 213q76 0 145 -58q4 -3 19 -16.5t21 -18t18 -12.5t22 -11t20 -3q26 0 46.5 24.5t42.5 76.5l147 -30q-85 -213 -230 -213q-77 0 -144 58z" />
    <glyph glyph-name="Umacron" unicode="&#x16a;" horiz-adv-x="1326" 
d="M1343 1400l-177 -911q-30 -152 -120 -269t-217.5 -179.5t-270.5 -62.5q-189 0 -304.5 107.5t-115.5 288.5q0 55 12 115l177 911h188l-182 -932q-7 -35 -7 -71q0 -115 72.5 -184t191.5 -69q138 0 246.5 90t136.5 234l182 932h188zM581 1587l28 142h580l-28 -142h-580z" />
    <glyph glyph-name="umacron" unicode="&#x16b;" horiz-adv-x="1207" 
d="M846 349l134 687h182l-201 -1036h-182l30 159q-76 -80 -172.5 -131.5t-198.5 -51.5q-158 0 -251.5 89.5t-93.5 237.5q0 47 10 96l124 637h182l-122 -627q-6 -30 -6 -58q0 -95 60.5 -153.5t162.5 -58.5q90 0 181 60.5t161 149.5zM448 1263l28 142h580l-28 -142h-580z" />
    <glyph glyph-name="Ubreve" unicode="&#x16c;" horiz-adv-x="1326" 
d="M1343 1400l-177 -911q-30 -152 -120 -269t-217.5 -179.5t-270.5 -62.5q-189 0 -304.5 107.5t-115.5 288.5q0 55 12 115l177 911h188l-182 -932q-7 -35 -7 -71q0 -115 72.5 -184t191.5 -69q138 0 246.5 90t136.5 234l182 932h188zM852 1490q-119 0 -194 72.5t-75 188.5
q0 24 3 48h162q-3 -18 -3 -34q0 -62 35.5 -100.5t97.5 -38.5q70 0 125 49t73 124h162q-34 -134 -144 -221.5t-242 -87.5z" />
    <glyph glyph-name="ubreve" unicode="&#x16d;" horiz-adv-x="1207" 
d="M846 349l134 687h182l-201 -1036h-182l30 159q-76 -80 -172.5 -131.5t-198.5 -51.5q-158 0 -251.5 89.5t-93.5 237.5q0 47 10 96l124 637h182l-122 -627q-6 -30 -6 -58q0 -95 60.5 -153.5t162.5 -58.5q90 0 181 60.5t161 149.5zM718 1166q-119 0 -194 72.5t-75 188.5
q0 24 3 48h162q-3 -18 -3 -34q0 -62 35.5 -100.5t97.5 -38.5q70 0 125 49t73 124h162q-34 -134 -144 -221.5t-242 -87.5z" />
    <glyph glyph-name="Uring" unicode="&#x16e;" horiz-adv-x="1326" 
d="M1343 1400l-177 -911q-30 -152 -120 -269t-217.5 -179.5t-270.5 -62.5q-189 0 -304.5 107.5t-115.5 288.5q0 55 12 115l177 911h188l-182 -932q-7 -35 -7 -71q0 -115 72.5 -184t191.5 -69q138 0 246.5 90t136.5 234l182 932h188zM799 1687q-2 -9 -2 -18q0 -32 21 -52
t55 -20q39 0 70 25t38 64q2 10 2 19q0 31 -20.5 50.5t-54.5 19.5q-38 0 -69 -24.5t-40 -63.5zM680 1686q17 85 88 140t160 55q79 0 127.5 -44t48.5 -113q0 -18 -4 -38q-17 -84 -87 -139.5t-160 -55.5q-79 0 -128 44.5t-49 113.5q0 17 4 37z" />
    <glyph glyph-name="uring" unicode="&#x16f;" horiz-adv-x="1207" 
d="M846 349l134 687h182l-201 -1036h-182l30 159q-76 -80 -172.5 -131.5t-198.5 -51.5q-158 0 -251.5 89.5t-93.5 237.5q0 47 10 96l124 637h182l-122 -627q-6 -30 -6 -58q0 -95 60.5 -153.5t162.5 -58.5q90 0 181 60.5t161 149.5zM663 1363q-2 -9 -2 -18q0 -32 21 -52
t55 -20q39 0 70 25t38 64q2 10 2 19q0 31 -20.5 50.5t-54.5 19.5q-38 0 -69 -24.5t-40 -63.5zM544 1362q17 85 88 140t160 55q79 0 127.5 -44t48.5 -113q0 -18 -4 -38q-17 -84 -87 -139.5t-160 -55.5q-79 0 -128 44.5t-49 113.5q0 17 4 37z" />
    <glyph glyph-name="Uhungarumlaut" unicode="&#x170;" horiz-adv-x="1326" 
d="M1343 1400l-177 -911q-30 -152 -120 -269t-217.5 -179.5t-270.5 -62.5q-189 0 -304.5 107.5t-115.5 288.5q0 55 12 115l177 911h188l-182 -932q-7 -35 -7 -71q0 -115 72.5 -184t191.5 -69q138 0 246.5 90t136.5 234l182 932h188zM578 1510l340 337h186l-345 -337h-181z
M895 1510l339 337h186l-345 -337h-180z" />
    <glyph glyph-name="uhungarumlaut" unicode="&#x171;" horiz-adv-x="1207" 
d="M846 349l134 687h182l-201 -1036h-182l30 159q-76 -80 -172.5 -131.5t-198.5 -51.5q-158 0 -251.5 89.5t-93.5 237.5q0 47 10 96l124 637h182l-122 -627q-6 -30 -6 -58q0 -95 60.5 -153.5t162.5 -58.5q90 0 181 60.5t161 149.5zM430 1186l340 337h186l-345 -337h-181z
M747 1186l339 337h186l-345 -337h-180z" />
    <glyph glyph-name="Uogonek" unicode="&#x172;" horiz-adv-x="1326" 
d="M1343 1400l-177 -911q-39 -199 -177 -333.5t-323 -167.5q-87 -62 -137 -116t-60 -105q-2 -10 -2 -23q0 -39 24.5 -62.5t65.5 -23.5q48 0 94 27l22 -97q-75 -46 -169 -46q-82 0 -133 46.5t-51 119.5q0 17 4 38q22 120 192 234q-171 12 -274.5 117.5t-103.5 276.5
q0 55 12 115l177 911h188l-182 -932q-7 -35 -7 -71q0 -115 72.5 -184t191.5 -69q138 0 246.5 90t136.5 234l182 932h188z" />
    <glyph glyph-name="uogonek" unicode="&#x173;" horiz-adv-x="1207" 
d="M825 0h-46l30 159q-76 -80 -172.5 -131.5t-198.5 -51.5q-158 0 -251.5 89.5t-93.5 237.5q0 47 10 96l124 637h182l-122 -627q-6 -30 -6 -58q0 -95 60.5 -153.5t162.5 -58.5q90 0 181 60.5t161 149.5l134 687h182l-201 -1036q-96 -68 -151 -123.5t-65 -109.5
q-2 -10 -2 -23q0 -39 24.5 -62.5t65.5 -23.5q48 0 94 27l22 -97q-75 -46 -169 -46q-82 0 -133 46.5t-51 119.5q0 17 4 38q24 132 225 254z" />
    <glyph glyph-name="Wcircumflex" unicode="&#x174;" horiz-adv-x="1934" 
d="M1045 1400h188l105 -1125l523 1125h198l-674 -1400h-188l-109 1141l-551 -1141h-188l-130 1400h198l85 -1125zM1289 1847l226 -337h-180l-136 199l-214 -199h-180l358 337h126z" />
    <glyph glyph-name="wcircumflex" unicode="&#x175;" horiz-adv-x="1560" 
d="M787 1036h188l77 -792l392 792h190l-533 -1036h-188l-79 796l-387 -796h-188l-131 1036h190l84 -792zM1039 1523l226 -337h-180l-136 199l-214 -199h-180l358 337h126z" />
    <glyph glyph-name="Ycircumflex" unicode="&#x176;" horiz-adv-x="1286" 
d="M422 1400l268 -642l518 642h203l-663 -826l-111 -574h-188l111 574l-341 826h203zM965 1847l226 -337h-180l-136 199l-214 -199h-180l358 337h126z" />
    <glyph glyph-name="ycircumflex" unicode="&#x177;" horiz-adv-x="1050" 
d="M57 -464l275 468l-204 1032h190l152 -801l464 801h190l-877 -1500h-190zM784 1523l226 -337h-180l-136 199l-214 -199h-180l358 337h126z" />
    <glyph glyph-name="Ydieresis" unicode="&#x178;" horiz-adv-x="1286" 
d="M422 1400l268 -642l518 642h203l-663 -826l-111 -574h-188l111 574l-341 826h203zM574 1664q9 47 48 80t87 33q41 0 67 -25.5t26 -65.5q0 -12 -2 -22q-10 -48 -48.5 -80.5t-86.5 -32.5q-42 0 -68 25t-26 64q0 12 3 24zM932 1664q9 47 48 80t87 33q41 0 67 -25.5t26 -65.5
q0 -12 -2 -22q-10 -48 -48.5 -80.5t-86.5 -32.5q-42 0 -68 25t-26 64q0 12 3 24z" />
    <glyph glyph-name="Zacute" unicode="&#x179;" horiz-adv-x="1201" 
d="M52 163l933 1074h-694l32 163h919l-32 -163l-933 -1074h744l-31 -163h-969zM629 1510l339 337h186l-345 -337h-180z" />
    <glyph glyph-name="zacute" unicode="&#x17a;" horiz-adv-x="1012" 
d="M-2 0l31 160l711 716h-546l31 160h765l-31 -160l-710 -716h591l-31 -160h-811zM468 1186l339 337h186l-345 -337h-180z" />
    <glyph glyph-name="Zdotaccent" unicode="&#x17b;" horiz-adv-x="1201" 
d="M52 163l933 1074h-694l32 163h919l-32 -163l-933 -1074h744l-31 -163h-969zM713 1664q9 47 48 80t87 33q42 0 67.5 -25.5t25.5 -65.5q0 -12 -2 -22q-10 -48 -48.5 -80.5t-86.5 -32.5q-42 0 -68 25t-26 64q0 12 3 24z" />
    <glyph glyph-name="zdotaccent" unicode="&#x17c;" horiz-adv-x="1012" 
d="M-2 0l31 160l711 716h-546l31 160h765l-31 -160l-710 -716h591l-31 -160h-811zM555 1340q9 47 48 80t87 33q42 0 67.5 -25.5t25.5 -65.5q0 -12 -2 -22q-10 -48 -48.5 -80.5t-86.5 -32.5q-42 0 -68 25t-26 64q0 12 3 24z" />
    <glyph glyph-name="Zcaron" unicode="&#x17d;" horiz-adv-x="1201" 
d="M52 163l933 1074h-694l32 163h919l-32 -163l-933 -1074h744l-31 -163h-969zM1218 1847l-358 -337h-126l-226 337h180l136 -199l214 199h180z" />
    <glyph glyph-name="zcaron" unicode="&#x17e;" horiz-adv-x="1012" 
d="M-2 0l31 160l711 716h-546l31 160h765l-31 -160l-710 -716h591l-31 -160h-811zM1046 1503l-358 -337h-126l-226 337h180l136 -199l214 199h180z" />
    <glyph glyph-name="longs" unicode="&#x17f;" horiz-adv-x="746" 
d="M883 1452l-31 -157q-40 5 -90 5q-108 0 -165.5 -50t-77.5 -153l-213 -1097h-182l170 876h-179l31 160h179l12 63q36 184 144 272.5t297 88.5q53 0 105 -8z" />
    <glyph glyph-name="uni0191" unicode="&#x191;" horiz-adv-x="1057" 
d="M48 -101l292 1501h807l-32 -163h-619l-88 -451h568l-31 -163h-568l-142 -726q-70 -361 -434 -361q-45 0 -101 8l30 157q43 -5 84 -5q102 0 158 50.5t76 152.5z" />
    <glyph glyph-name="florin" unicode="&#x192;" horiz-adv-x="746" 
d="M104 -101l190 977h-179l31 160h179l12 63q36 184 144 272.5t297 88.5q53 0 105 -8l-31 -157q-40 5 -90 5q-108 0 -165.5 -50t-77.5 -153l-12 -61h295l-31 -160h-295l-191 -979q-35 -183 -143 -272t-297 -89q-52 0 -104 8l30 157q42 -5 90 -5q108 0 165.5 50t77.5 153z
" />
    <glyph glyph-name="Aringacute" unicode="&#x1fa;" horiz-adv-x="1362" 
d="M-52 0l765 1334q-53 41 -53 112q0 20 3 35q16 80 85 133.5t157 53.5q77 0 124.5 -42.5t47.5 -109.5q0 -17 -4 -36q-18 -92 -106 -146l247 -1334h-205l-60 361h-596l-200 -361h-205zM812 1192l-372 -668h484zM782 1482q-2 -10 -2 -16q0 -29 20 -47.5t53 -18.5
q37 0 65.5 23t35.5 58q2 12 2 16q0 29 -19.5 47t-52.5 18q-37 0 -65.5 -22.5t-36.5 -57.5zM984 1708h-177l242 242h184z" />
    <glyph glyph-name="aringacute" unicode="&#x1fb;" horiz-adv-x="1297" 
d="M902 1568h-177l262 262h184zM698 1331q-2 -9 -2 -18q0 -32 21 -52t55 -20q39 0 70 25t38 64q2 10 2 19q0 31 -20.5 50.5t-54.5 19.5q-39 0 -69.5 -24.5t-39.5 -63.5zM579 1330q17 85 88 140t160 55q79 0 127.5 -44t48.5 -113q0 -18 -4 -38q-17 -84 -87 -139.5t-160 -55.5
q-79 0 -128 44.5t-49 113.5q0 17 4 37zM561 139q109 0 209.5 56t164.5 149l67 345q-28 94 -106.5 151t-187.5 57q-158 0 -288 -110.5t-161 -268.5q-7 -35 -7 -74q0 -132 85.5 -218.5t223.5 -86.5zM710 1060q221 0 334 -158l26 134h182l-201 -1036h-182l26 134
q-173 -158 -396 -158q-131 0 -231.5 57.5t-152.5 155.5t-52 220q0 51 11 109q28 146 120 269.5t229 198t287 74.5z" />
    <glyph glyph-name="AEacute" unicode="&#x1fc;" horiz-adv-x="1846" 
d="M132 0h-214l1076 1400h890l-32 -163h-621l-88 -452h571l-32 -163h-571l-89 -459h639l-31 -163h-827l70 361h-467zM528 524h376l130 665zM979 1510l339 337h186l-345 -337h-180z" />
    <glyph glyph-name="aeacute" unicode="&#x1fd;" horiz-adv-x="2024" 
d="M1059 461q-1 -11 -1 -32q0 -129 84 -212.5t221 -83.5q185 0 351 150l102 -116q-205 -191 -479 -191q-144 0 -250 61t-155 163q-88 -104 -214 -164t-263 -60q-189 0 -307 82.5t-118 208.5q0 21 5 49q27 138 180.5 232t347.5 94q95 0 186.5 -27t147.5 -69q0 10 3 25l6 20.5
t5 19.5q3 23 3 43q0 113 -78.5 181t-205.5 68q-92 0 -186 -34.5t-174 -92.5l-42 140q206 144 438 144q142 0 245.5 -62t140.5 -171q87 106 215 169.5t266 63.5q198 0 315 -117t117 -298q0 -53 -10 -104q-8 -40 -24 -80h-872zM494 133q112 0 208.5 48t159.5 131q1 45 8 94
q-49 45 -129.5 69.5t-173.5 24.5q-135 0 -235 -53.5t-115 -130.5q-2 -10 -2 -22q0 -69 78 -115t201 -46zM1502 903q-126 0 -240.5 -83t-166.5 -208h683v9q0 124 -75.5 203t-200.5 79zM982 1186l339 337h186l-345 -337h-180z" />
    <glyph glyph-name="Oslashacute" unicode="&#x1fe;" horiz-adv-x="1634" 
d="M993 1424q213 0 367 -105l138 141h172l-215 -220q148 -161 148 -397q0 -74 -14 -143q-39 -201 -168.5 -367t-317 -261.5t-391.5 -95.5q-225 0 -385 116l-148 -152h-172l231 235q-135 154 -135 380q0 75 14 145q39 201 168 367.5t316.5 261.5t391.5 95zM744 142
q228 0 418 162t236 396q11 60 11 111q0 168 -94 287l-852 -868q116 -88 281 -88zM308 700q-11 -54 -11 -114q0 -156 80 -268l848 863q-113 77 -264 77q-228 0 -418 -162t-235 -396zM867 1510l339 337h186l-345 -337h-180z" />
    <glyph glyph-name="oslashacute" unicode="&#x1ff;" horiz-adv-x="1268" 
d="M740 1060q156 0 273 -74l110 110h164l-185 -187q102 -116 102 -286q0 -54 -10 -105q-29 -148 -125 -272t-239 -197t-301 -73q-160 0 -276 75l-109 -111h-164l185 187q-102 117 -102 285q0 49 11 106q29 148 125 272t239.5 197t301.5 73zM561 139q158 0 288 110.5
t160 268.5q7 36 7 75q0 102 -52 177l-577 -584q74 -47 174 -47zM259 518q-7 -36 -7 -76q0 -101 50 -175l578 584q-75 46 -172 46q-158 0 -288 -110.5t-161 -268.5zM620 1186l339 337h186l-345 -337h-180z" />
    <glyph glyph-name="Scommaaccent" unicode="&#x218;" horiz-adv-x="1176" 
d="M43 201l143 128q57 -83 142.5 -135t187.5 -52q138 0 236.5 63.5t118.5 167.5q5 27 5 45q0 165 -285 227q-180 39 -271 123t-91 206q0 36 7 71q32 168 176 273.5t341 105.5q264 0 406 -178l-139 -135q-126 147 -290 147q-116 0 -200 -56t-101 -144q-4 -19 -4 -40
q0 -152 275 -218q193 -46 282 -130t89 -210q0 -41 -9 -86q-34 -177 -189 -287.5t-380 -110.5q-145 0 -265 60.5t-185 164.5zM373 -470h-166l223 342h184z" />
    <glyph glyph-name="scommaaccent" unicode="&#x219;" horiz-adv-x="932" 
d="M1 148l127 123q40 -63 107.5 -100.5t153.5 -37.5q98 0 163 42t79 111q3 15 3 28q0 107 -199 147q-283 56 -283 253q0 27 7 60q25 124 139 205t274 81q200 0 321 -138l-122 -124q-102 105 -217 105q-81 0 -142 -37.5t-72 -95.5q-2 -14 -2 -21q0 -49 46.5 -86.5
t137.5 -56.5q297 -61 297 -259q0 -34 -6 -64q-27 -135 -146 -221t-296 -86q-125 0 -221 46t-149 126zM237 -470h-166l223 342h184z" />
    <glyph glyph-name="uni021A" unicode="&#x21a;" horiz-adv-x="1098" 
d="M355 0l240 1237h-393l32 163h974l-32 -163h-393l-240 -1237h-188zM313 -470h-166l223 342h184z" />
    <glyph glyph-name="uni021B" unicode="&#x21b;" horiz-adv-x="764" 
d="M484 876l-106 -545q-7 -32 -7 -64q0 -67 41 -99t130 -32q54 0 94 5l-31 -157q-42 -8 -109 -8q-159 0 -236 60t-77 185q0 43 12 108l107 547h-187l31 160h187l55 284l185 16l-58 -300h283l-31 -160h-283zM160 -470h-166l223 342h184z" />
    <glyph glyph-name="dotlessj" unicode="&#x237;" horiz-adv-x="522" 
d="M43 -137l228 1173h182l-228 -1170q-33 -173 -123 -251.5t-247 -78.5q-35 0 -77 4l31 157q17 -1 56 -1q72 0 116.5 39t61.5 128z" />
    <glyph glyph-name="apostrophe" unicode="&#x2bc;" horiz-adv-x="832" 
d="M462 1348q10 51 51 86t92 35q45 0 72.5 -27.5t27.5 -69.5q0 -16 -2 -24q-5 -25 -24 -55l-183 -280h-119l142 221q-28 10 -44 33.5t-16 54.5q0 13 3 26z" />
    <glyph glyph-name="circumflex" unicode="&#x2c6;" horiz-adv-x="832" 
d="M662 1457l226 -337h-180l-136 199l-214 -199h-180l358 337h126z" />
    <glyph glyph-name="caron" unicode="&#x2c7;" horiz-adv-x="832" 
d="M954 1457l-358 -337h-126l-226 337h180l136 -199l214 199h180z" />
    <glyph glyph-name="uni02C9" unicode="&#x2c9;" horiz-adv-x="832" 
d="M262 1217l28 142h580l-28 -142h-580z" />
    <glyph glyph-name="breve" unicode="&#x2d8;" horiz-adv-x="832" 
d="M535 1128q-119 0 -194 72.5t-75 188.5q0 24 3 48h162q-3 -18 -3 -34q0 -62 35.5 -100.5t97.5 -38.5q70 0 125 49t73 124h162q-34 -134 -144 -221.5t-242 -87.5z" />
    <glyph glyph-name="dotaccent" unicode="&#x2d9;" horiz-adv-x="832" 
d="M454 1292q9 47 48 80t87 33q41 0 67 -25.5t26 -65.5q0 -12 -2 -22q-10 -48 -48.5 -80.5t-86.5 -32.5q-42 0 -68 25t-26 64q0 12 3 24z" />
    <glyph glyph-name="ring" unicode="&#x2da;" horiz-adv-x="832" 
d="M474 1287q-2 -9 -2 -18q0 -32 21 -52t55 -20q39 0 70 25t38 64q2 10 2 19q0 31 -20.5 50.5t-54.5 19.5q-39 0 -69.5 -24.5t-39.5 -63.5zM355 1286q17 85 88 140t160 55q79 0 127.5 -44t48.5 -113q0 -18 -4 -38q-17 -84 -87 -139.5t-160 -55.5q-79 0 -128 44.5t-49 113.5
q0 17 4 37z" />
    <glyph glyph-name="ogonek" unicode="&#x2db;" horiz-adv-x="832" 
d="M312 0h136q-96 -68 -151 -123.5t-65 -109.5q-2 -10 -2 -23q0 -39 24.5 -62.5t65.5 -23.5q48 0 94 27l22 -97q-75 -46 -169 -46q-82 0 -133 46.5t-51 119.5q0 17 4 38q24 132 225 254z" />
    <glyph glyph-name="tilde" unicode="&#x2dc;" horiz-adv-x="832" 
d="M546 1210l-19.5 16.5l-20.5 17.5t-18.5 13.5t-21.5 10.5t-20 3q-49 0 -89 -101l-147 30q84 213 229 213q76 0 145 -58q4 -3 19 -16.5t21 -18t18 -12.5t22 -11t20 -3q26 0 46.5 24.5t42.5 76.5l147 -30q-85 -213 -230 -213q-77 0 -144 58z" />
    <glyph glyph-name="hungarumlaut" unicode="&#x2dd;" horiz-adv-x="832" 
d="M200 1123l340 337h186l-345 -337h-181zM517 1123l339 337h186l-345 -337h-180z" />
    <glyph glyph-name="gravecomb" unicode="&#x300;" horiz-adv-x="0" 
d="M-336 1460l209 -337h-180l-215 337h186z" />
    <glyph glyph-name="acutecomb" unicode="&#x301;" horiz-adv-x="0" 
d="M-467 1123l339 337h186l-345 -337h-180z" />
    <glyph glyph-name="uni0302" unicode="&#x302;" horiz-adv-x="0" 
d="M-169 1457l226 -337h-180l-136 199l-214 -199h-180l358 337h126z" />
    <glyph glyph-name="tildecomb" unicode="&#x303;" horiz-adv-x="0" 
d="M-286 1210l-19.5 16.5l-20.5 17.5t-18.5 13.5t-21.5 10.5t-20 3q-49 0 -89 -101l-147 30q84 213 229 213q76 0 145 -58q4 -3 19 -16.5t21 -18t18 -12.5t22 -11t20 -3q26 0 46.5 24.5t42.5 76.5l147 -30q-86 -213 -230 -213q-77 0 -144 58z" />
    <glyph glyph-name="uni0304" unicode="&#x304;" horiz-adv-x="0" 
d="M-570 1219l28 142h580l-28 -142h-580z" />
    <glyph glyph-name="uni0306" unicode="&#x306;" horiz-adv-x="0" 
d="M-297 1128q-119 0 -194 72.5t-75 188.5q0 24 3 48h162q-3 -18 -3 -34q0 -62 35.5 -100.5t97.5 -38.5q70 0 125 49t73 124h162q-34 -134 -144 -221.5t-242 -87.5z" />
    <glyph glyph-name="uni0307" unicode="&#x307;" horiz-adv-x="0" 
d="M-378 1292q9 47 48 80t87 33q41 0 67 -25.5t26 -65.5q0 -12 -2 -22q-10 -48 -48.5 -80.5t-86.5 -32.5q-42 0 -68 25t-26 64q0 12 3 24z" />
    <glyph glyph-name="uni0308" unicode="&#x308;" horiz-adv-x="0" 
d="M-557 1292q9 47 48 80t87 33q42 0 67.5 -25.5t25.5 -65.5q0 -12 -2 -22q-10 -48 -48.5 -80.5t-86.5 -32.5q-42 0 -68 25t-26 64q0 12 3 24zM-199 1292q9 47 48 80t87 33q42 0 67.5 -25.5t25.5 -65.5q0 -12 -2 -22q-10 -48 -48.5 -80.5t-86.5 -32.5q-42 0 -68 25t-26 64
q0 12 3 24z" />
    <glyph glyph-name="uni030A" unicode="&#x30a;" horiz-adv-x="0" 
d="M-358 1287q-2 -9 -2 -18q0 -32 21 -52t55 -20q39 0 70 25t38 64q2 10 2 19q0 31 -20.5 50.5t-54.5 19.5q-39 0 -69.5 -24.5t-39.5 -63.5zM-477 1286q17 85 88 140t160 55q79 0 127.5 -44t48.5 -113q0 -18 -4 -38q-17 -84 -87 -139.5t-160 -55.5q-79 0 -128 44.5
t-49 113.5q0 17 4 37z" />
    <glyph glyph-name="uni030C" unicode="&#x30c;" horiz-adv-x="0" 
d="M122 1457l-358 -337h-126l-226 337h180l136 -199l214 199h180z" />
    <glyph glyph-name="uni0327" unicode="&#x327;" horiz-adv-x="0" 
d="M-599 -209q-30 0 -57 -5l-26 38l131 176h142l-96 -115q71 -13 110.5 -57.5t39.5 -105.5q0 -16 -3 -34q-17 -89 -101 -148.5t-192 -59.5q-106 0 -167 58l79 90q38 -36 101 -36q52 0 91 28.5t47 70.5q2 12 2 18q0 36 -27.5 59t-73.5 23z" />
    <glyph glyph-name="tonos" unicode="&#x384;" horiz-adv-x="832" 
d="M535 1088h-165l230 372h184z" />
    <glyph glyph-name="dieresistonos" unicode="&#x385;" horiz-adv-x="832" 
d="M240 1144q11 48 50.5 80.5t90.5 32.5q44 0 71 -26t27 -67q0 -14 -3 -28q-11 -49 -50.5 -81t-90.5 -32q-44 0 -71 26t-27 67q0 14 3 28zM638 1314h-177l262 262h184zM598 1144q11 48 50.5 80.5t90.5 32.5q44 0 71 -26t27 -67q0 -14 -3 -28q-11 -49 -50.5 -81t-90.5 -32
q-44 0 -71 26t-27 67q0 14 3 28z" />
    <glyph glyph-name="Alphatonos" unicode="&#x386;" horiz-adv-x="1379" 
d="M1231 0h-205l-60 361h-596l-200 -361h-205l800 1400h210zM457 524h484l-112 668zM305 1028h-165l230 372h184z" />
    <glyph glyph-name="anoteleia" unicode="&#x387;" horiz-adv-x="594" 
d="M194 632q13 54 54.5 87t93.5 33q46 0 75 -27.5t29 -71.5q0 -13 -3 -27q-11 -52 -53.5 -88t-95.5 -36q-46 0 -75 27.5t-29 71.5q0 15 4 31z" />
    <glyph glyph-name="Epsilontonos" unicode="&#x388;" horiz-adv-x="1451" 
d="M390 0l272 1400h827l-32 -163h-639l-88 -452h588l-32 -163h-588l-89 -459h657l-31 -163h-845zM305 1028h-165l230 372h184z" />
    <glyph glyph-name="Etatonos" unicode="&#x389;" horiz-adv-x="1716" 
d="M390 0l272 1400h188l-120 -615h682l120 615h188l-272 -1400h-188l120 622h-682l-120 -622h-188zM305 1028h-165l230 372h184z" />
    <glyph glyph-name="Iotatonos" unicode="&#x38a;" horiz-adv-x="869" 
d="M662 1400h188l-272 -1400h-188zM305 1028h-165l230 372h184z" />
    <glyph glyph-name="Omicrontonos" unicode="&#x38c;" horiz-adv-x="1838" 
d="M948 142q228 0 418 162t236 396q11 60 11 112q0 195 -124.5 320.5t-323.5 125.5q-228 0 -418 -162t-235 -396q-11 -54 -11 -113q0 -194 124.5 -319.5t322.5 -125.5zM1197 1424q135 0 249 -43.5t193 -120.5t123.5 -184.5t44.5 -232.5q0 -74 -14 -143q-39 -201 -168.5 -367
t-317 -261.5t-391.5 -95.5q-135 0 -249 43.5t-193 120t-123 184t-44 232.5q0 74 14 144q39 201 168 367.5t316.5 261.5t391.5 95zM305 1028h-165l230 372h184z" />
    <glyph glyph-name="Upsilontonos" unicode="&#x38e;" horiz-adv-x="1683" 
d="M819 1400l268 -642l518 642h203l-663 -826l-111 -574h-188l111 574l-341 826h203zM305 1028h-165l230 372h184z" />
    <glyph glyph-name="Omegatonos" unicode="&#x38f;" horiz-adv-x="1798" 
d="M1557 733q11 57 11 106q0 182 -117 300.5t-303 118.5q-214 0 -392 -152.5t-221 -372.5q-11 -60 -11 -112q0 -143 74.5 -262t220.5 -199l-31 -160h-570l32 166h336q-252 173 -252 455q0 63 13 127q36 185 158.5 340.5t301.5 245.5t373 90q128 0 237.5 -41.5t185.5 -114.5
t118.5 -174t42.5 -218q0 -64 -13 -128q-35 -179 -153 -327.5t-312 -254.5h336l-32 -166h-570l31 160q211 95 341 245.5t165 327.5zM305 1028h-165l230 372h184z" />
    <glyph glyph-name="iotadieresistonos" unicode="&#x390;" horiz-adv-x="549" 
d="M113 225l158 811h182l-149 -764q-3 -18 -3 -33q0 -79 91 -79h43l-31 -157q-33 -3 -77 -3q-220 0 -220 166q0 28 6 59zM110 1278q11 48 50.5 80.5t90.5 32.5q44 0 71 -26t27 -67q0 -14 -3 -28q-11 -49 -50.5 -81t-90.5 -32q-44 0 -71 26t-27 67q0 14 3 28zM508 1448h-177
l262 262h184zM468 1278q11 48 50.5 80.5t90.5 32.5q44 0 71 -26t27 -67q0 -14 -3 -28q-11 -49 -50.5 -81t-90.5 -32q-44 0 -71 26t-27 67q0 14 3 28z" />
    <glyph glyph-name="Alpha" unicode="&#x391;" horiz-adv-x="1362" 
d="M1214 0h-205l-60 361h-596l-200 -361h-205l800 1400h210zM440 524h484l-112 668z" />
    <glyph glyph-name="Beta" unicode="&#x392;" horiz-adv-x="1235" 
d="M620 0h-552l272 1400h492q161 0 248.5 -76t87.5 -209q0 -41 -9 -86q-21 -108 -87 -181.5t-158 -104.5q93 -21 151.5 -92t58.5 -176q0 -33 -8 -76q-35 -178 -170.5 -288.5t-325.5 -110.5zM966 1020q5 24 5 53q0 78 -49.5 121t-134.5 43h-291l-84 -433h291q100 0 171.5 57
t91.5 159zM926 405q6 30 6 57q0 86 -54.5 135.5t-148.5 49.5h-348l-94 -484h348q109 0 189.5 66.5t101.5 175.5z" />
    <glyph glyph-name="Gamma" unicode="&#x393;" horiz-adv-x="1029" 
d="M68 0l272 1400h814l-32 -163h-626l-240 -1237h-188z" />
    <glyph glyph-name="uni0394" unicode="&#x394;" horiz-adv-x="1362" 
d="M958 1400l256 -1400h-1266l800 1400h210zM812 1192l-574 -1029h748z" />
    <glyph glyph-name="Epsilon" unicode="&#x395;" horiz-adv-x="1129" 
d="M68 0l272 1400h827l-32 -163h-639l-88 -452h588l-32 -163h-588l-89 -459h657l-31 -163h-845z" />
    <glyph glyph-name="Zeta" unicode="&#x396;" horiz-adv-x="1201" 
d="M52 163l933 1074h-694l32 163h919l-32 -163l-933 -1074h744l-31 -163h-969z" />
    <glyph glyph-name="Eta" unicode="&#x397;" horiz-adv-x="1394" 
d="M68 0l272 1400h188l-120 -615h682l120 615h188l-272 -1400h-188l120 622h-682l-120 -622h-188z" />
    <glyph glyph-name="Theta" unicode="&#x398;" horiz-adv-x="1634" 
d="M549 621l31 157h576l-31 -157h-576zM744 142q228 0 418 162t236 396q11 60 11 112q0 195 -124.5 320.5t-323.5 125.5q-228 0 -418 -162t-235 -396q-11 -54 -11 -113q0 -194 124.5 -319.5t322.5 -125.5zM993 1424q135 0 249 -43.5t193 -120.5t123.5 -184.5t44.5 -232.5
q0 -74 -14 -143q-39 -201 -168.5 -367t-317 -261.5t-391.5 -95.5q-135 0 -249 43.5t-193 120t-123 184t-44 232.5q0 74 14 144q39 201 168 367.5t316.5 261.5t391.5 95z" />
    <glyph glyph-name="Iota" unicode="&#x399;" horiz-adv-x="570" 
d="M363 1400h188l-272 -1400h-188z" />
    <glyph glyph-name="Kappa" unicode="&#x39a;" horiz-adv-x="1201" 
d="M528 1400l-120 -615h120l548 615h215l-618 -693l426 -707h-221l-376 622h-126l-120 -622h-188l272 1400h188z" />
    <glyph glyph-name="Lambda" unicode="&#x39b;" horiz-adv-x="1362" 
d="M1009 0l-200 1177l-656 -1177h-205l800 1400h210l256 -1400h-205z" />
    <glyph glyph-name="Mu" unicode="&#x39c;" horiz-adv-x="1698" 
d="M895 443h-120l-314 646l-211 -1089h-182l272 1400h175l360 -749l652 749h175l-272 -1400h-182l211 1089z" />
    <glyph glyph-name="Nu" unicode="&#x39d;" horiz-adv-x="1399" 
d="M68 0l272 1400h181l491 -1074l209 1074h182l-272 -1400h-181l-492 1074l-208 -1074h-182z" />
    <glyph glyph-name="Xi" unicode="&#x39e;" horiz-adv-x="1167" 
d="M274 1237l32 163h899l-32 -163h-899zM16 0l31 163h935l-31 -163h-935zM995 622h-783l32 163h783z" />
    <glyph glyph-name="Omicron" unicode="&#x39f;" horiz-adv-x="1634" 
d="M744 142q228 0 418 162t236 396q11 60 11 112q0 195 -124.5 320.5t-323.5 125.5q-228 0 -418 -162t-235 -396q-11 -54 -11 -113q0 -194 124.5 -319.5t322.5 -125.5zM993 1424q135 0 249 -43.5t193 -120.5t123.5 -184.5t44.5 -232.5q0 -74 -14 -143q-39 -201 -168.5 -367
t-317 -261.5t-391.5 -95.5q-135 0 -249 43.5t-193 120t-123 184t-44 232.5q0 74 14 144q39 201 168 367.5t316.5 261.5t391.5 95z" />
    <glyph glyph-name="Pi" unicode="&#x3a0;" horiz-adv-x="1349" 
d="M1353 1400l-272 -1400h-188l240 1237h-637l-240 -1237h-188l272 1400h1013z" />
    <glyph glyph-name="Rho" unicode="&#x3a1;" horiz-adv-x="1170" 
d="M617 528h-259l-102 -528h-188l272 1400h447q192 0 299 -90.5t107 -248.5q0 -48 -10 -97q-38 -199 -191 -317.5t-375 -118.5zM992 964q6 33 6 64q0 98 -64.5 153.5t-185.5 55.5h-252l-106 -546h252q140 0 233 73.5t117 199.5z" />
    <glyph glyph-name="Sigma" unicode="&#x3a3;" horiz-adv-x="1159" 
d="M53 160l523 542l-313 538l31 160h915l-32 -163h-685l293 -498l-15 -76l-489 -500h687l-31 -163h-915z" />
    <glyph glyph-name="Tau" unicode="&#x3a4;" horiz-adv-x="1098" 
d="M355 0l240 1237h-393l32 163h974l-32 -163h-393l-240 -1237h-188z" />
    <glyph glyph-name="Upsilon" unicode="&#x3a5;" horiz-adv-x="1286" 
d="M422 1400l268 -642l518 642h203l-663 -826l-111 -574h-188l111 574l-341 826h203z" />
    <glyph glyph-name="Phi" unicode="&#x3a6;" horiz-adv-x="1516" 
d="M633 355l133 686q-167 0 -302.5 -100.5t-163.5 -242.5q-6 -30 -6 -58q0 -123 95 -204t244 -81zM752 0h-188l37 192q-219 0 -359.5 119t-140.5 301q0 47 8 86q27 140 128.5 256.5t250.5 183t310 66.5l38 196h188l-38 -196q219 0 359 -119t140 -301q0 -47 -8 -86
q-27 -140 -128.5 -256.5t-250 -183t-309.5 -66.5zM954 1041l-133 -686q167 0 302 100.5t163 242.5q6 30 6 58q0 123 -94.5 204t-243.5 81z" />
    <glyph glyph-name="Chi" unicode="&#x3a7;" horiz-adv-x="1260" 
d="M145 0h-206l617 712l-327 688h206l260 -551l474 551h206l-595 -688l341 -712h-206l-274 575z" />
    <glyph glyph-name="Psi" unicode="&#x3a8;" horiz-adv-x="1382" 
d="M957 1400l-176 -903q128 29 224 128t124 240l104 535h188l-106 -544q-40 -206 -200 -354t-368 -178l-62 -324h-188l62 324q-168 26 -269.5 141.5t-101.5 283.5q0 49 11 107l106 544h188l-104 -535q-9 -45 -9 -85q0 -109 57.5 -184t155.5 -99l176 903h188z" />
    <glyph glyph-name="uni03A9" unicode="&#x3a9;" horiz-adv-x="1588" 
d="M1347 733q11 57 11 106q0 182 -117 300.5t-303 118.5q-214 0 -392 -152.5t-221 -372.5q-11 -60 -11 -112q0 -143 74.5 -262t220.5 -199l-31 -160h-570l32 166h336q-252 173 -252 455q0 63 13 127q36 185 158.5 340.5t301.5 245.5t373 90q128 0 237.5 -41.5t185.5 -114.5
t118.5 -174t42.5 -218q0 -64 -13 -128q-35 -179 -153 -327.5t-312 -254.5h336l-32 -166h-570l31 160q211 95 341 245.5t165 327.5z" />
    <glyph glyph-name="Iotadieresis" unicode="&#x3aa;" horiz-adv-x="570" 
d="M363 1400h188l-272 -1400h-188zM216 1664q9 47 48 80t87 33q41 0 67 -25.5t26 -65.5q0 -12 -2 -22q-10 -48 -48.5 -80.5t-86.5 -32.5q-42 0 -68 25t-26 64q0 12 3 24zM574 1664q9 47 48 80t87 33q41 0 67 -25.5t26 -65.5q0 -12 -2 -22q-10 -48 -48.5 -80.5t-86.5 -32.5
q-42 0 -68 25t-26 64q0 12 3 24z" />
    <glyph glyph-name="Upsilondieresis" unicode="&#x3ab;" horiz-adv-x="1286" 
d="M422 1400l268 -642l518 642h203l-663 -826l-111 -574h-188l111 574l-341 826h203zM574 1664q9 47 48 80t87 33q41 0 67 -25.5t26 -65.5q0 -12 -2 -22q-10 -48 -48.5 -80.5t-86.5 -32.5q-42 0 -68 25t-26 64q0 12 3 24zM932 1664q9 47 48 80t87 33q41 0 67 -25.5t26 -65.5
q0 -12 -2 -22q-10 -48 -48.5 -80.5t-86.5 -32.5q-42 0 -68 25t-26 64q0 12 3 24z" />
    <glyph glyph-name="alphatonos" unicode="&#x3ac;" horiz-adv-x="1378" 
d="M1156 0q-128 0 -185 33.5t-59 117.5q-87 -86 -193.5 -130.5t-219.5 -44.5q-131 0 -231.5 57.5t-152.5 155.5t-52 220q0 51 11 109q28 146 120 269.5t229 198t287 74.5q221 0 334 -158l26 134h182l-146 -749q-3 -17 -3 -31q0 -45 27.5 -70.5t77.5 -25.5h56l-31 -157
q-35 -3 -77 -3zM561 139q109 0 209.5 56t164.5 149l67 345q-28 94 -106.5 151t-187.5 57q-158 0 -288 -110.5t-161 -268.5q-7 -35 -7 -74q0 -132 85.5 -218.5t223.5 -86.5zM590 1186l339 337h186l-345 -337h-180z" />
    <glyph glyph-name="epsilontonos" unicode="&#x3ad;" horiz-adv-x="949" 
d="M214 307q-3 -13 -3 -26q0 -64 57 -106t147 -42q168 0 294 129l105 -103q-78 -86 -188.5 -134.5t-240.5 -48.5q-159 0 -259.5 76t-100.5 193q0 22 5 50q18 94 96 167t174 98q-66 23 -102 71.5t-36 109.5q0 23 4 40q23 118 145 198.5t279 80.5q125 0 207 -48.5t112 -135.5
l-164 -90q-18 56 -67 86.5t-119 30.5q-80 0 -141 -39t-72 -96q-2 -10 -2 -21q0 -50 45.5 -82t117.5 -32h154l-30 -151h-148q-100 0 -177.5 -50.5t-91.5 -124.5zM430 1186l339 337h186l-345 -337h-180z" />
    <glyph glyph-name="etatonos" unicode="&#x3ae;" horiz-adv-x="1207" 
d="M361 687l-133 -687h-182l201 1036h182l-31 -159q77 80 173.5 131.5t198.5 51.5q158 0 251 -89t93 -237q0 -48 -10 -97l-214 -1101h-182l212 1091q6 31 6 60q0 94 -60 152t-162 58q-91 0 -182 -61t-161 -149zM596 1186l339 337h186l-345 -337h-180z" />
    <glyph glyph-name="iotatonos" unicode="&#x3af;" horiz-adv-x="549" 
d="M113 225l158 811h182l-149 -764q-3 -18 -3 -33q0 -79 91 -79h43l-31 -157q-33 -3 -77 -3q-220 0 -220 166q0 28 6 59zM253 1186l339 337h186l-345 -337h-180z" />
    <glyph glyph-name="upsilondieresistonos" unicode="&#x3b0;" horiz-adv-x="1140" 
d="M465 -24q-164 0 -266.5 97.5t-102.5 248.5q0 44 8 83l123 631h182l-121 -622q-6 -30 -6 -58q0 -96 59.5 -156.5t155.5 -60.5q111 0 202 79t113 196l121 622h182l-123 -631q-35 -181 -187.5 -305t-339.5 -124zM420 1278q11 48 50.5 80.5t90.5 32.5q44 0 71 -26t27 -67
q0 -14 -3 -28q-11 -49 -50.5 -81t-90.5 -32q-44 0 -71 26t-27 67q0 14 3 28zM818 1448h-177l262 262h184zM778 1278q11 48 50.5 80.5t90.5 32.5q44 0 71 -26t27 -67q0 -14 -3 -28q-11 -49 -50.5 -81t-90.5 -32q-44 0 -71 26t-27 67q0 14 3 28z" />
    <glyph glyph-name="alpha" unicode="&#x3b1;" horiz-adv-x="1378" 
d="M1156 0q-128 0 -185 33.5t-59 117.5q-87 -86 -193.5 -130.5t-219.5 -44.5q-131 0 -231.5 57.5t-152.5 155.5t-52 220q0 51 11 109q28 146 120 269.5t229 198t287 74.5q221 0 334 -158l26 134h182l-146 -749q-3 -17 -3 -31q0 -45 27.5 -70.5t77.5 -25.5h56l-31 -157
q-35 -3 -77 -3zM561 139q109 0 209.5 56t164.5 149l67 345q-28 94 -106.5 151t-187.5 57q-158 0 -288 -110.5t-161 -268.5q-7 -35 -7 -74q0 -132 85.5 -218.5t223.5 -86.5z" />
    <glyph glyph-name="beta" unicode="&#x3b2;" horiz-adv-x="1200" 
d="M-36 -464l292 1499q32 168 172.5 278.5t320.5 110.5q157 0 254.5 -85.5t97.5 -217.5q0 -33 -6 -66q-19 -97 -101 -176.5t-195 -111.5q128 -20 210.5 -104t82.5 -209q0 -38 -7 -73q-33 -172 -180.5 -288.5t-329.5 -116.5q-110 0 -191.5 50t-110.5 131l-121 -621h-188z
M442 1026l-132 -679q22 -95 89.5 -151.5t166.5 -56.5q120 0 215 72.5t116 181.5q5 30 5 51q0 106 -93 165.5t-257 59.5l30 158q133 0 217.5 63.5t102.5 157.5q4 19 4 42q0 76 -53 125t-137 49q-97 0 -175.5 -67.5t-98.5 -170.5z" />
    <glyph glyph-name="gamma" unicode="&#x3b3;" horiz-adv-x="1050" 
d="M243 -464l91 465l-206 1035h190l152 -801l464 801h190l-608 -1035l-91 -465h-182z" />
    <glyph glyph-name="delta" unicode="&#x3b4;" horiz-adv-x="1124" 
d="M57 444q39 200 206.5 328t369.5 128l-282 346l30 154h716l-32 -163h-482l388 -479q75 -93 75 -229q0 -40 -8 -85q-26 -133 -115.5 -241.5t-213.5 -167.5t-255 -59q-173 0 -289.5 106t-116.5 273q0 42 9 89zM242 444q-6 -32 -6 -62q0 -108 70.5 -177t181.5 -69
q127 0 233.5 89t131.5 219q6 32 6 60q0 108 -70.5 178t-180.5 70q-127 0 -234 -89.5t-132 -218.5z" />
    <glyph glyph-name="epsilon" unicode="&#x3b5;" horiz-adv-x="949" 
d="M214 307q-3 -13 -3 -26q0 -64 57 -106t147 -42q168 0 294 129l105 -103q-78 -86 -188.5 -134.5t-240.5 -48.5q-159 0 -259.5 76t-100.5 193q0 22 5 50q18 94 96 167t174 98q-66 23 -102 71.5t-36 109.5q0 23 4 40q23 118 145 198.5t279 80.5q125 0 207 -48.5t112 -135.5
l-164 -90q-18 56 -67 86.5t-119 30.5q-80 0 -141 -39t-72 -96q-2 -10 -2 -21q0 -50 45.5 -82t117.5 -32h154l-30 -151h-148q-100 0 -177.5 -50.5t-91.5 -124.5z" />
    <glyph glyph-name="zeta" unicode="&#x3b6;" horiz-adv-x="934" 
d="M45 370q18 95 82.5 183t171.5 193l498 491h-484l32 163h697l-30 -154l-588 -584q-83 -82 -134 -152t-65 -140q-4 -20 -4 -40q0 -121 145 -191l216 -105q148 -72 148 -206q0 -21 -5 -49q-24 -120 -134 -243h-183q110 113 130 217q3 13 3 25q0 40 -26.5 72.5t-69.5 53.5
l-203 95q-100 47 -152 123.5t-52 174.5q0 38 7 73z" />
    <glyph glyph-name="eta" unicode="&#x3b7;" horiz-adv-x="1207" 
d="M361 687l-133 -687h-182l201 1036h182l-31 -159q77 80 173.5 131.5t198.5 51.5q158 0 251 -89t93 -237q0 -48 -10 -97l-214 -1101h-182l212 1091q6 31 6 60q0 94 -60 152t-162 58q-91 0 -182 -61t-161 -149z" />
    <glyph glyph-name="theta" unicode="&#x3b8;" horiz-adv-x="1274" 
d="M110 700q38 197 139.5 362t250.5 263.5t313 98.5q137 0 238 -71t152 -191.5t51 -275.5q0 -90 -18 -186q-29 -147 -96 -279.5t-158.5 -231t-209 -156t-240.5 -57.5q-137 0 -238 70.5t-152 191t-51 274.5q0 93 19 188zM564 139q150 0 280 138t187 344h-748q-5 -50 -5 -88
q0 -173 76.5 -283.5t209.5 -110.5zM782 1261q-150 0 -280.5 -138.5t-187.5 -344.5h748q5 50 5 88q0 174 -76 284.5t-209 110.5z" />
    <glyph glyph-name="iota" unicode="&#x3b9;" horiz-adv-x="549" 
d="M113 225l158 811h182l-149 -764q-3 -18 -3 -33q0 -79 91 -79h43l-31 -157q-33 -3 -77 -3q-220 0 -220 166q0 28 6 59z" />
    <glyph glyph-name="kappa" unicode="&#x3ba;" horiz-adv-x="1029" 
d="M711 0l-260 492h-128l-95 -492h-182l201 1036h182l-75 -387h130l368 387h216l-449 -465l302 -571h-210z" />
    <glyph glyph-name="lambda" unicode="&#x3bb;" horiz-adv-x="1050" 
d="M530 1016l-89 444h190l292 -1460h-190l-158 783l-458 -783h-190z" />
    <glyph glyph-name="uni03BC" unicode="&#x3bc;" horiz-adv-x="1227" 
d="M-45 -464l292 1500h182l-138 -707q13 -84 77.5 -137t154.5 -53q87 0 179.5 59t162.5 146l135 692h182l-201 -1036h-182l29 153q-72 -77 -166.5 -127t-188.5 -50q-75 0 -134.5 37t-90.5 94l-111 -571h-182z" />
    <glyph glyph-name="nu" unicode="&#x3bd;" horiz-adv-x="1046" 
d="M1120 1036l-603 -1036h-188l-201 1036h190l151 -798l461 798h190z" />
    <glyph glyph-name="xi" unicode="&#x3be;" horiz-adv-x="944" 
d="M236 376q-6 -30 -6 -56q0 -149 168 -215l175 -70q81 -32 125 -86.5t44 -124.5q0 -19 -5 -46q-23 -119 -139 -242h-182q117 116 136 216q3 14 3 27q0 80 -100 120l-168 65q-117 45 -179 133.5t-62 197.5q0 39 7 74q26 132 129.5 240.5t240.5 155.5q-81 33 -128.5 100.5
t-47.5 152.5q0 28 6 58q29 147 161 247.5t297 100.5q203 0 297 -140l-145 -127q-67 116 -181 116q-89 0 -161 -62t-90 -154q-5 -27 -5 -46q0 -75 47.5 -122.5t124.5 -47.5h216l-29 -151h-181q-130 0 -236.5 -90.5t-131.5 -223.5z" />
    <glyph glyph-name="omicron" unicode="&#x3bf;" horiz-adv-x="1268" 
d="M561 139q158 0 288 110.5t160 268.5q8 42 8 76q0 131 -85.5 217t-223.5 86q-158 0 -288 -110.5t-161 -268.5q-7 -35 -7 -74q0 -132 85.5 -218.5t223.5 -86.5zM740 1060q210 0 337 -123t127 -313q0 -55 -10 -106q-29 -148 -125 -272t-239 -197t-301 -73
q-210 0 -337.5 123.5t-127.5 313.5q0 54 10 105q29 148 125 272t239.5 197t301.5 73z" />
    <glyph glyph-name="pi" unicode="&#x3c0;" horiz-adv-x="1142" 
d="M458 873l-169 -873h-182l169 873h-157l32 163h1042l-32 -163h-157l-169 -873h-182l169 873h-364z" />
    <glyph glyph-name="rho" unicode="&#x3c1;" horiz-adv-x="1282" 
d="M308 518l-25 -132q15 -112 97 -179.5t200 -67.5q156 0 284 109.5t159 269.5q8 45 8 81q0 131 -79.5 214.5t-211.5 83.5q-154 0 -277.5 -109.5t-154.5 -269.5zM578 -24q-115 0 -202.5 48t-137.5 133l-121 -621h-182l191 982q29 150 122 273.5t232 196t294 72.5
q202 0 323.5 -121t121.5 -309q0 -58 -10 -112q-29 -147 -120.5 -271t-227 -197.5t-283.5 -73.5z" />
    <glyph glyph-name="sigma1" unicode="&#x3c2;" horiz-adv-x="1075" 
d="M74 518q29 148 125 272t239.5 197t301.5 73q216 0 350 -137l-123 -143q-110 117 -259 117q-158 0 -288 -110.5t-161 -268.5q-8 -43 -8 -78q0 -96 49 -170t143 -118l253 -119q146 -69 146 -202q0 -29 -5 -52q-24 -120 -141 -243h-180q114 116 134 217q3 15 3 27
q0 79 -95 122l-237 110q-122 56 -190 159t-68 238q0 49 11 109z" />
    <glyph glyph-name="sigma" unicode="&#x3c3;" horiz-adv-x="1311" 
d="M72 506q28 146 124.5 268t236 192t290.5 70h639l-32 -163h-284q61 -52 94.5 -128t33.5 -165q0 -42 -9 -89q-27 -140 -122.5 -258.5t-235.5 -187.5t-290 -69q-201 0 -328 121t-127 307q0 52 10 102zM983 506q7 35 7 74q0 128 -83 210.5t-216 82.5q-153 0 -278.5 -106
t-155.5 -261q-7 -36 -7 -74q0 -128 83 -210.5t216 -82.5q153 0 278.5 106t155.5 261z" />
    <glyph glyph-name="tau" unicode="&#x3c4;" horiz-adv-x="980" 
d="M347 307l110 566h-338l32 163h880l-32 -163h-360l-108 -559q-7 -38 -7 -58q0 -53 29 -76t88 -23h57l-30 -157q-34 -3 -79 -3q-130 0 -192 48.5t-62 155.5q0 46 12 106z" />
    <glyph glyph-name="upsilon" unicode="&#x3c5;" horiz-adv-x="1140" 
d="M465 -24q-164 0 -266.5 97.5t-102.5 248.5q0 44 8 83l123 631h182l-121 -622q-6 -30 -6 -58q0 -96 59.5 -156.5t155.5 -60.5q111 0 202 79t113 196l121 622h182l-123 -631q-35 -181 -187.5 -305t-339.5 -124z" />
    <glyph glyph-name="phi" unicode="&#x3c6;" horiz-adv-x="1388" 
d="M351 941l107 -116q-164 -133 -199 -307q-7 -35 -7 -74q0 -123 76 -206.5t202 -95.5l179 918h141q214 0 344 -123t130 -314q0 -54 -10 -105q-28 -144 -119.5 -264.5t-227 -194t-287.5 -81.5l-86 -442h-182l86 442q-196 11 -315 132.5t-119 303.5q0 53 10 104
q25 128 100 237.5t177 185.5zM1129 518q7 36 7 75q0 123 -76.5 206t-201.5 95l-146 -752q151 14 270 120.5t147 255.5z" />
    <glyph glyph-name="chi" unicode="&#x3c7;" horiz-adv-x="1028" 
d="M827 -464h-196l-192 593l-424 -593h-195l549 769l-238 731h196l180 -557l396 557h196l-522 -731z" />
    <glyph glyph-name="psi" unicode="&#x3c8;" horiz-adv-x="1369" 
d="M878 1036l-172 -884q129 26 226.5 122.5t122.5 226.5l104 535h185l-106 -543q-38 -196 -197.5 -338.5t-367.5 -170.5l-87 -448h-185l87 448q-170 24 -273.5 137.5t-103.5 275.5q0 41 10 96l106 543h185l-104 -535q-7 -35 -7 -72q0 -105 59.5 -179.5t160.5 -97.5l172 884
h185z" />
    <glyph glyph-name="omega" unicode="&#x3c9;" horiz-adv-x="1588" 
d="M734 207q-65 -101 -162 -166t-204 -65q-140 0 -225 109.5t-85 283.5q0 64 14 139q20 103 71.5 209.5t98.5 173t111 145.5h182q-231 -290 -278 -528q-12 -62 -12 -116q0 -113 45.5 -183t121.5 -70q90 0 172.5 97t109.5 234l68 348h182l-68 -348q-9 -50 -9 -94
q0 -104 45 -170.5t118 -66.5q96 0 181.5 106t115.5 263q13 68 13 140q0 177 -85 388h182q89 -203 89 -382q0 -75 -14 -146q-29 -148 -105 -270t-181 -192t-216 -70q-107 0 -179 65t-97 166z" />
    <glyph glyph-name="iotadieresis" unicode="&#x3ca;" horiz-adv-x="549" 
d="M113 225l158 811h182l-149 -764q-3 -18 -3 -33q0 -79 91 -79h43l-31 -157q-33 -3 -77 -3q-220 0 -220 166q0 28 6 59zM129 1340q9 47 48 80t87 33q42 0 67.5 -25.5t25.5 -65.5q0 -12 -2 -22q-10 -48 -48.5 -80.5t-86.5 -32.5q-42 0 -68 25t-26 64q0 12 3 24zM487 1340
q9 47 48 80t87 33q42 0 67.5 -25.5t25.5 -65.5q0 -12 -2 -22q-10 -48 -48.5 -80.5t-86.5 -32.5q-42 0 -68 25t-26 64q0 12 3 24z" />
    <glyph glyph-name="upsilondieresis" unicode="&#x3cb;" horiz-adv-x="1140" 
d="M465 -24q-164 0 -266.5 97.5t-102.5 248.5q0 44 8 83l123 631h182l-121 -622q-6 -30 -6 -58q0 -96 59.5 -156.5t155.5 -60.5q111 0 202 79t113 196l121 622h182l-123 -631q-35 -181 -187.5 -305t-339.5 -124zM438 1340q9 47 48 80t87 33q41 0 67 -25.5t26 -65.5
q0 -12 -2 -22q-10 -48 -48.5 -80.5t-86.5 -32.5q-42 0 -68 25t-26 64q0 12 3 24zM796 1340q9 47 48 80t87 33q41 0 67 -25.5t26 -65.5q0 -12 -2 -22q-10 -48 -48.5 -80.5t-86.5 -32.5q-42 0 -68 25t-26 64q0 12 3 24z" />
    <glyph glyph-name="omicrontonos" unicode="&#x3cc;" horiz-adv-x="1268" 
d="M561 139q158 0 288 110.5t160 268.5q8 42 8 76q0 131 -85.5 217t-223.5 86q-158 0 -288 -110.5t-161 -268.5q-7 -35 -7 -74q0 -132 85.5 -218.5t223.5 -86.5zM740 1060q210 0 337 -123t127 -313q0 -55 -10 -106q-29 -148 -125 -272t-239 -197t-301 -73
q-210 0 -337.5 123.5t-127.5 313.5q0 54 10 105q29 148 125 272t239.5 197t301.5 73zM620 1186l339 337h186l-345 -337h-180z" />
    <glyph glyph-name="upsilontonos" unicode="&#x3cd;" horiz-adv-x="1140" 
d="M465 -24q-164 0 -266.5 97.5t-102.5 248.5q0 44 8 83l123 631h182l-121 -622q-6 -30 -6 -58q0 -96 59.5 -156.5t155.5 -60.5q111 0 202 79t113 196l121 622h182l-123 -631q-35 -181 -187.5 -305t-339.5 -124zM545 1186l339 337h186l-345 -337h-180z" />
    <glyph glyph-name="omegatonos" unicode="&#x3ce;" horiz-adv-x="1588" 
d="M734 207q-65 -101 -162 -166t-204 -65q-140 0 -225 109.5t-85 283.5q0 64 14 139q20 103 71.5 209.5t98.5 173t111 145.5h182q-231 -290 -278 -528q-12 -62 -12 -116q0 -113 45.5 -183t121.5 -70q90 0 172.5 97t109.5 234l68 348h182l-68 -348q-9 -50 -9 -94
q0 -104 45 -170.5t118 -66.5q96 0 181.5 106t115.5 263q13 68 13 140q0 177 -85 388h182q89 -203 89 -382q0 -75 -14 -146q-29 -148 -105 -270t-181 -192t-216 -70q-107 0 -179 65t-97 166zM788 1186l339 337h186l-345 -337h-180z" />
    <glyph glyph-name="uni0400" unicode="&#x400;" horiz-adv-x="1129" 
d="M68 0l272 1400h827l-32 -163h-639l-88 -452h588l-32 -163h-588l-89 -459h657l-31 -163h-845zM701 1847l209 -337h-180l-215 337h186z" />
    <glyph glyph-name="afii10023" unicode="&#x401;" horiz-adv-x="1129" 
d="M68 0l272 1400h827l-32 -163h-639l-88 -452h588l-32 -163h-588l-89 -459h657l-31 -163h-845zM511 1664q9 47 48 80t87 33q42 0 67.5 -25.5t25.5 -65.5q0 -12 -2 -22q-10 -48 -48.5 -80.5t-86.5 -32.5q-42 0 -68 25t-26 64q0 12 3 24zM869 1664q9 47 48 80t87 33
q42 0 67.5 -25.5t25.5 -65.5q0 -12 -2 -22q-10 -48 -48.5 -80.5t-86.5 -32.5q-42 0 -68 25t-26 64q0 12 3 24z" />
    <glyph glyph-name="afii10051" unicode="&#x402;" horiz-adv-x="1425" 
d="M354 0l240 1237h-392l32 163h973l-32 -163h-393l-92 -474q66 63 153 100t176 37q149 0 242.5 -89.5t93.5 -228.5q0 -36 -8 -79l-22 -115q-32 -165 -170 -278.5t-308 -113.5q-42 0 -80 4l30 157q19 -1 60 -1q100 0 181 68.5t100 169.5l20 100q5 28 5 48q0 85 -55.5 140
t-144.5 55q-91 0 -171 -43t-139 -121l-111 -573h-188z" />
    <glyph glyph-name="afii10052" unicode="&#x403;" horiz-adv-x="1029" 
d="M68 0l272 1400h814l-32 -163h-626l-240 -1237h-188zM633 1551l339 337h186l-345 -337h-180z" />
    <glyph glyph-name="afii10053" unicode="&#x404;" horiz-adv-x="1368" 
d="M744 142q207 0 407 142l72 -141q-235 -167 -511 -167q-135 0 -249 43.5t-193 120t-123 184t-44 232.5q0 74 14 144q39 201 168 367.5t316.5 261.5t391.5 95q260 0 432 -155l-122 -142q-80 64 -160 97.5t-182 33.5q-207 0 -385.5 -135.5t-247.5 -341.5h721l-31 -163h-721
q-1 -10 -1 -31q0 -194 124.5 -319.5t323.5 -125.5z" />
    <glyph glyph-name="afii10054" unicode="&#x405;" horiz-adv-x="1176" 
d="M43 201l143 128q57 -83 142.5 -135t187.5 -52q138 0 236.5 63.5t118.5 167.5q5 27 5 45q0 165 -285 227q-180 39 -271 123t-91 206q0 36 7 71q32 168 176 273.5t341 105.5q264 0 406 -178l-139 -135q-126 147 -290 147q-116 0 -200 -56t-101 -144q-4 -19 -4 -40
q0 -152 275 -218q193 -46 282 -130t89 -210q0 -41 -9 -86q-34 -177 -189 -287.5t-380 -110.5q-145 0 -265 60.5t-185 164.5z" />
    <glyph glyph-name="afii10055" unicode="&#x406;" horiz-adv-x="570" 
d="M363 1400h188l-272 -1400h-188z" />
    <glyph glyph-name="afii10056" unicode="&#x407;" horiz-adv-x="570" 
d="M363 1400h188l-272 -1400h-188zM216 1664q9 47 48 80t87 33q41 0 67 -25.5t26 -65.5q0 -12 -2 -22q-10 -48 -48.5 -80.5t-86.5 -32.5q-42 0 -68 25t-26 64q0 12 3 24zM574 1664q9 47 48 80t87 33q41 0 67 -25.5t26 -65.5q0 -12 -2 -22q-10 -48 -48.5 -80.5t-86.5 -32.5
q-42 0 -68 25t-26 64q0 12 3 24z" />
    <glyph glyph-name="afii10057" unicode="&#x408;" horiz-adv-x="909" 
d="M549 431l189 969h188l-189 -969q-88 -455 -516 -455q-73 0 -145 18.5t-120 49.5l92 159q39 -27 94.5 -44t106.5 -17q244 0 300 289z" />
    <glyph glyph-name="afii10058" unicode="&#x409;" horiz-adv-x="2004" 
d="M1129 163h236q142 0 239.5 78t121.5 205q7 39 7 64q0 101 -67.5 160t-190.5 59h-236zM1341 0h-431l240 1237h-569l-177 -909q-64 -332 -380 -332q-37 0 -77 4l31 160q18 -1 59 -1q73 0 117.5 39t61.5 128l209 1074h945l-99 -508h243q194 0 303 -94t109 -254
q0 -49 -10 -98q-39 -200 -195.5 -323t-379.5 -123z" />
    <glyph glyph-name="afii10059" unicode="&#x40a;" horiz-adv-x="2015" 
d="M68 0l272 1400h188l-120 -615h664l120 615h188l-99 -508h244q194 0 303 -94t109 -254q0 -49 -10 -98q-39 -200 -195.5 -323t-379.5 -123h-432l120 622h-664l-120 -622h-188zM1139 163h236q142 0 240 77.5t122 205.5q7 39 7 64q0 101 -68 160t-191 59h-236z" />
    <glyph glyph-name="afii10060" unicode="&#x40b;" horiz-adv-x="1476" 
d="M354 0l240 1237h-392l32 163h973l-32 -163h-393l-92 -474q66 63 153 100t176 37q149 0 242.5 -90t93.5 -229q0 -35 -8 -78l-97 -503h-188l96 494q5 28 5 48q0 85 -55.5 140t-144.5 55q-91 0 -171 -43t-139 -121l-111 -573h-188z" />
    <glyph glyph-name="afii10061" unicode="&#x40c;" horiz-adv-x="1201" 
d="M528 1400l-120 -615h120l548 615h215l-618 -693l426 -707h-221l-376 622h-126l-120 -622h-188l272 1400h188zM618 1510l339 337h186l-345 -337h-180z" />
    <glyph glyph-name="uni040D" unicode="&#x40d;" horiz-adv-x="1399" 
d="M1403 1400l-272 -1400h-182l208 1074l-908 -1074h-181l272 1400h182l-209 -1074l909 1074h181zM822 1847l209 -337h-180l-215 337h186z" />
    <glyph glyph-name="afii10062" unicode="&#x40e;" horiz-adv-x="1286" 
d="M426 264l103 146l-310 990h198l247 -800l549 800h198l-838 -1211q-130 -189 -323 -189h-144l31 163h120q96 0 169 101zM837 1490q-119 0 -194 72.5t-75 188.5q0 24 3 48h162q-3 -18 -3 -34q0 -62 35.5 -100.5t97.5 -38.5q70 0 125 49t73 124h162q-34 -134 -144 -221.5
t-242 -87.5z" />
    <glyph glyph-name="afii10145" unicode="&#x40f;" horiz-adv-x="1350" 
d="M1354 1400l-272 -1400h-413l-55 -280h-188l55 280h-413l272 1400h188l-241 -1237h638l241 1237h188z" />
    <glyph glyph-name="afii10017" unicode="&#x410;" horiz-adv-x="1362" 
d="M1214 0h-205l-60 361h-596l-200 -361h-205l800 1400h210zM440 524h484l-112 668z" />
    <glyph glyph-name="afii10018" unicode="&#x411;" horiz-adv-x="1183" 
d="M68 0l272 1400h815l-32 -163h-627l-67 -345h248q194 0 303 -94t109 -254q0 -49 -10 -98q-39 -200 -195.5 -323t-379.5 -123h-436zM287 163h241q141 0 238.5 78t121.5 205q7 39 7 64q0 101 -67.5 160t-189.5 59h-241z" />
    <glyph glyph-name="afii10019" unicode="&#x412;" horiz-adv-x="1235" 
d="M620 0h-552l272 1400h492q161 0 248.5 -76t87.5 -209q0 -41 -9 -86q-21 -108 -87 -181.5t-158 -104.5q93 -21 151.5 -92t58.5 -176q0 -33 -8 -76q-35 -178 -170.5 -288.5t-325.5 -110.5zM966 1020q5 24 5 53q0 78 -49.5 121t-134.5 43h-291l-84 -433h291q100 0 171.5 57
t91.5 159zM926 405q6 30 6 57q0 86 -54.5 135.5t-148.5 49.5h-348l-94 -484h348q109 0 189.5 66.5t101.5 175.5z" />
    <glyph glyph-name="afii10020" unicode="&#x413;" horiz-adv-x="1029" 
d="M68 0l272 1400h814l-32 -163h-626l-240 -1237h-188z" />
    <glyph glyph-name="afii10021" unicode="&#x414;" horiz-adv-x="1316" 
d="M1184 163l-86 -443h-188l55 280h-814l-55 -280h-188l86 443h108q252 403 392 1107l26 130h780l-241 -1237h125zM303 163h568l209 1074h-406q-56 -287 -152 -572.5t-219 -501.5z" />
    <glyph glyph-name="afii10022" unicode="&#x415;" horiz-adv-x="1129" 
d="M68 0l272 1400h827l-32 -163h-639l-88 -452h588l-32 -163h-588l-89 -459h657l-31 -163h-845z" />
    <glyph glyph-name="afii10024" unicode="&#x416;" horiz-adv-x="1798" 
d="M469 1400l290 -615h98l120 615h188l-120 -615h98l530 615h215l-599 -693l407 -707h-221l-357 622h-105l-120 -622h-188l120 622h-105l-597 -622h-221l681 707l-329 693h215z" />
    <glyph glyph-name="afii10025" unicode="&#x417;" horiz-adv-x="1057" 
d="M768 411q5 22 5 53q0 100 -74 161.5t-202 61.5h-145l30 154h147q114 0 197.5 60.5t100.5 152.5q4 17 4 39q0 75 -57 123t-148 48q-142 0 -269 -119l-90 114q170 165 405 165q156 0 249 -83t93 -213q0 -36 -7 -70q-19 -96 -91 -174t-173 -114q100 -36 158.5 -114
t58.5 -180q0 -36 -7 -68q-36 -183 -198.5 -307.5t-365.5 -124.5q-134 0 -237 59.5t-151 164.5l143 119q39 -84 109 -133.5t167 -49.5q125 0 225 79.5t123 195.5z" />
    <glyph glyph-name="afii10026" unicode="&#x418;" horiz-adv-x="1399" 
d="M1403 1400l-272 -1400h-182l208 1074l-908 -1074h-181l272 1400h182l-209 -1074l909 1074h181z" />
    <glyph glyph-name="afii10027" unicode="&#x419;" horiz-adv-x="1399" 
d="M1403 1400l-272 -1400h-182l208 1074l-908 -1074h-181l272 1400h182l-209 -1074l909 1074h181zM888 1490q-119 0 -194 72.5t-75 188.5q0 24 3 48h162q-3 -18 -3 -34q0 -62 35.5 -100.5t97.5 -38.5q70 0 125 49t73 124h162q-34 -134 -144 -221.5t-242 -87.5z" />
    <glyph glyph-name="afii10028" unicode="&#x41a;" horiz-adv-x="1201" 
d="M528 1400l-120 -615h120l548 615h215l-618 -693l426 -707h-221l-376 622h-126l-120 -622h-188l272 1400h188z" />
    <glyph glyph-name="afii10029" unicode="&#x41b;" horiz-adv-x="1403" 
d="M581 1237l-177 -909q-64 -332 -380 -332q-37 0 -77 4l31 160q18 -1 59 -1q73 0 117.5 39t61.5 128l209 1074h982l-272 -1400h-188l240 1237h-606z" />
    <glyph glyph-name="afii10030" unicode="&#x41c;" horiz-adv-x="1698" 
d="M895 443h-120l-314 646l-211 -1089h-182l272 1400h175l360 -749l652 749h175l-272 -1400h-182l211 1089z" />
    <glyph glyph-name="afii10031" unicode="&#x41d;" horiz-adv-x="1394" 
d="M68 0l272 1400h188l-120 -615h682l120 615h188l-272 -1400h-188l120 622h-682l-120 -622h-188z" />
    <glyph glyph-name="afii10032" unicode="&#x41e;" horiz-adv-x="1634" 
d="M744 142q228 0 418 162t236 396q11 60 11 112q0 195 -124.5 320.5t-323.5 125.5q-228 0 -418 -162t-235 -396q-11 -54 -11 -113q0 -194 124.5 -319.5t322.5 -125.5zM993 1424q135 0 249 -43.5t193 -120.5t123.5 -184.5t44.5 -232.5q0 -74 -14 -143q-39 -201 -168.5 -367
t-317 -261.5t-391.5 -95.5q-135 0 -249 43.5t-193 120t-123 184t-44 232.5q0 74 14 144q39 201 168 367.5t316.5 261.5t391.5 95z" />
    <glyph glyph-name="afii10033" unicode="&#x41f;" horiz-adv-x="1349" 
d="M1353 1400l-272 -1400h-188l240 1237h-637l-240 -1237h-188l272 1400h1013z" />
    <glyph glyph-name="afii10034" unicode="&#x420;" horiz-adv-x="1170" 
d="M617 528h-259l-102 -528h-188l272 1400h447q192 0 299 -90.5t107 -248.5q0 -48 -10 -97q-38 -199 -191 -317.5t-375 -118.5zM992 964q6 33 6 64q0 98 -64.5 153.5t-185.5 55.5h-252l-106 -546h252q140 0 233 73.5t117 199.5z" />
    <glyph glyph-name="afii10035" unicode="&#x421;" horiz-adv-x="1368" 
d="M744 142q207 0 407 142l72 -141q-235 -167 -511 -167q-135 0 -249 43.5t-193 120t-123 184t-44 232.5q0 74 14 144q39 201 168 367.5t316.5 261.5t391.5 95q260 0 432 -155l-122 -142q-80 64 -160 97.5t-182 33.5q-228 0 -418 -162t-235 -396q-11 -54 -11 -113
q0 -194 124.5 -319.5t322.5 -125.5z" />
    <glyph glyph-name="afii10036" unicode="&#x422;" horiz-adv-x="1098" 
d="M355 0l240 1237h-393l32 163h974l-32 -163h-393l-240 -1237h-188z" />
    <glyph glyph-name="afii10037" unicode="&#x423;" horiz-adv-x="1286" 
d="M426 264l103 146l-310 990h198l247 -800l549 800h198l-838 -1211q-130 -189 -323 -189h-144l31 163h120q96 0 169 101z" />
    <glyph glyph-name="afii10038" unicode="&#x424;" horiz-adv-x="1516" 
d="M633 355l133 686q-167 0 -302.5 -100.5t-163.5 -242.5q-6 -30 -6 -58q0 -123 95 -204t244 -81zM752 0h-188l37 192q-219 0 -359.5 119t-140.5 301q0 47 8 86q27 140 128.5 256.5t250.5 183t310 66.5l38 196h188l-38 -196q219 0 359 -119t140 -301q0 -47 -8 -86
q-27 -140 -128.5 -256.5t-250 -183t-309.5 -66.5zM954 1041l-133 -686q167 0 302 100.5t163 242.5q6 30 6 58q0 123 -94.5 204t-243.5 81z" />
    <glyph glyph-name="afii10039" unicode="&#x425;" horiz-adv-x="1260" 
d="M145 0h-206l617 712l-327 688h206l260 -551l474 551h206l-595 -688l341 -712h-206l-274 575z" />
    <glyph glyph-name="afii10040" unicode="&#x426;" horiz-adv-x="1368" 
d="M1354 1400l-241 -1237h123l-86 -443h-188l55 280h-949l272 1400h188l-241 -1237h638l241 1237h188z" />
    <glyph glyph-name="afii10041" unicode="&#x427;" horiz-adv-x="1230" 
d="M962 0h-188l125 646q-65 -64 -162 -105t-189 -41q-157 0 -255 94.5t-98 239.5q0 37 8 80l95 486h188l-93 -477q-5 -30 -5 -51q0 -91 60 -150t157 -59q93 0 182.5 47t148.5 126l110 564h188z" />
    <glyph glyph-name="afii10042" unicode="&#x428;" horiz-adv-x="1928" 
d="M1503 163l241 1237h188l-272 -1400h-1592l272 1400h188l-241 -1237h514l241 1237h188l-241 -1237h514z" />
    <glyph glyph-name="afii10043" unicode="&#x429;" horiz-adv-x="1945" 
d="M68 0l272 1400h188l-241 -1237h514l241 1237h188l-241 -1237h514l241 1237h188l-241 -1237h122l-86 -443h-188l55 280h-1526z" />
    <glyph glyph-name="afii10044" unicode="&#x42a;" horiz-adv-x="1416" 
d="M536 163h241q142 0 239.5 78t121.5 205q7 39 7 64q0 101 -67.5 160t-190.5 59h-241zM753 0h-436l240 1237h-355l32 163h543l-99 -508h248q194 0 303 -94t109 -254q0 -49 -10 -98q-39 -200 -195.5 -323t-379.5 -123z" />
    <glyph glyph-name="afii10045" unicode="&#x42b;" horiz-adv-x="1629" 
d="M287 163h241q142 0 239.5 78t121.5 205q7 39 7 64q0 101 -67.5 160t-190.5 59h-241zM1445 1400h188l-272 -1400h-188zM504 0h-436l272 1400h188l-99 -508h248q194 0 303 -94t109 -254q0 -49 -10 -98q-39 -200 -195.5 -323t-379.5 -123z" />
    <glyph glyph-name="afii10046" unicode="&#x42c;" horiz-adv-x="1167" 
d="M287 163h241q142 0 239.5 78t121.5 205q7 39 7 64q0 101 -67.5 160t-190.5 59h-241zM504 0h-436l272 1400h188l-99 -508h248q194 0 303 -94t109 -254q0 -49 -10 -98q-39 -200 -195.5 -323t-379.5 -123z" />
    <glyph glyph-name="afii10047" unicode="&#x42d;" horiz-adv-x="1368" 
d="M478 142q207 0 385 135t247 341h-720l31 163h720q1 11 1 33q0 193 -124.5 318.5t-322.5 125.5q-102 0 -195.5 -34t-196.5 -97l-68 142q232 155 492 155q135 0 249 -43.5t193 -120.5t123.5 -184.5t44.5 -232.5q0 -74 -14 -143q-39 -201 -168.5 -367t-317 -261.5
t-391.5 -95.5q-275 0 -447 167l128 141q145 -142 351 -142z" />
    <glyph glyph-name="afii10048" unicode="&#x42e;" horiz-adv-x="2112" 
d="M376 621l-120 -621h-188l272 1400h188l-120 -616h208q55 181 183.5 327t305 229.5t366.5 83.5q272 0 441 -163.5t169 -417.5q0 -74 -14 -143q-39 -201 -168 -367t-316.5 -261.5t-392.5 -95.5q-180 0 -319 74.5t-214.5 206t-75.5 298.5q0 33 3 66h-208zM1222 142
q112 0 222 43.5t197 118t150 178t85 218.5q11 61 11 112q0 194 -124.5 320t-323.5 126q-228 0 -418 -162t-235 -396q-11 -54 -11 -113q0 -194 124.5 -319.5t322.5 -125.5z" />
    <glyph glyph-name="afii10049" unicode="&#x42f;" horiz-adv-x="1200" 
d="M846 528h-188l-472 -528h-208l483 540q-134 27 -207 112t-73 214q0 49 10 98q38 199 191 317.5t375 118.5h447l-272 -1400h-188zM382 964q-6 -33 -6 -64q0 -98 64.5 -153.5t185.5 -55.5h252l106 546h-252q-140 0 -233 -73.5t-117 -199.5z" />
    <glyph glyph-name="afii10065" unicode="&#x430;" horiz-adv-x="1297" 
d="M561 139q109 0 209.5 56t164.5 149l67 345q-28 94 -106.5 151t-187.5 57q-158 0 -288 -110.5t-161 -268.5q-7 -35 -7 -74q0 -132 85.5 -218.5t223.5 -86.5zM710 1060q221 0 334 -158l26 134h182l-201 -1036h-182l26 134q-173 -158 -396 -158q-131 0 -231.5 57.5
t-152.5 155.5t-52 220q0 51 11 109q28 146 120 269.5t229 198t287 74.5z" />
    <glyph glyph-name="afii10066" unicode="&#x431;" horiz-adv-x="1216" 
d="M342 778q81 77 184 122.5t212 45.5q179 0 291 -110t112 -279q0 -41 -10 -96q-41 -209 -215.5 -347t-402.5 -138q-195 0 -310.5 113t-115.5 317q0 75 16 156q46 238 116.5 398t185.5 268t272 161.5t382 70.5l-5 -163q-120 -11 -211 -29t-163.5 -48t-124 -68.5t-92 -95.5
t-68.5 -122.5t-53 -155.5zM290 575q-14 -75 -14 -133q0 -144 71 -223.5t198 -79.5q145 0 260 92.5t141 229.5q6 33 6 63q0 113 -75.5 186t-196.5 73q-107 0 -207.5 -56.5t-182.5 -151.5z" />
    <glyph glyph-name="afii10067" unicode="&#x432;" horiz-adv-x="1031" 
d="M484 0h-438l201 1036h407q127 0 207 -64t80 -164q0 -19 -5 -46q-14 -72 -69 -131t-129 -86q71 -17 115 -74.5t44 -131.5q0 -21 -5 -46q-24 -124 -142 -208.5t-266 -84.5zM346 609h213q71 0 125 38t66 97q2 10 2 23q0 50 -39 81t-102 31h-213zM258 157h247q76 0 136 43
t72 106q3 14 3 27q0 55 -42 90t-110 35h-247z" />
    <glyph glyph-name="afii10068" unicode="&#x433;" horiz-adv-x="820" 
d="M844 873h-447l-169 -873h-182l201 1036h629z" />
    <glyph glyph-name="afii10069" unicode="&#x434;" horiz-adv-x="1100" 
d="M982 160l-73 -372h-182l42 212h-638l-42 -212h-182l73 372h108q210 315 319 876h612l-170 -876h133zM282 160h388l139 716h-260q-36 -182 -107 -376t-160 -340z" />
    <glyph glyph-name="afii10070" unicode="&#x435;" horiz-adv-x="1224" 
d="M249 461q-1 -11 -1 -32q0 -129 85 -212.5t224 -83.5q189 0 357 150l102 -116q-207 -191 -484 -191q-216 0 -342.5 121.5t-126.5 311.5q0 51 11 109q45 227 232.5 384.5t421.5 157.5q199 0 318 -117.5t119 -298.5q0 -53 -10 -103q-7 -36 -25 -80h-881zM697 903
q-128 0 -244 -83t-168 -208h692v11q0 123 -77 201.5t-203 78.5z" />
    <glyph glyph-name="afii10072" unicode="&#x436;" horiz-adv-x="1564" 
d="M1246 0l-256 477h-125l-92 -477h-182l92 477h-125l-440 -477h-210l515 556l-260 480h216l211 -402h124l78 402h182l-78 -402h124l367 402h216l-446 -480l299 -556h-210z" />
    <glyph glyph-name="afii10073" unicode="&#x437;" horiz-adv-x="949" 
d="M653 307q3 14 3 26q0 64 -57 106.5t-147 42.5h-148l30 151h154q80 0 141 38.5t72 96.5q2 14 2 20q0 50 -45.5 82.5t-117.5 32.5q-70 0 -130.5 -30.5t-101.5 -86.5l-128 90q63 87 164.5 135.5t226.5 48.5q141 0 229.5 -66.5t88.5 -168.5q0 -24 -4 -44q-14 -73 -73 -133.5
t-147 -87.5q75 -22 123.5 -81t48.5 -138q0 -25 -4 -46q-26 -135 -164.5 -227t-314.5 -92q-130 0 -222.5 48.5t-136.5 134.5l145 103q77 -129 244 -129q99 0 177 50.5t92 123.5z" />
    <glyph glyph-name="afii10074" unicode="&#x438;" horiz-adv-x="1227" 
d="M1182 1036l-201 -1036h-176l151 780l-737 -780h-173l201 1036h176l-152 -780l738 780h173z" />
    <glyph glyph-name="afii10075" unicode="&#x439;" horiz-adv-x="1227" 
d="M1182 1036l-201 -1036h-176l151 780l-737 -780h-173l201 1036h176l-152 -780l738 780h173zM739 1166q-119 0 -194 72.5t-75 188.5q0 24 3 48h162q-3 -18 -3 -34q0 -62 35.5 -100.5t97.5 -38.5q70 0 125 49t73 124h162q-34 -134 -144 -221.5t-242 -87.5z" />
    <glyph glyph-name="afii10076" unicode="&#x43a;" horiz-adv-x="1029" 
d="M711 0l-260 492h-128l-95 -492h-182l201 1036h182l-75 -387h130l368 387h216l-449 -465l302 -571h-210z" />
    <glyph glyph-name="afii10077" unicode="&#x43b;" horiz-adv-x="1228" 
d="M189 299l143 737h851l-201 -1036h-182l169 873h-487l-114 -588q-25 -126 -120 -209t-217 -83q-52 0 -86 7l31 161q16 -1 53 -1q58 0 102.5 38t57.5 101z" />
    <glyph glyph-name="afii10078" unicode="&#x43c;" horiz-adv-x="1350" 
d="M415 1036l255 -546l467 546h168l-201 -1036h-176l147 757l-385 -444h-110l-211 444l-147 -757h-176l201 1036h168z" />
    <glyph glyph-name="afii10079" unicode="&#x43d;" horiz-adv-x="1227" 
d="M1182 1036l-201 -1036h-182l88 454h-571l-88 -454h-182l201 1036h182l-82 -419h571l82 419h182z" />
    <glyph glyph-name="afii10080" unicode="&#x43e;" horiz-adv-x="1268" 
d="M561 139q158 0 288 110.5t160 268.5q8 42 8 76q0 131 -85.5 217t-223.5 86q-158 0 -288 -110.5t-161 -268.5q-7 -35 -7 -74q0 -132 85.5 -218.5t223.5 -86.5zM740 1060q210 0 337 -123t127 -313q0 -55 -10 -106q-29 -148 -125 -272t-239 -197t-301 -73
q-210 0 -337.5 123.5t-127.5 313.5q0 54 10 105q29 148 125 272t239.5 197t301.5 73z" />
    <glyph glyph-name="afii10081" unicode="&#x43f;" horiz-adv-x="1227" 
d="M1182 1036l-201 -1036h-182l169 873h-571l-169 -873h-182l201 1036h935z" />
    <glyph glyph-name="afii10082" unicode="&#x440;" horiz-adv-x="1297" 
d="M590 139q158 0 288 110.5t160 268.5q8 42 8 76q0 131 -85.5 217t-223.5 86q-109 0 -210 -57t-166 -151l-67 -345q29 -93 108 -149t188 -56zM799 1060q197 0 316 -123t119 -310q0 -51 -11 -109q-28 -146 -119.5 -269.5t-228.5 -198t-287 -74.5q-222 0 -334 158l-117 -598
h-182l292 1500h182l-26 -134q175 158 396 158z" />
    <glyph glyph-name="afii10083" unicode="&#x441;" horiz-adv-x="1098" 
d="M529 -24q-210 0 -337.5 123.5t-127.5 313.5q0 54 10 105q29 148 125 272t239.5 197t301.5 73q216 0 350 -137l-123 -143q-110 117 -259 117q-158 0 -288 -110.5t-161 -268.5q-7 -35 -7 -74q0 -132 85.5 -218.5t223.5 -86.5q161 0 313 125l81 -133q-190 -155 -426 -155z
" />
    <glyph glyph-name="afii10084" unicode="&#x442;" horiz-adv-x="940" 
d="M448 873h-334l32 163h850l-32 -163h-334l-169 -873h-182z" />
    <glyph glyph-name="afii10085" unicode="&#x443;" horiz-adv-x="1050" 
d="M57 -464l275 468l-204 1032h190l152 -801l464 801h190l-877 -1500h-190z" />
    <glyph glyph-name="afii10086" unicode="&#x444;" horiz-adv-x="2120" 
d="M561 139q109 0 209.5 56t164.5 149l67 345q-28 94 -106.5 151t-187.5 57q-158 0 -288 -110.5t-161 -268.5q-7 -35 -7 -74q0 -132 85.5 -218.5t223.5 -86.5zM1077 134l-117 -598h-182l117 598q-173 -158 -396 -158q-131 0 -231.5 57.5t-152.5 155.5t-52 220q0 51 11 109
q28 146 120 269.5t229 198t287 74.5q221 0 334 -158l108 558h182l-108 -558q175 158 396 158q197 0 316 -123t119 -310q0 -51 -11 -109q-28 -146 -119.5 -269.5t-228.5 -198t-287 -74.5q-222 0 -334 158zM1413 139q158 0 288 110.5t160 268.5q8 42 8 76q0 131 -85.5 217
t-223.5 86q-109 0 -210 -57t-166 -151l-67 -345q29 -93 108 -149t188 -56z" />
    <glyph glyph-name="afii10087" unicode="&#x445;" horiz-adv-x="1046" 
d="M130 0h-203l483 529l-256 507h203l192 -384l342 384h203l-454 -507l279 -529h-203l-215 406z" />
    <glyph glyph-name="afii10088" unicode="&#x446;" horiz-adv-x="1252" 
d="M866 -280l55 280h-875l201 1036h182l-170 -873h571l170 873h182l-170 -873h122l-86 -443h-182z" />
    <glyph glyph-name="afii10089" unicode="&#x447;" horiz-adv-x="1098" 
d="M670 0l86 446q-65 -73 -149 -115.5t-176 -42.5q-138 0 -224 87.5t-86 223.5q0 36 8 81l69 356h182l-68 -347q-5 -28 -5 -50q0 -83 52 -135.5t137 -52.5q172 0 297 186l78 399h182l-201 -1036h-182z" />
    <glyph glyph-name="afii10090" unicode="&#x448;" horiz-adv-x="1576" 
d="M1531 1036l-201 -1036h-1284l201 1036h182l-170 -873h369l170 873h182l-170 -873h369l170 873h182z" />
    <glyph glyph-name="afii10091" unicode="&#x449;" horiz-adv-x="1601" 
d="M46 0l201 1036h182l-170 -873h369l170 873h182l-170 -873h369l170 873h182l-170 -873h122l-86 -443h-182l55 280h-1224z" />
    <glyph glyph-name="afii10092" unicode="&#x44a;" horiz-adv-x="1191" 
d="M655 0h-416l170 879h-294l31 157h476l-65 -334h234q140 0 227 -80.5t87 -204.5q0 -27 -7 -66q-29 -148 -156.5 -249.5t-286.5 -101.5zM916 351q3 18 3 36q0 69 -48.5 113.5t-125.5 44.5h-219l-75 -388h219q87 0 158.5 55.5t87.5 138.5z" />
    <glyph glyph-name="afii10093" unicode="&#x44b;" horiz-adv-x="1414" 
d="M462 0h-416l201 1036h182l-65 -334h234q139 0 226 -81t87 -205q0 -32 -6 -65q-29 -147 -156.5 -249t-286.5 -102zM723 351q3 18 3 36q0 69 -48.5 113.5t-125.5 44.5h-219l-75 -388h219q87 0 158.5 55.5t87.5 138.5zM986 0l201 1036h182l-201 -1036h-182z" />
    <glyph glyph-name="afii10094" unicode="&#x44c;" horiz-adv-x="998" 
d="M462 0h-416l201 1036h182l-65 -334h234q139 0 226 -81t87 -205q0 -32 -6 -65q-29 -147 -156.5 -249t-286.5 -102zM723 351q3 18 3 36q0 69 -48.5 113.5t-125.5 44.5h-219l-75 -388h219q87 0 158.5 55.5t87.5 138.5z" />
    <glyph glyph-name="afii10095" unicode="&#x44d;" horiz-adv-x="1098" 
d="M359 -24q-237 0 -366 155l133 133q102 -125 265 -125q137 0 255.5 85.5t169.5 216.5h-499l30 151h500q0 132 -85.5 218.5t-223.5 86.5q-150 0 -305 -117l-67 143q185 137 404 137q210 0 337 -123t127 -313q0 -55 -10 -106q-29 -148 -125 -272t-239 -197t-301 -73z" />
    <glyph glyph-name="afii10096" unicode="&#x44e;" horiz-adv-x="1674" 
d="M1146 1060q209 0 336.5 -123.5t127.5 -313.5q0 -54 -10 -105q-44 -226 -235 -384t-430 -158q-209 0 -337 123t-128 313v26h-157l-85 -438h-182l201 1036h182l-85 -435h158q69 198 248.5 328.5t395.5 130.5zM967 139q158 0 288 110.5t160 268.5q8 42 8 76q0 131 -85.5 217
t-223.5 86q-158 0 -288 -110.5t-161 -268.5q-7 -35 -7 -74q0 -132 85.5 -218.5t223.5 -86.5z" />
    <glyph glyph-name="afii10097" unicode="&#x44f;" horiz-adv-x="1093" 
d="M736 366h-205l-360 -366h-202l374 379q-101 26 -159.5 96.5t-58.5 166.5q0 29 6 59q28 142 158 238.5t294 96.5h465l-201 -1036h-182zM489 523h277l69 356h-277q-90 0 -160 -51t-85 -127q-3 -16 -3 -32q0 -65 49.5 -105.5t129.5 -40.5z" />
    <glyph glyph-name="uni0450" unicode="&#x450;" horiz-adv-x="1224" 
d="M249 461q-1 -11 -1 -32q0 -129 85 -212.5t224 -83.5q189 0 357 150l102 -116q-207 -191 -484 -191q-216 0 -342.5 121.5t-126.5 311.5q0 51 11 109q45 227 232.5 384.5t421.5 157.5q199 0 318 -117.5t119 -298.5q0 -53 -10 -103q-7 -36 -25 -80h-881zM697 903
q-128 0 -244 -83t-168 -208h692v11q0 123 -77 201.5t-203 78.5zM692 1523l209 -337h-180l-215 337h186z" />
    <glyph glyph-name="afii10071" unicode="&#x451;" horiz-adv-x="1224" 
d="M249 461q-1 -11 -1 -32q0 -129 85 -212.5t224 -83.5q189 0 357 150l102 -116q-207 -191 -484 -191q-216 0 -342.5 121.5t-126.5 311.5q0 51 11 109q45 227 232.5 384.5t421.5 157.5q199 0 318 -117.5t119 -298.5q0 -53 -10 -103q-7 -36 -25 -80h-881zM697 903
q-128 0 -244 -83t-168 -208h692v11q0 123 -77 201.5t-203 78.5zM480 1340q9 47 48 80t87 33q41 0 67 -25.5t26 -65.5q0 -12 -2 -22q-10 -48 -48.5 -80.5t-86.5 -32.5q-42 0 -68 25t-26 64q0 12 3 24zM838 1340q9 47 48 80t87 33q41 0 67 -25.5t26 -65.5q0 -12 -2 -22
q-10 -48 -48.5 -80.5t-86.5 -32.5q-42 0 -68 25t-26 64q0 12 3 24z" />
    <glyph glyph-name="afii10099" unicode="&#x452;" horiz-adv-x="1238" 
d="M155 1173l24 126h150l31 161h182l-31 -161h346l-24 -126h-346l-58 -296q77 80 173.5 131.5t198.5 51.5q158 0 251 -89t93 -237q0 -48 -10 -97l-144 -740q-36 -186 -144.5 -273.5t-300.5 -87.5q-48 0 -100 8l30 157q43 -5 90 -5q109 0 166.5 50t77.5 153l141 728
q6 31 6 60q0 94 -60 152t-162 58q-91 0 -182 -61t-161 -149l-133 -687h-182l228 1173h-150z" />
    <glyph glyph-name="afii10100" unicode="&#x453;" horiz-adv-x="820" 
d="M844 873h-447l-169 -873h-182l201 1036h629zM373 1186l339 337h186l-345 -337h-180z" />
    <glyph glyph-name="afii10101" unicode="&#x454;" horiz-adv-x="1098" 
d="M529 -24q-210 0 -337.5 123.5t-127.5 313.5q0 54 10 105q29 148 125 272t239.5 197t301.5 73q216 0 350 -137l-123 -143q-110 117 -259 117q-139 0 -258 -86.5t-169 -218.5h500l-30 -151h-500q2 -132 87 -217t223 -85q161 0 313 125l81 -133q-190 -155 -426 -155z" />
    <glyph glyph-name="afii10102" unicode="&#x455;" horiz-adv-x="932" 
d="M1 148l127 123q40 -63 107.5 -100.5t153.5 -37.5q98 0 163 42t79 111q3 15 3 28q0 107 -199 147q-283 56 -283 253q0 27 7 60q25 124 139 205t274 81q200 0 321 -138l-122 -124q-102 105 -217 105q-81 0 -142 -37.5t-72 -95.5q-2 -14 -2 -21q0 -49 46.5 -86.5
t137.5 -56.5q297 -61 297 -259q0 -34 -6 -64q-27 -135 -146 -221t-296 -86q-125 0 -221 46t-149 126z" />
    <glyph glyph-name="afii10103" unicode="&#x456;" horiz-adv-x="522" 
d="M70 0l201 1036h182l-201 -1036h-182zM299 1330q12 50 52 82.5t90 32.5q45 0 72 -27t27 -69q0 -14 -3 -28q-10 -47 -50.5 -81t-91.5 -34q-45 0 -72 26.5t-27 68.5q0 16 3 29z" />
    <glyph glyph-name="afii10104" unicode="&#x457;" horiz-adv-x="522" 
d="M70 0l201 1036h182l-201 -1036h-182zM129 1340q9 47 48 80t87 33q42 0 67.5 -25.5t25.5 -65.5q0 -12 -2 -22q-10 -48 -48.5 -80.5t-86.5 -32.5q-42 0 -68 25t-26 64q0 12 3 24zM487 1340q9 47 48 80t87 33q42 0 67.5 -25.5t25.5 -65.5q0 -12 -2 -22q-10 -48 -48.5 -80.5
t-86.5 -32.5q-42 0 -68 25t-26 64q0 12 3 24z" />
    <glyph glyph-name="afii10105" unicode="&#x458;" horiz-adv-x="522" 
d="M43 -137l228 1173h182l-228 -1170q-33 -173 -123 -251.5t-247 -78.5q-35 0 -77 4l31 157q17 -1 56 -1q72 0 116.5 39t61.5 128zM299 1330q12 50 52 82.5t90 32.5q45 0 72 -27t27 -69q0 -14 -3 -28q-10 -47 -50.5 -81t-91.5 -34q-45 0 -72 26.5t-27 68.5q0 16 3 29z" />
    <glyph glyph-name="afii10106" unicode="&#x459;" horiz-adv-x="1707" 
d="M972 157h214q87 0 158.5 55.5t87.5 138.5q3 18 3 36q0 69 -48.5 113.5t-125.5 44.5h-214zM189 299l143 737h811l-65 -334h229q140 0 227 -80.5t87 -204.5q0 -27 -7 -66q-29 -148 -156.5 -249.5t-286.5 -101.5h-411l169 873h-447l-114 -588q-25 -126 -120 -209t-217 -83
q-52 0 -86 7l31 161q16 -1 53 -1q58 0 102.5 38t57.5 101z" />
    <glyph glyph-name="afii10107" unicode="&#x45a;" horiz-adv-x="1706" 
d="M1170 0h-411l88 454h-531l-88 -454h-182l201 1036h182l-82 -419h531l82 419h182l-65 -334h229q139 0 226 -81t87 -205q0 -32 -6 -65q-29 -147 -156.5 -249t-286.5 -102zM1431 351q3 18 3 36q0 69 -48.5 113.5t-125.5 44.5h-214l-75 -388h214q87 0 158.5 55.5t87.5 138.5z
" />
    <glyph glyph-name="afii10108" unicode="&#x45b;" horiz-adv-x="1238" 
d="M155 1173l24 126h150l31 161h182l-31 -161h346l-24 -126h-346l-58 -296q77 80 173.5 131.5t198.5 51.5q158 0 251 -89t93 -237q0 -48 -10 -97l-123 -637h-182l121 627q6 31 6 60q0 94 -60 152t-162 58q-91 0 -182 -61t-161 -149l-133 -687h-182l228 1173h-150z" />
    <glyph glyph-name="afii10109" unicode="&#x45c;" horiz-adv-x="1029" 
d="M711 0l-260 492h-128l-95 -492h-182l201 1036h182l-75 -387h130l368 387h216l-449 -465l302 -571h-210zM466 1186l339 337h186l-345 -337h-180z" />
    <glyph glyph-name="uni045D" unicode="&#x45d;" horiz-adv-x="1227" 
d="M1182 1036l-201 -1036h-176l151 780l-737 -780h-173l201 1036h176l-152 -780l738 780h173zM681 1523l209 -337h-180l-215 337h186z" />
    <glyph glyph-name="afii10110" unicode="&#x45e;" horiz-adv-x="1050" 
d="M57 -464l275 468l-204 1032h190l152 -801l464 801h190l-877 -1500h-190zM651 1166q-119 0 -194 72.5t-75 188.5q0 24 3 48h162q-3 -18 -3 -34q0 -62 35.5 -100.5t97.5 -38.5q70 0 125 49t73 124h162q-34 -134 -144 -221.5t-242 -87.5z" />
    <glyph glyph-name="afii10193" unicode="&#x45f;" horiz-adv-x="1228" 
d="M1183 1036l-201 -1036h-377l-55 -280h-182l55 280h-377l201 1036h182l-170 -873h572l170 873h182z" />
    <glyph glyph-name="afii10050" unicode="&#x490;" horiz-adv-x="1029" 
d="M68 0l272 1400h626l54 280h188l-86 -443h-626l-240 -1237h-188z" />
    <glyph glyph-name="afii10098" unicode="&#x491;" horiz-adv-x="820" 
d="M844 873h-447l-169 -873h-182l201 1036h447l54 280h182z" />
    <glyph glyph-name="Wgrave" unicode="&#x1e80;" horiz-adv-x="1934" 
d="M1045 1400h188l105 -1125l523 1125h198l-674 -1400h-188l-109 1141l-551 -1141h-188l-130 1400h198l85 -1125zM1099 1847l209 -337h-180l-215 337h186z" />
    <glyph glyph-name="wgrave" unicode="&#x1e81;" horiz-adv-x="1560" 
d="M787 1036h188l77 -792l392 792h190l-533 -1036h-188l-79 796l-387 -796h-188l-131 1036h190l84 -792zM831 1523l209 -337h-180l-215 337h186z" />
    <glyph glyph-name="Wacute" unicode="&#x1e82;" horiz-adv-x="1934" 
d="M1045 1400h188l105 -1125l523 1125h198l-674 -1400h-188l-109 1141l-551 -1141h-188l-130 1400h198l85 -1125zM1017 1510l339 337h186l-345 -337h-180z" />
    <glyph glyph-name="wacute" unicode="&#x1e83;" horiz-adv-x="1560" 
d="M787 1036h188l77 -792l392 792h190l-533 -1036h-188l-79 796l-387 -796h-188l-131 1036h190l84 -792zM774 1186l339 337h186l-345 -337h-180z" />
    <glyph glyph-name="Wdieresis" unicode="&#x1e84;" horiz-adv-x="1934" 
d="M1045 1400h188l105 -1125l523 1125h198l-674 -1400h-188l-109 1141l-551 -1141h-188l-130 1400h198l85 -1125zM898 1664q9 47 48 80t87 33q41 0 67 -25.5t26 -65.5q0 -12 -2 -22q-10 -48 -48.5 -80.5t-86.5 -32.5q-42 0 -68 25t-26 64q0 12 3 24zM1256 1664q9 47 48 80
t87 33q41 0 67 -25.5t26 -65.5q0 -12 -2 -22q-10 -48 -48.5 -80.5t-86.5 -32.5q-42 0 -68 25t-26 64q0 12 3 24z" />
    <glyph glyph-name="wdieresis" unicode="&#x1e85;" horiz-adv-x="1560" 
d="M787 1036h188l77 -792l392 792h190l-533 -1036h-188l-79 796l-387 -796h-188l-131 1036h190l84 -792zM648 1340q9 47 48 80t87 33q41 0 67 -25.5t26 -65.5q0 -12 -2 -22q-10 -48 -48.5 -80.5t-86.5 -32.5q-42 0 -68 25t-26 64q0 12 3 24zM1006 1340q9 47 48 80t87 33
q41 0 67 -25.5t26 -65.5q0 -12 -2 -22q-10 -48 -48.5 -80.5t-86.5 -32.5q-42 0 -68 25t-26 64q0 12 3 24z" />
    <glyph glyph-name="Ygrave" unicode="&#x1ef2;" horiz-adv-x="1286" 
d="M422 1400l268 -642l518 642h203l-663 -826l-111 -574h-188l111 574l-341 826h203zM763 1847l209 -337h-180l-215 337h186z" />
    <glyph glyph-name="ygrave" unicode="&#x1ef3;" horiz-adv-x="1050" 
d="M57 -464l275 468l-204 1032h190l152 -801l464 801h190l-877 -1500h-190zM572 1523l209 -337h-180l-215 337h186z" />
    <glyph glyph-name="thinspace" unicode="&#x2009;" horiz-adv-x="400" 
 />
    <glyph glyph-name="uni2010" unicode="&#x2010;" horiz-adv-x="804" 
d="M698 578h-568l33 172h568z" />
    <glyph glyph-name="figuredash" unicode="&#x2012;" horiz-adv-x="1200" 
d="M1112 578h-1000l33 172h1000z" />
    <glyph glyph-name="endash" unicode="&#x2013;" horiz-adv-x="1000" 
d="M1012 578h-1000l33 172h1000z" />
    <glyph glyph-name="emdash" unicode="&#x2014;" horiz-adv-x="2000" 
d="M2012 578h-2000l33 172h2000z" />
    <glyph glyph-name="afii00208" unicode="&#x2015;" horiz-adv-x="2000" 
d="M1812 578h-1600l33 172h1600z" />
    <glyph glyph-name="uni2016" unicode="&#x2016;" horiz-adv-x="900" 
d="M37 -280l346 1780h167l-346 -1780h-167zM386 -280l346 1780h167l-346 -1780h-167z" />
    <glyph glyph-name="underscoredbl" unicode="&#x2017;" horiz-adv-x="1200" 
d="M-88 -450l27 140h1000l-27 -140h-1000zM-35 -178l27 140h1000l-27 -140h-1000z" />
    <glyph glyph-name="quoteleft" unicode="&#x2018;" horiz-adv-x="594" 
d="M556 1218q0 -18 -6 -38q-14 -49 -55.5 -80.5t-90.5 -31.5q-46 0 -75 28t-29 71q0 13 4 31q6 25 23 52l188 289h121l-146 -227q66 -23 66 -94z" />
    <glyph glyph-name="quoteright" unicode="&#x2019;" horiz-adv-x="594" 
d="M343 1389q0 18 6 38q14 49 55.5 80.5t90.5 31.5q46 0 75 -28t29 -71q0 -13 -4 -31q-6 -25 -23 -52l-188 -289h-121l146 227q-66 23 -66 94z" />
    <glyph glyph-name="quotesinglbase" unicode="&#x201a;" horiz-adv-x="594" 
d="M88 76q0 18 6 38q14 49 55.5 80.5t90.5 31.5q46 0 75 -28t29 -71q0 -13 -4 -31q-6 -25 -23 -52l-188 -289h-121l146 227q-66 23 -66 94z" />
    <glyph glyph-name="quotereversed" unicode="&#x201b;" horiz-adv-x="594" 
d="M596 1414q-8 -42 -38 -74.5t-71 -44.5l58 -227h-121l-76 289q-4 22 -4 34q0 13 2 23q10 53 53.5 89t96.5 36q46 0 74.5 -27.5t28.5 -71.5q0 -12 -3 -26z" />
    <glyph glyph-name="quotedblleft" unicode="&#x201c;" horiz-adv-x="920" 
d="M883 1218q0 -18 -6 -38q-14 -49 -55.5 -80.5t-90.5 -31.5q-46 0 -75 28t-29 71q0 13 4 31q6 25 23 52l188 289h121l-146 -227q66 -23 66 -94zM557 1218q0 -18 -6 -38q-14 -49 -55.5 -80.5t-90.5 -31.5q-46 0 -75 28t-29 71q0 13 4 31q6 25 23 52l188 289h121l-146 -227
q66 -23 66 -94z" />
    <glyph glyph-name="quotedblright" unicode="&#x201d;" horiz-adv-x="920" 
d="M669 1389q0 18 6 38q14 49 55.5 80.5t90.5 31.5q46 0 75 -28t29 -71q0 -13 -4 -31q-6 -25 -23 -52l-188 -289h-121l146 227q-66 23 -66 94zM343 1389q0 18 6 38q14 49 55.5 80.5t90.5 31.5q46 0 75 -28t29 -71q0 -13 -4 -31q-6 -25 -23 -52l-188 -289h-121l146 227
q-66 23 -66 94z" />
    <glyph glyph-name="quotedblbase" unicode="&#x201e;" horiz-adv-x="920" 
d="M88 76q0 18 6 38q14 49 55.5 80.5t90.5 31.5q46 0 75 -28t29 -71q0 -13 -4 -31q-6 -25 -23 -52l-188 -289h-121l146 227q-66 23 -66 94zM414 76q0 18 6 38q14 49 55.5 80.5t90.5 31.5q46 0 75 -28t29 -71q0 -13 -4 -31q-6 -25 -23 -52l-188 -289h-121l146 227
q-66 23 -66 94z" />
    <glyph glyph-name="uni201F" unicode="&#x201f;" horiz-adv-x="920" 
d="M596 1414q-8 -42 -38 -74.5t-71 -44.5l58 -227h-121l-76 289q-4 22 -4 34q0 13 2 23q10 53 53.5 89t96.5 36q46 0 74.5 -27.5t28.5 -71.5q0 -12 -3 -26zM922 1414q-8 -42 -38 -74.5t-71 -44.5l58 -227h-121l-76 289q-4 22 -4 34q0 13 2 23q10 53 53.5 89t96.5 36
q46 0 74.5 -27.5t28.5 -71.5q0 -12 -3 -26z" />
    <glyph glyph-name="dagger" unicode="&#x2020;" horiz-adv-x="1120" 
d="M315 -262l241 1240h-332l31 163h332l69 355h188l-69 -355h332l-31 -163h-332l-241 -1240h-188z" />
    <glyph glyph-name="daggerdbl" unicode="&#x2021;" horiz-adv-x="1120" 
d="M415 256l141 722h-332l31 163h332l69 355h188l-69 -355h332l-31 -163h-332l-141 -722h332l-31 -163h-332l-69 -355h-188l69 355h-332l31 163h332z" />
    <glyph glyph-name="bullet" unicode="&#x2022;" horiz-adv-x="800" 
d="M420 417q-103 0 -176 72t-73 175q0 102 73 174.5t176 72.5t176 -72.5t73 -174.5q0 -103 -73 -175t-176 -72z" />
    <glyph glyph-name="onedotenleader" unicode="&#x2024;" horiz-adv-x="594" 
d="M92 106q13 54 54.5 87t93.5 33q46 0 75 -27.5t29 -71.5q0 -13 -3 -27q-11 -52 -53.5 -88t-95.5 -36q-46 0 -75 27.5t-29 71.5q0 15 4 31z" />
    <glyph glyph-name="twodotenleader" unicode="&#x2025;" horiz-adv-x="1188" 
d="M92 106q13 54 54.5 87t93.5 33q46 0 75 -27.5t29 -71.5q0 -13 -3 -27q-11 -52 -53.5 -88t-95.5 -36q-46 0 -75 27.5t-29 71.5q0 15 4 31zM686 106q13 54 54.5 87t93.5 33q46 0 75 -27.5t29 -71.5q0 -13 -3 -27q-11 -52 -53.5 -88t-95.5 -36q-46 0 -75 27.5t-29 71.5
q0 15 4 31z" />
    <glyph glyph-name="ellipsis" unicode="&#x2026;" horiz-adv-x="1782" 
d="M92 106q13 54 54.5 87t93.5 33q46 0 75 -27.5t29 -71.5q0 -13 -3 -27q-11 -52 -53.5 -88t-95.5 -36q-46 0 -75 27.5t-29 71.5q0 15 4 31zM1280 106q13 54 55 87t93 33q46 0 75 -27.5t29 -71.5q0 -13 -3 -27q-11 -52 -53.5 -88t-95.5 -36q-46 0 -75 27.5t-29 71.5
q0 15 4 31zM686 106q13 54 54.5 87t93.5 33q46 0 75 -27.5t29 -71.5q0 -13 -3 -27q-11 -52 -53.5 -88t-95.5 -36q-46 0 -75 27.5t-29 71.5q0 15 4 31z" />
    <glyph glyph-name="perthousand" unicode="&#x2030;" horiz-adv-x="2576" 
d="M333 0l992 1400h190l-992 -1400h-190zM375 1063q-4 -19 -4 -42q0 -68 40.5 -111.5t106.5 -43.5q77 0 140 57.5t79 139.5q4 19 4 42q0 68 -40.5 111.5t-106.5 43.5q-77 0 -140 -57.5t-79 -139.5zM198 1063q19 97 81.5 177.5t154 127t190.5 46.5q132 0 214.5 -80t82.5 -203
q0 -36 -7 -68q-19 -97 -81.5 -177.5t-154 -127t-190.5 -46.5q-132 0 -214.5 80t-82.5 203q0 36 7 68zM1112 337q-4 -19 -4 -42q0 -68 40.5 -111.5t106.5 -43.5q77 0 140 57.5t79 139.5q4 19 4 42q0 68 -40.5 111.5t-106.5 43.5q-77 0 -140 -57.5t-79 -139.5zM935 337
q19 97 81.5 177.5t154 127t190.5 46.5q132 0 214.5 -80t82.5 -203q0 -36 -7 -68q-19 -97 -81.5 -177.5t-154 -127t-190.5 -46.5q-132 0 -214.5 80t-82.5 203q0 36 7 68zM1910 337q-4 -19 -4 -42q0 -68 40.5 -111.5t106.5 -43.5q77 0 140 57.5t79 139.5q4 19 4 42
q0 68 -40.5 111.5t-106.5 43.5q-77 0 -140 -57.5t-79 -139.5zM1733 337q19 97 81.5 177.5t154 127t190.5 46.5q132 0 214.5 -80t82.5 -203q0 -36 -7 -68q-19 -97 -81.5 -177.5t-154 -127t-190.5 -46.5q-132 0 -214.5 80t-82.5 203q0 36 7 68z" />
    <glyph glyph-name="minute" unicode="&#x2032;" horiz-adv-x="554" 
d="M203 1028l255 372h184l-274 -372h-165z" />
    <glyph glyph-name="second" unicode="&#x2033;" horiz-adv-x="878" 
d="M203 1028l255 372h184l-274 -372h-165zM527 1028l255 372h184l-274 -372h-165z" />
    <glyph glyph-name="guilsinglleft" unicode="&#x2039;" horiz-adv-x="781" 
d="M116 576l19 96l621 347l-33 -169l-412 -226l324 -226l-33 -169z" />
    <glyph glyph-name="guilsinglright" unicode="&#x203a;" horiz-adv-x="781" 
d="M706 672l-19 -96l-620 -347l33 169l412 226l-324 226l33 169z" />
    <glyph glyph-name="exclamdbl" unicode="&#x203c;" horiz-adv-x="1041" 
d="M191 394l196 1006h188l-196 -1006h-188zM105 105q12 50 53.5 84.5t93.5 34.5q46 0 74.5 -27.5t28.5 -70.5q0 -12 -3 -26q-11 -53 -53 -88.5t-95 -35.5q-46 0 -74.5 27t-28.5 71q0 13 4 31zM614 394l196 1006h188l-196 -1006h-188zM528 105q12 50 53.5 84.5t93.5 34.5
q46 0 74.5 -27.5t28.5 -70.5q0 -12 -3 -26q-11 -53 -53 -88.5t-95 -35.5q-46 0 -74.5 27t-28.5 71q0 13 4 31z" />
    <glyph glyph-name="uni203E" unicode="&#x203e;" horiz-adv-x="832" 
d="M262 1217l28 142h580l-28 -142h-580z" />
    <glyph glyph-name="fraction" unicode="&#x2044;" horiz-adv-x="329" 
d="M-357 0l956 1400h159l-956 -1400h-159z" />
    <glyph glyph-name="zerosuperior" unicode="&#x2070;" 
d="M139 926q28 143 85.5 253t148 177.5t199.5 67.5q128 0 192.5 -88.5t64.5 -238.5q0 -81 -18 -171q-43 -219 -156 -358.5t-276 -139.5q-129 0 -193.5 89t-64.5 240q0 79 18 169zM300 926q-18 -90 -18 -163q0 -92 30.5 -144t93.5 -52q87 0 150 97.5t94 261.5q18 92 18 165
q0 194 -123 194q-87 0 -150 -97.5t-95 -261.5z" />
    <glyph glyph-name="uni2071" unicode="&#x2071;" 
d="M303 452l131 670h159l-131 -670h-159zM450 1307q8 38 42 65.5t76 27.5q36 0 59 -22t23 -55q0 -8 -2 -18q-8 -39 -41.5 -67t-75.5 -28q-37 0 -60 22t-23 56q0 9 2 19z" />
    <glyph glyph-name="foursuperior" unicode="&#x2074;" 
d="M63 639l24 126l557 635h154l-121 -622h109l-27 -139h-109l-37 -187h-162l37 187h-425zM269 777h246l71 368z" />
    <glyph glyph-name="fivesuperior" unicode="&#x2075;" 
d="M352 428q-98 0 -170 44t-107 123l132 92q59 -126 168 -126q79 0 141.5 52.5t77.5 131.5q4 17 4 39q0 64 -42 105t-110 41q-43 0 -85 -21.5t-71 -55.5l-115 15l162 532h513l-27 -135h-367l-74 -233q53 28 119 28q115 0 189.5 -67t74.5 -179q0 -26 -7 -66
q-27 -141 -139 -230.5t-267 -89.5z" />
    <glyph glyph-name="sixsuperior" unicode="&#x2076;" 
d="M759 1400l-290 -345q21 9 48 9q117 0 194.5 -71t77.5 -184q0 -29 -6 -61q-27 -137 -146.5 -228.5t-256.5 -91.5q-124 0 -206 72t-82 187q0 29 6 61q19 94 80 166l409 486h172zM620 748q4 30 4 37q0 64 -41.5 106t-107.5 42q-74 0 -137 -54t-78 -131q-4 -17 -4 -39
q0 -65 41.5 -106.5t105.5 -41.5q76 0 138.5 54t78.5 133z" />
    <glyph glyph-name="sevensuperior" unicode="&#x2077;" 
d="M265 1400h609l-23 -118l-510 -830h-182l504 813h-425z" />
    <glyph glyph-name="eightsuperior" unicode="&#x2078;" 
d="M379 428q-126 0 -205.5 69t-79.5 177q0 27 6 56q15 78 71.5 143.5t137.5 100.5q-81 52 -81 150q0 22 4 41q21 109 118 184t222 75q111 0 178 -60t67 -152q0 -20 -5 -47q-12 -59 -53 -110t-98 -81q57 -29 88.5 -81t31.5 -115q0 -21 -5 -48q-25 -129 -139.5 -215.5
t-257.5 -86.5zM471 903q-74 0 -134 -50t-74 -121q-3 -18 -3 -34q0 -60 40 -98.5t105 -38.5q74 0 134 49.5t74 121.5q3 16 3 33q0 60 -40 99t-105 39zM496 1033q56 0 101.5 38t56.5 92q2 9 2 25q0 45 -30.5 74t-79.5 29q-56 0 -100.5 -37t-55.5 -91q-3 -13 -3 -25
q0 -45 30 -75t79 -30z" />
    <glyph glyph-name="ninesuperior" unicode="&#x2079;" 
d="M192 452l290 345q-21 -9 -48 -9q-117 0 -194.5 71t-77.5 184q0 29 6 61q27 137 146.5 228.5t256.5 91.5q124 0 206 -72t82 -187q0 -29 -6 -61q-19 -94 -80 -166l-409 -486h-172zM331 1104q-4 -20 -4 -37q0 -64 41.5 -106t107.5 -42q74 0 137 54t78 131q4 17 4 39
q0 65 -41.5 106.5t-105.5 41.5q-76 0 -138.5 -53.5t-78.5 -133.5z" />
    <glyph glyph-name="uni207A" unicode="&#x207a;" 
d="M799 857h-242v-247h-161v247h-243v139h243v246h161v-246h242v-139z" />
    <glyph glyph-name="uni207B" unicode="&#x207b;" 
d="M799 857h-646v139h646v-139z" />
    <glyph glyph-name="uni207C" unicode="&#x207c;" 
d="M799 1014h-646v139h646v-139zM799 700h-646v139h646v-139z" />
    <glyph glyph-name="uni207D" unicode="&#x207d;" 
d="M370 926q33 165 124 317t226 270l98 -77q-110 -106 -183 -237t-101 -273q-15 -78 -15 -154q0 -201 100 -356l-128 -77q-137 184 -137 428q0 73 16 159z" />
    <glyph glyph-name="uni207E" unicode="&#x207e;" 
d="M580 926q-32 -165 -123 -317t-226 -270l-98 77q227 218 283 510q15 80 15 156q0 201 -99 354l128 77q136 -183 136 -425q0 -82 -16 -162z" />
    <glyph glyph-name="uni207F" unicode="&#x207f;" 
d="M333 887l-85 -435h-158l131 670h158l-14 -68q86 82 183 82q101 0 160 -58t59 -155q0 -25 -7 -65l-79 -406h-158l79 403q3 18 3 33q0 49 -29 79.5t-77 30.5q-93 0 -166 -111z" />
    <glyph glyph-name="zeroinferior" unicode="&#x2080;" 
d="M1 212q28 143 85.5 253t148 177.5t199.5 67.5q128 0 192.5 -88.5t64.5 -238.5q0 -81 -18 -171q-43 -219 -156 -358.5t-276 -139.5q-129 0 -193.5 89t-64.5 240q0 79 18 169zM162 212q-18 -90 -18 -163q0 -92 30.5 -144t93.5 -52q87 0 150 97.5t94 261.5q18 92 18 165
q0 194 -123 194q-87 0 -150 -97.5t-95 -261.5z" />
    <glyph glyph-name="oneinferior" unicode="&#x2081;" 
d="M428 686h138l-185 -948h-162l153 783l-186 -91l-40 119z" />
    <glyph glyph-name="twoinferior" unicode="&#x2082;" 
d="M484 144l-302 -273h376l-26 -133h-591l23 118l410 371q66 60 98 107.5t42 97.5q3 17 3 32q0 51 -33.5 82t-89.5 31q-120 0 -194 -147l-130 54q49 107 141.5 166.5t208.5 59.5q118 0 190.5 -60.5t72.5 -161.5q0 -26 -6 -56q-15 -76 -60 -142.5t-133 -145.5z" />
    <glyph glyph-name="threeinferior" unicode="&#x2083;" 
d="M452 32q3 18 3 35q0 65 -42.5 106.5t-111.5 41.5q-30 0 -66 -11l-47 77l282 270h-356l27 135h556l-24 -123l-260 -244q94 -16 149 -81t55 -157q0 -30 -6 -61q-24 -122 -138 -214t-265 -92q-99 0 -170 45t-106 124l128 94q60 -130 170 -130q79 0 142.5 53.5t79.5 131.5z
" />
    <glyph glyph-name="fourinferior" unicode="&#x2084;" 
d="M-76 -75l24 126l557 635h154l-121 -622h109l-27 -139h-109l-37 -187h-162l37 187h-425zM130 63h246l71 368z" />
    <glyph glyph-name="fiveinferior" unicode="&#x2085;" 
d="M213 -286q-98 0 -170 44t-107 123l132 92q59 -126 168 -126q79 0 141.5 52.5t77.5 131.5q4 17 4 39q0 64 -42 105t-110 41q-43 0 -85 -21.5t-71 -55.5l-115 15l162 532h513l-27 -135h-367l-74 -233q53 28 119 28q115 0 189.5 -67t74.5 -179q0 -26 -7 -66
q-27 -141 -139 -230.5t-267 -89.5z" />
    <glyph glyph-name="sixinferior" unicode="&#x2086;" 
d="M620 686l-290 -345q21 9 48 9q117 0 194.5 -71t77.5 -184q0 -29 -6 -61q-27 -137 -146.5 -228.5t-256.5 -91.5q-124 0 -206 72t-82 187q0 30 6 61q19 94 80 166l409 486h172zM481 34q4 30 4 37q0 64 -41.5 106t-107.5 42q-74 0 -137 -54t-78 -131q-4 -17 -4 -39
q0 -65 41.5 -106.5t105.5 -41.5q76 0 138.5 54t78.5 133z" />
    <glyph glyph-name="seveninferior" unicode="&#x2087;" 
d="M127 686h609l-23 -118l-510 -830h-182l504 813h-425z" />
    <glyph glyph-name="eightinferior" unicode="&#x2088;" 
d="M241 -286q-126 0 -205.5 69t-79.5 177q0 28 6 56q15 78 71.5 143.5t137.5 100.5q-81 52 -81 150q0 22 4 41q21 109 118 184t222 75q111 0 178 -60t67 -152q0 -20 -5 -47q-12 -59 -53 -110t-98 -81q57 -29 88.5 -81t31.5 -115q0 -21 -5 -48q-25 -129 -139.5 -215.5
t-257.5 -86.5zM333 189q-74 0 -134 -50t-74 -121q-3 -18 -3 -34q0 -60 40 -98.5t105 -38.5q74 0 134 49.5t74 121.5q3 16 3 33q0 60 -40 99t-105 39zM358 319q56 0 101.5 38t56.5 92q2 9 2 25q0 45 -30.5 74t-79.5 29q-56 0 -100.5 -37t-55.5 -91q-3 -14 -3 -25
q0 -45 30 -75t79 -30z" />
    <glyph glyph-name="nineinferior" unicode="&#x2089;" 
d="M53 -262l290 345q-21 -9 -48 -9q-117 0 -194.5 71t-77.5 184q0 29 6 61q27 137 146.5 228.5t256.5 91.5q124 0 206 -72t82 -187q0 -29 -6 -61q-19 -94 -80 -166l-409 -486h-172zM192 390q-4 -20 -4 -37q0 -64 41.5 -106t107.5 -42q74 0 137 54t78 131q4 17 4 39
q0 65 -41.5 106.5t-105.5 41.5q-76 0 -138.5 -53.5t-78.5 -133.5z" />
    <glyph glyph-name="uni208A" unicode="&#x208a;" 
d="M659 143h-242v-247h-161v247h-243v139h243v246h161v-246h242v-139z" />
    <glyph glyph-name="uni208B" unicode="&#x208b;" 
d="M659 143h-646v139h646v-139z" />
    <glyph glyph-name="uni208C" unicode="&#x208c;" 
d="M659 300h-646v139h646v-139zM659 -14h-646v139h646v-139z" />
    <glyph glyph-name="uni208D" unicode="&#x208d;" 
d="M231 212q33 165 124 317t226 270l98 -77q-110 -106 -183 -237t-101 -273q-15 -78 -15 -154q0 -201 100 -356l-128 -77q-137 184 -137 428q0 73 16 159z" />
    <glyph glyph-name="uni208E" unicode="&#x208e;" 
d="M441 212q-32 -165 -123 -317t-226 -270l-98 77q227 218 283 510q15 80 15 156q0 201 -99 354l128 77q136 -183 136 -425q0 -82 -16 -162z" />
    <glyph glyph-name="uni2090" unicode="&#x2090;" 
d="M218 -286q-122 0 -196.5 77.5t-74.5 198.5q0 39 7 74q29 148 144 249t256 101q106 0 165 -78l12 64h160l-130 -672h-160l12 64q-88 -78 -195 -78zM445 -46l42 220q-15 47 -53 74.5t-91 27.5q-80 0 -146 -60.5t-83 -151.5q-5 -28 -5 -49q0 -72 41.5 -117.5t110.5 -45.5
q53 0 102 27.5t82 74.5z" />
    <glyph glyph-name="uni2091" unicode="&#x2091;" 
d="M632 13h-512q0 -74 43 -121t115 -47q51 0 108 28t105 74l80 -99q-139 -134 -316 -134q-135 0 -213.5 78t-78.5 200q0 37 7 72q29 147 147.5 248.5t265.5 101.5q125 0 199.5 -75t74.5 -191q0 -36 -7 -70q-7 -38 -18 -65zM357 282q-65 0 -122 -40.5t-86 -103.5h350
q-1 65 -39.5 104.5t-102.5 39.5z" />
    <glyph glyph-name="uni2092" unicode="&#x2092;" 
d="M267 -149q80 0 147 62t84 151q5 27 5 46q0 72 -42.5 119t-111.5 47q-80 0 -147 -61.5t-84 -150.5q-5 -27 -5 -47q0 -72 42.5 -119t111.5 -47zM376 414q130 0 209.5 -78.5t79.5 -200.5q0 -37 -7 -71q-29 -148 -149 -249t-269 -101q-130 0 -209.5 78.5t-79.5 200.5
q0 37 7 71q29 147 149 248.5t269 101.5z" />
    <glyph glyph-name="uni2093" unicode="&#x2093;" 
d="M90 -272h-178l305 346l-159 326h178l98 -204l176 204h178l-285 -326l171 -346h-178l-109 227z" />
    <glyph glyph-name="uni2094" unicode="&#x2094;" 
d="M-16 115h512q0 74 -43 121t-115 47q-51 0 -108 -28t-105 -74l-80 99q139 134 316 134q135 0 213.5 -78t78.5 -200q0 -37 -7 -72q-29 -147 -147.5 -248.5t-265.5 -101.5q-125 0 -199.5 75t-74.5 191q0 36 7 70q7 38 18 65zM259 -154q65 0 121.5 40t86.5 104h-350
q1 -65 39.5 -104.5t102.5 -39.5z" />
    <glyph glyph-name="uni20A0" unicode="&#x20a0;" horiz-adv-x="1558" 
d="M146 922q41 211 217 356.5t393 145.5q186 0 320 -126l-113 -133q-119 102 -237 102q-140 0 -256.5 -99.5t-144.5 -245.5q-7 -34 -7 -70q0 -119 76.5 -196t197.5 -77q127 0 246 71l62 320h607l-30 -154h-429l-49 -251h397l-30 -154h-397l-50 -257h441l-29 -154h-619
l92 475q-118 -53 -242 -53q-190 0 -308 113t-118 289q0 49 10 98z" />
    <glyph glyph-name="colonmonetary" unicode="&#x20a1;" horiz-adv-x="1368" 
d="M511 -204l70 192q-71 12 -116 30l-82 -222h-127l102 275q-121 77 -188.5 202.5t-67.5 281.5q0 70 15 145q34 178 141 330.5t263 252t335 129.5l71 192h127l-67 -180q55 0 125 -9l70 189h126l-80 -218q109 -40 197 -117l-122 -142q-72 57 -139 88l-398 -1072
q195 7 385 141l72 -141q-234 -166 -519 -166l-67 -181h-126zM308 700q-12 -58 -12 -114q0 -200 133 -325l360 969q-178 -52 -311.5 -197.5t-169.5 -332.5zM925 1256l-397 -1066q58 -28 114 -39l408 1099q-45 8 -89 8q-12 0 -36 -2z" />
    <glyph glyph-name="uni20A2" unicode="&#x20a2;" horiz-adv-x="1368" 
d="M860 570l-83 -427q191 11 374 141l72 -141q-235 -167 -511 -167q-135 0 -249 43.5t-193 120t-123 184t-44 232.5q0 74 14 144q39 201 168 367.5t316.5 261.5t391.5 95q260 0 432 -155l-122 -142q-80 64 -160 97.5t-182 33.5q-228 0 -418 -162t-235 -396q-11 -54 -11 -114
q0 -159 85.5 -274t230.5 -153l131 671h167l-20 -101q46 50 100 82.5t106 32.5q50 0 93 -23l-42 -142q-50 23 -87 23q-47 0 -101 -36.5t-100 -95.5z" />
    <glyph glyph-name="franc" unicode="&#x20a3;" horiz-adv-x="1099" 
d="M145 0l92 475h-191l21 110h191l22 110h-191l21 109h191l116 596h807l-32 -163h-619l-84 -433h346l-21 -109h-346l-22 -110h346l-21 -110h-346l-92 -475h-188z" />
    <glyph glyph-name="lira" unicode="&#x20a4;" horiz-adv-x="1150" 
d="M312 465h-242l21 110h234v17q0 53 -8 92h-205l22 110h158q-14 65 -14 129q0 55 9 99q33 169 178 285.5t325 116.5q142 0 233.5 -73t113.5 -182l-176 -84q-15 81 -66.5 127t-136.5 46q-100 0 -180 -67.5t-100 -168.5q-5 -25 -5 -62q0 -67 22 -166h364l-22 -110h-325
q6 -38 6 -80q0 -19 -1 -29h299l-21 -110h-293q-44 -181 -193 -299h661l-32 -166h-889l31 162q86 54 148.5 134.5t83.5 168.5z" />
    <glyph glyph-name="uni20A6" unicode="&#x20a6;" horiz-adv-x="1456" 
d="M1407 543h-142l-105 -543h-178l-242 543h-359l-105 -543h-179l105 543h-143l20 102h143l21 110h-143l20 102h143l106 543h178l240 -543h360l106 543h179l-106 -543h142l-20 -102h-142l-21 -110h142zM422 755l-21 -110h294l-50 110h-223zM832 755l49 -110h225l21 110h-295
zM926 543l112 -247l48 247h-160zM490 1104l-48 -247h159z" />
    <glyph glyph-name="peseta" unicode="&#x20a7;" horiz-adv-x="2368" 
d="M1436 157h425q79 0 138 40.5t72 106.5q3 15 3 29q0 53 -46.5 86.5t-149.5 62.5q-230 65 -230 239q0 28 6 58q24 121 130.5 201t254.5 80q94 0 169 -38t123 -101l-118 -130q-48 55 -93.5 83.5t-99.5 28.5q-69 0 -122 -35.5t-64 -91.5q-2 -9 -2 -24q0 -50 45 -83.5
t140 -59.5q242 -66 242 -245q0 -24 -7 -63q-25 -132 -136 -216.5t-274 -84.5h-449q-149 0 -217.5 56t-68.5 174q0 56 13 121l102 525h-167q-57 -154 -192.5 -251t-309.5 -97h-197l-102 -528h-186l272 1400h383q172 0 270 -91t98 -245q0 -18 -1 -28h163l55 283l184 17
l-58 -300h247l-31 -160h-247l-103 -527q-7 -36 -7 -69q0 -63 34 -93t109 -30zM891 964q7 34 7 68q0 95 -56 150t-158 55h-190l-106 -546h190q120 0 204.5 74.5t108.5 198.5z" />
    <glyph glyph-name="uni20A8" unicode="&#x20a8;" horiz-adv-x="1929" 
d="M526 528h-168l-102 -528h-188l272 1400h428q184 0 285 -89.5t101 -245.5q0 -51 -10 -101q-32 -167 -143 -279t-274 -144l255 -541h-207zM953 964q7 34 7 68q0 96 -59.5 150.5t-170.5 54.5h-234l-106 -546h234q130 0 217.5 73.5t111.5 199.5zM1030 148l127 127
q38 -65 102 -103.5t142 -38.5q90 0 151 42t75 111q3 13 3 28q0 105 -182 147q-269 61 -269 254q0 28 6 58q24 124 134.5 205.5t264.5 81.5q192 0 307 -139l-121 -127q-49 53 -97.5 81t-106.5 28q-75 0 -131.5 -38t-67.5 -95q-2 -16 -2 -23q0 -50 42.5 -86.5t126.5 -54.5
q282 -63 282 -259q0 -31 -6 -64q-27 -135 -142 -221t-285 -86q-120 0 -212 46t-141 126z" />
    <glyph glyph-name="uni20A9" unicode="&#x20a9;" horiz-adv-x="1980" 
d="M1946 547h-274l-264 -547h-185l-51 547h-352l-263 -547h-185l-52 547h-274l20 102h245l-11 110h-213l20 102h184l-49 539h195l39 -539h335l260 539h182l50 -539h335l249 539h195l-259 -539h184l-20 -102h-213l-53 -110h245zM922 759l-53 -110h294l-11 110h-230zM1313 759
l10 -110h217l50 110h-277zM484 759l8 -110h217l52 110h-277zM1114 1157l-143 -296h172zM1332 547l26 -287l134 287h-160zM500 547l22 -287l138 287h-160z" />
    <glyph glyph-name="afii57636" unicode="&#x20aa;" horiz-adv-x="1733" 
d="M68 0l272 1400h503q183 0 295.5 -107.5t112.5 -275.5q0 -45 -9 -93l-78 -400h-188l78 400q7 34 7 68q0 109 -68 177t-182 68h-315l-240 -1237h-188zM1737 1400l-272 -1400h-503q-183 0 -296 107.5t-113 275.5q0 45 9 93l78 400h188l-78 -400q-7 -34 -7 -68
q0 -109 68 -177t182 -68h315l241 1237h188z" />
    <glyph glyph-name="dong" unicode="&#x20ab;" horiz-adv-x="1328" 
d="M710 1060q221 0 334 -158l53 271h-346l24 126h346l31 161h182l-31 -161h150l-24 -126h-150l-228 -1173h-182l26 134q-173 -158 -396 -158q-131 0 -231.5 57.5t-152.5 155.5t-52 220q0 51 11 109q28 146 120 269.5t229 198t287 74.5zM561 139q109 0 209.5 56t164.5 149
l67 345q-28 94 -106.5 151t-187.5 57q-158 0 -288 -110.5t-161 -268.5q-7 -35 -7 -74q0 -132 85.5 -218.5t223.5 -86.5zM196 -323l27 142h705l-27 -142h-705z" />
    <glyph glyph-name="Euro" unicode="&#x20ac;" horiz-adv-x="1437" 
d="M813 142q207 0 407 142l72 -141q-235 -167 -511 -167q-261 0 -428 151t-181 390h-147l22 112h128q3 31 11 71q5 32 17 72h-128l21 112h148q108 239 333 389.5t485 150.5t432 -155l-122 -142q-80 64 -160 97.5t-182 33.5q-179 0 -340 -103.5t-249 -270.5h600l-21 -112
h-625q-12 -36 -18 -72q-9 -42 -10 -71h625l-22 -112h-600q23 -168 143 -271.5t300 -103.5z" />
    <glyph glyph-name="afii61248" unicode="&#x2105;" horiz-adv-x="2075" 
d="M532 576q-189 0 -316 123t-127 301t127 301t316 123q174 0 309 -116l-90 -133q-112 98 -219 98q-112 0 -189.5 -79t-77.5 -194t77.5 -194t189.5 -79q118 0 223 105l102 -125q-137 -131 -325 -131zM1583 126q112 0 189.5 79t77.5 194t-77.5 194t-189.5 79t-189.5 -79
t-77.5 -194t77.5 -194t189.5 -79zM1583 823q189 0 316 -123t127 -301t-127 -301t-316 -123t-316 123t-127 301t127 301t316 123zM596 0l683 1400h175l-683 -1400h-175z" />
    <glyph glyph-name="uni2109" unicode="&#x2109;" horiz-adv-x="1594" 
d="M725 0v1400h807v-163h-619v-451h568v-163h-568v-623h-188zM198 1154q0 -59 40 -99.5t100 -40.5t100 40.5t40 99.5t-40 99.5t-100 40.5t-100 -40.5t-40 -99.5zM63 1154q0 113 79.5 190t195.5 77t195.5 -77t79.5 -190t-79.5 -190t-195.5 -77t-195.5 77t-79.5 190z" />
    <glyph glyph-name="afii61289" unicode="&#x2113;" horiz-adv-x="1122" 
d="M685 -24q-165 0 -267.5 104.5t-102.5 261.5l-168 -66l-52 154l220 88v554q0 149 106.5 250.5t261.5 101.5t261.5 -101.5t106.5 -250.5v-51q0 -172 -137.5 -317t-410.5 -279v-87q0 -85 53 -142t129 -57q72 0 129 44.5t91 124.5l152 -91q-53 -112 -150 -176.5t-222 -64.5z
M863 1036v22q0 88 -51.5 145.5t-128.5 57.5t-128.5 -57.5t-51.5 -145.5v-448q184 98 272 198.5t88 227.5z" />
    <glyph glyph-name="afii61352" unicode="&#x2116;" horiz-adv-x="2203" 
d="M188 0v1400h181l582 -1044v1044h182v-1400h-181l-582 1044v-1044h-182zM2072 341h-770v157h770v-157zM1282 1042q0 161 117 271.5t288 110.5t288 -110.5t117 -271.5t-117 -271.5t-288 -110.5t-288 110.5t-117 271.5zM1461 1042q0 -96 64.5 -160.5t161.5 -64.5t161.5 64.5
t64.5 160.5t-64.5 160.5t-161.5 64.5t-161.5 -64.5t-64.5 -160.5z" />
    <glyph glyph-name="uni2117" unicode="&#x2117;" horiz-adv-x="1602" 
d="M873 586h-142v-270h-140v765h282q119 0 197.5 -69.5t78.5 -177.5t-78.5 -178t-197.5 -70zM1007 834q0 52 -38.5 84.5t-99.5 32.5h-138v-235h138q61 0 99.5 33t38.5 85zM97 700q0 149 56.5 283t153.5 231t231 153.5t283 56.5t283 -56.5t231 -153.5t153.5 -231t56.5 -283
t-56.5 -283t-153.5 -231t-231 -153.5t-283 -56.5t-283 56.5t-231 153.5t-153.5 231t-56.5 283zM207 700q0 -171 81.5 -313.5t223 -225t309.5 -82.5t309.5 82.5t223 225t81.5 313.5t-81.5 313.5t-223 225t-309.5 82.5t-309.5 -82.5t-223 -225t-81.5 -313.5z" />
    <glyph glyph-name="uni2120" unicode="&#x2120;" horiz-adv-x="1564" 
d="M92 778l89 97q43 -49 93.5 -79t94.5 -30q57 0 93.5 27.5t36.5 71.5q0 87 -149 119q-238 53 -238 220q0 92 69 150t180 58q149 0 251 -107l-82 -100q-96 89 -165 89q-47 0 -77 -23.5t-30 -60.5q0 -79 141 -112q128 -30 187 -87.5t59 -145.5q0 -96 -74.5 -156.5
t-199.5 -60.5q-79 0 -153 35t-126 95zM1138 883h-90l-182 271v-494h-142v740h130l239 -359l239 359h130v-740h-142v494z" />
    <glyph glyph-name="uni2121" unicode="&#x2121;" horiz-adv-x="2163" 
d="M996 461q11 -140 91.5 -234t193.5 -94q69 0 135.5 42t120.5 117l127 -114q-139 -202 -379 -202q-206 0 -337.5 156.5t-131.5 385.5q0 227 130.5 384.5t325.5 157.5q127 0 228.5 -70t157 -188.5t55.5 -260.5q0 -49 -7 -80h-710zM1272 903q-98 0 -174 -83.5t-96 -207.5h527
q-16 127 -87 209t-170 82zM460 0v1237h-378v163h938v-163h-378v-1237h-182zM1840 0v1460h175v-1460h-175z" />
    <glyph glyph-name="trademark" unicode="&#x2122;" horiz-adv-x="1541" 
d="M279 660v623h-198v117h541v-117h-198v-623h-145zM1115 883h-90l-182 271v-494h-142v740h130l239 -359l239 359h130v-740h-142v494z" />
    <glyph glyph-name="Omega" unicode="&#x2126;" horiz-adv-x="1588" 
d="M1325 733q0 220 -148.5 372.5t-362.5 152.5t-362.5 -152.5t-148.5 -372.5q0 -177 101 -327t294 -246v-160h-570v166h336q-174 106 -263 254.5t-89 327.5q0 139 54.5 264t148 215.5t224 143.5t275.5 53t275.5 -53t224 -143.5t148 -215.5t54.5 -264q0 -179 -89 -327.5
t-263 -254.5h336v-166h-570v160q193 96 294 246t101 327z" />
    <glyph glyph-name="estimated" unicode="&#x212e;" horiz-adv-x="1608" 
d="M410 649v-410q82 -75 188.5 -117.5t225.5 -42.5q152 0 283.5 69t217.5 190l89 -61q-102 -143 -258 -222t-332 -79q-149 0 -283 56.5t-231 153.5t-153.5 231t-56.5 283t56.5 283t153.5 231t231 153.5t283 56.5t283 -56.5t231 -153.5t153.5 -231t56.5 -283v-51h-1138z
M824 1321q-119 0 -225.5 -43t-188.5 -119v-409h828v409q-82 76 -188.5 119t-225.5 43z" />
    <glyph glyph-name="onethird" unicode="&#x2153;" horiz-adv-x="1911" 
d="M567 1400h138l-185 -948h-162l153 783l-186 -91l-40 119zM434 0l956 1400h159l-956 -1400h-159zM1622 294q3 18 3 35q0 65 -42.5 106.5t-111.5 41.5q-30 0 -66 -11l-47 77l282 270h-356l27 135h556l-24 -123l-260 -244q94 -16 149 -81t55 -157q0 -29 -6 -61
q-24 -122 -138 -214t-265 -92q-99 0 -170 45t-106 124l128 94q60 -130 170 -130q79 0 142.5 53.5t79.5 131.5z" />
    <glyph glyph-name="twothirds" unicode="&#x2154;" horiz-adv-x="1911" 
d="M623 858l-302 -273h376l-26 -133h-591l23 118l410 371q66 60 98 107.5t42 97.5q3 16 3 32q0 51 -33.5 82t-89.5 31q-120 0 -194 -147l-130 54q49 107 141.5 166.5t208.5 59.5q118 0 190.5 -60.5t72.5 -161.5q0 -26 -6 -56q-15 -76 -60 -142.5t-133 -145.5zM434 0
l956 1400h159l-956 -1400h-159zM1622 294q3 18 3 35q0 65 -42.5 106.5t-111.5 41.5q-30 0 -66 -11l-47 77l282 270h-356l27 135h556l-24 -123l-260 -244q94 -16 149 -81t55 -157q0 -29 -6 -61q-24 -122 -138 -214t-265 -92q-99 0 -170 45t-106 124l128 94q60 -130 170 -130
q79 0 142.5 53.5t79.5 131.5z" />
    <glyph glyph-name="onefifth" unicode="&#x2155;" horiz-adv-x="1911" 
d="M567 1400h138l-185 -948h-162l153 783l-186 -91l-40 119zM434 0l956 1400h159l-956 -1400h-159zM1383 -26q-98 0 -170 44t-107 123l132 92q59 -126 168 -126q79 0 141.5 52.5t77.5 131.5q4 17 4 39q0 64 -42 105t-110 41q-43 0 -85 -21.5t-71 -55.5l-115 15l162 532h513
l-27 -135h-367l-74 -233q53 28 119 28q115 0 189.5 -67t74.5 -179q0 -26 -7 -66q-27 -141 -139 -230.5t-267 -89.5z" />
    <glyph glyph-name="twofifths" unicode="&#x2156;" horiz-adv-x="1911" 
d="M623 858l-302 -273h376l-26 -133h-591l23 118l410 371q66 60 98 107.5t42 97.5q3 16 3 32q0 51 -33.5 82t-89.5 31q-120 0 -194 -147l-130 54q49 107 141.5 166.5t208.5 59.5q118 0 190.5 -60.5t72.5 -161.5q0 -26 -6 -56q-15 -76 -60 -142.5t-133 -145.5zM434 0
l956 1400h159l-956 -1400h-159zM1383 -26q-98 0 -170 44t-107 123l132 92q59 -126 168 -126q79 0 141.5 52.5t77.5 131.5q4 17 4 39q0 64 -42 105t-110 41q-43 0 -85 -21.5t-71 -55.5l-115 15l162 532h513l-27 -135h-367l-74 -233q53 28 119 28q115 0 189.5 -67t74.5 -179
q0 -26 -7 -66q-27 -141 -139 -230.5t-267 -89.5z" />
    <glyph glyph-name="threefifths" unicode="&#x2157;" horiz-adv-x="1911" 
d="M591 746q3 18 3 35q0 65 -42.5 106.5t-111.5 41.5q-30 0 -66 -11l-47 77l282 270h-356l27 135h556l-24 -123l-260 -244q94 -16 149 -81t55 -157q0 -29 -6 -61q-24 -122 -138 -214t-265 -92q-99 0 -170 45t-106 124l128 94q60 -130 170 -130q79 0 142.5 53.5t79.5 131.5z
M434 0l956 1400h159l-956 -1400h-159zM1383 -26q-98 0 -170 44t-107 123l132 92q59 -126 168 -126q79 0 141.5 52.5t77.5 131.5q4 17 4 39q0 64 -42 105t-110 41q-43 0 -85 -21.5t-71 -55.5l-115 15l162 532h513l-27 -135h-367l-74 -233q53 28 119 28q115 0 189.5 -67
t74.5 -179q0 -26 -7 -66q-27 -141 -139 -230.5t-267 -89.5z" />
    <glyph glyph-name="fourfifths" unicode="&#x2158;" horiz-adv-x="1911" 
d="M63 639l24 126l557 635h154l-121 -622h109l-27 -139h-109l-37 -187h-162l37 187h-425zM269 777h246l71 368zM434 0l956 1400h159l-956 -1400h-159zM1383 -26q-98 0 -170 44t-107 123l132 92q59 -126 168 -126q79 0 141.5 52.5t77.5 131.5q4 17 4 39q0 64 -42 105t-110 41
q-43 0 -85 -21.5t-71 -55.5l-115 15l162 532h513l-27 -135h-367l-74 -233q53 28 119 28q115 0 189.5 -67t74.5 -179q0 -26 -7 -66q-27 -141 -139 -230.5t-267 -89.5z" />
    <glyph glyph-name="onesixth" unicode="&#x2159;" horiz-adv-x="1911" 
d="M567 1400h138l-185 -948h-162l153 783l-186 -91l-40 119zM434 0l956 1400h159l-956 -1400h-159zM1789 948l-290 -345q21 9 48 9q117 0 194.5 -71t77.5 -184q0 -29 -6 -61q-27 -137 -146.5 -228.5t-256.5 -91.5q-124 0 -206 72t-82 187q0 29 6 61q19 94 80 166l409 486
h172zM1650 296q4 30 4 37q0 64 -41.5 106t-107.5 42q-74 0 -137 -54t-78 -131q-4 -17 -4 -39q0 -65 41.5 -106.5t105.5 -41.5q76 0 138.5 54t78.5 133z" />
    <glyph glyph-name="fivesixths" unicode="&#x215a;" horiz-adv-x="1911" 
d="M352 428q-98 0 -170 44t-107 123l132 92q59 -126 168 -126q79 0 141.5 52.5t77.5 131.5q4 17 4 39q0 64 -42 105t-110 41q-43 0 -85 -21.5t-71 -55.5l-115 15l162 532h513l-27 -135h-367l-74 -233q53 28 119 28q115 0 189.5 -67t74.5 -179q0 -26 -7 -66
q-27 -141 -139 -230.5t-267 -89.5zM434 0l956 1400h159l-956 -1400h-159zM1789 948l-290 -345q21 9 48 9q117 0 194.5 -71t77.5 -184q0 -29 -6 -61q-27 -137 -146.5 -228.5t-256.5 -91.5q-124 0 -206 72t-82 187q0 29 6 61q19 94 80 166l409 486h172zM1650 296q4 30 4 37
q0 64 -41.5 106t-107.5 42q-74 0 -137 -54t-78 -131q-4 -17 -4 -39q0 -65 41.5 -106.5t105.5 -41.5q76 0 138.5 54t78.5 133z" />
    <glyph glyph-name="oneeighth" unicode="&#x215b;" horiz-adv-x="1911" 
d="M567 1400h138l-185 -948h-162l153 783l-186 -91l-40 119zM434 0l956 1400h159l-956 -1400h-159zM1410 -26q-126 0 -205.5 69t-79.5 177q0 28 6 56q15 78 71.5 143.5t137.5 100.5q-81 52 -81 150q0 22 4 41q21 109 118 184t222 75q111 0 178 -60t67 -152q0 -20 -5 -47
q-12 -59 -53 -110t-98 -81q57 -29 88.5 -81t31.5 -115q0 -21 -5 -48q-25 -129 -139.5 -215.5t-257.5 -86.5zM1502 449q-74 0 -134 -50t-74 -121q-3 -18 -3 -34q0 -60 40 -98.5t105 -38.5q74 0 134 49.5t74 121.5q3 16 3 33q0 60 -40 99t-105 39zM1527 579q56 0 101.5 38
t56.5 92q2 9 2 25q0 45 -30.5 74t-79.5 29q-56 0 -100.5 -37t-55.5 -91q-3 -14 -3 -25q0 -45 30 -75t79 -30z" />
    <glyph glyph-name="threeeighths" unicode="&#x215c;" horiz-adv-x="1911" 
d="M591 746q3 18 3 35q0 65 -42.5 106.5t-111.5 41.5q-30 0 -66 -11l-47 77l282 270h-356l27 135h556l-24 -123l-260 -244q94 -16 149 -81t55 -157q0 -29 -6 -61q-24 -122 -138 -214t-265 -92q-99 0 -170 45t-106 124l128 94q60 -130 170 -130q79 0 142.5 53.5t79.5 131.5z
M434 0l956 1400h159l-956 -1400h-159zM1410 -26q-126 0 -205.5 69t-79.5 177q0 28 6 56q15 78 71.5 143.5t137.5 100.5q-81 52 -81 150q0 22 4 41q21 109 118 184t222 75q111 0 178 -60t67 -152q0 -20 -5 -47q-12 -59 -53 -110t-98 -81q57 -29 88.5 -81t31.5 -115
q0 -21 -5 -48q-25 -129 -139.5 -215.5t-257.5 -86.5zM1502 449q-74 0 -134 -50t-74 -121q-3 -18 -3 -34q0 -60 40 -98.5t105 -38.5q74 0 134 49.5t74 121.5q3 16 3 33q0 60 -40 99t-105 39zM1527 579q56 0 101.5 38t56.5 92q2 9 2 25q0 45 -30.5 74t-79.5 29
q-56 0 -100.5 -37t-55.5 -91q-3 -14 -3 -25q0 -45 30 -75t79 -30z" />
    </font>
</defs>
</svg>
