<?xml version="1.0" standalone="no"?>
<!DOCTYPE svg PUBLIC "-//W3C//DTD SVG 1.1//EN" "http://www.w3.org/Graphics/SVG/1.1/DTD/svg11.dtd" >
<svg>
<metadata>
Created by FontForge 20090622 at Fri Jun 29 08:18:56 2018
 By deploy user
Copyright (c) 2016 by S-Core Co., Ltd.. All rights reserved.
</metadata>
<defs>
<font id="CoreSansC-75ExtraBoldIt" horiz-adv-x="810" >
  <font-face 
    font-family="Core Sans C 75 ExtraBold"
    font-weight="800"
    font-style="italic"
    font-stretch="normal"
    units-per-em="2000"
    panose-1="2 11 6 3 3 3 2 2 2 4"
    ascent="1600"
    descent="-400"
    x-height="1036"
    cap-height="1400"
    bbox="-876 -520 2487 1950"
    underline-thickness="48"
    underline-position="-366"
    unicode-range="U+0009-U+FB04"
  />
<missing-glyph horiz-adv-x="1000" 
d="M920 0h-800v1500h800v-1500zM380 247h280v1006h-280v-1006z" />
    <glyph glyph-name="ff" unicode="ff" horiz-adv-x="1512" 
d="M1651 1448l-47 -242q-34 6 -94 6q-133 0 -156 -120l-11 -56h228l-54 -278h-228l-238 -1222h-322l238 1222h-410l-238 -1222h-322l238 1222h-146l54 278h146l12 61q34 176 163.5 269.5t338.5 93.5q91 0 167 -19l-83 -246q-58 17 -114 17q-128 0 -151 -120l-11 -56h410
l12 61q34 176 161.5 269.5t330.5 93.5q75 0 126 -12z" />
    <glyph glyph-name="fi" unicode="fi" horiz-adv-x="1369" 
d="M289 1036l12 61q34 176 162.5 269.5t334.5 93.5q84 0 141 -12l-47 -242q-42 6 -109 6q-72 0 -111 -30t-50 -90l-11 -56h732l-201 -1036h-322l147 758h-410l-238 -1222h-322l238 1222h-146l54 278h146zM1051 1307q13 73 76.5 124t141.5 51q68 0 110.5 -39.5t42.5 -101.5
q0 -19 -3 -34q-15 -74 -77.5 -124.5t-140.5 -50.5q-68 0 -111 39t-43 101q0 13 4 35z" />
    <glyph glyph-name="fl" unicode="fl" horiz-adv-x="1348" 
d="M919 1448l-47 -242q-34 6 -94 6q-133 0 -156 -120l-11 -56h228l-54 -278h-228l-238 -1222h-322l238 1222h-146l54 278h146l12 61q34 176 161.5 269.5t330.5 93.5q75 0 126 -12zM799 0l283 1460h322l-283 -1460h-322z" />
    <glyph glyph-name="ffi" unicode="ffi" horiz-adv-x="2101" 
d="M622 1092l-11 -56h410l12 61q34 176 162.5 269.5t334.5 93.5q84 0 141 -12l-47 -242q-42 6 -109 6q-72 0 -111 -30t-50 -90l-11 -56h732l-201 -1036h-322l147 758h-410l-238 -1222h-322l238 1222h-410l-238 -1222h-322l238 1222h-146l54 278h146l12 61
q34 176 163.5 269.5t338.5 93.5q91 0 167 -19l-83 -246q-58 17 -114 17q-128 0 -151 -120zM1783 1307q13 73 76.5 124t141.5 51q68 0 110.5 -39.5t42.5 -101.5q0 -19 -3 -34q-15 -74 -77.5 -124.5t-140.5 -50.5q-68 0 -111 39t-43 101q0 13 4 35z" />
    <glyph glyph-name="ffl" unicode="ffl" horiz-adv-x="2080" 
d="M1651 1448l-47 -242q-34 6 -94 6q-133 0 -156 -120l-11 -56h228l-54 -278h-228l-238 -1222h-322l238 1222h-410l-238 -1222h-322l238 1222h-146l54 278h146l12 61q34 176 163.5 269.5t338.5 93.5q91 0 167 -19l-83 -246q-58 17 -114 17q-128 0 -151 -120l-11 -56h410
l12 61q34 176 161.5 269.5t330.5 93.5q75 0 126 -12zM1531 0l283 1460h322l-283 -1460h-322z" />
    <glyph glyph-name=".notdef" horiz-adv-x="1000" 
d="M920 0h-800v1500h800v-1500zM380 247h280v1006h-280v-1006z" />
    <glyph glyph-name=".null" horiz-adv-x="0" 
 />
    <glyph glyph-name=".null" horiz-adv-x="0" 
 />
    <glyph glyph-name="nonmarkingreturn" horiz-adv-x="666" 
 />
    <glyph glyph-name="CR" unicode="&#x9;" horiz-adv-x="0" 
 />
    <glyph glyph-name="space" unicode=" " horiz-adv-x="606" 
 />
    <glyph glyph-name="exclam" unicode="!" horiz-adv-x="630" 
d="M133 434l188 966h332l-188 -966h-332zM47 159q14 77 82 130t152 53q74 0 119.5 -41.5t45.5 -106.5q0 -18 -3 -35q-14 -77 -81.5 -130t-151.5 -53q-74 0 -120 42t-46 107q0 16 3 34z" />
    <glyph glyph-name="quotedbl" unicode="&#x22;" horiz-adv-x="992" 
d="M202 834l110 566h308l-110 -566h-308zM606 834l110 566h308l-110 -566h-308z" />
    <glyph glyph-name="numbersign" unicode="#" horiz-adv-x="1394" 
d="M584 0l109 300h-212l-109 -300h-302l109 300h-159l48 250h202l107 292h-178l49 250h221l113 308h302l-113 -308h212l113 308h302l-113 -308h159l-49 -250h-202l-107 -292h178l-48 -250h-221l-109 -300h-302zM679 842l-107 -292h212l107 292h-212z" />
    <glyph glyph-name="dollar" unicode="$" horiz-adv-x="1200" 
d="M964 1604l-38 -198q167 -40 278 -160l-213 -230q-129 134 -264 134q-66 0 -117.5 -34t-61.5 -85q-3 -13 -3 -27q0 -51 48 -87.5t160 -63.5q370 -90 370 -355q0 -40 -9 -85q-31 -160 -155.5 -274.5t-307.5 -148.5l-38 -194h-280l37 192q-228 43 -348 212l222 222
q58 -77 140 -122.5t174 -45.5q81 0 143.5 40t75.5 103q3 15 3 29q0 54 -51.5 94t-176.5 68q-169 38 -260 125t-91 216q0 33 8 76q30 153 150 264.5t288 143.5l37 191h280z" />
    <glyph glyph-name="percent" unicode="%" horiz-adv-x="1844" 
d="M333 0l994 1400h256l-992 -1400h-258zM1227 347q-3 -14 -3 -26q0 -42 27 -69.5t72 -27.5q52 0 93 36t51 87q3 13 3 26q0 42 -27 69.5t-72 27.5q-52 0 -93 -36t-51 -87zM966 347q29 152 159 256.5t292 104.5q142 0 230 -82.5t88 -209.5q0 -35 -7 -69q-29 -152 -159 -256.5
t-292 -104.5q-142 0 -230 82.5t-88 209.5q0 35 7 69zM448 1053q-3 -13 -3 -26q0 -42 27 -69.5t72 -27.5q52 0 93 36t51 87q3 13 3 26q0 42 -27 69.5t-72 27.5q-52 0 -93 -36t-51 -87zM187 1053q29 152 159 256.5t292 104.5q142 0 230 -82.5t88 -209.5q0 -35 -7 -69
q-29 -152 -159 -256.5t-292 -104.5q-142 0 -230 82.5t-88 209.5q0 35 7 69z" />
    <glyph glyph-name="ampersand" unicode="&#x26;" horiz-adv-x="1495" 
d="M1171 1160l-301 -117q-12 69 -40 101t-78 32q-47 0 -85 -30t-46 -73q-3 -13 -3 -27q0 -85 125 -232l235 -279q59 95 96 213l288 -42q-67 -221 -203 -390l266 -316h-399l-94 110q-202 -134 -430 -134q-196 0 -317 92.5t-121 237.5q0 31 6 64q47 241 317 401
q-84 123 -84 226q0 33 8 73q30 151 171 252.5t317 101.5q152 0 249 -70.5t123 -193.5zM551 230q115 0 220 73l-234 277q-130 -84 -149 -189q-3 -15 -3 -30q0 -58 44.5 -94.5t121.5 -36.5z" />
    <glyph glyph-name="quotesingle" unicode="'" horiz-adv-x="608" 
d="M202 834l110 566h328l-110 -566h-328z" />
    <glyph glyph-name="parenleft" unicode="(" horiz-adv-x="870" 
d="M221 610q52 268 201 513.5t365 421.5l192 -152q-164 -158 -274 -361t-152 -422q-24 -126 -24 -248q0 -308 146 -535l-252 -152q-110 133 -168.5 307.5t-58.5 370.5q0 129 25 257z" />
    <glyph glyph-name="parenright" unicode=")" horiz-adv-x="870" 
d="M685 610q-52 -268 -201 -513.5t-365 -421.5l-192 152q164 159 274.5 361.5t152.5 421.5q24 126 24 249q0 305 -147 534l252 152q110 -133 168.5 -307.5t58.5 -370.5q0 -129 -25 -257z" />
    <glyph glyph-name="asterisk" unicode="*" horiz-adv-x="1132" 
d="M125 774l132 235l211 -140l-18 252h272l-18 -252l211 140l132 -235l-229 -110l229 -110l-132 -235l-211 139l18 -251h-272l18 251l-211 -139l-132 235l229 110z" />
    <glyph glyph-name="plus" unicode="+" horiz-adv-x="1172" 
d="M448 200v323h-312v282h312v323h316v-323h312v-282h-312v-323h-316z" />
    <glyph glyph-name="comma" unicode="," horiz-adv-x="606" 
d="M43 160q15 78 79.5 131t146.5 53q71 0 115 -41t44 -106q0 -22 -3 -37q-9 -42 -37 -86l-215 -324h-206l157 241q-40 17 -62.5 51.5t-22.5 79.5q0 17 4 38z" />
    <glyph glyph-name="hyphen" unicode="-" horiz-adv-x="844" 
d="M728 518h-612l57 292h612z" />
    <glyph glyph-name="period" unicode="." horiz-adv-x="606" 
d="M43 160q16 79 80 131.5t146 52.5q72 0 116 -41.5t44 -106.5q0 -16 -4 -36q-16 -78 -80.5 -131t-146.5 -53q-71 0 -115 41t-44 105q0 18 4 38z" />
    <glyph glyph-name="slash" unicode="/" horiz-adv-x="990" 
d="M1191 1500l-1028 -1780h-327l1031 1780h324z" />
    <glyph glyph-name="zero" unicode="0" horiz-adv-x="1212" 
d="M138 700q41 211 128 372.5t221 256.5t295 95q191 0 290 -130t99 -354q0 -115 -25 -240q-41 -211 -129 -372.5t-222 -256.5t-294 -95q-192 0 -290 129.5t-98 352.5q0 116 25 242zM458 700q-25 -124 -25 -220q0 -209 125 -209q92 0 160 113t108 316q25 130 25 218
q0 211 -126 211q-92 0 -160 -113t-107 -316z" />
    <glyph glyph-name="one" unicode="1" horiz-adv-x="1212" 
d="M723 1400h290l-272 -1400h-330l212 1092l-243 -119l-79 221z" />
    <glyph glyph-name="two" unicode="2" horiz-adv-x="1212" 
d="M917 614l-366 -330h468l-55 -284h-886l51 264l564 509q71 64 106 113t45 102q3 15 3 28q0 52 -34 86t-90 34q-120 0 -204 -149l-264 97q67 151 208.5 245.5t320.5 94.5t289.5 -89.5t110.5 -237.5q0 -34 -8 -77q-22 -112 -85 -208.5t-174 -197.5z" />
    <glyph glyph-name="three" unicode="3" horiz-adv-x="1212" 
d="M493 259q86 0 154.5 57.5t84.5 139.5q4 17 4 38q0 69 -46 114t-121 45q-36 0 -70 -13l-95 158l350 322h-464l55 280h836l-54 -275l-321 -281q125 -32 193 -120t68 -213q0 -45 -9 -93q-23 -117 -107 -217.5t-216 -162.5t-281 -62t-259.5 62.5t-160.5 175.5l236 191
q75 -146 223 -146z" />
    <glyph glyph-name="four" unicode="4" horiz-adv-x="1212" 
d="M16 245l52 269l761 886h306l-170 -874h150l-55 -281h-150l-47 -245h-320l47 245h-574zM358 525h287l84 434z" />
    <glyph glyph-name="five" unicode="5" horiz-adv-x="1212" 
d="M473 -24q-152 0 -265 60t-168 171l248 195q73 -142 216 -142q89 0 158.5 57t86.5 142q4 19 4 40q0 70 -46.5 114.5t-122.5 44.5q-45 0 -89 -18.5t-73 -48.5l-231 31l243 778h777l-55 -280h-478l-74 -234q53 15 111 15q163 0 268 -100t105 -258q0 -43 -9 -90
q-41 -208 -209 -342.5t-397 -134.5z" />
    <glyph glyph-name="six" unicode="6" horiz-adv-x="1212" 
d="M1133 1400l-414 -489q81 -5 152 -30t127.5 -68.5t89.5 -112t33 -152.5q0 -44 -9 -93q-26 -135 -118.5 -246t-222 -172t-268.5 -61q-190 0 -313 109t-123 281q0 42 9 89q27 141 118 247l591 698h348zM794 457q4 20 4 43q0 71 -45.5 116.5t-118.5 45.5q-84 0 -153.5 -59
t-86.5 -146q-4 -19 -4 -42q0 -72 45.5 -117.5t118.5 -45.5q84 0 154 59t86 146z" />
    <glyph glyph-name="seven" unicode="7" horiz-adv-x="1212" 
d="M328 1400h912l-50 -256l-692 -1144h-350l682 1114h-558z" />
    <glyph glyph-name="eight" unicode="8" horiz-adv-x="1212" 
d="M396 433q-4 -17 -4 -39q0 -67 45 -109.5t116 -42.5q81 0 147.5 54.5t83.5 136.5q4 17 4 38q0 68 -45 110.5t-116 42.5q-82 0 -148.5 -54.5t-82.5 -136.5zM1152 1031q-16 -85 -74 -158.5t-137 -112.5q78 -35 119.5 -106t41.5 -160q0 -39 -7 -74q-37 -189 -208 -316.5
t-386 -127.5q-191 0 -310.5 102t-119.5 262q0 37 8 80q22 111 98.5 204t187.5 136q-52 32 -81.5 88t-29.5 124q0 29 6 59q33 166 181.5 279.5t340.5 113.5q170 0 273.5 -91t103.5 -232q0 -36 -7 -70zM558 1021q-3 -13 -3 -27q0 -50 33.5 -83t87.5 -33q62 0 112 42t62 101
q3 13 3 27q0 49 -33.5 81.5t-88.5 32.5q-62 0 -111.5 -40.5t-61.5 -100.5z" />
    <glyph glyph-name="nine" unicode="9" horiz-adv-x="1212" 
d="M151 0l414 489q-81 5 -152.5 30t-128 68.5t-89.5 112t-33 152.5q0 44 9 93q26 135 118.5 246t222 172t268.5 61q190 0 313 -109t123 -281q0 -43 -9 -89q-27 -141 -118 -247l-590 -698h-348zM489 943q-4 -20 -4 -43q0 -71 45.5 -116.5t118.5 -45.5q84 0 153.5 59t86.5 146
q4 20 4 43q0 71 -45.5 116.5t-118.5 45.5q-84 0 -153.5 -59t-86.5 -146z" />
    <glyph glyph-name="colon" unicode=":" horiz-adv-x="606" 
d="M43 160q16 79 80 131.5t146 52.5q72 0 116 -41.5t44 -106.5q0 -16 -4 -36q-16 -78 -80.5 -131t-146.5 -53q-71 0 -115 41t-44 105q0 18 4 38zM182 876q16 79 80 131.5t146 52.5q72 0 116 -41.5t44 -106.5q0 -16 -4 -36q-16 -78 -80.5 -131t-146.5 -53q-71 0 -115 41
t-44 105q0 18 4 38z" />
    <glyph glyph-name="semicolon" unicode=";" horiz-adv-x="606" 
d="M182 876q16 79 80 131.5t146 52.5q72 0 116 -41.5t44 -106.5q0 -16 -4 -36q-16 -78 -80.5 -131t-146.5 -53q-71 0 -115 41t-44 105q0 18 4 38zM43 160q15 78 79.5 131t146.5 53q71 0 115 -41t44 -106q0 -22 -3 -37q-9 -42 -37 -86l-215 -324h-206l157 241
q-40 17 -62.5 51.5t-22.5 79.5q0 17 4 38z" />
    <glyph glyph-name="less" unicode="&#x3c;" horiz-adv-x="1171" 
d="M134 565v198l911 500v-345l-506 -254l506 -255v-344z" />
    <glyph glyph-name="equal" unicode="=" horiz-adv-x="1172" 
d="M1076 758h-940v278h940v-278zM1076 292h-940v278h940v-278z" />
    <glyph glyph-name="greater" unicode="&#x3e;" horiz-adv-x="1171" 
d="M1077 763v-198l-911 -500v344l506 255l-506 254v345z" />
    <glyph glyph-name="question" unicode="?" horiz-adv-x="1115" 
d="M306 434l70 362q171 0 274 55t119 143q2 11 2 23q0 53 -47 86t-126 33q-132 0 -287 -110l-101 244q107 73 229.5 113.5t242.5 40.5q195 0 311.5 -99.5t116.5 -251.5q0 -40 -7 -75q-28 -142 -145 -254t-290 -153l-30 -157h-332zM220 159q14 77 82 130t152 53
q74 0 119.5 -41.5t45.5 -106.5q0 -18 -3 -35q-14 -77 -81.5 -130t-151.5 -53q-74 0 -120 42t-46 107q0 16 3 34z" />
    <glyph glyph-name="at" unicode="@" horiz-adv-x="1946" 
d="M929 337q56 0 105.5 29t80.5 76l38 192q-13 47 -51.5 76t-94.5 29q-79 0 -144 -57t-82 -144q-5 -27 -5 -45q0 -70 42.5 -113t110.5 -43zM1200 876l15 78h270l-111 -572q4 -27 26 -42.5t51 -15.5q70 0 134.5 73t88.5 196q11 58 11 110q0 225 -163.5 377t-413.5 152
q-187 0 -361 -90t-295.5 -247t-158.5 -345q-13 -66 -13 -135q0 -240 161 -393.5t428 -153.5q261 0 503 148l53 -174q-290 -166 -593 -166q-174 0 -319.5 52.5t-245.5 145t-155.5 222.5t-55.5 283q0 80 17 171q48 244 207.5 445t388.5 315t476 114q171 0 314.5 -52.5
t241.5 -144t152.5 -217t54.5 -269.5q0 -75 -15 -153q-42 -217 -188 -351.5t-332 -134.5q-82 0 -149.5 38t-95.5 99q-58 -64 -139.5 -100.5t-166.5 -36.5q-147 0 -235.5 95.5t-88.5 244.5q0 44 10 96q36 182 173 309t303 127q134 0 216 -98z" />
    <glyph glyph-name="A" unicode="A" horiz-adv-x="1390" 
d="M685 1400h364l214 -1400h-346l-35 292h-462l-147 -292h-346zM857 552l-58 500l-252 -500h310z" />
    <glyph glyph-name="B" unicode="B" horiz-adv-x="1258" 
d="M653 0h-606l272 1400h542q169 0 263.5 -80t94.5 -217q0 -43 -8 -82q-19 -100 -81 -174.5t-148 -108.5q86 -24 136.5 -91.5t50.5 -163.5q0 -38 -7 -74q-35 -179 -176.5 -294t-332.5 -115zM893 989q4 17 4 37q0 52 -31.5 80t-84.5 28h-192l-56 -290h192q63 0 109 38.5
t59 106.5zM838 427q4 19 4 40q0 56 -33.5 88.5t-89.5 32.5h-236l-63 -322h236q66 0 117 44.5t65 116.5z" />
    <glyph glyph-name="C" unicode="C" horiz-adv-x="1399" 
d="M725 -24q-280 0 -454.5 164t-174.5 419q0 72 14 141q30 151 114.5 285.5t203 230.5t269.5 152t309 56q280 0 458 -167l-216 -244q-132 123 -298 123q-179 0 -325 -125.5t-181 -310.5q-9 -48 -9 -93q0 -151 95.5 -247t250.5 -96q91 0 184.5 37t174.5 98l128 -242
q-247 -181 -543 -181z" />
    <glyph glyph-name="D" unicode="D" horiz-adv-x="1445" 
d="M319 1400h522q272 0 427.5 -144t155.5 -392q0 -76 -17 -164q-41 -209 -159 -368t-294 -245.5t-385 -86.5h-522zM434 288h170q179 0 304.5 106.5t164.5 305.5q12 61 12 113q0 146 -84.5 222.5t-235.5 76.5h-170z" />
    <glyph glyph-name="E" unicode="E" horiz-adv-x="1152" 
d="M47 0l272 1400h892l-55 -280h-560l-54 -278h512l-53 -276h-512l-56 -286h578l-54 -280h-910z" />
    <glyph glyph-name="F" unicode="F" horiz-adv-x="1084" 
d="M47 0l272 1400h872l-56 -284h-540l-58 -300h492l-55 -284h-492l-103 -532h-332z" />
    <glyph glyph-name="G" unicode="G" horiz-adv-x="1466" 
d="M950 1136q-181 0 -326 -126t-181 -315q-9 -48 -9 -93q0 -152 95.5 -250t249.5 -98q103 0 191 47l46 235h-274l49 254h606l-122 -627q-119 -89 -261 -138t-289 -49q-280 0 -454.5 164t-174.5 419q0 72 14 141q30 151 114.5 285.5t203 230.5t269.5 152t309 56
q280 0 458 -167l-216 -244q-132 123 -298 123z" />
    <glyph glyph-name="H" unicode="H" horiz-adv-x="1422" 
d="M47 0l272 1400h332l-108 -553h464l108 553h332l-272 -1400h-332l109 561h-464l-109 -561h-332z" />
    <glyph glyph-name="I" unicode="I" horiz-adv-x="636" 
d="M324 1400h332l-272 -1400h-332z" />
    <glyph glyph-name="J" unicode="J" horiz-adv-x="937" 
d="M460 466l182 934h332l-186 -954q-44 -228 -188.5 -349t-366.5 -121q-85 0 -164 19.5t-133 53.5l140 270q79 -55 169 -55q84 0 140 51t75 151z" />
    <glyph glyph-name="K" unicode="K" horiz-adv-x="1263" 
d="M651 1400l-107 -548h74l414 548h358l-525 -687l328 -713h-362l-258 566h-84l-110 -566h-332l272 1400h332z" />
    <glyph glyph-name="L" unicode="L" horiz-adv-x="1047" 
d="M47 0l272 1400h332l-217 -1114h538l-55 -286h-870z" />
    <glyph glyph-name="M" unicode="M" horiz-adv-x="1726" 
d="M956 408h-228l-193 520l-180 -928h-308l272 1400h360l233 -632l479 632h360l-272 -1400h-308l180 928z" />
    <glyph glyph-name="N" unicode="N" horiz-adv-x="1422" 
d="M47 0l272 1400h348l298 -892l174 892h308l-272 -1400h-348l-299 892l-173 -892h-308z" />
    <glyph glyph-name="O" unicode="O" horiz-adv-x="1660" 
d="M444 700q-9 -48 -9 -93q0 -151 95.5 -247t250.5 -96q179 0 324.5 125t182.5 311q9 47 9 91q0 152 -96 248.5t-251 96.5q-179 0 -324.5 -125t-181.5 -311zM110 700q39 201 170 367t323 261.5t403 95.5q281 0 455.5 -164t174.5 -420q0 -65 -14 -140q-39 -201 -170.5 -367
t-323.5 -261.5t-403 -95.5q-280 0 -454.5 164t-174.5 419q0 72 14 141z" />
    <glyph glyph-name="P" unicode="P" horiz-adv-x="1214" 
d="M655 468h-186l-90 -468h-332l272 1400h518q191 0 302 -100.5t111 -266.5q0 -50 -10 -99q-40 -205 -202.5 -335.5t-382.5 -130.5zM912 934q5 30 5 50q0 71 -43.5 111.5t-124.5 40.5h-150l-78 -404h150q94 0 159 55t82 147z" />
    <glyph glyph-name="Q" unicode="Q" horiz-adv-x="1660" 
d="M110 700q39 201 170 367t323 261.5t403 95.5q281 0 455.5 -164t174.5 -420q0 -65 -14 -140q-52 -267 -263 -467l145 -209l-266 -196l-156 223q-173 -75 -357 -75q-280 0 -454.5 164t-174.5 419q0 72 14 141zM444 700q-9 -48 -9 -93q0 -151 95.5 -247t250.5 -96
q71 0 140 21l-125 181l267 195l126 -182q76 101 99 221q9 47 9 91q0 152 -96 248.5t-251 96.5q-179 0 -324.5 -125t-181.5 -311z" />
    <glyph glyph-name="R" unicode="R" horiz-adv-x="1241" 
d="M319 1400h518q191 0 303 -97t112 -261q0 -49 -10 -98q-28 -147 -122.5 -255t-235.5 -157l212 -532h-360l-184 488h-83l-94 -488h-328zM751 1136h-156l-77 -398h156q93 0 157 55.5t82 143.5q5 28 5 48q0 70 -43.5 110.5t-123.5 40.5z" />
    <glyph glyph-name="S" unicode="S" horiz-adv-x="1200" 
d="M22 200l222 222q58 -77 140 -122.5t174 -45.5q81 0 143.5 40t75.5 103q3 15 3 29q0 54 -51.5 94t-176.5 68q-169 38 -260 125t-91 216q0 33 8 76q35 181 192 300t365 119q137 0 249.5 -47t188.5 -131l-213 -230q-129 134 -264 134q-66 0 -117.5 -34t-61.5 -85
q-3 -13 -3 -27q0 -51 48 -87.5t160 -63.5q370 -90 370 -355q0 -40 -9 -85q-37 -191 -204 -314t-405 -123q-157 0 -282.5 59t-200.5 165z" />
    <glyph glyph-name="T" unicode="T" horiz-adv-x="1118" 
d="M293 0l216 1114h-343l56 286h1018l-56 -286h-343l-216 -1114h-332z" />
    <glyph glyph-name="U" unicode="U" horiz-adv-x="1346" 
d="M1383 1400l-182 -934q-42 -212 -224 -350t-409 -138q-200 0 -326 109t-126 285q0 46 9 94l182 934h332l-182 -932q-4 -20 -4 -43q0 -72 47 -115.5t124 -43.5q88 0 158 56.5t87 145.5l182 932h332z" />
    <glyph glyph-name="V" unicode="V" horiz-adv-x="1390" 
d="M543 1400l126 -1017l522 1017h344l-758 -1400h-364l-214 1400h344z" />
    <glyph glyph-name="W" unicode="W" horiz-adv-x="1984" 
d="M998 1400h332l50 -954l406 954h343l-650 -1400h-337l-66 951l-434 -951h-337l-106 1400h343l34 -954z" />
    <glyph glyph-name="X" unicode="X" horiz-adv-x="1302" 
d="M1182 0h-361l-175 490l-365 -490h-361l561 717l-266 683h361l158 -456l336 456h361l-532 -683z" />
    <glyph glyph-name="Y" unicode="Y" horiz-adv-x="1316" 
d="M558 1400l167 -536l377 536h359l-630 -846l-107 -554h-332l107 554l-300 846h359z" />
    <glyph glyph-name="Z" unicode="Z" horiz-adv-x="1226" 
d="M57 266l774 848h-579l56 286h974l-52 -266l-774 -848h629l-55 -286h-1024z" />
    <glyph glyph-name="bracketleft" unicode="[" horiz-adv-x="870" 
d="M42 -280l346 1780h638l-56 -286h-306l-234 -1208h306l-56 -286h-638z" />
    <glyph glyph-name="backslash" unicode="\" horiz-adv-x="990" 
d="M517 -280l-336 1780h324l340 -1780h-328z" />
    <glyph glyph-name="bracketright" unicode="]" horiz-adv-x="870" 
d="M864 1500l-346 -1780h-637l55 286h306l234 1208h-306l56 286h638z" />
    <glyph glyph-name="asciicircum" unicode="^" horiz-adv-x="1252" 
d="M496 1400h300l400 -622h-344l-206 332l-206 -332h-344z" />
    <glyph glyph-name="underscore" unicode="_" horiz-adv-x="1000" 
d="M-178 -406l52 272h999l-52 -272h-999z" />
    <glyph glyph-name="grave" unicode="`" horiz-adv-x="860" 
d="M605 1460l183 -342h-302l-205 342h324z" />
    <glyph glyph-name="a" unicode="a" horiz-adv-x="1319" 
d="M591 258q79 0 149.5 39.5t114.5 105.5l44 229q-18 66 -73.5 106t-133.5 40q-111 0 -200.5 -74.5t-111.5 -185.5q-5 -30 -5 -52q0 -92 59.5 -150t156.5 -58zM777 0l18 96q-150 -120 -335 -120t-297.5 120.5t-112.5 306.5q0 60 11 115q45 227 220.5 384.5t389.5 157.5
q89 0 164 -31.5t124 -88.5l19 96h316l-201 -1036h-316z" />
    <glyph glyph-name="b" unicode="b" horiz-adv-x="1319" 
d="M628 258q112 0 201 75t110 185q5 22 5 54q0 91 -59 148.5t-156 57.5q-78 0 -149.5 -40t-115.5 -106l-44 -229q18 -66 73.5 -105.5t134.5 -39.5zM360 96l-18 -96h-316l283 1460h316l-101 -520q71 57 159 88.5t177 31.5q185 0 297.5 -119.5t112.5 -305.5q0 -57 -12 -117
q-44 -227 -219.5 -384.5t-389.5 -157.5q-89 0 -164.5 31.5t-124.5 88.5z" />
    <glyph glyph-name="c" unicode="c" horiz-adv-x="1119" 
d="M536 -24q-217 0 -351 123.5t-134 315.5q0 53 10 103q22 112 86 212.5t155 173t207 114.5t238 42q235 0 372 -145l-198 -233q-102 96 -225 96q-111 0 -200.5 -74.5t-111.5 -185.5q-5 -30 -5 -52q0 -92 59.5 -150t156.5 -58q128 0 272 106l130 -217q-203 -171 -461 -171z
" />
    <glyph glyph-name="d" unicode="d" horiz-adv-x="1319" 
d="M591 258q79 0 149.5 39.5t114.5 105.5l44 229q-18 66 -73.5 106t-133.5 40q-111 0 -200.5 -74.5t-111.5 -185.5q-5 -30 -5 -52q0 -92 59.5 -150t156.5 -58zM777 0l18 96q-150 -120 -335 -120t-297.5 120.5t-112.5 306.5q0 60 11 115q45 227 220.5 384.5t389.5 157.5
q89 0 164 -31.5t124 -88.5l101 520h316l-283 -1460h-316z" />
    <glyph glyph-name="e" unicode="e" horiz-adv-x="1238" 
d="M367 429v-9q0 -94 60 -148t164 -54q151 0 304 123l139 -177q-209 -188 -494 -188q-224 0 -357 122t-133 314q0 49 11 106q29 150 127.5 274.5t243 196t303.5 71.5q206 0 330.5 -119t124.5 -304q0 -52 -10 -102q-12 -60 -35 -106h-778zM684 818q-88 0 -160.5 -49.5
t-112.5 -136.5h461q-2 87 -51 136.5t-137 49.5z" />
    <glyph glyph-name="f" unicode="f" horiz-adv-x="780" 
d="M919 1448l-47 -242q-34 6 -94 6q-133 0 -156 -120l-11 -56h228l-54 -278h-228l-238 -1222h-322l238 1222h-146l54 278h146l12 61q34 176 161.5 269.5t330.5 93.5q75 0 126 -12z" />
    <glyph glyph-name="g" unicode="g" horiz-adv-x="1319" 
d="M591 258q79 0 149.5 39.5t114.5 105.5l44 229q-18 66 -73.5 106t-133.5 40q-112 0 -200.5 -74.5t-111.5 -185.5q-5 -25 -5 -52q0 -92 59.5 -150t156.5 -58zM785 46l13 64q-148 -120 -335 -120q-186 0 -299.5 116.5t-113.5 298.5q0 58 11 113q45 227 220.5 384.5
t389.5 157.5q89 0 164 -31.5t124 -88.5l19 96h316l-189 -970q-46 -236 -225.5 -383t-433.5 -147q-148 0 -270.5 49t-196.5 138l208 216q107 -129 290 -129q120 0 203 63.5t105 172.5z" />
    <glyph glyph-name="h" unicode="h" horiz-adv-x="1232" 
d="M476 661l-128 -661h-322l283 1460h322l-103 -531q58 60 138 95.5t160 35.5q153 0 244 -88t91 -233q0 -43 -9 -90l-126 -649h-322l117 606q4 17 4 37q0 58 -37.5 96.5t-105.5 38.5q-54 0 -111 -34t-95 -83z" />
    <glyph glyph-name="i" unicode="i" horiz-adv-x="576" 
d="M27 0l201 1036h322l-201 -1036h-322zM258 1307q13 73 76.5 124t141.5 51q68 0 110.5 -39.5t42.5 -101.5q0 -19 -3 -34q-15 -74 -77.5 -124.5t-140.5 -50.5q-68 0 -111 39t-43 101q0 13 4 35z" />
    <glyph glyph-name="j" unicode="j" horiz-adv-x="576" 
d="M13 -72l215 1108h322l-222 -1140q-34 -174 -148.5 -267t-290.5 -93q-62 0 -113 11l52 267h55q54 0 86 27t44 87zM258 1307q13 73 76.5 124t141.5 51q68 0 110.5 -39.5t42.5 -101.5q0 -19 -3 -34q-15 -74 -77.5 -124.5t-140.5 -50.5q-68 0 -111 39t-43 101q0 13 4 35z" />
    <glyph glyph-name="k" unicode="k" horiz-adv-x="1106" 
d="M648 0l-144 428h-73l-83 -428h-322l283 1460h322l-147 -756h78l249 332h352l-370 -472l205 -564h-350z" />
    <glyph glyph-name="l" unicode="l" horiz-adv-x="576" 
d="M27 0l283 1460h322l-283 -1460h-322z" />
    <glyph glyph-name="m" unicode="m" horiz-adv-x="1878" 
d="M227 1036h322l-21 -107q124 127 291 127q106 0 182 -44.5t114 -125.5q68 78 166 126t198 48q150 0 239 -87.5t89 -230.5q0 -43 -9 -91l-126 -651h-322l117 607q4 17 4 38q0 57 -34.5 95t-96.5 38q-53 0 -108 -34t-96 -87q-11 -64 -16 -88l-110 -569h-322l117 607
q4 19 4 41q0 59 -35 94.5t-96 35.5q-53 0 -107 -33.5t-95 -85.5l-128 -659h-322z" />
    <glyph glyph-name="n" unicode="n" horiz-adv-x="1232" 
d="M476 661l-128 -661h-322l201 1036h322l-21 -107q58 60 138 95.5t160 35.5q153 0 244 -88t91 -233q0 -43 -9 -90l-126 -649h-322l117 606q4 17 4 37q0 58 -37.5 96.5t-105.5 38.5q-54 0 -111 -34t-95 -83z" />
    <glyph glyph-name="o" unicode="o" horiz-adv-x="1282" 
d="M61 518q22 112 86 212.5t155 173t207 114.5t238 42q217 0 350.5 -123.5t133.5 -315.5q0 -53 -10 -103q-30 -150 -129 -274.5t-246 -196t-310 -71.5q-217 0 -351 123.5t-134 315.5q0 53 10 103zM380 518q-5 -22 -5 -52q0 -92 59.5 -150t156.5 -58q112 0 200.5 74.5
t110.5 185.5q5 22 5 54q0 91 -59 148.5t-156 57.5q-111 0 -200.5 -74.5t-111.5 -185.5z" />
    <glyph glyph-name="p" unicode="p" horiz-adv-x="1319" 
d="M628 258q112 0 201 75t110 185q5 22 5 54q0 91 -59 148.5t-156 57.5q-78 0 -149.5 -40t-115.5 -106l-44 -229q18 -66 73.5 -105.5t134.5 -39.5zM360 96l-109 -560h-316l292 1500h316l-19 -96q71 57 159 88.5t177 31.5q185 0 297.5 -119.5t112.5 -305.5q0 -57 -12 -117
q-44 -227 -219.5 -384.5t-389.5 -157.5q-89 0 -164.5 31.5t-124.5 88.5z" />
    <glyph glyph-name="q" unicode="q" horiz-adv-x="1319" 
d="M591 258q79 0 149.5 39.5t114.5 105.5l44 229q-18 66 -73.5 106t-133.5 40q-111 0 -200.5 -74.5t-111.5 -185.5q-5 -30 -5 -52q0 -92 59.5 -150t156.5 -58zM686 -464l109 560q-150 -120 -335 -120t-297.5 120.5t-112.5 306.5q0 60 11 115q45 227 220.5 384.5t389.5 157.5
q89 0 164 -31.5t124 -88.5l19 96h316l-292 -1500h-316z" />
    <glyph glyph-name="r" unicode="r" horiz-adv-x="840" 
d="M710 778q-65 0 -128 -38.5t-111 -104.5l-123 -635h-322l201 1036h322l-24 -122q56 66 129 106t150 40q53 0 89 -24l-75 -280q-54 22 -108 22z" />
    <glyph glyph-name="s" unicode="s" horiz-adv-x="953" 
d="M-17 148l184 190q38 -54 100 -86t136 -32q57 0 94 21t47 57q3 10 3 21q0 32 -32.5 54t-107.5 38q-135 30 -205.5 99.5t-70.5 172.5q0 31 7 66q27 136 151 223.5t294 87.5q104 0 194.5 -38.5t155.5 -103.5l-179 -190q-90 88 -189 88q-44 0 -75 -17t-41 -47q-3 -9 -3 -21
q0 -65 126 -92q290 -62 290 -271q0 -33 -7 -67q-27 -141 -158.5 -233t-314.5 -92q-131 0 -236.5 45.5t-162.5 126.5z" />
    <glyph glyph-name="t" unicode="t" horiz-adv-x="802" 
d="M561 758l-75 -383q-4 -21 -4 -37q0 -84 114 -84q64 0 107 6l-51 -263q-71 -21 -181 -21q-156 0 -239.5 71t-83.5 202q0 38 10 93l81 416h-150l54 278h150l53 272l327 28l-58 -300h227l-54 -278h-227z" />
    <glyph glyph-name="u" unicode="u" horiz-adv-x="1232" 
d="M684 0l20 107q-59 -60 -138 -95.5t-159 -35.5q-153 0 -244 87.5t-91 232.5q0 43 9 91l126 649h322l-118 -606q-3 -18 -3 -36q0 -59 37 -97.5t106 -38.5q54 0 111 34t94 83l129 661h322l-201 -1036h-322z" />
    <glyph glyph-name="v" unicode="v" horiz-adv-x="1092" 
d="M839 1036h336l-551 -1036h-356l-149 1036h336l62 -670z" />
    <glyph glyph-name="w" unicode="w" horiz-adv-x="1612" 
d="M749 1036h316l25 -648l279 648h326l-505 -1036h-331l-36 604l-270 -604h-331l-103 1036h326l27 -648z" />
    <glyph glyph-name="x" unicode="x" horiz-adv-x="1092" 
d="M974 0h-344l-121 329l-247 -329h-344l419 528l-192 508h344l98 -309l218 309h344l-390 -508z" />
    <glyph glyph-name="y" unicode="y" horiz-adv-x="1092" 
d="M347 -464h-337l278 464l-169 1036h336l69 -627l315 627h336z" />
    <glyph glyph-name="z" unicode="z" horiz-adv-x="1032" 
d="M-19 0l47 246l552 514h-426l54 276h820l-48 -246l-552 -514h472l-53 -276h-866z" />
    <glyph glyph-name="braceleft" unicode="{" horiz-adv-x="870" 
d="M108 467l56 286q85 0 142 45t73 125l47 243q28 142 149.5 238t277.5 96h173l-56 -286h-82q-53 0 -93 -32.5t-50 -83.5l-49 -253q-18 -92 -75.5 -152t-149.5 -83q139 -38 139 -176q0 -28 -6 -59l-49 -253q-2 -10 -2 -24q0 -42 27.5 -67t73.5 -25h82l-56 -286h-173
q-137 0 -220 75.5t-83 193.5q0 32 6 65l47 243q4 20 4 42q0 61 -40 94.5t-113 33.5z" />
    <glyph glyph-name="bar" unicode="|" horiz-adv-x="664" 
d="M196 -280v1780h312v-1780h-312z" />
    <glyph glyph-name="braceright" unicode="}" horiz-adv-x="870" 
d="M798 753l-56 -286q-85 0 -142 -45t-73 -125l-47 -243q-28 -142 -149.5 -238t-277.5 -96h-172l55 286h82q53 0 93 32.5t50 83.5l49 253q18 92 75.5 152t149.5 83q-139 38 -139 176q0 27 6 59l49 253q2 10 2 24q0 42 -27.5 67t-73.5 25h-82l56 286h173q137 0 220 -75.5
t83 -193.5q0 -32 -6 -65l-47 -243q-4 -20 -4 -42q0 -61 40 -94.5t113 -33.5z" />
    <glyph glyph-name="asciitilde" unicode="~" horiz-adv-x="1172" 
d="M830 424q-128 0 -236 90q-32 27 -49 40t-42 25.5t-45 12.5q-66 0 -87 -125l-301 58q25 175 104.5 268t207.5 93q130 0 236 -90q32 -27 49 -40t42 -25.5t45 -12.5q67 0 86 124l302 -58q-26 -174 -105 -267t-207 -93z" />
    <glyph glyph-name="uni00A0" unicode="&#xa0;" horiz-adv-x="606" 
 />
    <glyph glyph-name="exclamdown" unicode="&#xa1;" horiz-adv-x="630" 
d="M-22 -364l188 966h332l-188 -966h-332zM187 877q14 77 82 130t152 53q74 0 119.5 -41.5t45.5 -106.5q0 -19 -3 -35q-14 -77 -81.5 -130t-151.5 -53q-74 0 -120 42t-46 107q0 16 3 34z" />
    <glyph glyph-name="cent" unicode="&#xa2;" horiz-adv-x="1119" 
d="M400 -184l33 169q-175 28 -278.5 146t-103.5 285q0 52 10 102q40 203 202 351.5t377 181.5l33 169h202l-33 -167q170 -26 277 -138l-198 -233q-63 59 -135 82l-95 -491q89 26 176 91l130 -217q-161 -136 -363 -164l-32 -167h-202zM384 518q-5 -22 -5 -53q0 -63 29 -111.5
t82 -73.5l92 475q-76 -30 -129 -93.5t-69 -143.5z" />
    <glyph glyph-name="sterling" unicode="&#xa3;" horiz-adv-x="1171" 
d="M298 536h-168l42 220h115q-26 110 -26 177q0 43 9 89q33 169 186.5 285.5t345.5 116.5q149 0 249 -72.5t126 -183.5l-305 -148q-25 116 -126 116q-52 0 -93 -36.5t-52 -92.5q-5 -28 -5 -52q0 -50 27 -176q4 -18 5 -23h301l-42 -220h-256q-39 -161 -170 -248h570l-55 -288
h-944l53 274q85 37 141 107.5t72 154.5z" />
    <glyph glyph-name="currency" unicode="&#xa4;" horiz-adv-x="1278" 
d="M179 652q0 122 64 225l-171 173l181 176l179 -179q106 52 227 52t228 -52l178 179l181 -176l-171 -173q64 -103 64 -225q0 -123 -64 -226l171 -172l-181 -176l-179 178q-105 -51 -227 -51q-123 0 -227 51l-179 -178l-181 176l171 172q-64 103 -64 226zM473 652
q0 -81 53.5 -136t132.5 -55t132.5 55t53.5 136t-53.5 136t-132.5 55t-132.5 -55t-53.5 -136z" />
    <glyph glyph-name="yen" unicode="&#xa5;" horiz-adv-x="1316" 
d="M558 1400l166 -541l378 541h359l-496 -659h237l-32 -160h-326l-11 -16l-12 -64h334l-31 -160h-334l-66 -341h-332l66 341h-334l31 160h334l12 64l-6 16h-325l32 160h235l-238 659h359z" />
    <glyph glyph-name="brokenbar" unicode="&#xa6;" horiz-adv-x="664" 
d="M196 700v800h312v-800h-312zM196 -280v800h312v-800h-312z" />
    <glyph glyph-name="section" unicode="&#xa7;" horiz-adv-x="1028" 
d="M986 535q-16 -89 -76.5 -161t-153.5 -117q59 -67 59 -164q0 -29 -6 -62q-27 -140 -161 -235.5t-304 -95.5q-147 0 -242 73.5t-100 194.5l277 62q2 -44 31.5 -68.5t79.5 -24.5q52 0 91.5 27.5t47.5 69.5q2 10 2 18q0 52 -52 76l-237 116q-93 46 -141 119t-48 161
q0 31 6 64q16 89 76 161.5t153 116.5q-58 68 -58 164q0 25 7 62q27 141 160.5 236.5t303.5 95.5q146 0 241.5 -74t99.5 -195l-276 -62q-3 44 -32.5 69t-78.5 25q-52 0 -91.5 -27.5t-47.5 -68.5q-2 -10 -2 -18q0 -51 51 -77l238 -116q93 -46 141.5 -119t48.5 -161
q0 -26 -7 -65zM626 677l-116 56q-63 -5 -111.5 -46t-59.5 -99q-3 -14 -3 -28q0 -74 83 -114l114 -56q65 5 113.5 45.5t59.5 99.5q3 15 3 27q0 75 -83 115z" />
    <glyph glyph-name="dieresis" unicode="&#xa8;" horiz-adv-x="860" 
d="M217 1292q13 67 69 113.5t124 46.5q60 0 97 -36.5t37 -92.5q0 -15 -3 -31q-13 -68 -68.5 -114t-124.5 -46q-60 0 -97 36t-37 92q0 16 3 32zM621 1292q13 67 69 113.5t124 46.5q60 0 97 -36.5t37 -92.5q0 -15 -3 -31q-13 -68 -68.5 -114t-124.5 -46q-60 0 -97 36t-37 92
q0 16 3 32z" />
    <glyph glyph-name="copyright" unicode="&#xa9;" horiz-adv-x="1608" 
d="M860 300q-178 0 -299 115t-121 283t121 283t299 115q154 0 279 -99l-104 -176q-88 73 -175 73q-79 0 -132.5 -56.5t-53.5 -139.5q0 -84 53.5 -140.5t132.5 -56.5q92 0 181 81l108 -176q-123 -106 -289 -106zM100 700q0 149 56.5 283t153.5 231t231 153.5t283 56.5
t283 -56.5t231 -153.5t153.5 -231t56.5 -283t-56.5 -283t-153.5 -231t-231 -153.5t-283 -56.5t-283 56.5t-231 153.5t-153.5 231t-56.5 283zM232 700q0 -165 78.5 -303t214.5 -217.5t299 -79.5t299 79.5t214.5 217.5t78.5 303t-78.5 303t-214.5 217.5t-299 79.5t-299 -79.5
t-214.5 -217.5t-78.5 -303z" />
    <glyph glyph-name="ordfeminine" unicode="&#xaa;" horiz-adv-x="929" 
d="M529 878q47 0 87.5 22.5t65.5 58.5l30 154q-12 35 -43.5 58t-77.5 23q-67 0 -121 -45.5t-67 -112.5q-3 -16 -3 -33q0 -55 35.5 -90t93.5 -35zM626 672l12 62q-83 -78 -204 -78q-129 0 -208.5 83t-79.5 214q0 44 8 83q31 161 154 270.5t274 109.5q120 0 174 -78l12 62h249
l-142 -728h-249z" />
    <glyph glyph-name="guillemotleft" unicode="&#xab;" horiz-adv-x="1297" 
d="M91 548l29 151l653 357l-51 -259l-332 -173l265 -174l-50 -259zM616 548l29 151l653 357l-51 -259l-332 -173l265 -174l-50 -259z" />
    <glyph glyph-name="logicalnot" unicode="&#xac;" horiz-adv-x="1172" 
d="M760 220v303h-624v282h940v-585h-316z" />
    <glyph glyph-name="uni00AD" unicode="&#xad;" horiz-adv-x="844" 
d="M728 518h-612l57 292h612z" />
    <glyph glyph-name="registered" unicode="&#xae;" horiz-adv-x="1608" 
d="M100 700q0 149 56.5 283t153.5 231t231 153.5t283 56.5t283 -56.5t231 -153.5t153.5 -231t56.5 -283t-56.5 -283t-153.5 -231t-231 -153.5t-283 -56.5t-283 56.5t-231 153.5t-153.5 231t-56.5 283zM232 700q0 -165 78.5 -303t214.5 -217.5t299 -79.5t299 79.5
t214.5 217.5t78.5 303t-78.5 303t-214.5 217.5t-299 79.5t-299 -79.5t-214.5 -217.5t-78.5 -303zM562 1084h304q120 0 198.5 -72.5t78.5 -183.5q0 -72 -36 -130t-98 -89l157 -295h-229l-132 259h-34v-259h-209v770zM771 732h72q40 0 66 25t26 64q0 38 -26 63t-66 25h-72
v-177z" />
    <glyph glyph-name="macron" unicode="&#xaf;" horiz-adv-x="860" 
d="M237 1170l46 236h640l-46 -236h-640z" />
    <glyph glyph-name="degree" unicode="&#xb0;" horiz-adv-x="808" 
d="M124 1139q0 120 86.5 202.5t213.5 82.5t213.5 -82.5t86.5 -202.5t-86.5 -202.5t-213.5 -82.5t-213.5 82.5t-86.5 202.5zM330 1139q0 -41 26.5 -67.5t67.5 -26.5q40 0 67 26.5t27 67.5q0 40 -27 67t-67 27q-41 0 -67.5 -27t-26.5 -67z" />
    <glyph glyph-name="plusminus" unicode="&#xb1;" horiz-adv-x="1172" 
d="M448 350v303h-312v272h312v303h316v-303h312v-272h-312v-303h-316zM1076 0h-940v272h940v-272z" />
    <glyph glyph-name="twosuperior" unicode="&#xb2;" 
d="M668 865l-222 -199h297l-42 -214h-625l38 192l380 343q82 73 94 135q2 14 2 19q0 30 -18 48t-49 18q-68 0 -122 -104l-208 73q48 113 148.5 180.5t227.5 67.5q126 0 203.5 -62t77.5 -166q0 -30 -5 -54q-28 -143 -177 -277z" />
    <glyph glyph-name="threesuperior" unicode="&#xb3;" 
d="M525 760q2 9 2 25q0 41 -26 67t-68 26q-28 0 -54 -13l-75 122l220 201h-295l42 212h591l-39 -198l-202 -178q79 -26 121.5 -85.5t42.5 -140.5q0 -26 -7 -64q-24 -125 -144 -215.5t-277 -90.5q-105 0 -183.5 46t-112.5 127l185 149q54 -109 141 -109q49 0 88.5 34.5
t49.5 84.5z" />
    <glyph glyph-name="acute" unicode="&#xb4;" horiz-adv-x="860" 
d="M306 1118l316 342h323l-337 -342h-302z" />
    <glyph glyph-name="mu" unicode="&#xb5;" horiz-adv-x="1252" 
d="M-65 -464l292 1500h322l-125 -643q1 -63 38 -99t97 -36q58 0 120 41t102 102l124 635h322l-201 -1036h-322l22 115q-50 -62 -114.5 -100.5t-125.5 -38.5q-43 0 -77.5 19t-51.5 52l-100 -511h-322z" />
    <glyph glyph-name="paragraph" unicode="&#xb6;" horiz-adv-x="1183" 
d="M569 536h-50q-188 0 -316 124.5t-128 307.5t128 307.5t316 124.5h538v-1662h-198v1464h-92v-1464h-198v798z" />
    <glyph glyph-name="periodcentered" unicode="&#xb7;" horiz-adv-x="606" 
d="M138 653q16 79 80 131.5t146 52.5q72 0 116 -41.5t44 -106.5q0 -16 -4 -36q-16 -78 -80.5 -131t-146.5 -53q-71 0 -115 41t-44 105q0 18 4 38z" />
    <glyph glyph-name="cedilla" unicode="&#xb8;" horiz-adv-x="860" 
d="M302 -300q1 4 1 12q0 24 -21 38t-57 14q-39 0 -63 -4l-43 59l132 181h222l-95 -109q68 -19 106.5 -62t38.5 -100q0 -17 -3 -33q-18 -92 -115 -154t-224 -62q-132 0 -203 64l111 129q42 -37 111 -37q40 0 68.5 17.5t33.5 46.5z" />
    <glyph glyph-name="onesuperior" unicode="&#xb9;" 
d="M542 1400h218l-185 -948h-257l137 705l-152 -76l-59 174z" />
    <glyph glyph-name="ordmasculine" unicode="&#xba;" horiz-adv-x="929" 
d="M159 1036q31 159 170.5 269.5t309.5 110.5q150 0 245 -88t95 -222q0 -36 -7 -70q-31 -159 -171 -269.5t-310 -110.5q-150 0 -244.5 87.5t-94.5 222.5q0 36 7 70zM410 1036q-4 -22 -4 -34q0 -55 35.5 -89.5t92.5 -34.5q67 0 120 45t67 113q3 16 3 33q0 55 -35 90t-93 35
q-67 0 -120.5 -45.5t-65.5 -112.5z" />
    <glyph glyph-name="guillemotright" unicode="&#xbb;" horiz-adv-x="1297" 
d="M1247 699l-29 -151l-652 -357l50 259l333 174l-266 173l51 259zM722 699l-29 -151l-652 -357l50 259l333 174l-266 173l51 259z" />
    <glyph glyph-name="onequarter" unicode="&#xbc;" horiz-adv-x="1950" 
d="M411 0l956 1400h245l-954 -1400h-247zM542 1400h218l-185 -948h-257l137 705l-152 -76l-59 174zM1101 160l37 189l518 599h230l-113 -582h99l-41 -206h-99l-31 -160h-241l31 160h-390zM1367 365h164l48 247z" />
    <glyph glyph-name="onehalf" unicode="&#xbd;" horiz-adv-x="1950" 
d="M542 1400h218l-185 -948h-257l137 705l-152 -76l-59 174zM411 0l956 1400h245l-954 -1400h-247zM1721 413l-222 -199h297l-42 -214h-625l38 192l380 343q82 73 94 135q2 14 2 19q0 30 -18 48t-49 18q-68 0 -122 -104l-208 73q48 113 148.5 180.5t227.5 67.5
q126 0 203.5 -62t77.5 -166q0 -30 -5 -54q-28 -143 -177 -277z" />
    <glyph glyph-name="threequarters" unicode="&#xbe;" horiz-adv-x="1950" 
d="M525 760q2 9 2 25q0 41 -26 67t-68 26q-28 0 -54 -13l-75 122l220 201h-295l42 212h591l-39 -198l-202 -178q79 -26 121.5 -85.5t42.5 -140.5q0 -26 -7 -64q-24 -125 -144 -215.5t-277 -90.5q-105 0 -183.5 46t-112.5 127l185 149q54 -109 141 -109q49 0 88.5 34.5
t49.5 84.5zM411 0l956 1400h245l-954 -1400h-247zM1101 160l37 189l518 599h230l-113 -582h99l-41 -206h-99l-31 -160h-241l31 160h-390zM1367 365h164l48 247z" />
    <glyph glyph-name="questiondown" unicode="&#xbf;" horiz-adv-x="1115" 
d="M810 602l-71 -362q-171 0 -273.5 -55t-118.5 -143q-2 -11 -2 -23q0 -53 46.5 -86t125.5 -33q132 0 287 110l101 -244q-107 -73 -229.5 -113.5t-242.5 -40.5q-195 0 -311.5 100t-116.5 252q0 39 7 74q28 142 145 254t290 153l31 157h332zM499 877q14 77 82 130t152 53
q74 0 119.5 -41.5t45.5 -106.5q0 -19 -3 -35q-14 -77 -81.5 -130t-151.5 -53q-74 0 -120 42t-46 107q0 16 3 34z" />
    <glyph glyph-name="Agrave" unicode="&#xc0;" horiz-adv-x="1390" 
d="M685 1400h364l214 -1400h-346l-35 292h-462l-147 -292h-346zM857 552l-58 500l-252 -500h310zM923 1850l183 -342h-302l-205 342h324z" />
    <glyph glyph-name="Aacute" unicode="&#xc1;" horiz-adv-x="1390" 
d="M685 1400h364l214 -1400h-346l-35 292h-462l-147 -292h-346zM857 552l-58 500l-252 -500h310zM665 1508l316 342h323l-337 -342h-302z" />
    <glyph glyph-name="Acircumflex" unicode="&#xc2;" horiz-adv-x="1390" 
d="M685 1400h364l214 -1400h-346l-35 292h-462l-147 -292h-346zM857 552l-58 500l-252 -500h310zM836 1850h236l226 -342h-297l-86 140l-140 -140h-297z" />
    <glyph glyph-name="Atilde" unicode="&#xc3;" horiz-adv-x="1390" 
d="M685 1400h364l214 -1400h-346l-35 292h-462l-147 -292h-346zM857 552l-58 500l-252 -500h310zM908 1555q-57 36 -84 36q-39 0 -69 -72l-238 48q89 236 266 236q73 0 142 -43q57 -35 85 -35q38 0 68 71l238 -48q-88 -236 -266 -236q-73 0 -142 43z" />
    <glyph glyph-name="Adieresis" unicode="&#xc4;" horiz-adv-x="1390" 
d="M685 1400h364l214 -1400h-346l-35 292h-462l-147 -292h-346zM857 552l-58 500l-252 -500h310zM554 1664q13 67 69 113.5t124 46.5q60 0 97 -36.5t37 -92.5q0 -15 -3 -31q-13 -68 -68.5 -114t-124.5 -46q-60 0 -97 36t-37 92q0 16 3 32zM958 1664q13 67 69 113.5t124 46.5
q60 0 97 -36.5t37 -92.5q0 -15 -3 -31q-13 -68 -68.5 -114t-124.5 -46q-60 0 -97 36t-37 92q0 16 3 32z" />
    <glyph glyph-name="Aring" unicode="&#xc5;" horiz-adv-x="1390" 
d="M685 1400h364l214 -1400h-346l-35 292h-462l-147 -292h-346zM857 552l-58 500l-252 -500h310zM859 1686q-1 -5 -1 -12q0 -22 14.5 -35.5t38.5 -13.5q28 0 48.5 17.5t25.5 43.5q1 6 1 13q0 21 -14 34.5t-38 13.5q-28 0 -49 -17.5t-26 -43.5zM686 1686q18 92 98 153.5
t180 61.5q89 0 143.5 -49t54.5 -125q0 -22 -4 -41q-17 -91 -97 -153.5t-181 -62.5q-89 0 -143.5 49.5t-54.5 126.5q0 20 4 40z" />
    <glyph glyph-name="AE" unicode="&#xc6;" horiz-adv-x="1880" 
d="M257 0h-352l1029 1400h1005l-55 -280h-550l-54 -278h502l-53 -276h-502l-56 -286h568l-54 -280h-895l56 292h-385zM994 1052l-353 -500h256z" />
    <glyph glyph-name="Ccedilla" unicode="&#xc7;" horiz-adv-x="1399" 
d="M678 -300q1 4 1 12q0 24 -21 38t-57 14q-39 0 -63 -4l-43 59l119 165q-236 32 -377 189.5t-141 385.5q0 72 14 141q30 151 114.5 285.5t203 230.5t269.5 152t309 56q280 0 458 -167l-216 -244q-132 123 -298 123q-179 0 -325 -125.5t-181 -310.5q-9 -48 -9 -93
q0 -151 95.5 -247t250.5 -96q91 0 184.5 37t174.5 98l128 -242q-198 -145 -435 -174l-79 -92q68 -19 106.5 -62t38.5 -100q0 -17 -3 -33q-18 -92 -115 -154t-224 -62q-132 0 -203 64l111 129q42 -37 111 -37q40 0 68.5 17.5t33.5 46.5z" />
    <glyph glyph-name="Egrave" unicode="&#xc8;" horiz-adv-x="1152" 
d="M47 0l272 1400h892l-55 -280h-560l-54 -278h512l-53 -276h-512l-56 -286h578l-54 -280h-910zM790 1850l183 -342h-302l-205 342h324z" />
    <glyph glyph-name="Eacute" unicode="&#xc9;" horiz-adv-x="1152" 
d="M47 0l272 1400h892l-55 -280h-560l-54 -278h512l-53 -276h-512l-56 -286h578l-54 -280h-910zM574 1508l316 342h323l-337 -342h-302z" />
    <glyph glyph-name="Ecircumflex" unicode="&#xca;" horiz-adv-x="1152" 
d="M47 0l272 1400h892l-55 -280h-560l-54 -278h512l-53 -276h-512l-56 -286h578l-54 -280h-910zM731 1850h236l226 -342h-297l-86 140l-140 -140h-297z" />
    <glyph glyph-name="Edieresis" unicode="&#xcb;" horiz-adv-x="1152" 
d="M47 0l272 1400h892l-55 -280h-560l-54 -278h512l-53 -276h-512l-56 -286h578l-54 -280h-910zM457 1664q13 67 69 113.5t124 46.5q60 0 97 -36.5t37 -92.5q0 -15 -3 -31q-13 -68 -68.5 -114t-124.5 -46q-60 0 -97 36t-37 92q0 16 3 32zM861 1664q13 67 69 113.5t124 46.5
q60 0 97 -36.5t37 -92.5q0 -15 -3 -31q-13 -68 -68.5 -114t-124.5 -46q-60 0 -97 36t-37 92q0 16 3 32z" />
    <glyph glyph-name="Igrave" unicode="&#xcc;" horiz-adv-x="636" 
d="M324 1400h332l-272 -1400h-332zM545 1850l183 -342h-302l-205 342h324z" />
    <glyph glyph-name="Iacute" unicode="&#xcd;" horiz-adv-x="636" 
d="M324 1400h332l-272 -1400h-332zM294 1508l316 342h323l-337 -342h-302z" />
    <glyph glyph-name="Icircumflex" unicode="&#xce;" horiz-adv-x="636" 
d="M324 1400h332l-272 -1400h-332zM459 1850h236l226 -342h-297l-86 140l-140 -140h-297z" />
    <glyph glyph-name="Idieresis" unicode="&#xcf;" horiz-adv-x="636" 
d="M324 1400h332l-272 -1400h-332zM177 1664q13 67 69 113.5t124 46.5q60 0 97 -36.5t37 -92.5q0 -15 -3 -31q-13 -68 -68.5 -114t-124.5 -46q-60 0 -97 36t-37 92q0 16 3 32zM581 1664q13 67 69 113.5t124 46.5q60 0 97 -36.5t37 -92.5q0 -15 -3 -31q-13 -68 -68.5 -114
t-124.5 -46q-60 0 -97 36t-37 92q0 16 3 32z" />
    <glyph glyph-name="Eth" unicode="&#xd0;" horiz-adv-x="1483" 
d="M357 1400h522q272 0 427.5 -144t155.5 -392q0 -76 -17 -164q-41 -209 -159 -368t-294 -245.5t-385 -86.5h-522l116 599h-170l39 202h170zM472 288h170q179 0 304.5 106.5t164.5 305.5q12 61 12 113q0 146 -84.5 222.5t-235.5 76.5h-170l-61 -311h228l-39 -202h-228z" />
    <glyph glyph-name="Ntilde" unicode="&#xd1;" horiz-adv-x="1422" 
d="M47 0l272 1400h348l298 -892l174 892h308l-272 -1400h-348l-299 892l-173 -892h-308zM924 1555q-57 36 -84 36q-39 0 -69 -72l-238 48q89 236 266 236q73 0 142 -43q57 -35 85 -35q38 0 68 71l238 -48q-88 -236 -266 -236q-73 0 -142 43z" />
    <glyph glyph-name="Ograve" unicode="&#xd2;" horiz-adv-x="1660" 
d="M444 700q-9 -48 -9 -93q0 -151 95.5 -247t250.5 -96q179 0 324.5 125t182.5 311q9 47 9 91q0 152 -96 248.5t-251 96.5q-179 0 -324.5 -125t-181.5 -311zM110 700q39 201 170 367t323 261.5t403 95.5q281 0 455.5 -164t174.5 -420q0 -65 -14 -140q-39 -201 -170.5 -367
t-323.5 -261.5t-403 -95.5q-280 0 -454.5 164t-174.5 419q0 72 14 141zM1037 1850l183 -342h-302l-205 342h324z" />
    <glyph glyph-name="Oacute" unicode="&#xd3;" horiz-adv-x="1660" 
d="M444 700q-9 -48 -9 -93q0 -151 95.5 -247t250.5 -96q179 0 324.5 125t182.5 311q9 47 9 91q0 152 -96 248.5t-251 96.5q-179 0 -324.5 -125t-181.5 -311zM110 700q39 201 170 367t323 261.5t403 95.5q281 0 455.5 -164t174.5 -420q0 -65 -14 -140q-39 -201 -170.5 -367
t-323.5 -261.5t-403 -95.5q-280 0 -454.5 164t-174.5 419q0 72 14 141zM825 1508l316 342h323l-337 -342h-302z" />
    <glyph glyph-name="Ocircumflex" unicode="&#xd4;" horiz-adv-x="1660" 
d="M444 700q-9 -48 -9 -93q0 -151 95.5 -247t250.5 -96q179 0 324.5 125t182.5 311q9 47 9 91q0 152 -96 248.5t-251 96.5q-179 0 -324.5 -125t-181.5 -311zM110 700q39 201 170 367t323 261.5t403 95.5q281 0 455.5 -164t174.5 -420q0 -65 -14 -140q-39 -201 -170.5 -367
t-323.5 -261.5t-403 -95.5q-280 0 -454.5 164t-174.5 419q0 72 14 141zM971 1850h236l226 -342h-297l-86 140l-140 -140h-297z" />
    <glyph glyph-name="Otilde" unicode="&#xd5;" horiz-adv-x="1660" 
d="M444 700q-9 -48 -9 -93q0 -151 95.5 -247t250.5 -96q179 0 324.5 125t182.5 311q9 47 9 91q0 152 -96 248.5t-251 96.5q-179 0 -324.5 -125t-181.5 -311zM110 700q39 201 170 367t323 261.5t403 95.5q281 0 455.5 -164t174.5 -420q0 -65 -14 -140q-39 -201 -170.5 -367
t-323.5 -261.5t-403 -95.5q-280 0 -454.5 164t-174.5 419q0 72 14 141zM1043 1555q-57 36 -84 36q-39 0 -69 -72l-238 48q89 236 266 236q73 0 142 -43q57 -35 85 -35q38 0 68 71l238 -48q-88 -236 -266 -236q-73 0 -142 43z" />
    <glyph glyph-name="Odieresis" unicode="&#xd6;" horiz-adv-x="1660" 
d="M444 700q-9 -48 -9 -93q0 -151 95.5 -247t250.5 -96q179 0 324.5 125t182.5 311q9 47 9 91q0 152 -96 248.5t-251 96.5q-179 0 -324.5 -125t-181.5 -311zM110 700q39 201 170 367t323 261.5t403 95.5q281 0 455.5 -164t174.5 -420q0 -65 -14 -140q-39 -201 -170.5 -367
t-323.5 -261.5t-403 -95.5q-280 0 -454.5 164t-174.5 419q0 72 14 141zM689 1664q13 67 69 113.5t124 46.5q60 0 97 -36.5t37 -92.5q0 -15 -3 -31q-13 -68 -68.5 -114t-124.5 -46q-60 0 -97 36t-37 92q0 16 3 32zM1093 1664q13 67 69 113.5t124 46.5q60 0 97 -36.5t37 -92.5
q0 -15 -3 -31q-13 -68 -68.5 -114t-124.5 -46q-60 0 -97 36t-37 92q0 16 3 32z" />
    <glyph glyph-name="multiply" unicode="&#xd7;" horiz-adv-x="1172" 
d="M1080 924l-266 -263l266 -261l-208 -207l-266 262l-266 -262l-208 207l265 261l-265 263l207 206l267 -263l267 263z" />
    <glyph glyph-name="Oslash" unicode="&#xd8;" horiz-adv-x="1660" 
d="M110 700q39 201 170 367t323 261.5t403 95.5q191 0 343 -84l116 120h246l-221 -229q146 -159 146 -391q0 -65 -14 -140q-39 -201 -170.5 -367t-323.5 -261.5t-403 -95.5q-206 0 -362 93l-125 -129h-246l236 243q-132 154 -132 374q0 74 14 143zM1288 700q9 48 9 92
q0 109 -50 189l-650 -671q78 -46 184 -46q179 0 324.5 125t182.5 311zM444 700q-10 -55 -10 -94q0 -93 39 -169l643 663q-75 36 -166 36q-179 0 -324.5 -125t-181.5 -311z" />
    <glyph glyph-name="Ugrave" unicode="&#xd9;" horiz-adv-x="1346" 
d="M1383 1400l-182 -934q-42 -212 -224 -350t-409 -138q-200 0 -326 109t-126 285q0 46 9 94l182 934h332l-182 -932q-4 -20 -4 -43q0 -72 47 -115.5t124 -43.5q88 0 158 56.5t87 145.5l182 932h332zM874 1850l183 -342h-302l-205 342h324z" />
    <glyph glyph-name="Uacute" unicode="&#xda;" horiz-adv-x="1346" 
d="M1383 1400l-182 -934q-42 -212 -224 -350t-409 -138q-200 0 -326 109t-126 285q0 46 9 94l182 934h332l-182 -932q-4 -20 -4 -43q0 -72 47 -115.5t124 -43.5q88 0 158 56.5t87 145.5l182 932h332zM676 1508l316 342h323l-337 -342h-302z" />
    <glyph glyph-name="Ucircumflex" unicode="&#xdb;" horiz-adv-x="1346" 
d="M1383 1400l-182 -934q-42 -212 -224 -350t-409 -138q-200 0 -326 109t-126 285q0 46 9 94l182 934h332l-182 -932q-4 -20 -4 -43q0 -72 47 -115.5t124 -43.5q88 0 158 56.5t87 145.5l182 932h332zM814 1850h236l226 -342h-297l-86 140l-140 -140h-297z" />
    <glyph glyph-name="Udieresis" unicode="&#xdc;" horiz-adv-x="1346" 
d="M1383 1400l-182 -934q-42 -212 -224 -350t-409 -138q-200 0 -326 109t-126 285q0 46 9 94l182 934h332l-182 -932q-4 -20 -4 -43q0 -72 47 -115.5t124 -43.5q88 0 158 56.5t87 145.5l182 932h332zM532 1664q13 67 69 113.5t124 46.5q60 0 97 -36.5t37 -92.5q0 -15 -3 -31
q-13 -68 -68.5 -114t-124.5 -46q-60 0 -97 36t-37 92q0 16 3 32zM936 1664q13 67 69 113.5t124 46.5q60 0 97 -36.5t37 -92.5q0 -15 -3 -31q-13 -68 -68.5 -114t-124.5 -46q-60 0 -97 36t-37 92q0 16 3 32z" />
    <glyph glyph-name="Yacute" unicode="&#xdd;" horiz-adv-x="1316" 
d="M558 1400l167 -536l377 536h359l-630 -846l-107 -554h-332l107 554l-300 846h359zM661 1508l316 342h323l-337 -342h-302z" />
    <glyph glyph-name="Thorn" unicode="&#xde;" horiz-adv-x="1214" 
d="M610 234h-186l-45 -234h-332l272 1400h332l-46 -234h186q191 0 302.5 -100.5t111.5 -266.5q0 -50 -10 -99q-40 -205 -202.5 -335.5t-382.5 -130.5zM867 700q5 28 5 49q0 71 -43.5 112t-124.5 41h-150l-79 -404h150q94 0 159 55t83 147z" />
    <glyph glyph-name="germandbls" unicode="&#xdf;" horiz-adv-x="1241" 
d="M35 0l198 1021q34 176 183 289.5t339 113.5q168 0 274.5 -86.5t106.5 -219.5q0 -30 -6 -61q-19 -97 -95 -180.5t-185 -123.5q136 -20 218 -104.5t82 -207.5q0 -35 -7 -69q-33 -168 -183 -282t-338 -114q-126 0 -215 52l113 261q56 -47 121 -47q64 0 114.5 44t64.5 111
q4 19 4 39q0 81 -69 127t-196 50l50 260q78 6 134.5 49t69.5 110q2 9 2 26q0 45 -30.5 72.5t-78.5 27.5q-57 0 -101.5 -39t-57.5 -103l-197 -1016h-315z" />
    <glyph glyph-name="agrave" unicode="&#xe0;" horiz-adv-x="1319" 
d="M591 258q79 0 149.5 39.5t114.5 105.5l44 229q-18 66 -73.5 106t-133.5 40q-111 0 -200.5 -74.5t-111.5 -185.5q-5 -30 -5 -52q0 -92 59.5 -150t156.5 -58zM777 0l18 96q-150 -120 -335 -120t-297.5 120.5t-112.5 306.5q0 60 11 115q45 227 220.5 384.5t389.5 157.5
q89 0 164 -31.5t124 -88.5l19 96h316l-201 -1036h-316zM812 1526l183 -342h-302l-205 342h324z" />
    <glyph glyph-name="aacute" unicode="&#xe1;" horiz-adv-x="1319" 
d="M591 258q79 0 149.5 39.5t114.5 105.5l44 229q-18 66 -73.5 106t-133.5 40q-111 0 -200.5 -74.5t-111.5 -185.5q-5 -30 -5 -52q0 -92 59.5 -150t156.5 -58zM777 0l18 96q-150 -120 -335 -120t-297.5 120.5t-112.5 306.5q0 60 11 115q45 227 220.5 384.5t389.5 157.5
q89 0 164 -31.5t124 -88.5l19 96h316l-201 -1036h-316zM558 1184l316 342h323l-337 -342h-302z" />
    <glyph glyph-name="acircumflex" unicode="&#xe2;" horiz-adv-x="1319" 
d="M591 258q79 0 149.5 39.5t114.5 105.5l44 229q-18 66 -73.5 106t-133.5 40q-111 0 -200.5 -74.5t-111.5 -185.5q-5 -30 -5 -52q0 -92 59.5 -150t156.5 -58zM777 0l18 96q-150 -120 -335 -120t-297.5 120.5t-112.5 306.5q0 60 11 115q45 227 220.5 384.5t389.5 157.5
q89 0 164 -31.5t124 -88.5l19 96h316l-201 -1036h-316zM737 1526h236l226 -342h-297l-86 140l-140 -140h-297z" />
    <glyph glyph-name="atilde" unicode="&#xe3;" horiz-adv-x="1319" 
d="M591 258q79 0 149.5 39.5t114.5 105.5l44 229q-18 66 -73.5 106t-133.5 40q-111 0 -200.5 -74.5t-111.5 -185.5q-5 -30 -5 -52q0 -92 59.5 -150t156.5 -58zM777 0l18 96q-150 -120 -335 -120t-297.5 120.5t-112.5 306.5q0 60 11 115q45 227 220.5 384.5t389.5 157.5
q89 0 164 -31.5t124 -88.5l19 96h316l-201 -1036h-316zM794 1226q-57 36 -84 36q-39 0 -69 -72l-238 48q89 236 266 236q73 0 142 -43q57 -35 85 -35q38 0 68 71l238 -48q-88 -236 -266 -236q-73 0 -142 43z" />
    <glyph glyph-name="adieresis" unicode="&#xe4;" horiz-adv-x="1319" 
d="M591 258q79 0 149.5 39.5t114.5 105.5l44 229q-18 66 -73.5 106t-133.5 40q-111 0 -200.5 -74.5t-111.5 -185.5q-5 -30 -5 -52q0 -92 59.5 -150t156.5 -58zM777 0l18 96q-150 -120 -335 -120t-297.5 120.5t-112.5 306.5q0 60 11 115q45 227 220.5 384.5t389.5 157.5
q89 0 164 -31.5t124 -88.5l19 96h316l-201 -1036h-316zM433 1340q13 67 69 113.5t124 46.5q60 0 97 -36.5t37 -92.5q0 -15 -3 -31q-13 -68 -68.5 -114t-124.5 -46q-60 0 -97 36t-37 92q0 16 3 32zM837 1340q13 67 69 113.5t124 46.5q60 0 97 -36.5t37 -92.5q0 -15 -3 -31
q-13 -68 -68.5 -114t-124.5 -46q-60 0 -97 36t-37 92q0 16 3 32z" />
    <glyph glyph-name="aring" unicode="&#xe5;" horiz-adv-x="1319" 
d="M591 258q79 0 149.5 39.5t114.5 105.5l44 229q-18 66 -73.5 106t-133.5 40q-111 0 -200.5 -74.5t-111.5 -185.5q-5 -30 -5 -52q0 -92 59.5 -150t156.5 -58zM777 0l18 96q-150 -120 -335 -120t-297.5 120.5t-112.5 306.5q0 60 11 115q45 227 220.5 384.5t389.5 157.5
q89 0 164 -31.5t124 -88.5l19 96h316l-201 -1036h-316zM741 1362q-1 -5 -1 -12q0 -22 14.5 -35.5t38.5 -13.5q28 0 48.5 17.5t25.5 43.5q1 6 1 13q0 21 -14 34.5t-38 13.5q-28 0 -49 -17.5t-26 -43.5zM568 1362q18 92 98 153.5t180 61.5q89 0 143.5 -49t54.5 -125
q0 -22 -4 -41q-17 -91 -97 -153.5t-181 -62.5q-89 0 -143.5 49.5t-54.5 126.5q0 20 4 40z" />
    <glyph glyph-name="ae" unicode="&#xe6;" horiz-adv-x="2046" 
d="M1953 429h-778v-9q0 -94 60 -148t164 -54q151 0 304 123l139 -177q-209 -188 -494 -188q-141 0 -248 54.5t-165 147.5q-85 -94 -212 -148t-265 -54q-194 0 -316.5 85.5t-122.5 216.5q0 23 5 51q28 141 183.5 237t353.5 96q147 0 287 -75l3 18q4 28 4 40q0 78 -64 125.5
t-172 47.5q-181 0 -345 -115l-60 210q95 70 217 108.5t243 38.5q138 0 242.5 -53.5t153.5 -147.5q94 93 218 147t255 54q206 0 331 -119t125 -304q0 -52 -10 -102q-11 -57 -36 -106zM342 329q-1 -5 -1 -15q0 -47 53 -77t139 -30q159 0 258 99l13 69q-76 76 -224 76
q-93 0 -160 -35t-78 -87zM1492 818q-88 0 -160.5 -49.5t-112.5 -136.5h461q-2 87 -51 136.5t-137 49.5z" />
    <glyph glyph-name="ccedilla" unicode="&#xe7;" horiz-adv-x="1119" 
d="M481 -300q1 4 1 12q0 24 -21 38t-57 14q-39 0 -63 -4l-43 59l122 168q-170 31 -269.5 147.5t-99.5 280.5q0 53 10 103q22 112 86 212.5t155 173t207 114.5t238 42q235 0 372 -145l-198 -233q-102 96 -225 96q-111 0 -200.5 -74.5t-111.5 -185.5q-5 -30 -5 -52
q0 -92 59.5 -150t156.5 -58q128 0 272 106l130 -217q-162 -135 -361 -163l-79 -93q68 -19 106.5 -62t38.5 -100q0 -17 -3 -33q-18 -92 -115 -154t-224 -62q-132 0 -203 64l111 129q42 -37 111 -37q40 0 68.5 17.5t33.5 46.5z" />
    <glyph glyph-name="egrave" unicode="&#xe8;" horiz-adv-x="1238" 
d="M367 429v-9q0 -94 60 -148t164 -54q151 0 304 123l139 -177q-209 -188 -494 -188q-224 0 -357 122t-133 314q0 49 11 106q29 150 127.5 274.5t243 196t303.5 71.5q206 0 330.5 -119t124.5 -304q0 -52 -10 -102q-12 -60 -35 -106h-778zM684 818q-88 0 -160.5 -49.5
t-112.5 -136.5h461q-2 87 -51 136.5t-137 49.5zM773 1526l183 -342h-302l-205 342h324z" />
    <glyph glyph-name="eacute" unicode="&#xe9;" horiz-adv-x="1238" 
d="M367 429v-9q0 -94 60 -148t164 -54q151 0 304 123l139 -177q-209 -188 -494 -188q-224 0 -357 122t-133 314q0 49 11 106q29 150 127.5 274.5t243 196t303.5 71.5q206 0 330.5 -119t124.5 -304q0 -52 -10 -102q-12 -60 -35 -106h-778zM684 818q-88 0 -160.5 -49.5
t-112.5 -136.5h461q-2 87 -51 136.5t-137 49.5zM545 1184l316 342h323l-337 -342h-302z" />
    <glyph glyph-name="ecircumflex" unicode="&#xea;" horiz-adv-x="1238" 
d="M367 429v-9q0 -94 60 -148t164 -54q151 0 304 123l139 -177q-209 -188 -494 -188q-224 0 -357 122t-133 314q0 49 11 106q29 150 127.5 274.5t243 196t303.5 71.5q206 0 330.5 -119t124.5 -304q0 -52 -10 -102q-12 -60 -35 -106h-778zM684 818q-88 0 -160.5 -49.5
t-112.5 -136.5h461q-2 87 -51 136.5t-137 49.5zM697 1526h236l226 -342h-297l-86 140l-140 -140h-297z" />
    <glyph glyph-name="edieresis" unicode="&#xeb;" horiz-adv-x="1238" 
d="M367 429v-9q0 -94 60 -148t164 -54q151 0 304 123l139 -177q-209 -188 -494 -188q-224 0 -357 122t-133 314q0 49 11 106q29 150 127.5 274.5t243 196t303.5 71.5q206 0 330.5 -119t124.5 -304q0 -52 -10 -102q-12 -60 -35 -106h-778zM684 818q-88 0 -160.5 -49.5
t-112.5 -136.5h461q-2 87 -51 136.5t-137 49.5zM415 1340q13 67 69 113.5t124 46.5q60 0 97 -36.5t37 -92.5q0 -15 -3 -31q-13 -68 -68.5 -114t-124.5 -46q-60 0 -97 36t-37 92q0 16 3 32zM819 1340q13 67 69 113.5t124 46.5q60 0 97 -36.5t37 -92.5q0 -15 -3 -31
q-13 -68 -68.5 -114t-124.5 -46q-60 0 -97 36t-37 92q0 16 3 32z" />
    <glyph glyph-name="igrave" unicode="&#xec;" horiz-adv-x="576" 
d="M27 0l201 1036h322l-201 -1036h-322zM442 1526l183 -342h-302l-205 342h324z" />
    <glyph glyph-name="iacute" unicode="&#xed;" horiz-adv-x="576" 
d="M27 0l201 1036h322l-201 -1036h-322zM210 1184l316 342h323l-337 -342h-302z" />
    <glyph glyph-name="icircumflex" unicode="&#xee;" horiz-adv-x="576" 
d="M27 0l201 1036h322l-201 -1036h-322zM366 1526h236l226 -342h-297l-86 140l-140 -140h-297z" />
    <glyph glyph-name="idieresis" unicode="&#xef;" horiz-adv-x="576" 
d="M27 0l201 1036h322l-201 -1036h-322zM84 1340q13 67 69 113.5t124 46.5q60 0 97 -36.5t37 -92.5q0 -15 -3 -31q-13 -68 -68.5 -114t-124.5 -46q-60 0 -97 36t-37 92q0 16 3 32zM488 1340q13 67 69 113.5t124 46.5q60 0 97 -36.5t37 -92.5q0 -15 -3 -31
q-13 -68 -68.5 -114t-124.5 -46q-60 0 -97 36t-37 92q0 16 3 32z" />
    <glyph glyph-name="eth" unicode="&#xf0;" horiz-adv-x="1254" 
d="M421 1004l-50 139l191 84q-67 44 -156 85l285 148q89 -46 161 -102l208 92l49 -144l-134 -59q223 -242 223 -566q0 -83 -17 -173q-28 -147 -123.5 -268.5t-238.5 -192.5t-302 -71q-209 0 -340 118t-131 300q0 46 9 94q27 139 126 257t230.5 182.5t260.5 64.5
q94 0 153 -44q-46 94 -129 176zM374 497q-5 -27 -5 -47q0 -84 57 -138t148 -54q104 0 188 69t104 170q5 27 5 47q0 84 -56.5 138t-147.5 54q-104 0 -189 -69t-104 -170z" />
    <glyph glyph-name="ntilde" unicode="&#xf1;" horiz-adv-x="1232" 
d="M476 661l-128 -661h-322l201 1036h322l-21 -107q58 60 138 95.5t160 35.5q153 0 244 -88t91 -233q0 -43 -9 -90l-126 -649h-322l117 606q4 17 4 37q0 58 -37.5 96.5t-105.5 38.5q-54 0 -111 -34t-95 -83zM775 1226q-57 36 -84 36q-39 0 -69 -72l-238 48q89 236 266 236
q73 0 142 -43q57 -35 85 -35q38 0 68 71l238 -48q-88 -236 -266 -236q-73 0 -142 43z" />
    <glyph glyph-name="ograve" unicode="&#xf2;" horiz-adv-x="1282" 
d="M61 518q22 112 86 212.5t155 173t207 114.5t238 42q217 0 350.5 -123.5t133.5 -315.5q0 -53 -10 -103q-30 -150 -129 -274.5t-246 -196t-310 -71.5q-217 0 -351 123.5t-134 315.5q0 53 10 103zM380 518q-5 -22 -5 -52q0 -92 59.5 -150t156.5 -58q112 0 200.5 74.5
t110.5 185.5q5 22 5 54q0 91 -59 148.5t-156 57.5q-111 0 -200.5 -74.5t-111.5 -185.5zM784 1526l183 -342h-302l-205 342h324z" />
    <glyph glyph-name="oacute" unicode="&#xf3;" horiz-adv-x="1282" 
d="M61 518q22 112 86 212.5t155 173t207 114.5t238 42q217 0 350.5 -123.5t133.5 -315.5q0 -53 -10 -103q-30 -150 -129 -274.5t-246 -196t-310 -71.5q-217 0 -351 123.5t-134 315.5q0 53 10 103zM380 518q-5 -22 -5 -52q0 -92 59.5 -150t156.5 -58q112 0 200.5 74.5
t110.5 185.5q5 22 5 54q0 91 -59 148.5t-156 57.5q-111 0 -200.5 -74.5t-111.5 -185.5zM577 1184l316 342h323l-337 -342h-302z" />
    <glyph glyph-name="ocircumflex" unicode="&#xf4;" horiz-adv-x="1282" 
d="M61 518q22 112 86 212.5t155 173t207 114.5t238 42q217 0 350.5 -123.5t133.5 -315.5q0 -53 -10 -103q-30 -150 -129 -274.5t-246 -196t-310 -71.5q-217 0 -351 123.5t-134 315.5q0 53 10 103zM380 518q-5 -22 -5 -52q0 -92 59.5 -150t156.5 -58q112 0 200.5 74.5
t110.5 185.5q5 22 5 54q0 91 -59 148.5t-156 57.5q-111 0 -200.5 -74.5t-111.5 -185.5zM719 1526h236l226 -342h-297l-86 140l-140 -140h-297z" />
    <glyph glyph-name="otilde" unicode="&#xf5;" horiz-adv-x="1282" 
d="M61 518q22 112 86 212.5t155 173t207 114.5t238 42q217 0 350.5 -123.5t133.5 -315.5q0 -53 -10 -103q-30 -150 -129 -274.5t-246 -196t-310 -71.5q-217 0 -351 123.5t-134 315.5q0 53 10 103zM380 518q-5 -22 -5 -52q0 -92 59.5 -150t156.5 -58q112 0 200.5 74.5
t110.5 185.5q5 22 5 54q0 91 -59 148.5t-156 57.5q-111 0 -200.5 -74.5t-111.5 -185.5zM790 1226q-57 36 -84 36q-39 0 -69 -72l-238 48q89 236 266 236q73 0 142 -43q57 -35 85 -35q38 0 68 71l238 -48q-88 -236 -266 -236q-73 0 -142 43z" />
    <glyph glyph-name="odieresis" unicode="&#xf6;" horiz-adv-x="1282" 
d="M61 518q22 112 86 212.5t155 173t207 114.5t238 42q217 0 350.5 -123.5t133.5 -315.5q0 -53 -10 -103q-30 -150 -129 -274.5t-246 -196t-310 -71.5q-217 0 -351 123.5t-134 315.5q0 53 10 103zM380 518q-5 -22 -5 -52q0 -92 59.5 -150t156.5 -58q112 0 200.5 74.5
t110.5 185.5q5 22 5 54q0 91 -59 148.5t-156 57.5q-111 0 -200.5 -74.5t-111.5 -185.5zM437 1340q13 67 69 113.5t124 46.5q60 0 97 -36.5t37 -92.5q0 -15 -3 -31q-13 -68 -68.5 -114t-124.5 -46q-60 0 -97 36t-37 92q0 16 3 32zM841 1340q13 67 69 113.5t124 46.5
q60 0 97 -36.5t37 -92.5q0 -15 -3 -31q-13 -68 -68.5 -114t-124.5 -46q-60 0 -97 36t-37 92q0 16 3 32z" />
    <glyph glyph-name="divide" unicode="&#xf7;" horiz-adv-x="1172" 
d="M1076 526h-940v276h940v-276zM420 1067q0 75 52 126.5t128 51.5t128 -51.5t52 -126.5t-52 -126.5t-128 -51.5t-128 51.5t-52 126.5zM420 261q0 75 52 126.5t128 51.5t128 -51.5t52 -126.5t-52 -126.5t-128 -51.5t-128 51.5t-52 126.5z" />
    <glyph glyph-name="oslash" unicode="&#xf8;" horiz-adv-x="1282" 
d="M61 518q22 112 86 212.5t155 173t207 114.5t238 42q139 0 251 -57l92 93h228l-189 -193q102 -118 102 -282q0 -53 -10 -103q-29 -150 -128.5 -274.5t-246.5 -196t-310 -71.5q-142 0 -254 57l-91 -93h-228l188 193q-100 117 -100 282q0 53 10 103zM927 518q6 28 6 54
q0 56 -24 104l-416 -426q42 -17 93 -17q121 0 219.5 82.5t121.5 202.5zM355 518q-5 -25 -5 -57q0 -57 21 -101l415 425q-43 18 -89 18q-121 0 -220 -82.5t-122 -202.5z" />
    <glyph glyph-name="ugrave" unicode="&#xf9;" horiz-adv-x="1232" 
d="M684 0l20 107q-59 -60 -138 -95.5t-159 -35.5q-153 0 -244 87.5t-91 232.5q0 43 9 91l126 649h322l-118 -606q-3 -18 -3 -36q0 -59 37 -97.5t106 -38.5q54 0 111 34t94 83l129 661h322l-201 -1036h-322zM739 1526l183 -342h-302l-205 342h324z" />
    <glyph glyph-name="uacute" unicode="&#xfa;" horiz-adv-x="1232" 
d="M684 0l20 107q-59 -60 -138 -95.5t-159 -35.5q-153 0 -244 87.5t-91 232.5q0 43 9 91l126 649h322l-118 -606q-3 -18 -3 -36q0 -59 37 -97.5t106 -38.5q54 0 111 34t94 83l129 661h322l-201 -1036h-322zM545 1184l316 342h323l-337 -342h-302z" />
    <glyph glyph-name="ucircumflex" unicode="&#xfb;" horiz-adv-x="1232" 
d="M684 0l20 107q-59 -60 -138 -95.5t-159 -35.5q-153 0 -244 87.5t-91 232.5q0 43 9 91l126 649h322l-118 -606q-3 -18 -3 -36q0 -59 37 -97.5t106 -38.5q54 0 111 34t94 83l129 661h322l-201 -1036h-322zM681 1526h236l226 -342h-297l-86 140l-140 -140h-297z" />
    <glyph glyph-name="udieresis" unicode="&#xfc;" horiz-adv-x="1232" 
d="M684 0l20 107q-59 -60 -138 -95.5t-159 -35.5q-153 0 -244 87.5t-91 232.5q0 43 9 91l126 649h322l-118 -606q-3 -18 -3 -36q0 -59 37 -97.5t106 -38.5q54 0 111 34t94 83l129 661h322l-201 -1036h-322zM399 1340q13 67 69 113.5t124 46.5q60 0 97 -36.5t37 -92.5
q0 -15 -3 -31q-13 -68 -68.5 -114t-124.5 -46q-60 0 -97 36t-37 92q0 16 3 32zM803 1340q13 67 69 113.5t124 46.5q60 0 97 -36.5t37 -92.5q0 -15 -3 -31q-13 -68 -68.5 -114t-124.5 -46q-60 0 -97 36t-37 92q0 16 3 32z" />
    <glyph glyph-name="yacute" unicode="&#xfd;" horiz-adv-x="1092" 
d="M347 -464h-337l278 464l-169 1036h336l69 -627l315 627h336zM481 1184l316 342h323l-337 -342h-302z" />
    <glyph glyph-name="thorn" unicode="&#xfe;" horiz-adv-x="1319" 
d="M628 258q112 0 201 75t110 185q5 22 5 54q0 91 -59 148.5t-156 57.5q-78 0 -149.5 -40t-115.5 -106l-44 -229q18 -66 73.5 -105.5t134.5 -39.5zM360 96l-109 -560h-316l374 1924h316l-101 -520q71 57 159 88.5t177 31.5q185 0 297.5 -119.5t112.5 -305.5q0 -57 -12 -117
q-44 -227 -219.5 -384.5t-389.5 -157.5q-89 0 -164.5 31.5t-124.5 88.5z" />
    <glyph glyph-name="ydieresis" unicode="&#xff;" horiz-adv-x="1092" 
d="M347 -464h-337l278 464l-169 1036h336l69 -627l315 627h336zM341 1340q13 67 69 113.5t124 46.5q60 0 97 -36.5t37 -92.5q0 -15 -3 -31q-13 -68 -68.5 -114t-124.5 -46q-60 0 -97 36t-37 92q0 16 3 32zM745 1340q13 67 69 113.5t124 46.5q60 0 97 -36.5t37 -92.5
q0 -15 -3 -31q-13 -68 -68.5 -114t-124.5 -46q-60 0 -97 36t-37 92q0 16 3 32z" />
    <glyph glyph-name="Amacron" unicode="&#x100;" horiz-adv-x="1390" 
d="M685 1400h364l214 -1400h-346l-35 292h-462l-147 -292h-346zM857 552l-58 500l-252 -500h310zM574 1543l46 236h640l-46 -236h-640z" />
    <glyph glyph-name="amacron" unicode="&#x101;" horiz-adv-x="1319" 
d="M591 258q79 0 149.5 39.5t114.5 105.5l44 229q-18 66 -73.5 106t-133.5 40q-111 0 -200.5 -74.5t-111.5 -185.5q-5 -30 -5 -52q0 -92 59.5 -150t156.5 -58zM777 0l18 96q-150 -120 -335 -120t-297.5 120.5t-112.5 306.5q0 60 11 115q45 227 220.5 384.5t389.5 157.5
q89 0 164 -31.5t124 -88.5l19 96h316l-201 -1036h-316zM458 1219l46 236h640l-46 -236h-640z" />
    <glyph glyph-name="Abreve" unicode="&#x102;" horiz-adv-x="1390" 
d="M685 1400h364l214 -1400h-346l-35 292h-462l-147 -292h-346zM857 552l-58 500l-252 -500h310zM884 1488q-133 0 -222 75t-89 193q0 22 4 46h257q-2 -10 -2 -20q0 -41 25.5 -66t66.5 -25q46 0 84 31.5t48 79.5h257q-32 -136 -157 -225t-272 -89z" />
    <glyph glyph-name="abreve" unicode="&#x103;" horiz-adv-x="1319" 
d="M591 258q79 0 149.5 39.5t114.5 105.5l44 229q-18 66 -73.5 106t-133.5 40q-111 0 -200.5 -74.5t-111.5 -185.5q-5 -30 -5 -52q0 -92 59.5 -150t156.5 -58zM777 0l18 96q-150 -120 -335 -120t-297.5 120.5t-112.5 306.5q0 60 11 115q45 227 220.5 384.5t389.5 157.5
q89 0 164 -31.5t124 -88.5l19 96h316l-201 -1036h-316zM768 1164q-133 0 -222 75t-89 193q0 22 4 46h257q-2 -10 -2 -20q0 -41 25.5 -66t66.5 -25q46 0 84 31.5t48 79.5h257q-32 -136 -157 -225t-272 -89z" />
    <glyph glyph-name="Aogonek" unicode="&#x104;" horiz-adv-x="1390" 
d="M1054 0h-137l-35 292h-462l-147 -292h-346l758 1400h364l214 -1400q-184 -128 -201 -217q-1 -6 -1 -17q0 -28 18.5 -44t48.5 -16q43 0 86 23l31 -138q-84 -49 -189 -49q-101 0 -164 49t-63 125q0 16 3 34q13 68 73.5 133t148.5 117zM857 552l-58 500l-252 -500h310z" />
    <glyph glyph-name="aogonek" unicode="&#x105;" horiz-adv-x="1319" 
d="M777 0l18 96q-150 -120 -335 -120t-297.5 120.5t-112.5 306.5q0 60 11 115q45 227 220.5 384.5t389.5 157.5q89 0 164 -31.5t124 -88.5l19 96h316l-201 -1036q-184 -128 -201 -217q-1 -6 -1 -17q0 -28 18.5 -44t48.5 -16q43 0 86 23l31 -138q-84 -49 -189 -49
q-101 0 -164 49t-63 125q0 16 3 34q13 68 73.5 133t148.5 117h-107zM591 258q79 0 149.5 39.5t114.5 105.5l44 229q-18 66 -73.5 106t-133.5 40q-111 0 -200.5 -74.5t-111.5 -185.5q-5 -30 -5 -52q0 -92 59.5 -150t156.5 -58z" />
    <glyph glyph-name="Cacute" unicode="&#x106;" horiz-adv-x="1399" 
d="M725 -24q-280 0 -454.5 164t-174.5 419q0 72 14 141q30 151 114.5 285.5t203 230.5t269.5 152t309 56q280 0 458 -167l-216 -244q-132 123 -298 123q-179 0 -325 -125.5t-181 -310.5q-9 -48 -9 -93q0 -151 95.5 -247t250.5 -96q91 0 184.5 37t174.5 98l128 -242
q-247 -181 -543 -181zM757 1508l316 342h323l-337 -342h-302z" />
    <glyph glyph-name="cacute" unicode="&#x107;" horiz-adv-x="1119" 
d="M536 -24q-217 0 -351 123.5t-134 315.5q0 53 10 103q22 112 86 212.5t155 173t207 114.5t238 42q235 0 372 -145l-198 -233q-102 96 -225 96q-111 0 -200.5 -74.5t-111.5 -185.5q-5 -30 -5 -52q0 -92 59.5 -150t156.5 -58q128 0 272 106l130 -217q-203 -171 -461 -171z
M510 1184l316 342h323l-337 -342h-302z" />
    <glyph glyph-name="Ccircumflex" unicode="&#x108;" horiz-adv-x="1399" 
d="M725 -24q-280 0 -454.5 164t-174.5 419q0 72 14 141q30 151 114.5 285.5t203 230.5t269.5 152t309 56q280 0 458 -167l-216 -244q-132 123 -298 123q-179 0 -325 -125.5t-181 -310.5q-9 -48 -9 -93q0 -151 95.5 -247t250.5 -96q91 0 184.5 37t174.5 98l128 -242
q-247 -181 -543 -181zM924 1850h236l226 -342h-297l-86 140l-140 -140h-297z" />
    <glyph glyph-name="ccircumflex" unicode="&#x109;" horiz-adv-x="1119" 
d="M536 -24q-217 0 -351 123.5t-134 315.5q0 53 10 103q22 112 86 212.5t155 173t207 114.5t238 42q235 0 372 -145l-198 -233q-102 96 -225 96q-111 0 -200.5 -74.5t-111.5 -185.5q-5 -30 -5 -52q0 -92 59.5 -150t156.5 -58q128 0 272 106l130 -217q-203 -171 -461 -171z
M671 1526h236l226 -342h-297l-86 140l-140 -140h-297z" />
    <glyph glyph-name="Cdotaccent" unicode="&#x10a;" horiz-adv-x="1399" 
d="M725 -24q-280 0 -454.5 164t-174.5 419q0 72 14 141q30 151 114.5 285.5t203 230.5t269.5 152t309 56q280 0 458 -167l-216 -244q-132 123 -298 123q-179 0 -325 -125.5t-181 -310.5q-9 -48 -9 -93q0 -151 95.5 -247t250.5 -96q91 0 184.5 37t174.5 98l128 -242
q-247 -181 -543 -181zM836 1664q14 69 71.5 117t127.5 48q62 0 100 -37.5t38 -95.5q0 -16 -3 -32q-14 -69 -71.5 -117t-127.5 -48q-62 0 -100 37.5t-38 95.5q0 16 3 32z" />
    <glyph glyph-name="cdotaccent" unicode="&#x10b;" horiz-adv-x="1119" 
d="M536 -24q-217 0 -351 123.5t-134 315.5q0 53 10 103q22 112 86 212.5t155 173t207 114.5t238 42q235 0 372 -145l-198 -233q-102 96 -225 96q-111 0 -200.5 -74.5t-111.5 -185.5q-5 -30 -5 -52q0 -92 59.5 -150t156.5 -58q128 0 272 106l130 -217q-203 -171 -461 -171z
M602 1340q14 69 71.5 117t127.5 48q62 0 100 -37.5t38 -95.5q0 -16 -3 -32q-14 -69 -71.5 -117t-127.5 -48q-62 0 -100 37.5t-38 95.5q0 16 3 32z" />
    <glyph glyph-name="Ccaron" unicode="&#x10c;" horiz-adv-x="1399" 
d="M725 -24q-280 0 -454.5 164t-174.5 419q0 72 14 141q30 151 114.5 285.5t203 230.5t269.5 152t309 56q280 0 458 -167l-216 -244q-132 123 -298 123q-179 0 -325 -125.5t-181 -310.5q-9 -48 -9 -93q0 -151 95.5 -247t250.5 -96q91 0 184.5 37t174.5 98l128 -242
q-247 -181 -543 -181zM1094 1508h-236l-226 342h297l86 -140l140 140h297z" />
    <glyph glyph-name="ccaron" unicode="&#x10d;" horiz-adv-x="1119" 
d="M536 -24q-217 0 -351 123.5t-134 315.5q0 53 10 103q22 112 86 212.5t155 173t207 114.5t238 42q235 0 372 -145l-198 -233q-102 96 -225 96q-111 0 -200.5 -74.5t-111.5 -185.5q-5 -30 -5 -52q0 -92 59.5 -150t156.5 -58q128 0 272 106l130 -217q-203 -171 -461 -171z
M838 1164h-236l-226 342h297l86 -140l140 140h297z" />
    <glyph glyph-name="Dcaron" unicode="&#x10e;" horiz-adv-x="1445" 
d="M319 1400h522q272 0 427.5 -144t155.5 -392q0 -76 -17 -164q-41 -209 -159 -368t-294 -245.5t-385 -86.5h-522zM434 288h170q179 0 304.5 106.5t164.5 305.5q12 61 12 113q0 146 -84.5 222.5t-235.5 76.5h-170zM974 1508h-236l-226 342h297l86 -140l140 140h297z" />
    <glyph glyph-name="dcaron" unicode="&#x10f;" horiz-adv-x="1685" 
d="M591 258q79 0 149.5 39.5t114.5 105.5l44 229q-18 66 -73.5 106t-133.5 40q-111 0 -200.5 -74.5t-111.5 -185.5q-5 -30 -5 -52q0 -92 59.5 -150t156.5 -58zM777 0l18 96q-150 -120 -335 -120t-297.5 120.5t-112.5 306.5q0 60 11 115q45 227 220.5 384.5t389.5 157.5
q89 0 164 -31.5t124 -88.5l101 520h316l-283 -1460h-316zM1453 1307q14 75 75 126t137 51q65 0 106 -40t41 -102q0 -23 -4 -39q-8 -38 -37 -80l-208 -308h-188l156 232q-82 38 -82 126q0 12 4 34z" />
    <glyph glyph-name="Dcroat" unicode="&#x110;" horiz-adv-x="1483" 
d="M357 1400h522q272 0 427.5 -144t155.5 -392q0 -76 -17 -164q-41 -209 -159 -368t-294 -245.5t-385 -86.5h-522l116 599h-170l39 202h170zM472 288h170q179 0 304.5 106.5t164.5 305.5q12 61 12 113q0 146 -84.5 222.5t-235.5 76.5h-170l-61 -311h228l-39 -202h-228z" />
    <glyph glyph-name="dcroat" unicode="&#x111;" horiz-adv-x="1347" 
d="M724 1145l35 182h275l26 133h316l-26 -133h134l-35 -182h-134l-222 -1145h-316l18 96q-150 -120 -335 -120t-297.5 120.5t-112.5 306.5q0 60 11 115q45 227 220.5 384.5t389.5 157.5q89 0 164 -31.5t124 -88.5l40 205h-275zM591 258q79 0 149.5 39.5t114.5 105.5l44 229
q-18 66 -73.5 106t-133.5 40q-112 0 -200.5 -74.5t-111.5 -185.5q-5 -25 -5 -52q0 -92 59.5 -150t156.5 -58z" />
    <glyph glyph-name="Emacron" unicode="&#x112;" horiz-adv-x="1152" 
d="M47 0l272 1400h892l-55 -280h-560l-54 -278h512l-53 -276h-512l-56 -286h578l-54 -280h-910zM466 1543l46 236h640l-46 -236h-640z" />
    <glyph glyph-name="emacron" unicode="&#x113;" horiz-adv-x="1238" 
d="M367 429v-9q0 -94 60 -148t164 -54q151 0 304 123l139 -177q-209 -188 -494 -188q-224 0 -357 122t-133 314q0 49 11 106q29 150 127.5 274.5t243 196t303.5 71.5q206 0 330.5 -119t124.5 -304q0 -52 -10 -102q-12 -60 -35 -106h-778zM684 818q-88 0 -160.5 -49.5
t-112.5 -136.5h461q-2 87 -51 136.5t-137 49.5zM436 1219l46 236h640l-46 -236h-640z" />
    <glyph glyph-name="Ebreve" unicode="&#x114;" horiz-adv-x="1152" 
d="M47 0l272 1400h892l-55 -280h-560l-54 -278h512l-53 -276h-512l-56 -286h578l-54 -280h-910zM780 1488q-133 0 -222 75t-89 193q0 22 4 46h257q-2 -10 -2 -20q0 -41 25.5 -66t66.5 -25q46 0 84 31.5t48 79.5h257q-32 -136 -157 -225t-272 -89z" />
    <glyph glyph-name="ebreve" unicode="&#x115;" horiz-adv-x="1238" 
d="M367 429v-9q0 -94 60 -148t164 -54q151 0 304 123l139 -177q-209 -188 -494 -188q-224 0 -357 122t-133 314q0 49 11 106q29 150 127.5 274.5t243 196t303.5 71.5q206 0 330.5 -119t124.5 -304q0 -52 -10 -102q-12 -60 -35 -106h-778zM684 818q-88 0 -160.5 -49.5
t-112.5 -136.5h461q-2 87 -51 136.5t-137 49.5zM745 1164q-133 0 -222 75t-89 193q0 22 4 46h257q-2 -10 -2 -20q0 -41 25.5 -66t66.5 -25q46 0 84 31.5t48 79.5h257q-32 -136 -157 -225t-272 -89z" />
    <glyph glyph-name="Edotaccent" unicode="&#x116;" horiz-adv-x="1152" 
d="M47 0l272 1400h892l-55 -280h-560l-54 -278h512l-53 -276h-512l-56 -286h578l-54 -280h-910zM654 1664q14 69 71.5 117t127.5 48q62 0 100 -37.5t38 -95.5q0 -16 -3 -32q-14 -69 -71.5 -117t-127.5 -48q-62 0 -100 37.5t-38 95.5q0 16 3 32z" />
    <glyph glyph-name="edotaccent" unicode="&#x117;" horiz-adv-x="1238" 
d="M367 429v-9q0 -94 60 -148t164 -54q151 0 304 123l139 -177q-209 -188 -494 -188q-224 0 -357 122t-133 314q0 49 11 106q29 150 127.5 274.5t243 196t303.5 71.5q206 0 330.5 -119t124.5 -304q0 -52 -10 -102q-12 -60 -35 -106h-778zM684 818q-88 0 -160.5 -49.5
t-112.5 -136.5h461q-2 87 -51 136.5t-137 49.5zM614 1340q14 69 71.5 117t127.5 48q62 0 100 -37.5t38 -95.5q0 -16 -3 -32q-14 -69 -71.5 -117t-127.5 -48q-62 0 -100 37.5t-38 95.5q0 16 3 32z" />
    <glyph glyph-name="Eogonek" unicode="&#x118;" horiz-adv-x="1152" 
d="M47 0l272 1400h892l-55 -280h-560l-54 -278h512l-53 -276h-512l-56 -286h578l-54 -280h-172q-184 -128 -201 -217q-1 -6 -1 -17q0 -28 18.5 -44t48.5 -16q43 0 86 23l31 -138q-84 -49 -189 -49q-101 0 -164 49t-63 125q0 16 3 34q13 68 73.5 133t148.5 117h-529z" />
    <glyph glyph-name="eogonek" unicode="&#x119;" horiz-adv-x="1238" 
d="M367 429v-9q0 -94 60 -148t164 -54q151 0 304 123l139 -177q-168 -150 -385 -180q-159 -116 -176 -201q-1 -6 -1 -17q0 -28 18.5 -44t48.5 -16q43 0 86 23l31 -138q-84 -49 -189 -49q-101 0 -164 49t-63 125q0 16 3 34q22 121 195 234q-180 27 -284 143.5t-104 284.5
q0 49 11 106q29 150 127.5 274.5t243 196t303.5 71.5q206 0 330.5 -119t124.5 -304q0 -52 -10 -102q-12 -60 -35 -106h-778zM684 818q-88 0 -160.5 -49.5t-112.5 -136.5h461q-2 87 -51 136.5t-137 49.5z" />
    <glyph glyph-name="Ecaron" unicode="&#x11a;" horiz-adv-x="1152" 
d="M47 0l272 1400h892l-55 -280h-560l-54 -278h512l-53 -276h-512l-56 -286h578l-54 -280h-910zM901 1508h-236l-226 342h297l86 -140l140 140h297z" />
    <glyph glyph-name="ecaron" unicode="&#x11b;" horiz-adv-x="1238" 
d="M367 429v-9q0 -94 60 -148t164 -54q151 0 304 123l139 -177q-209 -188 -494 -188q-224 0 -357 122t-133 314q0 49 11 106q29 150 127.5 274.5t243 196t303.5 71.5q206 0 330.5 -119t124.5 -304q0 -52 -10 -102q-12 -60 -35 -106h-778zM684 818q-88 0 -160.5 -49.5
t-112.5 -136.5h461q-2 87 -51 136.5t-137 49.5zM865 1164h-236l-226 342h297l86 -140l140 140h297z" />
    <glyph glyph-name="Gcircumflex" unicode="&#x11c;" horiz-adv-x="1466" 
d="M950 1136q-181 0 -326 -126t-181 -315q-9 -48 -9 -93q0 -152 95.5 -250t249.5 -98q103 0 191 47l46 235h-274l49 254h606l-122 -627q-119 -89 -261 -138t-289 -49q-280 0 -454.5 164t-174.5 419q0 72 14 141q30 151 114.5 285.5t203 230.5t269.5 152t309 56
q280 0 458 -167l-216 -244q-132 123 -298 123zM924 1850h236l226 -342h-297l-86 140l-140 -140h-297z" />
    <glyph glyph-name="gcircumflex" unicode="&#x11d;" horiz-adv-x="1319" 
d="M591 258q79 0 149.5 39.5t114.5 105.5l44 229q-18 66 -73.5 106t-133.5 40q-112 0 -200.5 -74.5t-111.5 -185.5q-5 -25 -5 -52q0 -92 59.5 -150t156.5 -58zM785 46l13 64q-148 -120 -335 -120q-186 0 -299.5 116.5t-113.5 298.5q0 58 11 113q45 227 220.5 384.5
t389.5 157.5q89 0 164 -31.5t124 -88.5l19 96h316l-189 -970q-46 -236 -225.5 -383t-433.5 -147q-148 0 -270.5 49t-196.5 138l208 216q107 -129 290 -129q120 0 203 63.5t105 172.5zM737 1526h236l226 -342h-297l-86 140l-140 -140h-297z" />
    <glyph glyph-name="Gbreve" unicode="&#x11e;" horiz-adv-x="1466" 
d="M950 1136q-181 0 -326 -126t-181 -315q-9 -48 -9 -93q0 -152 95.5 -250t249.5 -98q103 0 191 47l46 235h-274l49 254h606l-122 -627q-119 -89 -261 -138t-289 -49q-280 0 -454.5 164t-174.5 419q0 72 14 141q30 151 114.5 285.5t203 230.5t269.5 152t309 56
q280 0 458 -167l-216 -244q-132 123 -298 123zM972 1488q-133 0 -222 75t-89 193q0 22 4 46h257q-2 -10 -2 -20q0 -41 25.5 -66t66.5 -25q46 0 84 31.5t48 79.5h257q-32 -136 -157 -225t-272 -89z" />
    <glyph glyph-name="gbreve" unicode="&#x11f;" horiz-adv-x="1319" 
d="M591 258q79 0 149.5 39.5t114.5 105.5l44 229q-18 66 -73.5 106t-133.5 40q-112 0 -200.5 -74.5t-111.5 -185.5q-5 -25 -5 -52q0 -92 59.5 -150t156.5 -58zM785 46l13 64q-148 -120 -335 -120q-186 0 -299.5 116.5t-113.5 298.5q0 58 11 113q45 227 220.5 384.5
t389.5 157.5q89 0 164 -31.5t124 -88.5l19 96h316l-189 -970q-46 -236 -225.5 -383t-433.5 -147q-148 0 -270.5 49t-196.5 138l208 216q107 -129 290 -129q120 0 203 63.5t105 172.5zM769 1164q-133 0 -222 75t-89 193q0 22 4 46h257q-2 -10 -2 -20q0 -41 25.5 -66t66.5 -25
q46 0 84 31.5t48 79.5h257q-32 -136 -157 -225t-272 -89z" />
    <glyph glyph-name="Gdotaccent" unicode="&#x120;" horiz-adv-x="1466" 
d="M950 1136q-181 0 -326 -126t-181 -315q-9 -48 -9 -93q0 -152 95.5 -250t249.5 -98q103 0 191 47l46 235h-274l49 254h606l-122 -627q-119 -89 -261 -138t-289 -49q-280 0 -454.5 164t-174.5 419q0 72 14 141q30 151 114.5 285.5t203 230.5t269.5 152t309 56
q280 0 458 -167l-216 -244q-132 123 -298 123zM836 1664q14 69 71.5 117t127.5 48q62 0 100 -37.5t38 -95.5q0 -16 -3 -32q-14 -69 -71.5 -117t-127.5 -48q-62 0 -100 37.5t-38 95.5q0 16 3 32z" />
    <glyph glyph-name="gdotaccent" unicode="&#x121;" horiz-adv-x="1319" 
d="M591 258q79 0 149.5 39.5t114.5 105.5l44 229q-18 66 -73.5 106t-133.5 40q-112 0 -200.5 -74.5t-111.5 -185.5q-5 -25 -5 -52q0 -92 59.5 -150t156.5 -58zM785 46l13 64q-148 -120 -335 -120q-186 0 -299.5 116.5t-113.5 298.5q0 58 11 113q45 227 220.5 384.5
t389.5 157.5q89 0 164 -31.5t124 -88.5l19 96h316l-189 -970q-46 -236 -225.5 -383t-433.5 -147q-148 0 -270.5 49t-196.5 138l208 216q107 -129 290 -129q120 0 203 63.5t105 172.5zM631 1340q14 69 71.5 117t127.5 48q62 0 100 -37.5t38 -95.5q0 -16 -3 -32
q-14 -69 -71.5 -117t-127.5 -48q-62 0 -100 37.5t-38 95.5q0 16 3 32z" />
    <glyph glyph-name="Gcommaaccent" unicode="&#x122;" horiz-adv-x="1466" 
d="M950 1136q-181 0 -326 -126t-181 -315q-9 -48 -9 -93q0 -152 95.5 -250t249.5 -98q103 0 191 47l46 235h-274l49 254h606l-122 -627q-119 -89 -261 -138t-289 -49q-280 0 -454.5 164t-174.5 419q0 72 14 141q30 151 114.5 285.5t203 230.5t269.5 152t309 56
q280 0 458 -167l-216 -244q-132 123 -298 123zM609 -470h-291l223 342h333z" />
    <glyph glyph-name="gcommaaccent" unicode="&#x123;" horiz-adv-x="1319" 
d="M591 258q79 0 149.5 39.5t114.5 105.5l44 229q-18 66 -73.5 106t-133.5 40q-112 0 -200.5 -74.5t-111.5 -185.5q-5 -25 -5 -52q0 -92 59.5 -150t156.5 -58zM785 46l13 64q-148 -120 -335 -120q-186 0 -299.5 116.5t-113.5 298.5q0 58 11 113q45 227 220.5 384.5
t389.5 157.5q89 0 164 -31.5t124 -88.5l19 96h316l-189 -970q-46 -236 -225.5 -383t-433.5 -147q-148 0 -270.5 49t-196.5 138l208 216q107 -129 290 -129q120 0 203 63.5t105 172.5zM841 1514h291l-223 -342h-333z" />
    <glyph glyph-name="Hcircumflex" unicode="&#x124;" horiz-adv-x="1422" 
d="M47 0l272 1400h332l-108 -553h464l108 553h332l-272 -1400h-332l109 561h-464l-109 -561h-332zM852 1850h236l226 -342h-297l-86 140l-140 -140h-297z" />
    <glyph glyph-name="hcircumflex" unicode="&#x125;" horiz-adv-x="1232" 
d="M476 661l-128 -661h-322l283 1460h322l-103 -531q58 60 138 95.5t160 35.5q153 0 244 -88t91 -233q0 -43 -9 -90l-126 -649h-322l117 606q4 17 4 37q0 58 -37.5 96.5t-105.5 38.5q-54 0 -111 -34t-95 -83zM438 1910h236l226 -342h-297l-86 140l-140 -140h-297z" />
    <glyph glyph-name="Hbar" unicode="&#x126;" horiz-adv-x="1438" 
d="M55 0l198 1022h-120l38 197h120l36 181h332l-36 -181h464l36 181h332l-36 -181h120l-38 -197h-120l-198 -1022h-332l110 566h-464l-110 -566h-332zM550 842h464l35 180h-464z" />
    <glyph glyph-name="hbar" unicode="&#x127;" horiz-adv-x="1257" 
d="M142 1145l35 182h131l26 133h322l-26 -133h272l-35 -182h-272l-42 -216q58 60 138 95.5t160 35.5q153 0 244 -88t91 -233q0 -43 -9 -90l-126 -649h-322l117 606q4 17 4 37q0 58 -37.5 96.5t-105.5 38.5q-54 0 -111 -34t-95 -83l-128 -661h-322l222 1145h-131z" />
    <glyph glyph-name="Itilde" unicode="&#x128;" horiz-adv-x="636" 
d="M324 1400h332l-272 -1400h-332zM531 1555q-57 36 -84 36q-39 0 -69 -72l-238 48q89 236 266 236q73 0 142 -43q57 -35 85 -35q38 0 68 71l238 -48q-88 -236 -266 -236q-73 0 -142 43z" />
    <glyph glyph-name="itilde" unicode="&#x129;" horiz-adv-x="576" 
d="M27 0l201 1036h322l-201 -1036h-322zM437 1226q-57 36 -84 36q-39 0 -69 -72l-238 48q89 236 266 236q73 0 142 -43q57 -35 85 -35q38 0 68 71l238 -48q-88 -236 -266 -236q-73 0 -142 43z" />
    <glyph glyph-name="Imacron" unicode="&#x12a;" horiz-adv-x="636" 
d="M324 1400h332l-272 -1400h-332zM197 1543l46 236h640l-46 -236h-640z" />
    <glyph glyph-name="imacron" unicode="&#x12b;" horiz-adv-x="576" 
d="M27 0l201 1036h322l-201 -1036h-322zM104 1219l46 236h640l-46 -236h-640z" />
    <glyph glyph-name="Ibreve" unicode="&#x12c;" horiz-adv-x="636" 
d="M324 1400h332l-272 -1400h-332zM507 1488q-133 0 -222 75t-89 193q0 22 4 46h257q-2 -10 -2 -20q0 -41 25.5 -66t66.5 -25q46 0 84 31.5t48 79.5h257q-32 -136 -157 -225t-272 -89z" />
    <glyph glyph-name="ibreve" unicode="&#x12d;" horiz-adv-x="576" 
d="M27 0l201 1036h322l-201 -1036h-322zM414 1164q-133 0 -222 75t-89 193q0 22 4 46h257q-2 -10 -2 -20q0 -41 25.5 -66t66.5 -25q46 0 84 31.5t48 79.5h257q-32 -136 -157 -225t-272 -89z" />
    <glyph glyph-name="Iogonek" unicode="&#x12e;" horiz-adv-x="636" 
d="M175 0h-123l272 1400h332l-272 -1400q-184 -128 -201 -217q-1 -6 -1 -17q0 -28 18.5 -44t48.5 -16q43 0 86 23l31 -138q-84 -49 -189 -49q-101 0 -164 49t-63 125q0 16 3 34q13 68 73.5 133t148.5 117z" />
    <glyph glyph-name="iogonek" unicode="&#x12f;" horiz-adv-x="576" 
d="M27 0l201 1036h322l-201 -1036q-184 -128 -201 -217q-1 -6 -1 -17q0 -28 18.5 -44t48.5 -16q43 0 86 23l31 -138q-84 -49 -189 -49q-101 0 -164 49t-63 125q0 16 3 34q13 68 73.5 133t148.5 117h-113zM258 1307q13 73 76.5 124t141.5 51q68 0 110.5 -39.5t42.5 -101.5
q0 -19 -3 -34q-15 -74 -77.5 -124.5t-140.5 -50.5q-68 0 -111 39t-43 101q0 13 4 35z" />
    <glyph glyph-name="Idotaccent" unicode="&#x130;" horiz-adv-x="636" 
d="M324 1400h332l-272 -1400h-332zM374 1664q14 69 71.5 117t127.5 48q62 0 100 -37.5t38 -95.5q0 -16 -3 -32q-14 -69 -71.5 -117t-127.5 -48q-62 0 -100 37.5t-38 95.5q0 16 3 32z" />
    <glyph glyph-name="dotlessi" unicode="&#x131;" horiz-adv-x="576" 
d="M27 0l201 1036h322l-201 -1036h-322z" />
    <glyph glyph-name="IJ" unicode="&#x132;" horiz-adv-x="1533" 
d="M324 1400h332l-272 -1400h-332zM1056 466l182 934h332l-186 -954q-44 -228 -188.5 -349t-366.5 -121q-85 0 -164 19.5t-133 53.5l140 270q79 -55 169 -55q84 0 140 51t75 151z" />
    <glyph glyph-name="ij" unicode="&#x133;" horiz-adv-x="1152" 
d="M27 0l201 1036h322l-201 -1036h-322zM258 1307q13 73 76.5 124t141.5 51q68 0 110.5 -39.5t42.5 -101.5q0 -19 -3 -34q-15 -74 -77.5 -124.5t-140.5 -50.5q-68 0 -111 39t-43 101q0 13 4 35zM589 -72l215 1108h322l-222 -1140q-34 -174 -148.5 -267t-290.5 -93
q-62 0 -113 11l52 267h55q54 0 86 27t44 87zM834 1307q13 73 76.5 124t141.5 51q68 0 110.5 -39.5t42.5 -101.5q0 -19 -3 -34q-15 -74 -77.5 -124.5t-140.5 -50.5q-68 0 -111 39t-43 101q0 13 4 35z" />
    <glyph glyph-name="Jcircumflex" unicode="&#x134;" horiz-adv-x="937" 
d="M460 466l182 934h332l-186 -954q-44 -228 -188.5 -349t-366.5 -121q-85 0 -164 19.5t-133 53.5l140 270q79 -55 169 -55q84 0 140 51t75 151zM778 1850h236l226 -342h-297l-86 140l-140 -140h-297z" />
    <glyph glyph-name="jcircumflex" unicode="&#x135;" horiz-adv-x="576" 
d="M13 -72l215 1108h322l-222 -1140q-33 -174 -148 -267t-291 -93q-62 0 -113 11l52 267h55q54 0 86 27t44 87zM366 1526h236l226 -342h-297l-86 140l-140 -140h-297z" />
    <glyph glyph-name="Kcommaaccent" unicode="&#x136;" horiz-adv-x="1263" 
d="M651 1400l-107 -548h74l414 548h358l-525 -687l328 -713h-362l-258 566h-84l-110 -566h-332l272 1400h332zM467 -470h-291l223 342h333z" />
    <glyph glyph-name="kcommaaccent" unicode="&#x137;" horiz-adv-x="1106" 
d="M648 0l-144 428h-73l-83 -428h-322l283 1460h322l-147 -756h78l249 332h352l-370 -472l205 -564h-350zM354 -470h-291l223 342h333z" />
    <glyph glyph-name="kgreenlandic" unicode="&#x138;" horiz-adv-x="1106" 
d="M648 0l-144 428h-73l-83 -428h-322l201 1036h322l-65 -332h78l249 332h352l-370 -472l205 -564h-350z" />
    <glyph glyph-name="Lacute" unicode="&#x139;" horiz-adv-x="1047" 
d="M47 0l272 1400h332l-217 -1114h538l-55 -286h-870zM340 1508l316 342h323l-337 -342h-302z" />
    <glyph glyph-name="lacute" unicode="&#x13a;" horiz-adv-x="576" 
d="M27 0l283 1460h322l-283 -1460h-322zM281 1568l316 342h323l-337 -342h-302z" />
    <glyph glyph-name="Lcommaaccent" unicode="&#x13b;" horiz-adv-x="1047" 
d="M47 0l272 1400h332l-217 -1114h538l-55 -286h-870zM387 -470h-291l223 342h333z" />
    <glyph glyph-name="lcommaaccent" unicode="&#x13c;" horiz-adv-x="576" 
d="M27 0l283 1460h322l-283 -1460h-322zM89 -470h-291l223 342h333z" />
    <glyph glyph-name="Lcaron" unicode="&#x13d;" horiz-adv-x="1047" 
d="M47 0l272 1400h332l-217 -1114h538l-55 -286h-870zM778 1247q14 75 75 126t137 51q65 0 106 -40t41 -102q0 -23 -4 -39q-8 -38 -37 -80l-208 -308h-188l156 232q-82 38 -82 126q0 12 4 34z" />
    <glyph glyph-name="lcaron" unicode="&#x13e;" horiz-adv-x="941" 
d="M27 0l283 1460h322l-283 -1460h-322zM709 1307q14 75 75 126t137 51q65 0 106 -40t41 -102q0 -23 -4 -39q-8 -38 -37 -80l-208 -308h-188l156 232q-82 38 -82 126q0 12 4 34z" />
    <glyph glyph-name="Ldot" unicode="&#x13f;" horiz-adv-x="1047" 
d="M47 0l272 1400h332l-217 -1114h538l-55 -286h-870zM674 772q14 69 71.5 117t127.5 48q62 0 100 -37.5t38 -95.5q0 -15 -3 -32q-14 -69 -71.5 -117t-127.5 -48q-62 0 -100 37.5t-38 95.5q0 16 3 32z" />
    <glyph glyph-name="ldot" unicode="&#x140;" horiz-adv-x="913" 
d="M27 0l283 1460h322l-283 -1460h-322zM595 752q14 69 71.5 117t127.5 48q62 0 100 -37.5t38 -95.5q0 -16 -3 -32q-14 -69 -71.5 -117t-127.5 -48q-62 0 -100 37.5t-38 95.5q0 16 3 32z" />
    <glyph glyph-name="Lslash" unicode="&#x141;" horiz-adv-x="1072" 
d="M72 0l96 496l-151 -70l44 223l150 70l133 681h332l-100 -511l336 157l-44 -223l-335 -157l-74 -380h538l-55 -286h-870z" />
    <glyph glyph-name="lslash" unicode="&#x142;" horiz-adv-x="648" 
d="M725 1014l-42 -212l-156 -71l-142 -731h-322l111 575l-156 -69l41 212l156 69l131 673h322l-100 -517z" />
    <glyph glyph-name="Nacute" unicode="&#x143;" horiz-adv-x="1422" 
d="M47 0l272 1400h348l298 -892l174 892h308l-272 -1400h-348l-299 892l-173 -892h-308zM706 1508l316 342h323l-337 -342h-302z" />
    <glyph glyph-name="nacute" unicode="&#x144;" horiz-adv-x="1232" 
d="M476 661l-128 -661h-322l201 1036h322l-21 -107q58 60 138 95.5t160 35.5q153 0 244 -88t91 -233q0 -43 -9 -90l-126 -649h-322l117 606q4 17 4 37q0 58 -37.5 96.5t-105.5 38.5q-54 0 -111 -34t-95 -83zM553 1184l316 342h323l-337 -342h-302z" />
    <glyph glyph-name="Ncommaaccent" unicode="&#x145;" horiz-adv-x="1422" 
d="M47 0l272 1400h348l298 -892l174 892h308l-272 -1400h-348l-299 892l-173 -892h-308zM528 -470h-291l223 342h333z" />
    <glyph glyph-name="ncommaaccent" unicode="&#x146;" horiz-adv-x="1232" 
d="M476 661l-128 -661h-322l201 1036h322l-21 -107q58 60 138 95.5t160 35.5q153 0 244 -88t91 -233q0 -43 -9 -90l-126 -649h-322l117 606q4 17 4 37q0 58 -37.5 96.5t-105.5 38.5q-54 0 -111 -34t-95 -83zM435 -470h-291l223 342h333z" />
    <glyph glyph-name="Ncaron" unicode="&#x147;" horiz-adv-x="1422" 
d="M47 0l272 1400h348l298 -892l174 892h308l-272 -1400h-348l-299 892l-173 -892h-308zM1022 1508h-236l-226 342h297l86 -140l140 140h297z" />
    <glyph glyph-name="ncaron" unicode="&#x148;" horiz-adv-x="1232" 
d="M476 661l-128 -661h-322l201 1036h322l-21 -107q58 60 138 95.5t160 35.5q153 0 244 -88t91 -233q0 -43 -9 -90l-126 -649h-322l117 606q4 17 4 37q0 58 -37.5 96.5t-105.5 38.5q-54 0 -111 -34t-95 -83zM853 1164h-236l-226 342h297l86 -140l140 140h297z" />
    <glyph glyph-name="napostrophe" unicode="&#x149;" horiz-adv-x="1493" 
d="M737 661l-128 -661h-322l201 1036h322l-21 -107q58 60 138 95.5t160 35.5q153 0 244 -88t91 -233q0 -43 -9 -90l-126 -649h-322l117 606q4 17 4 37q0 58 -37.5 96.5t-105.5 38.5q-54 0 -111 -34t-95 -83zM195 1307q14 75 75 126t137 51q65 0 106 -40t41 -102
q0 -23 -4 -39q-8 -38 -37 -80l-208 -308h-188l156 232q-82 38 -82 126q0 12 4 34z" />
    <glyph glyph-name="Eng" unicode="&#x14a;" horiz-adv-x="1422" 
d="M848 -96l20 106l-338 892l-175 -902h-308l272 1400h315l334 -877l171 877h308l-292 -1501q-34 -176 -162 -269.5t-330 -93.5q-64 0 -115 12l47 242q41 -6 97 -6q132 0 156 120z" />
    <glyph glyph-name="eng" unicode="&#x14b;" horiz-adv-x="1232" 
d="M1152 649l-146 -750q-34 -176 -162 -269.5t-331 -93.5q-75 0 -125 12l47 242q35 -6 94 -6q133 0 156 120l136 702q4 17 4 37q0 58 -37.5 96.5t-105.5 38.5q-54 0 -111 -34t-95 -83l-128 -661h-322l201 1036h322l-21 -107q58 60 138 95.5t160 35.5q153 0 244 -88t91 -233
q0 -43 -9 -90z" />
    <glyph glyph-name="Omacron" unicode="&#x14c;" horiz-adv-x="1660" 
d="M444 700q-9 -48 -9 -93q0 -151 95.5 -247t250.5 -96q179 0 324.5 125t182.5 311q9 47 9 91q0 152 -96 248.5t-251 96.5q-179 0 -324.5 -125t-181.5 -311zM110 700q39 201 170 367t323 261.5t403 95.5q281 0 455.5 -164t174.5 -420q0 -65 -14 -140q-39 -201 -170.5 -367
t-323.5 -261.5t-403 -95.5q-280 0 -454.5 164t-174.5 419q0 72 14 141zM709 1543l46 236h640l-46 -236h-640z" />
    <glyph glyph-name="omacron" unicode="&#x14d;" horiz-adv-x="1282" 
d="M61 518q22 112 86 212.5t155 173t207 114.5t238 42q217 0 350.5 -123.5t133.5 -315.5q0 -53 -10 -103q-30 -150 -129 -274.5t-246 -196t-310 -71.5q-217 0 -351 123.5t-134 315.5q0 53 10 103zM380 518q-5 -22 -5 -52q0 -92 59.5 -150t156.5 -58q112 0 200.5 74.5
t110.5 185.5q5 22 5 54q0 91 -59 148.5t-156 57.5q-111 0 -200.5 -74.5t-111.5 -185.5zM457 1219l46 236h640l-46 -236h-640z" />
    <glyph glyph-name="Obreve" unicode="&#x14e;" horiz-adv-x="1660" 
d="M444 700q-9 -48 -9 -93q0 -151 95.5 -247t250.5 -96q179 0 324.5 125t182.5 311q9 47 9 91q0 152 -96 248.5t-251 96.5q-179 0 -324.5 -125t-181.5 -311zM110 700q39 201 170 367t323 261.5t403 95.5q281 0 455.5 -164t174.5 -420q0 -65 -14 -140q-39 -201 -170.5 -367
t-323.5 -261.5t-403 -95.5q-280 0 -454.5 164t-174.5 419q0 72 14 141zM1019 1488q-133 0 -222 75t-89 193q0 22 4 46h257q-2 -10 -2 -20q0 -41 25.5 -66t66.5 -25q46 0 84 31.5t48 79.5h257q-32 -136 -157 -225t-272 -89z" />
    <glyph glyph-name="obreve" unicode="&#x14f;" horiz-adv-x="1282" 
d="M61 518q22 112 86 212.5t155 173t207 114.5t238 42q217 0 350.5 -123.5t133.5 -315.5q0 -53 -10 -103q-30 -150 -129 -274.5t-246 -196t-310 -71.5q-217 0 -351 123.5t-134 315.5q0 53 10 103zM380 518q-5 -22 -5 -52q0 -92 59.5 -150t156.5 -58q112 0 200.5 74.5
t110.5 185.5q5 22 5 54q0 91 -59 148.5t-156 57.5q-111 0 -200.5 -74.5t-111.5 -185.5zM767 1164q-133 0 -222 75t-89 193q0 22 4 46h257q-2 -10 -2 -20q0 -41 25.5 -66t66.5 -25q46 0 84 31.5t48 79.5h257q-32 -136 -157 -225t-272 -89z" />
    <glyph glyph-name="Ohungarumlaut" unicode="&#x150;" horiz-adv-x="1660" 
d="M444 700q-9 -48 -9 -93q0 -151 95.5 -247t250.5 -96q179 0 324.5 125t182.5 311q9 47 9 91q0 152 -96 248.5t-251 96.5q-179 0 -324.5 -125t-181.5 -311zM110 700q39 201 170 367t323 261.5t403 95.5q281 0 455.5 -164t174.5 -420q0 -65 -14 -140q-39 -201 -170.5 -367
t-323.5 -261.5t-403 -95.5q-280 0 -454.5 164t-174.5 419q0 72 14 141zM661 1508l316 342h288l-332 -342h-272zM1030 1508l315 342h289l-332 -342h-272z" />
    <glyph glyph-name="ohungarumlaut" unicode="&#x151;" horiz-adv-x="1282" 
d="M61 518q22 112 86 212.5t155 173t207 114.5t238 42q217 0 350.5 -123.5t133.5 -315.5q0 -53 -10 -103q-30 -150 -129 -274.5t-246 -196t-310 -71.5q-217 0 -351 123.5t-134 315.5q0 53 10 103zM380 518q-5 -22 -5 -52q0 -92 59.5 -150t156.5 -58q112 0 200.5 74.5
t110.5 185.5q5 22 5 54q0 91 -59 148.5t-156 57.5q-111 0 -200.5 -74.5t-111.5 -185.5zM394 1184l316 342h288l-332 -342h-272zM763 1184l315 342h289l-332 -342h-272z" />
    <glyph glyph-name="OE" unicode="&#x152;" horiz-adv-x="1830" 
d="M1635 0h-905q-279 0 -456 161t-177 409q0 65 13 130q37 194 169 355t323.5 253t399.5 92h887l-55 -280h-550l-54 -278h502l-53 -276h-502l-56 -286h568zM795 286l161 828h-10q-180 0 -325 -118.5t-179 -295.5q-9 -44 -9 -84q0 -145 97.5 -237.5t254.5 -92.5h10z" />
    <glyph glyph-name="oe" unicode="&#x153;" horiz-adv-x="2158" 
d="M61 518q22 112 86 212.5t155 173t207 114.5t238 42q140 0 249 -64.5t164 -170.5q91 104 224.5 169.5t270.5 65.5q206 0 331 -119t125 -304q0 -52 -10 -102q-11 -57 -36 -106h-779v-6q0 -95 60.5 -150t164.5 -55q151 0 304 123l139 -177q-209 -188 -494 -188
q-149 0 -258.5 63.5t-162.5 170.5q-95 -106 -229 -170t-274 -64q-217 0 -351 123.5t-134 315.5q0 53 10 103zM380 518q-5 -30 -5 -52q0 -92 59.5 -150t156.5 -58q112 0 201 75t110 185q5 22 5 54q0 91 -59 148.5t-156 57.5q-111 0 -200.5 -74.5t-111.5 -185.5zM1604 818
q-88 0 -161 -49.5t-112 -136.5h461q-2 87 -51 136.5t-137 49.5z" />
    <glyph glyph-name="Racute" unicode="&#x154;" horiz-adv-x="1241" 
d="M319 1400h518q191 0 303 -97t112 -261q0 -49 -10 -98q-28 -147 -122.5 -255t-235.5 -157l212 -532h-360l-184 488h-83l-94 -488h-328zM751 1136h-156l-77 -398h156q93 0 157 55.5t82 143.5q5 28 5 48q0 70 -43.5 110.5t-123.5 40.5zM590 1508l316 342h323l-337 -342h-302
z" />
    <glyph glyph-name="racute" unicode="&#x155;" horiz-adv-x="840" 
d="M710 778q-65 0 -128 -38.5t-111 -104.5l-123 -635h-322l201 1036h322l-24 -122q56 66 129 106t150 40q53 0 89 -24l-75 -280q-54 22 -108 22zM326 1184l316 342h323l-337 -342h-302z" />
    <glyph glyph-name="Rcommaaccent" unicode="&#x156;" horiz-adv-x="1241" 
d="M319 1400h518q191 0 303 -97t112 -261q0 -49 -10 -98q-28 -147 -122.5 -255t-235.5 -157l212 -532h-360l-184 488h-83l-94 -488h-328zM751 1136h-156l-77 -398h156q93 0 157 55.5t82 143.5q5 28 5 48q0 70 -43.5 110.5t-123.5 40.5zM420 -470h-291l223 342h333z" />
    <glyph glyph-name="rcommaaccent" unicode="&#x157;" horiz-adv-x="840" 
d="M710 778q-65 0 -128 -38.5t-111 -104.5l-123 -635h-322l201 1036h322l-24 -122q56 66 129 106t150 40q53 0 89 -24l-75 -280q-54 22 -108 22zM88 -470h-291l223 342h333z" />
    <glyph glyph-name="Rcaron" unicode="&#x158;" horiz-adv-x="1241" 
d="M319 1400h518q191 0 303 -97t112 -261q0 -49 -10 -98q-28 -147 -122.5 -255t-235.5 -157l212 -532h-360l-184 488h-83l-94 -488h-328zM751 1136h-156l-77 -398h156q93 0 157 55.5t82 143.5q5 28 5 48q0 70 -43.5 110.5t-123.5 40.5zM914 1508h-236l-226 342h297l86 -140
l140 140h297z" />
    <glyph glyph-name="rcaron" unicode="&#x159;" horiz-adv-x="840" 
d="M710 778q-65 0 -128 -38.5t-111 -104.5l-123 -635h-322l201 1036h322l-24 -122q56 66 129 106t150 40q53 0 89 -24l-75 -280q-54 22 -108 22zM658 1164h-236l-226 342h297l86 -140l140 140h297z" />
    <glyph glyph-name="Sacute" unicode="&#x15a;" horiz-adv-x="1200" 
d="M22 200l222 222q58 -77 140 -122.5t174 -45.5q81 0 143.5 40t75.5 103q3 15 3 29q0 54 -51.5 94t-176.5 68q-169 38 -260 125t-91 216q0 33 8 76q35 181 192 300t365 119q137 0 249.5 -47t188.5 -131l-213 -230q-129 134 -264 134q-66 0 -117.5 -34t-61.5 -85
q-3 -13 -3 -27q0 -51 48 -87.5t160 -63.5q370 -90 370 -355q0 -40 -9 -85q-37 -191 -204 -314t-405 -123q-157 0 -282.5 59t-200.5 165zM572 1508l316 342h323l-337 -342h-302z" />
    <glyph glyph-name="sacute" unicode="&#x15b;" horiz-adv-x="953" 
d="M-17 148l184 190q38 -54 100 -86t136 -32q57 0 94 21t47 57q3 10 3 21q0 32 -32.5 54t-107.5 38q-135 30 -205.5 99.5t-70.5 172.5q0 31 7 66q27 136 151 223.5t294 87.5q104 0 194.5 -38.5t155.5 -103.5l-179 -190q-90 88 -189 88q-44 0 -75 -17t-41 -47q-3 -9 -3 -21
q0 -65 126 -92q290 -62 290 -271q0 -33 -7 -67q-27 -141 -158.5 -233t-314.5 -92q-131 0 -236.5 45.5t-162.5 126.5zM382 1184l316 342h323l-337 -342h-302z" />
    <glyph glyph-name="Scircumflex" unicode="&#x15c;" horiz-adv-x="1200" 
d="M22 200l222 222q58 -77 140 -122.5t174 -45.5q81 0 143.5 40t75.5 103q3 15 3 29q0 54 -51.5 94t-176.5 68q-169 38 -260 125t-91 216q0 33 8 76q35 181 192 300t365 119q137 0 249.5 -47t188.5 -131l-213 -230q-129 134 -264 134q-66 0 -117.5 -34t-61.5 -85
q-3 -13 -3 -27q0 -51 48 -87.5t160 -63.5q370 -90 370 -355q0 -40 -9 -85q-37 -191 -204 -314t-405 -123q-157 0 -282.5 59t-200.5 165zM738 1850h236l226 -342h-297l-86 140l-140 -140h-297z" />
    <glyph glyph-name="scircumflex" unicode="&#x15d;" horiz-adv-x="953" 
d="M-17 148l184 190q38 -54 100 -86t136 -32q57 0 94 21t47 57q3 10 3 21q0 32 -32.5 54t-107.5 38q-135 30 -205.5 99.5t-70.5 172.5q0 31 7 66q27 136 151 223.5t294 87.5q104 0 194.5 -38.5t155.5 -103.5l-179 -190q-90 88 -189 88q-44 0 -75 -17t-41 -47q-3 -9 -3 -21
q0 -65 126 -92q290 -62 290 -271q0 -33 -7 -67q-27 -141 -158.5 -233t-314.5 -92q-131 0 -236.5 45.5t-162.5 126.5zM544 1526h236l226 -342h-297l-86 140l-140 -140h-297z" />
    <glyph glyph-name="Scedilla" unicode="&#x15e;" horiz-adv-x="1200" 
d="M485 -300q1 4 1 12q0 24 -21 38t-57 14q-39 0 -63 -4l-43 59l118 162q-129 14 -231.5 71t-166.5 148l222 222q58 -77 140 -122.5t174 -45.5q81 0 143.5 40t75.5 103q3 15 3 29q0 54 -51.5 94t-176.5 68q-169 38 -260 125t-91 216q0 33 8 76q35 181 192 300t365 119
q137 0 249.5 -47t188.5 -131l-213 -230q-129 134 -264 134q-66 0 -117.5 -34t-61.5 -85q-3 -13 -3 -27q0 -51 48 -87.5t160 -63.5q370 -90 370 -355q0 -40 -9 -85q-32 -161 -158 -275.5t-311 -148.5l-84 -98q68 -19 106.5 -62t38.5 -100q0 -17 -3 -33q-18 -92 -115 -154
t-224 -62q-132 0 -203 64l111 129q42 -37 111 -37q40 0 68.5 17.5t33.5 46.5z" />
    <glyph glyph-name="scedilla" unicode="&#x15f;" horiz-adv-x="953" 
d="M345 -300q1 4 1 12q0 24 -21 38t-57 14q-39 0 -63 -4l-43 59l119 165q-98 14 -175 56.5t-123 107.5l184 190q38 -54 100 -86t136 -32q57 0 94 21t47 57q3 10 3 21q0 32 -32.5 54t-107.5 38q-135 30 -205.5 99.5t-70.5 172.5q0 31 7 66q27 136 151 223.5t294 87.5
q104 0 194.5 -38.5t155.5 -103.5l-179 -190q-90 88 -189 88q-44 0 -75 -17t-41 -47q-3 -9 -3 -21q0 -65 126 -92q290 -62 290 -271q0 -33 -7 -67q-23 -116 -117 -200t-233 -112l-84 -98q68 -19 106.5 -62t38.5 -100q0 -17 -3 -33q-18 -92 -115 -154t-224 -62q-132 0 -203 64
l111 129q42 -37 111 -37q40 0 68.5 17.5t33.5 46.5z" />
    <glyph glyph-name="Scaron" unicode="&#x160;" horiz-adv-x="1200" 
d="M22 200l222 222q58 -77 140 -122.5t174 -45.5q81 0 143.5 40t75.5 103q3 15 3 29q0 54 -51.5 94t-176.5 68q-169 38 -260 125t-91 216q0 33 8 76q35 181 192 300t365 119q137 0 249.5 -47t188.5 -131l-213 -230q-129 134 -264 134q-66 0 -117.5 -34t-61.5 -85
q-3 -13 -3 -27q0 -51 48 -87.5t160 -63.5q370 -90 370 -355q0 -40 -9 -85q-37 -191 -204 -314t-405 -123q-157 0 -282.5 59t-200.5 165zM898 1508h-236l-226 342h297l86 -140l140 140h297z" />
    <glyph glyph-name="scaron" unicode="&#x161;" horiz-adv-x="953" 
d="M-17 148l184 190q38 -54 100 -86t136 -32q57 0 94 21t47 57q3 10 3 21q0 32 -32.5 54t-107.5 38q-135 30 -205.5 99.5t-70.5 172.5q0 31 7 66q27 136 151 223.5t294 87.5q104 0 194.5 -38.5t155.5 -103.5l-179 -190q-90 88 -189 88q-44 0 -75 -17t-41 -47q-3 -9 -3 -21
q0 -65 126 -92q290 -62 290 -271q0 -33 -7 -67q-27 -141 -158.5 -233t-314.5 -92q-131 0 -236.5 45.5t-162.5 126.5zM710 1164h-236l-226 342h297l86 -140l140 140h297z" />
    <glyph glyph-name="Tcommaaccent" unicode="&#x162;" horiz-adv-x="1118" 
d="M293 0l216 1114h-343l56 286h1018l-56 -286h-343l-216 -1114l-95 -109q68 -19 106.5 -62t38.5 -100q0 -17 -3 -33q-18 -92 -115 -154t-224 -62q-132 0 -203 64l111 129q42 -37 111 -37q40 0 68.5 17.5t33.5 46.5q1 4 1 12q0 24 -21 38t-57 14q-39 0 -63 -4l-43 59
l132 181h-110z" />
    <glyph glyph-name="tcommaaccent" unicode="&#x163;" horiz-adv-x="802" 
d="M292 -300q1 4 1 12q0 24 -21 38t-57 14q-39 0 -63 -4l-43 59l151 207q-112 71 -112 223q0 38 10 93l81 416h-150l54 278h150l53 272l327 28l-58 -300h227l-54 -278h-227l-75 -383q-4 -21 -4 -37q0 -84 114 -84q64 0 107 6l-51 -263q-71 -21 -181 -21q-20 0 -30 1l-73 -86
q68 -19 106.5 -62t38.5 -100q0 -17 -3 -33q-18 -92 -115 -154t-224 -62q-132 0 -203 64l111 129q42 -37 111 -37q40 0 68.5 17.5t33.5 46.5z" />
    <glyph glyph-name="Tcaron" unicode="&#x164;" horiz-adv-x="1118" 
d="M293 0l216 1114h-343l56 286h1018l-56 -286h-343l-216 -1114h-332zM870 1508h-236l-226 342h297l86 -140l140 140h297z" />
    <glyph glyph-name="tcaron" unicode="&#x165;" horiz-adv-x="1178" 
d="M561 758l-75 -383q-4 -21 -4 -37q0 -84 114 -84q64 0 107 6l-51 -263q-71 -21 -181 -21q-156 0 -239.5 71t-83.5 202q0 38 10 93l81 416h-150l54 278h150l53 272l327 28l-58 -300h227l-54 -278h-227zM946 1307q14 75 75 126t137 51q65 0 106 -40t41 -102q0 -23 -4 -39
q-8 -38 -37 -80l-208 -308h-188l156 232q-82 38 -82 126q0 12 4 34z" />
    <glyph glyph-name="Tbar" unicode="&#x166;" horiz-adv-x="1118" 
d="M956 579h-219l-112 -579h-332l112 579h-219l40 207h219l64 328h-343l56 286h1018l-56 -286h-343l-64 -328h219z" />
    <glyph glyph-name="tbar" unicode="&#x167;" horiz-adv-x="802" 
d="M51 430l35 182h124l33 166h-150l50 258h150l53 272l327 28l-58 -300h227l-50 -258h-227l-33 -166h184l-35 -182h-184l-14 -75q-4 -17 -4 -36q0 -85 113 -85q59 0 107 6l-47 -243q-82 -20 -197 -20q-147 0 -227.5 69t-80.5 196q0 42 9 90l19 98h-124z" />
    <glyph glyph-name="Utilde" unicode="&#x168;" horiz-adv-x="1346" 
d="M1383 1400l-182 -934q-42 -212 -224 -350t-409 -138q-200 0 -326 109t-126 285q0 46 9 94l182 934h332l-182 -932q-4 -20 -4 -43q0 -72 47 -115.5t124 -43.5q88 0 158 56.5t87 145.5l182 932h332zM886 1555q-57 36 -84 36q-39 0 -69 -72l-238 48q89 236 266 236
q73 0 142 -43q57 -35 85 -35q38 0 68 71l238 -48q-88 -236 -266 -236q-73 0 -142 43z" />
    <glyph glyph-name="utilde" unicode="&#x169;" horiz-adv-x="1232" 
d="M684 0l20 107q-59 -60 -138 -95.5t-159 -35.5q-153 0 -244 87.5t-91 232.5q0 43 9 91l126 649h322l-118 -606q-3 -18 -3 -36q0 -59 37 -97.5t106 -38.5q54 0 111 34t94 83l129 661h322l-201 -1036h-322zM750 1226q-57 36 -84 36q-39 0 -69 -72l-238 48q89 236 266 236
q73 0 142 -43q57 -35 85 -35q38 0 68 71l238 -48q-88 -236 -266 -236q-73 0 -142 43z" />
    <glyph glyph-name="Umacron" unicode="&#x16a;" horiz-adv-x="1346" 
d="M1383 1400l-182 -934q-42 -212 -224 -350t-409 -138q-200 0 -326 109t-126 285q0 46 9 94l182 934h332l-182 -932q-4 -20 -4 -43q0 -72 47 -115.5t124 -43.5q88 0 158 56.5t87 145.5l182 932h332zM552 1543l46 236h640l-46 -236h-640z" />
    <glyph glyph-name="umacron" unicode="&#x16b;" horiz-adv-x="1232" 
d="M684 0l20 107q-59 -60 -138 -95.5t-159 -35.5q-153 0 -244 87.5t-91 232.5q0 43 9 91l126 649h322l-118 -606q-3 -18 -3 -36q0 -59 37 -97.5t106 -38.5q54 0 111 34t94 83l129 661h322l-201 -1036h-322zM420 1219l46 236h640l-46 -236h-640z" />
    <glyph glyph-name="Ubreve" unicode="&#x16c;" horiz-adv-x="1346" 
d="M1383 1400l-182 -934q-42 -212 -224 -350t-409 -138q-200 0 -326 109t-126 285q0 46 9 94l182 934h332l-182 -932q-4 -20 -4 -43q0 -72 47 -115.5t124 -43.5q88 0 158 56.5t87 145.5l182 932h332zM862 1488q-133 0 -222 75t-89 193q0 22 4 46h257q-2 -10 -2 -20
q0 -41 25.5 -66t66.5 -25q46 0 84 31.5t48 79.5h257q-32 -136 -157 -225t-272 -89z" />
    <glyph glyph-name="ubreve" unicode="&#x16d;" horiz-adv-x="1232" 
d="M684 0l20 107q-59 -60 -138 -95.5t-159 -35.5q-153 0 -244 87.5t-91 232.5q0 43 9 91l126 649h322l-118 -606q-3 -18 -3 -36q0 -59 37 -97.5t106 -38.5q54 0 111 34t94 83l129 661h322l-201 -1036h-322zM727 1164q-133 0 -222 75t-89 193q0 22 4 46h257q-2 -10 -2 -20
q0 -41 25.5 -66t66.5 -25q46 0 84 31.5t48 79.5h257q-32 -136 -157 -225t-272 -89z" />
    <glyph glyph-name="Uring" unicode="&#x16e;" horiz-adv-x="1346" 
d="M1383 1400l-182 -934q-42 -212 -224 -350t-409 -138q-200 0 -326 109t-126 285q0 46 9 94l182 934h332l-182 -932q-4 -20 -4 -43q0 -72 47 -115.5t124 -43.5q88 0 158 56.5t87 145.5l182 932h332zM837 1686q-1 -5 -1 -12q0 -22 14.5 -35.5t38.5 -13.5q28 0 48.5 17.5
t25.5 43.5q1 6 1 13q0 21 -14 34.5t-38 13.5q-28 0 -49 -17.5t-26 -43.5zM664 1686q18 92 98 153.5t180 61.5q89 0 143.5 -49t54.5 -125q0 -22 -4 -41q-17 -91 -97 -153.5t-181 -62.5q-89 0 -143.5 49.5t-54.5 126.5q0 20 4 40z" />
    <glyph glyph-name="uring" unicode="&#x16f;" horiz-adv-x="1232" 
d="M684 0l20 107q-59 -60 -138 -95.5t-159 -35.5q-153 0 -244 87.5t-91 232.5q0 43 9 91l126 649h322l-118 -606q-3 -18 -3 -36q0 -59 37 -97.5t106 -38.5q54 0 111 34t94 83l129 661h322l-201 -1036h-322zM697 1362q-1 -5 -1 -12q0 -22 14.5 -35.5t38.5 -13.5
q28 0 48.5 17.5t25.5 43.5q1 6 1 13q0 21 -14 34.5t-38 13.5q-28 0 -49 -17.5t-26 -43.5zM524 1362q18 92 98 153.5t180 61.5q89 0 143.5 -49t54.5 -125q0 -22 -4 -41q-17 -91 -97 -153.5t-181 -62.5q-89 0 -143.5 49.5t-54.5 126.5q0 20 4 40z" />
    <glyph glyph-name="Uhungarumlaut" unicode="&#x170;" horiz-adv-x="1346" 
d="M1383 1400l-182 -934q-42 -212 -224 -350t-409 -138q-200 0 -326 109t-126 285q0 46 9 94l182 934h332l-182 -932q-4 -20 -4 -43q0 -72 47 -115.5t124 -43.5q88 0 158 56.5t87 145.5l182 932h332zM532 1546l316 342h288l-332 -342h-272zM901 1546l315 342h289l-332 -342
h-272z" />
    <glyph glyph-name="uhungarumlaut" unicode="&#x171;" horiz-adv-x="1232" 
d="M684 0l20 107q-59 -60 -138 -95.5t-159 -35.5q-153 0 -244 87.5t-91 232.5q0 43 9 91l126 649h322l-118 -606q-3 -18 -3 -36q0 -59 37 -97.5t106 -38.5q54 0 111 34t94 83l129 661h322l-201 -1036h-322zM403 1202l316 342h288l-332 -342h-272zM772 1202l315 342h289
l-332 -342h-272z" />
    <glyph glyph-name="Uogonek" unicode="&#x172;" horiz-adv-x="1346" 
d="M1383 1400l-182 -934q-34 -172 -164.5 -298.5t-308.5 -169.5q-179 -126 -197 -215q-1 -6 -1 -17q0 -28 18.5 -44t48.5 -16q43 0 86 23l31 -138q-84 -49 -189 -49q-101 0 -164 49t-63 125q0 16 3 34q22 121 193 232q-170 20 -274 126t-104 264q0 46 9 94l182 934h332
l-182 -932q-4 -20 -4 -43q0 -72 47 -115.5t124 -43.5q88 0 158 56.5t87 145.5l182 932h332z" />
    <glyph glyph-name="uogonek" unicode="&#x173;" horiz-adv-x="1232" 
d="M684 0l20 107q-59 -60 -138 -95.5t-159 -35.5q-153 0 -244 87.5t-91 232.5q0 43 9 91l126 649h322l-118 -606q-3 -18 -3 -36q0 -59 37 -97.5t106 -38.5q54 0 111 34t94 83l129 661h322l-201 -1036q-184 -128 -201 -217q-1 -6 -1 -17q0 -28 18.5 -44t48.5 -16q43 0 86 23
l31 -138q-84 -49 -189 -49q-101 0 -164 49t-63 125q0 16 3 34q13 68 73.5 133t148.5 117h-113z" />
    <glyph glyph-name="Wcircumflex" unicode="&#x174;" horiz-adv-x="1984" 
d="M998 1400h332l50 -954l406 954h343l-650 -1400h-337l-66 951l-434 -951h-337l-106 1400h343l34 -954zM1133 1850h236l226 -342h-297l-86 140l-140 -140h-297z" />
    <glyph glyph-name="wcircumflex" unicode="&#x175;" horiz-adv-x="1612" 
d="M749 1036h316l25 -648l279 648h326l-505 -1036h-331l-36 604l-270 -604h-331l-103 1036h326l27 -648zM884 1526h236l226 -342h-297l-86 140l-140 -140h-297z" />
    <glyph glyph-name="Ycircumflex" unicode="&#x176;" horiz-adv-x="1316" 
d="M558 1400l167 -536l377 536h359l-630 -846l-107 -554h-332l107 554l-300 846h359zM799 1850h236l226 -342h-297l-86 140l-140 -140h-297z" />
    <glyph glyph-name="ycircumflex" unicode="&#x177;" horiz-adv-x="1092" 
d="M347 -464h-337l278 464l-169 1036h336l69 -627l315 627h336zM623 1526h236l226 -342h-297l-86 140l-140 -140h-297z" />
    <glyph glyph-name="Ydieresis" unicode="&#x178;" horiz-adv-x="1316" 
d="M558 1400l167 -536l377 536h359l-630 -846l-107 -554h-332l107 554l-300 846h359zM517 1664q13 67 69 113.5t124 46.5q60 0 97 -36.5t37 -92.5q0 -15 -3 -31q-13 -68 -68.5 -114t-124.5 -46q-60 0 -97 36t-37 92q0 16 3 32zM921 1664q13 67 69 113.5t124 46.5
q60 0 97 -36.5t37 -92.5q0 -15 -3 -31q-13 -68 -68.5 -114t-124.5 -46q-60 0 -97 36t-37 92q0 16 3 32z" />
    <glyph glyph-name="Zacute" unicode="&#x179;" horiz-adv-x="1226" 
d="M57 266l774 848h-579l56 286h974l-52 -266l-774 -848h629l-55 -286h-1024zM582 1508l316 342h323l-337 -342h-302z" />
    <glyph glyph-name="zacute" unicode="&#x17a;" horiz-adv-x="1032" 
d="M-19 0l47 246l552 514h-426l54 276h820l-48 -246l-552 -514h472l-53 -276h-866zM417 1184l316 342h323l-337 -342h-302z" />
    <glyph glyph-name="Zdotaccent" unicode="&#x17b;" horiz-adv-x="1226" 
d="M57 266l774 848h-579l56 286h974l-52 -266l-774 -848h629l-55 -286h-1024zM676 1664q14 69 71.5 117t127.5 48q62 0 100 -37.5t38 -95.5q0 -16 -3 -32q-14 -69 -71.5 -117t-127.5 -48q-62 0 -100 37.5t-38 95.5q0 16 3 32z" />
    <glyph glyph-name="zdotaccent" unicode="&#x17c;" horiz-adv-x="1032" 
d="M-19 0l47 246l552 514h-426l54 276h820l-48 -246l-552 -514h472l-53 -276h-866zM510 1340q14 69 71.5 117t127.5 48q62 0 100 -37.5t38 -95.5q0 -16 -3 -32q-14 -69 -71.5 -117t-127.5 -48q-62 0 -100 37.5t-38 95.5q0 16 3 32z" />
    <glyph glyph-name="Zcaron" unicode="&#x17d;" horiz-adv-x="1226" 
d="M57 266l774 848h-579l56 286h974l-52 -266l-774 -848h629l-55 -286h-1024zM924 1508h-236l-226 342h297l86 -140l140 140h297z" />
    <glyph glyph-name="zcaron" unicode="&#x17e;" horiz-adv-x="1032" 
d="M-19 0l47 246l552 514h-426l54 276h820l-48 -246l-552 -514h472l-53 -276h-866zM751 1164h-236l-226 342h297l86 -140l140 140h297z" />
    <glyph glyph-name="longs" unicode="&#x17f;" horiz-adv-x="770" 
d="M919 1448l-47 -242q-34 6 -94 6q-133 0 -156 -120l-212 -1092h-322l147 758h-146l54 278h146l12 61q34 176 161.5 269.5t330.5 93.5q75 0 126 -12z" />
    <glyph glyph-name="uni0191" unicode="&#x191;" horiz-adv-x="1084" 
d="M482 532l-121 -623q-34 -174 -165 -273.5t-325 -99.5q-87 0 -139 12l53 276q39 -6 95 -6q131 0 155 125l284 1457h872l-56 -284h-540l-58 -300h492l-55 -284h-492z" />
    <glyph glyph-name="florin" unicode="&#x192;" horiz-adv-x="780" 
d="M557 758l-167 -859q-34 -176 -162 -269.5t-330 -93.5q-75 0 -125 12l47 242q34 -6 93 -6q132 0 156 120l166 854h-146l54 278h146l12 61q34 176 161.5 269.5t330.5 93.5q75 0 126 -12l-47 -242q-34 6 -94 6q-133 0 -156 -120l-11 -56h228l-54 -278h-228z" />
    <glyph glyph-name="Aringacute" unicode="&#x1fa;" horiz-adv-x="1390" 
d="M641 1453q18 92 98 153.5t180 61.5q89 0 143.5 -49t54.5 -125q0 -22 -4 -41q-13 -68 -64 -122l214 -1331h-346l-35 292h-462l-147 -292h-346l729 1331q-19 36 -19 81q0 22 4 41zM857 552l-58 500l-252 -500h310zM1038 1698h-267l229 252h286zM814 1453q-1 -5 -1 -13
q0 -21 14 -34.5t38 -13.5q28 0 49 17.5t26 43.5q1 5 1 13q0 21 -14 34.5t-38 13.5q-28 0 -49 -17.5t-26 -43.5z" />
    <glyph glyph-name="aringacute" unicode="&#x1fb;" horiz-adv-x="1319" 
d="M726 1325q-1 -5 -1 -13q0 -22 14 -36t38 -14q27 0 48.5 18t26.5 45q1 5 1 13q0 22 -14 36t-38 14q-27 0 -48.5 -18t-26.5 -45zM563 1325q17 88 93.5 148t172.5 60q84 0 137 -47.5t53 -121.5q0 -22 -4 -39q-17 -88 -93.5 -148t-172.5 -60q-84 0 -137 47.5t-53 121.5
q0 22 4 39zM946 1568h-266l239 262h285zM591 258q79 0 149.5 39.5t114.5 105.5l44 229q-18 66 -73.5 106t-133.5 40q-111 0 -200.5 -74.5t-111.5 -185.5q-5 -30 -5 -52q0 -92 59.5 -150t156.5 -58zM777 0l18 96q-150 -120 -335 -120t-297.5 120.5t-112.5 306.5q0 60 11 115
q45 227 220.5 384.5t389.5 157.5q89 0 164 -31.5t124 -88.5l19 96h316l-201 -1036h-316z" />
    <glyph glyph-name="AEacute" unicode="&#x1fc;" horiz-adv-x="1880" 
d="M257 0h-352l1029 1400h1005l-55 -280h-550l-54 -278h502l-53 -276h-502l-56 -286h568l-54 -280h-895l56 292h-385zM994 1052l-353 -500h256zM920 1508l316 342h323l-337 -342h-302z" />
    <glyph glyph-name="aeacute" unicode="&#x1fd;" horiz-adv-x="2046" 
d="M1953 429h-778v-9q0 -94 60 -148t164 -54q151 0 304 123l139 -177q-209 -188 -494 -188q-141 0 -248 54.5t-165 147.5q-85 -94 -212 -148t-265 -54q-194 0 -316.5 85.5t-122.5 216.5q0 23 5 51q28 141 183.5 237t353.5 96q147 0 287 -75l3 18q4 28 4 40q0 78 -64 125.5
t-172 47.5q-181 0 -345 -115l-60 210q95 70 217 108.5t243 38.5q138 0 242.5 -53.5t153.5 -147.5q94 93 218 147t255 54q206 0 331 -119t125 -304q0 -52 -10 -102q-11 -57 -36 -106zM342 329q-1 -5 -1 -15q0 -47 53 -77t139 -30q159 0 258 99l13 69q-76 76 -224 76
q-93 0 -160 -35t-78 -87zM1492 818q-88 0 -160.5 -49.5t-112.5 -136.5h461q-2 87 -51 136.5t-137 49.5zM929 1184l316 342h323l-337 -342h-302z" />
    <glyph glyph-name="Oslashacute" unicode="&#x1fe;" horiz-adv-x="1660" 
d="M110 700q39 201 170 367t323 261.5t403 95.5q191 0 343 -84l116 120h246l-221 -229q146 -159 146 -391q0 -65 -14 -140q-39 -201 -170.5 -367t-323.5 -261.5t-403 -95.5q-206 0 -362 93l-125 -129h-246l236 243q-132 154 -132 374q0 74 14 143zM1288 700q9 48 9 92
q0 109 -50 189l-650 -671q78 -46 184 -46q179 0 324.5 125t182.5 311zM444 700q-10 -55 -10 -94q0 -93 39 -169l643 663q-75 36 -166 36q-179 0 -324.5 -125t-181.5 -311zM825 1508l316 342h323l-337 -342h-302z" />
    <glyph glyph-name="oslashacute" unicode="&#x1ff;" horiz-adv-x="1282" 
d="M61 518q22 112 86 212.5t155 173t207 114.5t238 42q139 0 251 -57l92 93h228l-189 -193q102 -118 102 -282q0 -53 -10 -103q-29 -150 -128.5 -274.5t-246.5 -196t-310 -71.5q-142 0 -254 57l-91 -93h-228l188 193q-100 117 -100 282q0 53 10 103zM927 518q6 28 6 54
q0 56 -24 104l-416 -426q42 -17 93 -17q121 0 219.5 82.5t121.5 202.5zM355 518q-5 -25 -5 -57q0 -57 21 -101l415 425q-43 18 -89 18q-121 0 -220 -82.5t-122 -202.5zM577 1184l316 342h323l-337 -342h-302z" />
    <glyph glyph-name="Scommaaccent" unicode="&#x218;" horiz-adv-x="1200" 
d="M22 200l222 222q58 -77 140 -122.5t174 -45.5q81 0 143.5 40t75.5 103q3 15 3 29q0 54 -51.5 94t-176.5 68q-169 38 -260 125t-91 216q0 33 8 76q35 181 192 300t365 119q137 0 249.5 -47t188.5 -131l-213 -230q-129 134 -264 134q-66 0 -117.5 -34t-61.5 -85
q-3 -13 -3 -27q0 -51 48 -87.5t160 -63.5q370 -90 370 -355q0 -40 -9 -85q-37 -191 -204 -314t-405 -123q-157 0 -282.5 59t-200.5 165zM427 -470h-291l223 342h333z" />
    <glyph glyph-name="scommaaccent" unicode="&#x219;" horiz-adv-x="953" 
d="M-17 148l184 190q38 -54 100 -86t136 -32q57 0 94 21t47 57q3 10 3 21q0 32 -32.5 54t-107.5 38q-135 30 -205.5 99.5t-70.5 172.5q0 31 7 66q27 136 151 223.5t294 87.5q104 0 194.5 -38.5t155.5 -103.5l-179 -190q-90 88 -189 88q-44 0 -75 -17t-41 -47q-3 -9 -3 -21
q0 -65 126 -92q290 -62 290 -271q0 -33 -7 -67q-27 -141 -158.5 -233t-314.5 -92q-131 0 -236.5 45.5t-162.5 126.5zM293 -470h-291l223 342h333z" />
    <glyph glyph-name="uni021A" unicode="&#x21a;" horiz-adv-x="1118" 
d="M293 0l216 1114h-343l56 286h1018l-56 -286h-343l-216 -1114h-332zM365 -470h-291l223 342h333z" />
    <glyph glyph-name="uni021B" unicode="&#x21b;" horiz-adv-x="802" 
d="M561 758l-75 -383q-4 -21 -4 -37q0 -84 114 -84q64 0 107 6l-51 -263q-71 -21 -181 -21q-156 0 -239.5 71t-83.5 202q0 38 10 93l81 416h-150l54 278h150l53 272l327 28l-58 -300h227l-54 -278h-227zM229 -470h-291l223 342h333z" />
    <glyph glyph-name="dotlessj" unicode="&#x237;" horiz-adv-x="576" 
d="M13 -72l215 1108h322l-222 -1140q-33 -174 -148 -267t-291 -93q-62 0 -113 11l52 267h55q54 0 86 27t44 87z" />
    <glyph glyph-name="apostrophe" unicode="&#x2bc;" horiz-adv-x="860" 
d="M409 1307q14 75 75 126t137 51q65 0 106 -40t41 -102q0 -23 -4 -39q-8 -38 -37 -80l-208 -308h-188l156 232q-82 38 -82 126q0 12 4 34z" />
    <glyph glyph-name="circumflex" unicode="&#x2c6;" horiz-adv-x="860" 
d="M495 1460h236l226 -342h-297l-86 140l-140 -140h-297z" />
    <glyph glyph-name="caron" unicode="&#x2c7;" horiz-adv-x="860" 
d="M665 1118h-236l-226 342h297l86 -140l140 140h297z" />
    <glyph glyph-name="uni02C9" unicode="&#x2c9;" horiz-adv-x="860" 
d="M237 1170l46 236h640l-46 -236h-640z" />
    <glyph glyph-name="breve" unicode="&#x2d8;" horiz-adv-x="860" 
d="M548 1126q-133 0 -222 75t-89 193q0 22 4 46h257q-2 -10 -2 -20q0 -41 25.5 -66t66.5 -25q46 0 84 31.5t48 79.5h257q-32 -136 -157 -225t-272 -89z" />
    <glyph glyph-name="dotaccent" unicode="&#x2d9;" horiz-adv-x="860" 
d="M414 1292q14 69 71.5 117t127.5 48q62 0 100 -37.5t38 -95.5q0 -16 -3 -32q-14 -69 -71.5 -117t-127.5 -48q-62 0 -100 37.5t-38 95.5q0 16 3 32z" />
    <glyph glyph-name="ring" unicode="&#x2da;" horiz-adv-x="860" 
d="M516 1286q-1 -5 -1 -12q0 -22 14.5 -35.5t38.5 -13.5q28 0 48.5 17.5t25.5 43.5q1 6 1 13q0 21 -14 34.5t-38 13.5q-28 0 -49 -17.5t-26 -43.5zM343 1286q18 92 98 153.5t180 61.5q89 0 143.5 -49t54.5 -125q0 -22 -4 -41q-17 -91 -97 -153.5t-181 -62.5
q-89 0 -143.5 49.5t-54.5 126.5q0 20 4 40z" />
    <glyph glyph-name="ogonek" unicode="&#x2db;" horiz-adv-x="860" 
d="M292 0h209q-184 -128 -201 -217q-1 -6 -1 -17q0 -28 18.5 -44t48.5 -16q43 0 86 23l31 -138q-84 -49 -189 -49q-101 0 -164 49t-63 125q0 16 3 34q13 68 73.5 133t148.5 117z" />
    <glyph glyph-name="tilde" unicode="&#x2dc;" horiz-adv-x="860" 
d="M570 1180q-57 36 -84 36q-39 0 -69 -72l-238 48q89 236 266 236q73 0 142 -43q57 -35 85 -35q38 0 68 71l238 -48q-88 -236 -266 -236q-73 0 -142 43z" />
    <glyph glyph-name="hungarumlaut" unicode="&#x2dd;" horiz-adv-x="860" 
d="M136 1118l316 342h288l-332 -342h-272zM505 1118l315 342h289l-332 -342h-272z" />
    <glyph glyph-name="gravecomb" unicode="&#x300;" horiz-adv-x="0" 
d="M-255 1460l183 -342h-302l-205 342h324z" />
    <glyph glyph-name="acutecomb" unicode="&#x301;" horiz-adv-x="0" 
d="M-554 1118l316 342h323l-337 -342h-302z" />
    <glyph glyph-name="uni0302" unicode="&#x302;" horiz-adv-x="0" 
d="M-365 1460h236l226 -342h-297l-86 140l-140 -140h-297z" />
    <glyph glyph-name="tildecomb" unicode="&#x303;" horiz-adv-x="0" 
d="M-290 1180q-57 36 -84 36q-39 0 -69 -72l-238 48q89 236 266 236q73 0 142 -43q57 -35 85 -35q38 0 68 71l238 -48q-88 -236 -266 -236q-73 0 -142 43z" />
    <glyph glyph-name="uni0304" unicode="&#x304;" horiz-adv-x="0" 
d="M-623 1171l46 236h640l-46 -236h-640z" />
    <glyph glyph-name="uni0306" unicode="&#x306;" horiz-adv-x="0" 
d="M-312 1126q-133 0 -222 75t-89 193q0 22 4 46h257q-2 -10 -2 -20q0 -41 25.5 -66t66.5 -25q46 0 84 31.5t48 79.5h257q-32 -136 -157 -225t-272 -89z" />
    <glyph glyph-name="uni0307" unicode="&#x307;" horiz-adv-x="0" 
d="M-446 1292q14 69 71.5 117t127.5 48q62 0 100 -37.5t38 -95.5q0 -16 -3 -32q-14 -69 -71.5 -117t-127.5 -48q-62 0 -100 37.5t-38 95.5q0 16 3 32z" />
    <glyph glyph-name="uni0308" unicode="&#x308;" horiz-adv-x="0" 
d="M-643 1292q13 67 69 113.5t124 46.5q60 0 97 -36.5t37 -92.5q0 -15 -3 -31q-13 -68 -68.5 -114t-124.5 -46q-60 0 -97 36t-37 92q0 16 3 32zM-239 1292q13 67 69 113.5t124 46.5q60 0 97 -36.5t37 -92.5q0 -15 -3 -31q-13 -68 -68.5 -114t-124.5 -46q-60 0 -97 36t-37 92
q0 16 3 32z" />
    <glyph glyph-name="uni030A" unicode="&#x30a;" horiz-adv-x="0" 
d="M-344 1286q-1 -5 -1 -12q0 -22 14.5 -35.5t38.5 -13.5q28 0 48.5 17.5t25.5 43.5q1 6 1 13q0 21 -14 34.5t-38 13.5q-28 0 -49 -17.5t-26 -43.5zM-517 1286q18 92 98 153.5t180 61.5q89 0 143.5 -49t54.5 -125q0 -22 -4 -41q-17 -91 -97 -153.5t-181 -62.5
q-89 0 -143.5 49.5t-54.5 126.5q0 20 4 40z" />
    <glyph glyph-name="uni030C" unicode="&#x30c;" horiz-adv-x="0" 
d="M-195 1118h-236l-226 342h297l86 -140l140 140h297z" />
    <glyph glyph-name="uni0327" unicode="&#x327;" horiz-adv-x="0" 
d="M-552 -300q1 4 1 12q0 24 -21 38t-57 14q-39 0 -63 -4l-43 59l132 181h222l-95 -109q68 -19 106.5 -62t38.5 -100q0 -17 -3 -33q-18 -92 -115 -154t-224 -62q-132 0 -203 64l111 129q42 -37 111 -37q40 0 68.5 17.5t33.5 46.5z" />
    <glyph glyph-name="tonos" unicode="&#x384;" horiz-adv-x="860" 
d="M607 1088h-300l221 372h339z" />
    <glyph glyph-name="dieresistonos" unicode="&#x385;" horiz-adv-x="860" 
d="M209 1142q12 62 64 104t118 42q57 0 92 -32.5t35 -84.5q0 -14 -3 -29q-11 -61 -63 -103t-118 -42q-58 0 -93 33t-35 85q0 13 3 27zM587 1142q12 62 64 104t118 42q57 0 92 -32.5t35 -84.5q0 -14 -3 -29q-11 -61 -63 -103t-118 -42q-58 0 -93 33t-35 85q0 13 3 27z
M694 1314h-266l239 262h285z" />
    <glyph glyph-name="Alphatonos" unicode="&#x386;" horiz-adv-x="1507" 
d="M802 1400h364l214 -1400h-346l-35 292h-462l-147 -292h-346zM974 552l-58 500l-252 -500h310zM421 1028h-300l221 372h339z" />
    <glyph glyph-name="anoteleia" unicode="&#x387;" horiz-adv-x="606" 
d="M138 653q16 79 80 131.5t146 52.5q72 0 116 -41.5t44 -106.5q0 -16 -4 -36q-16 -78 -80.5 -131t-146.5 -53q-71 0 -115 41t-44 105q0 18 4 38z" />
    <glyph glyph-name="Epsilontonos" unicode="&#x388;" horiz-adv-x="1569" 
d="M464 0l272 1400h892l-55 -280h-560l-54 -278h512l-53 -276h-512l-56 -286h578l-54 -280h-910zM421 1028h-300l221 372h339z" />
    <glyph glyph-name="Etatonos" unicode="&#x389;" horiz-adv-x="1839" 
d="M464 0l272 1400h332l-108 -553h464l108 553h332l-272 -1400h-332l109 561h-464l-109 -561h-332zM421 1028h-300l221 372h339z" />
    <glyph glyph-name="Iotatonos" unicode="&#x38a;" horiz-adv-x="1048" 
d="M736 1400h332l-272 -1400h-332zM421 1028h-300l221 372h339z" />
    <glyph glyph-name="Omicrontonos" unicode="&#x38c;" horiz-adv-x="1937" 
d="M721 700q-9 -48 -9 -93q0 -151 96 -247t250 -96q179 0 324.5 125t182.5 311q9 47 9 91q0 152 -96 248.5t-251 96.5q-179 0 -324.5 -125t-181.5 -311zM387 700q39 201 170 367t323 261.5t403 95.5q281 0 455.5 -164t174.5 -420q0 -65 -14 -140q-39 -201 -170.5 -367
t-323.5 -261.5t-403 -95.5q-280 0 -454.5 164t-174.5 419q0 72 14 141zM421 1028h-300l221 372h339z" />
    <glyph glyph-name="Upsilontonos" unicode="&#x38e;" horiz-adv-x="1828" 
d="M1070 1400l167 -536l377 536h359l-630 -846l-107 -554h-332l107 554l-300 846h359zM421 1028h-300l221 372h339z" />
    <glyph glyph-name="Omegatonos" unicode="&#x38f;" horiz-adv-x="1912" 
d="M1537 731q8 37 8 83q0 141 -89.5 231.5t-233.5 90.5q-166 0 -302 -117.5t-169 -287.5q-9 -50 -9 -95q0 -119 58.5 -214t167.5 -152l-52 -270h-620l55 288h252q-191 141 -191 368q0 50 11 110q27 136 107 258t194 209.5t259 139t295 51.5q270 0 440.5 -152.5t170.5 -386.5
q0 -57 -12 -119q-59 -302 -366 -478h252l-55 -288h-620l52 270q157 68 262.5 190t134.5 271zM421 1028h-300l221 372h339z" />
    <glyph glyph-name="iotadieresistonos" unicode="&#x390;" horiz-adv-x="624" 
d="M85 300l143 736h322l-128 -660q-3 -16 -3 -29q0 -67 79 -67h38l-54 -275q-43 -5 -104 -5q-301 0 -301 219q0 42 8 81zM92 1276q12 62 64 104t118 42q57 0 92 -32.5t35 -84.5q0 -14 -3 -29q-11 -61 -63 -103t-118 -42q-58 0 -93 33t-35 85q0 13 3 27zM470 1276
q12 62 64 104t118 42q57 0 92 -32.5t35 -84.5q0 -14 -3 -29q-11 -61 -63 -103t-118 -42q-58 0 -93 33t-35 85q0 13 3 27zM577 1448h-266l239 262h285z" />
    <glyph glyph-name="Alpha" unicode="&#x391;" horiz-adv-x="1390" 
d="M685 1400h364l214 -1400h-346l-35 292h-462l-147 -292h-346zM857 552l-58 500l-252 -500h310z" />
    <glyph glyph-name="Beta" unicode="&#x392;" horiz-adv-x="1258" 
d="M653 0h-606l272 1400h542q169 0 263.5 -80t94.5 -217q0 -43 -8 -82q-19 -100 -81 -174.5t-148 -108.5q86 -24 136.5 -91.5t50.5 -163.5q0 -38 -7 -74q-35 -179 -176.5 -294t-332.5 -115zM893 989q4 17 4 37q0 52 -31.5 80t-84.5 28h-192l-56 -290h192q63 0 109 38.5
t59 106.5zM838 427q4 19 4 40q0 56 -33.5 88.5t-89.5 32.5h-236l-63 -322h236q66 0 117 44.5t65 116.5z" />
    <glyph glyph-name="Gamma" unicode="&#x393;" horiz-adv-x="1048" 
d="M47 0l272 1400h871l-56 -286h-539l-216 -1114h-332z" />
    <glyph glyph-name="uni0394" unicode="&#x394;" horiz-adv-x="1390" 
d="M1049 1400l214 -1400h-1336l758 1400h364zM799 1052l-398 -778h493z" />
    <glyph glyph-name="Epsilon" unicode="&#x395;" horiz-adv-x="1152" 
d="M47 0l272 1400h892l-55 -280h-560l-54 -278h512l-53 -276h-512l-56 -286h578l-54 -280h-910z" />
    <glyph glyph-name="Zeta" unicode="&#x396;" horiz-adv-x="1226" 
d="M57 266l774 848h-579l56 286h974l-52 -266l-774 -848h629l-55 -286h-1024z" />
    <glyph glyph-name="Eta" unicode="&#x397;" horiz-adv-x="1422" 
d="M47 0l272 1400h332l-108 -553h464l108 553h332l-272 -1400h-332l109 561h-464l-109 -561h-332z" />
    <glyph glyph-name="Theta" unicode="&#x398;" horiz-adv-x="1660" 
d="M563 572l49 256h556l-49 -256h-556zM110 700q39 201 170.5 367t323 261.5t402.5 95.5q281 0 455.5 -164t174.5 -420q0 -65 -14 -140q-29 -150 -113.5 -284.5t-203.5 -230.5t-270.5 -152.5t-309.5 -56.5q-280 0 -454.5 164t-174.5 419q0 72 14 141zM434 700q-9 -48 -9 -92
q0 -155 98.5 -254.5t255.5 -99.5q182 0 332.5 129t186.5 317q9 48 9 92q0 155 -98.5 254.5t-256.5 99.5q-182 0 -332 -128.5t-186 -317.5z" />
    <glyph glyph-name="Iota" unicode="&#x399;" horiz-adv-x="636" 
d="M324 1400h332l-272 -1400h-332z" />
    <glyph glyph-name="Kappa" unicode="&#x39a;" horiz-adv-x="1263" 
d="M651 1400l-107 -548h74l414 548h358l-525 -687l328 -713h-362l-258 566h-84l-110 -566h-332l272 1400h332z" />
    <glyph glyph-name="Lambda" unicode="&#x39b;" horiz-adv-x="1390" 
d="M1263 0h-346l-121 1037l-523 -1037h-346l758 1400h364z" />
    <glyph glyph-name="Mu" unicode="&#x39c;" horiz-adv-x="1726" 
d="M956 408h-228l-193 520l-180 -928h-308l272 1400h360l233 -632l479 632h360l-272 -1400h-308l180 928z" />
    <glyph glyph-name="Nu" unicode="&#x39d;" horiz-adv-x="1422" 
d="M47 0l272 1400h348l298 -892l174 892h308l-272 -1400h-348l-299 892l-173 -892h-308z" />
    <glyph glyph-name="Xi" unicode="&#x39e;" horiz-adv-x="1165" 
d="M232 1120l55 280h934l-55 -280h-934zM-5 0l54 280h975l-54 -280h-975zM986 566h-808l53 276h808z" />
    <glyph glyph-name="Omicron" unicode="&#x39f;" horiz-adv-x="1660" 
d="M444 700q-9 -48 -9 -93q0 -151 95.5 -247t250.5 -96q179 0 324.5 125t182.5 311q9 47 9 91q0 152 -96 248.5t-251 96.5q-179 0 -324.5 -125t-181.5 -311zM110 700q39 201 170 367t323 261.5t403 95.5q281 0 455.5 -164t174.5 -420q0 -65 -14 -140q-39 -201 -170.5 -367
t-323.5 -261.5t-403 -95.5q-280 0 -454.5 164t-174.5 419q0 72 14 141z" />
    <glyph glyph-name="Pi" unicode="&#x3a0;" horiz-adv-x="1370" 
d="M1395 1400l-272 -1400h-332l216 1114h-412l-216 -1114h-332l272 1400h1076z" />
    <glyph glyph-name="Rho" unicode="&#x3a1;" horiz-adv-x="1214" 
d="M655 468h-186l-90 -468h-332l272 1400h518q191 0 302 -100.5t111 -266.5q0 -50 -10 -99q-40 -205 -202.5 -335.5t-382.5 -130.5zM912 934q5 30 5 50q0 71 -43.5 111.5t-124.5 40.5h-150l-78 -404h150q94 0 159 55t82 147z" />
    <glyph glyph-name="Sigma" unicode="&#x3a3;" horiz-adv-x="1182" 
d="M66 310l413 392l-262 388l61 310h970l-56 -284h-597l236 -328l-34 -174l-365 -330h599l-55 -284h-970z" />
    <glyph glyph-name="Tau" unicode="&#x3a4;" horiz-adv-x="1118" 
d="M293 0l216 1114h-343l56 286h1018l-56 -286h-343l-216 -1114h-332z" />
    <glyph glyph-name="Upsilon" unicode="&#x3a5;" horiz-adv-x="1316" 
d="M558 1400l167 -536l377 536h359l-630 -846l-107 -554h-332l107 554l-300 846h359z" />
    <glyph glyph-name="Phi" unicode="&#x3a6;" horiz-adv-x="1556" 
d="M522 0l37 192q-211 0 -344.5 117t-133.5 298q0 45 9 91q28 141 125.5 257t240.5 182.5t300 66.5l38 196h312l-38 -196q211 0 344 -116.5t133 -297.5q0 -44 -9 -92q-27 -141 -124.5 -257t-240.5 -182.5t-300 -66.5l-37 -192h-312zM1222 698q4 19 4 42q0 81 -59 134
t-153 53l-89 -458q107 0 192.5 66.5t104.5 162.5zM404 698q-4 -19 -4 -42q0 -82 59 -134.5t154 -52.5l89 458q-107 0 -193 -66.5t-105 -162.5z" />
    <glyph glyph-name="Chi" unicode="&#x3a7;" horiz-adv-x="1302" 
d="M1182 0h-361l-175 490l-365 -490h-361l561 717l-266 683h361l158 -456l336 456h361l-532 -683z" />
    <glyph glyph-name="Psi" unicode="&#x3a8;" horiz-adv-x="1410" 
d="M1025 1400l-153 -785q74 33 127.5 99t69.5 148l105 538h296l-107 -549q-37 -193 -189.5 -339t-358.5 -190l-62 -322h-296l62 322q-163 37 -257.5 152.5t-94.5 274.5q0 52 10 102l107 549h296l-105 -538q-6 -31 -6 -57q0 -64 28 -114t79 -76l153 785h296z" />
    <glyph glyph-name="uni03A9" unicode="&#x3a9;" horiz-adv-x="1620" 
d="M1245 731q8 37 8 83q0 141 -89.5 231.5t-233.5 90.5q-166 0 -302 -117.5t-169 -287.5q-9 -50 -9 -95q0 -119 58.5 -214t167.5 -152l-52 -270h-620l55 288h252q-191 141 -191 368q0 50 11 110q27 136 107 258t194 209.5t259 139t295 51.5q270 0 440.5 -152.5t170.5 -386.5
q0 -57 -12 -119q-59 -302 -366 -478h252l-55 -288h-620l52 270q157 68 262.5 190t134.5 271z" />
    <glyph glyph-name="Iotadieresis" unicode="&#x3aa;" horiz-adv-x="636" 
d="M324 1400h332l-272 -1400h-332zM177 1664q13 67 69 113.5t124 46.5q60 0 97 -36.5t37 -92.5q0 -15 -3 -31q-13 -68 -68.5 -114t-124.5 -46q-60 0 -97 36t-37 92q0 16 3 32zM581 1664q13 67 69 113.5t124 46.5q60 0 97 -36.5t37 -92.5q0 -15 -3 -31q-13 -68 -68.5 -114
t-124.5 -46q-60 0 -97 36t-37 92q0 16 3 32z" />
    <glyph glyph-name="Upsilondieresis" unicode="&#x3ab;" horiz-adv-x="1316" 
d="M558 1400l167 -536l377 536h359l-630 -846l-107 -554h-332l107 554l-300 846h359zM517 1664q13 67 69 113.5t124 46.5q60 0 97 -36.5t37 -92.5q0 -15 -3 -31q-13 -68 -68.5 -114t-124.5 -46q-60 0 -97 36t-37 92q0 16 3 32zM921 1664q13 67 69 113.5t124 46.5
q60 0 97 -36.5t37 -92.5q0 -15 -3 -31q-13 -68 -68.5 -114t-124.5 -46q-60 0 -97 36t-37 92q0 16 3 32z" />
    <glyph glyph-name="alphatonos" unicode="&#x3ac;" horiz-adv-x="1388" 
d="M1300 280l-54 -275q-42 -5 -97 -5q-130 0 -200.5 32.5t-87.5 108.5q-171 -165 -395 -165q-188 0 -302 120.5t-114 306.5q0 61 11 115q45 227 220.5 384.5t389.5 157.5q89 0 164 -31.5t124 -88.5l19 96h316l-126 -650q-3 -15 -3 -27q0 -38 23 -58.5t65 -20.5h47zM591 258
q79 0 149.5 39.5t114.5 105.5l44 229q-18 66 -73.5 106t-133.5 40q-111 0 -200.5 -74.5t-111.5 -185.5q-5 -30 -5 -52q0 -92 59.5 -150t156.5 -58zM557 1184l316 342h323l-337 -342h-302z" />
    <glyph glyph-name="epsilontonos" unicode="&#x3ad;" horiz-adv-x="970" 
d="M329 318q-2 -12 -2 -18q0 -39 31 -63t79 -24q62 0 121.5 25.5t102.5 73.5l192 -150q-75 -87 -194.5 -136.5t-259.5 -49.5q-174 0 -283 77t-109 196q0 21 5 48q18 88 89 158t163 98q-58 22 -90 71t-32 108q0 19 4 39q25 123 155.5 206t302.5 83q135 0 224.5 -49.5
t118.5 -136.5l-268 -132q-10 36 -40.5 57.5t-75.5 21.5q-42 0 -77 -20.5t-41 -52.5q-1 -5 -1 -13q0 -29 24 -48.5t64 -19.5h159l-46 -238h-153q-57 0 -105.5 -32.5t-57.5 -78.5zM383 1184l316 342h323l-337 -342h-302z" />
    <glyph glyph-name="etatonos" unicode="&#x3ae;" horiz-adv-x="1232" 
d="M476 661l-128 -661h-322l201 1036h322l-21 -107q58 60 138 95.5t160 35.5q153 0 244 -87.5t91 -232.5q0 -43 -9 -91l-217 -1113h-322l208 1070q4 17 4 37q0 58 -37.5 96.5t-105.5 38.5q-54 0 -111 -34t-95 -83zM553 1184l316 342h323l-337 -342h-302z" />
    <glyph glyph-name="iotatonos" unicode="&#x3af;" horiz-adv-x="624" 
d="M85 300l143 736h322l-128 -660q-3 -16 -3 -29q0 -67 79 -67h38l-54 -275q-43 -5 -104 -5q-301 0 -301 219q0 42 8 81zM210 1184l316 342h323l-337 -342h-302z" />
    <glyph glyph-name="upsilondieresistonos" unicode="&#x3b0;" horiz-adv-x="1170" 
d="M480 -24q-178 0 -290.5 100t-112.5 254q0 35 8 78l122 628h322l-119 -611q-4 -19 -4 -37q0 -58 35.5 -94t93.5 -36q67 0 121 47.5t68 119.5l119 611h322l-122 -628q-23 -119 -105.5 -218.5t-204 -156.5t-253.5 -57zM393 1276q12 62 64 104t118 42q57 0 92 -32.5t35 -84.5
q0 -14 -3 -29q-11 -61 -63 -103t-118 -42q-58 0 -93 33t-35 85q0 13 3 27zM771 1276q12 62 64 104t118 42q57 0 92 -32.5t35 -84.5q0 -14 -3 -29q-11 -61 -63 -103t-118 -42q-58 0 -93 33t-35 85q0 13 3 27zM878 1448h-266l239 262h285z" />
    <glyph glyph-name="alpha" unicode="&#x3b1;" horiz-adv-x="1388" 
d="M1300 280l-54 -275q-42 -5 -97 -5q-130 0 -200.5 32.5t-87.5 108.5q-171 -165 -395 -165q-188 0 -302 120.5t-114 306.5q0 61 11 115q45 227 220.5 384.5t389.5 157.5q89 0 164 -31.5t124 -88.5l19 96h316l-126 -650q-3 -15 -3 -27q0 -38 23 -58.5t65 -20.5h47zM591 258
q79 0 149.5 39.5t114.5 105.5l44 229q-18 66 -73.5 106t-133.5 40q-111 0 -200.5 -74.5t-111.5 -185.5q-5 -30 -5 -52q0 -92 59.5 -150t156.5 -58z" />
    <glyph glyph-name="beta" unicode="&#x3b2;" horiz-adv-x="1221" 
d="M1137 1041q-17 -86 -84 -160.5t-165 -110.5q112 -20 181.5 -101t69.5 -200q0 -34 -8 -77q-34 -176 -178.5 -296t-320.5 -120q-96 0 -166 38.5t-93 106.5l-114 -585h-315l292 1500q32 166 182.5 277t342.5 111q170 0 276.5 -89t106.5 -227q0 -27 -7 -67zM821 1022
q3 16 3 30q0 48 -30.5 78t-81.5 30q-68 0 -111.5 -47.5t-59.5 -126.5l-96 -497q-8 -43 -8 -76q0 -79 39.5 -125t118.5 -46q77 0 137.5 50t75.5 127q4 17 4 38q0 75 -62.5 115.5t-173.5 40.5l50 261q81 1 132 43t63 105z" />
    <glyph glyph-name="gamma" unicode="&#x3b3;" horiz-adv-x="1092" 
d="M194 -464l91 465l-166 1035h336l68 -637l316 637h336l-568 -1035l-91 -465h-322z" />
    <glyph glyph-name="delta" unicode="&#x3b4;" horiz-adv-x="1146" 
d="M365 444q-4 -19 -4 -40q0 -68 44.5 -111t115.5 -43q81 0 148.5 56t83.5 138q4 17 4 39q0 68 -44.5 111.5t-115.5 43.5q-81 0 -148.5 -56t-83.5 -138zM533 898l-208 262l47 240h756l-55 -279h-359l291 -368q75 -94 75 -226q0 -38 -8 -83q-26 -132 -117.5 -240t-221 -168
t-267.5 -60q-185 0 -307 107.5t-122 274.5q0 41 9 86q22 112 93 208.5t174 160t220 85.5z" />
    <glyph glyph-name="epsilon" unicode="&#x3b5;" horiz-adv-x="970" 
d="M329 318q-2 -12 -2 -18q0 -39 31 -63t79 -24q62 0 121.5 25.5t102.5 73.5l192 -150q-75 -87 -194.5 -136.5t-259.5 -49.5q-174 0 -283 77t-109 196q0 21 5 48q18 88 89 158t163 98q-58 22 -90 71t-32 108q0 19 4 39q25 123 155.5 206t302.5 83q135 0 224.5 -49.5
t118.5 -136.5l-268 -132q-10 36 -40.5 57.5t-75.5 21.5q-42 0 -77 -20.5t-41 -52.5q-1 -5 -1 -13q0 -29 24 -48.5t64 -19.5h159l-46 -238h-153q-57 0 -105.5 -32.5t-57.5 -78.5z" />
    <glyph glyph-name="zeta" unicode="&#x3b6;" horiz-adv-x="957" 
d="M25 365q19 98 85.5 191.5t169.5 194.5l380 370h-386l55 279h752l-51 -259l-520 -521q-135 -135 -156 -244q-4 -17 -4 -38q0 -95 97 -152l207 -122q120 -71 120 -212q0 -26 -7 -63q-24 -126 -142 -253h-317q47 49 81.5 106t44.5 108q3 15 3 31q0 72 -62 107l-168 94
q-92 51 -141 129.5t-49 175.5q0 35 8 78z" />
    <glyph glyph-name="eta" unicode="&#x3b7;" horiz-adv-x="1232" 
d="M476 661l-128 -661h-322l201 1036h322l-21 -107q58 60 138 95.5t160 35.5q153 0 244 -87.5t91 -232.5q0 -43 -9 -91l-217 -1113h-322l208 1070q4 17 4 37q0 58 -37.5 96.5t-105.5 38.5q-54 0 -111 -34t-95 -83z" />
    <glyph glyph-name="theta" unicode="&#x3b8;" horiz-adv-x="1292" 
d="M92 700q38 198 145 363t261.5 263t323.5 98q143 0 250 -71.5t162 -195t55 -280.5q0 -91 -17 -177q-39 -198 -145.5 -363t-261.5 -263t-324 -98q-143 0 -250 71.5t-162 194.5t-55 280q0 86 18 178zM770 1153q-100 0 -188 -91.5t-135 -233.5h518q1 13 1 37q0 128 -51.5 208
t-144.5 80zM594 247q100 0 187.5 91.5t134.5 233.5h-518q-1 -12 -1 -37q0 -128 52 -208t145 -80z" />
    <glyph glyph-name="iota" unicode="&#x3b9;" horiz-adv-x="624" 
d="M85 300l143 736h322l-128 -660q-3 -16 -3 -29q0 -67 79 -67h38l-54 -275q-43 -5 -104 -5q-301 0 -301 219q0 42 8 81z" />
    <glyph glyph-name="kappa" unicode="&#x3ba;" horiz-adv-x="1106" 
d="M648 0l-144 428h-73l-83 -428h-322l201 1036h322l-65 -332h78l249 332h352l-370 -472l205 -564h-350z" />
    <glyph glyph-name="lambda" unicode="&#x3bb;" horiz-adv-x="1092" 
d="M-82 0l565 1018l-94 442h337l248 -1460h-336l-77 604l-307 -604h-336z" />
    <glyph glyph-name="uni03BC" unicode="&#x3bc;" horiz-adv-x="1252" 
d="M-65 -464l292 1500h322l-125 -643q1 -63 38 -99t97 -36q58 0 120 41t102 102l124 635h322l-201 -1036h-322l22 115q-50 -62 -114.5 -100.5t-125.5 -38.5q-43 0 -77.5 19t-51.5 52l-100 -511h-322z" />
    <glyph glyph-name="nu" unicode="&#x3bd;" horiz-adv-x="1092" 
d="M839 1036h336l-551 -1036h-356l-149 1036h336l62 -670z" />
    <glyph glyph-name="xi" unicode="&#x3be;" horiz-adv-x="967" 
d="M363 373q-4 -20 -4 -44q0 -115 121 -165l132 -55q175 -73 175 -239q0 -34 -7 -66q-26 -137 -145 -268h-317q105 107 126 212q3 14 3 27q0 72 -76 105l-111 47q-112 47 -173 138.5t-61 206.5q0 45 8 84q26 134 125 245.5t230 160.5q-75 36 -117.5 102t-42.5 148q0 33 5 57
q29 150 169.5 252.5t317.5 102.5q223 0 323 -152l-228 -196q-52 84 -132 84q-55 0 -96.5 -37.5t-54.5 -99.5q-3 -17 -3 -32q0 -51 30.5 -83.5t84.5 -32.5h216l-52 -263h-169q-97 0 -177 -68t-100 -171z" />
    <glyph glyph-name="omicron" unicode="&#x3bf;" horiz-adv-x="1282" 
d="M61 518q22 112 86 212.5t155 173t207 114.5t238 42q217 0 350.5 -123.5t133.5 -315.5q0 -53 -10 -103q-30 -150 -129 -274.5t-246 -196t-310 -71.5q-217 0 -351 123.5t-134 315.5q0 53 10 103zM380 518q-5 -22 -5 -52q0 -92 59.5 -150t156.5 -58q112 0 200.5 74.5
t110.5 185.5q5 22 5 54q0 91 -59 148.5t-156 57.5q-111 0 -200.5 -74.5t-111.5 -185.5z" />
    <glyph glyph-name="pi" unicode="&#x3c0;" horiz-adv-x="1172" 
d="M523 754l-146 -754h-318l146 754h-119l55 282h1092l-55 -282h-119l-146 -754h-318l146 754h-218z" />
    <glyph glyph-name="rho" unicode="&#x3c1;" horiz-adv-x="1299" 
d="M-85 -464l191 982q45 228 237.5 385t434.5 157q212 0 341.5 -123t129.5 -313q0 -49 -11 -106q-28 -148 -125.5 -273t-236 -197t-283.5 -72q-171 0 -257 101l-105 -541h-316zM422 518l-24 -127q24 -61 81 -97t133 -36q109 0 197.5 75t109.5 185q6 30 6 57
q0 90 -55.5 146.5t-147.5 56.5q-107 0 -192.5 -74.5t-107.5 -185.5z" />
    <glyph glyph-name="sigma1" unicode="&#x3c2;" horiz-adv-x="1088" 
d="M384 518q-7 -40 -7 -67q0 -155 145 -229l190 -96q163 -82 163 -253q0 -35 -7 -69q-26 -140 -140 -268h-316q106 110 126 212q3 15 3 29q0 77 -73 114l-180 90q-116 59 -178 163t-62 242q0 66 13 132q22 112 86 212.5t155 173t207 114.5t238 42q235 0 372 -145l-198 -233
q-102 96 -225 96q-111 0 -200.5 -74.5t-111.5 -185.5z" />
    <glyph glyph-name="sigma" unicode="&#x3c3;" horiz-adv-x="1334" 
d="M59 506q43 222 238 376t433 154h662l-55 -282h-217q76 -81 76 -206q0 -38 -7 -72q-25 -129 -120 -243.5t-241 -185.5t-304 -71q-210 0 -342.5 122t-132.5 309q0 50 10 99zM377 506q-5 -28 -5 -49q0 -87 57.5 -143t149.5 -56q106 0 192 71.5t106 176.5q5 28 5 49
q0 87 -57.5 143t-149.5 56q-106 0 -192 -71.5t-106 -176.5z" />
    <glyph glyph-name="tau" unicode="&#x3c4;" horiz-adv-x="1000" 
d="M298 361l76 393h-288l55 282h920l-55 -282h-310l-68 -350q-4 -20 -4 -41q0 -85 96 -85h47l-54 -275q-43 -5 -105 -5q-167 0 -245 60t-78 187q0 46 13 116z" />
    <glyph glyph-name="upsilon" unicode="&#x3c5;" horiz-adv-x="1170" 
d="M480 -24q-178 0 -290.5 100t-112.5 254q0 35 8 78l122 628h322l-119 -611q-4 -19 -4 -37q0 -58 35.5 -94t93.5 -36q67 0 121 47.5t68 119.5l119 611h322l-122 -628q-23 -119 -105.5 -218.5t-204 -156.5t-253.5 -57z" />
    <glyph glyph-name="phi" unicode="&#x3c6;" horiz-adv-x="1412" 
d="M349 944l154 -194q-128 -97 -155 -232q-5 -30 -5 -52q0 -80 47 -137t127 -73l157 804h208q214 0 346.5 -124t132.5 -315q0 -53 -10 -103q-40 -210 -212 -362t-395 -175l-87 -445h-280l87 445q-188 19 -300.5 138.5t-112.5 294.5q0 53 10 104q25 130 102 240t186 186z
M1064 518q5 28 5 51q0 79 -46.5 135.5t-123.5 73.5l-102 -522q99 21 173.5 93.5t93.5 168.5z" />
    <glyph glyph-name="chi" unicode="&#x3c7;" horiz-adv-x="1092" 
d="M1161 1036l-461 -729l189 -771h-340l-102 471l-286 -471h-339l488 771l-177 729h340l90 -429l258 429h340z" />
    <glyph glyph-name="psi" unicode="&#x3c8;" horiz-adv-x="1388" 
d="M936 1036l-147 -754q78 27 133.5 88.5t71.5 140.5l102 525h287l-107 -550q-36 -184 -187 -320t-356 -175l-89 -455h-282l89 455q-165 34 -262.5 143t-97.5 261q0 45 9 91l107 550h287l-102 -525q-5 -28 -5 -50q0 -62 32 -109t88 -70l147 754h282z" />
    <glyph glyph-name="omega" unicode="&#x3c9;" horiz-adv-x="1622" 
d="M1029 818l-51 -259q-14 -75 -14 -133q0 -77 23 -122.5t68 -45.5q58 0 109.5 71t72.5 179q13 66 13 140q0 194 -84 388h318q89 -196 89 -384q0 -75 -14 -144q-29 -148 -109 -270t-191.5 -192t-230.5 -70q-104 0 -179.5 57t-103.5 145q-63 -89 -160 -145.5t-201 -56.5
q-152 0 -245 112.5t-93 289.5q0 65 13 130q50 256 281 528h318q-100 -122 -176 -260t-101 -268q-9 -49 -9 -91q0 -72 25.5 -115.5t69.5 -43.5q63 0 115.5 85.5t77.5 215.5l51 259h318z" />
    <glyph glyph-name="iotadieresis" unicode="&#x3ca;" horiz-adv-x="624" 
d="M85 300l143 736h322l-128 -660q-3 -16 -3 -29q0 -67 79 -67h38l-54 -275q-43 -5 -104 -5q-301 0 -301 219q0 42 8 81zM84 1340q13 67 69 113.5t124 46.5q60 0 97 -36.5t37 -92.5q0 -15 -3 -31q-13 -68 -68.5 -114t-124.5 -46q-60 0 -97 36t-37 92q0 16 3 32zM488 1340
q13 67 69 113.5t124 46.5q60 0 97 -36.5t37 -92.5q0 -15 -3 -31q-13 -68 -68.5 -114t-124.5 -46q-60 0 -97 36t-37 92q0 16 3 32z" />
    <glyph glyph-name="upsilondieresis" unicode="&#x3cb;" horiz-adv-x="1170" 
d="M480 -24q-178 0 -290.5 100t-112.5 254q0 35 8 78l122 628h322l-119 -611q-4 -19 -4 -37q0 -58 35.5 -94t93.5 -36q67 0 121 47.5t68 119.5l119 611h322l-122 -628q-23 -119 -105.5 -218.5t-204 -156.5t-253.5 -57zM381 1340q13 67 69 113.5t124 46.5q60 0 97 -36.5
t37 -92.5q0 -15 -3 -31q-13 -68 -68.5 -114t-124.5 -46q-60 0 -97 36t-37 92q0 16 3 32zM785 1340q13 67 69 113.5t124 46.5q60 0 97 -36.5t37 -92.5q0 -15 -3 -31q-13 -68 -68.5 -114t-124.5 -46q-60 0 -97 36t-37 92q0 16 3 32z" />
    <glyph glyph-name="omicrontonos" unicode="&#x3cc;" horiz-adv-x="1282" 
d="M61 518q22 112 86 212.5t155 173t207 114.5t238 42q217 0 350.5 -123.5t133.5 -315.5q0 -53 -10 -103q-30 -150 -129 -274.5t-246 -196t-310 -71.5q-217 0 -351 123.5t-134 315.5q0 53 10 103zM380 518q-5 -22 -5 -52q0 -92 59.5 -150t156.5 -58q112 0 200.5 74.5
t110.5 185.5q5 22 5 54q0 91 -59 148.5t-156 57.5q-111 0 -200.5 -74.5t-111.5 -185.5zM577 1184l316 342h323l-337 -342h-302z" />
    <glyph glyph-name="upsilontonos" unicode="&#x3cd;" horiz-adv-x="1170" 
d="M480 -24q-178 0 -290.5 100t-112.5 254q0 35 8 78l122 628h322l-119 -611q-4 -19 -4 -37q0 -58 35.5 -94t93.5 -36q67 0 121 47.5t68 119.5l119 611h322l-122 -628q-23 -119 -105.5 -218.5t-204 -156.5t-253.5 -57zM514 1184l316 342h323l-337 -342h-302z" />
    <glyph glyph-name="omegatonos" unicode="&#x3ce;" horiz-adv-x="1622" 
d="M1029 818l-51 -259q-14 -75 -14 -133q0 -77 23 -122.5t68 -45.5q58 0 109.5 71t72.5 179q13 66 13 140q0 194 -84 388h318q89 -196 89 -384q0 -75 -14 -144q-29 -148 -109 -270t-191.5 -192t-230.5 -70q-104 0 -179.5 57t-103.5 145q-63 -89 -160 -145.5t-201 -56.5
q-152 0 -245 112.5t-93 289.5q0 65 13 130q50 256 281 528h318q-100 -122 -176 -260t-101 -268q-9 -49 -9 -91q0 -72 25.5 -115.5t69.5 -43.5q63 0 115.5 85.5t77.5 215.5l51 259h318zM753 1184l316 342h323l-337 -342h-302z" />
    <glyph glyph-name="uni0400" unicode="&#x400;" horiz-adv-x="1152" 
d="M47 0l272 1400h892l-55 -280h-560l-54 -278h512l-53 -276h-512l-56 -286h578l-54 -280h-910zM790 1850l183 -342h-302l-205 342h324z" />
    <glyph glyph-name="afii10023" unicode="&#x401;" horiz-adv-x="1152" 
d="M47 0l272 1400h892l-55 -280h-560l-54 -278h512l-53 -276h-512l-56 -286h578l-54 -280h-910zM457 1664q13 67 69 113.5t124 46.5q60 0 97 -36.5t37 -92.5q0 -15 -3 -31q-13 -68 -68.5 -114t-124.5 -46q-60 0 -97 36t-37 92q0 16 3 32zM861 1664q13 67 69 113.5t124 46.5
q60 0 97 -36.5t37 -92.5q0 -15 -3 -31q-13 -68 -68.5 -114t-124.5 -46q-60 0 -97 36t-37 92q0 16 3 32z" />
    <glyph glyph-name="afii10051" unicode="&#x402;" horiz-adv-x="1457" 
d="M882 -4q-70 0 -107 4l53 274h44q62 0 111 40t61 101l12 61q3 15 3 29q0 51 -34.5 83t-90.5 32q-130 0 -211 -112l-98 -508h-332l217 1120h-343l55 280h1018l-55 -280h-343l-62 -320q114 100 275 100q154 0 250 -90.5t96 -230.5q0 -35 -8 -77l-22 -112
q-32 -166 -173.5 -280t-315.5 -114z" />
    <glyph glyph-name="afii10052" unicode="&#x403;" horiz-adv-x="1048" 
d="M47 0l272 1400h871l-56 -286h-539l-216 -1114h-332zM578 1546l316 342h323l-337 -342h-302z" />
    <glyph glyph-name="afii10053" unicode="&#x404;" horiz-adv-x="1399" 
d="M725 -24q-280 0 -454.5 164t-174.5 419q0 72 14 141q30 151 114.5 285.5t203 230.5t269.5 152t309 56q289 0 465 -173l-212 -233q-54 57 -134.5 92.5t-172.5 35.5q-147 0 -277 -88t-196 -228h613l-51 -260h-613q11 -141 107.5 -228.5t243.5 -87.5q171 0 358 130l122 -233
q-247 -175 -534 -175z" />
    <glyph glyph-name="afii10054" unicode="&#x405;" horiz-adv-x="1200" 
d="M22 200l222 222q58 -77 140 -122.5t174 -45.5q81 0 143.5 40t75.5 103q3 15 3 29q0 54 -51.5 94t-176.5 68q-169 38 -260 125t-91 216q0 33 8 76q35 181 192 300t365 119q137 0 249.5 -47t188.5 -131l-213 -230q-129 134 -264 134q-66 0 -117.5 -34t-61.5 -85
q-3 -13 -3 -27q0 -51 48 -87.5t160 -63.5q370 -90 370 -355q0 -40 -9 -85q-37 -191 -204 -314t-405 -123q-157 0 -282.5 59t-200.5 165z" />
    <glyph glyph-name="afii10055" unicode="&#x406;" horiz-adv-x="636" 
d="M324 1400h332l-272 -1400h-332z" />
    <glyph glyph-name="afii10056" unicode="&#x407;" horiz-adv-x="636" 
d="M324 1400h332l-272 -1400h-332zM177 1664q13 67 69 113.5t124 46.5q60 0 97 -36.5t37 -92.5q0 -15 -3 -31q-13 -68 -68.5 -114t-124.5 -46q-60 0 -97 36t-37 92q0 16 3 32zM581 1664q13 67 69 113.5t124 46.5q60 0 97 -36.5t37 -92.5q0 -15 -3 -31q-13 -68 -68.5 -114
t-124.5 -46q-60 0 -97 36t-37 92q0 16 3 32z" />
    <glyph glyph-name="afii10057" unicode="&#x408;" horiz-adv-x="937" 
d="M460 466l182 934h332l-186 -954q-44 -228 -188.5 -349t-366.5 -121q-85 0 -164 19.5t-133 53.5l140 270q79 -55 169 -55q84 0 140 51t75 151z" />
    <glyph glyph-name="afii10058" unicode="&#x409;" horiz-adv-x="2039" 
d="M672 1114l-143 -738q-39 -198 -165 -289t-340 -91q-63 0 -94 4l54 282h56q70 0 111.5 36.5t57.5 119.5l187 962h1045l-97 -498h216q193 0 306.5 -98.5t113.5 -260.5q0 -44 -9 -92q-38 -198 -201.5 -324.5t-384.5 -126.5h-548l216 1114h-381zM1637 451q4 21 4 44
q0 67 -45.5 101.5t-129.5 34.5h-175l-70 -360h175q98 0 161 46t80 134z" />
    <glyph glyph-name="afii10059" unicode="&#x40a;" horiz-adv-x="2035" 
d="M1437 1400l-97 -498h216q193 0 306.5 -98.5t113.5 -260.5q0 -44 -9 -92q-38 -198 -201.5 -324.5t-384.5 -126.5h-548l109 561h-454l-109 -561h-332l272 1400h332l-108 -553h454l108 553h332zM1633 451q4 21 4 44q0 67 -45.5 101.5t-129.5 34.5h-175l-70 -360h175
q98 0 161 46t80 134z" />
    <glyph glyph-name="afii10060" unicode="&#x40b;" horiz-adv-x="1502" 
d="M1393 502l-97 -502h-332l92 476q3 15 3 29q0 50 -34 82.5t-91 32.5q-130 0 -211 -112l-98 -508h-332l217 1120h-343l55 280h1018l-55 -280h-343l-62 -320q114 100 275 100q154 0 250 -90.5t96 -230.5q0 -35 -8 -77z" />
    <glyph glyph-name="afii10061" unicode="&#x40c;" horiz-adv-x="1263" 
d="M651 1400l-107 -548h74l414 548h358l-525 -687l328 -713h-362l-258 566h-84l-110 -566h-332l272 1400h332zM607 1508l316 342h323l-337 -342h-302z" />
    <glyph glyph-name="uni040D" unicode="&#x40d;" horiz-adv-x="1422" 
d="M1447 1400l-272 -1400h-308l173 892l-645 -892h-348l272 1400h308l-174 -892l646 892h348zM933 1850l183 -342h-302l-205 342h324z" />
    <glyph glyph-name="afii10062" unicode="&#x40e;" horiz-adv-x="1316" 
d="M1461 1400l-776 -1172q-150 -228 -390 -228h-206l55 286h132q82 0 134 76l56 82l-267 956h356l153 -637l397 637h356zM849 1488q-133 0 -222 75t-89 193q0 22 4 46h257q-2 -10 -2 -20q0 -41 25.5 -66t66.5 -25q46 0 84 31.5t48 79.5h257q-32 -136 -157 -225t-272 -89z
" />
    <glyph glyph-name="afii10145" unicode="&#x40f;" horiz-adv-x="1370" 
d="M846 286l217 1114h332l-272 -1400h-372l-55 -280h-332l55 280h-372l272 1400h332l-217 -1114h412z" />
    <glyph glyph-name="afii10017" unicode="&#x410;" horiz-adv-x="1390" 
d="M685 1400h364l214 -1400h-346l-35 292h-462l-147 -292h-346zM857 552l-58 500l-252 -500h310z" />
    <glyph glyph-name="afii10018" unicode="&#x411;" horiz-adv-x="1254" 
d="M554 902h216q193 0 306.5 -98.5t113.5 -260.5q0 -44 -9 -92q-38 -198 -201.5 -324.5t-384.5 -126.5h-548l272 1400h918l-53 -271h-586zM847 451q4 21 4 44q0 67 -45.5 101.5t-129.5 34.5h-175l-70 -360h175q98 0 161 46t80 134z" />
    <glyph glyph-name="afii10019" unicode="&#x412;" horiz-adv-x="1258" 
d="M653 0h-606l272 1400h542q169 0 263.5 -80t94.5 -217q0 -43 -8 -82q-19 -100 -81 -174.5t-148 -108.5q86 -24 136.5 -91.5t50.5 -163.5q0 -38 -7 -74q-35 -179 -176.5 -294t-332.5 -115zM893 989q4 17 4 37q0 52 -31.5 80t-84.5 28h-192l-56 -290h192q63 0 109 38.5
t59 106.5zM838 427q4 19 4 40q0 56 -33.5 88.5t-89.5 32.5h-236l-63 -322h236q66 0 117 44.5t65 116.5z" />
    <glyph glyph-name="afii10020" unicode="&#x413;" horiz-adv-x="1048" 
d="M47 0l272 1400h871l-56 -286h-539l-216 -1114h-332z" />
    <glyph glyph-name="afii10021" unicode="&#x414;" horiz-adv-x="1367" 
d="M1268 266l-106 -546h-322l55 280h-623l-55 -280h-321l105 546h101q231 364 334 899l46 235h880l-221 -1134h127zM441 266h378l169 868h-240q-45 -232 -124 -460t-183 -408z" />
    <glyph glyph-name="afii10022" unicode="&#x415;" horiz-adv-x="1152" 
d="M47 0l272 1400h892l-55 -280h-560l-54 -278h512l-53 -276h-512l-56 -286h578l-54 -280h-910z" />
    <glyph glyph-name="afii10024" unicode="&#x416;" horiz-adv-x="1850" 
d="M824 852l107 548h332l-107 -548h56l394 548h356l-506 -687l309 -713h-360l-238 566h-66l-110 -566h-332l110 566h-66l-458 -566h-360l585 713l-238 687h356l180 -548h56z" />
    <glyph glyph-name="afii10025" unicode="&#x417;" horiz-adv-x="1078" 
d="M403 1070l-148 178q170 176 426 176q168 0 269.5 -85.5t101.5 -219.5q0 -35 -7 -67q-18 -92 -86 -169.5t-167 -120.5q93 -38 149.5 -115t56.5 -176q0 -27 -7 -66q-35 -182 -206.5 -305.5t-389.5 -123.5q-141 0 -251.5 58t-160.5 162l224 186q72 -142 229 -142
q83 0 149 55t82 136q4 19 4 41q0 71 -52 112t-143 41h-150l51 265h155q76 0 133.5 40t69.5 100q2 10 2 24q0 48 -36.5 77t-95.5 29q-107 0 -202 -90z" />
    <glyph glyph-name="afii10026" unicode="&#x418;" horiz-adv-x="1422" 
d="M1447 1400l-272 -1400h-308l173 892l-645 -892h-348l272 1400h308l-174 -892l646 892h348z" />
    <glyph glyph-name="afii10027" unicode="&#x419;" horiz-adv-x="1422" 
d="M1447 1400l-272 -1400h-308l173 892l-645 -892h-348l272 1400h308l-174 -892l646 892h348zM900 1488q-133 0 -222 75t-89 193q0 22 4 46h257q-2 -10 -2 -20q0 -41 25.5 -66t66.5 -25q46 0 84 31.5t48 79.5h257q-32 -136 -157 -225t-272 -89z" />
    <glyph glyph-name="afii10028" unicode="&#x41a;" horiz-adv-x="1263" 
d="M651 1400l-107 -548h74l414 548h358l-525 -687l328 -713h-362l-258 566h-84l-110 -566h-332l272 1400h332z" />
    <glyph glyph-name="afii10029" unicode="&#x41b;" horiz-adv-x="1449" 
d="M1474 1400l-272 -1400h-332l216 1114h-414l-143 -738q-39 -198 -165 -289t-340 -91q-63 0 -94 4l54 282h56q70 0 111.5 36.5t57.5 119.5l187 962h1078z" />
    <glyph glyph-name="afii10030" unicode="&#x41c;" horiz-adv-x="1726" 
d="M956 408h-228l-193 520l-180 -928h-308l272 1400h360l233 -632l479 632h360l-272 -1400h-308l180 928z" />
    <glyph glyph-name="afii10031" unicode="&#x41d;" horiz-adv-x="1422" 
d="M47 0l272 1400h332l-108 -553h464l108 553h332l-272 -1400h-332l109 561h-464l-109 -561h-332z" />
    <glyph glyph-name="afii10032" unicode="&#x41e;" horiz-adv-x="1660" 
d="M444 700q-9 -48 -9 -93q0 -151 95.5 -247t250.5 -96q179 0 324.5 125t182.5 311q9 47 9 91q0 152 -96 248.5t-251 96.5q-179 0 -324.5 -125t-181.5 -311zM110 700q39 201 170 367t323 261.5t403 95.5q281 0 455.5 -164t174.5 -420q0 -65 -14 -140q-39 -201 -170.5 -367
t-323.5 -261.5t-403 -95.5q-280 0 -454.5 164t-174.5 419q0 72 14 141z" />
    <glyph glyph-name="afii10033" unicode="&#x41f;" horiz-adv-x="1370" 
d="M1395 1400l-272 -1400h-332l216 1114h-412l-216 -1114h-332l272 1400h1076z" />
    <glyph glyph-name="afii10034" unicode="&#x420;" horiz-adv-x="1214" 
d="M655 468h-186l-90 -468h-332l272 1400h518q191 0 302 -100.5t111 -266.5q0 -50 -10 -99q-40 -205 -202.5 -335.5t-382.5 -130.5zM912 934q5 30 5 50q0 71 -43.5 111.5t-124.5 40.5h-150l-78 -404h150q94 0 159 55t82 147z" />
    <glyph glyph-name="afii10035" unicode="&#x421;" horiz-adv-x="1399" 
d="M725 -24q-280 0 -454.5 164t-174.5 419q0 72 14 141q30 151 114.5 285.5t203 230.5t269.5 152t309 56q280 0 458 -167l-216 -244q-132 123 -298 123q-179 0 -325 -125.5t-181 -310.5q-9 -48 -9 -93q0 -151 95.5 -247t250.5 -96q91 0 184.5 37t174.5 98l128 -242
q-247 -181 -543 -181z" />
    <glyph glyph-name="afii10036" unicode="&#x422;" horiz-adv-x="1118" 
d="M293 0l216 1114h-343l56 286h1018l-56 -286h-343l-216 -1114h-332z" />
    <glyph glyph-name="afii10037" unicode="&#x423;" horiz-adv-x="1316" 
d="M1461 1400l-776 -1172q-150 -228 -390 -228h-206l55 286h132q82 0 134 76l56 82l-267 956h356l153 -637l397 637h356z" />
    <glyph glyph-name="afii10038" unicode="&#x424;" horiz-adv-x="1556" 
d="M522 0l37 192q-211 0 -344.5 117t-133.5 298q0 45 9 91q28 141 125.5 257t240.5 182.5t300 66.5l38 196h312l-38 -196q211 0 344 -116.5t133 -297.5q0 -44 -9 -92q-27 -141 -124.5 -257t-240.5 -182.5t-300 -66.5l-37 -192h-312zM1222 698q4 19 4 42q0 81 -59 134
t-153 53l-89 -458q107 0 192.5 66.5t104.5 162.5zM404 698q-4 -19 -4 -42q0 -82 59 -134.5t154 -52.5l89 458q-107 0 -193 -66.5t-105 -162.5z" />
    <glyph glyph-name="afii10039" unicode="&#x425;" horiz-adv-x="1302" 
d="M1182 0h-361l-175 490l-365 -490h-361l561 717l-266 683h361l158 -456l336 456h361l-532 -683z" />
    <glyph glyph-name="afii10040" unicode="&#x426;" horiz-adv-x="1398" 
d="M942 0h-895l272 1400h332l-217 -1114h412l217 1114h332l-217 -1114h125l-110 -566h-306z" />
    <glyph glyph-name="afii10041" unicode="&#x427;" horiz-adv-x="1296" 
d="M180 897l98 503h332l-93 -476q-4 -24 -4 -35q0 -58 39 -93.5t103 -35.5q67 0 130.5 35.5t103.5 91.5l100 513h332l-272 -1400h-332l114 587q-59 -48 -140 -77.5t-157 -29.5q-161 0 -261.5 94.5t-100.5 241.5q0 36 8 81z" />
    <glyph glyph-name="afii10042" unicode="&#x428;" horiz-adv-x="1976" 
d="M1452 286l217 1114h332l-272 -1400h-1682l272 1400h332l-217 -1114h343l217 1114h332l-217 -1114h343z" />
    <glyph glyph-name="afii10043" unicode="&#x429;" horiz-adv-x="2004" 
d="M1548 0h-1501l272 1400h332l-217 -1114h343l217 1114h332l-217 -1114h343l217 1114h332l-217 -1114h125l-110 -566h-306z" />
    <glyph glyph-name="afii10044" unicode="&#x42a;" horiz-adv-x="1465" 
d="M770 902h216q193 0 306.5 -98.5t113.5 -260.5q0 -44 -9 -92q-38 -198 -201.5 -324.5t-384.5 -126.5h-548l219 1129h-313l53 271h645zM1063 451q5 27 5 44q0 66 -45.5 101t-129.5 35h-176l-70 -360h176q98 0 160.5 46t79.5 134z" />
    <glyph glyph-name="afii10045" unicode="&#x42b;" horiz-adv-x="1776" 
d="M554 902h216q193 0 306.5 -98.5t113.5 -260.5q0 -44 -9 -92q-38 -198 -201.5 -324.5t-384.5 -126.5h-548l272 1400h332zM1469 1400h332l-272 -1400h-332zM677 631h-176l-70 -360h176q98 0 160.5 46t79.5 134q5 27 5 44q0 66 -45.5 101t-129.5 35z" />
    <glyph glyph-name="afii10046" unicode="&#x42c;" horiz-adv-x="1249" 
d="M554 902h216q193 0 306.5 -98.5t113.5 -260.5q0 -44 -9 -92q-38 -198 -201.5 -324.5t-384.5 -126.5h-548l272 1400h332zM677 631h-176l-70 -360h176q98 0 160.5 46t79.5 134q5 27 5 44q0 66 -45.5 101t-129.5 35z" />
    <glyph glyph-name="afii10047" unicode="&#x42d;" horiz-adv-x="1399" 
d="M464 -24q-288 0 -466 175l212 233q137 -130 308 -130q147 0 277 87.5t196 228.5h-613l51 260h613q-11 140 -107.5 228t-243.5 88q-91 0 -185 -35t-172 -93l-120 233q243 173 531 173q281 0 455.5 -164t174.5 -420q0 -65 -14 -140q-39 -201 -170.5 -367t-323.5 -261.5
t-403 -95.5z" />
    <glyph glyph-name="afii10048" unicode="&#x42e;" horiz-adv-x="2183" 
d="M488 561l-109 -561h-332l272 1400h332l-108 -553h144q100 252 336 414.5t511 162.5q277 0 451 -164.5t174 -419.5q0 -65 -14 -140q-39 -200 -170.5 -366.5t-322.5 -262t-399 -95.5q-277 0 -450 164t-173 421h-142zM977 700q-9 -48 -9 -93q0 -151 94.5 -247t246.5 -96
q175 0 320 125.5t182 310.5q9 47 9 91q0 151 -95 248t-247 97q-175 0 -320 -125.5t-181 -310.5z" />
    <glyph glyph-name="afii10049" unicode="&#x42f;" horiz-adv-x="1241" 
d="M748 1400h518l-272 -1400h-328l94 488h-83l-372 -488h-360l418 532q-100 41 -154 122t-54 193q0 40 10 97q40 204 201.5 330t381.5 126zM886 1136h-156q-93 0 -157 -54t-81 -145q-5 -28 -5 -48q0 -69 43 -110t123 -41h156z" />
    <glyph glyph-name="afii10065" unicode="&#x430;" horiz-adv-x="1319" 
d="M591 258q79 0 149.5 39.5t114.5 105.5l44 229q-18 66 -73.5 106t-133.5 40q-111 0 -200.5 -74.5t-111.5 -185.5q-5 -30 -5 -52q0 -92 59.5 -150t156.5 -58zM777 0l18 96q-150 -120 -335 -120t-297.5 120.5t-112.5 306.5q0 60 11 115q45 227 220.5 384.5t389.5 157.5
q89 0 164 -31.5t124 -88.5l19 96h316l-201 -1036h-316z" />
    <glyph glyph-name="afii10066" unicode="&#x431;" horiz-adv-x="1240" 
d="M506 867q123 89 272 89q181 0 292.5 -108.5t111.5 -278.5q0 -49 -10 -98q-27 -139 -120 -252t-231.5 -178t-293.5 -65q-203 0 -327.5 116.5t-124.5 331.5q0 77 16 160q45 231 117.5 386t192 259t282 157t397.5 74l-8 -282q-191 -19 -300.5 -54t-169 -94t-96.5 -163z
M403 539q-8 -40 -8 -83q0 -98 50.5 -148t136.5 -50q101 0 177 59t93 149q4 19 4 41q0 74 -50 120.5t-133 46.5q-150 0 -270 -135z" />
    <glyph glyph-name="afii10067" unicode="&#x432;" horiz-adv-x="1051" 
d="M507 0h-481l201 1036h449q134 0 218.5 -66.5t84.5 -170.5q0 -20 -5 -47q-13 -66 -61.5 -121.5t-115.5 -80.5q66 -17 104.5 -71.5t38.5 -124.5q0 -21 -5 -46q-25 -130 -148.5 -219t-279.5 -89zM546 428h-149l-39 -197h149q50 0 88 27.5t46 70.5q2 10 2 20q0 35 -26.5 57
t-70.5 22zM437 636h128q45 0 77.5 24t40.5 61q1 5 1 15q0 31 -23.5 50t-62.5 19h-128z" />
    <glyph glyph-name="afii10068" unicode="&#x433;" horiz-adv-x="852" 
d="M856 754h-362l-146 -754h-322l201 1036h684z" />
    <glyph glyph-name="afii10069" unicode="&#x434;" horiz-adv-x="1146" 
d="M1049 235l-87 -447h-291l42 212h-480l-42 -212h-291l87 447h100q188 282 290 801h715l-156 -801h113zM397 235h250l110 566h-145q-27 -142 -84.5 -294.5t-130.5 -271.5z" />
    <glyph glyph-name="afii10070" unicode="&#x435;" horiz-adv-x="1238" 
d="M367 429v-9q0 -94 60 -148t164 -54q151 0 304 123l139 -177q-209 -188 -494 -188q-224 0 -357 122t-133 314q0 49 11 106q29 150 127.5 274.5t243 196t303.5 71.5q206 0 330.5 -119t124.5 -304q0 -52 -10 -102q-12 -60 -35 -106h-778zM684 818q-88 0 -160.5 -49.5
t-112.5 -136.5h461q-2 87 -51 136.5t-137 49.5z" />
    <glyph glyph-name="afii10072" unicode="&#x436;" horiz-adv-x="1638" 
d="M1180 0l-143 413h-77l-80 -413h-322l80 413h-77l-303 -413h-350l421 549l-184 487h352l116 -347h78l68 347h322l-68 -347h78l252 347h352l-374 -487l209 -549h-350z" />
    <glyph glyph-name="afii10073" unicode="&#x437;" horiz-adv-x="970" 
d="M563 318q2 10 2 17q0 40 -35 67t-86 27h-153l46 238h159q44 0 78 23.5t41 57.5q1 5 1 10q0 28 -26.5 45.5t-64.5 17.5q-45 0 -83.5 -21.5t-62.5 -57.5l-218 132q64 87 173 136.5t244 49.5q155 0 251.5 -69t96.5 -176q0 -24 -4 -44q-13 -69 -68.5 -130.5t-133.5 -87.5
q70 -24 113.5 -80t43.5 -129q0 -22 -5 -47q-27 -137 -173 -229t-338 -92q-140 0 -241 49.5t-141 136.5l250 150q26 -48 75 -73.5t111 -25.5q54 0 96.5 29.5t51.5 75.5z" />
    <glyph glyph-name="afii10074" unicode="&#x438;" horiz-adv-x="1252" 
d="M1227 1036l-201 -1036h-312l112 578l-517 -578h-283l201 1036h312l-112 -578l517 578h283z" />
    <glyph glyph-name="afii10075" unicode="&#x439;" horiz-adv-x="1252" 
d="M1227 1036l-201 -1036h-312l112 578l-517 -578h-283l201 1036h312l-112 -578l517 578h283zM752 1164q-133 0 -222 75t-89 193q0 22 4 46h257q-2 -10 -2 -20q0 -41 25.5 -66t66.5 -25q46 0 84 31.5t48 79.5h257q-32 -136 -157 -225t-272 -89z" />
    <glyph glyph-name="afii10076" unicode="&#x43a;" horiz-adv-x="1106" 
d="M648 0l-144 428h-73l-83 -428h-322l201 1036h322l-65 -332h78l249 332h352l-370 -472l205 -564h-350z" />
    <glyph glyph-name="afii10077" unicode="&#x43b;" horiz-adv-x="1258" 
d="M1233 1036l-201 -1036h-322l147 759h-272l-85 -435q-28 -147 -152 -239.5t-292 -92.5q-70 0 -114 8l53 277h52q55 0 95 32t50 85l125 642h916z" />
    <glyph glyph-name="afii10078" unicode="&#x43c;" horiz-adv-x="1384" 
d="M547 1036l153 -475l339 475h320l-201 -1036h-300l117 605l-236 -322h-184l-112 322l-117 -605h-300l201 1036h320z" />
    <glyph glyph-name="afii10079" unicode="&#x43d;" horiz-adv-x="1252" 
d="M1227 1036l-201 -1036h-322l77 397h-356l-77 -397h-322l201 1036h322l-70 -362h356l70 362h322z" />
    <glyph glyph-name="afii10080" unicode="&#x43e;" horiz-adv-x="1282" 
d="M61 518q22 112 86 212.5t155 173t207 114.5t238 42q217 0 350.5 -123.5t133.5 -315.5q0 -53 -10 -103q-30 -150 -129 -274.5t-246 -196t-310 -71.5q-217 0 -351 123.5t-134 315.5q0 53 10 103zM380 518q-5 -22 -5 -52q0 -92 59.5 -150t156.5 -58q112 0 200.5 74.5
t110.5 185.5q5 22 5 54q0 91 -59 148.5t-156 57.5q-111 0 -200.5 -74.5t-111.5 -185.5z" />
    <glyph glyph-name="afii10081" unicode="&#x43f;" horiz-adv-x="1252" 
d="M1227 1036l-201 -1036h-322l147 759h-356l-147 -759h-322l201 1036h1000z" />
    <glyph glyph-name="afii10082" unicode="&#x440;" horiz-adv-x="1319" 
d="M628 258q112 0 201 75t110 185q5 22 5 54q0 91 -59 148.5t-156 57.5q-78 0 -149.5 -40t-115.5 -106l-44 -229q18 -66 73.5 -105.5t134.5 -39.5zM360 96l-109 -560h-316l292 1500h316l-19 -96q71 57 159 88.5t177 31.5q185 0 297.5 -119.5t112.5 -305.5q0 -57 -12 -117
q-44 -227 -219.5 -384.5t-389.5 -157.5q-89 0 -164.5 31.5t-124.5 88.5z" />
    <glyph glyph-name="afii10083" unicode="&#x441;" horiz-adv-x="1119" 
d="M536 -24q-217 0 -351 123.5t-134 315.5q0 53 10 103q22 112 86 212.5t155 173t207 114.5t238 42q235 0 372 -145l-198 -233q-102 96 -225 96q-111 0 -200.5 -74.5t-111.5 -185.5q-5 -30 -5 -52q0 -92 59.5 -150t156.5 -58q128 0 272 106l130 -217q-203 -171 -461 -171z
" />
    <glyph glyph-name="afii10084" unicode="&#x442;" horiz-adv-x="984" 
d="M377 754h-289l55 282h900l-55 -282h-289l-146 -754h-322z" />
    <glyph glyph-name="afii10085" unicode="&#x443;" horiz-adv-x="1092" 
d="M347 -464h-337l278 464l-169 1036h336l69 -627l315 627h336z" />
    <glyph glyph-name="afii10086" unicode="&#x444;" horiz-adv-x="2070" 
d="M591 258q79 0 149.5 39.5t114.5 105.5l44 229q-18 66 -73.5 106t-133.5 40q-111 0 -200.5 -74.5t-111.5 -185.5q-5 -30 -5 -52q0 -92 59.5 -150t156.5 -58zM1379 258q112 0 201 75t110 185q5 22 5 54q0 91 -59 148.5t-156 57.5q-78 0 -149.5 -40t-115.5 -106l-44 -229
q18 -66 73.5 -105.5t134.5 -39.5zM1111 96l-109 -560h-316l109 560q-150 -120 -335 -120t-297.5 120.5t-112.5 306.5q0 60 11 115q45 227 220.5 384.5t389.5 157.5q89 0 164 -31.5t124 -88.5l101 520h316l-101 -520q71 57 159 88.5t177 31.5q185 0 297.5 -119.5
t112.5 -305.5q0 -57 -12 -117q-44 -227 -219.5 -384.5t-389.5 -157.5q-89 0 -164.5 31.5t-124.5 88.5z" />
    <glyph glyph-name="afii10087" unicode="&#x445;" horiz-adv-x="1092" 
d="M974 0h-344l-121 329l-247 -329h-344l419 528l-192 508h344l98 -309l218 309h344l-390 -508z" />
    <glyph glyph-name="afii10088" unicode="&#x446;" horiz-adv-x="1293" 
d="M1227 1036l-148 -759h125l-108 -557h-298l55 280h-827l201 1036h322l-148 -759h356l148 759h322z" />
    <glyph glyph-name="afii10089" unicode="&#x447;" horiz-adv-x="1127" 
d="M579 0l71 366q-96 -88 -226 -88q-147 0 -239 88.5t-92 224.5q0 38 7 74l72 371h322l-69 -354q-2 -10 -2 -25q0 -44 29 -73t79 -29q55 0 101 30.5t76 79.5l72 371h322l-201 -1036h-322z" />
    <glyph glyph-name="afii10090" unicode="&#x448;" horiz-adv-x="1600" 
d="M1575 1036l-201 -1036h-1348l201 1036h308l-148 -759h212l148 759h307l-148 -759h212l148 759h309z" />
    <glyph glyph-name="afii10091" unicode="&#x449;" horiz-adv-x="1641" 
d="M1201 0h-1175l201 1036h308l-148 -759h212l148 759h307l-148 -759h212l148 759h309l-148 -759h125l-108 -557h-298z" />
    <glyph glyph-name="afii10092" unicode="&#x44a;" horiz-adv-x="1233" 
d="M839 361q2 9 2 25q0 47 -31.5 76t-82.5 29h-133l-51 -260h133q59 0 105.5 37t57.5 93zM1147 361q-30 -152 -164 -256.5t-301 -104.5h-491l151 778h-249l50 258h557l-61 -314h183q147 0 239 -83t92 -212q0 -31 -6 -66z" />
    <glyph glyph-name="afii10093" unicode="&#x44b;" horiz-adv-x="1548" 
d="M674 361q2 9 2 25q0 47 -31.5 76t-82.5 29h-133l-51 -260h133q59 0 105.5 37t57.5 93zM982 361q-30 -152 -164 -256.5t-301 -104.5h-491l201 1036h308l-61 -314h183q147 0 239 -83t92 -212q0 -31 -6 -66zM1000 0l201 1036h322l-201 -1036h-322z" />
    <glyph glyph-name="afii10094" unicode="&#x44c;" horiz-adv-x="1068" 
d="M674 361q2 9 2 25q0 47 -31.5 76t-82.5 29h-133l-51 -260h133q59 0 105.5 37t57.5 93zM982 361q-30 -152 -164 -256.5t-301 -104.5h-491l201 1036h308l-61 -314h183q147 0 239 -83t92 -212q0 -31 -6 -66z" />
    <glyph glyph-name="afii10095" unicode="&#x44d;" horiz-adv-x="1119" 
d="M373 -24q-128 0 -229.5 45t-165.5 126l206 200q107 -114 235 -114q88 0 167.5 48.5t124.5 127.5h-399l41 213h401q-14 81 -74 131t-150 50q-121 0 -270 -104l-106 216q195 145 430 145q217 0 350.5 -123.5t133.5 -315.5q0 -53 -10 -103q-29 -150 -128.5 -274.5
t-246.5 -196t-310 -71.5z" />
    <glyph glyph-name="afii10096" unicode="&#x44e;" horiz-adv-x="1758" 
d="M1223 1060q217 0 350.5 -123.5t133.5 -315.5q0 -53 -10 -103q-29 -150 -128.5 -274.5t-246.5 -196t-310 -71.5q-207 0 -338.5 112.5t-143.5 290.5h-114l-73 -379h-317l201 1036h317l-73 -375h115q82 176 257 287.5t380 111.5zM1067 258q112 0 201 75t110 185q5 22 5 54
q0 91 -59 148.5t-156 57.5q-111 0 -200.5 -74.5t-111.5 -185.5q-5 -30 -5 -52q0 -92 59.5 -150t156.5 -58z" />
    <glyph glyph-name="afii10097" unicode="&#x44f;" horiz-adv-x="1124" 
d="M121 696q28 144 158.5 242t294.5 98h525l-201 -1036h-298l67 345h-67l-315 -345h-335l358 377q-90 30 -141.5 98.5t-51.5 158.5q0 30 6 62zM756 805h-179q-53 0 -96.5 -32t-51.5 -77q-2 -11 -2 -21q0 -40 29.5 -64t78.5 -24h179z" />
    <glyph glyph-name="uni0450" unicode="&#x450;" horiz-adv-x="1238" 
d="M367 429v-9q0 -94 60 -148t164 -54q151 0 304 123l139 -177q-209 -188 -494 -188q-224 0 -357 122t-133 314q0 49 11 106q29 150 127.5 274.5t243 196t303.5 71.5q206 0 330.5 -119t124.5 -304q0 -52 -10 -102q-12 -60 -35 -106h-778zM684 818q-88 0 -160.5 -49.5
t-112.5 -136.5h461q-2 87 -51 136.5t-137 49.5zM773 1526l183 -342h-302l-205 342h324z" />
    <glyph glyph-name="afii10071" unicode="&#x451;" horiz-adv-x="1238" 
d="M367 429v-9q0 -94 60 -148t164 -54q151 0 304 123l139 -177q-209 -188 -494 -188q-224 0 -357 122t-133 314q0 49 11 106q29 150 127.5 274.5t243 196t303.5 71.5q206 0 330.5 -119t124.5 -304q0 -52 -10 -102q-12 -60 -35 -106h-778zM684 818q-88 0 -160.5 -49.5
t-112.5 -136.5h461q-2 87 -51 136.5t-137 49.5zM415 1340q13 67 69 113.5t124 46.5q60 0 97 -36.5t37 -92.5q0 -15 -3 -31q-13 -68 -68.5 -114t-124.5 -46q-60 0 -97 36t-37 92q0 16 3 32zM819 1340q13 67 69 113.5t124 46.5q60 0 97 -36.5t37 -92.5q0 -15 -3 -31
q-13 -68 -68.5 -114t-124.5 -46q-60 0 -97 36t-37 92q0 16 3 32z" />
    <glyph glyph-name="afii10099" unicode="&#x452;" horiz-adv-x="1257" 
d="M142 1145l35 182h131l26 133h322l-26 -133h272l-35 -182h-272l-42 -216q58 60 138 95.5t160 35.5q153 0 244 -87.5t91 -232.5q0 -43 -9 -91l-146 -750q-34 -176 -162 -269.5t-331 -93.5q-68 0 -125 12l47 242q40 -6 94 -6q44 0 73.5 12t47.5 37t27.5 52t17.5 69l126 652
q4 17 4 37q0 58 -37.5 96.5t-105.5 38.5q-54 0 -111 -34t-95 -83l-128 -661h-322l222 1145h-131z" />
    <glyph glyph-name="afii10100" unicode="&#x453;" horiz-adv-x="852" 
d="M856 754h-362l-146 -754h-322l201 1036h684zM332 1184l316 342h323l-337 -342h-302z" />
    <glyph glyph-name="afii10101" unicode="&#x454;" horiz-adv-x="1119" 
d="M536 -24q-217 0 -351 123.5t-134 315.5q0 53 10 103q22 112 86 212.5t155 173t207 114.5t238 42q235 0 372 -145l-190 -216q-108 104 -228 104q-90 0 -170 -50t-126 -131h401l-41 -213h-399q14 -79 75 -127.5t149 -48.5q129 0 279 114l128 -200q-203 -171 -461 -171z" />
    <glyph glyph-name="afii10102" unicode="&#x455;" horiz-adv-x="953" 
d="M-17 148l184 190q38 -54 100 -86t136 -32q57 0 94 21t47 57q3 10 3 21q0 32 -32.5 54t-107.5 38q-135 30 -205.5 99.5t-70.5 172.5q0 31 7 66q27 136 151 223.5t294 87.5q104 0 194.5 -38.5t155.5 -103.5l-179 -190q-90 88 -189 88q-44 0 -75 -17t-41 -47q-3 -9 -3 -21
q0 -65 126 -92q290 -62 290 -271q0 -33 -7 -67q-27 -141 -158.5 -233t-314.5 -92q-131 0 -236.5 45.5t-162.5 126.5z" />
    <glyph glyph-name="afii10103" unicode="&#x456;" horiz-adv-x="576" 
d="M27 0l201 1036h322l-201 -1036h-322zM258 1307q13 73 76.5 124t141.5 51q68 0 110.5 -39.5t42.5 -101.5q0 -19 -3 -34q-15 -74 -77.5 -124.5t-140.5 -50.5q-68 0 -111 39t-43 101q0 13 4 35z" />
    <glyph glyph-name="afii10104" unicode="&#x457;" horiz-adv-x="576" 
d="M27 0l201 1036h322l-201 -1036h-322zM84 1340q13 67 69 113.5t124 46.5q60 0 97 -36.5t37 -92.5q0 -15 -3 -31q-13 -68 -68.5 -114t-124.5 -46q-60 0 -97 36t-37 92q0 16 3 32zM488 1340q13 67 69 113.5t124 46.5q60 0 97 -36.5t37 -92.5q0 -15 -3 -31
q-13 -68 -68.5 -114t-124.5 -46q-60 0 -97 36t-37 92q0 16 3 32z" />
    <glyph glyph-name="afii10105" unicode="&#x458;" horiz-adv-x="576" 
d="M13 -72l215 1108h322l-222 -1140q-34 -174 -148.5 -267t-290.5 -93q-62 0 -113 11l52 267h55q54 0 86 27t44 87zM258 1307q13 73 76.5 124t141.5 51q68 0 110.5 -39.5t42.5 -101.5q0 -19 -3 -34q-15 -74 -77.5 -124.5t-140.5 -50.5q-68 0 -111 39t-43 101q0 13 4 35z" />
    <glyph glyph-name="afii10106" unicode="&#x459;" horiz-adv-x="1731" 
d="M586 764l-86 -440q-28 -147 -152 -239.5t-292 -92.5q-70 0 -114 8l53 277h52q55 0 95 32t50 85l125 642h881l-61 -314h183q147 0 239 -83t92 -212q0 -31 -6 -66q-30 -152 -164 -256.5t-301 -104.5h-491l148 764h-251zM1337 361q2 9 2 25q0 47 -31.5 76t-82.5 29h-133
l-51 -260h133q59 0 105.5 37t57.5 93z" />
    <glyph glyph-name="afii10107" unicode="&#x45a;" horiz-adv-x="1725" 
d="M1639 361q-30 -152 -164 -256.5t-301 -104.5h-491l77 397h-335l-77 -397h-322l201 1036h322l-70 -362h335l70 362h308l-61 -314h183q147 0 239 -83t92 -212q0 -31 -6 -66zM1331 361q2 9 2 25q0 47 -31.5 76t-82.5 29h-133l-51 -260h133q59 0 105.5 37t57.5 93z" />
    <glyph glyph-name="afii10108" unicode="&#x45b;" horiz-adv-x="1257" 
d="M142 1145l35 182h131l26 133h322l-26 -133h272l-35 -182h-272l-42 -216q58 60 138 95.5t160 35.5q153 0 244 -88t91 -233q0 -43 -9 -90l-126 -649h-322l117 606q4 17 4 37q0 58 -37.5 96.5t-105.5 38.5q-54 0 -111 -34t-95 -83l-128 -661h-322l222 1145h-131z" />
    <glyph glyph-name="afii10109" unicode="&#x45c;" horiz-adv-x="1106" 
d="M648 0l-144 428h-73l-83 -428h-322l201 1036h322l-65 -332h78l249 332h352l-370 -472l205 -564h-350zM448 1184l316 342h323l-337 -342h-302z" />
    <glyph glyph-name="uni045D" unicode="&#x45d;" horiz-adv-x="1252" 
d="M1227 1036l-201 -1036h-312l112 578l-517 -578h-283l201 1036h312l-112 -578l517 578h283zM780 1526l183 -342h-302l-205 342h324z" />
    <glyph glyph-name="afii10110" unicode="&#x45e;" horiz-adv-x="1092" 
d="M347 -464h-337l278 464l-169 1036h336l69 -627l315 627h336zM671 1164q-133 0 -222 75t-89 193q0 22 4 46h257q-2 -10 -2 -20q0 -41 25.5 -66t66.5 -25q46 0 84 31.5t48 79.5h257q-32 -136 -157 -225t-272 -89z" />
    <glyph glyph-name="afii10193" unicode="&#x45f;" horiz-adv-x="1252" 
d="M687 0l-55 -280h-322l55 280h-339l201 1036h322l-148 -759h356l148 759h322l-201 -1036h-339z" />
    <glyph glyph-name="afii10050" unicode="&#x490;" horiz-adv-x="1048" 
d="M884 1400l54 280h306l-110 -566h-539l-216 -1114h-332l272 1400h565z" />
    <glyph glyph-name="afii10098" unicode="&#x491;" horiz-adv-x="852" 
d="M613 1036l54 280h298l-109 -562h-362l-146 -754h-322l201 1036h386z" />
    <glyph glyph-name="Wgrave" unicode="&#x1e80;" horiz-adv-x="1984" 
d="M998 1400h332l50 -954l406 954h343l-650 -1400h-337l-66 951l-434 -951h-337l-106 1400h343l34 -954zM1198 1850l183 -342h-302l-205 342h324z" />
    <glyph glyph-name="wgrave" unicode="&#x1e81;" horiz-adv-x="1612" 
d="M749 1036h316l25 -648l279 648h326l-505 -1036h-331l-36 604l-270 -604h-331l-103 1036h326l27 -648zM941 1526l183 -342h-302l-205 342h324z" />
    <glyph glyph-name="Wacute" unicode="&#x1e82;" horiz-adv-x="1984" 
d="M998 1400h332l50 -954l406 954h343l-650 -1400h-337l-66 951l-434 -951h-337l-106 1400h343l34 -954zM992 1508l316 342h323l-337 -342h-302z" />
    <glyph glyph-name="wacute" unicode="&#x1e83;" horiz-adv-x="1612" 
d="M749 1036h316l25 -648l279 648h326l-505 -1036h-331l-36 604l-270 -604h-331l-103 1036h326l27 -648zM744 1184l316 342h323l-337 -342h-302z" />
    <glyph glyph-name="Wdieresis" unicode="&#x1e84;" horiz-adv-x="1984" 
d="M998 1400h332l50 -954l406 954h343l-650 -1400h-337l-66 951l-434 -951h-337l-106 1400h343l34 -954zM851 1664q13 67 69 113.5t124 46.5q60 0 97 -36.5t37 -92.5q0 -15 -3 -31q-13 -68 -68.5 -114t-124.5 -46q-60 0 -97 36t-37 92q0 16 3 32zM1255 1664q13 67 69 113.5
t124 46.5q60 0 97 -36.5t37 -92.5q0 -15 -3 -31q-13 -68 -68.5 -114t-124.5 -46q-60 0 -97 36t-37 92q0 16 3 32z" />
    <glyph glyph-name="wdieresis" unicode="&#x1e85;" horiz-adv-x="1612" 
d="M749 1036h316l25 -648l279 648h326l-505 -1036h-331l-36 604l-270 -604h-331l-103 1036h326l27 -648zM602 1340q13 67 69 113.5t124 46.5q60 0 97 -36.5t37 -92.5q0 -15 -3 -31q-13 -68 -68.5 -114t-124.5 -46q-60 0 -97 36t-37 92q0 16 3 32zM1006 1340q13 67 69 113.5
t124 46.5q60 0 97 -36.5t37 -92.5q0 -15 -3 -31q-13 -68 -68.5 -114t-124.5 -46q-60 0 -97 36t-37 92q0 16 3 32z" />
    <glyph glyph-name="Ygrave" unicode="&#x1ef2;" horiz-adv-x="1316" 
d="M558 1400l167 -536l377 536h359l-630 -846l-107 -554h-332l107 554l-300 846h359zM862 1850l183 -342h-302l-205 342h324z" />
    <glyph glyph-name="ygrave" unicode="&#x1ef3;" horiz-adv-x="1092" 
d="M347 -464h-337l278 464l-169 1036h336l69 -627l315 627h336zM679 1526l183 -342h-302l-205 342h324z" />
    <glyph glyph-name="thinspace" unicode="&#x2009;" horiz-adv-x="400" 
 />
    <glyph glyph-name="uni2010" unicode="&#x2010;" horiz-adv-x="844" 
d="M728 518h-612l57 292h612z" />
    <glyph glyph-name="figuredash" unicode="&#x2012;" horiz-adv-x="1200" 
d="M1100 518h-1000l57 292h1000z" />
    <glyph glyph-name="endash" unicode="&#x2013;" horiz-adv-x="1000" 
d="M1000 518h-1000l57 292h1000z" />
    <glyph glyph-name="emdash" unicode="&#x2014;" horiz-adv-x="2000" 
d="M2000 518h-2000l57 292h2000z" />
    <glyph glyph-name="afii00208" unicode="&#x2015;" horiz-adv-x="2000" 
d="M1800 518h-1600l57 292h1600z" />
    <glyph glyph-name="uni2016" unicode="&#x2016;" horiz-adv-x="1010" 
d="M-3 -280l346 1780h292l-346 -1780h-292zM411 -280l346 1780h292l-346 -1780h-292z" />
    <glyph glyph-name="underscoredbl" unicode="&#x2017;" horiz-adv-x="1200" 
d="M-96 -489l44 223h1000l-44 -223h-1000zM-38 -192l44 223h1000l-44 -223h-1000z" />
    <glyph glyph-name="quoteleft" unicode="&#x2018;" horiz-adv-x="606" 
d="M616 1148q-15 -78 -79.5 -131t-146.5 -53q-71 0 -115 41t-44 106q0 22 3 37q9 42 37 86l215 324h206l-157 -241q40 -17 62.5 -51.5t22.5 -79.5q0 -17 -4 -38z" />
    <glyph glyph-name="quoteright" unicode="&#x2019;" horiz-adv-x="606" 
d="M279 1374q15 78 79.5 131t146.5 53q71 0 115 -41t44 -106q0 -22 -3 -37q-9 -42 -37 -86l-215 -324h-206l157 241q-40 17 -62.5 51.5t-22.5 79.5q0 17 4 38z" />
    <glyph glyph-name="quotesinglbase" unicode="&#x201a;" horiz-adv-x="606" 
d="M43 160q15 78 79.5 131t146.5 53q71 0 115 -41t44 -106q0 -22 -3 -37q-9 -42 -37 -86l-215 -324h-206l157 241q-40 17 -62.5 51.5t-22.5 79.5q0 17 4 38z" />
    <glyph glyph-name="quotereversed" unicode="&#x201b;" horiz-adv-x="606" 
d="M661 1374q-12 -58 -51.5 -103.5t-95.5 -65.5l63 -241h-206l-89 324q-7 26 -7 48q0 21 4 38q15 78 79.5 131t146.5 53q72 0 116 -41.5t44 -106.5q0 -16 -4 -36z" />
    <glyph glyph-name="quotedblleft" unicode="&#x201c;" horiz-adv-x="1033" 
d="M616 1148q-15 -78 -79.5 -131t-146.5 -53q-71 0 -115 41t-44 106q0 22 3 37q9 42 37 86l215 324h206l-157 -241q40 -17 62.5 -51.5t22.5 -79.5q0 -17 -4 -38zM1043 1148q-15 -78 -79.5 -131t-146.5 -53q-71 0 -115 41t-44 106q0 22 3 37q9 42 37 86l215 324h206
l-157 -241q40 -17 62.5 -51.5t22.5 -79.5q0 -17 -4 -38z" />
    <glyph glyph-name="quotedblright" unicode="&#x201d;" horiz-adv-x="1033" 
d="M279 1374q15 78 79.5 131t146.5 53q71 0 115 -41t44 -106q0 -22 -3 -37q-9 -42 -37 -86l-215 -324h-206l157 241q-40 17 -62.5 51.5t-22.5 79.5q0 17 4 38zM706 1374q15 78 79.5 131t146.5 53q71 0 115 -41t44 -106q0 -22 -3 -37q-9 -42 -37 -86l-215 -324h-206l157 241
q-40 17 -62.5 51.5t-22.5 79.5q0 17 4 38z" />
    <glyph glyph-name="quotedblbase" unicode="&#x201e;" horiz-adv-x="1033" 
d="M43 160q15 78 79.5 131t146.5 53q71 0 115 -41t44 -106q0 -22 -3 -37q-9 -42 -37 -86l-215 -324h-206l157 241q-40 17 -62.5 51.5t-22.5 79.5q0 17 4 38zM470 160q15 78 79.5 131t146.5 53q71 0 115 -41t44 -106q0 -22 -3 -37q-9 -42 -37 -86l-215 -324h-206l157 241
q-40 17 -62.5 51.5t-22.5 79.5q0 17 4 38z" />
    <glyph glyph-name="uni201F" unicode="&#x201f;" horiz-adv-x="1033" 
d="M661 1374q-12 -58 -51.5 -103.5t-95.5 -65.5l63 -241h-206l-89 324q-7 26 -7 48q0 21 4 38q15 78 79.5 131t146.5 53q72 0 116 -41.5t44 -106.5q0 -16 -4 -36zM1088 1374q-12 -58 -51.5 -103.5t-95.5 -65.5l63 -241h-206l-89 324q-7 26 -7 48q0 21 4 38q15 78 79.5 131
t146.5 53q72 0 116 -41.5t44 -106.5q0 -16 -4 -36z" />
    <glyph glyph-name="dagger" unicode="&#x2020;" horiz-adv-x="1132" 
d="M252 -262l225 1161h-293l54 277h293l62 320h326l-62 -320h293l-54 -277h-293l-225 -1161h-326z" />
    <glyph glyph-name="daggerdbl" unicode="&#x2021;" horiz-adv-x="1132" 
d="M21 58l54 277h293l109 564h-293l54 277h293l62 320h326l-62 -320h293l-54 -277h-293l-109 -564h293l-54 -277h-293l-62 -320h-326l62 320h-293z" />
    <glyph glyph-name="bullet" unicode="&#x2022;" horiz-adv-x="800" 
d="M126 664q0 121 86 206.5t208 85.5t208 -85.5t86 -206.5q0 -122 -86 -207t-208 -85t-208 85t-86 207z" />
    <glyph glyph-name="onedotenleader" unicode="&#x2024;" horiz-adv-x="606" 
d="M43 160q16 79 80 131.5t146 52.5q72 0 116 -41.5t44 -106.5q0 -16 -4 -36q-16 -78 -80.5 -131t-146.5 -53q-71 0 -115 41t-44 105q0 18 4 38z" />
    <glyph glyph-name="twodotenleader" unicode="&#x2025;" horiz-adv-x="1212" 
d="M43 160q16 79 80 131.5t146 52.5q72 0 116 -41.5t44 -106.5q0 -16 -4 -36q-16 -78 -80.5 -131t-146.5 -53q-71 0 -115 41t-44 105q0 18 4 38zM649 160q16 79 80 131.5t146 52.5q72 0 116 -41.5t44 -106.5q0 -16 -4 -36q-16 -78 -80.5 -131t-146.5 -53q-71 0 -115 41
t-44 105q0 18 4 38z" />
    <glyph glyph-name="ellipsis" unicode="&#x2026;" horiz-adv-x="1818" 
d="M43 160q16 79 80 131.5t146 52.5q72 0 116 -41.5t44 -106.5q0 -16 -4 -36q-16 -78 -80.5 -131t-146.5 -53q-71 0 -115 41t-44 105q0 18 4 38zM649 160q16 79 80 131.5t146 52.5q72 0 116 -41.5t44 -106.5q0 -16 -4 -36q-16 -78 -80.5 -131t-146.5 -53q-71 0 -115 41
t-44 105q0 18 4 38zM1255 160q16 79 80 131.5t146 52.5q72 0 116 -41.5t44 -106.5q0 -16 -4 -36q-16 -78 -80.5 -131t-146.5 -53q-71 0 -115 41t-44 105q0 18 4 38z" />
    <glyph glyph-name="perthousand" unicode="&#x2030;" horiz-adv-x="2596" 
d="M308 0l994 1400h256l-992 -1400h-258zM445 1053q-3 -13 -3 -27q0 -42 25 -69t67 -27q49 0 88 35.5t49 87.5q3 15 3 28q0 42 -25 68.5t-67 26.5q-49 0 -87.5 -35.5t-49.5 -87.5zM187 1053q30 152 157 256.5t284 104.5q137 0 222.5 -81.5t85.5 -208.5q0 -37 -7 -71
q-29 -152 -156.5 -256.5t-284.5 -104.5q-137 0 -222.5 82t-85.5 209q0 36 7 70zM1195 347q-3 -13 -3 -27q0 -42 25 -69t67 -27q49 0 88 35.5t49 87.5q3 13 3 27q0 42 -25 69t-67 27q-49 0 -88 -35.5t-49 -87.5zM937 347q29 152 156.5 256.5t284.5 104.5q137 0 222.5 -82
t85.5 -209q0 -36 -7 -70q-30 -152 -157 -256.5t-284 -104.5q-137 0 -222.5 81.5t-85.5 208.5q0 37 7 71zM1996 347q-3 -13 -3 -27q0 -42 25 -69t67 -27q49 0 88 35.5t49 87.5q3 13 3 27q0 42 -25 69t-67 27q-49 0 -88 -35.5t-49 -87.5zM1738 347q29 152 156.5 256.5
t284.5 104.5q137 0 222.5 -82t85.5 -209q0 -36 -7 -70q-30 -152 -157 -256.5t-284 -104.5q-137 0 -222.5 81.5t-85.5 208.5q0 37 7 71z" />
    <glyph glyph-name="minute" unicode="&#x2032;" horiz-adv-x="627" 
d="M165 1028l250 372h338l-292 -372h-296z" />
    <glyph glyph-name="second" unicode="&#x2033;" horiz-adv-x="1048" 
d="M165 1028l250 372h338l-292 -372h-296zM586 1028l250 372h338l-292 -372h-296z" />
    <glyph glyph-name="guilsinglleft" unicode="&#x2039;" horiz-adv-x="772" 
d="M91 548l29 151l653 357l-51 -259l-332 -173l265 -174l-50 -259z" />
    <glyph glyph-name="guilsinglright" unicode="&#x203a;" horiz-adv-x="772" 
d="M722 699l-29 -151l-652 -357l50 259l333 174l-266 173l51 259z" />
    <glyph glyph-name="exclamdbl" unicode="&#x203c;" horiz-adv-x="1132" 
d="M133 434l188 966h332l-188 -966h-332zM47 159q14 77 82 130t152 53q74 0 119.5 -41.5t45.5 -106.5q0 -18 -3 -35q-14 -77 -81.5 -130t-151.5 -53q-74 0 -120 42t-46 107q0 16 3 34zM635 434l188 966h332l-188 -966h-332zM549 159q14 77 82 130t152 53q74 0 119.5 -41.5
t45.5 -106.5q0 -18 -3 -35q-14 -77 -81.5 -130t-151.5 -53q-74 0 -120 42t-46 107q0 16 3 34z" />
    <glyph glyph-name="uni203E" unicode="&#x203e;" horiz-adv-x="860" 
d="M237 1170l46 236h640l-46 -236h-640z" />
    <glyph glyph-name="fraction" unicode="&#x2044;" horiz-adv-x="331" 
d="M-399 0l956 1400h245l-954 -1400h-247z" />
    <glyph glyph-name="zerosuperior" unicode="&#x2070;" 
d="M129 926q44 222 163 360t289 138q135 0 205 -90.5t70 -245.5q0 -72 -17 -162q-43 -222 -162.5 -360t-288.5 -138q-136 0 -206 90t-70 246q0 74 17 162zM378 926q-16 -83 -16 -149q0 -128 69 -128q52 0 93 73.5t66 203.5q17 88 17 148q0 128 -69 128q-53 0 -94 -73
t-66 -203z" />
    <glyph glyph-name="uni2071" unicode="&#x2071;" 
d="M271 452l131 670h241l-131 -670h-241zM417 1291q11 54 58.5 91.5t105.5 37.5q51 0 82.5 -29.5t31.5 -75.5q0 -13 -2 -24q-10 -53 -57 -90t-105 -37q-52 0 -84 29.5t-32 75.5q0 12 2 22z" />
    <glyph glyph-name="foursuperior" unicode="&#x2074;" 
d="M49 612l37 189l518 599h230l-113 -582h99l-41 -206h-99l-31 -160h-241l31 160h-390zM315 817h164l48 247z" />
    <glyph glyph-name="fivesuperior" unicode="&#x2075;" 
d="M368 428q-107 0 -186.5 44t-119.5 125l193 149q54 -104 138 -104q48 0 90.5 35.5t52.5 84.5q2 9 2 25q0 42 -26 68t-70 26q-25 0 -52 -13t-45 -33l-184 24l169 541h552l-42 -212h-319l-39 -122q26 2 40 2q120 0 198 -68.5t78 -180.5q0 -29 -6 -61q-28 -144 -146 -237
t-278 -93z" />
    <glyph glyph-name="sixsuperior" unicode="&#x2076;" 
d="M840 1400l-272 -323q111 -13 181.5 -82.5t70.5 -175.5q0 -29 -6 -60q-18 -94 -82.5 -170.5t-155 -118.5t-187.5 -42q-133 0 -219.5 75.5t-86.5 194.5q0 30 6 61q18 95 82 171l400 470h269zM569 760q2 9 2 25q0 42 -26 68.5t-70 26.5q-50 0 -90.5 -34.5t-50.5 -85.5
q-2 -9 -2 -25q0 -42 26.5 -68.5t69.5 -26.5q50 0 90.5 34t50.5 86z" />
    <glyph glyph-name="sevensuperior" unicode="&#x2077;" 
d="M257 1400h643l-37 -186l-461 -762h-274l451 732h-364z" />
    <glyph glyph-name="eightsuperior" unicode="&#x2078;" 
d="M337 746q-2 -12 -2 -24q0 -40 25.5 -65.5t66.5 -25.5q47 0 86.5 33t49.5 82q2 10 2 22q0 41 -26 67t-67 26q-47 0 -87 -33.5t-48 -81.5zM842 1147q-10 -53 -45 -101.5t-84 -78.5q47 -28 71.5 -76t24.5 -104q0 -22 -5 -49q-25 -132 -144.5 -221t-271.5 -89
q-134 0 -217.5 71.5t-83.5 183.5q0 29 5 55q13 69 61.5 132t117.5 97q-63 50 -63 139q0 22 4 41q23 116 128 196.5t241 80.5q120 0 193 -64t73 -163q0 -22 -5 -50zM444 1142q-1 -6 -1 -16q0 -29 18 -48.5t49 -19.5q35 0 63 24t35 59q2 10 2 18q0 28 -19 46t-49 18
q-36 0 -63.5 -23t-34.5 -58z" />
    <glyph glyph-name="ninesuperior" unicode="&#x2079;" 
d="M129 452l272 323q-111 13 -181.5 82.5t-70.5 175.5q0 29 6 60q18 94 82.5 170.5t155 118.5t187.5 42q133 0 219.5 -75.5t86.5 -194.5q0 -30 -6 -61q-18 -95 -82 -171l-400 -470h-269zM400 1092q-2 -11 -2 -25q0 -42 26 -68.5t70 -26.5q50 0 90.5 34t50.5 86q2 10 2 25
q0 42 -26.5 68.5t-69.5 26.5q-50 0 -90.5 -34t-50.5 -86z" />
    <glyph glyph-name="uni207A" unicode="&#x207a;" 
d="M362 605v212h-210v218h210v212h246v-212h210v-218h-210v-212h-246z" />
    <glyph glyph-name="uni207B" unicode="&#x207b;" 
d="M818 817h-666v218h666v-218z" />
    <glyph glyph-name="uni207C" unicode="&#x207c;" 
d="M818 657h-666v213h666v-213zM818 982h-666v213h666v-213z" />
    <glyph glyph-name="uni207D" unicode="&#x207d;" 
d="M347 926q33 165 127 321t230 276l152 -116q-206 -209 -260 -481q-15 -80 -15 -153q0 -179 88 -328l-198 -116q-139 187 -139 439q0 78 15 158z" />
    <glyph glyph-name="uni207E" unicode="&#x207e;" 
d="M621 926q-32 -165 -126 -321t-230 -276l-152 116q207 210 259 481q16 77 16 155q0 179 -88 326l198 116q139 -187 139 -437q0 -81 -16 -160z" />
    <glyph glyph-name="uni207F" unicode="&#x207f;" 
d="M395 872l-82 -420h-239l131 670h239l-9 -46q66 60 150 60q99 0 158 -57.5t59 -151.5q0 -29 -6 -60l-81 -415h-239l76 389q2 14 2 21q0 30 -17.5 48.5t-47.5 18.5q-55 0 -94 -57z" />
    <glyph glyph-name="zeroinferior" unicode="&#x2080;" 
d="M-9 212q44 222 163 360t289 138q135 0 205 -90.5t70 -245.5q0 -72 -17 -162q-43 -222 -162.5 -360t-288.5 -138q-136 0 -206 90t-70 246q0 74 17 162zM240 212q-16 -83 -16 -149q0 -128 69 -128q52 0 93 73.5t66 203.5q17 88 17 148q0 128 -69 128q-53 0 -94 -73
t-66 -203z" />
    <glyph glyph-name="oneinferior" unicode="&#x2081;" 
d="M404 686h218l-185 -948h-257l137 705l-152 -76l-59 174z" />
    <glyph glyph-name="twoinferior" unicode="&#x2082;" 
d="M530 151l-222 -199h297l-42 -214h-625l38 192l380 343q82 73 94 135q2 14 2 19q0 30 -18 48t-49 18q-68 0 -122 -104l-208 73q48 113 148.5 180.5t227.5 67.5q126 0 203.5 -62t77.5 -166q0 -30 -5 -54q-28 -143 -177 -277z" />
    <glyph glyph-name="threeinferior" unicode="&#x2083;" 
d="M386 46q2 9 2 25q0 41 -26 67t-68 26q-28 0 -54 -13l-75 122l220 201h-295l42 212h591l-39 -198l-202 -178q79 -26 121.5 -85.5t42.5 -140.5q0 -26 -7 -64q-24 -125 -144 -215.5t-277 -90.5q-105 0 -183.5 46t-112.5 127l185 149q55 -109 141 -109q49 0 88.5 34.5
t49.5 84.5z" />
    <glyph glyph-name="fourinferior" unicode="&#x2084;" 
d="M-90 -102l37 189l518 599h230l-113 -582h99l-41 -206h-99l-31 -160h-241l31 160h-390zM176 103h164l48 247z" />
    <glyph glyph-name="fiveinferior" unicode="&#x2085;" 
d="M229 -286q-107 0 -186.5 44t-119.5 125l193 149q54 -104 138 -104q48 0 90.5 35.5t52.5 84.5q2 9 2 25q0 42 -26 68t-70 26q-25 0 -52 -13t-45 -33l-184 24l169 541h552l-42 -212h-319l-39 -122q26 2 40 2q120 0 198 -68.5t78 -180.5q0 -29 -6 -61q-28 -144 -146 -237
t-278 -93z" />
    <glyph glyph-name="sixinferior" unicode="&#x2086;" 
d="M701 686l-272 -323q111 -13 181.5 -82.5t70.5 -175.5q0 -29 -6 -60q-18 -94 -82.5 -170.5t-155 -118.5t-187.5 -42q-133 0 -219.5 75.5t-86.5 194.5q0 29 6 61q18 95 82 171l400 470h269zM430 46q2 9 2 25q0 42 -26 68.5t-70 26.5q-50 0 -90.5 -34.5t-50.5 -85.5
q-2 -9 -2 -25q0 -42 26.5 -68.5t69.5 -26.5q50 0 90.5 34t50.5 86z" />
    <glyph glyph-name="seveninferior" unicode="&#x2087;" 
d="M118 686h643l-37 -186l-461 -762h-274l451 732h-364z" />
    <glyph glyph-name="eightinferior" unicode="&#x2088;" 
d="M199 32q-2 -12 -2 -24q0 -40 25.5 -65.5t66.5 -25.5q47 0 86.5 33t49.5 82q2 10 2 22q0 41 -26 67t-67 26q-47 0 -87 -33.5t-48 -81.5zM704 433q-10 -53 -45 -101.5t-84 -78.5q47 -28 71.5 -76t24.5 -104q0 -22 -5 -49q-25 -132 -144.5 -221t-271.5 -89
q-134 0 -217.5 71.5t-83.5 183.5q0 29 5 55q13 69 61.5 132t117.5 97q-63 50 -63 139q0 22 4 41q23 116 128 196.5t241 80.5q120 0 193 -64t73 -163q0 -22 -5 -50zM306 428q-1 -6 -1 -16q0 -29 18 -48.5t49 -19.5q35 0 63 24t35 59q2 10 2 18q0 28 -19 46t-49 18
q-36 0 -63.5 -23t-34.5 -58z" />
    <glyph glyph-name="nineinferior" unicode="&#x2089;" 
d="M-10 -262l272 323q-111 13 -181.5 82.5t-70.5 175.5q0 29 6 60q18 94 82.5 170.5t155 118.5t187.5 42q133 0 219.5 -75.5t86.5 -194.5q0 -30 -6 -61q-18 -95 -82 -171l-400 -470h-269zM261 378q-2 -11 -2 -25q0 -42 26 -68.5t70 -26.5q50 0 90.5 34t50.5 86q2 10 2 25
q0 42 -26.5 68.5t-69.5 26.5q-50 0 -90.5 -34t-50.5 -86z" />
    <glyph glyph-name="uni208A" unicode="&#x208a;" 
d="M222 -109v212h-210v218h210v212h246v-212h210v-218h-210v-212h-246z" />
    <glyph glyph-name="uni208B" unicode="&#x208b;" 
d="M678 103h-666v218h666v-218z" />
    <glyph glyph-name="uni208C" unicode="&#x208c;" 
d="M678 -57h-666v213h666v-213zM678 268h-666v213h666v-213z" />
    <glyph glyph-name="uni208D" unicode="&#x208d;" 
d="M209 212q33 165 127 321t230 276l152 -116q-206 -209 -260 -481q-15 -80 -15 -153q0 -179 88 -328l-198 -116q-139 187 -139 439q0 78 15 158z" />
    <glyph glyph-name="uni208E" unicode="&#x208e;" 
d="M482 212q-32 -165 -126 -321t-230 -276l-152 116q207 210 259 481q16 77 16 155q0 179 -88 326l198 116q139 -187 139 -437q0 -81 -16 -160z" />
    <glyph glyph-name="uni2090" unicode="&#x2090;" 
d="M409 -7l28 141q-9 33 -36.5 53t-65.5 20q-56 0 -101 -40.5t-57 -102.5q-3 -16 -3 -33q0 -49 28.5 -80t76.5 -31q39 0 74 20t56 53zM358 -272l9 50q-77 -64 -176 -64q-115 0 -186 76t-71 195q0 36 8 79q29 148 139.5 249t245.5 101q99 0 151 -65l10 51h235l-130 -672h-235
z" />
    <glyph glyph-name="uni2091" unicode="&#x2091;" 
d="M188 -4q3 -48 33.5 -76t81.5 -28q89 0 184 80l102 -128q-142 -130 -324 -130q-142 0 -225.5 78.5t-83.5 201.5q0 36 7 70q28 148 152 249t277 101q130 0 209.5 -76.5t79.5 -195.5q0 -36 -7 -68q-7 -35 -25 -78h-461zM354 235q-88 0 -134 -87h228q-3 42 -27.5 64.5
t-66.5 22.5z" />
    <glyph glyph-name="uni2092" unicode="&#x2092;" 
d="M-50 64q29 148 153.5 249t280.5 101q137 0 221.5 -79t84.5 -203q0 -36 -7 -68q-29 -148 -153.5 -249t-281.5 -101q-137 0 -221 79t-84 203q0 36 7 68zM185 64q-3 -16 -3 -32q0 -49 29 -80.5t77 -31.5q56 0 102 41.5t58 102.5q3 16 3 31q0 49 -29 80.5t-78 31.5
q-56 0 -102 -41.5t-57 -101.5z" />
    <glyph glyph-name="uni2093" unicode="&#x2093;" 
d="M306 400l45 -162l107 162h260l-252 -327l138 -345h-259l-58 182l-128 -182h-259l272 345l-126 327h260z" />
    <glyph glyph-name="uni2094" unicode="&#x2094;" 
d="M446 132q-3 48 -33.5 76t-81.5 28q-89 0 -184 -80l-102 128q141 130 324 130q142 0 225.5 -78.5t83.5 -201.5q0 -36 -7 -70q-29 -149 -152.5 -249.5t-276.5 -100.5q-130 0 -209.5 76.5t-79.5 195.5q0 36 7 68q8 42 25 78h461zM280 -107q88 0 134 87h-228
q3 -42 27.5 -64.5t66.5 -22.5z" />
    <glyph glyph-name="uni20A0" unicode="&#x20a0;" horiz-adv-x="1589" 
d="M572 422q-197 0 -319.5 114t-122.5 290q0 41 10 96q27 140 118.5 255t225.5 181t282 66q199 0 340 -136l-182 -211q-103 95 -202 95q-100 0 -181 -71.5t-103 -178.5q-5 -24 -5 -54q0 -86 53 -140.5t139 -54.5q118 0 222 76l43 221h654l-45 -231h-371l-27 -139h340
l-43 -224h-340l-28 -144h383l-45 -231h-666l92 473q-110 -52 -222 -52z" />
    <glyph glyph-name="colonmonetary" unicode="&#x20a1;" horiz-adv-x="1399" 
d="M1361 1604l-85 -229q100 -39 188 -118l-203 -229q-51 44 -90 65l-310 -834q148 23 286 125l121 -227q-232 -169 -511 -180l-67 -181h-166l70 191q-42 6 -86 19l-78 -210h-167l101 273q-127 76 -197.5 204t-70.5 286q0 72 14 141q52 269 263 467t489 244l72 193h167
l-67 -181q40 -1 90 -8l70 189h167zM429 700q-10 -55 -10 -94q0 -122 66 -212l263 708q-120 -54 -206.5 -161.5t-112.5 -240.5zM932 1149l-321 -865q36 -17 83 -27l330 888q-33 6 -71 6q-9 0 -21 -2z" />
    <glyph glyph-name="uni20A2" unicode="&#x20a2;" horiz-adv-x="1399" 
d="M1147 384l121 -227q-247 -181 -543 -181q-280 0 -454.5 164t-174.5 419q0 72 14 141q39 201 170 367t323 261.5t403 95.5q280 0 458 -167l-203 -229q-132 123 -308 123q-183 0 -335 -130.5t-189 -320.5q-9 -48 -9 -93q0 -109 51 -193t141 -126l108 552h268l-15 -77
q84 91 177 91q50 0 90 -23l-65 -216q-44 23 -82 23q-91 0 -164 -98l-54 -278q146 27 272 122z" />
    <glyph glyph-name="franc" unicode="&#x20a3;" horiz-adv-x="1124" 
d="M818 430h-296l-83 -430h-332l83 430h-172l31 159h172l16 80h-172l30 159h172l112 572h872l-56 -284h-540l-56 -288h296l-30 -159h-296l-16 -80h296z" />
    <glyph glyph-name="lira" unicode="&#x20a4;" horiz-adv-x="1171" 
d="M269 444h-207l29 150h213v20q0 21 -2 57h-196l29 150h136q-10 55 -10 104q0 47 9 97q33 169 186.5 285.5t345.5 116.5q149 0 249 -72.5t126 -183.5l-305 -148q-25 116 -126 116q-54 0 -95.5 -36.5t-52.5 -92.5q-5 -30 -5 -59q0 -58 16 -127h311l-29 -150h-256
q1 -15 1 -45q0 -21 -1 -32h241l-29 -150h-252q-44 -103 -140 -166h575l-54 -278h-944l51 264q131 59 186 180z" />
    <glyph glyph-name="uni20A6" unicode="&#x20a6;" horiz-adv-x="1478" 
d="M75 0l94 484h-140l34 175h140l16 82h-140l34 175h140l94 484h348l298 -892l174 892h308l-94 -484h140l-34 -175h-140l-16 -82h140l-34 -175h-140l-94 -484h-348l-299 892l-173 -892h-308z" />
    <glyph glyph-name="peseta" unicode="&#x20a7;" horiz-adv-x="2407" 
d="M1473 244h440q45 0 73.5 20t35.5 57q2 10 2 16q0 29 -25.5 49.5t-81.5 35.5q-116 31 -178 99t-62 166q0 34 7 68q26 133 138.5 219t263.5 86q93 0 172 -39t132 -105l-167 -198q-82 97 -156 97q-35 0 -61 -17t-32 -47q-2 -10 -2 -17q0 -59 96 -83q252 -65 252 -263
q0 -35 -7 -69q-27 -139 -145 -229t-280 -90h-471q-63 0 -115 6q-221 23 -221 236q0 47 10 97l84 429h-131q-69 -139 -193 -219.5t-275 -80.5h-131l-90 -468h-308l272 1400h439q166 0 260.5 -96.5t94.5 -257.5v-10h114l53 271l305 30l-58 -301h188l-52 -268h-188l-80 -411
q-4 -20 -4 -40q0 -73 82 -73zM797 934q6 33 6 61q0 66 -32.5 103.5t-93.5 37.5h-102l-78 -404h102q74 0 127.5 55t70.5 147z" />
    <glyph glyph-name="uni20A8" unicode="&#x20a8;" horiz-adv-x="1946" 
d="M319 1400h488q180 0 284 -95.5t104 -257.5q0 -52 -10 -103q-28 -146 -118 -253.5t-222 -156.5l190 -534h-349l-164 482h-60l-93 -482h-322zM1047 148l170 185q37 -52 93 -82.5t123 -30.5q55 0 93 23.5t46 58.5q2 9 2 16q0 31 -31.5 53.5t-100.5 39.5q-121 29 -184.5 98
t-63.5 170q0 35 7 70q26 136 141 223.5t270 87.5q94 0 176.5 -38.5t142.5 -103.5l-166 -186q-84 84 -174 84q-46 0 -77 -19t-38 -52q-1 -5 -1 -14q0 -64 119 -92q261 -61 261 -268q0 -36 -7 -70q-27 -141 -148.5 -233t-289.5 -92q-119 0 -215 45.5t-148 126.5zM724 1136
h-135l-77 -398h135q83 0 140 55.5t75 143.5q5 24 5 54q0 68 -37 106.5t-106 38.5z" />
    <glyph glyph-name="uni20A9" unicode="&#x20a9;" horiz-adv-x="2020" 
d="M1982 478h-262l-221 -478h-337l-66 951l-434 -951h-337l-37 478h-266l34 175h219l-6 77h-198l34 175h150l-36 495h343l34 -954l422 954h332l50 -954l406 954h343l-231 -495h147l-34 -175h-194l-36 -77h215z" />
    <glyph glyph-name="afii57636" unicode="&#x20aa;" horiz-adv-x="1770" 
d="M47 0l272 1400h563q192 0 312 -107.5t120 -274.5q0 -47 -8 -86l-80 -408h-286l73 373q5 28 5 50q0 84 -54 136.5t-144 52.5h-267l-220 -1136h-286zM1795 1400l-272 -1400h-563q-193 0 -313 107.5t-120 274.5q0 47 8 86l80 408h286l-73 -373q-5 -28 -5 -50
q0 -84 54 -136.5t144 -52.5h267l221 1136h286z" />
    <glyph glyph-name="dong" unicode="&#x20ab;" horiz-adv-x="1347" 
d="M724 1145l35 182h275l26 133h316l-26 -133h134l-35 -182h-134l-222 -1145h-316l18 96q-150 -120 -335 -120t-297.5 120.5t-112.5 306.5q0 60 11 115q45 227 220.5 384.5t389.5 157.5q89 0 164 -31.5t124 -88.5l40 205h-275zM591 258q79 0 149.5 39.5t114.5 105.5l44 229
q-18 66 -73.5 106t-133.5 40q-111 0 -200.5 -74.5t-111.5 -185.5q-5 -30 -5 -52q0 -92 59.5 -150t156.5 -58zM176 -380l46 236h745l-46 -236h-745z" />
    <glyph glyph-name="Euro" unicode="&#x20ac;" horiz-adv-x="1465" 
d="M999 484h-494q34 -108 124 -171.5t215 -63.5q93 0 191 37.5t178 97.5l121 -227q-247 -181 -543 -181q-259 0 -429 140.5t-196 367.5h-152l31 164h122q0 2 3.5 21.5l5.5 30.5q5 28 12 52h-122l32 164h152q114 226 338.5 367t483.5 141q280 0 458 -167l-203 -229
q-132 123 -308 123q-124 0 -239 -64t-191 -171h494l-32 -164h-544q-9 -26 -13 -52q-6 -38 -8 -52h544z" />
    <glyph glyph-name="afii61248" unicode="&#x2105;" horiz-adv-x="2117" 
d="M831 0h-251l684 1400h251zM548 576q-193 0 -324.5 123t-131.5 301t131.5 301t324.5 123q91 0 175.5 -30t148.5 -83l-141 -204q-96 80 -183 80q-79 0 -132.5 -54t-53.5 -133t53.5 -133t132.5 -54q96 0 183 79l153 -187q-66 -60 -153.5 -94.5t-182.5 -34.5zM1609 212
q79 0 132.5 54t53.5 133t-53.5 133t-132.5 54t-132.5 -54t-53.5 -133t53.5 -133t132.5 -54zM1609 823q193 0 324.5 -123t131.5 -301t-131.5 -300.5t-324.5 -122.5t-324.5 122.5t-131.5 300.5t131.5 301t324.5 123z" />
    <glyph glyph-name="uni2109" unicode="&#x2109;" horiz-adv-x="1658" 
d="M741 0v1400h872v-284h-540v-300h492v-284h-492v-532h-332zM60 1139q0 120 86.5 202.5t213.5 82.5t213.5 -82.5t86.5 -202.5t-86.5 -202.5t-213.5 -82.5t-213.5 82.5t-86.5 202.5zM266 1139q0 -41 26.5 -67.5t67.5 -26.5q40 0 67 26.5t27 67.5q0 40 -27 67t-67 27
q-41 0 -67.5 -27t-26.5 -67z" />
    <glyph glyph-name="afii61289" unicode="&#x2113;" horiz-adv-x="1145" 
d="M159 226l-84 247q122 45 215 84v508q0 152 116.5 255.5t286.5 103.5t286.5 -103.5t116.5 -255.5v-47q0 -343 -505 -610v-61q0 -47 29 -79.5t75 -32.5q107 0 164 128l235 -138q-47 -114 -155.5 -181.5t-243.5 -67.5q-154 0 -266 85t-132 215q-75 -29 -138 -50zM591 1051
v-335q106 70 155 145t49 162v26q0 49 -29 82.5t-73 33.5q-45 0 -73.5 -31.5t-28.5 -82.5z" />
    <glyph glyph-name="afii61352" unicode="&#x2116;" horiz-adv-x="2221" 
d="M167 0v1400h286l422 -832v832h297v-1400h-286l-422 832v-832h-297zM2111 314h-800v246h800v-246zM1570 1037q0 -61 40 -101t101 -40q60 0 100.5 40t40.5 101q0 60 -40.5 100.5t-100.5 40.5q-61 0 -101 -40.5t-40 -100.5zM1291 1037q0 162 121.5 274.5t298.5 112.5
q176 0 298 -112.5t122 -274.5q0 -163 -122 -275t-298 -112q-177 0 -298.5 112t-121.5 275z" />
    <glyph glyph-name="uni2117" unicode="&#x2117;" horiz-adv-x="1608" 
d="M887 557h-107v-243h-217v770h324q124 0 208 -75.5t84 -188.5q0 -112 -84 -187.5t-208 -75.5zM960 820q0 37 -26 60.5t-66 23.5h-88v-167h88q40 0 66 23.5t26 59.5zM100 700q0 149 56.5 283t153.5 231t231 153.5t283 56.5t283 -56.5t231 -153.5t153.5 -231t56.5 -283
t-56.5 -283t-153.5 -231t-231 -153.5t-283 -56.5t-283 56.5t-231 153.5t-153.5 231t-56.5 283zM232 700q0 -165 78.5 -303t214.5 -217.5t299 -79.5t299 79.5t214.5 217.5t78.5 303t-78.5 303t-214.5 217.5t-299 79.5t-299 -79.5t-214.5 -217.5t-78.5 -303z" />
    <glyph glyph-name="uni2120" unicode="&#x2120;" horiz-adv-x="1597" 
d="M76 788l124 137q47 -51 96 -81.5t84 -30.5q36 0 59 17.5t23 46.5q0 61 -112 84q-125 25 -187.5 84t-62.5 146q0 98 75.5 159.5t196.5 61.5q164 0 278 -117l-115 -140q-99 91 -159 91q-26 0 -43.5 -13t-17.5 -34q0 -55 104 -79q135 -32 196.5 -92t61.5 -151
q0 -103 -79.5 -166t-215.5 -63q-84 0 -165.5 37t-140.5 103zM1300 1059l-116 -193h-130l-116 193v-399h-209v740h193l197 -314l197 314h193v-740h-209v399z" />
    <glyph glyph-name="uni2121" unicode="&#x2121;" horiz-adv-x="2265" 
d="M1127 429q12 -98 62.5 -154.5t124.5 -56.5q105 0 216 137l172 -184q-141 -195 -390 -195q-143 0 -256 72t-175 195.5t-62 274.5q0 150 62.5 274.5t172.5 196t244 71.5q132 0 238.5 -70.5t166 -190.5t59.5 -264q0 -56 -13 -106h-622zM389 0v1114h-319v286h953v-286h-319
v-1114h-315zM1832 0v1460h306v-1460h-306zM1295 818q-61 0 -105 -49.5t-59 -136.5h320q-13 86 -54 136t-102 50z" />
    <glyph glyph-name="trademark" unicode="&#x2122;" horiz-adv-x="1571" 
d="M245 660v556h-177v184h577v-184h-177v-556h-223zM1274 1059l-116 -193h-130l-116 193v-399h-209v740h193l197 -314l197 314h193v-740h-209v399z" />
    <glyph glyph-name="Omega" unicode="&#x2126;" horiz-adv-x="1620" 
d="M1223 731q0 170 -113.5 287.5t-279.5 117.5t-279.5 -117.5t-113.5 -287.5q0 -149 81.5 -270.5t225.5 -190.5v-270h-620v288h252q-134 87 -203.5 208.5t-69.5 269.5q0 136 56.5 258t153.5 209.5t232 139t285 51.5t285 -51.5t232 -139t153.5 -209.5t56.5 -258
q0 -148 -69.5 -269.5t-203.5 -208.5h252v-288h-620v270q144 69 225.5 190.5t81.5 270.5z" />
    <glyph glyph-name="estimated" unicode="&#x212e;" horiz-adv-x="1608" 
d="M1548 617h-1118v-303q75 -81 176.5 -126t217.5 -45q137 0 255 63t194 178l146 -100q-102 -146 -258.5 -227t-336.5 -81q-149 0 -283 56.5t-231 153.5t-153.5 231t-56.5 283t56.5 283t153.5 231t231 153.5t283 56.5t283 -56.5t231 -153.5t153.5 -231t56.5 -283v-83z
M824 1257q-116 0 -217.5 -45.5t-176.5 -126.5v-303h788v303q-161 172 -394 172z" />
    <glyph glyph-name="onethird" unicode="&#x2153;" horiz-adv-x="1950" 
d="M542 1400h218l-185 -948h-257l137 705l-152 -76l-59 174zM411 0l956 1400h245l-954 -1400h-247zM1577 308q2 9 2 25q0 41 -26 67t-68 26q-28 0 -54 -13l-75 122l220 201h-295l42 212h591l-39 -198l-202 -178q79 -26 121.5 -85.5t42.5 -140.5q0 -26 -7 -64
q-24 -125 -144 -215.5t-277 -90.5q-105 0 -183.5 46t-112.5 127l185 149q54 -109 141 -109q49 0 88.5 34.5t49.5 84.5z" />
    <glyph glyph-name="twothirds" unicode="&#x2154;" horiz-adv-x="1950" 
d="M668 865l-222 -199h297l-42 -214h-625l38 192l380 343q82 73 94 135q2 14 2 19q0 30 -18 48t-49 18q-68 0 -122 -104l-208 73q48 113 148.5 180.5t227.5 67.5q126 0 203.5 -62t77.5 -166q0 -30 -5 -54q-28 -143 -177 -277zM411 0l956 1400h245l-954 -1400h-247zM1577 308
q2 9 2 25q0 41 -26 67t-68 26q-28 0 -54 -13l-75 122l220 201h-295l42 212h591l-39 -198l-202 -178q79 -26 121.5 -85.5t42.5 -140.5q0 -26 -7 -64q-24 -125 -144 -215.5t-277 -90.5q-105 0 -183.5 46t-112.5 127l185 149q54 -109 141 -109q49 0 88.5 34.5t49.5 84.5z" />
    <glyph glyph-name="onefifth" unicode="&#x2155;" horiz-adv-x="1950" 
d="M542 1400h218l-185 -948h-257l137 705l-152 -76l-59 174zM411 0l956 1400h245l-954 -1400h-247zM1420 -26q-107 0 -186.5 44t-119.5 125l193 149q54 -104 138 -104q48 0 90.5 35.5t52.5 84.5q2 9 2 25q0 42 -26 68t-70 26q-25 0 -52 -13t-45 -33l-184 24l169 541h552
l-42 -212h-319l-39 -122q26 2 40 2q120 0 198 -68.5t78 -180.5q0 -29 -6 -61q-28 -144 -146 -237t-278 -93z" />
    <glyph glyph-name="twofifths" unicode="&#x2156;" horiz-adv-x="1950" 
d="M668 865l-222 -199h297l-42 -214h-625l38 192l380 343q82 73 94 135q2 14 2 19q0 30 -18 48t-49 18q-68 0 -122 -104l-208 73q48 113 148.5 180.5t227.5 67.5q126 0 203.5 -62t77.5 -166q0 -30 -5 -54q-28 -143 -177 -277zM411 0l956 1400h245l-954 -1400h-247zM1420 -26
q-107 0 -186.5 44t-119.5 125l193 149q54 -104 138 -104q48 0 90.5 35.5t52.5 84.5q2 9 2 25q0 42 -26 68t-70 26q-25 0 -52 -13t-45 -33l-184 24l169 541h552l-42 -212h-319l-39 -122q26 2 40 2q120 0 198 -68.5t78 -180.5q0 -29 -6 -61q-28 -144 -146 -237t-278 -93z" />
    <glyph glyph-name="threefifths" unicode="&#x2157;" horiz-adv-x="1950" 
d="M525 760q2 9 2 25q0 41 -26 67t-68 26q-28 0 -54 -13l-75 122l220 201h-295l42 212h591l-39 -198l-202 -178q79 -26 121.5 -85.5t42.5 -140.5q0 -26 -7 -64q-24 -125 -144 -215.5t-277 -90.5q-105 0 -183.5 46t-112.5 127l185 149q54 -109 141 -109q49 0 88.5 34.5
t49.5 84.5zM411 0l956 1400h245l-954 -1400h-247zM1420 -26q-107 0 -186.5 44t-119.5 125l193 149q54 -104 138 -104q48 0 90.5 35.5t52.5 84.5q2 9 2 25q0 42 -26 68t-70 26q-25 0 -52 -13t-45 -33l-184 24l169 541h552l-42 -212h-319l-39 -122q26 2 40 2q120 0 198 -68.5
t78 -180.5q0 -29 -6 -61q-28 -144 -146 -237t-278 -93z" />
    <glyph glyph-name="fourfifths" unicode="&#x2158;" horiz-adv-x="1950" 
d="M49 612l37 189l518 599h230l-113 -582h99l-41 -206h-99l-31 -160h-241l31 160h-390zM315 817h164l48 247zM411 0l956 1400h245l-954 -1400h-247zM1420 -26q-107 0 -186.5 44t-119.5 125l193 149q54 -104 138 -104q48 0 90.5 35.5t52.5 84.5q2 9 2 25q0 42 -26 68t-70 26
q-25 0 -52 -13t-45 -33l-184 24l169 541h552l-42 -212h-319l-39 -122q26 2 40 2q120 0 198 -68.5t78 -180.5q0 -29 -6 -61q-28 -144 -146 -237t-278 -93z" />
    <glyph glyph-name="onesixth" unicode="&#x2159;" horiz-adv-x="1950" 
d="M542 1400h218l-185 -948h-257l137 705l-152 -76l-59 174zM411 0l956 1400h245l-954 -1400h-247zM1892 948l-272 -323q111 -13 181.5 -82.5t70.5 -175.5q0 -29 -6 -60q-18 -94 -82.5 -170.5t-155 -118.5t-187.5 -42q-133 0 -219.5 75.5t-86.5 194.5q0 30 6 61
q18 95 82 171l400 470h269zM1621 308q2 9 2 25q0 42 -26 68.5t-70 26.5q-50 0 -90.5 -34.5t-50.5 -85.5q-2 -9 -2 -25q0 -42 26.5 -68.5t69.5 -26.5q50 0 90.5 34t50.5 86z" />
    <glyph glyph-name="fivesixths" unicode="&#x215a;" horiz-adv-x="1950" 
d="M368 428q-107 0 -186.5 44t-119.5 125l193 149q54 -104 138 -104q48 0 90.5 35.5t52.5 84.5q2 9 2 25q0 42 -26 68t-70 26q-25 0 -52 -13t-45 -33l-184 24l169 541h552l-42 -212h-319l-39 -122q26 2 40 2q120 0 198 -68.5t78 -180.5q0 -29 -6 -61q-28 -144 -146 -237
t-278 -93zM411 0l956 1400h245l-954 -1400h-247zM1892 948l-272 -323q111 -13 181.5 -82.5t70.5 -175.5q0 -29 -6 -60q-18 -94 -82.5 -170.5t-155 -118.5t-187.5 -42q-133 0 -219.5 75.5t-86.5 194.5q0 30 6 61q18 95 82 171l400 470h269zM1621 308q2 9 2 25q0 42 -26 68.5
t-70 26.5q-50 0 -90.5 -34.5t-50.5 -85.5q-2 -9 -2 -25q0 -42 26.5 -68.5t69.5 -26.5q50 0 90.5 34t50.5 86z" />
    <glyph glyph-name="oneeighth" unicode="&#x215b;" horiz-adv-x="1950" 
d="M542 1400h218l-185 -948h-257l137 705l-152 -76l-59 174zM411 0l956 1400h245l-954 -1400h-247zM1389 292q-2 -12 -2 -24q0 -40 25.5 -65.5t66.5 -25.5q47 0 86.5 33t49.5 82q2 10 2 22q0 41 -26 67t-67 26q-47 0 -87 -33.5t-48 -81.5zM1894 693q-10 -53 -45 -101.5
t-84 -78.5q47 -28 71.5 -76t24.5 -104q0 -22 -5 -49q-25 -132 -144.5 -221t-271.5 -89q-134 0 -217.5 71.5t-83.5 183.5q0 29 5 55q13 69 61.5 132t117.5 97q-63 50 -63 139q0 22 4 41q23 116 128 196.5t241 80.5q120 0 193 -64t73 -163q0 -22 -5 -50zM1496 688
q-1 -6 -1 -16q0 -29 18 -48.5t49 -19.5q35 0 63 24t35 59q2 10 2 18q0 28 -19 46t-49 18q-36 0 -63.5 -23t-34.5 -58z" />
    <glyph glyph-name="threeeighths" unicode="&#x215c;" horiz-adv-x="1950" 
d="M525 760q2 9 2 25q0 41 -26 67t-68 26q-28 0 -54 -13l-75 122l220 201h-295l42 212h591l-39 -198l-202 -178q79 -26 121.5 -85.5t42.5 -140.5q0 -26 -7 -64q-24 -125 -144 -215.5t-277 -90.5q-105 0 -183.5 46t-112.5 127l185 149q54 -109 141 -109q49 0 88.5 34.5
t49.5 84.5zM411 0l956 1400h245l-954 -1400h-247zM1389 292q-2 -12 -2 -24q0 -40 25.5 -65.5t66.5 -25.5q47 0 86.5 33t49.5 82q2 10 2 22q0 41 -26 67t-67 26q-47 0 -87 -33.5t-48 -81.5zM1894 693q-10 -53 -45 -101.5t-84 -78.5q47 -28 71.5 -76t24.5 -104q0 -22 -5 -49
q-25 -132 -144.5 -221t-271.5 -89q-134 0 -217.5 71.5t-83.5 183.5q0 29 5 55q13 69 61.5 132t117.5 97q-63 50 -63 139q0 22 4 41q23 116 128 196.5t241 80.5q120 0 193 -64t73 -163q0 -22 -5 -50zM1496 688q-1 -6 -1 -16q0 -29 18 -48.5t49 -19.5q35 0 63 24t35 59
q2 10 2 18q0 28 -19 46t-49 18q-36 0 -63.5 -23t-34.5 -58z" />
    <glyph glyph-name="fiveeighths" unicode="&#x215d;" horiz-adv-x="1950" 
d="M368 428q-107 0 -186.5 44t-119.5 125l193 149q54 -104 138 -104q48 0 90.5 35.5t52.5 84.5q2 9 2 25q0 42 -26 68t-70 26q-25 0 -52 -13t-45 -33l-184 24l169 541h552l-42 -212h-319l-39 -122q26 2 40 2q120 0 198 -68.5t78 -180.5q0 -29 -6 -61q-28 -144 -146 -237
t-278 -93zM411 0l956 1400h245l-954 -1400h-247zM1389 292q-2 -12 -2 -24q0 -40 25.5 -65.5t66.5 -25.5q47 0 86.5 33t49.5 82q2 10 2 22q0 41 -26 67t-67 26q-47 0 -87 -33.5t-48 -81.5zM1894 693q-10 -53 -45 -101.5t-84 -78.5q47 -28 71.5 -76t24.5 -104q0 -22 -5 -49
q-25 -132 -144.5 -221t-271.5 -89q-134 0 -217.5 71.5t-83.5 183.5q0 29 5 55q13 69 61.5 132t117.5 97q-63 50 -63 139q0 22 4 41q23 116 128 196.5t241 80.5q120 0 193 -64t73 -163q0 -22 -5 -50zM1496 688q-1 -6 -1 -16q0 -29 18 -48.5t49 -19.5q35 0 63 24t35 59
q2 10 2 18q0 28 -19 46t-49 18q-36 0 -63.5 -23t-34.5 -58z" />
    <glyph glyph-name="seveneighths" unicode="&#x215e;" horiz-adv-x="1950" 
d="M257 1400h643l-37 -186l-461 -762h-274l451 732h-364zM411 0l956 1400h245l-954 -1400h-247zM1389 292q-2 -12 -2 -24q0 -40 25.5 -65.5t66.5 -25.5q47 0 86.5 33t49.5 82q2 10 2 22q0 41 -26 67t-67 26q-47 0 -87 -33.5t-48 -81.5zM1894 693q-10 -53 -45 -101.5
t-84 -78.5q47 -28 71.5 -76t24.5 -104q0 -22 -5 -49q-25 -132 -144.5 -221t-271.5 -89q-134 0 -217.5 71.5t-83.5 183.5q0 29 5 55q13 69 61.5 132t117.5 97q-63 50 -63 139q0 22 4 41q23 116 128 196.5t241 80.5q120 0 193 -64t73 -163q0 -22 -5 -50zM1496 688
q-1 -6 -1 -16q0 -29 18 -48.5t49 -19.5q35 0 63 24t35 59q2 10 2 18q0 28 -19 46t-49 18q-36 0 -63.5 -23t-34.5 -58z" />
    <glyph glyph-name="uni215F" unicode="&#x215f;" horiz-adv-x="1950" 
d="M542 1400h218l-185 -948h-257l137 705l-152 -76l-59 174zM411 0l956 1400h245l-954 -1400h-247z" />
    <glyph glyph-name="arrowleft" unicode="&#x2190;" horiz-adv-x="1720" 
d="M1668 818v-308h-1080v-232l-496 386l496 386v-232h1080z" />
    <glyph glyph-name="arrowup" unicode="&#x2191;" horiz-adv-x="1720" 
d="M1034 -76h-308v1080h-232l386 496l386 -496h-232v-1080z" />
    <glyph glyph-name="arrowright" unicode="&#x2192;" horiz-adv-x="1720" 
d="M92 510v308h1080v232l496 -386l-496 -386v232h-1080z" />
    <glyph glyph-name="arrowdown" unicode="&#x2193;" horiz-adv-x="1720" 
d="M726 1500h308v-1080h232l-386 -496l-386 496h232v1080z" />
    <glyph glyph-name="arrowboth" unicode="&#x2194;" horiz-adv-x="1720" 
d="M588 1050v-232h584v232l496 -386l-496 -386v232h-584v-232l-496 386z" />
    <glyph glyph-name="arrowupdn" unicode="&#x2195;" horiz-adv-x="1720" 
d="M1034 420h232l-386 -496l-386 496h232v584h-232l386 496l386 -496h-232v-584z" />
    <glyph glyph-name="arrowupdnbse" unicode="&#x21a8;" horiz-adv-x="1720" 
d="M1034 420h232l-364 -468h334v-168h-712v168h334l-364 468h232v584h-232l386 496l386 -496h-232v-584z" />
    <glyph glyph-name="partialdiff" unicode="&#x2202;" horiz-adv-x="1244" 
d="M583 930q81 0 154 -33t122 -88q-30 333 -267 333q-149 0 -273 -117l-120 248q155 151 398 151q184 0 318 -92t202 -255.5t68 -380.5q0 -170 -44.5 -308t-122 -227t-181.5 -137t-225 -48q-224 0 -379 138.5t-155 338.5q0 130 70.5 240.5t186.5 173.5t248 63zM612 258
q204 0 242 278q-99 112 -242 112q-91 0 -152 -56t-61 -139t61 -139t152 -56z" />
    <glyph glyph-name="Delta" unicode="&#x2206;" horiz-adv-x="1390" 
d="M897 1400l486 -1400h-1336l486 1400h364zM715 1052l-247 -778h493z" />
    <glyph glyph-name="product" unicode="&#x220f;" horiz-adv-x="1370" 
d="M1243 1480v-1702h-332v1416h-412v-1416h-332v1702h1076z" />
    <glyph glyph-name="summation" unicode="&#x2211;" horiz-adv-x="1324" 
d="M126 99l475 541l-475 519v321h1112v-284h-739l413 -456v-200l-411 -478h737v-284h-1112v321z" />
    <glyph glyph-name="minus" unicode="&#x2212;" horiz-adv-x="1172" 
d="M1076 523h-940v282h940v-282z" />
    <glyph glyph-name="uni2215" unicode="&#x2215;" horiz-adv-x="331" 
d="M-279 0l684 1400h245l-682 -1400h-247z" />
    <glyph glyph-name="uni2219" unicode="&#x2219;" horiz-adv-x="606" 
d="M132 653q0 78 54.5 131t136.5 53t136.5 -53t54.5 -131t-54.5 -131t-136.5 -53t-136.5 53t-54.5 131z" />
    <glyph glyph-name="radical" unicode="&#x221a;" horiz-adv-x="1143" 
d="M719 0h-374l-305 750h335l136 -377l302 1167h330z" />
    </font>
</defs>
</svg>
