<?xml version="1.0" encoding="UTF-8"?>
<svg width="20px" height="22px" viewBox="0 0 20 22" version="1.1" xmlns="http://www.w3.org/2000/svg" xmlns:xlink="http://www.w3.org/1999/xlink">
    <!-- Generator: Sketch 51.3 (57544) - http://www.bohemiancoding.com/sketch -->
    <title>Cuenta atras</title>
    <desc>Created with Sketch.</desc>
    <defs>
        <path d="M4.70007213,3.14391793 L3.8658473,2.36537953 L3.85918993,2.35964004 C3.84428745,2.34620381 3.82623727,2.33505562 3.80504632,2.32774614 C3.75360447,2.30938867 3.6979421,2.31661416 3.6579203,2.34183072 C3.65431297,2.34405687 3.65162488,2.34640683 3.64844931,2.34888484 L3.64870698,2.34872583 C2.43162319,3.2316359 1.41882066,4.36269944 0.745134807,5.68859603 C0.386880752,6.39447397 0.14087709,7.11953813 -3.26816352e-12,7.85004392 L0.281158921,7.88558667 C1.11653564,5.90618003 2.68609433,4.26411717 4.70007213,3.14391793 M14.7981942,20.8867421 L15.3279951,21.855142 L15.3323207,21.8624899 C15.3417957,21.8792123 15.3542049,21.8938906 15.3699164,21.9049951 C15.4079388,21.9332228 15.4538311,21.9348303 15.4903461,21.9146076 C15.4936508,21.91252 15.4962146,21.9105195 15.4991489,21.9084754 L15.4989637,21.9084972 C16.6304526,21.1678293 17.6425003,20.128851 18.417686,18.8259765 C18.8300745,18.1325495 19.1558335,17.3998387 19.3983503,16.6440088 L19.1795623,16.5593316 C18.1588106,18.532606 16.6099725,20.0248311 14.7981942,20.8867421 M9.65731261,19.800883 C5.38063464,19.800883 1.9014482,16.3476614 1.9014482,12.1028999 C1.9014482,7.85844111 5.38063464,4.40491667 9.65731261,4.40491667 C13.9339906,4.40491667 17.413177,7.85844111 17.413177,12.1028999 C17.413177,16.3476614 13.9339906,19.800883 9.65731261,19.800883 M9.65731261,3.19368495 C4.70761769,3.19368495 0.681109216,7.19014401 0.681109216,12.1028999 C0.681109216,17.0156557 4.70761769,21.0121148 9.65731261,21.0121148 C14.6070075,21.0121148 18.633516,17.0156557 18.633516,12.1028999 C18.633516,7.19014401 14.6070075,3.19368495 9.65731261,3.19368495 M9.05419057,12.1028999 L10.2745296,12.1028999 L10.2745296,6.65235712 L9.05419057,6.65235712 L9.05419057,12.1028999 Z M9.0542821,2.15508403 L10.2746211,2.15508403 L10.2746211,1.21123172 L11.3161804,1.21123172 L11.3161804,0 L8.01272278,0 L8.01272278,1.21123172 L9.0542821,1.21123172 L9.0542821,2.15508403 Z" id="path-1"></path>
    </defs>
    <g id="Rol-LIGA" stroke="none" stroke-width="1" fill="none" fill-rule="evenodd">
        <g id="LALIAlegaciones2_LALIGA" transform="translate(-192.000000, -409.000000)">
            <g id="Group-8" transform="translate(106.000000, 363.000000)">
                <g id="Cuenta-atras" transform="translate(86.000000, 46.000000)">
                    <g id="color/azul">
                        <mask id="mask-2" fill="white">
                            <use xlink:href="#path-1"></use>
                        </mask>
                        <use id="Mask" fill="#654EA3" xlink:href="#path-1"></use>
                        <g id="color/blanco" mask="url(#mask-2)" fill="#FFFFFF">
                            <g transform="translate(-2.000000, -1.000000)" id="Rectangle-3">
                                <rect x="0" y="0" width="24.1241379" height="24.1241379"></rect>
                            </g>
                        </g>
                    </g>
                </g>
            </g>
        </g>
    </g>
</svg>