<?xml version="1.0" encoding="UTF-8"?>
<svg width="92px" height="29px" viewBox="0 0 92 29" version="1.1" xmlns="http://www.w3.org/2000/svg" xmlns:xlink="http://www.w3.org/1999/xlink">
    <!-- Generator: Sketch 51.3 (57544) - http://www.bohemiancoding.com/sketch -->
    <title>Logo</title>
    <desc>Created with Sketch.</desc>
    <defs></defs>
    <g id="Symbols" stroke="none" stroke-width="1" fill="none" fill-rule="evenodd">
        <g id="Menu-Oscuro" transform="translate(-45.000000, -19.000000)">
            <g id="Logo" transform="translate(45.000000, 19.000000)">
                <path d="M41.383221,20.7062636 L33.8935448,20.7062636 L33.8935448,7.62023333 L37.2822114,7.62023333 L37.2822114,17.7337636 L41.383221,17.7337636 L41.383221,20.7062636 Z M47.6189371,12.9500379 C46.1105752,12.9500379 45.1441371,14.0775227 45.1441371,15.4611742 C45.1441371,16.9138106 46.0597562,18.1089621 47.517299,18.1089621 C48.9240229,18.1089621 50.092861,17.0675985 50.092861,15.5468561 C50.092861,14.0098561 49.0081371,12.9500379 47.6189371,12.9500379 M41.942099,15.5130227 C41.942099,12.5914924 44.094461,10.0118106 46.9920229,10.0118106 C48.262061,10.0118106 49.0589562,10.4393409 49.9907848,11.2935227 L49.9907848,10.2183258 L53.1095848,10.2183258 L53.1095848,20.7062197 L49.9399657,20.7062197 L49.9399657,19.6811136 C49.9399657,19.6811136 48.804861,20.9628258 46.82248,20.9628258 C43.92448,20.9628258 41.942099,18.8770227 41.942099,15.5130227 M62.4642762,20.7062636 L54.9737238,20.7062636 L54.9737238,7.62023333 L58.3632667,7.62023333 L58.3632667,17.7337636 L62.4642762,17.7337636 L62.4642762,20.7062636 Z M63.8694667,20.7064394 L67.022,20.7064394 L67.022,10.2185455 L63.8694667,10.2185455 L63.8694667,20.7064394 Z M63.5658667,7.55274242 C63.5658667,6.49292424 64.4118286,5.62204545 65.4636952,5.62204545 C66.5142476,5.62204545 67.3781714,6.45909091 67.3781714,7.5180303 C67.3781714,8.59454545 66.5142476,9.46542424 65.4290857,9.46542424 C64.395181,9.46542424 63.5658667,8.62837879 63.5658667,7.55274242 Z M73.6475333,12.7277485 C72.1733429,12.7277485 71.4439143,13.9404758 71.4439143,15.2393242 C71.4439143,16.588703 72.2408095,17.6999303 73.6308857,17.6999303 C75.2071524,17.6999303 76.0526762,16.4349152 76.0526762,15.2569 C76.0526762,13.8552333 75.2733048,12.7277485 73.6475333,12.7277485 M68.3772476,15.2569 C68.3772476,12.4206121 70.1738762,10.0118545 72.919419,10.0118545 C74.2411524,10.0118545 75.1388095,10.4393848 76.0360286,11.3955061 L76.0360286,10.2183697 L79.0536286,10.2183697 L79.0536286,19.459703 C79.0536286,22.7046273 76.6292095,24.3954152 73.715,24.3954152 C71.1560857,24.3954152 68.9191714,23.0974455 68.5822762,20.7396576 L72.1234,20.7396576 C72.5619333,21.4576273 73.002219,21.5929606 73.7833429,21.5929606 C74.8842762,21.5929606 75.900219,21.0819455 75.900219,19.9377636 C75.900219,19.6635818 75.9177429,19.4245515 75.8840095,19.1516879 C75.2733048,19.6982939 74.1386381,20.3648545 72.9014571,20.3648545 C70.2080476,20.3648545 68.3772476,18.1090061 68.3772476,15.2569 M86.0861086,12.9500379 C84.5773086,12.9500379 83.6121848,14.0775227 83.6121848,15.4611742 C83.6121848,16.9138106 84.5264895,18.1089621 85.9835943,18.1089621 C87.3903181,18.1089621 88.5595943,17.0675985 88.5595943,15.5468561 C88.5595943,14.0098561 87.4761848,12.9500379 86.0861086,12.9500379 M80.4088324,15.5130227 C80.4088324,12.5914924 82.5603181,10.0118106 85.45788,10.0118106 C86.7292324,10.0118106 87.5261276,10.4393409 88.4579562,11.2935227 L88.4579562,10.2183258 L91.5763181,10.2183258 L91.5763181,20.7062197 L88.4071371,20.7062197 L88.4071371,19.6811136 C88.4071371,19.6811136 87.2715943,20.9628258 85.2892133,20.9628258 C82.3916514,20.9628258 80.4088324,18.8770227 80.4088324,15.5130227" id="Combined-Shape" fill="#FFFFFF"></path>
                <path d="M3.9712019,6.4322 C3.94491619,6.4827303 3.94666857,6.54556364 3.97996381,6.59565455 C3.99573524,6.61894242 4.01588762,6.63651818 4.03910667,6.64838182 L8.95322095,9.5132303 L8.96417333,9.51938182 C9.01586857,9.54706364 9.08070667,9.54530606 9.13152571,9.50883636 C9.14773524,9.49741212 9.1608781,9.48379091 9.17139238,9.46797273 C9.17621143,9.46050303 9.18103048,9.45259394 9.18453524,9.44424545 C9.63752571,8.63883636 10.268821,7.9186697 11.0714114,7.34877576 C11.8766305,6.77712424 12.7677162,6.41857879 13.6793924,6.25907879 C13.6855257,6.25863939 13.6920971,6.25732121 13.6986686,6.25600303 C13.7179448,6.2511697 13.737221,6.24282121 13.7543067,6.23095758 C13.8060019,6.19404848 13.8287829,6.13297273 13.8195829,6.07497273 L13.8173924,6.06398788 L12.7777924,0.459957576 L12.7756019,0.450290909 C12.771659,0.427442424 12.762021,0.405472727 12.7475638,0.386578788 C12.7120781,0.339124242 12.6560019,0.317154545 12.60124,0.323306061 C12.5959829,0.324184848 12.59204,0.325063636 12.587659,0.325942424 L12.5880971,0.32550303 C10.8510495,0.640987879 9.1332781,1.33610909 7.59731619,2.42668485 C6.06135429,3.51726061 4.84564,4.89300303 3.97164,6.43176061" id="Fill-52" fill="#7F2F7C"></path>
                <path d="M1.16507048,17.2584712 C1.18785143,17.3103197 1.23779429,17.348547 1.29781333,17.3538197 C1.32541333,17.3560167 1.35213714,17.3511833 1.37579429,17.3406379 L6.67937524,15.2908652 L6.69120381,15.2860318 C6.74508952,15.2631833 6.78408,15.2108955 6.78758476,15.1485015 C6.78889905,15.1287288 6.78627048,15.1098348 6.78101333,15.0918197 C6.77838476,15.0830318 6.77488,15.0751227 6.77049905,15.0667742 C6.42834667,14.2081985 6.26318476,13.2635015 6.32276571,12.2792591 C6.38234667,11.2915015 6.66141333,10.3705318 7.10783238,9.55721364 C7.11177524,9.5523803 7.1148419,9.54622879 7.11747048,9.54095606 C7.12579429,9.52250152 7.13148952,9.50185 7.1332419,9.48119848 C7.13674667,9.41792576 7.10345143,9.36168333 7.05263238,9.33224394 L7.04255619,9.32697121 L2.03468952,6.63216818 L2.02592762,6.62777424 C2.00577524,6.61678939 1.98299429,6.61063788 1.95889905,6.61019848 C1.89975619,6.60800152 1.84718476,6.6383197 1.81783238,6.68489545 C1.81520381,6.68928939 1.81345143,6.69280455 1.81126095,6.69719848 L1.81169905,6.69675909 C0.969241905,8.25221364 0.434765714,10.0313197 0.320860952,11.9145621 C0.20695619,13.7991227 0.515813333,15.6111833 1.16507048,17.257153" id="Fill-53" fill="#315192"></path>
                <path d="M7.90573524,26.1556273 C7.96049714,26.1701273 8.02139238,26.1543091 8.06257333,26.1108091 C8.08141143,26.090597 8.09411619,26.0664303 8.10068762,26.0413848 L9.79173524,20.5986121 L9.79524,20.5867485 C9.81101143,20.5296273 9.7948019,20.4672333 9.74792571,20.4250515 C9.73303048,20.4118697 9.71682095,20.402203 9.69973524,20.3951727 C9.69097333,20.392097 9.68221143,20.3894606 9.67344952,20.3881424 C8.78981143,20.1240667 7.94910667,19.6666576 7.21661143,19.0088848 C6.48148762,18.3489152 5.93518286,17.5571273 5.57725905,16.7016273 C5.57506857,16.6950364 5.57244,16.6893242 5.56981143,16.6831727 C5.56061143,16.6651576 5.54834476,16.6480212 5.53301143,16.6344 C5.48569714,16.5917788 5.42129714,16.5834303 5.36697333,16.6054 L5.35645905,16.6097939 L0.140497143,18.8731121 L0.131735238,18.8775061 C0.110268571,18.8871727 0.0914304762,18.9007939 0.0760971429,18.9192485 C0.0379828571,18.9645061 0.0287828571,19.024703 0.0471828571,19.0765515 C0.0489352381,19.0809455 0.050687619,19.0853394 0.05244,19.0892939 L0.05244,19.0888545 C0.745506667,20.7172485 1.80350667,22.2419455 3.20453524,23.5012485 C4.6068781,24.7605515 6.21468762,25.6428545 7.90485905,26.1551879" id="Fill-54" fill="#4578AF"></path>
                <path d="M18.9881429,26.4206697 C19.0337048,26.3872758 19.0595524,26.3301545 19.0512286,26.2699576 C19.0477238,26.2422758 19.0367714,26.2176697 19.0214381,26.1970182 L15.8535714,21.4638667 L15.8461238,21.4533212 C15.8119524,21.4054273 15.7528095,21.3786242 15.6914762,21.3891697 C15.6717619,21.3922455 15.6538,21.3988364 15.6375905,21.4080636 C15.6297048,21.412897 15.6222571,21.4181697 15.6156857,21.4238818 C14.8564667,21.9489576 13.9741429,22.3193667 13.0042,22.4793061 C12.0307524,22.6396848 11.0730762,22.5707 10.184181,22.3140939 C10.1780476,22.3114576 10.1714762,22.3101394 10.1653429,22.3088212 C10.1456286,22.3039879 10.1246,22.3031091 10.1044476,22.3066242 C10.0418,22.3171697 9.99448571,22.3619879 9.9774,22.4182303 L9.97433333,22.4287758 L8.46334286,27.9238364 L8.46115238,27.933503 C8.45501905,27.9559121 8.45370476,27.9792 8.45852381,28.0033667 C8.46991429,28.0613667 8.51065714,28.1057455 8.56279048,28.1246394 C8.56717143,28.1259576 8.57155238,28.1272758 8.57593333,28.1281545 L8.57549524,28.1281545 C10.2748667,28.6075333 12.1223143,28.7362758 13.9794,28.4300182 C15.8364857,28.1242 17.5297238,27.4207303 18.9872667,26.4215485" id="Fill-55" fill="#1BA850"></path>
                <path d="M26.20344,17.9306561 C26.2051924,17.8744136 26.1767162,17.8181712 26.1245829,17.7874136 C26.1004876,17.7737924 26.07464,17.7667621 26.0483543,17.7658833 L20.3820305,17.3220955 L20.3697638,17.3216561 C20.311059,17.3190197 20.2536686,17.3488985 20.2230019,17.4038227 C20.2138019,17.4213985 20.2076686,17.4394136 20.20504,17.4578682 C20.2037257,17.4670955 20.2032876,17.4763227 20.2037257,17.4851106 C20.1432686,18.4078379 19.8861067,19.3314439 19.409459,20.1944136 C18.9314971,21.0595803 18.2831162,21.7705197 17.5313448,22.3105348 C17.5256495,22.3136106 17.5203924,22.3175652 17.5155733,22.3215197 C17.4998019,22.3347015 17.486221,22.3500803 17.4757067,22.3685348 C17.44504,22.4243379 17.4507352,22.4893682 17.4844686,22.5372621 L17.49104,22.5464894 L20.8516686,27.1434288 L20.8573638,27.1513379 C20.8713829,27.1697924 20.8889067,27.1856106 20.9103733,27.1965955 C20.9629448,27.2238379 21.0234019,27.2194439 21.0702781,27.1900045 C21.0737829,27.1873682 21.0772876,27.1847318 21.0812305,27.1816561 L21.0807924,27.1816561 C22.509421,26.14205 23.75624,24.7680652 24.6683543,23.1181409 C25.5813448,21.4664591 26.0807733,19.6983379 26.20344,17.9319742" id="Fill-56" fill="#F9E43C"></path>
                <path d="M24.0611543,6.96382273 C24.018221,6.92647424 23.9568876,6.91373182 23.9003733,6.93482273 C23.8740876,6.94492879 23.852621,6.96074697 23.8355352,6.9800803 L19.924221,11.1169742 L19.9158971,11.1266409 C19.8769067,11.1701409 19.8637638,11.233853 19.887421,11.2922924 C19.8953067,11.310747 19.9049448,11.3265652 19.9180876,11.3401864 C19.924221,11.3472167 19.9307924,11.3533682 19.9378019,11.3582015 C20.6150971,11.9865348 21.1684114,12.7686561 21.5368495,13.6830348 C21.9057257,14.60005 22.0485448,15.5522167 21.9933448,16.4788985 C21.9924686,16.48505 21.9920305,16.4916409 21.9924686,16.4982318 C21.9924686,16.5184439 21.9959733,16.5390955 22.003421,16.5584288 C22.0275162,16.6168682 22.0814019,16.6537773 22.1396686,16.6581712 L22.150621,16.6581712 L27.8278971,16.9341106 L27.8375352,16.9341106 C27.8607543,16.9349894 27.8839733,16.9310348 27.9058781,16.9213682 C27.9597638,16.8976409 27.9943733,16.8479894 28.0013829,16.7930652 C28.001821,16.7882318 28.001821,16.7838379 28.001821,16.7790045 L28.001821,16.7794439 C28.0955733,15.0117621 27.8165067,13.1755348 27.1124876,11.4258682 C26.4080305,9.67488333 25.3530971,8.17215606 24.0615924,6.96426212" id="Fill-57" fill="#E67734"></path>
                <path d="M14.1246286,1.86579848 C14.0694286,1.87678333 14.0212381,1.91720758 14.0028381,1.97520758 C13.9945143,2.00113182 13.9936381,2.02881364 13.9984571,2.05385909 L14.8295238,7.6934803 L14.8317143,7.70578333 C14.8417905,7.76378333 14.8842857,7.81343485 14.9443048,7.83101061 C14.9631429,7.83628333 14.981981,7.83804091 15.000381,7.83628333 C15.009581,7.83584394 15.018781,7.83408636 15.0271048,7.83188939 C15.9374667,7.68513182 16.8933905,7.73126818 17.8374857,8.00501061 C18.7850857,8.28007121 19.6196571,8.75549545 20.3127238,9.37020758 C20.3171048,9.37504091 20.3219238,9.37987424 20.327619,9.38338939 C20.3433905,9.39569242 20.3613524,9.40579848 20.3810667,9.41195 C20.4424,9.42908636 20.5041714,9.40931364 20.5436,9.36537424 L20.5510476,9.35702576 L24.2713524,5.04788939 L24.2774857,5.0404197 C24.292381,5.02284394 24.3037714,5.00175303 24.3099048,4.97846515 C24.3243619,4.92090455 24.3064,4.86290455 24.2674095,4.82379848 C24.2639048,4.82072273 24.2608381,4.81808636 24.2568952,4.81501061 L24.2573333,4.81501061 C22.9290286,3.64973788 21.3159619,2.73667727 19.508381,2.21160152 C17.7003619,1.68696515 15.8704381,1.59205606 14.1255048,1.86579848" id="Fill-58" fill="#D9362F"></path>
                <path d="M13.7761676,10.0114591 C11.2299581,10.0114591 9.15864381,12.0889136 9.15864381,14.6426712 C9.15864381,17.1959894 11.2299581,19.2738833 13.7761676,19.2738833 C16.321939,19.2738833 18.3936914,17.1959894 18.3936914,14.6426712 C18.3936914,12.0889136 16.321939,10.0114591 13.7761676,10.0114591" id="Fill-59" fill="#FFFFFE"></path>
                <path d="M17.191821,17.3005652 C17.2636686,17.1094288 17.2860114,16.8857773 17.3096686,16.7122167 C17.2163543,16.8022924 17.11384,16.8884136 17.0038781,16.9683833 C16.6801257,17.2043379 16.3314019,17.3576864 15.995821,17.4293076 L15.0858971,16.4349591 L15.0736305,16.443747 L15.7325257,17.6142924 C15.5612305,17.9161561 15.3053829,18.2065955 14.9772495,18.4456258 C14.8672876,18.5251561 14.754259,18.5958985 14.6399162,18.6574136 C14.8112114,18.6881712 15.0285067,18.7360652 15.2317829,18.7272773 C14.77704,18.8902924 14.2868114,18.9799288 13.7759924,18.9799288 C13.2651733,18.9799288 12.7753829,18.8902924 12.3202019,18.7272773 C12.5239162,18.7360652 12.7420876,18.6881712 12.9133829,18.6574136 C12.79904,18.5958985 12.6855733,18.5251561 12.5760495,18.4456258 C12.2479162,18.2065955 11.9925067,17.9161561 11.8212114,17.6147318 L12.4801067,16.4433076 L12.46784,16.4340803 L11.5579162,17.4288682 C11.2218971,17.3576864 10.8731733,17.2043379 10.549421,16.9683833 C10.439459,16.8884136 10.3373829,16.8022924 10.2445067,16.7122167 C10.2677257,16.8866561 10.2900686,17.1111864 10.3623543,17.3032015 C9.79239238,16.5685348 9.45199238,15.646247 9.45199238,14.6426712 C9.45199238,14.5952167 9.45374476,14.5477621 9.45505905,14.500747 C9.50719238,14.7046258 9.62504,14.9063076 9.71046857,15.0653682 C9.73324952,14.9366258 9.76523048,14.8074439 9.80728762,14.6773833 C9.93345905,14.2893985 10.1306019,13.9541409 10.365859,13.6962167 L11.6670019,13.9607318 L11.671821,13.9462318 L10.4561067,13.3890803 C10.421059,13.0476712 10.457859,12.6689136 10.5814019,12.2888379 C10.623459,12.1587773 10.6734019,12.0348682 10.7299162,11.9179894 C10.56344,11.9979591 10.3417638,12.0946258 10.1787924,12.2356712 C10.7452495,11.3854439 11.60304,10.7487621 12.6084686,10.4666712 C12.4205257,10.5778379 12.2571162,10.7632621 12.12744,10.900353 C12.2558019,10.8823379 12.3881067,10.8726712 12.5243543,10.8726712 C12.9282781,10.8726712 13.3037257,10.9561561 13.6191543,11.0989591 L13.7702971,12.4180197 L13.7856305,12.4180197 L13.9363352,11.0980803 C14.2513257,10.9557167 14.6263352,10.8726712 15.0293829,10.8726712 C15.1651924,10.8726712 15.2979352,10.8823379 15.4267352,10.900353 C15.2961829,10.7637015 15.1336495,10.5787167 14.9457067,10.46755 C15.949821,10.7496409 16.805859,11.3854439 17.3718781,12.2330348 C17.2093448,12.0941864 16.989421,11.9979591 16.8233829,11.9179894 C16.8798971,12.0348682 16.92984,12.1587773 16.9723352,12.2888379 C17.09544,12.669353 17.1331162,13.0489894 17.0971924,13.3908379 L15.8832305,13.9471106 L15.8884876,13.96205 L17.1883162,13.6975348 C17.4235733,13.9550197 17.6202781,14.2898379 17.7455733,14.6773833 C17.7880686,14.8074439 17.8200495,14.9370652 17.8428305,15.0653682 C17.927821,14.9076258 18.0447924,14.7072621 18.0969257,14.5051409 C18.0986781,14.5508379 18.1004305,14.5965348 18.1004305,14.6426712 C18.1004305,15.6449288 17.7609067,16.5667773 17.191821,17.3005652 M13.7759924,9.92665606 C11.1833448,9.92665606 9.07391619,12.0423379 9.07391619,14.6426712 C9.07391619,17.2425652 11.1833448,19.3586864 13.7759924,19.3586864 C16.36864,19.3586864 18.4780686,17.2425652 18.4780686,14.6426712 C18.4780686,12.0423379 16.36864,9.92665606 13.7759924,9.92665606" id="Fill-60" fill="#010000"></path>
                <polygon id="Fill-61" fill="#010000" points="11.8768933 14.0217197 12.6032552 16.2630682 14.9523219 16.2630682 15.6786838 14.0217197 13.7773505 12.6363106"></polygon>
            </g>
        </g>
    </g>
</svg>