<?xml version="1.0" encoding="UTF-8"?>
<svg width="78px" height="78px" viewBox="0 0 78 78" version="1.1" xmlns="http://www.w3.org/2000/svg" xmlns:xlink="http://www.w3.org/1999/xlink">
    <!-- Generator: Sketch 51.3 (57544) - http://www.bohemiancoding.com/sketch -->
    <title>Escudo Copy 20</title>
    <desc>Created with Sketch.</desc>
    <defs>
        <path d="M38.6097351,74.1231072 C18.9263066,74.1231072 2.96973507,58.1665357 2.96973507,38.4831072 C2.96973507,18.7996787 18.9263066,2.8431072 38.6097351,2.8431072 C58.2931636,2.8431072 74.2497351,18.7996787 74.2497351,38.4831072 C74.2497351,58.1665357 58.2931636,74.1231072 38.6097351,74.1231072 Z M38.6097351,71.9631072 C57.1002285,71.9631072 72.0897351,56.9736006 72.0897351,38.4831072 C72.0897351,19.9926138 57.1002285,5.0031072 38.6097351,5.0031072 C20.1192416,5.0031072 5.12973507,19.9926138 5.12973507,38.4831072 C5.12973507,56.9736006 20.1192416,71.9631072 38.6097351,71.9631072 Z M20.174963,4.2314082 L16.8714327,1.1769848 L16.8450695,1.1544672 C16.7860557,1.1017531 16.7145769,1.05801566 16.6306608,1.02933852 C16.426951,0.957317044 16.2065281,0.98566466 16.0480417,1.08459626 C16.0337567,1.09333007 16.0231119,1.1025496 16.0105366,1.11227155 L16.011557,1.1116477 C11.1919052,4.57555025 7.18120716,9.01302813 4.51341119,14.2148904 C3.09472513,16.9842465 2.12055063,19.8288755 1.56267735,22.6948536 L2.67606668,22.8342977 C5.98415849,15.0685332 12.1996109,8.62626236 20.174963,4.2314082 M60.0925383,74.2881721 L62.19055,78.087475 L62.2076795,78.1163029 C62.2452002,78.1819095 62.2943407,78.2394968 62.3565582,78.283063 C62.5071271,78.3938081 62.6888606,78.4001148 62.8334599,78.3207753 C62.8465465,78.3125849 62.8566993,78.3047365 62.868319,78.2967171 L62.8675855,78.2968026 C67.3482816,75.3909558 71.3559907,71.3147538 74.425726,66.2032138 C76.0587842,63.4827062 77.34879,60.6080774 78.3091564,57.6427455 L77.4427562,57.3105334 C73.4005793,65.0522395 67.2671805,70.9066547 60.0925383,74.2881721" id="path-1"></path>
    </defs>
    <g id="Rol-LIGA" stroke="none" stroke-width="1" fill="none" fill-rule="evenodd">
        <g id="LALIAlegaciones2_LALIGA" transform="translate(-107.000000, -480.000000)">
            <g id="Group-8" transform="translate(106.000000, 363.000000)">
                <g id="Escudo" transform="translate(0.000000, 116.000000)">
                    <g id="OK">
                        <g id="color/azul">
                            <mask id="mask-2" fill="white">
                                <use xlink:href="#path-1"></use>
                            </mask>
                            <use id="Mask" fill="#654EA3" fill-rule="nonzero" xlink:href="#path-1"></use>
                            <g id="color/blanco" mask="url(#mask-2)" fill="#FFFFFF">
                                <g transform="translate(-10.805143, -8.562162)" id="Rectangle-3">
                                    <rect x="0" y="0" width="95.3585217" height="94.3547478"></rect>
                                </g>
                            </g>
                        </g>
                    </g>
                </g>
            </g>
        </g>
    </g>
</svg>