<?xml version="1.0" encoding="UTF-8"?>
<svg width="40px" height="40px" viewBox="0 0 40 40" version="1.1" xmlns="http://www.w3.org/2000/svg" xmlns:xlink="http://www.w3.org/1999/xlink">
    <!-- Generator: Sketch 51.3 (57544) - http://www.bohemiancoding.com/sketch -->
    <title>Escudo Copy 20</title>
    <desc>Created with Sketch.</desc>
    <defs>
        <path d="M19.4998662,37.4359127 C9.5587407,37.4359127 1.4998662,29.3770382 1.4998662,19.4359127 C1.4998662,9.49478723 9.5587407,1.43591273 19.4998662,1.43591273 C29.4409917,1.43591273 37.4998662,9.49478723 37.4998662,19.4359127 C37.4998662,29.3770382 29.4409917,37.4359127 19.4998662,37.4359127 Z M19.4998662,36.3450036 C28.8384992,36.3450036 36.4089571,28.7745458 36.4089571,19.4359127 C36.4089571,10.0972797 28.8384992,2.52682182 19.4998662,2.52682182 C10.1612332,2.52682182 2.59077529,10.0972797 2.59077529,19.4359127 C2.59077529,28.7745458 10.1612332,36.3450036 19.4998662,36.3450036 Z M10.1893752,2.13707485 L8.52092559,0.59443677 L8.50761085,0.583064244 C8.47780589,0.556440958 8.44170553,0.534351344 8.39932362,0.519867938 C8.29643992,0.483493456 8.18511518,0.497810434 8.10507158,0.547775888 C8.09785693,0.552186904 8.09248075,0.556843233 8.08612961,0.561753307 L8.08664494,0.561438234 C5.65247736,2.31088396 3.6268723,4.55203441 2.2795006,7.17923758 C1.56299249,8.57790229 1.07098517,10.0145836 0.789230986,11.4620473 L1.35154883,11.5324736 C3.02230227,7.61037028 6.16141965,4.35669816 10.1893752,2.13707485 M30.3497668,37.5192788 L31.4093687,39.4381187 L31.41802,39.4526782 C31.4369698,39.4858129 31.4617882,39.5148974 31.4932112,39.5369005 C31.5692561,39.5928324 31.6610407,39.5960176 31.7340706,39.5559471 C31.7406801,39.5518106 31.7458077,39.5478467 31.7516763,39.5437965 L31.7513058,39.5438397 C34.0142836,38.0762403 36.0383791,36.0175524 37.5887505,33.4359666 C38.4135274,32.0619728 39.0650454,30.6101401 39.550079,29.1124977 L39.1125031,28.9447138 C37.0709997,32.8546664 33.9733235,35.8114418 30.3497668,37.5192788" id="path-1"></path>
    </defs>
    <g id="Rol-LIGA" stroke="none" stroke-width="1" fill="none" fill-rule="evenodd">
        <g id="LALIAlegaciones2_LALIGA" transform="translate(-753.000000, -130.000000)">
            <g id="Group-5" transform="translate(32.000000, 65.000000)">
                <g id="Group-15" transform="translate(81.000000, 65.000000)">
                    <g id="Escudo" transform="translate(640.000000, 0.000000)">
                        <g id="OK">
                            <g id="color/azul">
                                <mask id="mask-2" fill="white">
                                    <use xlink:href="#path-1"></use>
                                </mask>
                                <use id="Mask" fill="#654EA3" fill-rule="nonzero" xlink:href="#path-1"></use>
                                <g id="color/morado" mask="url(#mask-2)" fill="#654EA3">
                                    <g transform="translate(-5.457143, -4.324324)" id="Rectangle-3">
                                        <rect x="0" y="0" width="48.2482759" height="48.2482759"></rect>
                                    </g>
                                </g>
                            </g>
                        </g>
                    </g>
                </g>
            </g>
        </g>
    </g>
</svg>